<?xml version="1.0" encoding="UTF-8"?>
<svg xmlns="http://www.w3.org/2000/svg" version="1.1" width="300" height="300" viewBox="0 0 300 300"><rect x="0" y="0" width="300" height="300" fill="#ffffff"/><g transform="scale(12)"><g transform="translate(0,0)"><path fill-rule="evenodd" d="M10 0L10 1L9 1L9 2L8 2L8 3L9 3L9 5L10 5L10 7L11 7L11 8L12 8L12 9L11 9L11 10L10 10L10 9L9 9L9 6L8 6L8 8L4 8L4 9L3 9L3 8L0 8L0 9L3 9L3 10L2 10L2 11L0 11L0 12L1 12L1 13L2 13L2 14L3 14L3 15L1 15L1 14L0 14L0 15L1 15L1 16L0 16L0 17L1 17L1 16L2 16L2 17L5 17L5 14L6 14L6 15L7 15L7 14L6 14L6 13L9 13L9 14L12 14L12 15L11 15L11 18L12 18L12 19L11 19L11 20L10 20L10 17L8 17L8 16L6 16L6 17L8 17L8 21L9 21L9 20L10 20L10 21L11 21L11 22L10 22L10 24L12 24L12 23L14 23L14 24L13 24L13 25L16 25L16 23L17 23L17 25L19 25L19 24L18 24L18 23L17 23L17 22L18 22L18 21L19 21L19 22L20 22L20 25L22 25L22 23L23 23L23 24L24 24L24 25L25 25L25 22L24 22L24 23L23 23L23 22L22 22L22 21L21 21L21 19L22 19L22 20L24 20L24 21L25 21L25 19L23 19L23 18L25 18L25 17L24 17L24 16L25 16L25 15L23 15L23 13L25 13L25 12L24 12L24 11L23 11L23 12L22 12L22 11L21 11L21 10L24 10L24 9L23 9L23 8L22 8L22 9L19 9L19 8L17 8L17 4L14 4L14 3L12 3L12 2L11 2L11 3L12 3L12 5L10 5L10 3L9 3L9 2L10 2L10 1L11 1L11 0ZM15 0L15 1L14 1L14 2L15 2L15 3L17 3L17 2L16 2L16 0ZM13 4L13 5L14 5L14 6L13 6L13 7L12 7L12 6L11 6L11 7L12 7L12 8L13 8L13 12L14 12L14 11L15 11L15 13L12 13L12 14L13 14L13 15L12 15L12 16L13 16L13 17L14 17L14 19L16 19L16 16L17 16L17 15L20 15L20 16L21 16L21 17L22 17L22 16L23 16L23 15L22 15L22 12L21 12L21 11L18 11L18 12L17 12L17 11L15 11L15 10L14 10L14 9L16 9L16 8L15 8L15 7L16 7L16 5L14 5L14 4ZM14 6L14 7L13 7L13 8L14 8L14 7L15 7L15 6ZM6 9L6 10L4 10L4 11L2 11L2 12L3 12L3 14L5 14L5 12L8 12L8 11L10 11L10 10L8 10L8 9ZM6 10L6 11L8 11L8 10ZM4 11L4 12L5 12L5 11ZM11 11L11 12L12 12L12 11ZM9 12L9 13L10 13L10 12ZM16 12L16 13L17 13L17 14L16 14L16 15L15 15L15 16L14 16L14 17L15 17L15 16L16 16L16 15L17 15L17 14L18 14L18 13L17 13L17 12ZM19 13L19 14L20 14L20 15L21 15L21 13ZM9 15L9 16L10 16L10 15ZM17 17L17 20L20 20L20 17ZM18 18L18 19L19 19L19 18ZM13 20L13 21L12 21L12 22L11 22L11 23L12 23L12 22L15 22L15 23L16 23L16 22L17 22L17 21L16 21L16 20L15 20L15 21L14 21L14 20ZM20 21L20 22L21 22L21 23L22 23L22 22L21 22L21 21ZM8 22L8 25L9 25L9 22ZM0 0L0 7L7 7L7 0ZM1 1L1 6L6 6L6 1ZM2 2L2 5L5 5L5 2ZM18 0L18 7L25 7L25 0ZM19 1L19 6L24 6L24 1ZM20 2L20 5L23 5L23 2ZM0 18L0 25L7 25L7 18ZM1 19L1 24L6 24L6 19ZM2 20L2 23L5 23L5 20Z" fill="#000000"/></g></g></svg>
