<?xml version="1.0" encoding="UTF-8"?>
<svg xmlns="http://www.w3.org/2000/svg" version="1.1" width="300" height="300" viewBox="0 0 300 300"><rect x="0" y="0" width="300" height="300" fill="#ffffff"/><g transform="scale(12)"><g transform="translate(0,0)"><path fill-rule="evenodd" d="M10 0L10 1L8 1L8 3L9 3L9 4L8 4L8 8L6 8L6 9L8 9L8 10L10 10L10 9L8 9L8 8L9 8L9 5L10 5L10 8L11 8L11 11L7 11L7 10L6 10L6 11L7 11L7 12L6 12L6 13L5 13L5 9L4 9L4 8L3 8L3 9L4 9L4 12L0 12L0 13L4 13L4 14L3 14L3 15L4 15L4 16L5 16L5 17L8 17L8 19L9 19L9 20L10 20L10 18L9 18L9 17L11 17L11 16L12 16L12 17L13 17L13 16L14 16L14 18L15 18L15 16L14 16L14 15L17 15L17 16L16 16L16 19L13 19L13 18L12 18L12 20L11 20L11 21L8 21L8 22L9 22L9 23L8 23L8 25L9 25L9 24L11 24L11 23L10 23L10 22L12 22L12 20L16 20L16 21L17 21L17 22L18 22L18 21L21 21L21 22L19 22L19 24L17 24L17 25L22 25L22 24L23 24L23 23L21 23L21 22L23 22L23 21L25 21L25 19L23 19L23 21L22 21L22 20L21 20L21 18L22 18L22 17L21 17L21 16L19 16L19 15L22 15L22 16L23 16L23 17L24 17L24 18L25 18L25 17L24 17L24 16L25 16L25 15L24 15L24 14L23 14L23 15L22 15L22 13L25 13L25 12L22 12L22 11L23 11L23 10L24 10L24 8L22 8L22 9L21 9L21 8L18 8L18 9L17 9L17 10L16 10L16 9L14 9L14 8L12 8L12 7L13 7L13 6L14 6L14 7L15 7L15 6L16 6L16 8L17 8L17 6L16 6L16 5L17 5L17 4L16 4L16 3L17 3L17 0L16 0L16 3L15 3L15 0L13 0L13 2L14 2L14 3L12 3L12 7L11 7L11 4L10 4L10 3L9 3L9 2L11 2L11 0ZM14 3L14 4L13 4L13 5L14 5L14 6L15 6L15 3ZM0 8L0 9L2 9L2 8ZM13 9L13 10L14 10L14 11L13 11L13 13L12 13L12 14L13 14L13 15L12 15L12 16L13 16L13 15L14 15L14 12L15 12L15 14L16 14L16 12L17 12L17 13L18 13L18 15L19 15L19 13L20 13L20 14L21 14L21 13L22 13L22 12L19 12L19 11L18 11L18 10L17 10L17 11L16 11L16 10L14 10L14 9ZM20 9L20 11L22 11L22 10L21 10L21 9ZM15 11L15 12L16 12L16 11ZM8 12L8 14L9 14L9 15L10 15L10 14L11 14L11 13L10 13L10 12ZM6 13L6 14L4 14L4 15L5 15L5 16L7 16L7 15L6 15L6 14L7 14L7 13ZM9 13L9 14L10 14L10 13ZM0 14L0 15L1 15L1 16L0 16L0 17L3 17L3 16L2 16L2 15L1 15L1 14ZM17 17L17 20L20 20L20 17ZM18 18L18 19L19 19L19 18ZM24 22L24 25L25 25L25 22ZM13 23L13 25L16 25L16 23ZM20 23L20 24L21 24L21 23ZM0 0L0 7L7 7L7 0ZM1 1L1 6L6 6L6 1ZM2 2L2 5L5 5L5 2ZM18 0L18 7L25 7L25 0ZM19 1L19 6L24 6L24 1ZM20 2L20 5L23 5L23 2ZM0 18L0 25L7 25L7 18ZM1 19L1 24L6 24L6 19ZM2 20L2 23L5 23L5 20Z" fill="#000000"/></g></g></svg>
