<?xml version="1.0" encoding="UTF-8"?>
<svg xmlns="http://www.w3.org/2000/svg" version="1.1" width="300" height="300" viewBox="0 0 300 300"><rect x="0" y="0" width="300" height="300" fill="#ffffff"/><g transform="scale(4.11)"><g transform="translate(0,0)"><path fill-rule="evenodd" d="M9 0L9 1L8 1L8 2L10 2L10 1L11 1L11 0ZM13 0L13 3L10 3L10 4L9 4L9 3L8 3L8 4L9 4L9 5L8 5L8 7L9 7L9 8L6 8L6 9L5 9L5 8L0 8L0 12L1 12L1 13L2 13L2 14L3 14L3 18L5 18L5 16L6 16L6 17L7 17L7 18L6 18L6 19L9 19L9 20L10 20L10 21L8 21L8 23L9 23L9 24L6 24L6 23L7 23L7 22L6 22L6 21L7 21L7 20L6 20L6 21L5 21L5 20L4 20L4 21L3 21L3 19L1 19L1 18L0 18L0 21L1 21L1 24L2 24L2 25L3 25L3 26L1 26L1 25L0 25L0 28L1 28L1 27L2 27L2 29L3 29L3 30L1 30L1 29L0 29L0 30L1 30L1 32L0 32L0 33L3 33L3 34L2 34L2 36L3 36L3 37L2 37L2 38L1 38L1 39L0 39L0 40L1 40L1 41L0 41L0 42L1 42L1 44L2 44L2 45L0 45L0 47L1 47L1 48L0 48L0 49L1 49L1 48L2 48L2 49L3 49L3 50L5 50L5 51L7 51L7 52L2 52L2 54L1 54L1 53L0 53L0 55L2 55L2 56L3 56L3 54L4 54L4 53L5 53L5 54L6 54L6 55L7 55L7 56L6 56L6 57L7 57L7 58L6 58L6 59L5 59L5 58L4 58L4 57L3 57L3 59L2 59L2 58L0 58L0 63L2 63L2 62L3 62L3 64L4 64L4 65L5 65L5 63L7 63L7 62L8 62L8 61L7 61L7 60L8 60L8 59L7 59L7 58L8 58L8 57L9 57L9 63L8 63L8 64L6 64L6 65L8 65L8 67L9 67L9 68L8 68L8 73L9 73L9 71L10 71L10 70L9 70L9 68L10 68L10 69L11 69L11 68L12 68L12 71L13 71L13 69L14 69L14 72L13 72L13 73L14 73L14 72L15 72L15 73L16 73L16 72L17 72L17 70L15 70L15 69L14 69L14 66L15 66L15 68L16 68L16 69L20 69L20 68L18 68L18 67L20 67L20 66L19 66L19 63L16 63L16 62L19 62L19 61L21 61L21 62L22 62L22 63L20 63L20 65L22 65L22 64L24 64L24 65L23 65L23 67L24 67L24 69L23 69L23 68L22 68L22 67L21 67L21 69L22 69L22 71L21 71L21 70L20 70L20 71L19 71L19 70L18 70L18 72L19 72L19 73L23 73L23 72L22 72L22 71L25 71L25 72L24 72L24 73L28 73L28 72L30 72L30 73L31 73L31 71L32 71L32 72L33 72L33 73L35 73L35 71L37 71L37 72L36 72L36 73L38 73L38 71L39 71L39 72L41 72L41 73L43 73L43 72L44 72L44 71L42 71L42 70L44 70L44 69L47 69L47 70L49 70L49 71L47 71L47 72L48 72L48 73L52 73L52 72L53 72L53 73L54 73L54 72L56 72L56 73L58 73L58 71L59 71L59 69L58 69L58 68L60 68L60 69L61 69L61 68L62 68L62 67L63 67L63 66L64 66L64 68L63 68L63 69L62 69L62 70L60 70L60 71L64 71L64 72L66 72L66 70L67 70L67 72L69 72L69 73L73 73L73 69L72 69L72 67L73 67L73 66L71 66L71 64L72 64L72 65L73 65L73 62L72 62L72 61L73 61L73 55L72 55L72 54L73 54L73 50L72 50L72 49L73 49L73 46L72 46L72 45L73 45L73 42L70 42L70 41L71 41L71 40L70 40L70 38L71 38L71 39L72 39L72 40L73 40L73 38L72 38L72 37L73 37L73 34L71 34L71 37L70 37L70 38L69 38L69 39L68 39L68 36L69 36L69 35L70 35L70 34L69 34L69 35L68 35L68 34L66 34L66 33L65 33L65 32L64 32L64 33L63 33L63 32L62 32L62 34L60 34L60 33L61 33L61 32L60 32L60 31L54 31L54 30L53 30L53 28L54 28L54 27L55 27L55 28L56 28L56 29L55 29L55 30L56 30L56 29L57 29L57 30L58 30L58 29L57 29L57 28L60 28L60 29L59 29L59 30L61 30L61 31L62 31L62 30L61 30L61 27L62 27L62 26L61 26L61 25L62 25L62 24L63 24L63 22L64 22L64 26L63 26L63 27L64 27L64 28L63 28L63 29L64 29L64 30L63 30L63 31L66 31L66 32L67 32L67 33L68 33L68 32L69 32L69 33L71 33L71 32L72 32L72 33L73 33L73 32L72 32L72 31L73 31L73 30L72 30L72 31L71 31L71 30L70 30L70 29L72 29L72 28L73 28L73 26L71 26L71 28L70 28L70 29L69 29L69 27L70 27L70 26L69 26L69 25L71 25L71 24L72 24L72 23L73 23L73 22L72 22L72 23L71 23L71 24L68 24L68 23L69 23L69 22L71 22L71 21L70 21L70 20L69 20L69 22L68 22L68 21L67 21L67 20L66 20L66 19L67 19L67 18L68 18L68 19L69 19L69 17L68 17L68 15L70 15L70 14L68 14L68 11L71 11L71 12L72 12L72 14L71 14L71 16L70 16L70 17L71 17L71 18L70 18L70 19L71 19L71 20L72 20L72 21L73 21L73 20L72 20L72 19L73 19L73 18L72 18L72 16L73 16L73 10L70 10L70 8L69 8L69 9L68 9L68 8L67 8L67 10L65 10L65 11L64 11L64 9L66 9L66 8L65 8L65 6L64 6L64 9L63 9L63 5L65 5L65 4L64 4L64 3L62 3L62 4L59 4L59 5L58 5L58 2L59 2L59 3L60 3L60 0L59 0L59 1L58 1L58 0L57 0L57 1L58 1L58 2L57 2L57 3L56 3L56 1L55 1L55 0L54 0L54 1L53 1L53 0L51 0L51 1L53 1L53 2L52 2L52 3L47 3L47 2L50 2L50 1L47 1L47 0L46 0L46 1L45 1L45 0L42 0L42 1L45 1L45 2L44 2L44 3L42 3L42 5L38 5L38 7L39 7L39 14L34 14L34 13L35 13L35 12L34 12L34 11L35 11L35 10L34 10L34 11L33 11L33 9L32 9L32 8L33 8L33 6L34 6L34 7L35 7L35 9L37 9L37 10L38 10L38 9L37 9L37 8L36 8L36 7L37 7L37 3L39 3L39 4L40 4L40 3L41 3L41 2L40 2L40 3L39 3L39 1L41 1L41 0L39 0L39 1L38 1L38 0L37 0L37 1L38 1L38 2L37 2L37 3L36 3L36 4L35 4L35 5L36 5L36 7L35 7L35 6L34 6L34 5L31 5L31 4L32 4L32 3L33 3L33 4L34 4L34 2L35 2L35 1L34 1L34 0L33 0L33 2L32 2L32 1L31 1L31 0L30 0L30 1L31 1L31 2L32 2L32 3L31 3L31 4L30 4L30 5L31 5L31 6L30 6L30 7L29 7L29 3L27 3L27 2L28 2L28 1L27 1L27 0L26 0L26 1L24 1L24 2L23 2L23 3L21 3L21 2L22 2L22 1L23 1L23 0L22 0L22 1L21 1L21 0L20 0L20 3L19 3L19 1L18 1L18 0L17 0L17 1L16 1L16 3L18 3L18 4L16 4L16 5L15 5L15 4L14 4L14 2L15 2L15 1L14 1L14 0ZM62 0L62 1L61 1L61 2L63 2L63 0ZM64 0L64 1L65 1L65 0ZM17 1L17 2L18 2L18 1ZM46 1L46 2L47 2L47 1ZM54 1L54 3L53 3L53 4L52 4L52 5L55 5L55 7L56 7L56 8L55 8L55 9L53 9L53 8L54 8L54 6L53 6L53 7L52 7L52 6L51 6L51 7L50 7L50 6L49 6L49 11L50 11L50 12L52 12L52 11L50 11L50 10L52 10L52 9L53 9L53 10L55 10L55 11L53 11L53 13L52 13L52 14L51 14L51 13L49 13L49 12L48 12L48 11L47 11L47 12L48 12L48 13L45 13L45 12L44 12L44 13L45 13L45 14L40 14L40 15L38 15L38 18L41 18L41 20L40 20L40 19L36 19L36 18L37 18L37 17L36 17L36 16L37 16L37 15L36 15L36 16L35 16L35 15L34 15L34 16L35 16L35 17L33 17L33 16L32 16L32 18L31 18L31 20L30 20L30 18L29 18L29 17L30 17L30 15L33 15L33 14L32 14L32 13L33 13L33 12L31 12L31 10L32 10L32 9L31 9L31 8L32 8L32 6L31 6L31 8L30 8L30 9L31 9L31 10L30 10L30 11L29 11L29 9L28 9L28 10L27 10L27 12L25 12L25 11L23 11L23 10L24 10L24 9L23 9L23 8L24 8L24 4L25 4L25 3L26 3L26 4L27 4L27 3L26 3L26 2L24 2L24 4L23 4L23 5L22 5L22 4L21 4L21 3L20 3L20 4L19 4L19 5L17 5L17 7L16 7L16 6L15 6L15 9L16 9L16 10L17 10L17 11L16 11L16 12L15 12L15 13L13 13L13 11L14 11L14 10L13 10L13 9L12 9L12 6L13 6L13 7L14 7L14 4L13 4L13 5L12 5L12 4L10 4L10 5L12 5L12 6L11 6L11 7L10 7L10 6L9 6L9 7L10 7L10 8L9 8L9 9L6 9L6 10L5 10L5 12L3 12L3 11L4 11L4 10L3 10L3 9L2 9L2 10L3 10L3 11L2 11L2 13L3 13L3 14L4 14L4 16L5 16L5 14L7 14L7 13L10 13L10 15L9 15L9 14L8 14L8 15L6 15L6 16L8 16L8 18L9 18L9 17L10 17L10 18L12 18L12 23L10 23L10 24L9 24L9 25L12 25L12 26L11 26L11 27L10 27L10 28L9 28L9 30L10 30L10 28L11 28L11 29L12 29L12 31L11 31L11 33L13 33L13 34L12 34L12 35L11 35L11 34L9 34L9 33L10 33L10 32L8 32L8 30L7 30L7 29L4 29L4 26L3 26L3 29L4 29L4 30L3 30L3 31L2 31L2 32L3 32L3 31L4 31L4 34L7 34L7 33L6 33L6 32L8 32L8 35L3 35L3 36L10 36L10 35L11 35L11 37L10 37L10 38L9 38L9 37L5 37L5 38L4 38L4 39L3 39L3 38L2 38L2 40L4 40L4 41L3 41L3 42L2 42L2 41L1 41L1 42L2 42L2 44L3 44L3 45L4 45L4 44L8 44L8 43L9 43L9 46L10 46L10 48L12 48L12 52L11 52L11 51L10 51L10 50L11 50L11 49L10 49L10 50L9 50L9 51L8 51L8 50L7 50L7 49L6 49L6 50L7 50L7 51L8 51L8 52L9 52L9 51L10 51L10 52L11 52L11 53L9 53L9 54L12 54L12 53L13 53L13 52L14 52L14 53L15 53L15 52L16 52L16 51L17 51L17 54L16 54L16 55L12 55L12 57L11 57L11 55L10 55L10 57L11 57L11 61L10 61L10 65L15 65L15 66L17 66L17 65L18 65L18 64L17 64L17 65L16 65L16 64L13 64L13 63L12 63L12 64L11 64L11 61L12 61L12 59L13 59L13 57L14 57L14 58L15 58L15 59L16 59L16 61L15 61L15 60L14 60L14 61L15 61L15 62L16 62L16 61L18 61L18 59L17 59L17 57L18 57L18 58L20 58L20 59L19 59L19 60L23 60L23 63L24 63L24 64L25 64L25 62L24 62L24 60L25 60L25 59L24 59L24 58L25 58L25 57L26 57L26 59L27 59L27 62L26 62L26 63L27 63L27 62L28 62L28 60L29 60L29 62L30 62L30 63L28 63L28 64L30 64L30 65L31 65L31 64L30 64L30 63L31 63L31 62L30 62L30 61L31 61L31 60L30 60L30 59L33 59L33 58L35 58L35 60L32 60L32 63L33 63L33 64L32 64L32 65L33 65L33 66L32 66L32 67L31 67L31 66L29 66L29 67L30 67L30 68L29 68L29 69L31 69L31 70L29 70L29 71L31 71L31 70L32 70L32 71L33 71L33 72L34 72L34 71L33 71L33 70L35 70L35 69L36 69L36 68L37 68L37 67L38 67L38 66L39 66L39 68L40 68L40 69L41 69L41 70L40 70L40 71L41 71L41 70L42 70L42 69L43 69L43 68L44 68L44 67L43 67L43 66L44 66L44 64L46 64L46 63L47 63L47 64L48 64L48 63L47 63L47 62L46 62L46 63L43 63L43 62L42 62L42 61L41 61L41 60L40 60L40 58L39 58L39 57L41 57L41 56L42 56L42 57L43 57L43 58L41 58L41 59L43 59L43 58L45 58L45 57L44 57L44 56L46 56L46 57L48 57L48 59L47 59L47 58L46 58L46 59L44 59L44 62L45 62L45 60L48 60L48 61L49 61L49 62L50 62L50 63L49 63L49 66L50 66L50 65L51 65L51 66L52 66L52 67L49 67L49 70L51 70L51 68L55 68L55 69L56 69L56 70L54 70L54 69L52 69L52 71L53 71L53 72L54 72L54 71L56 71L56 72L57 72L57 71L58 71L58 70L57 70L57 69L56 69L56 68L55 68L55 67L57 67L57 68L58 68L58 67L57 67L57 66L55 66L55 67L53 67L53 66L54 66L54 65L53 65L53 64L54 64L54 63L55 63L55 62L56 62L56 63L57 63L57 62L56 62L56 61L58 61L58 62L59 62L59 61L60 61L60 64L57 64L57 65L58 65L58 66L59 66L59 67L60 67L60 68L61 68L61 67L60 67L60 66L62 66L62 65L63 65L63 64L65 64L65 63L66 63L66 64L69 64L69 63L68 63L68 62L69 62L69 61L68 61L68 60L71 60L71 61L72 61L72 59L71 59L71 58L72 58L72 56L71 56L71 55L70 55L70 56L69 56L69 55L68 55L68 54L69 54L69 53L68 53L68 51L67 51L67 53L68 53L68 54L67 54L67 55L66 55L66 53L65 53L65 52L66 52L66 50L67 50L67 49L66 49L66 50L65 50L65 51L64 51L64 52L63 52L63 51L61 51L61 50L64 50L64 49L61 49L61 48L63 48L63 47L64 47L64 44L65 44L65 43L64 43L64 44L62 44L62 43L63 43L63 40L65 40L65 41L64 41L64 42L66 42L66 41L67 41L67 40L68 40L68 42L67 42L67 44L68 44L68 43L69 43L69 44L71 44L71 43L69 43L69 40L68 40L68 39L67 39L67 38L65 38L65 39L63 39L63 40L62 40L62 39L60 39L60 38L59 38L59 39L58 39L58 38L57 38L57 39L56 39L56 40L54 40L54 39L53 39L53 38L54 38L54 37L57 37L57 36L59 36L59 37L60 37L60 36L62 36L62 37L61 37L61 38L62 38L62 37L63 37L63 38L64 38L64 37L67 37L67 36L68 36L68 35L67 35L67 36L66 36L66 34L65 34L65 33L64 33L64 34L65 34L65 35L63 35L63 36L62 36L62 35L60 35L60 36L59 36L59 33L60 33L60 32L57 32L57 33L56 33L56 32L55 32L55 34L57 34L57 36L55 36L55 35L54 35L54 36L52 36L52 39L53 39L53 40L54 40L54 41L53 41L53 42L52 42L52 43L51 43L51 42L50 42L50 41L51 41L51 36L50 36L50 35L49 35L49 34L50 34L50 33L51 33L51 34L52 34L52 35L53 35L53 34L54 34L54 33L51 33L51 32L54 32L54 31L53 31L53 30L52 30L52 31L48 31L48 30L45 30L45 31L46 31L46 32L44 32L44 28L43 28L43 26L44 26L44 24L45 24L45 23L46 23L46 24L50 24L50 25L49 25L49 27L50 27L50 28L49 28L49 30L50 30L50 29L51 29L51 28L52 28L52 27L53 27L53 26L54 26L54 25L57 25L57 23L58 23L58 26L55 26L55 27L61 27L61 26L59 26L59 25L61 25L61 24L62 24L62 23L61 23L61 24L59 24L59 23L60 23L60 22L62 22L62 20L63 20L63 21L64 21L64 20L65 20L65 21L66 21L66 22L67 22L67 23L65 23L65 24L67 24L67 23L68 23L68 22L67 22L67 21L66 21L66 20L65 20L65 17L64 17L64 16L66 16L66 18L67 18L67 15L68 15L68 14L67 14L67 13L66 13L66 12L67 12L67 11L68 11L68 10L67 10L67 11L65 11L65 14L63 14L63 16L62 16L62 15L60 15L60 13L61 13L61 14L62 14L62 11L59 11L59 10L62 10L62 6L61 6L61 5L59 5L59 7L58 7L58 5L57 5L57 4L56 4L56 3L55 3L55 1ZM44 3L44 4L43 4L43 5L42 5L42 6L41 6L41 8L40 8L40 9L41 9L41 10L40 10L40 11L41 11L41 12L40 12L40 13L42 13L42 12L43 12L43 11L45 11L45 10L46 10L46 9L45 9L45 10L44 10L44 4L45 4L45 3ZM46 3L46 4L47 4L47 3ZM49 4L49 5L51 5L51 4ZM62 4L62 5L63 5L63 4ZM19 5L19 6L18 6L18 7L17 7L17 8L18 8L18 9L17 9L17 10L18 10L18 11L17 11L17 12L16 12L16 13L15 13L15 14L14 14L14 15L13 15L13 16L12 16L12 14L13 14L13 13L11 13L11 12L10 12L10 13L11 13L11 16L10 16L10 17L11 17L11 16L12 16L12 18L14 18L14 17L15 17L15 19L14 19L14 20L15 20L15 22L14 22L14 21L13 21L13 22L14 22L14 23L12 23L12 24L13 24L13 25L14 25L14 24L16 24L16 20L17 20L17 18L18 18L18 17L17 17L17 15L18 15L18 16L19 16L19 17L20 17L20 18L19 18L19 19L20 19L20 20L18 20L18 21L17 21L17 22L18 22L18 25L22 25L22 24L23 24L23 25L24 25L24 28L23 28L23 29L22 29L22 28L21 28L21 27L22 27L22 26L21 26L21 27L20 27L20 28L19 28L19 27L18 27L18 26L16 26L16 25L15 25L15 26L14 26L14 27L13 27L13 26L12 26L12 27L13 27L13 28L12 28L12 29L13 29L13 28L14 28L14 29L15 29L15 28L14 28L14 27L16 27L16 28L17 28L17 27L18 27L18 29L17 29L17 30L14 30L14 34L13 34L13 36L16 36L16 37L14 37L14 38L11 38L11 39L13 39L13 40L16 40L16 41L13 41L13 42L14 42L14 43L12 43L12 42L11 42L11 41L7 41L7 40L5 40L5 41L7 41L7 42L6 42L6 43L7 43L7 42L10 42L10 46L11 46L11 47L13 47L13 48L14 48L14 49L15 49L15 50L14 50L14 52L15 52L15 51L16 51L16 50L17 50L17 51L18 51L18 49L16 49L16 48L17 48L17 47L16 47L16 45L17 45L17 46L19 46L19 45L20 45L20 47L24 47L24 49L27 49L27 51L28 51L28 49L29 49L29 51L30 51L30 50L31 50L31 51L32 51L32 52L29 52L29 54L28 54L28 52L26 52L26 50L25 50L25 52L24 52L24 51L22 51L22 50L21 50L21 51L20 51L20 50L19 50L19 51L20 51L20 52L19 52L19 53L18 53L18 55L17 55L17 56L14 56L14 57L17 57L17 56L18 56L18 57L20 57L20 58L21 58L21 59L22 59L22 58L23 58L23 57L22 57L22 56L24 56L24 57L25 57L25 56L24 56L24 55L25 55L25 54L24 54L24 55L23 55L23 53L22 53L22 52L24 52L24 53L27 53L27 55L26 55L26 56L27 56L27 57L28 57L28 56L27 56L27 55L29 55L29 54L31 54L31 55L30 55L30 56L29 56L29 58L27 58L27 59L30 59L30 58L31 58L31 57L32 57L32 56L31 56L31 55L32 55L32 52L33 52L33 53L34 53L34 52L33 52L33 51L35 51L35 52L36 52L36 54L34 54L34 55L33 55L33 56L36 56L36 57L37 57L37 58L36 58L36 59L37 59L37 60L35 60L35 61L36 61L36 63L37 63L37 64L35 64L35 62L34 62L34 64L33 64L33 65L35 65L35 66L33 66L33 67L32 67L32 68L31 68L31 69L32 69L32 68L33 68L33 69L35 69L35 68L36 68L36 67L37 67L37 66L38 66L38 65L39 65L39 64L41 64L41 63L40 63L40 62L37 62L37 61L40 61L40 60L38 60L38 59L39 59L39 58L38 58L38 56L41 56L41 55L42 55L42 56L43 56L43 55L46 55L46 54L43 54L43 53L42 53L42 52L43 52L43 51L46 51L46 50L43 50L43 49L47 49L47 51L52 51L52 49L54 49L54 50L53 50L53 51L54 51L54 52L53 52L53 53L52 53L52 52L51 52L51 54L50 54L50 57L51 57L51 58L50 58L50 59L52 59L52 60L51 60L51 61L50 61L50 62L51 62L51 63L54 63L54 62L53 62L53 61L55 61L55 60L56 60L56 59L54 59L54 60L53 60L53 59L52 59L52 57L54 57L54 58L58 58L58 57L59 57L59 58L60 58L60 57L59 57L59 56L58 56L58 55L59 55L59 53L58 53L58 51L55 51L55 48L56 48L56 50L58 50L58 49L59 49L59 50L60 50L60 49L59 49L59 48L61 48L61 45L59 45L59 46L60 46L60 47L59 47L59 48L57 48L57 47L56 47L56 46L58 46L58 45L55 45L55 48L54 48L54 46L49 46L49 44L50 44L50 45L53 45L53 43L52 43L52 44L51 44L51 43L50 43L50 42L49 42L49 41L50 41L50 40L48 40L48 41L47 41L47 39L46 39L46 41L45 41L45 42L46 42L46 43L44 43L44 42L43 42L43 41L44 41L44 40L43 40L43 39L42 39L42 38L43 38L43 37L44 37L44 38L48 38L48 39L50 39L50 38L48 38L48 37L50 37L50 36L48 36L48 35L46 35L46 36L45 36L45 35L43 35L43 36L42 36L42 38L41 38L41 37L40 37L40 36L41 36L41 35L40 35L40 36L39 36L39 38L38 38L38 37L37 37L37 36L38 36L38 35L39 35L39 34L38 34L38 35L37 35L37 32L36 32L36 33L35 33L35 34L33 34L33 33L32 33L32 32L33 32L33 31L34 31L34 32L35 32L35 31L39 31L39 32L38 32L38 33L39 33L39 32L42 32L42 34L43 34L43 33L44 33L44 34L46 34L46 33L44 33L44 32L42 32L42 31L41 31L41 30L43 30L43 29L42 29L42 27L39 27L39 26L38 26L38 25L39 25L39 23L40 23L40 24L42 24L42 26L43 26L43 24L42 24L42 22L43 22L43 23L44 23L44 21L42 21L42 20L43 20L43 19L42 19L42 20L41 20L41 21L42 21L42 22L41 22L41 23L40 23L40 20L38 20L38 21L37 21L37 20L36 20L36 19L35 19L35 20L36 20L36 21L35 21L35 22L33 22L33 23L32 23L32 24L31 24L31 21L32 21L32 20L31 20L31 21L29 21L29 19L27 19L27 20L28 20L28 21L29 21L29 22L30 22L30 23L27 23L27 24L26 24L26 22L27 22L27 21L26 21L26 18L25 18L25 17L26 17L26 16L25 16L25 17L24 17L24 18L23 18L23 15L24 15L24 14L25 14L25 13L24 13L24 12L23 12L23 11L22 11L22 10L21 10L21 9L22 9L22 8L18 8L18 7L19 7L19 6L20 6L20 7L21 7L21 6L22 6L22 7L23 7L23 6L22 6L22 5L21 5L21 6L20 6L20 5ZM25 5L25 8L28 8L28 5ZM45 5L45 8L48 8L48 5ZM56 5L56 7L57 7L57 8L58 8L58 7L57 7L57 5ZM26 6L26 7L27 7L27 6ZM39 6L39 7L40 7L40 6ZM42 6L42 8L43 8L43 6ZM46 6L46 7L47 7L47 6ZM60 6L60 7L59 7L59 8L61 8L61 6ZM10 8L10 9L11 9L11 10L9 10L9 11L11 11L11 10L12 10L12 9L11 9L11 8ZM51 8L51 9L52 9L52 8ZM71 8L71 9L72 9L72 8ZM19 9L19 10L20 10L20 9ZM25 9L25 10L26 10L26 9ZM42 9L42 10L43 10L43 9ZM47 9L47 10L48 10L48 9ZM55 9L55 10L58 10L58 9ZM6 10L6 11L7 11L7 10ZM20 11L20 13L19 13L19 12L17 12L17 13L19 13L19 14L18 14L18 15L19 15L19 14L20 14L20 16L22 16L22 13L21 13L21 11ZM37 11L37 12L36 12L36 13L37 13L37 12L38 12L38 11ZM55 11L55 12L54 12L54 14L55 14L55 15L54 15L54 16L56 16L56 17L54 17L54 18L53 18L53 19L52 19L52 18L50 18L50 22L49 22L49 21L48 21L48 22L47 22L47 20L48 20L48 19L49 19L49 18L48 18L48 19L47 19L47 18L45 18L45 17L46 17L46 16L47 16L47 17L48 17L48 14L49 14L49 15L51 15L51 14L49 14L49 13L48 13L48 14L47 14L47 15L46 15L46 14L45 14L45 17L44 17L44 16L43 16L43 15L42 15L42 16L43 16L43 17L42 17L42 18L45 18L45 19L44 19L44 20L45 20L45 21L46 21L46 22L47 22L47 23L50 23L50 24L51 24L51 25L50 25L50 27L52 27L52 26L51 26L51 25L52 25L52 24L53 24L53 25L54 25L54 24L56 24L56 23L57 23L57 22L58 22L58 23L59 23L59 20L60 20L60 19L59 19L59 20L58 20L58 19L55 19L55 18L59 18L59 16L60 16L60 18L61 18L61 19L63 19L63 20L64 20L64 19L63 19L63 18L64 18L64 17L63 17L63 18L61 18L61 17L62 17L62 16L60 16L60 15L59 15L59 16L58 16L58 15L56 15L56 14L59 14L59 13L57 13L57 12L59 12L59 11ZM5 12L5 13L7 13L7 12ZM27 12L27 13L26 13L26 14L27 14L27 17L29 17L29 16L28 16L28 15L30 15L30 14L31 14L31 12ZM55 12L55 13L56 13L56 12ZM63 12L63 13L64 13L64 12ZM27 13L27 14L29 14L29 13ZM16 14L16 15L15 15L15 17L16 17L16 18L17 18L17 17L16 17L16 15L17 15L17 14ZM66 14L66 15L67 15L67 14ZM40 15L40 16L41 16L41 15ZM0 16L0 17L2 17L2 16ZM49 16L49 17L50 17L50 16ZM51 16L51 17L52 17L52 16ZM57 16L57 17L58 17L58 16ZM21 17L21 18L20 18L20 19L21 19L21 20L20 20L20 21L19 21L19 22L20 22L20 21L21 21L21 23L19 23L19 24L21 24L21 23L23 23L23 24L25 24L25 22L26 22L26 21L25 21L25 20L24 20L24 19L25 19L25 18L24 18L24 19L23 19L23 18L22 18L22 17ZM33 18L33 20L34 20L34 18ZM10 19L10 20L11 20L11 19ZM51 19L51 20L52 20L52 19ZM53 19L53 20L54 20L54 19ZM1 20L1 21L2 21L2 22L3 22L3 21L2 21L2 20ZM21 20L21 21L23 21L23 20ZM55 20L55 23L56 23L56 21L58 21L58 20ZM4 21L4 23L5 23L5 21ZM38 21L38 22L35 22L35 23L34 23L34 24L32 24L32 26L29 26L29 28L30 28L30 29L33 29L33 28L34 28L34 30L39 30L39 27L38 27L38 26L37 26L37 25L38 25L38 24L37 24L37 25L34 25L34 24L36 24L36 23L39 23L39 21ZM53 21L53 22L51 22L51 23L53 23L53 24L54 24L54 23L53 23L53 22L54 22L54 21ZM23 22L23 23L24 23L24 22ZM2 23L2 24L3 24L3 23ZM5 25L5 28L8 28L8 25ZM25 25L25 28L28 28L28 25ZM45 25L45 28L48 28L48 25ZM65 25L65 28L68 28L68 25ZM6 26L6 27L7 27L7 26ZM26 26L26 27L27 27L27 26ZM34 26L34 28L35 28L35 29L38 29L38 27L37 27L37 26L36 26L36 27L37 27L37 28L35 28L35 26ZM46 26L46 27L47 27L47 26ZM66 26L66 27L67 27L67 26ZM30 27L30 28L31 28L31 27ZM32 27L32 28L33 28L33 27ZM20 28L20 29L19 29L19 30L17 30L17 31L16 31L16 32L15 32L15 33L16 33L16 34L15 34L15 35L16 35L16 36L17 36L17 37L16 37L16 38L15 38L15 39L16 39L16 40L17 40L17 41L18 41L18 42L17 42L17 43L19 43L19 44L17 44L17 45L19 45L19 44L20 44L20 45L21 45L21 46L22 46L22 45L21 45L21 43L20 43L20 42L21 42L21 40L22 40L22 41L25 41L25 40L24 40L24 39L21 39L21 38L20 38L20 37L21 37L21 36L20 36L20 33L18 33L18 32L22 32L22 33L21 33L21 34L22 34L22 37L23 37L23 36L24 36L24 37L25 37L25 36L27 36L27 37L26 37L26 38L25 38L25 39L26 39L26 38L27 38L27 39L28 39L28 40L26 40L26 43L23 43L23 42L22 42L22 43L23 43L23 44L27 44L27 43L31 43L31 42L27 42L27 41L28 41L28 40L29 40L29 41L31 41L31 40L32 40L32 42L35 42L35 43L34 43L34 44L37 44L37 45L36 45L36 47L35 47L35 45L33 45L33 44L32 44L32 45L33 45L33 46L30 46L30 44L29 44L29 48L30 48L30 47L31 47L31 48L32 48L32 51L33 51L33 50L35 50L35 48L37 48L37 49L38 49L38 50L36 50L36 52L37 52L37 53L38 53L38 54L37 54L37 55L36 55L36 56L37 56L37 55L38 55L38 54L39 54L39 53L38 53L38 52L39 52L39 50L40 50L40 51L41 51L41 50L40 50L40 49L43 49L43 48L44 48L44 45L43 45L43 44L44 44L44 43L42 43L42 44L40 44L40 43L41 43L41 41L43 41L43 40L42 40L42 39L41 39L41 38L40 38L40 39L41 39L41 40L39 40L39 39L33 39L33 40L32 40L32 39L31 39L31 38L27 38L27 37L28 37L28 35L30 35L30 36L31 36L31 37L32 37L32 38L35 38L35 37L36 37L36 36L37 36L37 35L36 35L36 36L35 36L35 35L33 35L33 34L32 34L32 33L31 33L31 32L32 32L32 31L33 31L33 30L30 30L30 31L31 31L31 32L30 32L30 33L31 33L31 34L28 34L28 33L29 33L29 30L27 30L27 29L25 29L25 30L22 30L22 29L21 29L21 28ZM40 28L40 30L41 30L41 28ZM68 29L68 30L66 30L66 31L67 31L67 32L68 32L68 30L69 30L69 31L70 31L70 32L71 32L71 31L70 31L70 30L69 30L69 29ZM5 30L5 32L6 32L6 31L7 31L7 30ZM19 30L19 31L20 31L20 30ZM26 30L26 31L27 31L27 32L26 32L26 33L27 33L27 32L28 32L28 31L27 31L27 30ZM12 31L12 32L13 32L13 31ZM17 31L17 32L16 32L16 33L17 33L17 34L16 34L16 35L17 35L17 36L18 36L18 37L17 37L17 38L18 38L18 37L20 37L20 36L19 36L19 34L18 34L18 33L17 33L17 32L18 32L18 31ZM22 31L22 32L23 32L23 34L25 34L25 33L24 33L24 32L25 32L25 31L24 31L24 32L23 32L23 31ZM47 31L47 34L48 34L48 33L49 33L49 32L48 32L48 31ZM57 33L57 34L58 34L58 33ZM17 34L17 35L18 35L18 34ZM26 34L26 35L27 35L27 34ZM24 35L24 36L25 36L25 35ZM32 35L32 36L33 36L33 37L34 37L34 36L33 36L33 35ZM44 36L44 37L45 37L45 36ZM46 36L46 37L47 37L47 36ZM5 38L5 39L7 39L7 38ZM8 39L8 40L10 40L10 39ZM18 39L18 41L20 41L20 40L19 40L19 39ZM30 39L30 40L31 40L31 39ZM65 39L65 40L67 40L67 39ZM33 40L33 41L34 41L34 40ZM36 40L36 41L37 41L37 42L38 42L38 43L37 43L37 44L38 44L38 45L40 45L40 44L38 44L38 43L39 43L39 42L40 42L40 41L39 41L39 42L38 42L38 40ZM57 40L57 42L58 42L58 40ZM60 40L60 42L61 42L61 43L58 43L58 44L61 44L61 43L62 43L62 42L61 42L61 41L62 41L62 40ZM46 41L46 42L47 42L47 43L46 43L46 44L49 44L49 43L48 43L48 42L47 42L47 41ZM54 41L54 42L55 42L55 43L54 43L54 44L57 44L57 43L56 43L56 42L55 42L55 41ZM3 42L3 44L4 44L4 43L5 43L5 42ZM11 43L11 44L12 44L12 43ZM15 43L15 44L13 44L13 45L14 45L14 46L13 46L13 47L14 47L14 46L15 46L15 44L16 44L16 43ZM5 45L5 48L8 48L8 45ZM25 45L25 48L28 48L28 45ZM41 45L41 46L43 46L43 45ZM45 45L45 48L48 48L48 45ZM65 45L65 48L68 48L68 45ZM70 45L70 46L71 46L71 47L70 47L70 48L69 48L69 49L68 49L68 50L69 50L69 49L70 49L70 50L71 50L71 49L70 49L70 48L72 48L72 46L71 46L71 45ZM2 46L2 47L3 47L3 48L4 48L4 47L3 47L3 46ZM6 46L6 47L7 47L7 46ZM26 46L26 47L27 47L27 46ZM33 46L33 47L32 47L32 48L34 48L34 46ZM37 46L37 47L39 47L39 48L41 48L41 47L39 47L39 46ZM46 46L46 47L47 47L47 46ZM62 46L62 47L63 47L63 46ZM66 46L66 47L67 47L67 46ZM15 47L15 48L16 48L16 47ZM42 47L42 48L43 48L43 47ZM49 47L49 50L50 50L50 48L53 48L53 47ZM19 48L19 49L22 49L22 48ZM0 50L0 52L1 52L1 51L2 51L2 50ZM59 51L59 52L60 52L60 53L61 53L61 52L60 52L60 51ZM70 51L70 52L72 52L72 51ZM20 52L20 53L19 53L19 54L20 54L20 53L21 53L21 55L22 55L22 53L21 53L21 52ZM40 52L40 53L41 53L41 54L42 54L42 55L43 55L43 54L42 54L42 53L41 53L41 52ZM46 52L46 53L47 53L47 52ZM55 52L55 54L54 54L54 53L53 53L53 54L51 54L51 55L53 55L53 56L55 56L55 57L56 57L56 56L57 56L57 55L58 55L58 54L57 54L57 53L56 53L56 52ZM62 52L62 53L63 53L63 52ZM6 53L6 54L7 54L7 55L8 55L8 54L7 54L7 53ZM48 53L48 54L47 54L47 55L48 55L48 57L49 57L49 55L48 55L48 54L49 54L49 53ZM64 53L64 54L61 54L61 57L62 57L62 55L63 55L63 57L64 57L64 58L63 58L63 61L62 61L62 62L61 62L61 64L62 64L62 63L64 63L64 62L65 62L65 61L67 61L67 62L66 62L66 63L67 63L67 62L68 62L68 61L67 61L67 58L68 58L68 59L69 59L69 58L70 58L70 57L71 57L71 56L70 56L70 57L69 57L69 56L68 56L68 57L67 57L67 56L65 56L65 53ZM70 53L70 54L72 54L72 53ZM56 54L56 55L55 55L55 56L56 56L56 55L57 55L57 54ZM0 56L0 57L1 57L1 56ZM7 56L7 57L8 57L8 56ZM21 57L21 58L22 58L22 57ZM68 57L68 58L69 58L69 57ZM37 58L37 59L38 59L38 58ZM61 58L61 59L57 59L57 60L60 60L60 61L61 61L61 59L62 59L62 58ZM64 58L64 59L65 59L65 58ZM1 59L1 62L2 62L2 61L3 61L3 62L4 62L4 63L5 63L5 59L3 59L3 60L2 60L2 59ZM6 59L6 60L7 60L7 59ZM23 59L23 60L24 60L24 59ZM48 59L48 60L49 60L49 59ZM64 60L64 61L63 61L63 62L64 62L64 61L65 61L65 60ZM6 61L6 62L7 62L7 61ZM71 62L71 63L70 63L70 64L71 64L71 63L72 63L72 62ZM42 63L42 64L43 64L43 63ZM0 64L0 65L1 65L1 64ZM8 64L8 65L9 65L9 64ZM37 64L37 65L38 65L38 64ZM51 64L51 65L52 65L52 64ZM55 64L55 65L56 65L56 64ZM25 65L25 68L28 68L28 65ZM41 65L41 66L43 66L43 65ZM45 65L45 68L48 68L48 65ZM65 65L65 68L68 68L68 65ZM69 65L69 69L70 69L70 68L71 68L71 66L70 66L70 65ZM9 66L9 67L10 67L10 68L11 68L11 66ZM26 66L26 67L27 67L27 66ZM35 66L35 67L34 67L34 68L35 68L35 67L36 67L36 66ZM46 66L46 67L47 67L47 66ZM66 66L66 67L67 67L67 66ZM12 67L12 68L13 68L13 67ZM16 67L16 68L17 68L17 67ZM40 67L40 68L41 68L41 69L42 69L42 68L43 68L43 67ZM25 69L25 70L27 70L27 69ZM38 69L38 70L39 70L39 69ZM64 69L64 71L65 71L65 69ZM67 69L67 70L68 70L68 71L69 71L69 70L68 70L68 69ZM71 69L71 71L70 71L70 72L72 72L72 69ZM53 70L53 71L54 71L54 70ZM56 70L56 71L57 71L57 70ZM26 71L26 72L27 72L27 71ZM45 71L45 72L46 72L46 71ZM49 71L49 72L51 72L51 71ZM11 72L11 73L12 73L12 72ZM60 72L60 73L62 73L62 72ZM0 0L0 7L7 7L7 0ZM1 1L1 6L6 6L6 1ZM2 2L2 5L5 5L5 2ZM66 0L66 7L73 7L73 0ZM67 1L67 6L72 6L72 1ZM68 2L68 5L71 5L71 2ZM0 66L0 73L7 73L7 66ZM1 67L1 72L6 72L6 67ZM2 68L2 71L5 71L5 68Z" fill="#000000"/></g></g></svg>
