<?xml version="1.0" encoding="UTF-8"?>
<svg xmlns="http://www.w3.org/2000/svg" version="1.1" width="300" height="300" viewBox="0 0 300 300"><rect x="0" y="0" width="300" height="300" fill="#ffffff"/><g transform="scale(12)"><g transform="translate(0,0)"><path fill-rule="evenodd" d="M8 0L8 1L10 1L10 0ZM13 0L13 2L11 2L11 4L10 4L10 3L9 3L9 2L8 2L8 5L9 5L9 6L8 6L8 7L9 7L9 8L8 8L8 9L9 9L9 10L8 10L8 12L6 12L6 11L7 11L7 10L5 10L5 9L4 9L4 8L0 8L0 9L1 9L1 10L0 10L0 11L1 11L1 12L0 12L0 13L1 13L1 12L2 12L2 9L3 9L3 10L5 10L5 12L4 12L4 11L3 11L3 12L4 12L4 13L2 13L2 14L1 14L1 15L0 15L0 16L1 16L1 15L2 15L2 17L4 17L4 16L5 16L5 17L8 17L8 18L9 18L9 21L8 21L8 25L11 25L11 24L9 24L9 21L10 21L10 18L9 18L9 17L11 17L11 14L12 14L12 13L13 13L13 15L12 15L12 17L13 17L13 16L14 16L14 15L15 15L15 16L16 16L16 17L15 17L15 18L14 18L14 19L15 19L15 22L14 22L14 20L13 20L13 22L12 22L12 19L13 19L13 18L12 18L12 19L11 19L11 22L10 22L10 23L14 23L14 25L15 25L15 23L16 23L16 21L18 21L18 22L19 22L19 21L20 21L20 23L17 23L17 24L16 24L16 25L18 25L18 24L20 24L20 25L23 25L23 24L22 24L22 23L21 23L21 22L23 22L23 23L24 23L24 25L25 25L25 23L24 23L24 22L25 22L25 21L22 21L22 20L25 20L25 19L21 19L21 16L23 16L23 15L22 15L22 14L23 14L23 13L25 13L25 12L23 12L23 11L25 11L25 8L24 8L24 10L23 10L23 8L20 8L20 9L19 9L19 12L20 12L20 13L22 13L22 14L20 14L20 15L19 15L19 14L18 14L18 13L16 13L16 15L15 15L15 13L14 13L14 12L16 12L16 11L18 11L18 8L17 8L17 9L15 9L15 8L16 8L16 7L17 7L17 5L14 5L14 4L13 4L13 5L12 5L12 3L14 3L14 2L16 2L16 3L15 3L15 4L16 4L16 3L17 3L17 0L16 0L16 1L15 1L15 0ZM10 5L10 6L9 6L9 7L10 7L10 8L9 8L9 9L10 9L10 10L9 10L9 12L10 12L10 13L11 13L11 11L13 11L13 12L14 12L14 11L16 11L16 10L13 10L13 8L14 8L14 6L13 6L13 7L12 7L12 5ZM10 6L10 7L11 7L11 8L12 8L12 7L11 7L11 6ZM15 6L15 7L16 7L16 6ZM6 8L6 9L7 9L7 8ZM20 9L20 10L21 10L21 11L20 11L20 12L22 12L22 13L23 13L23 12L22 12L22 10L21 10L21 9ZM4 13L4 14L2 14L2 15L5 15L5 16L7 16L7 15L8 15L8 17L9 17L9 16L10 16L10 14L9 14L9 15L8 15L8 13L6 13L6 14L7 14L7 15L5 15L5 13ZM17 14L17 15L16 15L16 16L19 16L19 15L18 15L18 14ZM24 14L24 15L25 15L25 14ZM20 15L20 16L21 16L21 15ZM24 16L24 18L25 18L25 16ZM17 17L17 20L20 20L20 17ZM15 18L15 19L16 19L16 18ZM18 18L18 19L19 19L19 18ZM20 23L20 24L21 24L21 23ZM12 24L12 25L13 25L13 24ZM0 0L0 7L7 7L7 0ZM1 1L1 6L6 6L6 1ZM2 2L2 5L5 5L5 2ZM18 0L18 7L25 7L25 0ZM19 1L19 6L24 6L24 1ZM20 2L20 5L23 5L23 2ZM0 18L0 25L7 25L7 18ZM1 19L1 24L6 24L6 19ZM2 20L2 23L5 23L5 20Z" fill="#000000"/></g></g></svg>
