<?xml version="1.0" encoding="UTF-8"?>
<svg xmlns="http://www.w3.org/2000/svg" version="1.1" width="300" height="300" viewBox="0 0 300 300"><rect x="0" y="0" width="300" height="300" fill="#ffffff"/><g transform="scale(12)"><g transform="translate(0,0)"><path fill-rule="evenodd" d="M9 0L9 1L10 1L10 2L8 2L8 3L9 3L9 4L10 4L10 5L9 5L9 6L8 6L8 8L4 8L4 9L3 9L3 8L0 8L0 9L1 9L1 10L2 10L2 11L1 11L1 13L2 13L2 14L4 14L4 17L8 17L8 21L9 21L9 22L8 22L8 25L9 25L9 24L10 24L10 25L11 25L11 24L12 24L12 23L11 23L11 22L10 22L10 21L12 21L12 22L13 22L13 25L14 25L14 24L15 24L15 25L16 25L16 24L15 24L15 22L16 22L16 23L17 23L17 24L19 24L19 25L20 25L20 23L21 23L21 25L22 25L22 23L23 23L23 24L24 24L24 25L25 25L25 22L24 22L24 23L23 23L23 22L22 22L22 21L23 21L23 20L24 20L24 21L25 21L25 17L24 17L24 16L25 16L25 15L22 15L22 17L21 17L21 14L20 14L20 13L19 13L19 14L20 14L20 16L18 16L18 13L17 13L17 12L18 12L18 11L21 11L21 12L22 12L22 11L21 11L21 10L24 10L24 9L23 9L23 8L22 8L22 9L21 9L21 10L20 10L20 9L19 9L19 8L17 8L17 9L15 9L15 8L14 8L14 7L15 7L15 5L16 5L16 7L17 7L17 5L16 5L16 4L15 4L15 5L14 5L14 7L13 7L13 6L12 6L12 8L11 8L11 6L10 6L10 5L11 5L11 4L12 4L12 3L13 3L13 4L14 4L14 3L15 3L15 2L16 2L16 3L17 3L17 1L16 1L16 0L12 0L12 1L10 1L10 0ZM13 1L13 3L14 3L14 2L15 2L15 1ZM11 2L11 3L12 3L12 2ZM9 6L9 7L10 7L10 6ZM9 8L9 10L7 10L7 9L6 9L6 10L5 10L5 9L4 9L4 10L3 10L3 11L2 11L2 13L3 13L3 12L4 12L4 13L5 13L5 16L8 16L8 17L9 17L9 21L10 21L10 20L12 20L12 21L13 21L13 22L15 22L15 21L14 21L14 20L15 20L15 18L16 18L16 16L15 16L15 15L16 15L16 11L15 11L15 9L14 9L14 13L13 13L13 15L14 15L14 16L13 16L13 17L12 17L12 18L10 18L10 17L11 17L11 16L12 16L12 15L11 15L11 13L12 13L12 12L13 12L13 8L12 8L12 10L10 10L10 8ZM18 9L18 10L19 10L19 9ZM6 10L6 11L7 11L7 10ZM9 10L9 11L8 11L8 12L5 12L5 11L4 11L4 12L5 12L5 13L7 13L7 14L6 14L6 15L7 15L7 14L10 14L10 13L8 13L8 12L9 12L9 11L10 11L10 10ZM11 11L11 12L12 12L12 11ZM23 11L23 13L22 13L22 14L23 14L23 13L25 13L25 12L24 12L24 11ZM14 13L14 15L15 15L15 13ZM0 14L0 15L1 15L1 16L0 16L0 17L1 17L1 16L2 16L2 17L3 17L3 16L2 16L2 15L1 15L1 14ZM9 15L9 17L10 17L10 16L11 16L11 15ZM14 17L14 18L12 18L12 19L13 19L13 20L14 20L14 18L15 18L15 17ZM17 17L17 20L20 20L20 17ZM22 17L22 18L23 18L23 19L24 19L24 18L23 18L23 17ZM18 18L18 19L19 19L19 18ZM21 20L21 21L20 21L20 22L17 22L17 21L16 21L16 22L17 22L17 23L20 23L20 22L21 22L21 21L22 21L22 20ZM9 22L9 23L10 23L10 22ZM0 0L0 7L7 7L7 0ZM1 1L1 6L6 6L6 1ZM2 2L2 5L5 5L5 2ZM18 0L18 7L25 7L25 0ZM19 1L19 6L24 6L24 1ZM20 2L20 5L23 5L23 2ZM0 18L0 25L7 25L7 18ZM1 19L1 24L6 24L6 19ZM2 20L2 23L5 23L5 20Z" fill="#000000"/></g></g></svg>
