<?xml version="1.0" encoding="UTF-8"?>
<svg xmlns="http://www.w3.org/2000/svg" version="1.1" width="300" height="300" viewBox="0 0 300 300"><rect x="0" y="0" width="300" height="300" fill="#ffffff"/><g transform="scale(12)"><g transform="translate(0,0)"><path fill-rule="evenodd" d="M8 0L8 2L10 2L10 4L8 4L8 9L7 9L7 8L5 8L5 10L3 10L3 8L0 8L0 11L1 11L1 12L0 12L0 13L1 13L1 14L0 14L0 15L2 15L2 13L3 13L3 15L4 15L4 16L5 16L5 17L8 17L8 18L9 18L9 17L11 17L11 16L12 16L12 17L13 17L13 18L10 18L10 19L8 19L8 20L10 20L10 21L9 21L9 22L8 22L8 25L12 25L12 24L9 24L9 23L10 23L10 21L11 21L11 22L12 22L12 23L14 23L14 22L15 22L15 23L16 23L16 24L17 24L17 25L18 25L18 24L19 24L19 25L20 25L20 24L21 24L21 22L19 22L19 21L22 21L22 25L25 25L25 22L24 22L24 21L25 21L25 17L24 17L24 18L23 18L23 19L22 19L22 18L21 18L21 17L23 17L23 15L24 15L24 16L25 16L25 15L24 15L24 13L25 13L25 12L24 12L24 13L23 13L23 12L22 12L22 10L23 10L23 11L24 11L24 10L23 10L23 9L25 9L25 8L23 8L23 9L22 9L22 10L21 10L21 8L17 8L17 5L16 5L16 4L17 4L17 2L16 2L16 1L17 1L17 0L16 0L16 1L15 1L15 2L13 2L13 0L11 0L11 1L9 1L9 0ZM11 1L11 2L12 2L12 1ZM11 3L11 4L12 4L12 6L11 6L11 5L9 5L9 8L10 8L10 6L11 6L11 7L12 7L12 6L13 6L13 7L14 7L14 8L15 8L15 9L13 9L13 8L11 8L11 10L9 10L9 9L8 9L8 10L7 10L7 9L6 9L6 10L5 10L5 11L6 11L6 12L7 12L7 13L6 13L6 14L5 14L5 15L6 15L6 16L11 16L11 15L12 15L12 13L11 13L11 12L13 12L13 13L14 13L14 12L15 12L15 13L17 13L17 15L16 15L16 16L15 16L15 15L13 15L13 16L14 16L14 17L15 17L15 18L14 18L14 19L12 19L12 20L11 20L11 21L12 21L12 22L14 22L14 21L13 21L13 20L14 20L14 19L15 19L15 20L16 20L16 19L15 19L15 18L16 18L16 16L19 16L19 14L20 14L20 16L21 16L21 11L19 11L19 9L17 9L17 12L15 12L15 11L16 11L16 8L15 8L15 7L16 7L16 6L15 6L15 3ZM13 4L13 5L14 5L14 4ZM14 6L14 7L15 7L15 6ZM1 9L1 11L2 11L2 12L3 12L3 13L5 13L5 12L3 12L3 10L2 10L2 9ZM6 10L6 11L7 11L7 10ZM11 10L11 11L12 11L12 10ZM13 10L13 11L14 11L14 10ZM8 11L8 13L7 13L7 14L6 14L6 15L8 15L8 13L9 13L9 14L10 14L10 11ZM17 12L17 13L18 13L18 12ZM19 12L19 13L20 13L20 12ZM22 13L22 14L23 14L23 13ZM0 16L0 17L3 17L3 16ZM17 17L17 20L20 20L20 17ZM18 18L18 19L19 19L19 18ZM23 19L23 20L22 20L22 21L23 21L23 20L24 20L24 19ZM15 21L15 22L18 22L18 23L17 23L17 24L18 24L18 23L19 23L19 24L20 24L20 23L19 23L19 22L18 22L18 21ZM23 23L23 24L24 24L24 23ZM14 24L14 25L15 25L15 24ZM0 0L0 7L7 7L7 0ZM1 1L1 6L6 6L6 1ZM2 2L2 5L5 5L5 2ZM18 0L18 7L25 7L25 0ZM19 1L19 6L24 6L24 1ZM20 2L20 5L23 5L23 2ZM0 18L0 25L7 25L7 18ZM1 19L1 24L6 24L6 19ZM2 20L2 23L5 23L5 20Z" fill="#000000"/></g></g></svg>
