<?xml version="1.0" encoding="UTF-8"?>
<svg xmlns="http://www.w3.org/2000/svg" version="1.1" width="300" height="300" viewBox="0 0 300 300"><rect x="0" y="0" width="300" height="300" fill="#ffffff"/><g transform="scale(12)"><g transform="translate(0,0)"><path fill-rule="evenodd" d="M9 0L9 1L8 1L8 2L9 2L9 3L8 3L8 4L10 4L10 7L11 7L11 4L12 4L12 5L13 5L13 6L12 6L12 9L13 9L13 10L11 10L11 11L10 11L10 9L11 9L11 8L6 8L6 9L8 9L8 10L5 10L5 11L3 11L3 10L4 10L4 9L5 9L5 8L0 8L0 11L2 11L2 13L4 13L4 14L3 14L3 15L2 15L2 16L5 16L5 17L7 17L7 16L6 16L6 15L8 15L8 16L9 16L9 17L8 17L8 19L10 19L10 21L9 21L9 20L8 20L8 25L9 25L9 22L10 22L10 24L11 24L11 22L10 22L10 21L12 21L12 22L14 22L14 21L12 21L12 20L11 20L11 18L9 18L9 17L10 17L10 15L11 15L11 13L12 13L12 16L11 16L11 17L12 17L12 19L16 19L16 22L15 22L15 23L14 23L14 24L16 24L16 25L18 25L18 23L19 23L19 21L20 21L20 22L22 22L22 21L23 21L23 22L24 22L24 23L25 23L25 20L24 20L24 21L23 21L23 19L22 19L22 20L21 20L21 18L23 18L23 17L24 17L24 16L23 16L23 17L22 17L22 15L21 15L21 13L22 13L22 14L25 14L25 11L24 11L24 12L23 12L23 13L22 13L22 11L23 11L23 9L24 9L24 10L25 10L25 9L24 9L24 8L23 8L23 9L22 9L22 8L21 8L21 10L20 10L20 8L19 8L19 10L17 10L17 11L18 11L18 12L20 12L20 11L21 11L21 13L18 13L18 14L19 14L19 16L17 16L17 15L16 15L16 14L17 14L17 12L16 12L16 8L17 8L17 9L18 9L18 8L17 8L17 6L16 6L16 4L15 4L15 3L16 3L16 2L15 2L15 3L14 3L14 4L15 4L15 6L14 6L14 5L13 5L13 4L12 4L12 2L13 2L13 1L15 1L15 0L13 0L13 1L11 1L11 2L10 2L10 0ZM10 3L10 4L11 4L11 3ZM8 5L8 7L9 7L9 5ZM13 6L13 7L14 7L14 6ZM15 6L15 8L16 8L16 6ZM2 9L2 10L3 10L3 9ZM13 10L13 11L12 11L12 12L13 12L13 13L15 13L15 12L13 12L13 11L14 11L14 10ZM19 10L19 11L20 11L20 10ZM6 11L6 12L7 12L7 13L6 13L6 14L4 14L4 15L6 15L6 14L9 14L9 13L8 13L8 12L9 12L9 11ZM4 12L4 13L5 13L5 12ZM10 12L10 13L11 13L11 12ZM0 13L0 17L1 17L1 13ZM13 14L13 15L14 15L14 16L13 16L13 17L15 17L15 18L16 18L16 15L15 15L15 14ZM20 15L20 16L21 16L21 15ZM17 17L17 20L20 20L20 17ZM18 18L18 19L19 19L19 18ZM17 21L17 22L16 22L16 23L17 23L17 22L18 22L18 21ZM12 23L12 25L13 25L13 23ZM20 23L20 24L19 24L19 25L21 25L21 24L23 24L23 23ZM24 24L24 25L25 25L25 24ZM0 0L0 7L7 7L7 0ZM1 1L1 6L6 6L6 1ZM2 2L2 5L5 5L5 2ZM18 0L18 7L25 7L25 0ZM19 1L19 6L24 6L24 1ZM20 2L20 5L23 5L23 2ZM0 18L0 25L7 25L7 18ZM1 19L1 24L6 24L6 19ZM2 20L2 23L5 23L5 20Z" fill="#000000"/></g></g></svg>
