<?xml version="1.0" encoding="UTF-8"?>
<svg xmlns="http://www.w3.org/2000/svg" version="1.1" width="300" height="300" viewBox="0 0 300 300"><rect x="0" y="0" width="300" height="300" fill="#ffffff"/><g transform="scale(12)"><g transform="translate(0,0)"><path fill-rule="evenodd" d="M9 0L9 1L10 1L10 2L8 2L8 3L9 3L9 4L10 4L10 5L9 5L9 6L8 6L8 8L4 8L4 9L5 9L5 10L2 10L2 9L3 9L3 8L0 8L0 12L2 12L2 13L3 13L3 16L2 16L2 15L1 15L1 14L0 14L0 15L1 15L1 16L0 16L0 17L1 17L1 16L2 16L2 17L3 17L3 16L4 16L4 17L8 17L8 21L9 21L9 22L8 22L8 25L10 25L10 24L9 24L9 23L11 23L11 24L12 24L12 25L13 25L13 24L14 24L14 25L17 25L17 24L18 24L18 25L19 25L19 24L20 24L20 25L21 25L21 22L22 22L22 24L24 24L24 25L25 25L25 22L24 22L24 23L23 23L23 20L24 20L24 21L25 21L25 17L24 17L24 16L22 16L22 17L21 17L21 15L20 15L20 14L23 14L23 15L24 15L24 14L23 14L23 13L22 13L22 11L24 11L24 10L22 10L22 9L23 9L23 8L22 8L22 9L19 9L19 8L16 8L16 9L15 9L15 8L14 8L14 9L13 9L13 10L14 10L14 9L15 9L15 10L17 10L17 12L18 12L18 10L17 10L17 9L19 9L19 12L20 12L20 10L22 10L22 11L21 11L21 13L19 13L19 16L16 16L16 17L14 17L14 18L12 18L12 17L13 17L13 16L14 16L14 15L13 15L13 14L14 14L14 13L15 13L15 15L18 15L18 13L17 13L17 14L16 14L16 13L15 13L15 11L14 11L14 12L12 12L12 11L11 11L11 12L12 12L12 13L11 13L11 14L10 14L10 13L9 13L9 12L6 12L6 11L10 11L10 10L12 10L12 8L13 8L13 6L14 6L14 7L15 7L15 6L14 6L14 5L13 5L13 6L12 6L12 8L11 8L11 6L10 6L10 5L11 5L11 4L12 4L12 3L13 3L13 4L14 4L14 3L13 3L13 2L14 2L14 1L15 1L15 5L16 5L16 4L17 4L17 2L16 2L16 1L17 1L17 0L14 0L14 1L13 1L13 0L12 0L12 1L10 1L10 0ZM11 2L11 3L12 3L12 2ZM9 6L9 7L10 7L10 6ZM16 6L16 7L17 7L17 6ZM9 8L9 9L8 9L8 10L10 10L10 8ZM6 9L6 10L7 10L7 9ZM2 11L2 12L3 12L3 11ZM4 11L4 15L5 15L5 16L7 16L7 15L10 15L10 14L7 14L7 13L5 13L5 11ZM5 14L5 15L7 15L7 14ZM11 15L11 16L12 16L12 15ZM8 16L8 17L10 17L10 19L9 19L9 21L10 21L10 22L11 22L11 23L12 23L12 24L13 24L13 23L14 23L14 24L17 24L17 23L18 23L18 24L19 24L19 23L20 23L20 22L21 22L21 21L22 21L22 20L23 20L23 19L24 19L24 18L21 18L21 19L22 19L22 20L21 20L21 21L20 21L20 22L19 22L19 21L18 21L18 22L17 22L17 23L16 23L16 21L14 21L14 20L15 20L15 18L14 18L14 19L13 19L13 20L12 20L12 18L11 18L11 17L10 17L10 16ZM17 17L17 20L20 20L20 17ZM18 18L18 19L19 19L19 18ZM10 20L10 21L11 21L11 20ZM12 21L12 22L14 22L14 23L15 23L15 22L14 22L14 21ZM18 22L18 23L19 23L19 22ZM0 0L0 7L7 7L7 0ZM1 1L1 6L6 6L6 1ZM2 2L2 5L5 5L5 2ZM18 0L18 7L25 7L25 0ZM19 1L19 6L24 6L24 1ZM20 2L20 5L23 5L23 2ZM0 18L0 25L7 25L7 18ZM1 19L1 24L6 24L6 19ZM2 20L2 23L5 23L5 20Z" fill="#000000"/></g></g></svg>
