<?xml version="1.0" encoding="UTF-8"?>
<svg xmlns="http://www.w3.org/2000/svg" version="1.1" width="300" height="300" viewBox="0 0 300 300"><rect x="0" y="0" width="300" height="300" fill="#ffffff"/><g transform="scale(12)"><g transform="translate(0,0)"><path fill-rule="evenodd" d="M8 0L8 1L10 1L10 0ZM13 0L13 1L15 1L15 0ZM16 1L16 4L14 4L14 3L15 3L15 2L11 2L11 4L10 4L10 3L9 3L9 2L8 2L8 5L9 5L9 6L8 6L8 7L9 7L9 8L8 8L8 10L6 10L6 9L7 9L7 8L6 8L6 9L5 9L5 10L4 10L4 8L0 8L0 10L1 10L1 9L3 9L3 10L4 10L4 11L7 11L7 12L3 12L3 11L0 11L0 13L1 13L1 12L3 12L3 13L5 13L5 14L1 14L1 15L0 15L0 16L1 16L1 15L2 15L2 16L4 16L4 17L5 17L5 16L6 16L6 17L7 17L7 16L8 16L8 12L9 12L9 14L10 14L10 16L9 16L9 17L8 17L8 18L9 18L9 19L10 19L10 17L11 17L11 18L12 18L12 19L11 19L11 20L10 20L10 23L9 23L9 21L8 21L8 25L10 25L10 24L12 24L12 25L13 25L13 24L12 24L12 23L11 23L11 21L13 21L13 22L14 22L14 23L15 23L15 22L14 22L14 20L12 20L12 19L14 19L14 18L15 18L15 21L16 21L16 22L17 22L17 21L18 21L18 22L19 22L19 21L20 21L20 24L19 24L19 23L17 23L17 24L16 24L16 25L18 25L18 24L19 24L19 25L20 25L20 24L21 24L21 22L23 22L23 23L24 23L24 25L25 25L25 23L24 23L24 22L25 22L25 21L21 21L21 16L22 16L22 15L23 15L23 13L25 13L25 12L23 12L23 11L25 11L25 8L24 8L24 10L23 10L23 8L20 8L20 9L21 9L21 10L22 10L22 12L20 12L20 11L19 11L19 10L18 10L18 11L19 11L19 12L20 12L20 13L19 13L19 14L18 14L18 13L16 13L16 11L14 11L14 12L15 12L15 13L16 13L16 16L15 16L15 17L14 17L14 18L12 18L12 16L13 16L13 15L15 15L15 14L13 14L13 15L12 15L12 16L11 16L11 14L12 14L12 13L13 13L13 11L11 11L11 13L10 13L10 12L9 12L9 11L8 11L8 10L10 10L10 9L9 9L9 8L10 8L10 7L11 7L11 8L12 8L12 7L13 7L13 10L17 10L17 9L18 9L18 8L14 8L14 7L15 7L15 6L16 6L16 7L17 7L17 5L16 5L16 4L17 4L17 1ZM12 3L12 5L10 5L10 6L9 6L9 7L10 7L10 6L11 6L11 7L12 7L12 5L14 5L14 6L13 6L13 7L14 7L14 6L15 6L15 5L14 5L14 4L13 4L13 3ZM22 12L22 13L23 13L23 12ZM6 13L6 14L5 14L5 15L6 15L6 16L7 16L7 15L6 15L6 14L7 14L7 13ZM17 14L17 16L20 16L20 15L22 15L22 14L20 14L20 15L18 15L18 14ZM24 14L24 15L25 15L25 14ZM24 16L24 18L25 18L25 16ZM17 17L17 20L20 20L20 17ZM22 17L22 18L23 18L23 17ZM18 18L18 19L19 19L19 18ZM22 19L22 20L25 20L25 19ZM22 24L22 25L23 25L23 24ZM0 0L0 7L7 7L7 0ZM1 1L1 6L6 6L6 1ZM2 2L2 5L5 5L5 2ZM18 0L18 7L25 7L25 0ZM19 1L19 6L24 6L24 1ZM20 2L20 5L23 5L23 2ZM0 18L0 25L7 25L7 18ZM1 19L1 24L6 24L6 19ZM2 20L2 23L5 23L5 20Z" fill="#000000"/></g></g></svg>
