<?xml version="1.0" encoding="UTF-8"?>
<svg xmlns="http://www.w3.org/2000/svg" version="1.1" width="300" height="300" viewBox="0 0 300 300"><rect x="0" y="0" width="300" height="300" fill="#ffffff"/><g transform="scale(12)"><g transform="translate(0,0)"><path fill-rule="evenodd" d="M9 0L9 1L8 1L8 2L9 2L9 3L8 3L8 4L10 4L10 7L11 7L11 4L12 4L12 5L13 5L13 6L12 6L12 9L13 9L13 10L11 10L11 11L10 11L10 9L11 9L11 8L6 8L6 9L9 9L9 11L8 11L8 10L5 10L5 11L3 11L3 9L5 9L5 8L0 8L0 9L2 9L2 10L0 10L0 12L1 12L1 11L3 11L3 12L2 12L2 14L3 14L3 15L2 15L2 17L3 17L3 16L4 16L4 17L8 17L8 19L9 19L9 20L8 20L8 25L9 25L9 24L12 24L12 25L15 25L15 24L16 24L16 25L18 25L18 23L19 23L19 25L21 25L21 24L22 24L22 25L23 25L23 23L22 23L22 22L24 22L24 23L25 23L25 20L24 20L24 21L22 21L22 20L23 20L23 19L22 19L22 18L23 18L23 17L24 17L24 16L23 16L23 15L22 15L22 14L25 14L25 11L24 11L24 12L23 12L23 13L22 13L22 11L23 11L23 9L24 9L24 10L25 10L25 9L24 9L24 8L23 8L23 9L22 9L22 8L21 8L21 12L20 12L20 13L22 13L22 14L21 14L21 15L22 15L22 16L17 16L17 15L16 15L16 14L17 14L17 11L18 11L18 12L19 12L19 9L20 9L20 8L19 8L19 9L18 9L18 8L17 8L17 6L16 6L16 5L17 5L17 3L16 3L16 2L14 2L14 3L13 3L13 4L12 4L12 2L13 2L13 1L14 1L14 0L13 0L13 1L11 1L11 2L10 2L10 0ZM16 0L16 1L17 1L17 0ZM10 3L10 4L11 4L11 3ZM14 3L14 4L15 4L15 5L16 5L16 4L15 4L15 3ZM8 5L8 7L9 7L9 5ZM13 6L13 8L14 8L14 9L17 9L17 10L16 10L16 11L17 11L17 10L18 10L18 9L17 9L17 8L16 8L16 6L15 6L15 7L14 7L14 6ZM13 10L13 11L12 11L12 12L13 12L13 16L15 16L15 18L16 18L16 15L14 15L14 13L15 13L15 14L16 14L16 13L15 13L15 12L13 12L13 11L14 11L14 10ZM6 11L6 12L4 12L4 13L3 13L3 14L5 14L5 15L6 15L6 16L7 16L7 15L8 15L8 17L9 17L9 18L10 18L10 21L9 21L9 22L10 22L10 23L12 23L12 22L14 22L14 21L15 21L15 22L16 22L16 23L17 23L17 22L18 22L18 21L17 21L17 22L16 22L16 19L14 19L14 17L13 17L13 20L12 20L12 17L11 17L11 16L12 16L12 13L11 13L11 12L10 12L10 13L9 13L9 15L8 15L8 14L7 14L7 13L6 13L6 12L7 12L7 11ZM0 13L0 17L1 17L1 13ZM5 13L5 14L6 14L6 15L7 15L7 14L6 14L6 13ZM10 13L10 16L9 16L9 17L10 17L10 16L11 16L11 13ZM18 13L18 14L19 14L19 13ZM22 16L22 17L21 17L21 18L22 18L22 17L23 17L23 16ZM17 17L17 20L20 20L20 17ZM18 18L18 19L19 19L19 18ZM21 19L21 20L22 20L22 19ZM11 20L11 21L10 21L10 22L12 22L12 20ZM19 21L19 23L20 23L20 24L21 24L21 21ZM14 23L14 24L15 24L15 23ZM24 24L24 25L25 25L25 24ZM0 0L0 7L7 7L7 0ZM1 1L1 6L6 6L6 1ZM2 2L2 5L5 5L5 2ZM18 0L18 7L25 7L25 0ZM19 1L19 6L24 6L24 1ZM20 2L20 5L23 5L23 2ZM0 18L0 25L7 25L7 18ZM1 19L1 24L6 24L6 19ZM2 20L2 23L5 23L5 20Z" fill="#000000"/></g></g></svg>
