<?xml version="1.0" encoding="UTF-8"?>
<svg xmlns="http://www.w3.org/2000/svg" version="1.1" width="300" height="300" viewBox="0 0 300 300"><rect x="0" y="0" width="300" height="300" fill="#ffffff"/><g transform="scale(12)"><g transform="translate(0,0)"><path fill-rule="evenodd" d="M10 0L10 1L9 1L9 2L8 2L8 3L9 3L9 5L10 5L10 7L11 7L11 8L12 8L12 9L11 9L11 10L10 10L10 9L9 9L9 6L8 6L8 8L4 8L4 10L6 10L6 11L7 11L7 12L6 12L6 13L3 13L3 12L4 12L4 11L3 11L3 8L0 8L0 9L1 9L1 11L2 11L2 13L3 13L3 15L1 15L1 14L0 14L0 15L1 15L1 16L0 16L0 17L1 17L1 16L3 16L3 17L4 17L4 16L3 16L3 15L7 15L7 14L6 14L6 13L7 13L7 12L8 12L8 11L9 11L9 12L10 12L10 13L8 13L8 14L9 14L9 15L8 15L8 16L10 16L10 17L8 17L8 21L9 21L9 20L10 20L10 19L11 19L11 20L12 20L12 19L13 19L13 18L12 18L12 19L11 19L11 16L12 16L12 17L13 17L13 16L14 16L14 15L15 15L15 16L16 16L16 20L15 20L15 19L14 19L14 21L13 21L13 22L12 22L12 21L10 21L10 22L8 22L8 25L9 25L9 23L11 23L11 24L10 24L10 25L11 25L11 24L12 24L12 23L13 23L13 24L14 24L14 25L16 25L16 23L17 23L17 25L19 25L19 24L20 24L20 23L21 23L21 25L23 25L23 24L24 24L24 25L25 25L25 22L24 22L24 23L23 23L23 21L22 21L22 19L23 19L23 20L24 20L24 21L25 21L25 19L23 19L23 18L25 18L25 17L24 17L24 16L23 16L23 15L24 15L24 14L23 14L23 12L22 12L22 11L24 11L24 10L22 10L22 9L23 9L23 8L22 8L22 9L21 9L21 10L20 10L20 11L21 11L21 12L20 12L20 14L21 14L21 12L22 12L22 17L21 17L21 16L20 16L20 15L17 15L17 14L18 14L18 13L17 13L17 12L18 12L18 9L19 9L19 8L16 8L16 7L17 7L17 6L16 6L16 5L17 5L17 2L16 2L16 3L15 3L15 2L14 2L14 3L15 3L15 4L16 4L16 5L15 5L15 6L14 6L14 4L13 4L13 3L12 3L12 2L11 2L11 3L12 3L12 5L10 5L10 3L9 3L9 2L10 2L10 1L11 1L11 0ZM16 0L16 1L17 1L17 0ZM11 6L11 7L12 7L12 8L13 8L13 7L14 7L14 9L13 9L13 12L14 12L14 11L16 11L16 10L14 10L14 9L16 9L16 8L15 8L15 7L16 7L16 6L15 6L15 7L14 7L14 6L13 6L13 7L12 7L12 6ZM6 9L6 10L7 10L7 9ZM9 10L9 11L10 11L10 10ZM21 10L21 11L22 11L22 10ZM11 11L11 12L12 12L12 11ZM15 12L15 13L12 13L12 14L10 14L10 16L11 16L11 15L12 15L12 16L13 16L13 15L14 15L14 14L15 14L15 15L16 15L16 16L17 16L17 15L16 15L16 14L17 14L17 13L16 13L16 12ZM12 14L12 15L13 15L13 14ZM5 16L5 17L7 17L7 16ZM14 17L14 18L15 18L15 17ZM17 17L17 20L20 20L20 17ZM22 17L22 18L21 18L21 19L22 19L22 18L23 18L23 17ZM9 18L9 19L10 19L10 18ZM18 18L18 19L19 19L19 18ZM15 21L15 22L14 22L14 23L16 23L16 22L17 22L17 23L18 23L18 24L19 24L19 23L20 23L20 21L18 21L18 22L17 22L17 21ZM11 22L11 23L12 23L12 22ZM0 0L0 7L7 7L7 0ZM1 1L1 6L6 6L6 1ZM2 2L2 5L5 5L5 2ZM18 0L18 7L25 7L25 0ZM19 1L19 6L24 6L24 1ZM20 2L20 5L23 5L23 2ZM0 18L0 25L7 25L7 18ZM1 19L1 24L6 24L6 19ZM2 20L2 23L5 23L5 20Z" fill="#000000"/></g></g></svg>
