<?xml version="1.0" encoding="UTF-8"?>
<svg xmlns="http://www.w3.org/2000/svg" version="1.1" width="300" height="300" viewBox="0 0 300 300"><rect x="0" y="0" width="300" height="300" fill="#ffffff"/><g transform="scale(12)"><g transform="translate(0,0)"><path fill-rule="evenodd" d="M10 0L10 1L8 1L8 3L9 3L9 4L8 4L8 8L6 8L6 9L4 9L4 8L3 8L3 9L4 9L4 10L2 10L2 8L0 8L0 9L1 9L1 10L2 10L2 12L1 12L1 11L0 11L0 12L1 12L1 14L0 14L0 15L1 15L1 16L0 16L0 17L3 17L3 16L5 16L5 13L7 13L7 14L6 14L6 15L7 15L7 14L8 14L8 16L9 16L9 17L8 17L8 19L10 19L10 21L8 21L8 22L9 22L9 23L8 23L8 25L9 25L9 24L10 24L10 25L11 25L11 24L10 24L10 22L11 22L11 23L13 23L13 24L12 24L12 25L13 25L13 24L14 24L14 25L16 25L16 24L17 24L17 25L18 25L18 24L19 24L19 23L20 23L20 24L21 24L21 25L22 25L22 24L23 24L23 23L21 23L21 22L23 22L23 21L25 21L25 19L23 19L23 17L24 17L24 18L25 18L25 17L24 17L24 16L25 16L25 15L24 15L24 14L22 14L22 15L23 15L23 17L21 17L21 16L19 16L19 15L18 15L18 13L17 13L17 11L15 11L15 12L14 12L14 14L15 14L15 12L16 12L16 16L15 16L15 17L14 17L14 15L13 15L13 14L12 14L12 13L13 13L13 11L14 11L14 10L16 10L16 9L17 9L17 5L16 5L16 4L17 4L17 1L16 1L16 0L14 0L14 1L13 1L13 2L15 2L15 1L16 1L16 3L12 3L12 7L11 7L11 4L10 4L10 3L9 3L9 2L11 2L11 0ZM13 4L13 5L14 5L14 4ZM9 5L9 8L8 8L8 9L6 9L6 10L7 10L7 11L6 11L6 12L8 12L8 10L9 10L9 11L11 11L11 8L10 8L10 5ZM13 6L13 7L12 7L12 8L13 8L13 10L14 10L14 9L16 9L16 6L15 6L15 8L13 8L13 7L14 7L14 6ZM18 8L18 9L20 9L20 10L19 10L19 12L20 12L20 15L21 15L21 12L22 12L22 13L25 13L25 12L22 12L22 11L23 11L23 10L24 10L24 8L22 8L22 9L21 9L21 8ZM9 9L9 10L10 10L10 9ZM20 10L20 11L22 11L22 10ZM3 11L3 12L2 12L2 13L3 13L3 12L4 12L4 13L5 13L5 11ZM9 12L9 13L8 13L8 14L9 14L9 13L10 13L10 15L9 15L9 16L11 16L11 17L9 17L9 18L11 18L11 20L12 20L12 21L11 21L11 22L13 22L13 21L14 21L14 22L15 22L15 23L17 23L17 22L16 22L16 21L15 21L15 20L16 20L16 17L15 17L15 18L13 18L13 15L12 15L12 16L11 16L11 13L10 13L10 12ZM1 14L1 15L4 15L4 14ZM6 16L6 17L7 17L7 16ZM11 17L11 18L12 18L12 20L13 20L13 18L12 18L12 17ZM17 17L17 20L20 20L20 17ZM18 18L18 19L19 19L19 18ZM21 18L21 19L22 19L22 20L21 20L21 21L18 21L18 22L21 22L21 21L22 21L22 20L23 20L23 19L22 19L22 18ZM24 22L24 25L25 25L25 22ZM0 0L0 7L7 7L7 0ZM1 1L1 6L6 6L6 1ZM2 2L2 5L5 5L5 2ZM18 0L18 7L25 7L25 0ZM19 1L19 6L24 6L24 1ZM20 2L20 5L23 5L23 2ZM0 18L0 25L7 25L7 18ZM1 19L1 24L6 24L6 19ZM2 20L2 23L5 23L5 20Z" fill="#000000"/></g></g></svg>
