<?xml version="1.0" encoding="UTF-8"?>
<svg xmlns="http://www.w3.org/2000/svg" version="1.1" width="300" height="300" viewBox="0 0 300 300"><rect x="0" y="0" width="300" height="300" fill="#ffffff"/><g transform="scale(12)"><g transform="translate(0,0)"><path fill-rule="evenodd" d="M9 0L9 1L8 1L8 3L9 3L9 4L8 4L8 8L6 8L6 9L4 9L4 8L3 8L3 9L2 9L2 8L0 8L0 10L1 10L1 9L2 9L2 11L0 11L0 13L1 13L1 12L3 12L3 10L5 10L5 12L4 12L4 13L2 13L2 15L1 15L1 14L0 14L0 15L1 15L1 16L0 16L0 17L2 17L2 16L3 16L3 17L5 17L5 16L6 16L6 17L8 17L8 19L9 19L9 18L10 18L10 20L9 20L9 21L8 21L8 22L9 22L9 21L10 21L10 25L11 25L11 22L12 22L12 23L13 23L13 22L14 22L14 23L15 23L15 25L16 25L16 24L17 24L17 23L15 23L15 22L16 22L16 21L17 21L17 22L19 22L19 23L18 23L18 24L19 24L19 25L22 25L22 24L23 24L23 23L21 23L21 22L23 22L23 21L25 21L25 17L24 17L24 16L25 16L25 15L24 15L24 14L23 14L23 13L25 13L25 12L23 12L23 13L21 13L21 12L22 12L22 11L23 11L23 10L24 10L24 8L22 8L22 9L21 9L21 8L18 8L18 10L16 10L16 9L17 9L17 8L16 8L16 7L17 7L17 5L15 5L15 6L14 6L14 7L15 7L15 10L16 10L16 11L19 11L19 12L20 12L20 13L21 13L21 14L23 14L23 17L24 17L24 19L23 19L23 18L22 18L22 17L21 17L21 15L19 15L19 16L18 16L18 15L17 15L17 14L18 14L18 13L17 13L17 14L16 14L16 12L14 12L14 8L13 8L13 6L12 6L12 5L11 5L11 6L10 6L10 5L9 5L9 4L12 4L12 3L13 3L13 5L14 5L14 3L13 3L13 2L14 2L14 0L12 0L12 1L11 1L11 2L9 2L9 1L10 1L10 0ZM15 1L15 2L16 2L16 3L17 3L17 1ZM9 6L9 7L10 7L10 8L8 8L8 9L9 9L9 10L10 10L10 8L11 8L11 9L12 9L12 10L11 10L11 11L9 11L9 13L12 13L12 12L13 12L13 13L14 13L14 14L13 14L13 15L14 15L14 17L15 17L15 18L13 18L13 17L11 17L11 20L13 20L13 21L12 21L12 22L13 22L13 21L16 21L16 20L15 20L15 19L16 19L16 17L15 17L15 15L16 15L16 14L15 14L15 13L14 13L14 12L13 12L13 8L12 8L12 6L11 6L11 7L10 7L10 6ZM15 6L15 7L16 7L16 6ZM6 9L6 10L7 10L7 11L6 11L6 12L8 12L8 10L7 10L7 9ZM20 9L20 11L22 11L22 10L21 10L21 9ZM6 13L6 14L7 14L7 15L6 15L6 16L7 16L7 15L8 15L8 13ZM3 14L3 16L5 16L5 14ZM9 14L9 16L10 16L10 15L11 15L11 16L12 16L12 14ZM14 14L14 15L15 15L15 14ZM17 17L17 20L20 20L20 17ZM12 18L12 19L13 19L13 20L14 20L14 19L13 19L13 18ZM18 18L18 19L19 19L19 18ZM21 18L21 19L22 19L22 18ZM24 22L24 25L25 25L25 22ZM8 23L8 25L9 25L9 23ZM19 23L19 24L20 24L20 23ZM13 24L13 25L14 25L14 24ZM0 0L0 7L7 7L7 0ZM1 1L1 6L6 6L6 1ZM2 2L2 5L5 5L5 2ZM18 0L18 7L25 7L25 0ZM19 1L19 6L24 6L24 1ZM20 2L20 5L23 5L23 2ZM0 18L0 25L7 25L7 18ZM1 19L1 24L6 24L6 19ZM2 20L2 23L5 23L5 20Z" fill="#000000"/></g></g></svg>
