<?xml version="1.0" encoding="UTF-8"?>
<svg xmlns="http://www.w3.org/2000/svg" version="1.1" width="300" height="300" viewBox="0 0 300 300"><rect x="0" y="0" width="300" height="300" fill="#ffffff"/><g transform="scale(12)"><g transform="translate(0,0)"><path fill-rule="evenodd" d="M8 0L8 1L10 1L10 0ZM13 0L13 1L14 1L14 2L11 2L11 4L10 4L10 3L9 3L9 2L8 2L8 5L9 5L9 6L8 6L8 7L9 7L9 8L8 8L8 10L6 10L6 9L7 9L7 8L6 8L6 9L5 9L5 10L1 10L1 9L4 9L4 8L0 8L0 10L1 10L1 11L0 11L0 12L1 12L1 13L3 13L3 14L1 14L1 15L0 15L0 16L1 16L1 15L2 15L2 16L3 16L3 14L4 14L4 13L5 13L5 15L7 15L7 16L4 16L4 17L7 17L7 16L9 16L9 17L8 17L8 18L9 18L9 17L10 17L10 19L9 19L9 20L10 20L10 21L8 21L8 25L10 25L10 24L11 24L11 23L10 23L10 21L12 21L12 20L10 20L10 19L11 19L11 18L12 18L12 19L16 19L16 20L15 20L15 21L16 21L16 22L17 22L17 21L18 21L18 22L20 22L20 23L17 23L17 24L16 24L16 25L18 25L18 24L19 24L19 25L22 25L22 24L21 24L21 22L22 22L22 21L23 21L23 23L24 23L24 25L25 25L25 23L24 23L24 22L25 22L25 21L23 21L23 20L25 20L25 19L23 19L23 17L22 17L22 18L21 18L21 16L22 16L22 15L23 15L23 13L25 13L25 12L23 12L23 11L25 11L25 8L24 8L24 10L23 10L23 8L20 8L20 9L19 9L19 10L18 10L18 11L19 11L19 12L20 12L20 13L19 13L19 14L18 14L18 13L17 13L17 11L16 11L16 10L17 10L17 9L18 9L18 8L17 8L17 9L15 9L15 8L16 8L16 7L17 7L17 5L16 5L16 4L14 4L14 2L15 2L15 1L16 1L16 3L17 3L17 1L16 1L16 0ZM12 3L12 5L10 5L10 6L9 6L9 7L10 7L10 8L9 8L9 9L10 9L10 10L9 10L9 11L8 11L8 12L7 12L7 11L6 11L6 12L7 12L7 13L6 13L6 14L7 14L7 15L10 15L10 17L12 17L12 18L13 18L13 17L14 17L14 18L16 18L16 17L14 17L14 16L19 16L19 15L18 15L18 14L17 14L17 15L16 15L16 12L14 12L14 11L15 11L15 10L13 10L13 9L14 9L14 8L15 8L15 7L16 7L16 6L15 6L15 7L14 7L14 6L13 6L13 7L12 7L12 5L13 5L13 3ZM10 6L10 7L11 7L11 8L12 8L12 7L11 7L11 6ZM13 7L13 8L14 8L14 7ZM20 9L20 10L21 10L21 11L20 11L20 12L22 12L22 13L23 13L23 12L22 12L22 10L21 10L21 9ZM1 11L1 12L2 12L2 11ZM3 11L3 13L4 13L4 11ZM11 11L11 13L10 13L10 12L9 12L9 13L7 13L7 14L10 14L10 15L11 15L11 14L12 14L12 13L14 13L14 14L13 14L13 15L12 15L12 16L14 16L14 14L15 14L15 13L14 13L14 12L13 12L13 11ZM20 13L20 15L22 15L22 14L21 14L21 13ZM24 14L24 15L25 15L25 14ZM24 16L24 18L25 18L25 16ZM17 17L17 20L20 20L20 17ZM18 18L18 19L19 19L19 18ZM13 20L13 21L14 21L14 20ZM20 21L20 22L21 22L21 21ZM12 22L12 23L13 23L13 25L14 25L14 23L15 23L15 22L14 22L14 23L13 23L13 22ZM0 0L0 7L7 7L7 0ZM1 1L1 6L6 6L6 1ZM2 2L2 5L5 5L5 2ZM18 0L18 7L25 7L25 0ZM19 1L19 6L24 6L24 1ZM20 2L20 5L23 5L23 2ZM0 18L0 25L7 25L7 18ZM1 19L1 24L6 24L6 19ZM2 20L2 23L5 23L5 20Z" fill="#000000"/></g></g></svg>
