<?xml version="1.0" encoding="UTF-8"?>
<svg xmlns="http://www.w3.org/2000/svg" version="1.1" width="300" height="300" viewBox="0 0 300 300"><rect x="0" y="0" width="300" height="300" fill="#ffffff"/><g transform="scale(4.348)"><g transform="translate(0,0)"><path fill-rule="evenodd" d="M8 0L8 1L9 1L9 0ZM13 0L13 3L11 3L11 1L10 1L10 2L8 2L8 5L9 5L9 6L8 6L8 7L9 7L9 6L10 6L10 7L11 7L11 5L12 5L12 9L10 9L10 8L8 8L8 10L6 10L6 11L5 11L5 9L4 9L4 8L0 8L0 9L3 9L3 10L4 10L4 11L3 11L3 13L2 13L2 12L1 12L1 11L0 11L0 12L1 12L1 13L2 13L2 14L0 14L0 15L1 15L1 16L0 16L0 18L2 18L2 20L1 20L1 21L2 21L2 22L4 22L4 23L7 23L7 24L5 24L5 25L7 25L7 26L6 26L6 27L5 27L5 26L4 26L4 27L3 27L3 25L4 25L4 24L3 24L3 23L2 23L2 24L1 24L1 23L0 23L0 27L1 27L1 29L0 29L0 31L1 31L1 32L0 32L0 34L1 34L1 35L0 35L0 37L1 37L1 39L0 39L0 40L1 40L1 39L2 39L2 40L4 40L4 41L2 41L2 43L1 43L1 41L0 41L0 43L1 43L1 44L2 44L2 45L3 45L3 46L1 46L1 45L0 45L0 46L1 46L1 47L0 47L0 48L1 48L1 49L0 49L0 50L1 50L1 49L3 49L3 50L2 50L2 51L0 51L0 53L2 53L2 56L4 56L4 55L3 55L3 52L4 52L4 54L5 54L5 56L6 56L6 57L7 57L7 58L5 58L5 57L4 57L4 59L7 59L7 60L6 60L6 61L7 61L7 60L8 60L8 62L10 62L10 63L11 63L11 58L12 58L12 59L13 59L13 57L14 57L14 58L15 58L15 56L16 56L16 59L14 59L14 61L15 61L15 60L16 60L16 61L17 61L17 62L16 62L16 66L14 66L14 65L13 65L13 66L11 66L11 64L10 64L10 65L8 65L8 69L10 69L10 67L11 67L11 68L12 68L12 67L13 67L13 66L14 66L14 69L15 69L15 67L16 67L16 68L17 68L17 69L18 69L18 68L19 68L19 67L20 67L20 69L23 69L23 68L25 68L25 66L24 66L24 65L27 65L27 67L26 67L26 68L27 68L27 67L29 67L29 69L30 69L30 66L31 66L31 65L30 65L30 64L31 64L31 63L30 63L30 62L32 62L32 66L34 66L34 67L35 67L35 69L36 69L36 67L37 67L37 66L38 66L38 68L37 68L37 69L38 69L38 68L40 68L40 69L42 69L42 68L41 68L41 67L43 67L43 69L44 69L44 66L45 66L45 65L46 65L46 67L45 67L45 68L46 68L46 69L48 69L48 68L49 68L49 66L48 66L48 65L46 65L46 63L43 63L43 64L41 64L41 63L39 63L39 60L36 60L36 59L37 59L37 58L38 58L38 57L40 57L40 58L42 58L42 61L40 61L40 62L42 62L42 61L44 61L44 62L46 62L46 61L47 61L47 62L48 62L48 63L51 63L51 61L49 61L49 60L50 60L50 59L48 59L48 58L50 58L50 57L47 57L47 58L46 58L46 57L44 57L44 55L45 55L45 56L47 56L47 55L48 55L48 56L51 56L51 55L52 55L52 57L51 57L51 58L52 58L52 60L53 60L53 62L52 62L52 64L53 64L53 65L51 65L51 64L50 64L50 65L51 65L51 67L50 67L50 68L51 68L51 69L54 69L54 68L53 68L53 67L54 67L54 66L53 66L53 65L54 65L54 64L55 64L55 68L56 68L56 67L58 67L58 66L60 66L60 67L59 67L59 69L65 69L65 68L66 68L66 67L67 67L67 66L68 66L68 65L69 65L69 64L68 64L68 63L67 63L67 61L68 61L68 59L69 59L69 58L68 58L68 57L67 57L67 56L65 56L65 55L66 55L66 54L67 54L67 55L68 55L68 56L69 56L69 55L68 55L68 54L69 54L69 52L68 52L68 51L69 51L69 49L67 49L67 51L66 51L66 49L65 49L65 51L62 51L62 52L60 52L60 51L61 51L61 50L64 50L64 49L63 49L63 48L66 48L66 47L68 47L68 48L69 48L69 45L68 45L68 44L65 44L65 42L66 42L66 43L67 43L67 42L69 42L69 40L68 40L68 39L66 39L66 38L67 38L67 37L69 37L69 36L68 36L68 35L69 35L69 34L68 34L68 33L67 33L67 32L66 32L66 34L65 34L65 31L68 31L68 32L69 32L69 31L68 31L68 30L69 30L69 29L68 29L68 27L67 27L67 26L68 26L68 25L67 25L67 26L66 26L66 25L64 25L64 27L63 27L63 25L62 25L62 24L63 24L63 23L64 23L64 22L63 22L63 23L62 23L62 24L61 24L61 26L62 26L62 27L60 27L60 26L59 26L59 28L57 28L57 27L56 27L56 25L55 25L55 23L54 23L54 22L55 22L55 21L54 21L54 20L58 20L58 21L59 21L59 22L56 22L56 24L58 24L58 25L60 25L60 24L59 24L59 22L62 22L62 21L65 21L65 22L67 22L67 23L68 23L68 24L69 24L69 21L68 21L68 22L67 22L67 20L66 20L66 19L62 19L62 21L61 21L61 18L60 18L60 17L61 17L61 15L60 15L60 14L59 14L59 15L56 15L56 12L57 12L57 14L58 14L58 12L59 12L59 11L61 11L61 12L60 12L60 13L61 13L61 14L62 14L62 15L63 15L63 16L62 16L62 17L63 17L63 18L64 18L64 17L63 17L63 16L65 16L65 17L66 17L66 18L67 18L67 19L68 19L68 20L69 20L69 19L68 19L68 18L69 18L69 15L68 15L68 13L67 13L67 14L66 14L66 11L65 11L65 14L66 14L66 15L63 15L63 14L64 14L64 13L63 13L63 12L62 12L62 11L61 11L61 9L62 9L62 8L58 8L58 7L59 7L59 4L57 4L57 5L58 5L58 7L57 7L57 6L56 6L56 3L57 3L57 1L61 1L61 0L57 0L57 1L56 1L56 0L51 0L51 1L50 1L50 0L48 0L48 1L50 1L50 2L49 2L49 3L48 3L48 4L50 4L50 5L49 5L49 6L48 6L48 8L49 8L49 6L50 6L50 9L51 9L51 8L52 8L52 9L54 9L54 11L55 11L55 12L53 12L53 13L50 13L50 12L49 12L49 11L47 11L47 12L45 12L45 13L44 13L44 12L43 12L43 13L44 13L44 14L42 14L42 11L43 11L43 9L42 9L42 8L41 8L41 6L40 6L40 8L39 8L39 5L40 5L40 2L41 2L41 0L39 0L39 4L35 4L35 2L36 2L36 3L38 3L38 2L36 2L36 1L35 1L35 0L33 0L33 1L32 1L32 0L30 0L30 1L32 1L32 2L29 2L29 1L28 1L28 3L29 3L29 5L28 5L28 4L27 4L27 5L28 5L28 7L29 7L29 5L30 5L30 7L31 7L31 6L32 6L32 9L31 9L31 10L33 10L33 9L34 9L34 11L33 11L33 13L35 13L35 16L34 16L34 18L32 18L32 17L33 17L33 16L32 16L32 12L29 12L29 11L30 11L30 10L29 10L29 11L27 11L27 9L26 9L26 12L24 12L24 11L23 11L23 13L22 13L22 14L21 14L21 10L23 10L23 9L24 9L24 10L25 10L25 8L27 8L27 6L26 6L26 7L25 7L25 6L24 6L24 7L25 7L25 8L23 8L23 6L22 6L22 9L21 9L21 6L20 6L20 5L21 5L21 4L19 4L19 3L20 3L20 2L21 2L21 1L23 1L23 2L25 2L25 3L26 3L26 2L27 2L27 0L21 0L21 1L19 1L19 0L17 0L17 1L16 1L16 0ZM37 0L37 1L38 1L38 0ZM42 0L42 2L43 2L43 1L44 1L44 0ZM14 1L14 2L15 2L15 3L13 3L13 4L14 4L14 5L13 5L13 8L15 8L15 9L16 9L16 10L15 10L15 11L14 11L14 10L11 10L11 11L10 11L10 10L9 10L9 12L8 12L8 13L6 13L6 14L9 14L9 15L8 15L8 17L10 17L10 18L7 18L7 17L6 17L6 18L7 18L7 19L6 19L6 20L5 20L5 17L4 17L4 20L3 20L3 21L4 21L4 22L7 22L7 23L9 23L9 22L10 22L10 25L12 25L12 23L11 23L11 22L13 22L13 25L15 25L15 24L16 24L16 25L17 25L17 26L12 26L12 27L11 27L11 26L10 26L10 28L7 28L7 27L8 27L8 26L7 26L7 27L6 27L6 28L7 28L7 29L5 29L5 28L3 28L3 27L2 27L2 26L1 26L1 27L2 27L2 28L3 28L3 30L4 30L4 31L3 31L3 32L4 32L4 31L5 31L5 32L8 32L8 31L10 31L10 32L11 32L11 34L12 34L12 35L13 35L13 34L12 34L12 32L13 32L13 31L12 31L12 32L11 32L11 31L10 31L10 30L8 30L8 29L11 29L11 28L12 28L12 29L14 29L14 30L15 30L15 29L16 29L16 27L17 27L17 26L18 26L18 24L19 24L19 23L20 23L20 24L22 24L22 25L23 25L23 26L22 26L22 27L20 27L20 25L19 25L19 28L17 28L17 30L16 30L16 31L14 31L14 33L15 33L15 34L14 34L14 40L13 40L13 41L15 41L15 43L14 43L14 42L12 42L12 39L9 39L9 37L6 37L6 38L7 38L7 39L5 39L5 37L4 37L4 34L3 34L3 36L2 36L2 38L3 38L3 37L4 37L4 39L5 39L5 40L7 40L7 39L8 39L8 40L11 40L11 41L9 41L9 42L10 42L10 46L11 46L11 42L12 42L12 43L13 43L13 44L15 44L15 45L12 45L12 46L13 46L13 48L12 48L12 49L10 49L10 48L11 48L11 47L10 47L10 48L9 48L9 46L8 46L8 48L7 48L7 47L6 47L6 46L7 46L7 45L4 45L4 46L5 46L5 47L4 47L4 48L3 48L3 47L2 47L2 48L3 48L3 49L4 49L4 50L5 50L5 52L7 52L7 53L5 53L5 54L8 54L8 55L9 55L9 57L8 57L8 58L7 58L7 59L8 59L8 60L10 60L10 59L9 59L9 57L10 57L10 58L11 58L11 57L13 57L13 56L12 56L12 55L14 55L14 54L13 54L13 53L16 53L16 51L15 51L15 50L14 50L14 49L13 49L13 48L14 48L14 47L15 47L15 48L16 48L16 50L17 50L17 53L19 53L19 55L18 55L18 54L17 54L17 57L18 57L18 58L20 58L20 59L18 59L18 60L21 60L21 62L17 62L17 63L19 63L19 64L18 64L18 66L16 66L16 67L18 67L18 66L19 66L19 64L20 64L20 63L21 63L21 65L20 65L20 67L21 67L21 65L22 65L22 66L23 66L23 64L27 64L27 65L28 65L28 64L30 64L30 63L29 63L29 61L28 61L28 60L30 60L30 58L31 58L31 61L32 61L32 60L33 60L33 59L34 59L34 57L33 57L33 58L31 58L31 56L33 56L33 55L34 55L34 56L35 56L35 54L36 54L36 57L37 57L37 55L38 55L38 56L40 56L40 55L38 55L38 54L41 54L41 55L44 55L44 54L45 54L45 55L46 55L46 53L47 53L47 54L48 54L48 55L50 55L50 54L51 54L51 53L49 53L49 51L50 51L50 48L51 48L51 47L49 47L49 51L47 51L47 48L46 48L46 46L47 46L47 47L48 47L48 46L49 46L49 44L50 44L50 46L53 46L53 45L55 45L55 46L56 46L56 48L55 48L55 49L54 49L54 47L52 47L52 50L51 50L51 51L52 51L52 50L55 50L55 51L57 51L57 52L58 52L58 53L59 53L59 55L58 55L58 54L56 54L56 52L55 52L55 53L54 53L54 54L53 54L53 52L54 52L54 51L53 51L53 52L52 52L52 55L53 55L53 56L54 56L54 57L53 57L53 60L55 60L55 59L56 59L56 58L55 58L55 59L54 59L54 57L55 57L55 56L56 56L56 57L57 57L57 60L56 60L56 61L58 61L58 62L57 62L57 63L58 63L58 64L57 64L57 65L60 65L60 64L59 64L59 63L60 63L60 60L58 60L58 58L60 58L60 59L61 59L61 60L62 60L62 59L61 59L61 58L60 58L60 57L62 57L62 58L66 58L66 57L65 57L65 56L64 56L64 55L65 55L65 54L63 54L63 53L64 53L64 52L63 52L63 53L61 53L61 54L62 54L62 55L60 55L60 53L59 53L59 51L60 51L60 50L61 50L61 49L62 49L62 47L60 47L60 48L59 48L59 49L58 49L58 48L57 48L57 47L58 47L58 46L59 46L59 45L61 45L61 46L64 46L64 47L66 47L66 45L65 45L65 44L64 44L64 43L63 43L63 42L62 42L62 41L63 41L63 40L64 40L64 39L65 39L65 38L66 38L66 37L67 37L67 34L66 34L66 36L65 36L65 37L64 37L64 38L63 38L63 37L61 37L61 38L60 38L60 34L59 34L59 33L60 33L60 32L61 32L61 31L62 31L62 32L64 32L64 31L65 31L65 30L68 30L68 29L66 29L66 28L64 28L64 29L62 29L62 28L63 28L63 27L62 27L62 28L61 28L61 29L60 29L60 28L59 28L59 31L57 31L57 32L55 32L55 29L54 29L54 31L53 31L53 30L51 30L51 28L52 28L52 29L53 29L53 28L52 28L52 25L54 25L54 26L55 26L55 25L54 25L54 23L52 23L52 22L54 22L54 21L51 21L51 19L53 19L53 20L54 20L54 19L55 19L55 18L56 18L56 19L57 19L57 18L58 18L58 16L57 16L57 18L56 18L56 17L55 17L55 16L56 16L56 15L54 15L54 14L55 14L55 13L53 13L53 15L52 15L52 14L51 14L51 15L50 15L50 14L49 14L49 13L48 13L48 12L47 12L47 13L46 13L46 14L48 14L48 16L46 16L46 17L44 17L44 16L42 16L42 15L41 15L41 14L40 14L40 17L37 17L37 16L39 16L39 15L38 15L38 13L41 13L41 9L40 9L40 12L39 12L39 8L37 8L37 9L36 9L36 10L35 10L35 12L37 12L37 14L36 14L36 15L37 15L37 16L36 16L36 17L37 17L37 19L36 19L36 18L34 18L34 20L32 20L32 18L31 18L31 19L30 19L30 17L32 17L32 16L30 16L30 15L28 15L28 16L29 16L29 18L28 18L28 20L26 20L26 19L27 19L27 18L25 18L25 17L24 17L24 16L25 16L25 15L26 15L26 16L27 16L27 13L28 13L28 14L29 14L29 13L28 13L28 12L26 12L26 14L25 14L25 13L23 13L23 15L21 15L21 14L20 14L20 15L17 15L17 18L19 18L19 19L20 19L20 20L21 20L21 19L22 19L22 20L25 20L25 22L26 22L26 23L24 23L24 22L21 22L21 21L19 21L19 20L17 20L17 19L16 19L16 14L12 14L12 15L11 15L11 14L10 14L10 13L9 13L9 12L11 12L11 13L12 13L12 12L13 12L13 13L14 13L14 12L15 12L15 11L16 11L16 13L17 13L17 11L18 11L18 12L19 12L19 13L20 13L20 12L19 12L19 11L20 11L20 10L21 10L21 9L20 9L20 6L19 6L19 5L15 5L15 4L16 4L16 2L15 2L15 1ZM17 1L17 2L18 2L18 1ZM34 1L34 2L32 2L32 3L31 3L31 5L32 5L32 3L33 3L33 4L34 4L34 2L35 2L35 1ZM45 1L45 2L44 2L44 3L45 3L45 4L47 4L47 3L45 3L45 2L47 2L47 1ZM51 1L51 2L50 2L50 4L51 4L51 5L52 5L52 4L53 4L53 7L54 7L54 8L55 8L55 7L56 7L56 10L60 10L60 9L57 9L57 7L56 7L56 6L55 6L55 7L54 7L54 5L55 5L55 3L54 3L54 4L53 4L53 1ZM58 2L58 3L59 3L59 2ZM23 3L23 4L22 4L22 5L23 5L23 4L24 4L24 3ZM42 3L42 4L43 4L43 5L42 5L42 7L43 7L43 5L44 5L44 4L43 4L43 3ZM60 3L60 5L61 5L61 3ZM9 4L9 5L11 5L11 4ZM14 5L14 7L15 7L15 5ZM33 5L33 8L36 8L36 5ZM16 6L16 7L17 7L17 6ZM18 6L18 8L19 8L19 6ZM34 6L34 7L35 7L35 6ZM37 6L37 7L38 7L38 6ZM44 6L44 7L45 7L45 6ZM46 6L46 7L47 7L47 6ZM51 6L51 7L52 7L52 6ZM60 6L60 7L61 7L61 6ZM6 8L6 9L7 9L7 8ZM16 8L16 9L17 9L17 10L18 10L18 9L17 9L17 8ZM29 8L29 9L30 9L30 8ZM46 8L46 9L47 9L47 10L48 10L48 9L47 9L47 8ZM64 8L64 10L63 10L63 11L64 11L64 10L65 10L65 9L66 9L66 10L67 10L67 12L69 12L69 8L68 8L68 10L67 10L67 8ZM37 9L37 11L38 11L38 9ZM44 9L44 11L45 11L45 9ZM50 10L50 11L51 11L51 10ZM4 11L4 12L5 12L5 11ZM6 11L6 12L7 12L7 11ZM11 11L11 12L12 12L12 11ZM57 11L57 12L58 12L58 11ZM4 13L4 14L2 14L2 15L5 15L5 16L7 16L7 15L5 15L5 13ZM30 13L30 14L31 14L31 13ZM24 14L24 15L25 15L25 14ZM44 14L44 15L45 15L45 14ZM10 15L10 16L11 16L11 17L12 17L12 18L15 18L15 16L13 16L13 15L12 15L12 16L11 16L11 15ZM49 15L49 16L50 16L50 15ZM51 15L51 17L52 17L52 15ZM59 15L59 16L60 16L60 15ZM2 16L2 18L3 18L3 16ZM12 16L12 17L13 17L13 16ZM18 16L18 17L19 17L19 16ZM20 16L20 19L21 19L21 18L22 18L22 16ZM41 16L41 17L40 17L40 18L38 18L38 19L37 19L37 20L38 20L38 21L37 21L37 22L38 22L38 21L39 21L39 22L40 22L40 21L41 21L41 23L43 23L43 21L44 21L44 19L42 19L42 18L41 18L41 17L42 17L42 16ZM67 16L67 18L68 18L68 16ZM23 17L23 19L25 19L25 18L24 18L24 17ZM46 17L46 19L47 19L47 20L46 20L46 21L45 21L45 23L46 23L46 24L45 24L45 25L47 25L47 24L48 24L48 25L49 25L49 26L51 26L51 25L52 25L52 23L49 23L49 21L50 21L50 19L47 19L47 18L48 18L48 17ZM53 17L53 18L54 18L54 17ZM10 18L10 19L11 19L11 20L14 20L14 21L15 21L15 22L14 22L14 24L15 24L15 23L16 23L16 24L17 24L17 23L19 23L19 22L17 22L17 21L16 21L16 20L15 20L15 19L11 19L11 18ZM40 18L40 19L41 19L41 18ZM7 19L7 20L6 20L6 21L8 21L8 22L9 22L9 21L10 21L10 22L11 22L11 21L10 21L10 20L9 20L9 21L8 21L8 19ZM38 19L38 20L39 20L39 21L40 21L40 20L39 20L39 19ZM58 19L58 20L59 20L59 21L60 21L60 20L59 20L59 19ZM29 20L29 22L30 22L30 24L29 24L29 23L28 23L28 21L27 21L27 24L28 24L28 25L26 25L26 24L25 24L25 26L27 26L27 28L25 28L25 27L24 27L24 28L23 28L23 27L22 27L22 28L23 28L23 29L22 29L22 30L21 30L21 31L19 31L19 30L20 30L20 29L18 29L18 31L19 31L19 32L22 32L22 33L21 33L21 34L19 34L19 33L17 33L17 32L16 32L16 33L17 33L17 34L15 34L15 36L16 36L16 37L15 37L15 38L16 38L16 39L17 39L17 38L16 38L16 37L19 37L19 38L21 38L21 40L22 40L22 39L24 39L24 41L22 41L22 42L20 42L20 39L19 39L19 41L18 41L18 40L17 40L17 41L16 41L16 40L15 40L15 41L16 41L16 42L18 42L18 43L19 43L19 42L20 42L20 45L19 45L19 46L18 46L18 48L17 48L17 50L18 50L18 48L20 48L20 45L21 45L21 50L20 50L20 49L19 49L19 51L18 51L18 52L21 52L21 53L22 53L22 52L21 52L21 51L24 51L24 52L23 52L23 54L22 54L22 56L21 56L21 54L20 54L20 55L19 55L19 56L20 56L20 57L21 57L21 59L22 59L22 60L24 60L24 58L25 58L25 61L26 61L26 59L27 59L27 58L28 58L28 59L29 59L29 58L30 58L30 56L31 56L31 55L30 55L30 54L31 54L31 53L30 53L30 54L29 54L29 52L30 52L30 51L33 51L33 50L32 50L32 49L33 49L33 48L35 48L35 49L34 49L34 52L32 52L32 54L34 54L34 52L35 52L35 53L36 53L36 52L38 52L38 51L39 51L39 52L41 52L41 54L42 54L42 53L43 53L43 54L44 54L44 53L46 53L46 52L47 52L47 51L46 51L46 50L45 50L45 51L43 51L43 52L42 52L42 51L41 51L41 50L42 50L42 49L43 49L43 50L44 50L44 49L43 49L43 48L42 48L42 47L44 47L44 48L45 48L45 49L46 49L46 48L45 48L45 46L44 46L44 45L42 45L42 44L41 44L41 43L37 43L37 45L39 45L39 48L40 48L40 45L42 45L42 47L41 47L41 48L42 48L42 49L41 49L41 50L40 50L40 49L38 49L38 48L36 48L36 47L38 47L38 46L36 46L36 44L35 44L35 42L36 42L36 40L37 40L37 39L39 39L39 40L38 40L38 41L39 41L39 42L42 42L42 41L40 41L40 40L43 40L43 39L44 39L44 37L43 37L43 38L42 38L42 39L41 39L41 38L40 38L40 39L39 39L39 37L40 37L40 35L39 35L39 36L38 36L38 37L37 37L37 34L38 34L38 33L37 33L37 32L38 32L38 31L40 31L40 33L39 33L39 34L41 34L41 31L42 31L42 30L41 30L41 31L40 31L40 30L38 30L38 29L40 29L40 28L41 28L41 27L40 27L40 26L41 26L41 25L42 25L42 24L41 24L41 25L40 25L40 26L39 26L39 24L38 24L38 23L37 23L37 24L36 24L36 20L34 20L34 21L31 21L31 22L30 22L30 20ZM41 20L41 21L43 21L43 20ZM48 20L48 21L46 21L46 22L47 22L47 23L48 23L48 21L49 21L49 20ZM65 20L65 21L66 21L66 20ZM34 21L34 23L33 23L33 22L31 22L31 24L32 24L32 25L31 25L31 26L32 26L32 28L29 28L29 31L27 31L27 30L25 30L25 28L24 28L24 29L23 29L23 30L22 30L22 31L23 31L23 32L24 32L24 31L26 31L26 32L25 32L25 34L24 34L24 37L23 37L23 34L21 34L21 35L20 35L20 36L21 36L21 38L22 38L22 37L23 37L23 38L24 38L24 39L26 39L26 38L27 38L27 41L28 41L28 39L29 39L29 42L28 42L28 43L27 43L27 42L26 42L26 41L24 41L24 42L25 42L25 43L27 43L27 44L25 44L25 45L27 45L27 46L25 46L25 48L24 48L24 49L23 49L23 47L24 47L24 46L23 46L23 45L24 45L24 44L23 44L23 45L22 45L22 46L23 46L23 47L22 47L22 49L23 49L23 50L25 50L25 51L26 51L26 52L25 52L25 53L24 53L24 56L25 56L25 58L26 58L26 57L28 57L28 58L29 58L29 56L30 56L30 55L29 55L29 54L25 54L25 53L26 53L26 52L27 52L27 53L28 53L28 51L29 51L29 50L30 50L30 49L29 49L29 48L28 48L28 49L27 49L27 48L26 48L26 47L27 47L27 46L28 46L28 47L29 47L29 46L30 46L30 47L31 47L31 48L33 48L33 47L32 47L32 46L33 46L33 44L34 44L34 43L33 43L33 42L32 42L32 39L31 39L31 38L30 38L30 39L29 39L29 37L28 37L28 38L27 38L27 36L29 36L29 35L28 35L28 34L29 34L29 33L27 33L27 32L30 32L30 35L31 35L31 34L32 34L32 33L31 33L31 32L32 32L32 30L33 30L33 31L34 31L34 32L37 32L37 31L35 31L35 30L36 30L36 29L37 29L37 28L36 28L36 27L37 27L37 26L38 26L38 24L37 24L37 26L36 26L36 27L35 27L35 24L34 24L34 23L35 23L35 21ZM16 22L16 23L17 23L17 22ZM22 23L22 24L23 24L23 23ZM65 23L65 24L66 24L66 23ZM8 24L8 25L9 25L9 24ZM33 24L33 27L34 27L34 24ZM43 24L43 25L44 25L44 24ZM49 24L49 25L50 25L50 24ZM28 25L28 26L29 26L29 25ZM42 26L42 28L43 28L43 27L44 27L44 29L43 29L43 30L45 30L45 31L46 31L46 32L47 32L47 33L48 33L48 34L50 34L50 35L48 35L48 36L47 36L47 34L46 34L46 33L44 33L44 31L43 31L43 33L42 33L42 35L41 35L41 37L42 37L42 36L43 36L43 35L44 35L44 36L45 36L45 37L46 37L46 36L47 36L47 37L49 37L49 38L48 38L48 40L49 40L49 41L48 41L48 42L47 42L47 40L46 40L46 42L45 42L45 40L44 40L44 42L45 42L45 45L47 45L47 46L48 46L48 44L49 44L49 43L50 43L50 44L51 44L51 45L53 45L53 43L54 43L54 42L53 42L53 41L52 41L52 42L49 42L49 41L51 41L51 40L49 40L49 39L50 39L50 38L51 38L51 39L52 39L52 40L53 40L53 39L54 39L54 38L52 38L52 37L49 37L49 36L50 36L50 35L52 35L52 34L53 34L53 35L54 35L54 36L57 36L57 38L55 38L55 40L56 40L56 41L57 41L57 42L55 42L55 43L57 43L57 45L59 45L59 41L60 41L60 40L59 40L59 39L58 39L58 41L57 41L57 38L58 38L58 37L59 37L59 35L58 35L58 36L57 36L57 35L55 35L55 32L53 32L53 31L51 31L51 30L50 30L50 29L48 29L48 30L47 30L47 28L46 28L46 26ZM47 26L47 27L48 27L48 26ZM14 27L14 29L15 29L15 27ZM38 27L38 28L39 28L39 27ZM54 27L54 28L56 28L56 27ZM27 28L27 29L28 29L28 28ZM32 28L32 29L30 29L30 30L32 30L32 29L33 29L33 30L35 30L35 28ZM1 29L1 30L2 30L2 29ZM64 29L64 30L62 30L62 31L64 31L64 30L65 30L65 29ZM6 30L6 31L7 31L7 30ZM48 30L48 31L49 31L49 32L48 32L48 33L50 33L50 34L51 34L51 33L52 33L52 32L50 32L50 30ZM59 31L59 32L58 32L58 33L59 33L59 32L60 32L60 31ZM5 33L5 36L8 36L8 33ZM9 33L9 34L10 34L10 33ZM26 33L26 34L25 34L25 37L26 37L26 35L27 35L27 33ZM33 33L33 36L36 36L36 33ZM43 33L43 34L44 34L44 33ZM56 33L56 34L57 34L57 33ZM61 33L61 36L64 36L64 33ZM6 34L6 35L7 35L7 34ZM18 34L18 35L17 35L17 36L19 36L19 34ZM34 34L34 35L35 35L35 34ZM45 34L45 36L46 36L46 34ZM62 34L62 35L63 35L63 34ZM21 35L21 36L22 36L22 35ZM10 36L10 37L11 37L11 38L13 38L13 37L11 37L11 36ZM31 36L31 37L32 37L32 38L33 38L33 39L35 39L35 40L34 40L34 42L35 42L35 40L36 40L36 39L35 39L35 38L36 38L36 37L35 37L35 38L33 38L33 37L32 37L32 36ZM45 38L45 39L46 39L46 38ZM30 39L30 40L31 40L31 39ZM61 39L61 40L63 40L63 39ZM4 41L4 42L5 42L5 41ZM6 41L6 42L7 42L7 41ZM30 41L30 43L31 43L31 41ZM66 41L66 42L67 42L67 41ZM52 42L52 43L51 43L51 44L52 44L52 43L53 43L53 42ZM57 42L57 43L58 43L58 42ZM60 42L60 44L61 44L61 45L62 45L62 42ZM3 43L3 44L4 44L4 43ZM6 43L6 44L9 44L9 43ZM21 43L21 44L22 44L22 43ZM43 43L43 44L44 44L44 43ZM46 43L46 44L47 44L47 43ZM17 44L17 45L18 45L18 44ZM29 44L29 45L30 45L30 44ZM31 44L31 46L32 46L32 44ZM55 44L55 45L56 45L56 44ZM15 45L15 46L16 46L16 47L17 47L17 46L16 46L16 45ZM34 45L34 47L35 47L35 45ZM6 48L6 49L5 49L5 50L6 50L6 51L7 51L7 52L8 52L8 54L9 54L9 55L10 55L10 56L11 56L11 55L10 55L10 54L9 54L9 53L11 53L11 50L9 50L9 48L8 48L8 50L6 50L6 49L7 49L7 48ZM36 49L36 50L35 50L35 51L38 51L38 49ZM55 49L55 50L56 50L56 49ZM57 49L57 51L59 51L59 50L58 50L58 49ZM8 50L8 52L9 52L9 50ZM12 50L12 52L15 52L15 51L14 51L14 50ZM27 50L27 51L28 51L28 50ZM2 51L2 52L3 52L3 51ZM43 52L43 53L44 53L44 52ZM67 52L67 53L68 53L68 52ZM37 53L37 54L38 54L38 53ZM48 53L48 54L49 54L49 53ZM15 54L15 55L16 55L16 54ZM6 55L6 56L7 56L7 55ZM26 55L26 56L27 56L27 55ZM28 55L28 56L29 56L29 55ZM0 56L0 61L1 61L1 56ZM22 56L22 58L23 58L23 56ZM42 56L42 57L43 57L43 59L44 59L44 57L43 57L43 56ZM58 56L58 57L59 57L59 56ZM2 57L2 59L3 59L3 57ZM16 59L16 60L17 60L17 59ZM40 59L40 60L41 60L41 59ZM46 59L46 60L48 60L48 59ZM64 59L64 60L65 60L65 61L67 61L67 59L66 59L66 60L65 60L65 59ZM3 60L3 61L5 61L5 60ZM12 60L12 61L13 61L13 60ZM44 60L44 61L45 61L45 60ZM22 61L22 63L24 63L24 62L23 62L23 61ZM27 61L27 63L28 63L28 61ZM33 61L33 64L36 64L36 61ZM37 61L37 65L36 65L36 66L35 66L35 67L36 67L36 66L37 66L37 65L38 65L38 66L39 66L39 67L41 67L41 64L40 64L40 65L39 65L39 64L38 64L38 61ZM48 61L48 62L49 62L49 61ZM54 61L54 62L53 62L53 63L54 63L54 62L55 62L55 61ZM61 61L61 64L64 64L64 61ZM25 62L25 63L26 63L26 62ZM34 62L34 63L35 63L35 62ZM62 62L62 63L63 63L63 62ZM12 63L12 64L14 64L14 63ZM55 63L55 64L56 64L56 63ZM43 64L43 65L42 65L42 66L43 66L43 65L44 65L44 64ZM62 65L62 66L61 66L61 67L62 67L62 66L63 66L63 68L64 68L64 67L66 67L66 66L67 66L67 65L66 65L66 66L65 66L65 65ZM9 66L9 67L10 67L10 66ZM47 66L47 67L46 67L46 68L47 68L47 67L48 67L48 66ZM22 67L22 68L23 68L23 67ZM51 67L51 68L52 68L52 67ZM68 67L68 68L69 68L69 67ZM57 68L57 69L58 69L58 68ZM0 0L0 7L7 7L7 0ZM1 1L1 6L6 6L6 1ZM2 2L2 5L5 5L5 2ZM62 0L62 7L69 7L69 0ZM63 1L63 6L68 6L68 1ZM64 2L64 5L67 5L67 2ZM0 62L0 69L7 69L7 62ZM1 63L1 68L6 68L6 63ZM2 64L2 67L5 67L5 64Z" fill="#000000"/></g></g></svg>
