<?xml version="1.0" encoding="UTF-8"?>
<svg xmlns="http://www.w3.org/2000/svg" version="1.1" width="300" height="300" viewBox="0 0 300 300"><rect x="0" y="0" width="300" height="300" fill="#ffffff"/><g transform="scale(12)"><g transform="translate(0,0)"><path fill-rule="evenodd" d="M10 0L10 1L8 1L8 3L9 3L9 4L8 4L8 8L6 8L6 9L4 9L4 8L3 8L3 9L2 9L2 8L0 8L0 12L2 12L2 15L1 15L1 14L0 14L0 15L1 15L1 16L0 16L0 17L3 17L3 16L4 16L4 17L8 17L8 19L9 19L9 18L10 18L10 17L8 17L8 16L5 16L5 14L6 14L6 15L9 15L9 16L11 16L11 17L12 17L12 15L13 15L13 14L14 14L14 13L15 13L15 15L17 15L17 16L16 16L16 18L15 18L15 16L14 16L14 17L13 17L13 18L12 18L12 19L10 19L10 20L9 20L9 21L8 21L8 22L9 22L9 23L8 23L8 25L9 25L9 23L10 23L10 25L11 25L11 23L12 23L12 22L13 22L13 23L14 23L14 24L12 24L12 25L14 25L14 24L15 24L15 25L16 25L16 23L15 23L15 22L16 22L16 21L17 21L17 22L18 22L18 21L19 21L19 24L17 24L17 25L19 25L19 24L20 24L20 25L21 25L21 24L20 24L20 23L21 23L21 22L22 22L22 21L25 21L25 19L22 19L22 18L21 18L21 16L23 16L23 17L24 17L24 18L25 18L25 17L24 17L24 16L25 16L25 15L24 15L24 14L23 14L23 13L25 13L25 12L22 12L22 11L23 11L23 10L24 10L24 8L22 8L22 9L21 9L21 8L18 8L18 9L17 9L17 5L16 5L16 8L15 8L15 5L14 5L14 4L13 4L13 3L12 3L12 7L11 7L11 4L10 4L10 3L9 3L9 2L11 2L11 0ZM14 0L14 1L15 1L15 0ZM16 1L16 3L15 3L15 2L14 2L14 3L15 3L15 4L16 4L16 3L17 3L17 1ZM9 5L9 8L8 8L8 9L6 9L6 10L7 10L7 11L6 11L6 12L7 12L7 11L8 11L8 12L9 12L9 13L10 13L10 15L11 15L11 13L10 13L10 12L9 12L9 11L11 11L11 8L10 8L10 5ZM13 5L13 7L12 7L12 8L14 8L14 5ZM1 9L1 11L3 11L3 10L2 10L2 9ZM9 9L9 10L10 10L10 9ZM13 9L13 10L14 10L14 11L13 11L13 12L16 12L16 13L18 13L18 15L20 15L20 16L21 16L21 15L23 15L23 14L22 14L22 13L21 13L21 12L19 12L19 11L17 11L17 9L16 9L16 11L15 11L15 10L14 10L14 9ZM19 9L19 10L20 10L20 11L22 11L22 10L20 10L20 9ZM4 10L4 11L5 11L5 10ZM16 11L16 12L17 12L17 11ZM4 13L4 14L3 14L3 15L2 15L2 16L3 16L3 15L4 15L4 14L5 14L5 13ZM6 13L6 14L8 14L8 13ZM12 13L12 14L13 14L13 13ZM20 13L20 15L21 15L21 13ZM17 17L17 20L20 20L20 17ZM13 18L13 21L16 21L16 19L15 19L15 20L14 20L14 18ZM18 18L18 19L19 19L19 18ZM21 19L21 20L22 20L22 19ZM10 20L10 22L11 22L11 21L12 21L12 20ZM24 22L24 25L25 25L25 22ZM0 0L0 7L7 7L7 0ZM1 1L1 6L6 6L6 1ZM2 2L2 5L5 5L5 2ZM18 0L18 7L25 7L25 0ZM19 1L19 6L24 6L24 1ZM20 2L20 5L23 5L23 2ZM0 18L0 25L7 25L7 18ZM1 19L1 24L6 24L6 19ZM2 20L2 23L5 23L5 20Z" fill="#000000"/></g></g></svg>
