<?xml version="1.0" encoding="UTF-8"?>
<svg xmlns="http://www.w3.org/2000/svg" version="1.1" width="300" height="300" viewBox="0 0 300 300"><rect x="0" y="0" width="300" height="300" fill="#ffffff"/><g transform="scale(12)"><g transform="translate(0,0)"><path fill-rule="evenodd" d="M10 0L10 2L11 2L11 0ZM12 0L12 1L13 1L13 2L12 2L12 4L14 4L14 3L13 3L13 2L15 2L15 3L16 3L16 4L15 4L15 5L11 5L11 6L10 6L10 4L11 4L11 3L8 3L8 4L9 4L9 5L8 5L8 7L9 7L9 8L6 8L6 9L7 9L7 10L6 10L6 11L4 11L4 12L5 12L5 13L3 13L3 15L2 15L2 16L3 16L3 15L4 15L4 16L5 16L5 15L7 15L7 16L6 16L6 17L8 17L8 19L10 19L10 20L8 20L8 25L10 25L10 24L11 24L11 23L12 23L12 25L13 25L13 23L12 23L12 22L11 22L11 23L10 23L10 24L9 24L9 21L11 21L11 19L10 19L10 18L9 18L9 17L10 17L10 16L9 16L9 17L8 17L8 15L7 15L7 14L5 14L5 13L7 13L7 12L6 12L6 11L7 11L7 10L8 10L8 11L9 11L9 9L10 9L10 11L11 11L11 9L12 9L12 10L13 10L13 9L12 9L12 7L13 7L13 6L14 6L14 8L15 8L15 12L14 12L14 11L12 11L12 13L13 13L13 12L14 12L14 13L15 13L15 14L14 14L14 15L16 15L16 19L14 19L14 18L13 18L13 16L12 16L12 15L13 15L13 14L10 14L10 13L11 13L11 12L9 12L9 15L11 15L11 17L12 17L12 19L13 19L13 20L16 20L16 21L15 21L15 23L14 23L14 24L15 24L15 23L16 23L16 21L21 21L21 22L22 22L22 21L21 21L21 18L22 18L22 19L23 19L23 17L24 17L24 16L23 16L23 17L22 17L22 15L21 15L21 14L20 14L20 13L18 13L18 14L17 14L17 15L16 15L16 13L17 13L17 12L16 12L16 7L17 7L17 6L16 6L16 5L17 5L17 3L16 3L16 2L17 2L17 1L15 1L15 0ZM8 1L8 2L9 2L9 1ZM9 6L9 7L10 7L10 6ZM11 6L11 7L12 7L12 6ZM15 6L15 7L16 7L16 6ZM0 8L0 9L1 9L1 10L0 10L0 11L1 11L1 10L2 10L2 12L0 12L0 17L1 17L1 14L2 14L2 12L3 12L3 10L5 10L5 8ZM10 8L10 9L11 9L11 8ZM17 8L17 11L18 11L18 12L19 12L19 10L18 10L18 8ZM19 8L19 9L20 9L20 8ZM21 8L21 10L20 10L20 11L21 11L21 13L22 13L22 14L25 14L25 11L24 11L24 12L22 12L22 11L23 11L23 9L24 9L24 10L25 10L25 9L24 9L24 8L23 8L23 9L22 9L22 8ZM2 9L2 10L3 10L3 9ZM15 12L15 13L16 13L16 12ZM18 14L18 15L17 15L17 16L18 16L18 15L19 15L19 16L20 16L20 15L19 15L19 14ZM17 17L17 20L20 20L20 17ZM18 18L18 19L19 19L19 18ZM24 18L24 19L25 19L25 18ZM24 20L24 21L23 21L23 22L24 22L24 23L25 23L25 20ZM13 21L13 22L14 22L14 21ZM19 23L19 24L22 24L22 23ZM16 24L16 25L17 25L17 24ZM24 24L24 25L25 25L25 24ZM0 0L0 7L7 7L7 0ZM1 1L1 6L6 6L6 1ZM2 2L2 5L5 5L5 2ZM18 0L18 7L25 7L25 0ZM19 1L19 6L24 6L24 1ZM20 2L20 5L23 5L23 2ZM0 18L0 25L7 25L7 18ZM1 19L1 24L6 24L6 19ZM2 20L2 23L5 23L5 20Z" fill="#000000"/></g></g></svg>
