<?xml version="1.0" encoding="UTF-8"?>
<svg xmlns="http://www.w3.org/2000/svg" version="1.1" width="300" height="300" viewBox="0 0 300 300"><rect x="0" y="0" width="300" height="300" fill="#ffffff"/><g transform="scale(3.529)"><g transform="translate(0,0)"><path fill-rule="evenodd" d="M9 0L9 1L8 1L8 2L10 2L10 0ZM13 0L13 1L14 1L14 0ZM17 0L17 1L16 1L16 2L14 2L14 3L16 3L16 4L15 4L15 5L16 5L16 7L17 7L17 6L18 6L18 8L17 8L17 10L19 10L19 12L17 12L17 13L16 13L16 12L14 12L14 11L15 11L15 10L14 10L14 9L13 9L13 8L12 8L12 7L13 7L13 5L14 5L14 4L12 4L12 3L13 3L13 2L12 2L12 3L11 3L11 4L10 4L10 3L8 3L8 4L9 4L9 5L8 5L8 7L9 7L9 8L6 8L6 9L8 9L8 10L6 10L6 11L5 11L5 8L0 8L0 12L1 12L1 9L2 9L2 11L5 11L5 12L6 12L6 13L4 13L4 12L2 12L2 13L1 13L1 15L0 15L0 16L1 16L1 17L0 17L0 18L1 18L1 19L0 19L0 22L1 22L1 19L8 19L8 21L7 21L7 20L3 20L3 21L2 21L2 23L3 23L3 24L1 24L1 23L0 23L0 25L1 25L1 26L2 26L2 27L3 27L3 26L4 26L4 28L2 28L2 30L3 30L3 29L4 29L4 32L3 32L3 31L1 31L1 30L0 30L0 31L1 31L1 32L0 32L0 34L1 34L1 35L0 35L0 36L3 36L3 37L4 37L4 38L5 38L5 39L2 39L2 38L0 38L0 39L2 39L2 40L0 40L0 41L2 41L2 42L0 42L0 44L1 44L1 45L0 45L0 46L2 46L2 47L1 47L1 48L0 48L0 49L1 49L1 50L2 50L2 51L0 51L0 54L2 54L2 55L3 55L3 56L4 56L4 59L5 59L5 60L6 60L6 61L8 61L8 60L10 60L10 61L9 61L9 62L8 62L8 64L5 64L5 63L7 63L7 62L5 62L5 63L4 63L4 62L3 62L3 63L2 63L2 64L1 64L1 62L0 62L0 65L1 65L1 66L0 66L0 67L1 67L1 68L0 68L0 70L1 70L1 68L3 68L3 67L4 67L4 64L5 64L5 68L6 68L6 69L3 69L3 71L2 71L2 73L3 73L3 74L1 74L1 72L0 72L0 75L1 75L1 76L0 76L0 77L1 77L1 76L2 76L2 75L3 75L3 76L4 76L4 75L5 75L5 76L6 76L6 77L8 77L8 79L10 79L10 80L8 80L8 85L11 85L11 84L12 84L12 81L14 81L14 82L13 82L13 83L14 83L14 84L13 84L13 85L14 85L14 84L15 84L15 83L16 83L16 85L18 85L18 84L19 84L19 85L20 85L20 83L21 83L21 82L20 82L20 81L22 81L22 82L23 82L23 84L24 84L24 82L27 82L27 81L28 81L28 82L29 82L29 83L27 83L27 84L28 84L28 85L29 85L29 84L31 84L31 85L32 85L32 84L34 84L34 83L37 83L37 84L35 84L35 85L38 85L38 83L39 83L39 84L41 84L41 82L38 82L38 81L37 81L37 80L41 80L41 81L42 81L42 82L43 82L43 83L44 83L44 84L42 84L42 85L44 85L44 84L45 84L45 83L46 83L46 84L47 84L47 85L50 85L50 84L52 84L52 85L55 85L55 83L54 83L54 81L56 81L56 82L58 82L58 83L56 83L56 84L60 84L60 85L62 85L62 84L60 84L60 83L63 83L63 81L64 81L64 80L65 80L65 81L66 81L66 80L65 80L65 79L66 79L66 78L64 78L64 76L62 76L62 74L63 74L63 75L66 75L66 77L67 77L67 78L68 78L68 79L67 79L67 80L68 80L68 83L66 83L66 82L64 82L64 84L63 84L63 85L64 85L64 84L65 84L65 85L67 85L67 84L68 84L68 85L70 85L70 84L68 84L68 83L69 83L69 82L70 82L70 83L71 83L71 84L72 84L72 83L73 83L73 84L75 84L75 85L76 85L76 84L77 84L77 83L78 83L78 84L79 84L79 85L80 85L80 82L81 82L81 83L83 83L83 81L84 81L84 84L82 84L82 85L85 85L85 81L84 81L84 79L85 79L85 78L84 78L84 79L83 79L83 78L82 78L82 77L84 77L84 76L85 76L85 74L84 74L84 75L83 75L83 76L81 76L81 75L80 75L80 73L81 73L81 72L82 72L82 73L85 73L85 70L84 70L84 69L85 69L85 68L84 68L84 69L83 69L83 68L81 68L81 67L80 67L80 65L83 65L83 66L84 66L84 67L85 67L85 66L84 66L84 63L85 63L85 62L82 62L82 61L83 61L83 60L80 60L80 59L79 59L79 58L80 58L80 57L81 57L81 55L82 55L82 54L81 54L81 51L83 51L83 48L82 48L82 44L81 44L81 43L83 43L83 42L82 42L82 41L84 41L84 40L81 40L81 39L78 39L78 40L81 40L81 42L80 42L80 41L79 41L79 42L76 42L76 40L75 40L75 39L76 39L76 37L77 37L77 36L75 36L75 38L74 38L74 39L73 39L73 38L72 38L72 39L69 39L69 38L70 38L70 37L69 37L69 36L73 36L73 37L74 37L74 36L73 36L73 35L76 35L76 34L77 34L77 33L79 33L79 34L78 34L78 36L79 36L79 37L78 37L78 38L79 38L79 37L80 37L80 38L81 38L81 37L83 37L83 36L81 36L81 35L80 35L80 36L79 36L79 34L82 34L82 35L84 35L84 37L85 37L85 34L84 34L84 32L85 32L85 30L84 30L84 32L83 32L83 34L82 34L82 33L81 33L81 31L83 31L83 30L82 30L82 28L80 28L80 27L82 27L82 25L83 25L83 27L85 27L85 24L84 24L84 25L83 25L83 24L82 24L82 23L83 23L83 22L82 22L82 21L83 21L83 20L82 20L82 18L84 18L84 19L85 19L85 18L84 18L84 17L85 17L85 14L84 14L84 15L83 15L83 14L82 14L82 12L81 12L81 14L80 14L80 15L79 15L79 14L78 14L78 13L77 13L77 12L78 12L78 11L83 11L83 12L84 12L84 11L85 11L85 10L84 10L84 11L83 11L83 10L82 10L82 8L81 8L81 10L80 10L80 8L79 8L79 9L78 9L78 8L77 8L77 6L76 6L76 5L75 5L75 4L76 4L76 3L75 3L75 2L76 2L76 1L77 1L77 0L76 0L76 1L75 1L75 0L74 0L74 1L71 1L71 0L68 0L68 2L67 2L67 0L66 0L66 1L63 1L63 0L62 0L62 1L61 1L61 0L60 0L60 1L61 1L61 2L59 2L59 1L58 1L58 0L56 0L56 1L54 1L54 0L51 0L51 1L48 1L48 2L49 2L49 3L48 3L48 5L46 5L46 4L47 4L47 1L46 1L46 0L45 0L45 1L43 1L43 0L42 0L42 1L43 1L43 2L42 2L42 3L43 3L43 2L44 2L44 3L45 3L45 4L44 4L44 5L45 5L45 6L44 6L44 8L43 8L43 6L42 6L42 7L41 7L41 5L43 5L43 4L41 4L41 5L40 5L40 8L39 8L39 10L38 10L38 9L37 9L37 8L38 8L38 7L39 7L39 5L38 5L38 4L39 4L39 2L40 2L40 3L41 3L41 2L40 2L40 1L38 1L38 2L37 2L37 1L36 1L36 3L35 3L35 4L37 4L37 5L36 5L36 8L35 8L35 5L33 5L33 4L34 4L34 3L33 3L33 4L32 4L32 3L31 3L31 1L29 1L29 3L28 3L28 0L26 0L26 1L25 1L25 2L22 2L22 1L23 1L23 0L22 0L22 1L21 1L21 0L20 0L20 1L18 1L18 0ZM17 1L17 2L16 2L16 3L18 3L18 1ZM20 1L20 2L21 2L21 1ZM26 1L26 2L27 2L27 1ZM32 1L32 2L35 2L35 1ZM51 1L51 3L52 3L52 4L55 4L55 3L52 3L52 2L54 2L54 1ZM57 1L57 2L56 2L56 4L57 4L57 2L58 2L58 5L59 5L59 8L57 8L57 9L54 9L54 11L53 11L53 10L52 10L52 12L51 12L51 11L50 11L50 10L51 10L51 8L52 8L52 6L51 6L51 8L50 8L50 5L51 5L51 4L50 4L50 5L48 5L48 6L47 6L47 8L46 8L46 6L45 6L45 8L44 8L44 9L43 9L43 8L40 8L40 9L43 9L43 10L40 10L40 11L41 11L41 12L39 12L39 11L38 11L38 10L37 10L37 9L34 9L34 8L33 8L33 9L32 9L32 10L31 10L31 9L30 9L30 10L29 10L29 9L28 9L28 8L27 8L27 9L28 9L28 10L25 10L25 9L26 9L26 6L27 6L27 7L28 7L28 5L26 5L26 6L25 6L25 9L23 9L23 8L24 8L24 4L28 4L28 3L22 3L22 4L21 4L21 3L19 3L19 4L18 4L18 5L19 5L19 4L21 4L21 5L20 5L20 6L19 6L19 7L20 7L20 8L19 8L19 9L20 9L20 8L22 8L22 9L21 9L21 12L19 12L19 13L17 13L17 14L16 14L16 13L15 13L15 14L16 14L16 15L17 15L17 14L19 14L19 16L22 16L22 17L18 17L18 19L17 19L17 17L16 17L16 16L14 16L14 17L15 17L15 19L14 19L14 20L13 20L13 18L12 18L12 17L13 17L13 15L12 15L12 16L11 16L11 18L12 18L12 20L13 20L13 22L12 22L12 21L11 21L11 20L10 20L10 18L8 18L8 17L10 17L10 16L8 16L8 15L9 15L9 14L10 14L10 15L11 15L11 14L12 14L12 13L13 13L13 11L14 11L14 10L13 10L13 11L11 11L11 12L10 12L10 11L8 11L8 12L9 12L9 13L8 13L8 14L7 14L7 13L6 13L6 14L3 14L3 15L1 15L1 16L2 16L2 17L3 17L3 18L4 18L4 17L3 17L3 16L4 16L4 15L5 15L5 18L8 18L8 19L9 19L9 21L8 21L8 22L7 22L7 21L6 21L6 22L7 22L7 23L5 23L5 21L4 21L4 22L3 22L3 23L5 23L5 24L4 24L4 25L5 25L5 24L7 24L7 25L6 25L6 26L5 26L5 28L9 28L9 29L11 29L11 30L15 30L15 31L10 31L10 30L9 30L9 32L13 32L13 33L10 33L10 34L9 34L9 37L10 37L10 38L8 38L8 39L6 39L6 40L8 40L8 41L6 41L6 42L2 42L2 43L3 43L3 44L2 44L2 45L3 45L3 44L4 44L4 43L6 43L6 44L7 44L7 45L5 45L5 47L6 47L6 48L5 48L5 50L9 50L9 51L3 51L3 55L4 55L4 52L10 52L10 51L12 51L12 54L11 54L11 53L10 53L10 54L11 54L11 55L10 55L10 57L9 57L9 58L8 58L8 57L5 57L5 58L8 58L8 59L9 59L9 58L10 58L10 60L11 60L11 61L10 61L10 62L9 62L9 65L8 65L8 66L7 66L7 65L6 65L6 66L7 66L7 67L6 67L6 68L7 68L7 69L6 69L6 70L5 70L5 72L7 72L7 73L5 73L5 75L6 75L6 76L7 76L7 75L6 75L6 74L7 74L7 73L8 73L8 71L9 71L9 68L10 68L10 67L11 67L11 68L12 68L12 69L10 69L10 72L9 72L9 73L10 73L10 72L11 72L11 71L13 71L13 70L14 70L14 71L15 71L15 72L17 72L17 74L18 74L18 72L21 72L21 71L22 71L22 72L24 72L24 71L22 71L22 69L21 69L21 68L23 68L23 66L24 66L24 68L25 68L25 69L26 69L26 70L25 70L25 71L26 71L26 72L25 72L25 73L23 73L23 74L22 74L22 73L19 73L19 75L16 75L16 73L15 73L15 74L14 74L14 75L16 75L16 76L19 76L19 75L20 75L20 74L21 74L21 75L22 75L22 77L18 77L18 80L19 80L19 81L20 81L20 80L21 80L21 79L20 79L20 78L23 78L23 80L22 80L22 81L23 81L23 82L24 82L24 81L27 81L27 80L26 80L26 79L27 79L27 76L28 76L28 75L29 75L29 76L31 76L31 75L29 75L29 73L32 73L32 74L33 74L33 73L34 73L34 74L35 74L35 76L33 76L33 75L32 75L32 76L33 76L33 78L35 78L35 79L33 79L33 80L34 80L34 81L31 81L31 82L32 82L32 83L33 83L33 82L36 82L36 80L37 80L37 79L38 79L38 78L39 78L39 77L42 77L42 74L41 74L41 75L40 75L40 74L39 74L39 73L43 73L43 72L44 72L44 74L47 74L47 73L48 73L48 72L49 72L49 74L51 74L51 71L50 71L50 72L49 72L49 71L48 71L48 70L51 70L51 67L50 67L50 66L51 66L51 64L50 64L50 62L51 62L51 63L52 63L52 66L53 66L53 67L52 67L52 68L53 68L53 69L52 69L52 70L53 70L53 71L52 71L52 72L53 72L53 73L55 73L55 74L57 74L57 75L58 75L58 77L60 77L60 76L61 76L61 78L63 78L63 77L62 77L62 76L61 76L61 75L60 75L60 74L59 74L59 73L60 73L60 72L59 72L59 73L58 73L58 71L59 71L59 70L60 70L60 69L61 69L61 71L62 71L62 72L63 72L63 71L62 71L62 70L63 70L63 69L61 69L61 68L64 68L64 69L65 69L65 70L64 70L64 71L65 71L65 72L64 72L64 74L67 74L67 75L68 75L68 76L67 76L67 77L68 77L68 78L69 78L69 77L70 77L70 78L71 78L71 79L70 79L70 80L71 80L71 81L70 81L70 82L71 82L71 83L72 83L72 80L74 80L74 81L73 81L73 82L74 82L74 81L75 81L75 80L74 80L74 79L72 79L72 78L74 78L74 76L75 76L75 75L74 75L74 76L73 76L73 74L77 74L77 75L76 75L76 76L79 76L79 75L78 75L78 74L79 74L79 73L80 73L80 72L81 72L81 69L80 69L80 68L79 68L79 67L78 67L78 66L79 66L79 65L80 65L80 64L83 64L83 63L82 63L82 62L81 62L81 61L80 61L80 60L79 60L79 59L78 59L78 58L79 58L79 57L77 57L77 58L76 58L76 56L75 56L75 55L72 55L72 54L71 54L71 53L72 53L72 52L71 52L71 51L70 51L70 50L71 50L71 49L72 49L72 50L74 50L74 49L75 49L75 50L77 50L77 51L75 51L75 52L78 52L78 51L79 51L79 52L80 52L80 50L82 50L82 48L80 48L80 50L78 50L78 49L79 49L79 48L78 48L78 46L77 46L77 47L76 47L76 48L77 48L77 49L75 49L75 47L73 47L73 48L74 48L74 49L72 49L72 48L71 48L71 49L70 49L70 47L69 47L69 45L70 45L70 44L71 44L71 47L72 47L72 45L73 45L73 46L74 46L74 44L75 44L75 43L74 43L74 44L73 44L73 43L72 43L72 42L71 42L71 41L72 41L72 40L73 40L73 42L75 42L75 40L73 40L73 39L72 39L72 40L70 40L70 42L71 42L71 43L70 43L70 44L69 44L69 45L68 45L68 44L66 44L66 43L65 43L65 42L67 42L67 41L69 41L69 39L68 39L68 36L69 36L69 35L70 35L70 34L69 34L69 33L68 33L68 32L67 32L67 33L66 33L66 31L72 31L72 32L71 32L71 35L72 35L72 34L74 34L74 33L76 33L76 31L72 31L72 30L71 30L71 29L72 29L72 28L71 28L71 27L73 27L73 28L74 28L74 29L73 29L73 30L74 30L74 29L76 29L76 28L79 28L79 27L80 27L80 26L81 26L81 25L82 25L82 24L81 24L81 23L80 23L80 22L81 22L81 21L80 21L80 20L81 20L81 19L80 19L80 17L81 17L81 18L82 18L82 17L81 17L81 16L83 16L83 15L80 15L80 17L78 17L78 16L79 16L79 15L77 15L77 17L76 17L76 18L75 18L75 19L73 19L73 18L74 18L74 17L75 17L75 16L76 16L76 14L77 14L77 13L76 13L76 11L77 11L77 9L76 9L76 8L75 8L75 7L76 7L76 6L75 6L75 5L72 5L72 6L71 6L71 5L69 5L69 4L68 4L68 3L70 3L70 4L72 4L72 3L71 3L71 2L70 2L70 1L69 1L69 2L68 2L68 3L66 3L66 2L63 2L63 3L62 3L62 2L61 2L61 4L60 4L60 3L59 3L59 2L58 2L58 1ZM73 2L73 4L75 4L75 3L74 3L74 2ZM63 3L63 4L62 4L62 5L60 5L60 4L59 4L59 5L60 5L60 7L61 7L61 8L60 8L60 11L59 11L59 10L58 10L58 9L57 9L57 12L56 12L56 10L55 10L55 11L54 11L54 12L56 12L56 13L57 13L57 14L55 14L55 15L54 15L54 13L51 13L51 12L50 12L50 13L49 13L49 12L48 12L48 13L49 13L49 14L48 14L48 15L46 15L46 14L43 14L43 13L41 13L41 14L40 14L40 13L39 13L39 14L38 14L38 17L39 17L39 14L40 14L40 16L41 16L41 19L39 19L39 18L38 18L38 19L39 19L39 20L41 20L41 19L42 19L42 20L43 20L43 21L42 21L42 22L41 22L41 21L40 21L40 22L38 22L38 21L37 21L37 20L36 20L36 19L35 19L35 18L33 18L33 20L32 20L32 17L33 17L33 16L35 16L35 17L37 17L37 16L36 16L36 15L33 15L33 14L32 14L32 15L31 15L31 10L30 10L30 12L29 12L29 11L27 11L27 12L29 12L29 13L27 13L27 14L28 14L28 15L27 15L27 18L26 18L26 17L25 17L25 16L26 16L26 15L24 15L24 14L23 14L23 13L24 13L24 12L26 12L26 11L25 11L25 10L24 10L24 12L23 12L23 11L22 11L22 12L21 12L21 13L20 13L20 14L21 14L21 15L22 15L22 14L23 14L23 17L22 17L22 18L21 18L21 19L23 19L23 20L21 20L21 21L20 21L20 19L18 19L18 20L17 20L17 19L15 19L15 21L14 21L14 22L13 22L13 23L12 23L12 22L10 22L10 21L9 21L9 22L8 22L8 23L7 23L7 24L9 24L9 25L8 25L8 26L6 26L6 27L9 27L9 28L11 28L11 29L15 29L15 28L13 28L13 27L16 27L16 30L17 30L17 28L18 28L18 33L17 33L17 32L16 32L16 31L15 31L15 33L13 33L13 34L12 34L12 35L13 35L13 36L14 36L14 37L13 37L13 38L14 38L14 39L15 39L15 38L16 38L16 39L18 39L18 40L19 40L19 41L17 41L17 40L15 40L15 41L17 41L17 42L18 42L18 43L19 43L19 41L22 41L22 42L20 42L20 44L18 44L18 45L17 45L17 43L16 43L16 42L15 42L15 43L12 43L12 42L14 42L14 40L12 40L12 42L11 42L11 43L10 43L10 42L9 42L9 41L10 41L10 40L9 40L9 39L8 39L8 40L9 40L9 41L8 41L8 42L9 42L9 43L10 43L10 45L11 45L11 46L12 46L12 47L11 47L11 48L10 48L10 46L9 46L9 49L10 49L10 50L12 50L12 49L13 49L13 50L14 50L14 49L15 49L15 47L14 47L14 49L13 49L13 48L12 48L12 47L13 47L13 45L11 45L11 44L15 44L15 46L16 46L16 45L17 45L17 46L18 46L18 45L20 45L20 46L19 46L19 47L16 47L16 51L19 51L19 49L20 49L20 50L21 50L21 51L22 51L22 50L23 50L23 49L24 49L24 50L26 50L26 51L23 51L23 52L19 52L19 53L18 53L18 52L15 52L15 54L14 54L14 53L13 53L13 55L15 55L15 54L16 54L16 55L17 55L17 59L16 59L16 56L15 56L15 60L12 60L12 59L14 59L14 57L13 57L13 56L12 56L12 55L11 55L11 57L13 57L13 58L11 58L11 60L12 60L12 61L13 61L13 62L11 62L11 63L10 63L10 66L11 66L11 64L12 64L12 65L13 65L13 62L14 62L14 64L15 64L15 65L14 65L14 66L13 66L13 67L14 67L14 68L15 68L15 67L14 67L14 66L15 66L15 65L16 65L16 64L15 64L15 63L16 63L16 62L17 62L17 63L18 63L18 62L17 62L17 61L16 61L16 60L17 60L17 59L18 59L18 60L19 60L19 59L18 59L18 56L19 56L19 55L20 55L20 56L21 56L21 57L20 57L20 58L21 58L21 59L20 59L20 61L22 61L22 60L21 60L21 59L22 59L22 58L23 58L23 57L24 57L24 58L25 58L25 59L23 59L23 61L24 61L24 63L25 63L25 64L26 64L26 63L25 63L25 62L26 62L26 61L24 61L24 60L25 60L25 59L26 59L26 60L27 60L27 61L28 61L28 62L29 62L29 63L28 63L28 64L27 64L27 65L26 65L26 66L27 66L27 65L28 65L28 66L30 66L30 67L33 67L33 68L32 68L32 69L33 69L33 68L34 68L34 69L35 69L35 70L34 70L34 71L33 71L33 70L32 70L32 71L31 71L31 68L29 68L29 67L28 67L28 68L27 68L27 67L26 67L26 68L27 68L27 70L28 70L28 71L31 71L31 72L32 72L32 71L33 71L33 72L34 72L34 73L35 73L35 74L36 74L36 75L37 75L37 76L36 76L36 77L35 77L35 78L38 78L38 77L39 77L39 76L40 76L40 75L37 75L37 74L38 74L38 73L39 73L39 72L38 72L38 73L37 73L37 72L34 72L34 71L39 71L39 70L38 70L38 69L39 69L39 68L41 68L41 69L40 69L40 70L41 70L41 69L42 69L42 70L43 70L43 71L42 71L42 72L43 72L43 71L44 71L44 72L45 72L45 71L47 71L47 72L48 72L48 71L47 71L47 70L48 70L48 69L49 69L49 68L50 68L50 67L49 67L49 66L48 66L48 67L47 67L47 66L45 66L45 67L44 67L44 64L45 64L45 65L46 65L46 64L45 64L45 63L49 63L49 62L50 62L50 61L51 61L51 62L52 62L52 63L53 63L53 64L54 64L54 65L53 65L53 66L54 66L54 67L53 67L53 68L55 68L55 67L56 67L56 70L55 70L55 71L56 71L56 70L59 70L59 69L58 69L58 68L60 68L60 67L62 67L62 66L65 66L65 68L66 68L66 70L65 70L65 71L67 71L67 72L68 72L68 74L70 74L70 75L69 75L69 76L68 76L68 77L69 77L69 76L72 76L72 74L73 74L73 73L72 73L72 74L71 74L71 72L72 72L72 71L75 71L75 72L74 72L74 73L75 73L75 72L76 72L76 73L79 73L79 72L80 72L80 71L79 71L79 72L77 72L77 71L78 71L78 69L79 69L79 68L77 68L77 66L78 66L78 65L79 65L79 63L80 63L80 61L79 61L79 60L78 60L78 61L77 61L77 64L78 64L78 65L77 65L77 66L75 66L75 65L74 65L74 66L72 66L72 67L71 67L71 66L70 66L70 65L71 65L71 64L72 64L72 65L73 65L73 64L74 64L74 63L76 63L76 62L73 62L73 64L72 64L72 62L71 62L71 61L70 61L70 60L72 60L72 59L74 59L74 61L75 61L75 59L76 59L76 58L75 58L75 57L74 57L74 58L71 58L71 57L68 57L68 59L66 59L66 58L67 58L67 56L70 56L70 55L68 55L68 54L70 54L70 53L69 53L69 52L68 52L68 51L69 51L69 50L70 50L70 49L69 49L69 50L68 50L68 49L66 49L66 50L59 50L59 48L60 48L60 49L62 49L62 48L63 48L63 49L65 49L65 47L67 47L67 48L69 48L69 47L67 47L67 46L65 46L65 47L64 47L64 44L65 44L65 43L64 43L64 41L67 41L67 40L68 40L68 39L67 39L67 36L68 36L68 35L69 35L69 34L68 34L68 35L66 35L66 36L65 36L65 37L64 37L64 36L63 36L63 37L62 37L62 38L60 38L60 39L59 39L59 38L58 38L58 37L57 37L57 36L55 36L55 34L56 34L56 35L57 35L57 34L58 34L58 35L59 35L59 36L60 36L60 35L59 35L59 34L60 34L60 33L64 33L64 32L65 32L65 31L66 31L66 30L65 30L65 31L64 31L64 30L63 30L63 29L64 29L64 28L63 28L63 27L65 27L65 26L64 26L64 25L65 25L65 23L67 23L67 24L66 24L66 26L67 26L67 24L68 24L68 25L69 25L69 26L68 26L68 27L66 27L66 28L68 28L68 29L69 29L69 30L70 30L70 29L69 29L69 28L70 28L70 27L71 27L71 25L70 25L70 23L75 23L75 24L74 24L74 26L73 26L73 24L72 24L72 26L73 26L73 27L74 27L74 28L76 28L76 27L77 27L77 26L76 26L76 25L78 25L78 27L79 27L79 25L80 25L80 23L79 23L79 22L80 22L80 21L79 21L79 20L80 20L80 19L79 19L79 18L78 18L78 17L77 17L77 24L76 24L76 23L75 23L75 22L76 22L76 21L75 21L75 20L76 20L76 19L75 19L75 20L74 20L74 22L72 22L72 21L73 21L73 20L72 20L72 17L71 17L71 16L72 16L72 15L74 15L74 14L73 14L73 12L74 12L74 13L75 13L75 14L76 14L76 13L75 13L75 12L74 12L74 11L75 11L75 10L76 10L76 9L75 9L75 8L74 8L74 10L73 10L73 11L72 11L72 9L73 9L73 8L72 8L72 7L73 7L73 6L72 6L72 7L71 7L71 6L70 6L70 7L71 7L71 8L72 8L72 9L71 9L71 10L70 10L70 9L69 9L69 6L68 6L68 5L67 5L67 6L66 6L66 5L65 5L65 6L64 6L64 3ZM65 3L65 4L66 4L66 3ZM11 4L11 5L9 5L9 7L10 7L10 6L11 6L11 7L12 7L12 6L11 6L11 5L12 5L12 4ZM21 5L21 6L20 6L20 7L21 7L21 6L22 6L22 7L23 7L23 5ZM29 5L29 8L32 8L32 5ZM37 5L37 7L38 7L38 5ZM53 5L53 8L56 8L56 5ZM14 6L14 7L15 7L15 6ZM30 6L30 7L31 7L31 6ZM33 6L33 7L34 7L34 6ZM48 6L48 7L49 7L49 6ZM54 6L54 7L55 7L55 6ZM57 6L57 7L58 7L58 6ZM61 6L61 7L62 7L62 6ZM63 6L63 8L64 8L64 9L65 9L65 10L64 10L64 11L65 11L65 10L66 10L66 9L65 9L65 8L67 8L67 10L69 10L69 11L68 11L68 12L67 12L67 11L66 11L66 12L67 12L67 14L69 14L69 15L68 15L68 16L67 16L67 15L66 15L66 16L65 16L65 17L64 17L64 18L63 18L63 20L64 20L64 19L65 19L65 18L66 18L66 20L65 20L65 22L66 22L66 20L67 20L67 21L70 21L70 22L71 22L71 21L72 21L72 20L71 20L71 17L70 17L70 18L69 18L69 17L68 17L68 16L69 16L69 15L70 15L70 16L71 16L71 15L72 15L72 14L71 14L71 13L72 13L72 12L70 12L70 10L69 10L69 9L68 9L68 8L67 8L67 7L68 7L68 6L67 6L67 7L66 7L66 6L65 6L65 8L64 8L64 6ZM74 6L74 7L75 7L75 6ZM9 8L9 9L11 9L11 8ZM48 8L48 9L49 9L49 10L48 10L48 11L49 11L49 10L50 10L50 8ZM61 8L61 10L62 10L62 11L61 11L61 12L62 12L62 13L61 13L61 14L62 14L62 13L63 13L63 14L64 14L64 15L61 15L61 17L60 17L60 16L58 16L58 15L60 15L60 14L59 14L59 13L60 13L60 12L59 12L59 11L58 11L58 12L57 12L57 13L58 13L58 14L57 14L57 16L56 16L56 15L55 15L55 16L56 16L56 17L55 17L55 18L56 18L56 19L55 19L55 20L58 20L58 21L59 21L59 23L57 23L57 21L55 21L55 22L51 22L51 21L52 21L52 20L53 20L53 21L54 21L54 20L53 20L53 19L54 19L54 18L51 18L51 16L50 16L50 17L47 17L47 16L46 16L46 15L45 15L45 16L44 16L44 18L42 18L42 19L43 19L43 20L44 20L44 23L43 23L43 22L42 22L42 23L41 23L41 22L40 22L40 24L39 24L39 23L38 23L38 22L37 22L37 21L36 21L36 22L35 22L35 21L32 21L32 20L31 20L31 22L32 22L32 24L31 24L31 23L30 23L30 21L29 21L29 20L30 20L30 18L31 18L31 17L32 17L32 16L31 16L31 15L30 15L30 13L29 13L29 15L30 15L30 16L31 16L31 17L30 17L30 18L29 18L29 17L28 17L28 18L29 18L29 19L28 19L28 20L27 20L27 19L26 19L26 18L25 18L25 17L23 17L23 18L24 18L24 20L25 20L25 21L23 21L23 22L22 22L22 21L21 21L21 22L22 22L22 24L23 24L23 26L22 26L22 25L21 25L21 24L20 24L20 21L19 21L19 24L20 24L20 25L19 25L19 26L18 26L18 28L20 28L20 27L22 27L22 29L19 29L19 30L20 30L20 31L19 31L19 33L18 33L18 34L16 34L16 33L15 33L15 35L14 35L14 36L15 36L15 37L16 37L16 38L17 38L17 36L16 36L16 35L18 35L18 37L19 37L19 38L18 38L18 39L19 39L19 40L21 40L21 39L24 39L24 37L26 37L26 40L24 40L24 41L23 41L23 42L24 42L24 41L26 41L26 42L25 42L25 43L22 43L22 44L25 44L25 45L26 45L26 44L27 44L27 42L29 42L29 41L31 41L31 42L30 42L30 43L31 43L31 42L32 42L32 44L31 44L31 45L32 45L32 44L33 44L33 46L32 46L32 47L31 47L31 46L29 46L29 45L30 45L30 44L29 44L29 43L28 43L28 44L29 44L29 45L28 45L28 46L29 46L29 47L30 47L30 48L31 48L31 50L29 50L29 49L27 49L27 50L28 50L28 51L29 51L29 52L30 52L30 51L31 51L31 52L34 52L34 53L33 53L33 54L35 54L35 55L34 55L34 56L33 56L33 57L32 57L32 58L35 58L35 60L34 60L34 59L32 59L32 60L31 60L31 59L29 59L29 58L28 58L28 59L27 59L27 58L26 58L26 59L27 59L27 60L28 60L28 61L29 61L29 62L31 62L31 63L32 63L32 64L33 64L33 67L34 67L34 68L35 68L35 69L36 69L36 68L37 68L37 69L38 69L38 68L37 68L37 67L38 67L38 66L39 66L39 65L40 65L40 67L41 67L41 68L42 68L42 69L43 69L43 70L44 70L44 69L45 69L45 70L47 70L47 67L45 67L45 68L44 68L44 67L43 67L43 66L41 66L41 65L42 65L42 64L41 64L41 63L43 63L43 64L44 64L44 63L45 63L45 62L49 62L49 61L50 61L50 60L51 60L51 61L52 61L52 62L53 62L53 63L54 63L54 62L53 62L53 61L55 61L55 62L57 62L57 63L55 63L55 66L56 66L56 67L58 67L58 66L57 66L57 65L59 65L59 66L62 66L62 63L61 63L61 64L59 64L59 62L60 62L60 61L61 61L61 62L63 62L63 64L64 64L64 63L65 63L65 64L66 64L66 63L65 63L65 62L67 62L67 61L68 61L68 63L71 63L71 62L69 62L69 59L70 59L70 58L69 58L69 59L68 59L68 60L67 60L67 61L65 61L65 62L63 62L63 60L66 60L66 59L65 59L65 58L66 58L66 55L67 55L67 54L68 54L68 52L67 52L67 54L66 54L66 53L63 53L63 54L64 54L64 55L60 55L60 54L62 54L62 53L60 53L60 52L61 52L61 51L58 51L58 50L55 50L55 49L56 49L56 46L57 46L57 49L58 49L58 47L59 47L59 45L60 45L60 46L62 46L62 47L61 47L61 48L62 48L62 47L63 47L63 48L64 48L64 47L63 47L63 45L60 45L60 44L63 44L63 43L60 43L60 42L59 42L59 43L60 43L60 44L57 44L57 43L58 43L58 42L57 42L57 41L60 41L60 40L57 40L57 39L58 39L58 38L57 38L57 37L56 37L56 38L55 38L55 37L53 37L53 36L54 36L54 35L53 35L53 34L54 34L54 33L52 33L52 35L53 35L53 36L51 36L51 35L50 35L50 34L51 34L51 33L50 33L50 32L49 32L49 31L48 31L48 30L49 30L49 29L50 29L50 30L51 30L51 32L52 32L52 30L51 30L51 29L52 29L52 28L53 28L53 26L52 26L52 25L54 25L54 24L52 24L52 23L55 23L55 24L56 24L56 23L57 23L57 24L58 24L58 26L57 26L57 27L56 27L56 25L55 25L55 26L54 26L54 28L57 28L57 29L59 29L59 31L60 31L60 29L61 29L61 30L62 30L62 29L63 29L63 28L62 28L62 27L60 27L60 26L59 26L59 25L60 25L60 24L61 24L61 26L63 26L63 25L62 25L62 23L63 23L63 24L64 24L64 23L63 23L63 22L64 22L64 21L62 21L62 19L61 19L61 20L58 20L58 18L57 18L57 16L58 16L58 17L59 17L59 18L62 18L62 17L63 17L63 16L64 16L64 15L65 15L65 14L66 14L66 13L65 13L65 12L64 12L64 13L63 13L63 9L62 9L62 8ZM83 8L83 9L84 9L84 8ZM3 9L3 10L4 10L4 9ZM33 9L33 10L32 10L32 11L33 11L33 12L32 12L32 13L35 13L35 12L34 12L34 11L35 11L35 10L34 10L34 9ZM44 9L44 10L45 10L45 11L44 11L44 12L45 12L45 13L46 13L46 11L47 11L47 10L46 10L46 9ZM36 10L36 11L37 11L37 12L36 12L36 13L38 13L38 11L37 11L37 10ZM6 11L6 12L7 12L7 11ZM42 11L42 12L43 12L43 11ZM11 12L11 13L10 13L10 14L11 14L11 13L12 13L12 12ZM22 12L22 13L21 13L21 14L22 14L22 13L23 13L23 12ZM68 12L68 13L69 13L69 14L70 14L70 13L69 13L69 12ZM25 13L25 14L26 14L26 13ZM50 13L50 14L49 14L49 15L48 15L48 16L49 16L49 15L51 15L51 13ZM6 14L6 15L7 15L7 14ZM52 14L52 15L53 15L53 14ZM41 15L41 16L43 16L43 15ZM6 16L6 17L7 17L7 16ZM45 16L45 18L44 18L44 20L45 20L45 21L47 21L47 20L48 20L48 21L49 21L49 20L50 20L50 21L51 21L51 20L50 20L50 19L51 19L51 18L48 18L48 19L47 19L47 18L46 18L46 16ZM53 16L53 17L54 17L54 16ZM73 16L73 17L74 17L74 16ZM66 17L66 18L68 18L68 17ZM25 19L25 20L26 20L26 19ZM46 19L46 20L47 20L47 19ZM48 19L48 20L49 20L49 19ZM67 19L67 20L70 20L70 19ZM78 19L78 20L79 20L79 19ZM16 20L16 21L15 21L15 22L14 22L14 24L13 24L13 25L14 25L14 24L16 24L16 23L15 23L15 22L16 22L16 21L17 21L17 25L15 25L15 26L17 26L17 25L18 25L18 21L17 21L17 20ZM84 20L84 21L85 21L85 20ZM25 21L25 22L24 22L24 23L23 23L23 24L25 24L25 23L26 23L26 25L24 25L24 28L23 28L23 29L25 29L25 31L24 31L24 32L25 32L25 31L26 31L26 29L27 29L27 31L28 31L28 33L30 33L30 34L31 34L31 33L32 33L32 34L33 34L33 35L32 35L32 36L31 36L31 35L30 35L30 36L28 36L28 37L29 37L29 38L27 38L27 39L28 39L28 40L27 40L27 41L29 41L29 40L30 40L30 38L31 38L31 37L32 37L32 38L33 38L33 39L32 39L32 42L33 42L33 41L35 41L35 40L36 40L36 41L37 41L37 42L36 42L36 43L35 43L35 42L34 42L34 43L35 43L35 45L36 45L36 47L37 47L37 48L34 48L34 47L35 47L35 46L34 46L34 47L32 47L32 48L34 48L34 49L36 49L36 50L34 50L34 51L35 51L35 52L36 52L36 53L37 53L37 54L36 54L36 55L37 55L37 54L38 54L38 56L36 56L36 57L37 57L37 58L36 58L36 59L37 59L37 58L38 58L38 59L39 59L39 60L38 60L38 61L37 61L37 60L36 60L36 61L35 61L35 62L32 62L32 61L31 61L31 60L30 60L30 61L31 61L31 62L32 62L32 63L33 63L33 64L34 64L34 65L35 65L35 66L34 66L34 67L35 67L35 66L36 66L36 67L37 67L37 66L38 66L38 64L36 64L36 65L35 65L35 64L34 64L34 63L37 63L37 62L38 62L38 63L39 63L39 64L40 64L40 63L41 63L41 62L43 62L43 63L44 63L44 61L43 61L43 59L42 59L42 58L45 58L45 59L44 59L44 60L46 60L46 58L45 58L45 57L47 57L47 58L48 58L48 59L49 59L49 58L50 58L50 59L51 59L51 60L52 60L52 61L53 61L53 60L55 60L55 61L56 61L56 60L55 60L55 59L57 59L57 58L58 58L58 59L59 59L59 60L60 60L60 59L63 59L63 57L65 57L65 56L63 56L63 57L62 57L62 56L61 56L61 57L62 57L62 58L60 58L60 57L59 57L59 56L60 56L60 55L59 55L59 54L60 54L60 53L59 53L59 52L58 52L58 51L56 51L56 52L55 52L55 50L53 50L53 51L51 51L51 50L52 50L52 49L54 49L54 48L52 48L52 47L51 47L51 46L52 46L52 45L54 45L54 46L53 46L53 47L55 47L55 46L56 46L56 44L55 44L55 43L54 43L54 42L56 42L56 41L57 41L57 40L56 40L56 39L55 39L55 38L53 38L53 39L51 39L51 38L52 38L52 37L51 37L51 38L50 38L50 37L49 37L49 36L50 36L50 35L49 35L49 34L50 34L50 33L49 33L49 32L48 32L48 33L49 33L49 34L46 34L46 32L47 32L47 31L46 31L46 30L45 30L45 31L44 31L44 28L45 28L45 29L47 29L47 28L46 28L46 27L47 27L47 26L48 26L48 27L49 27L49 28L48 28L48 29L49 29L49 28L50 28L50 29L51 29L51 27L52 27L52 26L49 26L49 25L52 25L52 24L50 24L50 23L51 23L51 22L48 22L48 23L49 23L49 24L48 24L48 25L47 25L47 26L46 26L46 24L47 24L47 23L46 23L46 24L45 24L45 23L44 23L44 24L43 24L43 23L42 23L42 24L43 24L43 25L42 25L42 26L41 26L41 25L40 25L40 27L39 27L39 26L38 26L38 27L37 27L37 24L36 24L36 23L37 23L37 22L36 22L36 23L35 23L35 22L34 22L34 23L35 23L35 25L36 25L36 26L34 26L34 27L33 27L33 26L32 26L32 25L33 25L33 24L32 24L32 25L31 25L31 24L30 24L30 23L29 23L29 22L28 22L28 21ZM26 22L26 23L28 23L28 22ZM55 22L55 23L56 23L56 22ZM61 22L61 23L62 23L62 22ZM84 22L84 23L85 23L85 22ZM10 23L10 24L11 24L11 23ZM78 23L78 25L79 25L79 23ZM27 24L27 26L25 26L25 29L26 29L26 27L29 27L29 28L30 28L30 27L31 27L31 28L33 28L33 31L34 31L34 32L35 32L35 33L33 33L33 34L34 34L34 37L33 37L33 38L35 38L35 39L36 39L36 40L37 40L37 41L38 41L38 42L37 42L37 44L38 44L38 46L37 46L37 47L38 47L38 46L40 46L40 47L41 47L41 48L40 48L40 50L39 50L39 48L37 48L37 51L36 51L36 52L38 52L38 54L40 54L40 55L41 55L41 56L38 56L38 58L39 58L39 59L40 59L40 57L43 57L43 56L44 56L44 57L45 57L45 56L44 56L44 55L45 55L45 54L47 54L47 55L46 55L46 56L47 56L47 57L48 57L48 56L49 56L49 57L50 57L50 58L51 58L51 59L52 59L52 60L53 60L53 59L54 59L54 57L51 57L51 55L50 55L50 54L51 54L51 53L52 53L52 52L51 52L51 51L50 51L50 52L49 52L49 50L51 50L51 47L50 47L50 49L49 49L49 50L47 50L47 49L48 49L48 48L49 48L49 47L48 47L48 48L47 48L47 47L46 47L46 48L47 48L47 49L45 49L45 48L44 48L44 47L45 47L45 46L48 46L48 44L49 44L49 46L51 46L51 44L50 44L50 43L49 43L49 42L51 42L51 43L52 43L52 44L54 44L54 43L53 43L53 42L54 42L54 41L56 41L56 40L54 40L54 39L53 39L53 40L51 40L51 39L46 39L46 40L47 40L47 41L45 41L45 40L44 40L44 39L45 39L45 38L47 38L47 37L45 37L45 36L46 36L46 35L45 35L45 34L42 34L42 35L43 35L43 36L39 36L39 35L40 35L40 34L39 34L39 31L40 31L40 29L41 29L41 28L42 28L42 27L44 27L44 26L45 26L45 24L44 24L44 26L42 26L42 27L41 27L41 28L37 28L37 27L34 27L34 28L33 28L33 27L32 27L32 26L31 26L31 25L28 25L28 24ZM38 24L38 25L39 25L39 24ZM75 24L75 25L76 25L76 24ZM11 25L11 26L10 26L10 27L11 27L11 28L12 28L12 25ZM20 25L20 26L21 26L21 25ZM29 26L29 27L30 27L30 26ZM58 26L58 27L57 27L57 28L58 28L58 27L59 27L59 26ZM69 26L69 27L68 27L68 28L69 28L69 27L70 27L70 26ZM36 28L36 29L37 29L37 30L38 30L38 31L39 31L39 30L38 30L38 29L37 29L37 28ZM61 28L61 29L62 29L62 28ZM84 28L84 29L85 29L85 28ZM5 29L5 32L8 32L8 29ZM29 29L29 32L32 32L32 29ZM53 29L53 32L56 32L56 29ZM77 29L77 32L80 32L80 29ZM6 30L6 31L7 31L7 30ZM22 30L22 31L21 31L21 32L20 32L20 33L19 33L19 37L24 37L24 36L26 36L26 35L24 35L24 34L23 34L23 35L22 35L22 34L20 34L20 33L22 33L22 32L23 32L23 30ZM30 30L30 31L31 31L31 30ZM34 30L34 31L35 31L35 30ZM42 30L42 31L43 31L43 30ZM54 30L54 31L55 31L55 30ZM57 30L57 31L58 31L58 30ZM78 30L78 31L79 31L79 30ZM45 31L45 32L44 32L44 33L45 33L45 32L46 32L46 31ZM62 31L62 32L63 32L63 31ZM2 32L2 33L3 33L3 34L2 34L2 35L3 35L3 34L4 34L4 35L5 35L5 34L7 34L7 33L3 33L3 32ZM26 32L26 33L25 33L25 34L27 34L27 32ZM36 32L36 34L35 34L35 36L36 36L36 37L37 37L37 38L36 38L36 39L38 39L38 37L37 37L37 36L36 36L36 34L38 34L38 35L39 35L39 34L38 34L38 32ZM40 32L40 33L41 33L41 32ZM58 32L58 33L60 33L60 32ZM73 32L73 33L74 33L74 32ZM10 34L10 37L11 37L11 34ZM28 34L28 35L29 35L29 34ZM61 34L61 35L64 35L64 34ZM6 35L6 36L5 36L5 37L6 37L6 38L7 38L7 37L8 37L8 36L7 36L7 35ZM20 35L20 36L21 36L21 35ZM44 35L44 36L45 36L45 35ZM48 35L48 36L49 36L49 35ZM6 36L6 37L7 37L7 36ZM30 36L30 37L31 37L31 36ZM80 36L80 37L81 37L81 36ZM40 37L40 38L39 38L39 40L38 40L38 41L39 41L39 42L38 42L38 43L39 43L39 42L40 42L40 41L39 41L39 40L41 40L41 39L40 39L40 38L43 38L43 37ZM44 37L44 38L45 38L45 37ZM65 37L65 38L63 38L63 40L64 40L64 39L65 39L65 40L67 40L67 39L65 39L65 38L66 38L66 37ZM10 38L10 39L11 39L11 38ZM83 38L83 39L85 39L85 38ZM33 39L33 40L34 40L34 39ZM42 39L42 41L41 41L41 43L40 43L40 44L41 44L41 43L42 43L42 42L43 42L43 45L41 45L41 47L42 47L42 46L43 46L43 47L44 47L44 46L45 46L45 45L44 45L44 44L46 44L46 45L47 45L47 44L46 44L46 42L43 42L43 41L44 41L44 40L43 40L43 39ZM61 39L61 42L63 42L63 41L62 41L62 39ZM4 40L4 41L5 41L5 40ZM48 40L48 41L47 41L47 43L48 43L48 41L49 41L49 40ZM53 40L53 41L54 41L54 40ZM51 41L51 42L52 42L52 41ZM6 42L6 43L7 43L7 42ZM68 42L68 43L69 43L69 42ZM84 42L84 43L85 43L85 42ZM71 43L71 44L72 44L72 43ZM76 43L76 45L75 45L75 46L76 46L76 45L79 45L79 44L80 44L80 46L79 46L79 47L81 47L81 44L80 44L80 43L79 43L79 44L77 44L77 43ZM8 44L8 45L9 45L9 44ZM20 44L20 45L21 45L21 47L19 47L19 48L17 48L17 49L19 49L19 48L20 48L20 49L21 49L21 50L22 50L22 49L23 49L23 48L24 48L24 45L23 45L23 48L22 48L22 45L21 45L21 44ZM57 45L57 46L58 46L58 45ZM6 46L6 47L7 47L7 48L6 48L6 49L7 49L7 48L8 48L8 47L7 47L7 46ZM25 46L25 49L26 49L26 46ZM84 46L84 48L85 48L85 46ZM2 48L2 49L3 49L3 48ZM11 48L11 49L12 49L12 48ZM21 48L21 49L22 49L22 48ZM43 48L43 49L42 49L42 50L44 50L44 48ZM32 49L32 50L31 50L31 51L32 51L32 50L33 50L33 49ZM38 50L38 52L42 52L42 54L43 54L43 55L42 55L42 56L43 56L43 55L44 55L44 54L43 54L43 53L44 53L44 52L45 52L45 51L46 51L46 52L47 52L47 51L46 51L46 50L45 50L45 51L44 51L44 52L43 52L43 51L41 51L41 50L40 50L40 51L39 51L39 50ZM66 50L66 51L62 51L62 52L66 52L66 51L68 51L68 50ZM84 50L84 52L82 52L82 53L84 53L84 52L85 52L85 50ZM26 51L26 52L24 52L24 53L19 53L19 54L17 54L17 53L16 53L16 54L17 54L17 55L19 55L19 54L20 54L20 55L21 55L21 56L22 56L22 57L23 57L23 56L24 56L24 55L25 55L25 54L24 54L24 53L26 53L26 54L27 54L27 55L28 55L28 53L27 53L27 51ZM53 51L53 52L54 52L54 51ZM48 52L48 54L50 54L50 53L49 53L49 52ZM5 53L5 56L8 56L8 53ZM29 53L29 56L32 56L32 53ZM40 53L40 54L41 54L41 53ZM53 53L53 56L56 56L56 53ZM58 53L58 54L57 54L57 55L58 55L58 56L59 56L59 55L58 55L58 54L59 54L59 53ZM73 53L73 54L74 54L74 53ZM75 53L75 54L76 54L76 53ZM77 53L77 56L80 56L80 53ZM6 54L6 55L7 55L7 54ZM21 54L21 55L23 55L23 54ZM30 54L30 55L31 55L31 54ZM54 54L54 55L55 55L55 54ZM65 54L65 55L66 55L66 54ZM78 54L78 55L79 55L79 54ZM84 54L84 55L85 55L85 54ZM0 55L0 56L1 56L1 57L0 57L0 58L1 58L1 59L2 59L2 56L1 56L1 55ZM47 55L47 56L48 56L48 55ZM49 55L49 56L50 56L50 55ZM71 55L71 56L72 56L72 55ZM25 56L25 57L27 57L27 56ZM82 56L82 59L83 59L83 56ZM84 56L84 58L85 58L85 56ZM55 57L55 58L57 58L57 57ZM58 57L58 58L59 58L59 57ZM52 58L52 59L53 59L53 58ZM6 59L6 60L7 60L7 59ZM28 59L28 60L29 60L29 59ZM0 60L0 61L1 61L1 60ZM33 60L33 61L34 61L34 60ZM39 60L39 61L38 61L38 62L41 62L41 60ZM47 60L47 61L49 61L49 60ZM61 60L61 61L62 61L62 60ZM84 60L84 61L85 61L85 60ZM14 61L14 62L16 62L16 61ZM36 61L36 62L37 62L37 61ZM57 61L57 62L59 62L59 61ZM78 61L78 63L79 63L79 61ZM19 62L19 63L20 63L20 64L19 64L19 65L18 65L18 64L17 64L17 65L18 65L18 68L17 68L17 69L16 69L16 71L21 71L21 69L20 69L20 68L21 68L21 67L22 67L22 65L24 65L24 64L23 64L23 62L22 62L22 63L20 63L20 62ZM57 63L57 64L56 64L56 65L57 65L57 64L58 64L58 63ZM29 64L29 65L30 65L30 66L31 66L31 65L30 65L30 64ZM47 64L47 65L49 65L49 64ZM67 64L67 66L68 66L68 67L70 67L70 70L71 70L71 71L70 71L70 72L69 72L69 73L70 73L70 72L71 72L71 71L72 71L72 68L74 68L74 69L73 69L73 70L77 70L77 68L76 68L76 67L75 67L75 68L74 68L74 67L72 67L72 68L71 68L71 67L70 67L70 66L69 66L69 65L68 65L68 64ZM19 65L19 68L18 68L18 70L20 70L20 69L19 69L19 68L20 68L20 67L21 67L21 66L20 66L20 65ZM36 65L36 66L37 66L37 65ZM65 65L65 66L66 66L66 65ZM1 66L1 67L2 67L2 66ZM16 66L16 67L17 67L17 66ZM48 67L48 68L49 68L49 67ZM66 67L66 68L67 68L67 70L68 70L68 71L69 71L69 70L68 70L68 68L67 68L67 67ZM43 68L43 69L44 69L44 68ZM75 68L75 69L76 69L76 68ZM23 69L23 70L24 70L24 69ZM82 69L82 70L83 70L83 71L82 71L82 72L83 72L83 71L84 71L84 70L83 70L83 69ZM6 70L6 71L7 71L7 70ZM53 71L53 72L54 72L54 71ZM12 72L12 73L11 73L11 74L12 74L12 73L14 73L14 72ZM26 72L26 73L25 73L25 74L24 74L24 76L26 76L26 74L27 74L27 75L28 75L28 74L27 74L27 73L28 73L28 72ZM57 73L57 74L58 74L58 75L59 75L59 74L58 74L58 73ZM61 73L61 74L62 74L62 73ZM3 74L3 75L4 75L4 74ZM53 74L53 75L52 75L52 76L53 76L53 75L54 75L54 74ZM10 75L10 76L9 76L9 77L10 77L10 79L13 79L13 78L11 78L11 77L13 77L13 75ZM43 75L43 76L44 76L44 77L43 77L43 78L44 78L44 77L45 77L45 78L47 78L47 79L45 79L45 80L44 80L44 83L45 83L45 82L47 82L47 81L48 81L48 80L49 80L49 79L50 79L50 78L51 78L51 81L50 81L50 82L53 82L53 81L52 81L52 78L51 78L51 75L48 75L48 76L47 76L47 75L46 75L46 76L44 76L44 75ZM55 75L55 76L56 76L56 75ZM14 76L14 77L15 77L15 78L17 78L17 77L15 77L15 76ZM37 76L37 77L38 77L38 76ZM48 76L48 78L50 78L50 76ZM24 77L24 79L25 79L25 78L26 78L26 77ZM29 77L29 80L32 80L32 77ZM53 77L53 80L56 80L56 77ZM77 77L77 80L80 80L80 77ZM30 78L30 79L31 79L31 78ZM40 78L40 79L41 79L41 80L43 80L43 79L42 79L42 78ZM54 78L54 79L55 79L55 78ZM57 78L57 79L58 79L58 78ZM59 78L59 79L60 79L60 80L59 80L59 81L58 81L58 82L59 82L59 83L60 83L60 80L61 80L61 79L60 79L60 78ZM75 78L75 79L76 79L76 78ZM78 78L78 79L79 79L79 78ZM14 79L14 81L16 81L16 79ZM47 79L47 80L48 80L48 79ZM62 79L62 80L64 80L64 79ZM71 79L71 80L72 80L72 79ZM81 79L81 80L83 80L83 79ZM10 80L10 82L9 82L9 83L10 83L10 82L11 82L11 81L12 81L12 80ZM45 80L45 81L46 81L46 80ZM29 81L29 82L30 82L30 81ZM61 81L61 82L62 82L62 81ZM77 81L77 82L78 82L78 83L79 83L79 82L80 82L80 81L79 81L79 82L78 82L78 81ZM81 81L81 82L82 82L82 81ZM14 82L14 83L15 83L15 82ZM48 82L48 84L50 84L50 83L49 83L49 82ZM17 83L17 84L18 84L18 83ZM25 83L25 84L26 84L26 83ZM52 83L52 84L54 84L54 83ZM65 83L65 84L66 84L66 83ZM75 83L75 84L76 84L76 83ZM21 84L21 85L22 85L22 84ZM0 0L0 7L7 7L7 0ZM1 1L1 6L6 6L6 1ZM2 2L2 5L5 5L5 2ZM78 0L78 7L85 7L85 0ZM79 1L79 6L84 6L84 1ZM80 2L80 5L83 5L83 2ZM0 78L0 85L7 85L7 78ZM1 79L1 84L6 84L6 79ZM2 80L2 83L5 83L5 80Z" fill="#000000"/></g></g></svg>
