<?xml version="1.0" encoding="UTF-8"?>
<svg xmlns="http://www.w3.org/2000/svg" version="1.1" width="300" height="300" viewBox="0 0 300 300"><rect x="0" y="0" width="300" height="300" fill="#ffffff"/><g transform="scale(12)"><g transform="translate(0,0)"><path fill-rule="evenodd" d="M8 0L8 4L9 4L9 5L8 5L8 7L9 7L9 6L10 6L10 9L11 9L11 8L12 8L12 9L13 9L13 11L12 11L12 12L11 12L11 13L10 13L10 14L9 14L9 12L10 12L10 11L11 11L11 10L9 10L9 11L8 11L8 10L4 10L4 9L7 9L7 8L4 8L4 9L2 9L2 8L0 8L0 14L1 14L1 12L2 12L2 13L7 13L7 14L5 14L5 15L7 15L7 14L9 14L9 15L8 15L8 16L5 16L5 17L8 17L8 18L9 18L9 19L8 19L8 21L9 21L9 19L11 19L11 16L12 16L12 17L14 17L14 18L15 18L15 20L13 20L13 19L12 19L12 20L10 20L10 22L11 22L11 24L12 24L12 22L13 22L13 24L14 24L14 25L15 25L15 24L16 24L16 25L17 25L17 24L18 24L18 25L20 25L20 24L21 24L21 23L19 23L19 24L18 24L18 22L20 22L20 21L21 21L21 19L24 19L24 18L23 18L23 17L24 17L24 16L25 16L25 12L24 12L24 11L25 11L25 8L21 8L21 9L20 9L20 8L19 8L19 9L20 9L20 10L21 10L21 13L20 13L20 11L19 11L19 12L17 12L17 14L14 14L14 15L15 15L15 16L16 16L16 17L14 17L14 16L12 16L12 15L13 15L13 13L16 13L16 11L17 11L17 9L16 9L16 8L17 8L17 0L13 0L13 1L11 1L11 2L12 2L12 5L14 5L14 4L13 4L13 2L14 2L14 3L16 3L16 4L15 4L15 6L14 6L14 7L13 7L13 6L12 6L12 7L11 7L11 3L10 3L10 2L9 2L9 0ZM14 1L14 2L16 2L16 1ZM15 6L15 7L14 7L14 9L15 9L15 10L14 10L14 11L13 11L13 12L12 12L12 13L11 13L11 14L12 14L12 13L13 13L13 12L15 12L15 10L16 10L16 9L15 9L15 7L16 7L16 6ZM12 7L12 8L13 8L13 7ZM21 9L21 10L22 10L22 11L23 11L23 10L24 10L24 9L23 9L23 10L22 10L22 9ZM2 10L2 11L4 11L4 12L5 12L5 11L4 11L4 10ZM6 11L6 12L7 12L7 11ZM22 12L22 14L17 14L17 15L16 15L16 16L18 16L18 15L19 15L19 16L20 16L20 15L22 15L22 16L21 16L21 17L23 17L23 12ZM2 14L2 16L0 16L0 17L4 17L4 14ZM9 15L9 16L11 16L11 15ZM17 17L17 20L20 20L20 17ZM18 18L18 19L19 19L19 18ZM22 20L22 25L23 25L23 24L24 24L24 25L25 25L25 23L24 23L24 22L25 22L25 20L24 20L24 21L23 21L23 20ZM11 21L11 22L12 22L12 21ZM14 21L14 23L15 23L15 22L16 22L16 21ZM17 21L17 22L18 22L18 21ZM8 23L8 25L10 25L10 23ZM0 0L0 7L7 7L7 0ZM1 1L1 6L6 6L6 1ZM2 2L2 5L5 5L5 2ZM18 0L18 7L25 7L25 0ZM19 1L19 6L24 6L24 1ZM20 2L20 5L23 5L23 2ZM0 18L0 25L7 25L7 18ZM1 19L1 24L6 24L6 19ZM2 20L2 23L5 23L5 20Z" fill="#000000"/></g></g></svg>
