<?xml version="1.0" encoding="UTF-8"?>
<svg xmlns="http://www.w3.org/2000/svg" version="1.1" width="300" height="300" viewBox="0 0 300 300"><rect x="0" y="0" width="300" height="300" fill="#ffffff"/><g transform="scale(4.348)"><g transform="translate(0,0)"><path fill-rule="evenodd" d="M10 0L10 1L8 1L8 2L10 2L10 3L11 3L11 2L12 2L12 1L13 1L13 3L12 3L12 4L9 4L9 3L8 3L8 4L9 4L9 5L8 5L8 7L9 7L9 5L11 5L11 6L10 6L10 8L6 8L6 9L5 9L5 8L0 8L0 10L1 10L1 11L3 11L3 12L0 12L0 13L1 13L1 15L2 15L2 16L4 16L4 17L3 17L3 18L2 18L2 17L1 17L1 18L0 18L0 21L2 21L2 20L1 20L1 19L3 19L3 20L6 20L6 21L8 21L8 20L6 20L6 19L7 19L7 18L9 18L9 19L12 19L12 20L13 20L13 18L14 18L14 17L16 17L16 16L17 16L17 19L16 19L16 18L15 18L15 19L14 19L14 20L15 20L15 19L16 19L16 22L15 22L15 21L13 21L13 22L12 22L12 21L11 21L11 20L9 20L9 22L4 22L4 21L3 21L3 22L2 22L2 24L5 24L5 23L8 23L8 24L6 24L6 25L7 25L7 26L6 26L6 27L7 27L7 28L5 28L5 27L4 27L4 26L5 26L5 25L3 25L3 26L2 26L2 25L1 25L1 23L0 23L0 26L1 26L1 27L2 27L2 28L3 28L3 29L1 29L1 28L0 28L0 30L2 30L2 31L1 31L1 33L0 33L0 35L1 35L1 33L3 33L3 31L4 31L4 30L5 30L5 32L4 32L4 34L2 34L2 37L0 37L0 38L2 38L2 39L3 39L3 40L5 40L5 41L8 41L8 42L9 42L9 40L11 40L11 41L12 41L12 42L10 42L10 44L9 44L9 43L7 43L7 42L6 42L6 43L7 43L7 44L5 44L5 42L4 42L4 41L1 41L1 40L0 40L0 43L1 43L1 44L2 44L2 45L0 45L0 46L1 46L1 49L2 49L2 50L1 50L1 52L0 52L0 53L1 53L1 54L2 54L2 55L0 55L0 56L2 56L2 55L3 55L3 57L0 57L0 61L1 61L1 58L2 58L2 59L3 59L3 57L4 57L4 59L7 59L7 60L6 60L6 61L7 61L7 60L10 60L10 61L8 61L8 63L9 63L9 64L8 64L8 69L11 69L11 67L10 67L10 66L9 66L9 64L10 64L10 65L11 65L11 66L12 66L12 67L14 67L14 69L17 69L17 68L16 68L16 67L19 67L19 66L20 66L20 67L21 67L21 68L20 68L20 69L21 69L21 68L22 68L22 67L21 67L21 66L20 66L20 65L21 65L21 64L22 64L22 63L21 63L21 62L17 62L17 64L16 64L16 65L15 65L15 64L13 64L13 65L11 65L11 63L10 63L10 61L11 61L11 60L12 60L12 61L13 61L13 60L12 60L12 59L14 59L14 61L19 61L19 60L20 60L20 61L22 61L22 62L24 62L24 63L23 63L23 65L22 65L22 66L23 66L23 67L26 67L26 66L27 66L27 67L28 67L28 66L27 66L27 65L26 65L26 63L27 63L27 64L28 64L28 65L31 65L31 66L29 66L29 68L27 68L27 69L32 69L32 68L33 68L33 66L34 66L34 68L36 68L36 69L38 69L38 68L36 68L36 67L40 67L40 66L41 66L41 67L42 67L42 69L43 69L43 67L44 67L44 68L45 68L45 69L47 69L47 68L46 68L46 67L47 67L47 66L45 66L45 65L44 65L44 66L43 66L43 65L42 65L42 64L46 64L46 63L47 63L47 64L48 64L48 67L51 67L51 68L53 68L53 69L56 69L56 68L57 68L57 69L58 69L58 68L57 68L57 67L58 67L58 66L57 66L57 65L58 65L58 63L59 63L59 68L60 68L60 69L61 69L61 68L62 68L62 69L64 69L64 68L65 68L65 67L64 67L64 66L65 66L65 64L67 64L67 63L68 63L68 64L69 64L69 63L68 63L68 62L69 62L69 60L68 60L68 62L67 62L67 63L66 63L66 62L65 62L65 60L67 60L67 58L69 58L69 57L68 57L68 54L69 54L69 53L66 53L66 52L68 52L68 51L69 51L69 47L68 47L68 46L69 46L69 45L68 45L68 46L67 46L67 45L66 45L66 46L65 46L65 47L64 47L64 48L63 48L63 47L62 47L62 46L63 46L63 44L64 44L64 45L65 45L65 44L67 44L67 42L69 42L69 41L67 41L67 39L66 39L66 38L67 38L67 37L66 37L66 36L68 36L68 38L69 38L69 36L68 36L68 32L67 32L67 31L68 31L68 30L69 30L69 28L68 28L68 29L66 29L66 30L65 30L65 31L64 31L64 30L62 30L62 27L63 27L63 28L67 28L67 26L69 26L69 25L67 25L67 23L68 23L68 22L66 22L66 20L67 20L67 21L68 21L68 20L67 20L67 19L68 19L68 18L69 18L69 17L68 17L68 14L69 14L69 13L68 13L68 14L67 14L67 13L66 13L66 14L67 14L67 15L63 15L63 14L64 14L64 12L67 12L67 9L68 9L68 10L69 10L69 9L68 9L68 8L67 8L67 9L66 9L66 8L65 8L65 11L64 11L64 12L63 12L63 14L62 14L62 13L59 13L59 10L58 10L58 13L59 13L59 14L57 14L57 13L54 13L54 12L57 12L57 10L56 10L56 11L54 11L54 10L55 10L55 8L57 8L57 6L56 6L56 7L55 7L55 6L54 6L54 5L57 5L57 4L56 4L56 3L59 3L59 2L57 2L57 1L61 1L61 0L56 0L56 1L55 1L55 0L51 0L51 1L53 1L53 2L51 2L51 3L53 3L53 2L54 2L54 3L55 3L55 4L54 4L54 5L53 5L53 4L51 4L51 5L52 5L52 7L51 7L51 6L50 6L50 7L49 7L49 5L50 5L50 4L49 4L49 3L47 3L47 5L45 5L45 4L44 4L44 3L45 3L45 2L47 2L47 1L48 1L48 0L47 0L47 1L46 1L46 0L45 0L45 1L44 1L44 3L43 3L43 4L39 4L39 3L42 3L42 1L43 1L43 0L42 0L42 1L41 1L41 0L39 0L39 1L38 1L38 0L37 0L37 1L31 1L31 2L30 2L30 1L28 1L28 0L22 0L22 1L21 1L21 3L20 3L20 4L21 4L21 3L22 3L22 1L23 1L23 5L22 5L22 8L21 8L21 5L19 5L19 6L18 6L18 4L19 4L19 3L18 3L18 2L19 2L19 1L20 1L20 0L17 0L17 1L15 1L15 0L12 0L12 1L11 1L11 0ZM49 0L49 1L50 1L50 0ZM14 1L14 3L15 3L15 4L16 4L16 6L15 6L15 5L14 5L14 4L13 4L13 5L12 5L12 6L11 6L11 7L12 7L12 6L13 6L13 7L14 7L14 8L13 8L13 11L12 11L12 12L11 12L11 13L15 13L15 12L16 12L16 15L15 15L15 14L14 14L14 16L13 16L13 17L14 17L14 16L16 16L16 15L17 15L17 16L18 16L18 15L17 15L17 12L18 12L18 10L22 10L22 11L19 11L19 12L21 12L21 13L20 13L20 15L19 15L19 17L18 17L18 18L21 18L21 17L23 17L23 14L24 14L24 13L25 13L25 19L24 19L24 20L22 20L22 19L23 19L23 18L22 18L22 19L21 19L21 21L18 21L18 19L17 19L17 22L16 22L16 23L15 23L15 24L16 24L16 27L14 27L14 26L15 26L15 25L14 25L14 26L13 26L13 27L12 27L12 25L10 25L10 26L9 26L9 24L8 24L8 29L11 29L11 30L9 30L9 34L10 34L10 35L9 35L9 36L10 36L10 35L11 35L11 37L10 37L10 38L8 38L8 37L6 37L6 38L8 38L8 39L10 39L10 38L12 38L12 39L11 39L11 40L12 40L12 41L13 41L13 42L12 42L12 43L13 43L13 46L14 46L14 47L12 47L12 48L11 48L11 47L10 47L10 48L11 48L11 49L10 49L10 53L6 53L6 52L7 52L7 51L9 51L9 47L6 47L6 48L4 48L4 50L3 50L3 51L4 51L4 52L5 52L5 53L3 53L3 55L4 55L4 56L5 56L5 55L6 55L6 56L7 56L7 57L6 57L6 58L9 58L9 57L8 57L8 56L7 56L7 55L8 55L8 54L9 54L9 56L10 56L10 57L11 57L11 58L14 58L14 57L15 57L15 54L16 54L16 56L17 56L17 57L16 57L16 58L17 58L17 59L18 59L18 60L19 60L19 59L18 59L18 58L19 58L19 57L18 57L18 56L20 56L20 55L22 55L22 56L21 56L21 57L20 57L20 60L22 60L22 61L25 61L25 63L24 63L24 65L25 65L25 66L26 66L26 65L25 65L25 63L26 63L26 61L27 61L27 63L28 63L28 64L29 64L29 62L31 62L31 61L27 61L27 60L28 60L28 59L29 59L29 58L30 58L30 59L32 59L32 60L33 60L33 59L34 59L34 60L35 60L35 59L36 59L36 58L37 58L37 62L39 62L39 60L40 60L40 63L39 63L39 64L38 64L38 63L37 63L37 64L38 64L38 66L39 66L39 64L40 64L40 65L41 65L41 66L42 66L42 67L43 67L43 66L42 66L42 65L41 65L41 64L42 64L42 63L44 63L44 62L42 62L42 59L43 59L43 61L46 61L46 62L45 62L45 63L46 63L46 62L47 62L47 63L48 63L48 64L49 64L49 63L50 63L50 65L49 65L49 66L51 66L51 67L54 67L54 68L56 68L56 67L57 67L57 66L56 66L56 65L57 65L57 64L56 64L56 63L58 63L58 62L59 62L59 63L60 63L60 62L59 62L59 61L60 61L60 60L62 60L62 59L63 59L63 60L64 60L64 59L65 59L65 58L67 58L67 57L64 57L64 56L62 56L62 55L66 55L66 54L65 54L65 53L63 53L63 52L62 52L62 51L63 51L63 50L64 50L64 52L66 52L66 51L68 51L68 49L67 49L67 48L65 48L65 49L63 49L63 48L61 48L61 46L59 46L59 45L60 45L60 44L61 44L61 43L60 43L60 42L59 42L59 41L61 41L61 42L62 42L62 44L63 44L63 40L64 40L64 39L63 39L63 38L65 38L65 37L63 37L63 38L62 38L62 37L61 37L61 38L62 38L62 39L63 39L63 40L61 40L61 39L60 39L60 38L59 38L59 37L60 37L60 35L59 35L59 33L60 33L60 32L59 32L59 31L60 31L60 30L59 30L59 29L57 29L57 28L55 28L55 26L56 26L56 27L58 27L58 26L59 26L59 24L60 24L60 25L61 25L61 23L62 23L62 22L63 22L63 21L64 21L64 23L65 23L65 20L63 20L63 21L61 21L61 20L62 20L62 19L65 19L65 18L66 18L66 19L67 19L67 18L66 18L66 17L67 17L67 16L64 16L64 17L63 17L63 15L62 15L62 14L59 14L59 17L58 17L58 18L60 18L60 19L61 19L61 20L60 20L60 21L61 21L61 22L60 22L60 23L58 23L58 25L57 25L57 24L54 24L54 25L53 25L53 24L50 24L50 22L51 22L51 23L52 23L52 22L53 22L53 23L54 23L54 22L53 22L53 20L54 20L54 19L55 19L55 18L51 18L51 17L50 17L50 16L52 16L52 17L54 17L54 15L55 15L55 17L57 17L57 16L56 16L56 15L57 15L57 14L54 14L54 13L53 13L53 12L54 12L54 11L53 11L53 12L52 12L52 13L50 13L50 14L49 14L49 13L48 13L48 14L47 14L47 13L45 13L45 12L46 12L46 10L47 10L47 12L51 12L51 11L50 11L50 10L54 10L54 9L53 9L53 8L54 8L54 6L53 6L53 8L51 8L51 7L50 7L50 8L51 8L51 9L50 9L50 10L49 10L49 9L48 9L48 8L49 8L49 7L48 7L48 5L47 5L47 7L46 7L46 6L45 6L45 7L46 7L46 10L45 10L45 8L44 8L44 9L43 9L43 10L42 10L42 9L41 9L41 8L43 8L43 7L44 7L44 6L43 6L43 5L41 5L41 8L39 8L39 9L38 9L38 8L37 8L37 9L34 9L34 11L32 11L32 10L33 10L33 9L32 9L32 5L31 5L31 4L32 4L32 2L31 2L31 4L29 4L29 2L28 2L28 1L24 1L24 4L25 4L25 7L26 7L26 6L27 6L27 7L28 7L28 8L26 8L26 9L27 9L27 10L26 10L26 11L32 11L32 12L31 12L31 13L27 13L27 12L26 12L26 13L25 13L25 12L24 12L24 11L25 11L25 10L22 10L22 9L25 9L25 8L24 8L24 6L23 6L23 8L22 8L22 9L20 9L20 6L19 6L19 7L18 7L18 6L17 6L17 2L18 2L18 1L17 1L17 2L16 2L16 3L15 3L15 1ZM37 1L37 3L36 3L36 4L37 4L37 5L39 5L39 7L40 7L40 5L39 5L39 4L37 4L37 3L39 3L39 2L38 2L38 1ZM40 1L40 2L41 2L41 1ZM54 1L54 2L55 2L55 1ZM26 2L26 3L25 3L25 4L26 4L26 5L27 5L27 6L28 6L28 7L29 7L29 6L30 6L30 7L31 7L31 5L29 5L29 6L28 6L28 5L27 5L27 4L28 4L28 2ZM34 2L34 3L33 3L33 4L34 4L34 3L35 3L35 2ZM26 3L26 4L27 4L27 3ZM60 3L60 5L61 5L61 3ZM58 4L58 8L59 8L59 9L60 9L60 10L62 10L62 11L60 11L60 12L62 12L62 11L63 11L63 10L62 10L62 8L61 8L61 6L60 6L60 7L59 7L59 4ZM33 5L33 8L36 8L36 5ZM14 6L14 7L15 7L15 6ZM16 6L16 7L17 7L17 8L15 8L15 9L14 9L14 10L15 10L15 11L13 11L13 12L15 12L15 11L16 11L16 12L17 12L17 10L18 10L18 9L19 9L19 8L18 8L18 7L17 7L17 6ZM34 6L34 7L35 7L35 6ZM37 6L37 7L38 7L38 6ZM42 6L42 7L43 7L43 6ZM47 7L47 8L48 8L48 7ZM17 8L17 9L18 9L18 8ZM28 8L28 9L29 9L29 8ZM30 8L30 9L31 9L31 10L32 10L32 9L31 9L31 8ZM60 8L60 9L61 9L61 8ZM63 8L63 9L64 9L64 8ZM1 9L1 10L4 10L4 11L6 11L6 12L7 12L7 13L6 13L6 14L7 14L7 13L8 13L8 12L7 12L7 11L8 11L8 9L6 9L6 10L4 10L4 9ZM9 9L9 10L10 10L10 9ZM15 9L15 10L16 10L16 9ZM37 9L37 10L36 10L36 11L35 11L35 12L36 12L36 11L37 11L37 13L38 13L38 11L39 11L39 10L38 10L38 9ZM6 10L6 11L7 11L7 10ZM37 10L37 11L38 11L38 10ZM41 10L41 11L40 11L40 12L39 12L39 14L36 14L36 15L37 15L37 16L36 16L36 17L35 17L35 18L36 18L36 19L35 19L35 20L34 20L34 19L33 19L33 18L31 18L31 16L32 16L32 15L31 15L31 14L32 14L32 13L33 13L33 15L34 15L34 12L32 12L32 13L31 13L31 14L30 14L30 16L28 16L28 17L30 17L30 19L29 19L29 18L28 18L28 19L27 19L27 21L26 21L26 19L25 19L25 21L22 21L22 22L20 22L20 23L19 23L19 22L18 22L18 23L17 23L17 24L18 24L18 25L17 25L17 26L18 26L18 27L19 27L19 28L15 28L15 29L19 29L19 30L20 30L20 29L21 29L21 28L22 28L22 27L21 27L21 28L20 28L20 25L21 25L21 26L23 26L23 28L24 28L24 26L27 26L27 27L28 27L28 29L29 29L29 27L30 27L30 26L31 26L31 25L33 25L33 24L34 24L34 26L32 26L32 27L31 27L31 28L30 28L30 29L31 29L31 30L32 30L32 31L34 31L34 30L33 30L33 29L35 29L35 32L32 32L32 33L31 33L31 31L29 31L29 30L28 30L28 31L29 31L29 32L28 32L28 33L29 33L29 35L30 35L30 33L31 33L31 34L32 34L32 35L31 35L31 36L28 36L28 37L31 37L31 38L30 38L30 39L29 39L29 41L31 41L31 42L30 42L30 44L28 44L28 42L27 42L27 41L28 41L28 39L27 39L27 37L26 37L26 40L27 40L27 41L26 41L26 42L27 42L27 43L25 43L25 41L23 41L23 42L24 42L24 43L22 43L22 42L20 42L20 41L21 41L21 40L22 40L22 38L24 38L24 40L25 40L25 35L26 35L26 34L25 34L25 33L26 33L26 32L25 32L25 33L21 33L21 31L23 31L23 32L24 32L24 31L23 31L23 30L27 30L27 29L26 29L26 27L25 27L25 29L22 29L22 30L21 30L21 31L17 31L17 30L14 30L14 28L12 28L12 30L14 30L14 31L12 31L12 32L13 32L13 33L14 33L14 34L13 34L13 35L15 35L15 36L12 36L12 37L13 37L13 39L12 39L12 40L13 40L13 39L15 39L15 40L14 40L14 42L13 42L13 43L14 43L14 46L15 46L15 44L16 44L16 45L19 45L19 46L18 46L18 48L17 48L17 47L15 47L15 48L16 48L16 49L15 49L15 51L14 51L14 49L13 49L13 48L12 48L12 50L11 50L11 51L12 51L12 50L13 50L13 51L14 51L14 52L11 52L11 53L12 53L12 54L11 54L11 57L13 57L13 56L14 56L14 55L13 55L13 53L15 53L15 52L17 52L17 53L19 53L19 54L18 54L18 55L20 55L20 53L21 53L21 52L20 52L20 49L21 49L21 48L20 48L20 49L19 49L19 46L20 46L20 45L19 45L19 42L20 42L20 43L21 43L21 44L25 44L25 45L21 45L21 47L22 47L22 48L23 48L23 47L25 47L25 49L22 49L22 50L21 50L21 51L22 51L22 50L24 50L24 51L23 51L23 52L25 52L25 53L24 53L24 54L23 54L23 53L22 53L22 54L23 54L23 56L25 56L25 57L22 57L22 60L24 60L24 59L23 59L23 58L25 58L25 61L26 61L26 60L27 60L27 58L28 58L28 57L31 57L31 58L34 58L34 57L33 57L33 56L34 56L34 54L35 54L35 55L36 55L36 56L35 56L35 57L37 57L37 55L39 55L39 56L38 56L38 57L40 57L40 58L38 58L38 59L40 59L40 60L41 60L41 59L42 59L42 58L43 58L43 59L44 59L44 60L46 60L46 59L47 59L47 61L48 61L48 63L49 63L49 61L51 61L51 60L53 60L53 62L55 62L55 63L56 63L56 62L55 62L55 61L56 61L56 60L58 60L58 61L59 61L59 60L60 60L60 59L62 59L62 58L61 58L61 57L60 57L60 58L58 58L58 59L56 59L56 60L55 60L55 59L54 59L54 58L57 58L57 57L55 57L55 55L56 55L56 56L57 56L57 55L59 55L59 56L60 56L60 55L62 55L62 52L61 52L61 54L60 54L60 55L59 55L59 54L57 54L57 55L56 55L56 54L55 54L55 53L56 53L56 52L58 52L58 51L57 51L57 50L56 50L56 48L57 48L57 46L56 46L56 44L57 44L57 43L59 43L59 44L60 44L60 43L59 43L59 42L56 42L56 41L55 41L55 40L57 40L57 41L59 41L59 40L60 40L60 39L59 39L59 40L58 40L58 38L57 38L57 37L58 37L58 34L57 34L57 35L56 35L56 32L57 32L57 33L58 33L58 31L59 31L59 30L58 30L58 31L57 31L57 29L56 29L56 30L55 30L55 29L54 29L54 30L55 30L55 33L52 33L52 32L54 32L54 31L52 31L52 32L50 32L50 31L51 31L51 30L52 30L52 29L51 29L51 28L53 28L53 27L54 27L54 26L55 26L55 25L54 25L54 26L53 26L53 27L51 27L51 26L50 26L50 25L49 25L49 23L48 23L48 22L50 22L50 20L51 20L51 22L52 22L52 20L53 20L53 19L49 19L49 18L50 18L50 17L49 17L49 16L48 16L48 15L49 15L49 14L48 14L48 15L47 15L47 14L45 14L45 15L44 15L44 12L45 12L45 11L44 11L44 10L43 10L43 11L44 11L44 12L43 12L43 13L41 13L41 14L40 14L40 12L42 12L42 10ZM48 10L48 11L49 11L49 10ZM22 11L22 12L23 12L23 11ZM2 13L2 14L3 14L3 15L4 15L4 16L5 16L5 18L7 18L7 17L6 17L6 16L7 16L7 15L6 15L6 16L5 16L5 13ZM22 13L22 14L21 14L21 15L20 15L20 17L21 17L21 16L22 16L22 14L23 14L23 13ZM26 13L26 16L27 16L27 13ZM8 14L8 15L10 15L10 16L9 16L9 18L11 18L11 17L12 17L12 16L11 16L11 14ZM41 14L41 15L38 15L38 18L37 18L37 17L36 17L36 18L37 18L37 21L34 21L34 20L33 20L33 19L31 19L31 20L32 20L32 21L28 21L28 23L27 23L27 22L26 22L26 23L25 23L25 22L24 22L24 23L23 23L23 24L22 24L22 23L21 23L21 24L22 24L22 25L23 25L23 24L24 24L24 25L27 25L27 26L28 26L28 27L29 27L29 26L30 26L30 25L27 25L27 24L30 24L30 22L33 22L33 23L32 23L32 24L33 24L33 23L34 23L34 24L35 24L35 25L36 25L36 26L35 26L35 27L32 27L32 28L35 28L35 29L36 29L36 30L37 30L37 32L39 32L39 31L41 31L41 30L42 30L42 31L45 31L45 30L47 30L47 28L49 28L49 26L48 26L48 25L45 25L45 24L48 24L48 23L46 23L46 22L47 22L47 20L49 20L49 19L48 19L48 18L49 18L49 17L48 17L48 16L47 16L47 15L46 15L46 17L45 17L45 16L43 16L43 18L42 18L42 17L41 17L41 15L43 15L43 14ZM50 14L50 15L52 15L52 16L53 16L53 15L54 15L54 14L53 14L53 15L52 15L52 14ZM60 15L60 16L61 16L61 15ZM10 16L10 17L11 17L11 16ZM33 16L33 17L34 17L34 16ZM26 17L26 18L27 18L27 17ZM39 17L39 18L38 18L38 20L42 20L42 21L40 21L40 23L39 23L39 22L34 22L34 23L35 23L35 24L36 24L36 25L37 25L37 26L36 26L36 28L37 28L37 26L38 26L38 29L39 29L39 30L38 30L38 31L39 31L39 30L40 30L40 28L41 28L41 29L42 29L42 30L45 30L45 29L44 29L44 28L47 28L47 27L46 27L46 26L44 26L44 24L45 24L45 22L44 22L44 23L43 23L43 25L42 25L42 26L44 26L44 28L43 28L43 27L40 27L40 26L41 26L41 25L40 25L40 26L38 26L38 25L37 25L37 24L38 24L38 23L39 23L39 24L41 24L41 22L43 22L43 21L44 21L44 20L47 20L47 19L44 19L44 18L43 18L43 19L42 19L42 18L41 18L41 19L40 19L40 17ZM47 17L47 18L48 18L48 17ZM60 17L60 18L62 18L62 17ZM64 17L64 18L65 18L65 17ZM3 18L3 19L4 19L4 18ZM56 18L56 19L57 19L57 18ZM19 19L19 20L20 20L20 19ZM28 19L28 20L29 20L29 19ZM43 19L43 20L44 20L44 19ZM58 19L58 22L59 22L59 19ZM56 20L56 23L57 23L57 20ZM10 22L10 23L11 23L11 24L13 24L13 23L11 23L11 22ZM24 23L24 24L25 24L25 23ZM62 24L62 26L61 26L61 27L62 27L62 26L63 26L63 25L66 25L66 26L67 26L67 25L66 25L66 24ZM18 25L18 26L19 26L19 25ZM56 25L56 26L57 26L57 25ZM10 26L10 27L9 27L9 28L11 28L11 26ZM64 26L64 27L65 27L65 26ZM39 27L39 28L40 28L40 27ZM19 28L19 29L20 29L20 28ZM60 28L60 29L61 29L61 28ZM6 29L6 30L7 30L7 29ZM50 29L50 30L49 30L49 31L48 31L48 32L47 32L47 31L46 31L46 32L43 32L43 34L42 34L42 32L40 32L40 33L38 33L38 34L37 34L37 35L38 35L38 36L39 36L39 37L37 37L37 38L36 38L36 39L35 39L35 40L34 40L34 41L36 41L36 39L37 39L37 38L39 38L39 37L40 37L40 38L41 38L41 36L39 36L39 35L38 35L38 34L40 34L40 33L41 33L41 34L42 34L42 35L43 35L43 36L44 36L44 37L43 37L43 38L42 38L42 39L38 39L38 42L39 42L39 41L40 41L40 43L37 43L37 42L33 42L33 44L32 44L32 42L31 42L31 45L33 45L33 46L31 46L31 49L27 49L27 48L28 48L28 47L26 47L26 49L25 49L25 52L26 52L26 53L25 53L25 56L26 56L26 57L25 57L25 58L26 58L26 57L27 57L27 54L29 54L29 53L27 53L27 50L31 50L31 51L30 51L30 52L31 52L31 53L30 53L30 54L31 54L31 57L32 57L32 54L33 54L33 53L37 53L37 54L36 54L36 55L37 55L37 54L39 54L39 53L40 53L40 55L41 55L41 56L40 56L40 57L41 57L41 58L42 58L42 57L41 57L41 56L42 56L42 55L46 55L46 54L48 54L48 56L44 56L44 57L43 57L43 58L44 58L44 57L46 57L46 58L47 58L47 59L49 59L49 60L50 60L50 58L51 58L51 57L52 57L52 59L53 59L53 60L54 60L54 61L55 61L55 60L54 60L54 59L53 59L53 58L54 58L54 56L53 56L53 55L55 55L55 54L53 54L53 52L51 52L51 51L53 51L53 50L54 50L54 51L56 51L56 50L54 50L54 49L55 49L55 48L56 48L56 46L55 46L55 48L54 48L54 49L53 49L53 48L52 48L52 46L51 46L51 45L54 45L54 43L55 43L55 44L56 44L56 43L55 43L55 42L54 42L54 41L53 41L53 40L51 40L51 39L50 39L50 40L49 40L49 39L48 39L48 37L45 37L45 36L48 36L48 34L47 34L47 33L48 33L48 32L49 32L49 33L50 33L50 34L49 34L49 35L50 35L50 38L53 38L53 39L57 39L57 38L56 38L56 37L57 37L57 36L56 36L56 35L55 35L55 34L52 34L52 33L50 33L50 32L49 32L49 31L50 31L50 30L51 30L51 29ZM61 30L61 31L62 31L62 30ZM6 31L6 32L8 32L8 31ZM14 31L14 32L15 32L15 33L16 33L16 34L15 34L15 35L16 35L16 36L15 36L15 38L16 38L16 40L15 40L15 41L16 41L16 44L17 44L17 41L18 41L18 42L19 42L19 41L20 41L20 40L19 40L19 39L18 39L18 40L17 40L17 38L19 38L19 37L20 37L20 38L21 38L21 37L24 37L24 36L23 36L23 34L21 34L21 33L20 33L20 32L19 32L19 33L18 33L18 34L17 34L17 33L16 33L16 32L17 32L17 31ZM65 32L65 33L67 33L67 32ZM5 33L5 36L8 36L8 33ZM10 33L10 34L12 34L12 33ZM19 33L19 34L18 34L18 36L16 36L16 37L19 37L19 35L21 35L21 36L20 36L20 37L21 37L21 36L22 36L22 35L21 35L21 34L20 34L20 33ZM33 33L33 36L36 36L36 33ZM61 33L61 36L64 36L64 33ZM6 34L6 35L7 35L7 34ZM16 34L16 35L17 35L17 34ZM34 34L34 35L35 35L35 34ZM44 34L44 36L45 36L45 34ZM46 34L46 35L47 35L47 34ZM51 34L51 36L53 36L53 35L52 35L52 34ZM62 34L62 35L63 35L63 34ZM65 34L65 35L66 35L66 34ZM54 35L54 37L53 37L53 38L55 38L55 37L56 37L56 36L55 36L55 35ZM2 37L2 38L3 38L3 37ZM4 37L4 39L5 39L5 37ZM32 37L32 38L31 38L31 40L33 40L33 39L32 39L32 38L34 38L34 37ZM45 38L45 39L44 39L44 40L43 40L43 39L42 39L42 42L41 42L41 43L40 43L40 44L39 44L39 45L40 45L40 44L41 44L41 43L42 43L42 42L43 42L43 45L42 45L42 46L43 46L43 45L44 45L44 42L43 42L43 41L44 41L44 40L46 40L46 39L47 39L47 40L48 40L48 43L49 43L49 44L47 44L47 42L46 42L46 41L45 41L45 42L46 42L46 44L45 44L45 45L46 45L46 44L47 44L47 45L50 45L50 44L51 44L51 42L49 42L49 40L48 40L48 39L47 39L47 38ZM6 39L6 40L7 40L7 39ZM68 39L68 40L69 40L69 39ZM16 40L16 41L17 41L17 40ZM18 40L18 41L19 41L19 40ZM65 40L65 41L64 41L64 42L66 42L66 40ZM52 41L52 42L53 42L53 43L52 43L52 44L53 44L53 43L54 43L54 42L53 42L53 41ZM1 42L1 43L2 43L2 44L3 44L3 43L4 43L4 42ZM35 43L35 44L37 44L37 43ZM11 44L11 45L5 45L5 46L11 46L11 45L12 45L12 44ZM26 44L26 45L25 45L25 46L26 46L26 45L27 45L27 46L30 46L30 45L27 45L27 44ZM33 44L33 45L34 45L34 46L33 46L33 47L34 47L34 46L35 46L35 47L36 47L36 48L35 48L35 49L33 49L33 48L32 48L32 49L31 49L31 50L32 50L32 53L31 53L31 54L32 54L32 53L33 53L33 52L37 52L37 53L39 53L39 52L41 52L41 51L42 51L42 52L43 52L43 53L42 53L42 54L43 54L43 53L44 53L44 51L42 51L42 50L45 50L45 51L47 51L47 50L45 50L45 49L43 49L43 48L45 48L45 47L47 47L47 48L48 48L48 49L49 49L49 50L48 50L48 51L49 51L49 50L50 50L50 48L48 48L48 47L51 47L51 46L48 46L48 47L47 47L47 46L45 46L45 47L43 47L43 48L42 48L42 50L41 50L41 49L40 49L40 48L41 48L41 46L37 46L37 47L36 47L36 45L34 45L34 44ZM3 45L3 47L4 47L4 45ZM22 46L22 47L23 47L23 46ZM58 46L58 47L59 47L59 48L58 48L58 49L59 49L59 50L60 50L60 51L59 51L59 52L60 52L60 51L62 51L62 50L63 50L63 49L59 49L59 48L60 48L60 47L59 47L59 46ZM66 46L66 47L67 47L67 46ZM29 47L29 48L30 48L30 47ZM38 47L38 50L34 50L34 51L38 51L38 52L39 52L39 51L38 51L38 50L40 50L40 51L41 51L41 50L40 50L40 49L39 49L39 48L40 48L40 47ZM2 48L2 49L3 49L3 48ZM6 48L6 49L5 49L5 50L6 50L6 51L7 51L7 50L8 50L8 49L7 49L7 48ZM51 48L51 49L52 49L52 48ZM6 49L6 50L7 50L7 49ZM16 49L16 51L17 51L17 50L18 50L18 52L19 52L19 53L20 53L20 52L19 52L19 49ZM26 49L26 50L27 50L27 49ZM32 49L32 50L33 50L33 49ZM66 49L66 50L65 50L65 51L66 51L66 50L67 50L67 49ZM28 51L28 52L29 52L29 51ZM48 52L48 54L50 54L50 57L51 57L51 55L52 55L52 54L50 54L50 53L51 53L51 52ZM54 52L54 53L55 53L55 52ZM5 53L5 54L4 54L4 55L5 55L5 54L6 54L6 55L7 55L7 54L6 54L6 53ZM28 55L28 56L30 56L30 55ZM48 56L48 58L49 58L49 56ZM17 57L17 58L18 58L18 57ZM63 57L63 59L64 59L64 57ZM10 59L10 60L11 60L11 59ZM58 59L58 60L59 60L59 59ZM3 60L3 61L5 61L5 60ZM33 61L33 64L36 64L36 61ZM61 61L61 64L64 64L64 61ZM12 62L12 63L13 63L13 62ZM14 62L14 63L15 63L15 62ZM34 62L34 63L35 63L35 62ZM41 62L41 63L40 63L40 64L41 64L41 63L42 63L42 62ZM50 62L50 63L52 63L52 64L51 64L51 65L52 65L52 64L53 64L53 65L54 65L54 66L55 66L55 67L56 67L56 66L55 66L55 65L56 65L56 64L55 64L55 65L54 65L54 64L53 64L53 63L52 63L52 62ZM62 62L62 63L63 63L63 62ZM19 63L19 64L20 64L20 63ZM17 64L17 65L16 65L16 66L15 66L15 67L16 67L16 66L17 66L17 65L18 65L18 66L19 66L19 65L18 65L18 64ZM31 64L31 65L32 65L32 64ZM34 65L34 66L35 66L35 67L36 67L36 65ZM60 65L60 66L61 66L61 67L62 67L62 68L63 68L63 67L62 67L62 66L63 66L63 65L62 65L62 66L61 66L61 65ZM9 67L9 68L10 68L10 67ZM31 67L31 68L32 68L32 67ZM66 67L66 68L67 68L67 69L68 69L68 68L67 68L67 67ZM12 68L12 69L13 69L13 68ZM18 68L18 69L19 69L19 68ZM25 68L25 69L26 69L26 68ZM48 68L48 69L50 69L50 68ZM0 0L0 7L7 7L7 0ZM1 1L1 6L6 6L6 1ZM2 2L2 5L5 5L5 2ZM62 0L62 7L69 7L69 0ZM63 1L63 6L68 6L68 1ZM64 2L64 5L67 5L67 2ZM0 62L0 69L7 69L7 62ZM1 63L1 68L6 68L6 63ZM2 64L2 67L5 67L5 64Z" fill="#000000"/></g></g></svg>
