<?xml version="1.0" encoding="UTF-8"?>
<svg xmlns="http://www.w3.org/2000/svg" version="1.1" width="300" height="300" viewBox="0 0 300 300"><rect x="0" y="0" width="300" height="300" fill="#ffffff"/><g transform="scale(3.529)"><g transform="translate(0,0)"><path fill-rule="evenodd" d="M9 0L9 1L8 1L8 2L9 2L9 3L8 3L8 4L11 4L11 3L10 3L10 1L11 1L11 0ZM14 0L14 1L15 1L15 0ZM17 0L17 1L16 1L16 3L17 3L17 4L16 4L16 5L15 5L15 2L13 2L13 3L14 3L14 7L13 7L13 5L11 5L11 6L10 6L10 7L11 7L11 10L10 10L10 8L6 8L6 9L5 9L5 8L0 8L0 11L1 11L1 12L0 12L0 13L1 13L1 14L0 14L0 15L1 15L1 14L2 14L2 13L1 13L1 12L2 12L2 11L3 11L3 12L4 12L4 13L3 13L3 15L2 15L2 16L1 16L1 18L0 18L0 21L1 21L1 22L0 22L0 24L1 24L1 22L3 22L3 23L5 23L5 24L2 24L2 26L1 26L1 25L0 25L0 26L1 26L1 27L2 27L2 26L3 26L3 27L5 27L5 26L6 26L6 27L7 27L7 28L2 28L2 29L1 29L1 30L2 30L2 31L0 31L0 34L1 34L1 35L2 35L2 36L1 36L1 37L0 37L0 46L1 46L1 45L2 45L2 46L3 46L3 47L0 47L0 48L2 48L2 49L3 49L3 51L2 51L2 53L4 53L4 54L3 54L3 55L2 55L2 54L1 54L1 50L0 50L0 55L2 55L2 56L3 56L3 55L4 55L4 57L8 57L8 58L9 58L9 57L10 57L10 58L11 58L11 59L14 59L14 60L12 60L12 61L13 61L13 62L10 62L10 61L11 61L11 60L9 60L9 63L8 63L8 64L6 64L6 65L5 65L5 64L4 64L4 63L5 63L5 60L6 60L6 61L7 61L7 62L6 62L6 63L7 63L7 62L8 62L8 61L7 61L7 60L8 60L8 59L7 59L7 58L6 58L6 59L4 59L4 60L3 60L3 58L2 58L2 57L0 57L0 59L1 59L1 58L2 58L2 60L3 60L3 61L2 61L2 62L4 62L4 63L0 63L0 66L1 66L1 65L2 65L2 66L4 66L4 67L5 67L5 66L6 66L6 67L7 67L7 66L6 66L6 65L9 65L9 66L10 66L10 67L8 67L8 68L6 68L6 69L5 69L5 70L2 70L2 71L1 71L1 70L0 70L0 71L1 71L1 72L0 72L0 75L1 75L1 76L0 76L0 77L1 77L1 76L2 76L2 75L3 75L3 76L4 76L4 75L5 75L5 76L6 76L6 77L8 77L8 79L9 79L9 80L8 80L8 85L12 85L12 84L13 84L13 85L16 85L16 84L13 84L13 82L14 82L14 83L15 83L15 82L14 82L14 81L15 81L15 80L14 80L14 73L15 73L15 72L16 72L16 73L17 73L17 72L16 72L16 71L15 71L15 70L14 70L14 69L16 69L16 67L14 67L14 69L13 69L13 66L16 66L16 65L15 65L15 63L16 63L16 64L17 64L17 63L18 63L18 64L19 64L19 65L20 65L20 68L19 68L19 66L18 66L18 65L17 65L17 67L18 67L18 68L17 68L17 70L19 70L19 69L20 69L20 70L21 70L21 71L20 71L20 72L19 72L19 73L18 73L18 74L15 74L15 76L16 76L16 77L15 77L15 79L17 79L17 76L18 76L18 78L19 78L19 79L18 79L18 80L20 80L20 81L18 81L18 82L17 82L17 80L16 80L16 82L17 82L17 84L19 84L19 85L22 85L22 82L23 82L23 85L24 85L24 84L25 84L25 83L26 83L26 82L27 82L27 83L28 83L28 82L29 82L29 85L30 85L30 84L31 84L31 83L32 83L32 84L33 84L33 83L35 83L35 84L36 84L36 85L37 85L37 84L36 84L36 82L37 82L37 83L39 83L39 84L38 84L38 85L39 85L39 84L41 84L41 85L42 85L42 84L43 84L43 83L42 83L42 84L41 84L41 82L45 82L45 83L44 83L44 84L45 84L45 85L50 85L50 83L51 83L51 85L55 85L55 84L60 84L60 83L59 83L59 82L60 82L60 81L62 81L62 80L61 80L61 79L63 79L63 81L64 81L64 80L65 80L65 79L64 79L64 78L65 78L65 76L62 76L62 74L61 74L61 72L62 72L62 73L63 73L63 75L66 75L66 78L68 78L68 77L69 77L69 78L70 78L70 79L71 79L71 80L70 80L70 81L69 81L69 79L66 79L66 81L67 81L67 80L68 80L68 81L69 81L69 82L68 82L68 83L66 83L66 82L65 82L65 84L68 84L68 85L71 85L71 84L73 84L73 83L75 83L75 84L74 84L74 85L76 85L76 84L77 84L77 85L78 85L78 84L77 84L77 83L75 83L75 82L76 82L76 81L77 81L77 82L78 82L78 83L80 83L80 84L79 84L79 85L80 85L80 84L81 84L81 85L85 85L85 81L84 81L84 80L85 80L85 78L84 78L84 80L81 80L81 79L83 79L83 78L82 78L82 77L83 77L83 76L81 76L81 75L85 75L85 72L84 72L84 73L83 73L83 72L82 72L82 71L81 71L81 72L80 72L80 73L79 73L79 72L77 72L77 73L79 73L79 74L78 74L78 75L80 75L80 76L75 76L75 77L74 77L74 78L72 78L72 79L71 79L71 77L70 77L70 75L71 75L71 76L72 76L72 75L71 75L71 74L70 74L70 73L69 73L69 72L70 72L70 71L73 71L73 72L72 72L72 74L73 74L73 75L74 75L74 74L73 74L73 73L76 73L76 72L74 72L74 71L76 71L76 70L77 70L77 71L78 71L78 70L77 70L77 67L78 67L78 69L82 69L82 70L83 70L83 68L80 68L80 65L81 65L81 66L82 66L82 65L83 65L83 66L84 66L84 67L85 67L85 66L84 66L84 65L85 65L85 62L84 62L84 63L83 63L83 64L82 64L82 65L81 65L81 64L78 64L78 65L79 65L79 67L78 67L78 66L75 66L75 64L74 64L74 63L76 63L76 62L77 62L77 63L80 63L80 61L81 61L81 62L83 62L83 60L80 60L80 61L79 61L79 60L75 60L75 59L76 59L76 58L78 58L78 59L82 59L82 58L80 58L80 57L81 57L81 55L82 55L82 54L81 54L81 53L83 53L83 52L81 52L81 51L80 51L80 48L81 48L81 49L82 49L82 50L83 50L83 51L85 51L85 50L83 50L83 49L84 49L84 48L85 48L85 46L84 46L84 48L82 48L82 46L79 46L79 47L78 47L78 48L79 48L79 51L77 51L77 49L76 49L76 47L77 47L77 46L76 46L76 45L77 45L77 44L79 44L79 42L76 42L76 40L75 40L75 42L73 42L73 40L72 40L72 38L73 38L73 39L76 39L76 38L75 38L75 37L74 37L74 38L73 38L73 36L75 36L75 34L76 34L76 35L78 35L78 36L77 36L77 39L78 39L78 40L79 40L79 38L78 38L78 36L79 36L79 34L81 34L81 35L80 35L80 36L81 36L81 35L85 35L85 34L84 34L84 33L85 33L85 32L84 32L84 31L85 31L85 30L82 30L82 29L85 29L85 26L83 26L83 28L80 28L80 27L81 27L81 26L80 26L80 25L79 25L79 26L78 26L78 27L79 27L79 28L76 28L76 27L75 27L75 26L77 26L77 24L78 24L78 23L79 23L79 22L78 22L78 23L77 23L77 24L76 24L76 23L75 23L75 22L76 22L76 21L77 21L77 20L78 20L78 21L79 21L79 20L78 20L78 19L79 19L79 18L78 18L78 19L76 19L76 17L77 17L77 16L76 16L76 17L74 17L74 18L73 18L73 19L71 19L71 18L70 18L70 17L71 17L71 16L72 16L72 15L68 15L68 17L69 17L69 18L70 18L70 19L67 19L67 13L66 13L66 12L68 12L68 11L69 11L69 13L68 13L68 14L73 14L73 16L74 16L74 15L75 15L75 14L76 14L76 15L81 15L81 14L82 14L82 15L85 15L85 14L84 14L84 13L83 13L83 12L84 12L84 11L85 11L85 10L84 10L84 11L83 11L83 9L84 9L84 8L83 8L83 9L82 9L82 8L81 8L81 9L82 9L82 11L83 11L83 12L81 12L81 13L80 13L80 12L79 12L79 14L78 14L78 13L77 13L77 12L78 12L78 11L81 11L81 10L77 10L77 9L78 9L78 8L77 8L77 6L76 6L76 5L75 5L75 4L76 4L76 3L75 3L75 2L76 2L76 1L77 1L77 0L76 0L76 1L75 1L75 0L73 0L73 1L72 1L72 0L71 0L71 1L70 1L70 0L68 0L68 2L66 2L66 1L67 1L67 0L66 0L66 1L60 1L60 0L57 0L57 1L58 1L58 2L56 2L56 1L55 1L55 0L53 0L53 1L54 1L54 2L52 2L52 3L51 3L51 5L50 5L50 4L49 4L49 3L50 3L50 2L51 2L51 1L48 1L48 2L49 2L49 3L47 3L47 2L46 2L46 1L45 1L45 0L44 0L44 2L41 2L41 1L40 1L40 0L39 0L39 1L38 1L38 3L36 3L36 2L37 2L37 1L36 1L36 0L35 0L35 1L34 1L34 2L35 2L35 5L33 5L33 4L34 4L34 3L32 3L32 4L31 4L31 3L30 3L30 2L31 2L31 1L32 1L32 2L33 2L33 1L32 1L32 0L24 0L24 1L23 1L23 0L22 0L22 1L21 1L21 2L22 2L22 1L23 1L23 3L20 3L20 1L19 1L19 2L18 2L18 0ZM42 0L42 1L43 1L43 0ZM24 1L24 4L21 4L21 5L20 5L20 6L19 6L19 7L18 7L18 5L19 5L19 3L18 3L18 2L17 2L17 3L18 3L18 4L17 4L17 5L16 5L16 6L15 6L15 7L16 7L16 6L17 6L17 7L18 7L18 8L15 8L15 9L14 9L14 8L12 8L12 9L13 9L13 11L10 11L10 13L9 13L9 14L8 14L8 12L7 12L7 11L6 11L6 10L9 10L9 9L6 9L6 10L5 10L5 9L2 9L2 10L1 10L1 11L2 11L2 10L3 10L3 11L4 11L4 12L5 12L5 14L4 14L4 16L2 16L2 17L3 17L3 18L1 18L1 19L3 19L3 18L4 18L4 16L5 16L5 17L6 17L6 18L5 18L5 19L4 19L4 20L1 20L1 21L4 21L4 20L5 20L5 22L7 22L7 23L6 23L6 24L7 24L7 25L6 25L6 26L7 26L7 25L8 25L8 27L9 27L9 25L8 25L8 24L9 24L9 23L10 23L10 24L11 24L11 21L12 21L12 26L13 26L13 27L14 27L14 28L13 28L13 29L12 29L12 27L10 27L10 28L11 28L11 30L10 30L10 33L13 33L13 34L15 34L15 33L16 33L16 32L15 32L15 33L14 33L14 32L13 32L13 31L14 31L14 28L15 28L15 31L16 31L16 29L17 29L17 32L18 32L18 31L20 31L20 32L19 32L19 33L20 33L20 34L21 34L21 35L20 35L20 36L22 36L22 37L21 37L21 40L20 40L20 41L19 41L19 38L20 38L20 37L19 37L19 34L18 34L18 37L19 37L19 38L18 38L18 39L17 39L17 40L16 40L16 37L17 37L17 36L16 36L16 35L14 35L14 36L15 36L15 37L12 37L12 40L13 40L13 39L15 39L15 40L16 40L16 44L15 44L15 45L16 45L16 48L17 48L17 46L18 46L18 47L19 47L19 48L18 48L18 49L19 49L19 51L18 51L18 50L17 50L17 49L15 49L15 48L14 48L14 49L15 49L15 50L16 50L16 52L17 52L17 53L14 53L14 55L15 55L15 54L16 54L16 56L17 56L17 57L16 57L16 58L14 58L14 59L15 59L15 60L14 60L14 62L15 62L15 60L17 60L17 62L16 62L16 63L17 63L17 62L18 62L18 63L20 63L20 65L21 65L21 61L18 61L18 59L19 59L19 60L22 60L22 61L23 61L23 62L24 62L24 63L25 63L25 65L22 65L22 66L24 66L24 68L25 68L25 69L23 69L23 67L21 67L21 68L20 68L20 69L21 69L21 70L22 70L22 72L23 72L23 73L19 73L19 74L20 74L20 75L18 75L18 76L20 76L20 77L19 77L19 78L20 78L20 77L21 77L21 78L23 78L23 80L22 80L22 81L20 81L20 82L22 82L22 81L23 81L23 82L24 82L24 83L25 83L25 81L28 81L28 77L27 77L27 76L28 76L28 75L29 75L29 74L31 74L31 75L30 75L30 76L31 76L31 75L32 75L32 76L34 76L34 75L32 75L32 74L31 74L31 73L32 73L32 72L33 72L33 71L32 71L32 70L35 70L35 71L36 71L36 72L37 72L37 73L38 73L38 74L37 74L37 75L35 75L35 77L34 77L34 78L35 78L35 79L34 79L34 80L35 80L35 81L32 81L32 83L33 83L33 82L36 82L36 80L37 80L37 82L39 82L39 83L40 83L40 82L39 82L39 81L38 81L38 80L39 80L39 79L40 79L40 77L41 77L41 76L42 76L42 75L44 75L44 74L47 74L47 75L45 75L45 76L44 76L44 79L45 79L45 80L44 80L44 81L45 81L45 82L49 82L49 83L48 83L48 84L49 84L49 83L50 83L50 82L55 82L55 83L58 83L58 82L57 82L57 81L56 81L56 82L55 82L55 81L52 81L52 80L51 80L51 81L48 81L48 80L49 80L49 79L50 79L50 78L52 78L52 76L53 76L53 75L54 75L54 74L53 74L53 75L50 75L50 76L49 76L49 75L48 75L48 74L47 74L47 73L48 73L48 72L50 72L50 73L49 73L49 74L52 74L52 73L55 73L55 74L56 74L56 75L55 75L55 76L58 76L58 77L59 77L59 79L58 79L58 78L57 78L57 79L58 79L58 80L59 80L59 81L60 81L60 80L59 80L59 79L60 79L60 77L61 77L61 78L64 78L64 77L61 77L61 75L60 75L60 74L59 74L59 73L60 73L60 72L61 72L61 71L62 71L62 72L64 72L64 71L62 71L62 70L64 70L64 69L61 69L61 68L64 68L64 67L65 67L65 68L66 68L66 69L65 69L65 70L67 70L67 69L69 69L69 68L66 68L66 67L65 67L65 66L67 66L67 67L70 67L70 70L71 70L71 69L72 69L72 70L75 70L75 68L76 68L76 67L73 67L73 66L74 66L74 64L73 64L73 63L72 63L72 62L71 62L71 61L72 61L72 60L71 60L71 59L70 59L70 58L69 58L69 57L68 57L68 56L64 56L64 55L65 55L65 54L66 54L66 53L67 53L67 54L68 54L68 55L69 55L69 56L70 56L70 57L72 57L72 59L73 59L73 58L75 58L75 57L74 57L74 56L75 56L75 55L76 55L76 54L75 54L75 53L76 53L76 52L77 52L77 51L73 51L73 54L71 54L71 55L70 55L70 54L68 54L68 52L71 52L71 53L72 53L72 52L71 52L71 51L70 51L70 50L69 50L69 51L68 51L68 49L69 49L69 46L67 46L67 47L65 47L65 49L63 49L63 48L64 48L64 47L62 47L62 46L63 46L63 44L64 44L64 42L63 42L63 40L64 40L64 41L65 41L65 42L66 42L66 44L65 44L65 45L64 45L64 46L66 46L66 44L67 44L67 45L68 45L68 44L67 44L67 43L68 43L68 42L69 42L69 43L70 43L70 42L69 42L69 39L71 39L71 38L69 38L69 36L70 36L70 37L72 37L72 36L71 36L71 35L72 35L72 34L74 34L74 33L76 33L76 34L78 34L78 33L76 33L76 31L75 31L75 32L74 32L74 31L73 31L73 32L74 32L74 33L72 33L72 32L71 32L71 31L72 31L72 30L71 30L71 29L72 29L72 28L69 28L69 27L70 27L70 26L69 26L69 25L70 25L70 24L71 24L71 27L73 27L73 26L75 26L75 25L76 25L76 24L75 24L75 23L72 23L72 22L71 22L71 21L72 21L72 20L71 20L71 19L70 19L70 20L69 20L69 21L70 21L70 22L71 22L71 23L70 23L70 24L68 24L68 23L69 23L69 22L68 22L68 20L67 20L67 19L65 19L65 18L66 18L66 17L65 17L65 16L66 16L66 15L65 15L65 14L66 14L66 13L64 13L64 15L63 15L63 16L64 16L64 17L63 17L63 18L62 18L62 15L60 15L60 16L59 16L59 14L57 14L57 15L58 15L58 16L56 16L56 15L55 15L55 14L56 14L56 13L60 13L60 12L62 12L62 13L61 13L61 14L63 14L63 12L64 12L64 11L61 11L61 10L62 10L62 9L63 9L63 8L64 8L64 9L65 9L65 10L66 10L66 11L65 11L65 12L66 12L66 11L68 11L68 10L69 10L69 11L70 11L70 10L69 10L69 9L71 9L71 11L73 11L73 14L75 14L75 13L76 13L76 14L77 14L77 13L76 13L76 12L75 12L75 13L74 13L74 11L73 11L73 10L74 10L74 9L76 9L76 6L75 6L75 5L74 5L74 6L73 6L73 7L72 7L72 6L71 6L71 4L72 4L72 3L71 3L71 2L70 2L70 1L69 1L69 2L68 2L68 3L67 3L67 5L66 5L66 4L65 4L65 3L66 3L66 2L62 2L62 3L64 3L64 4L63 4L63 5L64 5L64 6L63 6L63 7L62 7L62 6L61 6L61 5L62 5L62 4L60 4L60 3L61 3L61 2L58 2L58 3L59 3L59 4L58 4L58 5L57 5L57 7L58 7L58 8L59 8L59 9L58 9L58 10L57 10L57 9L55 9L55 10L52 10L52 9L51 9L51 7L52 7L52 5L51 5L51 7L50 7L50 5L49 5L49 4L48 4L48 5L47 5L47 3L46 3L46 2L45 2L45 3L44 3L44 4L43 4L43 5L42 5L42 3L38 3L38 5L37 5L37 7L36 7L36 6L35 6L35 7L34 7L34 6L33 6L33 7L34 7L34 8L33 8L33 9L32 9L32 11L31 11L31 13L29 13L29 10L31 10L31 9L28 9L28 10L26 10L26 11L25 11L25 9L27 9L27 8L25 8L25 7L26 7L26 6L25 6L25 7L24 7L24 5L25 5L25 4L26 4L26 5L27 5L27 7L28 7L28 5L27 5L27 4L28 4L28 3L27 3L27 2L26 2L26 1ZM29 1L29 2L30 2L30 1ZM35 1L35 2L36 2L36 1ZM39 1L39 2L40 2L40 1ZM25 2L25 3L26 3L26 2ZM55 2L55 3L56 3L56 4L57 4L57 3L56 3L56 2ZM29 3L29 4L30 4L30 3ZM52 3L52 4L54 4L54 3ZM68 3L68 4L69 4L69 5L70 5L70 4L69 4L69 3ZM73 3L73 4L75 4L75 3ZM44 4L44 7L43 7L43 6L42 6L42 8L43 8L43 9L39 9L39 10L38 10L38 8L41 8L41 6L40 6L40 5L38 5L38 8L36 8L36 7L35 7L35 9L37 9L37 10L38 10L38 11L40 11L40 10L41 10L41 14L43 14L43 15L40 15L40 13L39 13L39 12L38 12L38 13L37 13L37 12L35 12L35 11L36 11L36 10L33 10L33 11L34 11L34 12L32 12L32 13L31 13L31 15L29 15L29 17L31 17L31 18L30 18L30 19L29 19L29 18L28 18L28 17L26 17L26 18L28 18L28 19L26 19L26 20L27 20L27 21L28 21L28 20L29 20L29 21L31 21L31 22L32 22L32 23L31 23L31 24L29 24L29 23L30 23L30 22L29 22L29 23L27 23L27 24L26 24L26 23L25 23L25 22L26 22L26 21L25 21L25 20L24 20L24 19L23 19L23 20L21 20L21 21L22 21L22 23L21 23L21 25L22 25L22 26L23 26L23 25L24 25L24 24L26 24L26 25L25 25L25 26L24 26L24 28L23 28L23 29L24 29L24 28L26 28L26 26L28 26L28 27L27 27L27 29L28 29L28 31L26 31L26 32L28 32L28 33L29 33L29 34L27 34L27 33L24 33L24 32L23 32L23 31L25 31L25 30L26 30L26 29L25 29L25 30L20 30L20 31L21 31L21 32L20 32L20 33L22 33L22 34L23 34L23 35L24 35L24 36L23 36L23 37L24 37L24 38L23 38L23 39L22 39L22 40L23 40L23 41L21 41L21 43L20 43L20 42L18 42L18 40L17 40L17 42L18 42L18 43L17 43L17 44L18 44L18 45L20 45L20 47L21 47L21 49L20 49L20 48L19 48L19 49L20 49L20 51L19 51L19 52L18 52L18 53L17 53L17 54L18 54L18 57L17 57L17 58L16 58L16 59L17 59L17 58L19 58L19 55L20 55L20 56L21 56L21 57L20 57L20 58L21 58L21 59L23 59L23 57L25 57L25 58L24 58L24 60L23 60L23 61L24 61L24 60L25 60L25 58L26 58L26 59L28 59L28 60L27 60L27 61L25 61L25 63L26 63L26 64L27 64L27 65L29 65L29 64L27 64L27 63L28 63L28 62L29 62L29 63L31 63L31 62L32 62L32 63L33 63L33 64L32 64L32 65L37 65L37 64L36 64L36 63L35 63L35 62L32 62L32 59L33 59L33 58L31 58L31 57L34 57L34 56L33 56L33 55L35 55L35 54L33 54L33 52L31 52L31 51L32 51L32 50L31 50L31 49L29 49L29 48L30 48L30 47L28 47L28 48L26 48L26 49L25 49L25 50L26 50L26 49L29 49L29 50L27 50L27 51L28 51L28 52L27 52L27 54L26 54L26 53L24 53L24 56L22 56L22 55L23 55L23 54L21 54L21 55L20 55L20 54L18 54L18 53L20 53L20 51L22 51L22 52L21 52L21 53L23 53L23 52L26 52L26 51L22 51L22 50L23 50L23 49L24 49L24 48L25 48L25 47L24 47L24 48L23 48L23 45L24 45L24 46L25 46L25 44L23 44L23 43L25 43L25 40L27 40L27 41L26 41L26 43L27 43L27 45L26 45L26 46L27 46L27 45L29 45L29 46L31 46L31 48L33 48L33 50L34 50L34 53L38 53L38 51L40 51L40 52L41 52L41 54L40 54L40 56L37 56L37 54L36 54L36 56L35 56L35 57L39 57L39 58L38 58L38 59L37 59L37 58L36 58L36 59L37 59L37 60L36 60L36 61L39 61L39 62L38 62L38 63L39 63L39 62L40 62L40 64L41 64L41 66L44 66L44 68L43 68L43 67L42 67L42 68L41 68L41 67L39 67L39 66L38 66L38 67L39 67L39 68L38 68L38 69L39 69L39 68L41 68L41 69L40 69L40 70L36 70L36 69L37 69L37 68L36 68L36 67L35 67L35 66L34 66L34 67L33 67L33 68L32 68L32 66L30 66L30 67L31 67L31 68L30 68L30 69L31 69L31 68L32 68L32 69L33 69L33 68L35 68L35 70L36 70L36 71L37 71L37 72L38 72L38 71L39 71L39 72L40 72L40 70L43 70L43 71L44 71L44 72L42 72L42 71L41 71L41 72L42 72L42 74L44 74L44 72L46 72L46 71L47 71L47 70L45 70L45 71L44 71L44 68L45 68L45 69L46 69L46 68L45 68L45 67L47 67L47 68L48 68L48 69L51 69L51 70L50 70L50 72L51 72L51 71L53 71L53 72L55 72L55 73L56 73L56 74L58 74L58 73L57 73L57 72L59 72L59 71L57 71L57 72L55 72L55 71L56 71L56 70L58 70L58 69L59 69L59 68L61 68L61 67L63 67L63 66L64 66L64 65L67 65L67 66L68 66L68 65L69 65L69 66L70 66L70 67L71 67L71 68L72 68L72 69L74 69L74 68L72 68L72 65L71 65L71 64L72 64L72 63L69 63L69 62L70 62L70 61L69 61L69 62L65 62L65 63L64 63L64 62L63 62L63 61L64 61L64 60L68 60L68 59L69 59L69 58L67 58L67 59L66 59L66 58L65 58L65 57L64 57L64 56L62 56L62 55L63 55L63 54L64 54L64 53L65 53L65 52L63 52L63 53L62 53L62 54L60 54L60 53L61 53L61 52L62 52L62 50L61 50L61 49L62 49L62 48L60 48L60 47L61 47L61 45L62 45L62 44L60 44L60 47L59 47L59 46L58 46L58 45L59 45L59 44L58 44L58 43L59 43L59 42L61 42L61 43L63 43L63 42L61 42L61 40L60 40L60 41L59 41L59 40L58 40L58 39L59 39L59 38L60 38L60 39L64 39L64 38L61 38L61 37L62 37L62 36L61 36L61 35L64 35L64 36L63 36L63 37L66 37L66 38L65 38L65 41L66 41L66 42L68 42L68 41L67 41L67 40L68 40L68 39L69 39L69 38L68 38L68 37L67 37L67 36L68 36L68 35L69 35L69 34L70 34L70 35L71 35L71 34L70 34L70 33L71 33L71 32L70 32L70 31L71 31L71 30L70 30L70 29L67 29L67 28L68 28L68 27L69 27L69 26L68 26L68 27L67 27L67 26L65 26L65 25L64 25L64 24L65 24L65 23L67 23L67 20L66 20L66 22L62 22L62 23L61 23L61 21L65 21L65 19L64 19L64 20L61 20L61 21L59 21L59 20L60 20L60 19L59 19L59 17L57 17L57 18L58 18L58 19L57 19L57 20L54 20L54 18L55 18L55 19L56 19L56 18L55 18L55 17L56 17L56 16L55 16L55 15L53 15L53 16L54 16L54 17L51 17L51 18L50 18L50 20L52 20L52 22L53 22L53 23L51 23L51 22L48 22L48 23L49 23L49 24L48 24L48 26L45 26L45 25L44 25L44 26L45 26L45 27L43 27L43 25L40 25L40 24L41 24L41 22L40 22L40 21L39 21L39 20L41 20L41 21L42 21L42 22L44 22L44 20L45 20L45 19L48 19L48 20L47 20L47 21L49 21L49 19L48 19L48 18L49 18L49 16L48 16L48 18L45 18L45 19L44 19L44 16L45 16L45 17L46 17L46 16L45 16L45 15L48 15L48 14L45 14L45 13L44 13L44 12L46 12L46 10L45 10L45 11L44 11L44 12L43 12L43 11L42 11L42 10L43 10L43 9L44 9L44 8L45 8L45 9L49 9L49 10L48 10L48 11L49 11L49 10L50 10L50 11L51 11L51 12L50 12L50 13L49 13L49 12L47 12L47 13L49 13L49 14L50 14L50 16L52 16L52 15L51 15L51 14L50 14L50 13L52 13L52 14L54 14L54 13L52 13L52 10L50 10L50 9L49 9L49 8L50 8L50 7L49 7L49 5L48 5L48 8L46 8L46 7L47 7L47 5L45 5L45 4ZM59 4L59 5L58 5L58 7L59 7L59 8L60 8L60 7L61 7L61 6L60 6L60 7L59 7L59 5L60 5L60 4ZM64 4L64 5L65 5L65 6L64 6L64 8L65 8L65 6L66 6L66 10L68 10L68 9L69 9L69 8L70 8L70 7L71 7L71 6L70 6L70 7L69 7L69 6L68 6L68 7L67 7L67 6L66 6L66 5L65 5L65 4ZM8 5L8 7L9 7L9 5ZM21 5L21 6L20 6L20 7L19 7L19 8L20 8L20 9L21 9L21 10L20 10L20 11L18 11L18 9L17 9L17 11L16 11L16 10L14 10L14 12L15 12L15 11L16 11L16 13L15 13L15 14L14 14L14 13L13 13L13 12L12 12L12 13L13 13L13 14L12 14L12 15L10 15L10 17L9 17L9 18L10 18L10 17L11 17L11 16L13 16L13 15L14 15L14 16L15 16L15 15L16 15L16 13L17 13L17 12L18 12L18 14L17 14L17 16L16 16L16 17L15 17L15 18L14 18L14 17L13 17L13 18L12 18L12 19L13 19L13 20L12 20L12 21L14 21L14 19L15 19L15 18L16 18L16 17L18 17L18 21L17 21L17 22L16 22L16 21L15 21L15 22L16 22L16 23L18 23L18 27L16 27L16 26L17 26L17 24L16 24L16 25L15 25L15 23L14 23L14 22L13 22L13 23L14 23L14 24L13 24L13 25L15 25L15 28L18 28L18 27L19 27L19 29L18 29L18 30L19 30L19 29L20 29L20 27L19 27L19 25L20 25L20 22L18 22L18 21L20 21L20 19L22 19L22 17L24 17L24 18L25 18L25 16L26 16L26 15L24 15L24 16L23 16L23 14L22 14L22 15L21 15L21 16L19 16L19 12L21 12L21 13L20 13L20 14L21 14L21 13L22 13L22 12L21 12L21 11L22 11L22 10L23 10L23 9L24 9L24 8L23 8L23 9L22 9L22 8L20 8L20 7L21 7L21 6L22 6L22 7L23 7L23 5ZM29 5L29 8L32 8L32 5ZM53 5L53 8L56 8L56 5ZM11 6L11 7L12 7L12 6ZM30 6L30 7L31 7L31 6ZM39 6L39 7L40 7L40 6ZM45 6L45 7L46 7L46 6ZM54 6L54 7L55 7L55 6ZM74 6L74 7L75 7L75 6ZM68 7L68 8L67 8L67 9L68 9L68 8L69 8L69 7ZM61 8L61 9L59 9L59 10L58 10L58 11L59 11L59 12L60 12L60 11L59 11L59 10L61 10L61 9L62 9L62 8ZM72 8L72 10L73 10L73 8ZM79 8L79 9L80 9L80 8ZM75 10L75 11L77 11L77 10ZM5 11L5 12L6 12L6 13L7 13L7 12L6 12L6 11ZM23 11L23 13L25 13L25 14L26 14L26 13L25 13L25 11ZM26 11L26 12L28 12L28 11ZM34 12L34 13L32 13L32 15L33 15L33 14L35 14L35 15L34 15L34 16L33 16L33 17L32 17L32 16L31 16L31 17L32 17L32 18L31 18L31 19L32 19L32 20L33 20L33 21L32 21L32 22L33 22L33 23L34 23L34 24L33 24L33 25L32 25L32 26L33 26L33 25L34 25L34 26L35 26L35 25L34 25L34 24L35 24L35 23L36 23L36 24L37 24L37 25L38 25L38 26L37 26L37 27L36 27L36 28L37 28L37 29L35 29L35 28L33 28L33 27L31 27L31 28L33 28L33 30L35 30L35 31L33 31L33 32L34 32L34 33L33 33L33 34L32 34L32 33L31 33L31 34L29 34L29 35L28 35L28 36L27 36L27 34L25 34L25 35L26 35L26 36L24 36L24 37L25 37L25 38L24 38L24 39L25 39L25 38L26 38L26 37L28 37L28 38L30 38L30 40L31 40L31 42L29 42L29 41L28 41L28 42L29 42L29 43L28 43L28 44L29 44L29 43L30 43L30 45L33 45L33 46L32 46L32 47L33 47L33 46L36 46L36 45L35 45L35 44L38 44L38 45L37 45L37 47L34 47L34 48L38 48L38 50L37 50L37 49L34 49L34 50L35 50L35 52L36 52L36 50L37 50L37 51L38 51L38 50L40 50L40 51L41 51L41 49L43 49L43 50L47 50L47 53L45 53L45 52L46 52L46 51L45 51L45 52L44 52L44 51L43 51L43 52L42 52L42 53L43 53L43 54L41 54L41 56L40 56L40 57L42 57L42 55L43 55L43 56L44 56L44 57L43 57L43 59L42 59L42 58L40 58L40 59L41 59L41 60L39 60L39 59L38 59L38 60L39 60L39 61L40 61L40 62L41 62L41 63L42 63L42 65L43 65L43 62L45 62L45 61L46 61L46 62L47 62L47 63L46 63L46 64L44 64L44 66L47 66L47 67L48 67L48 68L51 68L51 67L48 67L48 66L53 66L53 67L52 67L52 68L53 68L53 69L54 69L54 68L56 68L56 69L57 69L57 67L58 67L58 68L59 68L59 66L62 66L62 65L60 65L60 64L59 64L59 66L57 66L57 65L56 65L56 67L54 67L54 66L53 66L53 65L54 65L54 64L56 64L56 63L54 63L54 62L53 62L53 61L55 61L55 62L57 62L57 63L58 63L58 62L59 62L59 63L60 63L60 62L59 62L59 61L60 61L60 60L59 60L59 59L60 59L60 56L61 56L61 58L62 58L62 60L61 60L61 62L62 62L62 61L63 61L63 58L62 58L62 56L61 56L61 55L60 55L60 54L59 54L59 53L60 53L60 52L59 52L59 51L61 51L61 50L60 50L60 48L59 48L59 47L58 47L58 48L59 48L59 50L57 50L57 51L56 51L56 50L55 50L55 51L53 51L53 52L57 52L57 51L58 51L58 52L59 52L59 53L58 53L58 54L57 54L57 55L58 55L58 56L57 56L57 57L58 57L58 58L57 58L57 59L58 59L58 60L59 60L59 61L58 61L58 62L57 62L57 60L56 60L56 59L55 59L55 60L53 60L53 59L54 59L54 58L55 58L55 57L52 57L52 56L51 56L51 55L49 55L49 54L48 54L48 52L51 52L51 53L50 53L50 54L51 54L51 53L52 53L52 50L51 50L51 49L52 49L52 48L55 48L55 47L56 47L56 48L57 48L57 45L58 45L58 44L57 44L57 43L58 43L58 42L57 42L57 41L56 41L56 40L57 40L57 37L58 37L58 38L59 38L59 37L60 37L60 36L57 36L57 37L56 37L56 38L55 38L55 39L56 39L56 40L55 40L55 41L56 41L56 42L55 42L55 43L56 43L56 44L55 44L55 45L56 45L56 46L55 46L55 47L53 47L53 46L54 46L54 43L53 43L53 42L54 42L54 41L52 41L52 42L51 42L51 40L54 40L54 39L51 39L51 40L50 40L50 41L49 41L49 42L48 42L48 43L47 43L47 45L45 45L45 44L46 44L46 42L47 42L47 41L48 41L48 40L49 40L49 39L48 39L48 37L47 37L47 36L48 36L48 35L49 35L49 36L50 36L50 38L51 38L51 37L53 37L53 38L54 38L54 37L53 37L53 36L50 36L50 35L49 35L49 34L48 34L48 32L49 32L49 31L50 31L50 30L51 30L51 32L52 32L52 30L51 30L51 29L52 29L52 27L53 27L53 28L57 28L57 27L58 27L58 29L60 29L60 30L59 30L59 31L60 31L60 32L59 32L59 33L58 33L58 34L57 34L57 33L56 33L56 34L55 34L55 35L58 35L58 34L60 34L60 35L61 35L61 34L62 34L62 33L61 33L61 30L63 30L63 31L62 31L62 32L64 32L64 30L66 30L66 31L65 31L65 32L66 32L66 33L64 33L64 35L65 35L65 36L66 36L66 35L67 35L67 34L68 34L68 33L69 33L69 32L67 32L67 31L68 31L68 30L67 30L67 29L66 29L66 27L63 27L63 26L62 26L62 25L61 25L61 26L60 26L60 24L61 24L61 23L60 23L60 22L59 22L59 21L58 21L58 22L59 22L59 23L55 23L55 22L57 22L57 21L55 21L55 22L54 22L54 23L53 23L53 25L55 25L55 26L54 26L54 27L53 27L53 26L52 26L52 24L51 24L51 23L50 23L50 24L49 24L49 26L48 26L48 27L49 27L49 28L50 28L50 30L49 30L49 29L47 29L47 27L46 27L46 28L43 28L43 31L42 31L42 30L41 30L41 29L42 29L42 26L40 26L40 27L41 27L41 28L39 28L39 29L38 29L38 28L37 28L37 27L39 27L39 25L38 25L38 24L39 24L39 23L40 23L40 22L39 22L39 21L38 21L38 20L37 20L37 19L38 19L38 18L40 18L40 19L41 19L41 20L42 20L42 21L43 21L43 18L41 18L41 17L42 17L42 16L39 16L39 15L38 15L38 14L39 14L39 13L38 13L38 14L37 14L37 16L38 16L38 18L37 18L37 17L34 17L34 16L36 16L36 13L35 13L35 12ZM55 12L55 13L56 13L56 12ZM70 12L70 13L72 13L72 12ZM10 13L10 14L11 14L11 13ZM43 13L43 14L44 14L44 15L45 15L45 14L44 14L44 13ZM82 13L82 14L83 14L83 13ZM5 14L5 16L6 16L6 17L7 17L7 16L6 16L6 15L8 15L8 14ZM27 15L27 16L28 16L28 15ZM64 15L64 16L65 16L65 15ZM78 16L78 17L79 17L79 16ZM80 16L80 17L83 17L83 18L84 18L84 22L82 22L82 21L83 21L83 20L80 20L80 21L81 21L81 22L80 22L80 23L81 23L81 24L82 24L82 25L83 25L83 24L82 24L82 23L85 23L85 18L84 18L84 16ZM19 17L19 18L21 18L21 17ZM60 17L60 18L61 18L61 19L62 19L62 18L61 18L61 17ZM64 17L64 18L65 18L65 17ZM6 18L6 19L5 19L5 20L6 20L6 21L7 21L7 22L8 22L8 23L7 23L7 24L8 24L8 23L9 23L9 22L10 22L10 21L11 21L11 20L10 20L10 19L9 19L9 20L8 20L8 21L7 21L7 20L6 20L6 19L7 19L7 18ZM34 18L34 19L33 19L33 20L34 20L34 21L35 21L35 22L34 22L34 23L35 23L35 22L36 22L36 23L39 23L39 22L38 22L38 21L37 21L37 20L36 20L36 19L37 19L37 18L36 18L36 19L35 19L35 18ZM51 18L51 19L53 19L53 18ZM80 18L80 19L81 19L81 18ZM34 19L34 20L35 20L35 19ZM73 19L73 22L74 22L74 19ZM75 19L75 20L76 20L76 19ZM9 20L9 21L8 21L8 22L9 22L9 21L10 21L10 20ZM53 20L53 21L54 21L54 20ZM23 21L23 23L22 23L22 24L23 24L23 23L24 23L24 21ZM45 22L45 23L42 23L42 24L45 24L45 23L47 23L47 22ZM54 23L54 24L55 24L55 25L56 25L56 26L55 26L55 27L56 27L56 26L58 26L58 27L59 27L59 28L62 28L62 29L63 29L63 30L64 30L64 28L62 28L62 26L61 26L61 27L60 27L60 26L58 26L58 25L59 25L59 24L60 24L60 23L59 23L59 24L58 24L58 25L56 25L56 24L55 24L55 23ZM62 23L62 24L64 24L64 23ZM71 23L71 24L72 24L72 23ZM74 24L74 25L75 25L75 24ZM84 24L84 25L85 25L85 24ZM3 25L3 26L4 26L4 25ZM10 25L10 26L11 26L11 25ZM28 25L28 26L29 26L29 28L30 28L30 26L31 26L31 25L30 25L30 26L29 26L29 25ZM72 25L72 26L73 26L73 25ZM49 26L49 27L52 27L52 26ZM79 26L79 27L80 27L80 26ZM21 27L21 29L22 29L22 27ZM74 27L74 28L73 28L73 30L74 30L74 28L75 28L75 30L76 30L76 28L75 28L75 27ZM3 29L3 31L2 31L2 35L3 35L3 36L4 36L4 35L5 35L5 34L7 34L7 33L5 33L5 34L4 34L4 33L3 33L3 31L4 31L4 29ZM5 29L5 32L8 32L8 29ZM29 29L29 32L32 32L32 29ZM37 29L37 30L38 30L38 31L37 31L37 32L35 32L35 34L33 34L33 36L31 36L31 35L30 35L30 36L31 36L31 37L30 37L30 38L31 38L31 40L33 40L33 41L34 41L34 40L33 40L33 39L32 39L32 38L33 38L33 36L34 36L34 35L35 35L35 37L37 37L37 38L36 38L36 39L37 39L37 40L36 40L36 41L35 41L35 42L34 42L34 43L35 43L35 42L36 42L36 41L37 41L37 40L38 40L38 39L39 39L39 40L41 40L41 42L43 42L43 43L42 43L42 44L43 44L43 45L40 45L40 47L39 47L39 46L38 46L38 47L39 47L39 49L40 49L40 48L42 48L42 47L43 47L43 45L44 45L44 46L45 46L45 47L44 47L44 48L45 48L45 47L46 47L46 48L47 48L47 46L45 46L45 45L44 45L44 44L45 44L45 43L44 43L44 42L45 42L45 41L44 41L44 40L45 40L45 39L47 39L47 38L45 38L45 37L44 37L44 35L46 35L46 36L47 36L47 35L48 35L48 34L44 34L44 32L45 32L45 33L46 33L46 32L45 32L45 31L47 31L47 30L45 30L45 29L44 29L44 30L45 30L45 31L43 31L43 32L41 32L41 31L40 31L40 29L39 29L39 30L38 30L38 29ZM53 29L53 32L56 32L56 29ZM77 29L77 32L80 32L80 29ZM6 30L6 31L7 31L7 30ZM12 30L12 31L11 31L11 32L12 32L12 31L13 31L13 30ZM30 30L30 31L31 31L31 30ZM48 30L48 31L49 31L49 30ZM54 30L54 31L55 31L55 30ZM57 30L57 31L58 31L58 30ZM78 30L78 31L79 31L79 30ZM81 31L81 34L82 34L82 33L84 33L84 32L83 32L83 31ZM22 32L22 33L23 33L23 34L24 34L24 33L23 33L23 32ZM37 32L37 33L38 33L38 34L39 34L39 32ZM40 32L40 33L41 33L41 36L40 36L40 37L39 37L39 35L38 35L38 38L37 38L37 39L38 39L38 38L39 38L39 39L41 39L41 40L44 40L44 39L45 39L45 38L44 38L44 37L43 37L43 38L41 38L41 37L42 37L42 36L43 36L43 35L44 35L44 34L42 34L42 33L41 33L41 32ZM8 33L8 34L9 34L9 35L8 35L8 36L7 36L7 35L6 35L6 36L5 36L5 38L7 38L7 39L4 39L4 38L3 38L3 37L1 37L1 38L3 38L3 39L2 39L2 40L3 40L3 41L2 41L2 43L1 43L1 44L2 44L2 45L3 45L3 46L4 46L4 48L3 48L3 49L5 49L5 48L7 48L7 49L6 49L6 50L4 50L4 51L3 51L3 52L9 52L9 53L10 53L10 52L9 52L9 51L12 51L12 52L14 52L14 51L13 51L13 48L12 48L12 47L11 47L11 46L10 46L10 45L11 45L11 44L14 44L14 42L12 42L12 41L11 41L11 39L10 39L10 40L9 40L9 41L10 41L10 42L8 42L8 40L7 40L7 39L9 39L9 38L11 38L11 36L12 36L12 35L11 35L11 36L9 36L9 35L10 35L10 34L9 34L9 33ZM50 33L50 34L51 34L51 33ZM53 33L53 34L52 34L52 35L53 35L53 34L54 34L54 33ZM60 33L60 34L61 34L61 33ZM3 34L3 35L4 35L4 34ZM35 34L35 35L37 35L37 34ZM65 34L65 35L66 35L66 34ZM6 36L6 37L7 37L7 38L8 38L8 37L9 37L9 36L8 36L8 37L7 37L7 36ZM28 36L28 37L29 37L29 36ZM82 36L82 37L84 37L84 38L83 38L83 39L84 39L84 41L83 41L83 40L81 40L81 39L80 39L80 40L81 40L81 41L82 41L82 42L84 42L84 43L85 43L85 42L84 42L84 41L85 41L85 37L84 37L84 36ZM31 37L31 38L32 38L32 37ZM80 37L80 38L81 38L81 37ZM34 38L34 39L35 39L35 38ZM66 38L66 40L67 40L67 38ZM28 39L28 40L29 40L29 39ZM6 40L6 41L5 41L5 46L6 46L6 47L7 47L7 46L6 46L6 45L8 45L8 49L7 49L7 50L6 50L6 51L9 51L9 50L10 50L10 46L9 46L9 45L8 45L8 44L9 44L9 43L8 43L8 44L6 44L6 43L7 43L7 42L6 42L6 41L7 41L7 40ZM71 40L71 41L72 41L72 40ZM3 41L3 45L4 45L4 41ZM23 41L23 42L22 42L22 43L23 43L23 42L24 42L24 41ZM39 41L39 42L38 42L38 44L41 44L41 43L39 43L39 42L40 42L40 41ZM43 41L43 42L44 42L44 41ZM31 42L31 43L32 43L32 42ZM49 42L49 44L48 44L48 45L50 45L50 43L51 43L51 44L52 44L52 45L51 45L51 46L49 46L49 48L48 48L48 49L50 49L50 47L52 47L52 46L53 46L53 44L52 44L52 43L51 43L51 42ZM56 42L56 43L57 43L57 42ZM80 42L80 44L81 44L81 45L83 45L83 44L81 44L81 42ZM10 43L10 44L11 44L11 43ZM18 43L18 44L20 44L20 45L21 45L21 47L22 47L22 45L23 45L23 44L22 44L22 45L21 45L21 44L20 44L20 43ZM43 43L43 44L44 44L44 43ZM74 43L74 44L71 44L71 46L72 46L72 45L73 45L73 46L74 46L74 44L75 44L75 45L76 45L76 44L77 44L77 43ZM33 44L33 45L34 45L34 44ZM69 44L69 45L70 45L70 44ZM84 44L84 45L85 45L85 44ZM12 45L12 46L14 46L14 45ZM41 46L41 47L42 47L42 46ZM67 47L67 48L66 48L66 50L67 50L67 48L68 48L68 47ZM72 47L72 48L71 48L71 50L74 50L74 49L75 49L75 50L76 50L76 49L75 49L75 47L74 47L74 48L73 48L73 47ZM22 48L22 49L21 49L21 50L22 50L22 49L23 49L23 48ZM11 49L11 50L12 50L12 49ZM53 49L53 50L54 50L54 49ZM29 50L29 51L31 51L31 50ZM48 50L48 51L51 51L51 50ZM63 50L63 51L65 51L65 50ZM66 51L66 52L68 52L68 51ZM84 52L84 54L83 54L83 55L85 55L85 52ZM5 53L5 56L8 56L8 53ZM12 53L12 54L9 54L9 56L10 56L10 57L11 57L11 58L12 58L12 57L15 57L15 56L12 56L12 57L11 57L11 56L10 56L10 55L12 55L12 54L13 54L13 53ZM29 53L29 56L32 56L32 53ZM44 53L44 54L45 54L45 55L44 55L44 56L45 56L45 55L48 55L48 54L45 54L45 53ZM53 53L53 56L56 56L56 53ZM77 53L77 56L80 56L80 53ZM6 54L6 55L7 55L7 54ZM27 54L27 55L28 55L28 54ZM30 54L30 55L31 55L31 54ZM38 54L38 55L39 55L39 54ZM54 54L54 55L55 55L55 54ZM58 54L58 55L59 55L59 54ZM73 54L73 55L75 55L75 54ZM78 54L78 55L79 55L79 54ZM71 55L71 56L72 56L72 57L73 57L73 56L72 56L72 55ZM25 56L25 57L26 57L26 56ZM48 56L48 57L49 57L49 58L48 58L48 59L49 59L49 60L48 60L48 61L49 61L49 62L48 62L48 63L47 63L47 64L46 64L46 65L50 65L50 64L48 64L48 63L49 63L49 62L50 62L50 63L51 63L51 65L52 65L52 63L53 63L53 62L50 62L50 61L52 61L52 59L53 59L53 58L52 58L52 59L51 59L51 58L50 58L50 57L51 57L51 56L50 56L50 57L49 57L49 56ZM82 56L82 57L83 57L83 59L85 59L85 58L84 58L84 57L85 57L85 56L84 56L84 57L83 57L83 56ZM21 57L21 58L22 58L22 57ZM28 57L28 59L29 59L29 62L30 62L30 61L31 61L31 59L29 59L29 58L30 58L30 57ZM44 57L44 58L45 58L45 59L44 59L44 60L45 60L45 59L47 59L47 58L45 58L45 57ZM78 57L78 58L79 58L79 57ZM34 58L34 59L35 59L35 58ZM49 58L49 59L50 59L50 60L49 60L49 61L50 61L50 60L51 60L51 59L50 59L50 58ZM58 58L58 59L59 59L59 58ZM64 58L64 59L65 59L65 58ZM6 59L6 60L7 60L7 59ZM33 60L33 61L34 61L34 60ZM41 60L41 62L43 62L43 60ZM55 60L55 61L56 61L56 60ZM73 60L73 62L74 62L74 60ZM84 60L84 61L85 61L85 60ZM0 61L0 62L1 62L1 61ZM75 61L75 62L76 62L76 61ZM77 61L77 62L79 62L79 61ZM26 62L26 63L27 63L27 62ZM22 63L22 64L23 64L23 63ZM34 63L34 64L35 64L35 63ZM62 63L62 64L64 64L64 63ZM68 63L68 64L67 64L67 65L68 65L68 64L69 64L69 63ZM2 64L2 65L3 65L3 64ZM9 64L9 65L11 65L11 66L12 66L12 65L13 65L13 64L12 64L12 65L11 65L11 64ZM38 64L38 65L39 65L39 64ZM4 65L4 66L5 66L5 65ZM25 65L25 66L26 66L26 65ZM70 65L70 66L71 66L71 65ZM27 66L27 67L26 67L26 68L27 68L27 69L25 69L25 70L24 70L24 71L23 71L23 72L25 72L25 71L26 71L26 72L27 72L27 73L28 73L28 72L29 72L29 73L30 73L30 72L29 72L29 71L31 71L31 70L29 70L29 66ZM1 67L1 68L0 68L0 69L2 69L2 68L3 68L3 67ZM10 67L10 68L8 68L8 69L6 69L6 70L5 70L5 71L6 71L6 72L5 72L5 73L4 73L4 71L2 71L2 72L3 72L3 73L1 73L1 74L3 74L3 75L4 75L4 74L5 74L5 75L6 75L6 76L8 76L8 75L9 75L9 79L12 79L12 78L13 78L13 77L12 77L12 78L11 78L11 74L13 74L13 73L14 73L14 72L12 72L12 71L11 71L11 70L10 70L10 69L11 69L11 68L12 68L12 67ZM27 67L27 68L28 68L28 67ZM21 68L21 69L22 69L22 70L23 70L23 69L22 69L22 68ZM42 68L42 69L43 69L43 68ZM84 68L84 69L85 69L85 68ZM8 69L8 70L6 70L6 71L7 71L7 72L6 72L6 73L5 73L5 74L6 74L6 75L8 75L8 74L6 74L6 73L9 73L9 75L10 75L10 74L11 74L11 73L12 73L12 72L11 72L11 73L10 73L10 72L9 72L9 71L8 71L8 70L9 70L9 69ZM12 69L12 70L13 70L13 71L14 71L14 70L13 70L13 69ZM26 70L26 71L27 71L27 70ZM28 70L28 71L29 71L29 70ZM48 70L48 71L49 71L49 70ZM53 70L53 71L54 71L54 70ZM84 70L84 71L85 71L85 70ZM65 71L65 72L67 72L67 73L64 73L64 74L66 74L66 75L68 75L68 76L67 76L67 77L68 77L68 76L69 76L69 75L70 75L70 74L69 74L69 73L68 73L68 72L67 72L67 71ZM81 72L81 73L80 73L80 75L81 75L81 73L82 73L82 74L83 74L83 73L82 73L82 72ZM24 73L24 76L23 76L23 75L22 75L22 74L21 74L21 75L22 75L22 76L21 76L21 77L25 77L25 78L26 78L26 79L24 79L24 80L26 80L26 79L27 79L27 78L26 78L26 77L25 77L25 74L26 74L26 73ZM34 73L34 74L36 74L36 73ZM40 73L40 75L39 75L39 74L38 74L38 75L39 75L39 76L41 76L41 73ZM27 74L27 75L28 75L28 74ZM75 74L75 75L76 75L76 74ZM58 75L58 76L59 76L59 75ZM36 76L36 77L37 77L37 79L38 79L38 77L37 77L37 76ZM46 76L46 77L47 77L47 76ZM48 76L48 77L49 77L49 76ZM84 76L84 77L85 77L85 76ZM29 77L29 80L32 80L32 77ZM53 77L53 80L56 80L56 77ZM77 77L77 80L80 80L80 77ZM30 78L30 79L31 79L31 78ZM42 78L42 79L43 79L43 78ZM46 78L46 80L45 80L45 81L46 81L46 80L47 80L47 78ZM48 78L48 79L49 79L49 78ZM54 78L54 79L55 79L55 78ZM75 78L75 79L72 79L72 80L71 80L71 81L70 81L70 82L69 82L69 83L68 83L68 84L69 84L69 83L72 83L72 82L75 82L75 80L76 80L76 78ZM78 78L78 79L79 79L79 78ZM20 79L20 80L21 80L21 79ZM10 80L10 81L9 81L9 82L10 82L10 83L12 83L12 82L11 82L11 80ZM40 80L40 81L42 81L42 80ZM73 80L73 81L74 81L74 80ZM79 81L79 82L80 82L80 83L81 83L81 84L84 84L84 81L82 81L82 82L80 82L80 81ZM30 82L30 83L31 83L31 82ZM61 82L61 83L62 83L62 82ZM63 82L63 83L64 83L64 82ZM20 83L20 84L21 84L21 83ZM46 83L46 84L47 84L47 83ZM53 83L53 84L54 84L54 83ZM27 84L27 85L28 85L28 84ZM62 84L62 85L64 85L64 84ZM0 0L0 7L7 7L7 0ZM1 1L1 6L6 6L6 1ZM2 2L2 5L5 5L5 2ZM78 0L78 7L85 7L85 0ZM79 1L79 6L84 6L84 1ZM80 2L80 5L83 5L83 2ZM0 78L0 85L7 85L7 78ZM1 79L1 84L6 84L6 79ZM2 80L2 83L5 83L5 80Z" fill="#000000"/></g></g></svg>
