<?xml version="1.0" encoding="UTF-8"?>
<svg xmlns="http://www.w3.org/2000/svg" version="1.1" width="300" height="300" viewBox="0 0 300 300"><rect x="0" y="0" width="300" height="300" fill="#ffffff"/><g transform="scale(12)"><g transform="translate(0,0)"><path fill-rule="evenodd" d="M10 0L10 2L11 2L11 0ZM12 0L12 1L15 1L15 2L14 2L14 3L13 3L13 2L12 2L12 4L14 4L14 5L11 5L11 6L10 6L10 4L11 4L11 3L8 3L8 4L9 4L9 5L8 5L8 7L9 7L9 8L6 8L6 9L7 9L7 10L6 10L6 11L8 11L8 12L9 12L9 13L11 13L11 12L9 12L9 10L8 10L8 9L10 9L10 11L11 11L11 9L12 9L12 10L13 10L13 11L12 11L12 13L13 13L13 14L10 14L10 16L11 16L11 17L10 17L10 18L11 18L11 17L12 17L12 19L10 19L10 22L9 22L9 20L8 20L8 25L9 25L9 24L12 24L12 25L13 25L13 23L11 23L11 22L13 22L13 21L11 21L11 20L12 20L12 19L13 19L13 20L14 20L14 17L15 17L15 18L16 18L16 22L15 22L15 23L16 23L16 22L17 22L17 21L18 21L18 23L17 23L17 24L18 24L18 25L20 25L20 24L22 24L22 25L23 25L23 24L22 24L22 22L24 22L24 23L25 23L25 20L24 20L24 21L21 21L21 20L22 20L22 19L23 19L23 18L22 18L22 16L20 16L20 15L21 15L21 14L22 14L22 15L23 15L23 17L24 17L24 16L25 16L25 15L24 15L24 14L25 14L25 13L21 13L21 12L20 12L20 13L18 13L18 14L17 14L17 12L16 12L16 11L14 11L14 10L13 10L13 9L12 9L12 7L13 7L13 6L14 6L14 7L15 7L15 8L14 8L14 9L15 9L15 10L16 10L16 9L15 9L15 8L16 8L16 7L17 7L17 6L16 6L16 7L15 7L15 6L14 6L14 5L16 5L16 4L17 4L17 3L16 3L16 2L17 2L17 1L16 1L16 0ZM8 1L8 2L9 2L9 1ZM14 3L14 4L16 4L16 3ZM9 6L9 7L10 7L10 6ZM11 6L11 7L12 7L12 6ZM0 8L0 9L1 9L1 10L0 10L0 17L1 17L1 14L2 14L2 11L4 11L4 10L5 10L5 8ZM10 8L10 9L11 9L11 8ZM17 8L17 9L18 9L18 10L17 10L17 11L18 11L18 12L19 12L19 11L18 11L18 10L21 10L21 11L22 11L22 8L21 8L21 9L20 9L20 8L19 8L19 9L18 9L18 8ZM23 8L23 12L25 12L25 11L24 11L24 10L25 10L25 9L24 9L24 8ZM3 9L3 10L4 10L4 9ZM3 12L3 14L4 14L4 13L5 13L5 15L7 15L7 16L5 16L5 17L8 17L8 19L9 19L9 17L8 17L8 16L9 16L9 15L8 15L8 13L7 13L7 12ZM13 12L13 13L15 13L15 12ZM6 13L6 14L7 14L7 13ZM13 14L13 15L12 15L12 16L13 16L13 17L14 17L14 16L15 16L15 17L16 17L16 16L17 16L17 14L16 14L16 15L15 15L15 14ZM18 14L18 15L19 15L19 14ZM3 15L3 16L2 16L2 17L3 17L3 16L4 16L4 15ZM13 15L13 16L14 16L14 15ZM17 17L17 20L20 20L20 17ZM18 18L18 19L19 19L19 18ZM21 18L21 19L22 19L22 18ZM24 18L24 19L25 19L25 18ZM19 21L19 23L18 23L18 24L20 24L20 23L21 23L21 22L20 22L20 21ZM14 24L14 25L16 25L16 24ZM24 24L24 25L25 25L25 24ZM0 0L0 7L7 7L7 0ZM1 1L1 6L6 6L6 1ZM2 2L2 5L5 5L5 2ZM18 0L18 7L25 7L25 0ZM19 1L19 6L24 6L24 1ZM20 2L20 5L23 5L23 2ZM0 18L0 25L7 25L7 18ZM1 19L1 24L6 24L6 19ZM2 20L2 23L5 23L5 20Z" fill="#000000"/></g></g></svg>
