<?xml version="1.0" encoding="UTF-8"?>
<svg xmlns="http://www.w3.org/2000/svg" version="1.1" width="300" height="300" viewBox="0 0 300 300"><rect x="0" y="0" width="300" height="300" fill="#ffffff"/><g transform="scale(12)"><g transform="translate(0,0)"><path fill-rule="evenodd" d="M8 0L8 1L11 1L11 3L10 3L10 2L9 2L9 3L10 3L10 5L9 5L9 6L8 6L8 8L9 8L9 9L10 9L10 10L9 10L9 11L8 11L8 12L5 12L5 11L7 11L7 10L5 10L5 8L3 8L3 9L2 9L2 8L0 8L0 9L1 9L1 10L2 10L2 11L0 11L0 17L1 17L1 15L2 15L2 12L3 12L3 17L5 17L5 16L6 16L6 17L8 17L8 18L9 18L9 17L10 17L10 19L9 19L9 20L8 20L8 22L9 22L9 23L8 23L8 25L10 25L10 24L9 24L9 23L10 23L10 22L11 22L11 25L12 25L12 24L13 24L13 25L14 25L14 24L15 24L15 25L18 25L18 24L19 24L19 25L21 25L21 24L23 24L23 25L25 25L25 24L24 24L24 23L25 23L25 20L24 20L24 21L23 21L23 20L22 20L22 21L23 21L23 23L21 23L21 18L23 18L23 19L24 19L24 17L22 17L22 16L25 16L25 15L24 15L24 14L25 14L25 13L24 13L24 12L25 12L25 11L24 11L24 12L23 12L23 11L22 11L22 10L25 10L25 8L24 8L24 9L22 9L22 10L20 10L20 9L19 9L19 8L18 8L18 9L17 9L17 8L16 8L16 7L17 7L17 5L16 5L16 4L17 4L17 2L16 2L16 1L15 1L15 0L14 0L14 1L12 1L12 0ZM14 1L14 3L15 3L15 1ZM12 2L12 4L13 4L13 5L12 5L12 6L11 6L11 5L10 5L10 6L9 6L9 7L10 7L10 9L11 9L11 10L10 10L10 11L9 11L9 12L11 12L11 14L8 14L8 13L6 13L6 14L5 14L5 13L4 13L4 14L5 14L5 15L6 15L6 16L7 16L7 15L8 15L8 16L10 16L10 17L13 17L13 18L15 18L15 17L16 17L16 15L15 15L15 17L14 17L14 15L13 15L13 16L12 16L12 12L13 12L13 14L14 14L14 12L13 12L13 11L15 11L15 10L16 10L16 8L15 8L15 9L14 9L14 6L15 6L15 7L16 7L16 5L14 5L14 4L13 4L13 2ZM13 5L13 6L12 6L12 9L13 9L13 10L12 10L12 11L13 11L13 10L14 10L14 9L13 9L13 6L14 6L14 5ZM10 6L10 7L11 7L11 6ZM6 8L6 9L7 9L7 8ZM18 9L18 10L17 10L17 11L16 11L16 12L15 12L15 14L16 14L16 12L17 12L17 11L20 11L20 14L21 14L21 15L23 15L23 14L22 14L22 13L21 13L21 12L22 12L22 11L20 11L20 10L19 10L19 9ZM3 10L3 12L4 12L4 10ZM18 12L18 13L17 13L17 16L19 16L19 14L18 14L18 13L19 13L19 12ZM6 14L6 15L7 15L7 14ZM10 15L10 16L11 16L11 15ZM17 17L17 20L20 20L20 17ZM18 18L18 19L19 19L19 18ZM10 19L10 20L9 20L9 22L10 22L10 20L11 20L11 21L12 21L12 23L13 23L13 22L15 22L15 24L16 24L16 23L17 23L17 22L18 22L18 23L20 23L20 24L21 24L21 23L20 23L20 22L18 22L18 21L17 21L17 22L16 22L16 19L14 19L14 21L13 21L13 19L12 19L12 20L11 20L11 19ZM0 0L0 7L7 7L7 0ZM1 1L1 6L6 6L6 1ZM2 2L2 5L5 5L5 2ZM18 0L18 7L25 7L25 0ZM19 1L19 6L24 6L24 1ZM20 2L20 5L23 5L23 2ZM0 18L0 25L7 25L7 18ZM1 19L1 24L6 24L6 19ZM2 20L2 23L5 23L5 20Z" fill="#000000"/></g></g></svg>
