<?xml version="1.0" encoding="UTF-8"?>
<svg xmlns="http://www.w3.org/2000/svg" version="1.1" width="300" height="300" viewBox="0 0 300 300"><rect x="0" y="0" width="300" height="300" fill="#ffffff"/><g transform="scale(12)"><g transform="translate(0,0)"><path fill-rule="evenodd" d="M9 0L9 1L8 1L8 2L9 2L9 3L8 3L8 4L10 4L10 7L11 7L11 4L12 4L12 5L13 5L13 6L12 6L12 9L13 9L13 10L11 10L11 11L10 11L10 9L11 9L11 8L6 8L6 9L9 9L9 10L8 10L8 11L9 11L9 12L5 12L5 13L4 13L4 15L2 15L2 16L4 16L4 17L8 17L8 19L9 19L9 20L8 20L8 25L9 25L9 23L10 23L10 24L11 24L11 23L12 23L12 25L14 25L14 24L15 24L15 25L16 25L16 23L15 23L15 22L16 22L16 21L18 21L18 22L19 22L19 21L21 21L21 22L24 22L24 23L25 23L25 20L24 20L24 21L22 21L22 19L23 19L23 17L24 17L24 16L25 16L25 15L24 15L24 14L25 14L25 13L22 13L22 8L21 8L21 9L20 9L20 8L19 8L19 9L18 9L18 8L17 8L17 9L18 9L18 10L17 10L17 11L18 11L18 12L19 12L19 11L20 11L20 10L21 10L21 13L22 13L22 14L23 14L23 17L22 17L22 16L17 16L17 15L16 15L16 14L15 14L15 13L16 13L16 12L15 12L15 10L16 10L16 9L15 9L15 8L16 8L16 7L17 7L17 6L16 6L16 7L15 7L15 6L14 6L14 5L13 5L13 4L14 4L14 3L13 3L13 4L12 4L12 2L15 2L15 5L17 5L17 4L16 4L16 2L17 2L17 1L16 1L16 0L13 0L13 1L11 1L11 2L10 2L10 0ZM15 1L15 2L16 2L16 1ZM10 3L10 4L11 4L11 3ZM8 5L8 7L9 7L9 5ZM13 6L13 7L14 7L14 8L13 8L13 9L14 9L14 8L15 8L15 7L14 7L14 6ZM0 8L0 11L1 11L1 13L0 13L0 17L1 17L1 14L2 14L2 12L3 12L3 11L4 11L4 9L5 9L5 8ZM23 8L23 12L25 12L25 11L24 11L24 10L25 10L25 9L24 9L24 8ZM1 9L1 10L2 10L2 11L3 11L3 9ZM19 9L19 10L20 10L20 9ZM6 10L6 11L7 11L7 10ZM13 10L13 11L12 11L12 12L13 12L13 13L15 13L15 12L13 12L13 11L14 11L14 10ZM10 12L10 13L11 13L11 15L10 15L10 14L9 14L9 13L5 13L5 14L8 14L8 15L9 15L9 18L11 18L11 19L10 19L10 20L9 20L9 21L10 21L10 23L11 23L11 22L13 22L13 23L14 23L14 22L15 22L15 21L16 21L16 20L13 20L13 21L12 21L12 20L11 20L11 19L12 19L12 17L16 17L16 16L15 16L15 14L13 14L13 15L14 15L14 16L12 16L12 13L11 13L11 12ZM18 13L18 14L19 14L19 15L20 15L20 14L19 14L19 13ZM4 15L4 16L7 16L7 15ZM10 16L10 17L11 17L11 16ZM17 17L17 20L20 20L20 17ZM15 18L15 19L16 19L16 18ZM18 18L18 19L19 19L19 18ZM10 20L10 21L11 21L11 20ZM18 23L18 24L20 24L20 25L23 25L23 24L20 24L20 23ZM24 24L24 25L25 25L25 24ZM0 0L0 7L7 7L7 0ZM1 1L1 6L6 6L6 1ZM2 2L2 5L5 5L5 2ZM18 0L18 7L25 7L25 0ZM19 1L19 6L24 6L24 1ZM20 2L20 5L23 5L23 2ZM0 18L0 25L7 25L7 18ZM1 19L1 24L6 24L6 19ZM2 20L2 23L5 23L5 20Z" fill="#000000"/></g></g></svg>
