<?xml version="1.0" encoding="UTF-8"?>
<svg xmlns="http://www.w3.org/2000/svg" version="1.1" width="300" height="300" viewBox="0 0 300 300"><rect x="0" y="0" width="300" height="300" fill="#ffffff"/><g transform="scale(3.093)"><g transform="translate(0,0)"><path fill-rule="evenodd" d="M9 0L9 1L8 1L8 2L9 2L9 3L8 3L8 4L12 4L12 3L14 3L14 2L16 2L16 4L13 4L13 5L10 5L10 9L9 9L9 8L6 8L6 9L7 9L7 10L6 10L6 11L7 11L7 10L10 10L10 13L9 13L9 14L10 14L10 15L9 15L9 16L8 16L8 15L7 15L7 14L8 14L8 12L9 12L9 11L8 11L8 12L6 12L6 13L7 13L7 14L6 14L6 15L7 15L7 16L6 16L6 17L7 17L7 16L8 16L8 20L6 20L6 19L7 19L7 18L5 18L5 19L4 19L4 20L5 20L5 21L3 21L3 22L5 22L5 23L4 23L4 25L5 25L5 24L6 24L6 25L7 25L7 24L8 24L8 27L7 27L7 26L5 26L5 27L7 27L7 28L5 28L5 29L4 29L4 30L3 30L3 32L2 32L2 33L1 33L1 31L2 31L2 29L3 29L3 27L2 27L2 26L3 26L3 25L2 25L2 26L0 26L0 28L1 28L1 27L2 27L2 29L0 29L0 30L1 30L1 31L0 31L0 34L2 34L2 35L1 35L1 36L0 36L0 37L1 37L1 38L0 38L0 42L1 42L1 44L0 44L0 47L1 47L1 49L2 49L2 47L4 47L4 49L3 49L3 50L2 50L2 51L1 51L1 50L0 50L0 53L1 53L1 52L4 52L4 54L5 54L5 55L4 55L4 56L5 56L5 57L3 57L3 58L2 58L2 57L0 57L0 59L1 59L1 58L2 58L2 59L4 59L4 61L2 61L2 60L1 60L1 61L2 61L2 62L0 62L0 64L1 64L1 65L0 65L0 67L2 67L2 68L3 68L3 67L5 67L5 68L6 68L6 69L5 69L5 71L4 71L4 72L1 72L1 71L0 71L0 72L1 72L1 73L3 73L3 74L1 74L1 75L0 75L0 76L1 76L1 75L3 75L3 76L4 76L4 77L3 77L3 78L2 78L2 77L0 77L0 78L2 78L2 79L1 79L1 80L0 80L0 81L2 81L2 82L1 82L1 83L0 83L0 86L1 86L1 83L2 83L2 82L3 82L3 81L4 81L4 83L3 83L3 84L2 84L2 86L3 86L3 85L4 85L4 84L5 84L5 86L6 86L6 87L5 87L5 88L3 88L3 87L2 87L2 88L1 88L1 87L0 87L0 89L5 89L5 88L6 88L6 89L7 89L7 88L9 88L9 89L8 89L8 91L10 91L10 90L11 90L11 92L10 92L10 93L11 93L11 94L9 94L9 92L8 92L8 97L9 97L9 95L11 95L11 96L10 96L10 97L11 97L11 96L12 96L12 97L13 97L13 96L14 96L14 97L15 97L15 95L14 95L14 92L15 92L15 93L16 93L16 94L17 94L17 95L16 95L16 96L17 96L17 95L18 95L18 97L20 97L20 96L23 96L23 97L24 97L24 96L26 96L26 97L27 97L27 94L28 94L28 93L25 93L25 95L24 95L24 94L23 94L23 95L20 95L20 94L17 94L17 93L19 93L19 92L21 92L21 91L20 91L20 90L23 90L23 89L24 89L24 88L26 88L26 86L27 86L27 92L28 92L28 89L29 89L29 90L30 90L30 91L32 91L32 92L31 92L31 93L29 93L29 94L32 94L32 93L33 93L33 96L34 96L34 97L37 97L37 96L39 96L39 95L37 95L37 94L40 94L40 96L42 96L42 97L44 97L44 96L45 96L45 97L46 97L46 94L47 94L47 95L48 95L48 94L47 94L47 93L49 93L49 92L47 92L47 91L48 91L48 90L49 90L49 91L50 91L50 89L52 89L52 88L54 88L54 90L55 90L55 91L54 91L54 94L52 94L52 95L51 95L51 94L49 94L49 95L51 95L51 96L48 96L48 97L51 97L51 96L53 96L53 97L56 97L56 96L58 96L58 95L59 95L59 94L60 94L60 93L61 93L61 95L62 95L62 93L63 93L63 94L64 94L64 93L66 93L66 94L65 94L65 95L64 95L64 96L63 96L63 97L67 97L67 96L68 96L68 97L71 97L71 96L72 96L72 95L73 95L73 96L75 96L75 97L78 97L78 96L77 96L77 95L79 95L79 96L81 96L81 97L83 97L83 96L84 96L84 95L87 95L87 93L90 93L90 94L88 94L88 96L89 96L89 97L93 97L93 96L94 96L94 97L97 97L97 90L96 90L96 89L95 89L95 88L97 88L97 86L96 86L96 85L97 85L97 81L95 81L95 80L94 80L94 79L95 79L95 78L96 78L96 79L97 79L97 78L96 78L96 76L94 76L94 77L93 77L93 80L92 80L92 81L91 81L91 79L90 79L90 78L89 78L89 77L91 77L91 78L92 78L92 77L91 77L91 75L93 75L93 74L96 74L96 75L97 75L97 74L96 74L96 72L92 72L92 73L91 73L91 70L90 70L90 69L91 69L91 68L89 68L89 69L88 69L88 68L87 68L87 69L88 69L88 70L87 70L87 71L86 71L86 70L84 70L84 69L86 69L86 67L88 67L88 66L83 66L83 64L84 64L84 63L85 63L85 65L87 65L87 64L88 64L88 65L91 65L91 66L92 66L92 65L93 65L93 67L94 67L94 63L95 63L95 64L96 64L96 65L97 65L97 64L96 64L96 63L97 63L97 62L96 62L96 61L95 61L95 60L94 60L94 58L95 58L95 57L97 57L97 54L96 54L96 53L95 53L95 52L97 52L97 50L95 50L95 48L96 48L96 49L97 49L97 46L96 46L96 45L97 45L97 44L96 44L96 43L97 43L97 42L96 42L96 41L97 41L97 36L96 36L96 38L95 38L95 39L96 39L96 41L95 41L95 42L94 42L94 40L93 40L93 41L92 41L92 40L91 40L91 39L92 39L92 37L93 37L93 38L94 38L94 37L95 37L95 36L94 36L94 35L97 35L97 34L95 34L95 33L97 33L97 30L96 30L96 29L97 29L97 25L96 25L96 26L95 26L95 24L97 24L97 21L96 21L96 19L97 19L97 18L96 18L96 17L97 17L97 14L96 14L96 16L94 16L94 17L93 17L93 16L92 16L92 15L93 15L93 14L92 14L92 15L91 15L91 13L92 13L92 11L94 11L94 10L92 10L92 11L91 11L91 10L90 10L90 11L91 11L91 12L89 12L89 10L88 10L88 9L87 9L87 8L86 8L86 10L83 10L83 11L81 11L81 10L82 10L82 9L80 9L80 11L79 11L79 12L80 12L80 14L82 14L82 13L81 13L81 12L83 12L83 11L85 11L85 12L84 12L84 15L85 15L85 16L84 16L84 18L85 18L85 19L83 19L83 17L82 17L82 16L83 16L83 15L79 15L79 13L78 13L78 12L73 12L73 13L74 13L74 15L76 15L76 16L74 16L74 17L75 17L75 18L73 18L73 15L68 15L68 14L70 14L70 12L72 12L72 10L73 10L73 11L78 11L78 10L75 10L75 9L76 9L76 8L77 8L77 6L78 6L78 9L79 9L79 8L82 8L82 7L83 7L83 8L84 8L84 7L85 7L85 6L86 6L86 7L87 7L87 6L88 6L88 7L89 7L89 6L88 6L88 5L89 5L89 0L87 0L87 1L88 1L88 2L87 2L87 3L88 3L88 5L87 5L87 6L86 6L86 4L85 4L85 5L84 5L84 7L83 7L83 5L82 5L82 2L78 2L78 1L77 1L77 0L75 0L75 1L72 1L72 0L71 0L71 3L72 3L72 4L71 4L71 5L72 5L72 7L71 7L71 6L70 6L70 7L69 7L69 6L68 6L68 7L67 7L67 5L65 5L65 4L61 4L61 3L60 3L60 5L57 5L57 6L56 6L56 3L58 3L58 4L59 4L59 3L58 3L58 2L61 2L61 0L59 0L59 1L58 1L58 0L57 0L57 1L58 1L58 2L55 2L55 0L53 0L53 1L52 1L52 0L51 0L51 1L50 1L50 0L49 0L49 1L48 1L48 0L47 0L47 1L45 1L45 0L44 0L44 1L43 1L43 0L41 0L41 1L43 1L43 2L42 2L42 4L41 4L41 5L42 5L42 7L41 7L41 6L40 6L40 5L38 5L38 4L40 4L40 3L38 3L38 2L39 2L39 1L37 1L37 0L33 0L33 1L36 1L36 2L35 2L35 3L37 3L37 4L33 4L33 2L32 2L32 1L31 1L31 0L25 0L25 1L23 1L23 0L22 0L22 2L24 2L24 3L23 3L23 4L24 4L24 3L25 3L25 2L27 2L27 3L26 3L26 4L25 4L25 5L27 5L27 6L26 6L26 7L27 7L27 8L26 8L26 9L25 9L25 11L24 11L24 12L25 12L25 13L24 13L24 15L25 15L25 13L26 13L26 14L27 14L27 15L26 15L26 17L25 17L25 18L24 18L24 19L23 19L23 20L21 20L21 21L20 21L20 22L21 22L21 23L22 23L22 24L21 24L21 25L20 25L20 26L19 26L19 24L20 24L20 23L17 23L17 22L16 22L16 21L15 21L15 22L16 22L16 23L17 23L17 24L15 24L15 25L14 25L14 20L15 20L15 18L14 18L14 17L15 17L15 16L16 16L16 15L18 15L18 16L20 16L20 17L22 17L22 18L20 18L20 19L19 19L19 20L17 20L17 19L18 19L18 18L17 18L17 17L16 17L16 18L17 18L17 19L16 19L16 20L17 20L17 21L19 21L19 20L20 20L20 19L22 19L22 18L23 18L23 17L24 17L24 16L23 16L23 17L22 17L22 14L23 14L23 13L21 13L21 11L19 11L19 10L20 10L20 8L19 8L19 10L17 10L17 11L16 11L16 12L18 12L18 11L19 11L19 12L20 12L20 13L18 13L18 14L16 14L16 15L15 15L15 16L14 16L14 15L12 15L12 18L11 18L11 16L10 16L10 15L11 15L11 14L12 14L12 12L14 12L14 10L16 10L16 9L18 9L18 8L16 8L16 7L17 7L17 6L18 6L18 7L19 7L19 6L18 6L18 5L17 5L17 6L16 6L16 7L15 7L15 6L14 6L14 5L16 5L16 4L20 4L20 7L21 7L21 10L23 10L23 9L24 9L24 8L23 8L23 9L22 9L22 7L23 7L23 5L21 5L21 4L22 4L22 3L21 3L21 2L20 2L20 3L17 3L17 2L19 2L19 1L21 1L21 0L19 0L19 1L17 1L17 0L15 0L15 1L11 1L11 0ZM62 0L62 1L63 1L63 2L62 2L62 3L65 3L65 2L66 2L66 3L67 3L67 2L68 2L68 3L69 3L69 5L70 5L70 0L68 0L68 1L67 1L67 2L66 2L66 1L65 1L65 2L64 2L64 0ZM81 0L81 1L82 1L82 0ZM83 0L83 3L86 3L86 0ZM16 1L16 2L17 2L17 1ZM27 1L27 2L29 2L29 1ZM47 1L47 2L44 2L44 3L43 3L43 4L44 4L44 5L43 5L43 8L42 8L42 9L41 9L41 8L39 8L39 9L38 9L38 5L37 5L37 10L36 10L36 11L35 11L35 10L34 10L34 12L33 12L33 16L32 16L32 15L31 15L31 16L32 16L32 17L30 17L30 14L32 14L32 13L28 13L28 12L29 12L29 10L28 10L28 11L27 11L27 10L26 10L26 11L27 11L27 12L26 12L26 13L28 13L28 14L29 14L29 15L28 15L28 16L27 16L27 17L28 17L28 18L27 18L27 19L26 19L26 18L25 18L25 19L24 19L24 20L23 20L23 22L22 22L22 21L21 21L21 22L22 22L22 23L23 23L23 24L24 24L24 22L25 22L25 25L21 25L21 27L20 27L20 28L22 28L22 29L20 29L20 30L22 30L22 29L23 29L23 30L24 30L24 33L23 33L23 32L22 32L22 33L21 33L21 31L19 31L19 33L21 33L21 34L22 34L22 35L20 35L20 36L19 36L19 34L17 34L17 33L18 33L18 30L19 30L19 28L18 28L18 27L19 27L19 26L18 26L18 25L16 25L16 26L15 26L15 27L16 27L16 26L17 26L17 28L18 28L18 29L17 29L17 31L16 31L16 30L15 30L15 31L13 31L13 30L14 30L14 29L13 29L13 30L12 30L12 29L11 29L11 30L12 30L12 31L13 31L13 32L11 32L11 31L10 31L10 29L9 29L9 28L10 28L10 25L11 25L11 28L14 28L14 25L13 25L13 24L12 24L12 23L13 23L13 20L14 20L14 18L12 18L12 19L11 19L11 18L10 18L10 20L8 20L8 21L9 21L9 22L8 22L8 24L9 24L9 23L11 23L11 24L10 24L10 25L9 25L9 28L8 28L8 29L6 29L6 30L7 30L7 31L4 31L4 32L3 32L3 34L4 34L4 32L9 32L9 35L10 35L10 36L9 36L9 38L8 38L8 37L2 37L2 38L7 38L7 39L6 39L6 40L2 40L2 41L5 41L5 42L7 42L7 43L6 43L6 44L5 44L5 43L4 43L4 44L5 44L5 47L6 47L6 48L7 48L7 49L6 49L6 50L7 50L7 49L9 49L9 51L8 51L8 52L7 52L7 51L5 51L5 49L4 49L4 51L5 51L5 52L7 52L7 53L6 53L6 54L9 54L9 53L13 53L13 54L10 54L10 55L11 55L11 57L9 57L9 56L8 56L8 55L5 55L5 56L8 56L8 57L9 57L9 58L10 58L10 59L11 59L11 64L9 64L9 65L8 65L8 66L7 66L7 65L4 65L4 66L7 66L7 67L6 67L6 68L8 68L8 69L6 69L6 70L9 70L9 71L10 71L10 70L12 70L12 71L11 71L11 72L8 72L8 73L4 73L4 74L3 74L3 75L4 75L4 74L8 74L8 73L11 73L11 74L10 74L10 76L11 76L11 78L10 78L10 80L9 80L9 75L8 75L8 76L7 76L7 75L6 75L6 76L5 76L5 79L4 79L4 78L3 78L3 79L2 79L2 80L3 80L3 79L4 79L4 81L5 81L5 84L7 84L7 85L6 85L6 86L7 86L7 87L6 87L6 88L7 88L7 87L9 87L9 86L10 86L10 85L9 85L9 86L8 86L8 83L6 83L6 82L7 82L7 81L6 81L6 80L7 80L7 79L8 79L8 80L9 80L9 81L8 81L8 82L9 82L9 83L10 83L10 84L12 84L12 85L13 85L13 87L12 87L12 88L11 88L11 87L10 87L10 89L9 89L9 90L10 90L10 89L12 89L12 88L13 88L13 90L15 90L15 91L16 91L16 93L17 93L17 91L19 91L19 88L18 88L18 87L20 87L20 89L21 89L21 86L23 86L23 88L22 88L22 89L23 89L23 88L24 88L24 86L25 86L25 85L26 85L26 84L25 84L25 83L27 83L27 84L28 84L28 85L29 85L29 86L28 86L28 87L29 87L29 89L31 89L31 90L32 90L32 88L34 88L34 87L35 87L35 88L36 88L36 87L37 87L37 85L38 85L38 86L39 86L39 87L38 87L38 88L37 88L37 89L38 89L38 90L39 90L39 93L42 93L42 94L41 94L41 95L42 95L42 94L43 94L43 95L44 95L44 93L45 93L45 94L46 94L46 93L45 93L45 92L46 92L46 91L47 91L47 90L48 90L48 89L46 89L46 91L45 91L45 88L49 88L49 87L50 87L50 88L51 88L51 87L50 87L50 86L51 86L51 85L52 85L52 87L57 87L57 88L56 88L56 89L55 89L55 90L56 90L56 89L58 89L58 90L57 90L57 92L56 92L56 91L55 91L55 92L56 92L56 93L55 93L55 94L54 94L54 95L55 95L55 96L56 96L56 95L55 95L55 94L56 94L56 93L57 93L57 94L59 94L59 93L60 93L60 88L59 88L59 87L60 87L60 86L61 86L61 87L62 87L62 86L63 86L63 87L66 87L66 85L68 85L68 86L67 86L67 88L65 88L65 90L66 90L66 89L67 89L67 90L68 90L68 87L70 87L70 86L69 86L69 83L68 83L68 81L69 81L69 80L67 80L67 79L68 79L68 77L69 77L69 76L67 76L67 75L70 75L70 76L71 76L71 77L70 77L70 78L69 78L69 79L71 79L71 77L72 77L72 80L70 80L70 82L71 82L71 81L72 81L72 82L74 82L74 81L72 81L72 80L73 80L73 78L74 78L74 79L75 79L75 80L76 80L76 78L78 78L78 77L80 77L80 78L79 78L79 79L77 79L77 82L76 82L76 81L75 81L75 83L74 83L74 84L73 84L73 85L72 85L72 84L70 84L70 85L72 85L72 86L71 86L71 87L73 87L73 90L71 90L71 89L72 89L72 88L71 88L71 89L70 89L70 90L71 90L71 91L70 91L70 93L71 93L71 94L68 94L68 92L69 92L69 91L68 91L68 92L66 92L66 93L67 93L67 94L66 94L66 95L65 95L65 96L67 96L67 95L68 95L68 96L69 96L69 95L72 95L72 94L73 94L73 95L74 95L74 94L75 94L75 92L74 92L74 91L73 91L73 90L74 90L74 88L75 88L75 87L77 87L77 88L76 88L76 91L77 91L77 92L76 92L76 95L75 95L75 96L76 96L76 95L77 95L77 94L79 94L79 95L81 95L81 96L83 96L83 95L84 95L84 93L85 93L85 94L86 94L86 93L85 93L85 92L88 92L88 91L87 91L87 90L86 90L86 87L87 87L87 88L89 88L89 87L87 87L87 86L88 86L88 85L89 85L89 86L90 86L90 87L91 87L91 85L92 85L92 86L93 86L93 87L92 87L92 88L93 88L93 90L94 90L94 88L95 88L95 87L94 87L94 85L96 85L96 83L95 83L95 81L94 81L94 83L92 83L92 82L93 82L93 81L92 81L92 82L91 82L91 81L90 81L90 79L88 79L88 81L87 81L87 82L88 82L88 81L89 81L89 82L90 82L90 83L86 83L86 85L85 85L85 84L83 84L83 83L85 83L85 82L86 82L86 80L83 80L83 83L82 83L82 82L80 82L80 80L82 80L82 79L85 79L85 78L86 78L86 79L87 79L87 78L88 78L88 77L89 77L89 76L90 76L90 75L91 75L91 74L90 74L90 73L89 73L89 72L90 72L90 70L89 70L89 71L88 71L88 73L87 73L87 72L86 72L86 71L83 71L83 73L82 73L82 70L80 70L80 72L78 72L78 71L77 71L77 73L75 73L75 74L79 74L79 73L80 73L80 75L82 75L82 76L78 76L78 75L77 75L77 76L78 76L78 77L76 77L76 78L74 78L74 75L73 75L73 74L74 74L74 72L76 72L76 70L78 70L78 69L80 69L80 68L78 68L78 67L79 67L79 66L78 66L78 63L82 63L82 62L83 62L83 63L84 63L84 62L86 62L86 61L87 61L87 62L88 62L88 61L87 61L87 59L86 59L86 60L83 60L83 59L82 59L82 58L81 58L81 56L82 56L82 57L83 57L83 58L84 58L84 57L85 57L85 58L86 58L86 56L88 56L88 57L87 57L87 58L89 58L89 57L90 57L90 59L88 59L88 60L90 60L90 59L91 59L91 60L93 60L93 56L96 56L96 55L94 55L94 53L93 53L93 52L92 52L92 55L93 55L93 56L89 56L89 55L90 55L90 54L89 54L89 55L87 55L87 53L91 53L91 52L90 52L90 51L91 51L91 50L90 50L90 48L89 48L89 47L90 47L90 45L91 45L91 44L89 44L89 43L88 43L88 42L91 42L91 40L89 40L89 39L87 39L87 38L88 38L88 37L87 37L87 38L86 38L86 36L88 36L88 35L86 35L86 34L88 34L88 32L91 32L91 31L92 31L92 32L95 32L95 31L96 31L96 30L95 30L95 29L96 29L96 27L94 27L94 28L93 28L93 27L92 27L92 29L94 29L94 30L95 30L95 31L92 31L92 30L91 30L91 27L89 27L89 25L88 25L88 27L89 27L89 28L87 28L87 27L85 27L85 28L86 28L86 29L84 29L84 28L83 28L83 27L82 27L82 26L80 26L80 25L81 25L81 24L78 24L78 23L77 23L77 22L79 22L79 23L82 23L82 25L84 25L84 24L83 24L83 23L85 23L85 22L86 22L86 21L85 21L85 20L83 20L83 19L82 19L82 18L81 18L81 17L80 17L80 16L79 16L79 15L78 15L78 17L76 17L76 18L78 18L78 20L77 20L77 19L74 19L74 21L73 21L73 20L71 20L71 17L72 17L72 16L69 16L69 17L68 17L68 16L66 16L66 17L65 17L65 18L64 18L64 20L63 20L63 21L64 21L64 20L65 20L65 18L66 18L66 21L65 21L65 22L64 22L64 23L63 23L63 22L62 22L62 23L63 23L63 24L61 24L61 25L60 25L60 23L58 23L58 22L60 22L60 21L59 21L59 20L60 20L60 19L58 19L58 18L61 18L61 19L63 19L63 18L61 18L61 17L62 17L62 16L60 16L60 17L59 17L59 15L57 15L57 16L56 16L56 15L55 15L55 14L56 14L56 13L57 13L57 14L61 14L61 13L62 13L62 15L63 15L63 17L64 17L64 16L65 16L65 15L66 15L66 14L67 14L67 13L68 13L68 12L66 12L66 11L67 11L67 10L68 10L68 11L71 11L71 10L72 10L72 9L73 9L73 10L74 10L74 8L76 8L76 6L77 6L77 5L78 5L78 6L79 6L79 7L80 7L80 6L81 6L81 7L82 7L82 6L81 6L81 4L80 4L80 3L79 3L79 4L78 4L78 2L77 2L77 1L76 1L76 2L75 2L75 3L74 3L74 2L72 2L72 3L74 3L74 4L73 4L73 5L75 5L75 7L74 7L74 6L73 6L73 7L72 7L72 8L71 8L71 9L70 9L70 10L68 10L68 8L67 8L67 7L66 7L66 6L65 6L65 8L67 8L67 9L64 9L64 10L63 10L63 9L62 9L62 11L63 11L63 12L61 12L61 13L57 13L57 12L56 12L56 13L55 13L55 14L54 14L54 15L53 15L53 16L51 16L51 15L50 15L50 14L53 14L53 12L54 12L54 11L57 11L57 10L58 10L58 12L60 12L60 11L59 11L59 10L61 10L61 9L60 9L60 6L59 6L59 7L58 7L58 6L57 6L57 7L58 7L58 9L57 9L57 8L54 8L54 9L55 9L55 10L53 10L53 8L52 8L52 10L53 10L53 12L52 12L52 11L51 11L51 12L52 12L52 13L50 13L50 12L49 12L49 11L50 11L50 10L51 10L51 9L50 9L50 10L49 10L49 9L48 9L48 8L49 8L49 7L50 7L50 6L51 6L51 7L52 7L52 6L53 6L53 7L54 7L54 5L52 5L52 6L51 6L51 3L52 3L52 4L54 4L54 1L53 1L53 3L52 3L52 2L49 2L49 4L50 4L50 5L49 5L49 7L48 7L48 5L47 5L47 4L48 4L48 1ZM68 1L68 2L69 2L69 1ZM11 2L11 3L12 3L12 2ZM30 2L30 3L29 3L29 4L30 4L30 5L28 5L28 6L27 6L27 7L28 7L28 6L29 6L29 7L30 7L30 5L31 5L31 8L32 8L32 4L30 4L30 3L31 3L31 2ZM76 2L76 3L75 3L75 4L76 4L76 5L77 5L77 4L76 4L76 3L77 3L77 2ZM20 3L20 4L21 4L21 3ZM27 3L27 4L28 4L28 3ZM45 3L45 4L46 4L46 3ZM8 5L8 7L9 7L9 5ZM33 5L33 8L36 8L36 5ZM45 5L45 6L44 6L44 8L45 8L45 9L42 9L42 10L41 10L41 9L40 9L40 10L37 10L37 11L36 11L36 12L37 12L37 11L39 11L39 12L41 12L41 13L40 13L40 14L39 14L39 15L38 15L38 16L42 16L42 15L40 15L40 14L44 14L44 16L45 16L45 15L47 15L47 18L45 18L45 17L44 17L44 18L43 18L43 17L42 17L42 18L43 18L43 21L42 21L42 22L43 22L43 24L45 24L45 25L44 25L44 26L43 26L43 25L42 25L42 26L43 26L43 27L44 27L44 28L45 28L45 29L44 29L44 30L42 30L42 29L41 29L41 30L39 30L39 28L42 28L42 27L40 27L40 26L38 26L38 27L37 27L37 25L40 25L40 23L39 23L39 22L38 22L38 21L37 21L37 19L36 19L36 18L38 18L38 20L39 20L39 21L40 21L40 20L42 20L42 19L40 19L40 18L41 18L41 17L40 17L40 18L38 18L38 17L34 17L34 16L33 16L33 17L34 17L34 18L33 18L33 19L34 19L34 18L35 18L35 19L36 19L36 21L35 21L35 22L36 22L36 21L37 21L37 22L38 22L38 24L37 24L37 25L32 25L32 26L30 26L30 25L31 25L31 24L30 24L30 22L33 22L33 23L32 23L32 24L33 24L33 23L34 23L34 22L33 22L33 21L34 21L34 20L31 20L31 19L32 19L32 18L30 18L30 19L29 19L29 18L28 18L28 19L27 19L27 20L26 20L26 21L25 21L25 20L24 20L24 21L25 21L25 22L27 22L27 23L26 23L26 24L28 24L28 25L25 25L25 26L26 26L26 27L27 27L27 28L28 28L28 29L25 29L25 27L24 27L24 26L23 26L23 27L22 27L22 28L23 28L23 27L24 27L24 29L25 29L25 30L27 30L27 31L26 31L26 32L27 32L27 31L28 31L28 33L25 33L25 35L24 35L24 36L23 36L23 37L24 37L24 36L27 36L27 37L25 37L25 38L27 38L27 40L26 40L26 39L23 39L23 38L22 38L22 40L21 40L21 37L22 37L22 36L20 36L20 42L19 42L19 39L18 39L18 41L17 41L17 44L18 44L18 47L20 47L20 48L19 48L19 49L20 49L20 50L18 50L18 52L17 52L17 53L14 53L14 52L15 52L15 51L12 51L12 50L10 50L10 52L13 52L13 53L14 53L14 55L15 55L15 57L14 57L14 56L13 56L13 58L12 58L12 57L11 57L11 59L14 59L14 60L12 60L12 62L13 62L13 63L15 63L15 61L17 61L17 59L18 59L18 61L19 61L19 62L20 62L20 63L21 63L21 62L20 62L20 61L22 61L22 62L23 62L23 63L22 63L22 64L23 64L23 65L21 65L21 64L20 64L20 66L19 66L19 65L16 65L16 64L19 64L19 63L17 63L17 62L16 62L16 64L13 64L13 65L12 65L12 64L11 64L11 66L10 66L10 65L9 65L9 68L10 68L10 67L11 67L11 66L12 66L12 67L13 67L13 65L16 65L16 66L15 66L15 67L16 67L16 66L19 66L19 67L20 67L20 69L19 69L19 70L18 70L18 68L17 68L17 70L18 70L18 71L16 71L16 70L14 70L14 72L15 72L15 71L16 71L16 72L17 72L17 74L22 74L22 72L21 72L21 73L20 73L20 70L22 70L22 71L23 71L23 70L22 70L22 69L24 69L24 70L25 70L25 71L24 71L24 72L26 72L26 73L24 73L24 75L25 75L25 77L26 77L26 78L24 78L24 79L26 79L26 78L28 78L28 77L31 77L31 78L30 78L30 79L31 79L31 80L32 80L32 81L31 81L31 82L30 82L30 81L29 81L29 80L28 80L28 79L27 79L27 80L26 80L26 81L24 81L24 83L25 83L25 82L26 82L26 81L27 81L27 83L28 83L28 84L29 84L29 82L30 82L30 85L31 85L31 86L30 86L30 87L31 87L31 88L32 88L32 87L33 87L33 86L32 86L32 85L31 85L31 84L34 84L34 86L36 86L36 85L35 85L35 83L31 83L31 82L32 82L32 81L34 81L34 80L35 80L35 81L37 81L37 83L36 83L36 84L38 84L38 85L39 85L39 86L40 86L40 88L39 88L39 89L40 89L40 88L42 88L42 89L41 89L41 91L40 91L40 92L42 92L42 90L43 90L43 92L45 92L45 91L44 91L44 90L43 90L43 88L45 88L45 87L46 87L46 85L47 85L47 86L48 86L48 87L49 87L49 86L50 86L50 85L51 85L51 84L52 84L52 83L53 83L53 82L57 82L57 81L56 81L56 80L57 80L57 79L59 79L59 78L62 78L62 77L61 77L61 76L62 76L62 75L59 75L59 74L60 74L60 72L62 72L62 71L59 71L59 70L60 70L60 68L61 68L61 69L62 69L62 67L59 67L59 68L58 68L58 69L59 69L59 70L56 70L56 68L57 68L57 67L58 67L58 66L56 66L56 64L57 64L57 65L58 65L58 63L59 63L59 64L60 64L60 65L62 65L62 66L64 66L64 67L63 67L63 68L64 68L64 70L65 70L65 71L67 71L67 72L69 72L69 74L73 74L73 73L71 73L71 72L72 72L72 70L73 70L73 71L75 71L75 70L73 70L73 69L72 69L72 70L71 70L71 71L67 71L67 70L68 70L68 69L67 69L67 70L65 70L65 68L64 68L64 67L66 67L66 68L68 68L68 66L71 66L71 67L69 67L69 70L70 70L70 69L71 69L71 68L72 68L72 67L73 67L73 68L74 68L74 69L76 69L76 68L74 68L74 67L75 67L75 66L74 66L74 67L73 67L73 66L72 66L72 65L73 65L73 64L72 64L72 63L74 63L74 62L77 62L77 63L76 63L76 64L75 64L75 65L76 65L76 66L77 66L77 63L78 63L78 62L77 62L77 61L79 61L79 62L80 62L80 61L81 61L81 62L82 62L82 59L78 59L78 58L77 58L77 57L79 57L79 56L81 56L81 55L79 55L79 56L77 56L77 54L74 54L74 55L73 55L73 54L72 54L72 53L73 53L73 51L78 51L78 50L79 50L79 47L80 47L80 48L84 48L84 49L81 49L81 50L80 50L80 51L79 51L79 52L78 52L78 54L80 54L80 53L81 53L81 54L82 54L82 56L83 56L83 55L84 55L84 56L85 56L85 53L86 53L86 52L85 52L85 51L89 51L89 48L88 48L88 50L87 50L87 49L86 49L86 50L85 50L85 47L86 47L86 48L87 48L87 47L89 47L89 44L87 44L87 45L86 45L86 46L84 46L84 45L85 45L85 43L86 43L86 42L84 42L84 43L83 43L83 44L84 44L84 45L83 45L83 47L80 47L80 46L82 46L82 45L79 45L79 47L78 47L78 48L77 48L77 47L76 47L76 44L77 44L77 45L78 45L78 44L82 44L82 43L78 43L78 42L79 42L79 41L78 41L78 42L77 42L77 41L76 41L76 40L77 40L77 39L78 39L78 38L82 38L82 39L79 39L79 40L81 40L81 42L83 42L83 41L82 41L82 39L83 39L83 40L84 40L84 39L85 39L85 41L86 41L86 39L85 39L85 38L84 38L84 39L83 39L83 36L84 36L84 35L85 35L85 36L86 36L86 35L85 35L85 34L84 34L84 35L83 35L83 34L82 34L82 32L85 32L85 31L87 31L87 32L88 32L88 29L86 29L86 30L85 30L85 31L84 31L84 29L83 29L83 30L82 30L82 27L80 27L80 26L79 26L79 27L78 27L78 26L77 26L77 23L76 23L76 22L77 22L77 21L76 21L76 20L75 20L75 23L76 23L76 24L74 24L74 22L73 22L73 21L71 21L71 22L70 22L70 21L69 21L69 22L70 22L70 23L71 23L71 22L72 22L72 23L73 23L73 24L72 24L72 26L73 26L73 27L70 27L70 28L72 28L72 31L71 31L71 32L73 32L73 33L71 33L71 34L73 34L73 36L74 36L74 34L75 34L75 33L76 33L76 34L77 34L77 35L75 35L75 37L74 37L74 38L72 38L72 37L70 37L70 36L72 36L72 35L70 35L70 36L69 36L69 37L66 37L66 38L65 38L65 35L66 35L66 34L65 34L65 31L66 31L66 32L67 32L67 31L66 31L66 30L64 30L64 29L63 29L63 28L64 28L64 27L63 27L63 26L65 26L65 27L66 27L66 28L65 28L65 29L67 29L67 30L69 30L69 31L68 31L68 32L69 32L69 31L70 31L70 30L71 30L71 29L69 29L69 28L68 28L68 27L69 27L69 26L70 26L70 25L71 25L71 24L70 24L70 25L69 25L69 26L68 26L68 25L67 25L67 23L66 23L66 22L68 22L68 21L66 21L66 22L65 22L65 23L66 23L66 25L67 25L67 26L68 26L68 27L66 27L66 26L65 26L65 24L64 24L64 25L61 25L61 26L60 26L60 27L61 27L61 26L62 26L62 27L63 27L63 28L62 28L62 29L61 29L61 30L60 30L60 28L59 28L59 31L58 31L58 30L57 30L57 31L56 31L56 29L54 29L54 30L53 30L53 29L52 29L52 28L53 28L53 27L54 27L54 28L55 28L55 27L54 27L54 26L56 26L56 28L57 28L57 29L58 29L58 27L59 27L59 26L58 26L58 27L57 27L57 26L56 26L56 24L58 24L58 23L56 23L56 22L57 22L57 21L56 21L56 20L57 20L57 17L58 17L58 16L57 16L57 17L56 17L56 20L55 20L55 15L54 15L54 17L53 17L53 18L52 18L52 19L51 19L51 18L50 18L50 17L51 17L51 16L50 16L50 17L49 17L49 16L48 16L48 15L49 15L49 14L50 14L50 13L49 13L49 12L48 12L48 11L49 11L49 10L48 10L48 11L47 11L47 10L46 10L46 7L47 7L47 8L48 8L48 7L47 7L47 5ZM61 5L61 8L64 8L64 5ZM79 5L79 6L80 6L80 5ZM11 6L11 9L12 9L12 10L11 10L11 12L12 12L12 10L14 10L14 9L15 9L15 8L14 8L14 9L13 9L13 7L14 7L14 6L13 6L13 7L12 7L12 6ZM21 6L21 7L22 7L22 6ZM24 6L24 7L25 7L25 6ZM34 6L34 7L35 7L35 6ZM39 6L39 7L40 7L40 6ZM45 6L45 7L46 7L46 6ZM55 6L55 7L56 7L56 6ZM62 6L62 7L63 7L63 6ZM73 7L73 8L74 8L74 7ZM0 8L0 12L2 12L2 13L4 13L4 14L3 14L3 15L2 15L2 14L0 14L0 15L2 15L2 16L1 16L1 17L0 17L0 18L1 18L1 19L0 19L0 20L1 20L1 21L2 21L2 19L3 19L3 17L4 17L4 16L5 16L5 13L4 13L4 11L3 11L3 10L4 10L4 9L5 9L5 8ZM27 8L27 9L28 9L28 8ZM29 8L29 9L30 9L30 8ZM89 8L89 9L90 9L90 8ZM91 8L91 9L92 9L92 8ZM93 8L93 9L94 9L94 8ZM95 8L95 10L96 10L96 11L97 11L97 10L96 10L96 8ZM1 9L1 11L2 11L2 10L3 10L3 9ZM31 9L31 10L30 10L30 12L32 12L32 11L31 11L31 10L33 10L33 9ZM56 9L56 10L57 10L57 9ZM40 10L40 11L41 11L41 12L42 12L42 13L44 13L44 14L45 14L45 13L46 13L46 14L47 14L47 15L48 15L48 14L47 14L47 13L46 13L46 12L47 12L47 11L46 11L46 10L42 10L42 11L41 11L41 10ZM86 10L86 11L87 11L87 10ZM22 11L22 12L23 12L23 11ZM42 11L42 12L43 12L43 11ZM44 11L44 12L46 12L46 11ZM64 11L64 12L65 12L65 11ZM85 12L85 14L86 14L86 15L87 15L87 17L85 17L85 18L87 18L87 19L86 19L86 20L87 20L87 21L88 21L88 20L92 20L92 21L91 21L91 23L88 23L88 22L87 22L87 24L90 24L90 26L93 26L93 25L91 25L91 23L92 23L92 24L95 24L95 23L96 23L96 21L93 21L93 19L94 19L94 20L95 20L95 17L94 17L94 18L93 18L93 17L92 17L92 16L90 16L90 17L89 17L89 18L91 18L91 19L88 19L88 18L87 18L87 17L88 17L88 16L89 16L89 15L88 15L88 14L90 14L90 13L88 13L88 12ZM94 12L94 13L95 13L95 12ZM96 12L96 13L97 13L97 12ZM13 13L13 14L15 14L15 13ZM34 13L34 14L35 14L35 15L36 15L36 16L37 16L37 14L38 14L38 13ZM63 13L63 14L64 14L64 13ZM77 13L77 14L78 14L78 13ZM86 13L86 14L88 14L88 13ZM3 15L3 16L4 16L4 15ZM20 15L20 16L21 16L21 15ZM9 16L9 17L10 17L10 16ZM28 16L28 17L29 17L29 16ZM1 17L1 18L2 18L2 17ZM48 17L48 18L49 18L49 19L48 19L48 20L47 20L47 19L46 19L46 21L45 21L45 20L44 20L44 21L43 21L43 22L44 22L44 21L45 21L45 22L47 22L47 25L46 25L46 26L44 26L44 27L45 27L45 28L46 28L46 26L47 26L47 28L48 28L48 27L49 27L49 26L51 26L51 27L50 27L50 28L49 28L49 31L50 31L50 32L49 32L49 35L48 35L48 33L47 33L47 32L46 32L46 33L45 33L45 32L44 32L44 31L43 31L43 32L42 32L42 33L41 33L41 32L39 32L39 33L38 33L38 31L39 31L39 30L37 30L37 35L38 35L38 34L39 34L39 33L40 33L40 36L39 36L39 37L38 37L38 36L37 36L37 37L38 37L38 38L37 38L37 40L38 40L38 41L36 41L36 39L35 39L35 40L32 40L32 42L31 42L31 44L30 44L30 42L24 42L24 41L26 41L26 40L24 40L24 41L23 41L23 40L22 40L22 41L21 41L21 42L20 42L20 44L19 44L19 43L18 43L18 44L19 44L19 46L20 46L20 47L21 47L21 42L22 42L22 41L23 41L23 42L24 42L24 43L25 43L25 45L22 45L22 46L25 46L25 47L23 47L23 48L22 48L22 50L21 50L21 51L19 51L19 53L18 53L18 54L19 54L19 55L20 55L20 54L22 54L22 57L20 57L20 56L18 56L18 55L17 55L17 54L15 54L15 55L17 55L17 56L18 56L18 57L15 57L15 58L18 58L18 59L19 59L19 58L18 58L18 57L20 57L20 58L22 58L22 59L23 59L23 58L24 58L24 59L25 59L25 60L24 60L24 61L23 61L23 62L24 62L24 61L26 61L26 60L27 60L27 59L26 59L26 58L27 58L27 57L28 57L28 58L29 58L29 59L28 59L28 60L29 60L29 61L28 61L28 64L27 64L27 63L26 63L26 62L25 62L25 63L23 63L23 64L24 64L24 65L23 65L23 66L20 66L20 67L21 67L21 69L22 69L22 68L23 68L23 66L24 66L24 65L28 65L28 64L29 64L29 65L30 65L30 66L25 66L25 68L24 68L24 69L28 69L28 70L26 70L26 72L29 72L29 73L28 73L28 76L26 76L26 77L28 77L28 76L29 76L29 73L30 73L30 72L31 72L31 74L32 74L32 76L31 76L31 75L30 75L30 76L31 76L31 77L32 77L32 76L33 76L33 77L34 77L34 75L35 75L35 77L36 77L36 75L38 75L38 78L31 78L31 79L38 79L38 78L39 78L39 81L38 81L38 80L37 80L37 81L38 81L38 82L39 82L39 83L42 83L42 84L44 84L44 85L45 85L45 84L46 84L46 83L47 83L47 85L48 85L48 83L49 83L49 84L51 84L51 83L52 83L52 82L53 82L53 80L54 80L54 79L56 79L56 78L59 78L59 77L60 77L60 76L59 76L59 75L58 75L58 76L59 76L59 77L57 77L57 76L56 76L56 73L57 73L57 74L59 74L59 73L58 73L58 71L57 71L57 72L56 72L56 71L55 71L55 70L52 70L52 71L51 71L51 72L50 72L50 70L51 70L51 68L52 68L52 69L53 69L53 68L54 68L54 67L55 67L55 68L56 68L56 66L53 66L53 65L55 65L55 64L54 64L54 63L55 63L55 62L54 62L54 61L55 61L55 60L56 60L56 63L58 63L58 62L59 62L59 63L60 63L60 61L57 61L57 60L58 60L58 59L57 59L57 58L59 58L59 60L60 60L60 59L61 59L61 60L65 60L65 59L61 59L61 58L64 58L64 57L65 57L65 58L66 58L66 59L68 59L68 60L66 60L66 61L65 61L65 62L66 62L66 63L65 63L65 64L66 64L66 63L68 63L68 64L67 64L67 65L69 65L69 63L71 63L71 61L72 61L72 60L70 60L70 59L71 59L71 57L72 57L72 56L71 56L71 55L70 55L70 54L71 54L71 53L72 53L72 52L71 52L71 51L73 51L73 50L74 50L74 49L75 49L75 50L78 50L78 49L77 49L77 48L76 48L76 47L74 47L74 46L75 46L75 45L72 45L72 44L76 44L76 43L77 43L77 44L78 44L78 43L77 43L77 42L76 42L76 43L72 43L72 42L75 42L75 40L76 40L76 39L72 39L72 40L70 40L70 42L66 42L66 41L68 41L68 40L67 40L67 39L65 39L65 38L64 38L64 37L61 37L61 38L60 38L60 37L59 37L59 36L56 36L56 35L57 35L57 34L56 34L56 33L57 33L57 32L56 32L56 31L55 31L55 30L54 30L54 31L55 31L55 32L51 32L51 31L50 31L50 30L51 30L51 27L52 27L52 26L54 26L54 23L55 23L55 24L56 24L56 23L55 23L55 22L54 22L54 20L51 20L51 21L50 21L50 18L49 18L49 17ZM66 17L66 18L67 18L67 17ZM69 17L69 18L68 18L68 19L67 19L67 20L68 20L68 19L69 19L69 20L70 20L70 19L69 19L69 18L70 18L70 17ZM79 17L79 18L80 18L80 19L79 19L79 20L78 20L78 21L79 21L79 20L80 20L80 22L82 22L82 23L83 23L83 22L82 22L82 21L81 21L81 20L80 20L80 19L81 19L81 18L80 18L80 17ZM44 18L44 19L45 19L45 18ZM53 18L53 19L54 19L54 18ZM72 18L72 19L73 19L73 18ZM92 18L92 19L93 19L93 18ZM87 19L87 20L88 20L88 19ZM10 20L10 22L11 22L11 23L12 23L12 20ZM28 20L28 21L31 21L31 20ZM48 20L48 21L47 21L47 22L48 22L48 23L49 23L49 24L48 24L48 25L50 25L50 24L53 24L53 23L52 23L52 22L50 22L50 23L49 23L49 20ZM61 20L61 21L62 21L62 20ZM5 21L5 22L7 22L7 21ZM89 21L89 22L90 22L90 21ZM0 22L0 23L1 23L1 24L0 24L0 25L1 25L1 24L2 24L2 23L1 23L1 22ZM28 22L28 24L29 24L29 25L28 25L28 26L27 26L27 27L28 27L28 28L29 28L29 29L30 29L30 30L29 30L29 33L30 33L30 34L28 34L28 36L29 36L29 37L28 37L28 40L27 40L27 41L28 41L28 40L29 40L29 41L30 41L30 40L31 40L31 39L33 39L33 38L36 38L36 37L31 37L31 36L29 36L29 35L30 35L30 34L32 34L32 31L31 31L31 28L32 28L32 30L33 30L33 32L34 32L34 30L33 30L33 29L35 29L35 28L36 28L36 26L32 26L32 27L31 27L31 28L30 28L30 27L29 27L29 25L30 25L30 24L29 24L29 22ZM92 22L92 23L94 23L94 22ZM6 23L6 24L7 24L7 23ZM35 23L35 24L36 24L36 23ZM41 23L41 24L42 24L42 23ZM68 23L68 24L69 24L69 23ZM73 25L73 26L74 26L74 25ZM85 25L85 26L87 26L87 25ZM76 26L76 27L73 27L73 30L74 30L74 28L76 28L76 27L77 27L77 26ZM33 27L33 28L34 28L34 27ZM37 28L37 29L38 29L38 28ZM67 28L67 29L68 29L68 28ZM78 28L78 29L77 29L77 30L76 30L76 29L75 29L75 32L74 32L74 31L73 31L73 32L74 32L74 33L73 33L73 34L74 34L74 33L75 33L75 32L76 32L76 31L77 31L77 30L78 30L78 31L79 31L79 30L80 30L80 31L81 31L81 28ZM89 28L89 29L90 29L90 28ZM94 28L94 29L95 29L95 28ZM45 29L45 30L46 30L46 31L48 31L48 29L47 29L47 30L46 30L46 29ZM62 29L62 30L61 30L61 31L59 31L59 32L61 32L61 31L62 31L62 32L63 32L63 31L64 31L64 30L63 30L63 29ZM78 29L78 30L79 30L79 29ZM35 30L35 32L36 32L36 30ZM41 30L41 31L42 31L42 30ZM62 30L62 31L63 31L63 30ZM90 30L90 31L91 31L91 30ZM9 31L9 32L10 32L10 31ZM30 31L30 33L31 33L31 31ZM13 32L13 33L14 33L14 34L12 34L12 33L11 33L11 34L12 34L12 35L14 35L14 36L13 36L13 37L11 37L11 36L10 36L10 37L11 37L11 38L10 38L10 39L8 39L8 40L11 40L11 41L10 41L10 43L11 43L11 44L9 44L9 45L7 45L7 44L6 44L6 45L7 45L7 46L6 46L6 47L7 47L7 48L8 48L8 47L7 47L7 46L9 46L9 47L10 47L10 46L11 46L11 45L12 45L12 46L13 46L13 49L14 49L14 50L16 50L16 51L17 51L17 49L18 49L18 48L17 48L17 47L16 47L16 46L17 46L17 45L16 45L16 43L15 43L15 41L14 41L14 40L16 40L16 39L15 39L15 38L18 38L18 35L17 35L17 34L16 34L16 33L17 33L17 32L16 32L16 33L14 33L14 32ZM43 32L43 33L42 33L42 34L44 34L44 35L46 35L46 37L47 37L47 38L45 38L45 36L43 36L43 35L42 35L42 36L40 36L40 37L39 37L39 38L38 38L38 39L39 39L39 40L41 40L41 41L42 41L42 42L41 42L41 43L39 43L39 42L33 42L33 43L34 43L34 44L35 44L35 45L36 45L36 46L33 46L33 47L32 47L32 45L33 45L33 44L32 44L32 45L30 45L30 46L31 46L31 47L32 47L32 48L30 48L30 49L29 49L29 47L28 47L28 46L29 46L29 43L27 43L27 44L26 44L26 45L27 45L27 46L26 46L26 47L25 47L25 48L26 48L26 47L27 47L27 48L28 48L28 49L24 49L24 48L23 48L23 49L24 49L24 50L25 50L25 51L24 51L24 52L27 52L27 53L23 53L23 52L22 52L22 51L21 51L21 52L20 52L20 53L19 53L19 54L20 54L20 53L22 53L22 54L23 54L23 57L24 57L24 58L26 58L26 57L27 57L27 56L26 56L26 57L24 57L24 56L25 56L25 55L26 55L26 54L27 54L27 53L29 53L29 54L28 54L28 57L29 57L29 58L30 58L30 61L29 61L29 62L30 62L30 63L31 63L31 62L30 62L30 61L31 61L31 60L32 60L32 66L33 66L33 67L31 67L31 66L30 66L30 67L31 67L31 68L34 68L34 65L36 65L36 66L35 66L35 69L37 69L37 70L38 70L38 71L40 71L40 72L42 72L42 74L41 74L41 73L39 73L39 74L38 74L38 75L40 75L40 76L41 76L41 78L43 78L43 77L42 77L42 76L45 76L45 77L44 77L44 79L43 79L43 80L42 80L42 79L40 79L40 80L41 80L41 82L43 82L43 80L46 80L46 78L45 78L45 77L46 77L46 75L49 75L49 76L47 76L47 78L48 78L48 79L49 79L49 78L50 78L50 79L51 79L51 80L53 80L53 78L50 78L50 77L49 77L49 76L51 76L51 74L50 74L50 72L48 72L48 71L49 71L49 70L50 70L50 68L48 68L48 66L46 66L46 67L47 67L47 68L48 68L48 71L46 71L46 69L45 69L45 71L40 71L40 70L38 70L38 67L36 67L36 66L38 66L38 65L37 65L37 63L38 63L38 62L37 62L37 61L38 61L38 60L37 60L37 59L38 59L38 57L36 57L36 55L37 55L37 54L38 54L38 55L39 55L39 54L38 54L38 52L37 52L37 50L38 50L38 51L39 51L39 52L41 52L41 51L40 51L40 50L42 50L42 53L41 53L41 54L42 54L42 57L41 57L41 58L39 58L39 60L41 60L41 61L40 61L40 62L39 62L39 63L40 63L40 64L41 64L41 63L42 63L42 65L41 65L41 66L39 66L39 67L41 67L41 70L44 70L44 69L42 69L42 67L43 67L43 68L44 68L44 67L43 67L43 65L44 65L44 64L47 64L47 63L50 63L50 65L51 65L51 64L53 64L53 63L51 63L51 62L49 62L49 61L50 61L50 60L51 60L51 61L52 61L52 60L53 60L53 59L54 59L54 58L57 58L57 57L58 57L58 56L57 56L57 55L59 55L59 54L57 54L57 53L60 53L60 52L62 52L62 54L63 54L63 56L62 56L62 55L61 55L61 54L60 54L60 56L59 56L59 57L63 57L63 56L64 56L64 54L65 54L65 56L66 56L66 57L67 57L67 55L66 55L66 54L65 54L65 53L64 53L64 51L66 51L66 50L64 50L64 48L63 48L63 50L62 50L62 51L61 51L61 49L60 49L60 52L58 52L58 51L59 51L59 50L57 50L57 49L59 49L59 48L58 48L58 47L59 47L59 46L58 46L58 47L54 47L54 46L56 46L56 44L58 44L58 43L59 43L59 42L57 42L57 43L56 43L56 44L53 44L53 43L52 43L52 40L54 40L54 39L52 39L52 36L54 36L54 34L55 34L55 33L52 33L52 34L53 34L53 35L52 35L52 36L51 36L51 35L50 35L50 37L49 37L49 36L48 36L48 35L47 35L47 34L44 34L44 32ZM77 32L77 34L78 34L78 33L80 33L80 34L79 34L79 35L81 35L81 36L78 36L78 37L77 37L77 36L76 36L76 38L78 38L78 37L81 37L81 36L83 36L83 35L81 35L81 32ZM5 33L5 36L8 36L8 33ZM22 33L22 34L23 34L23 33ZM33 33L33 36L36 36L36 33ZM58 33L58 34L59 34L59 35L60 35L60 34L59 34L59 33ZM61 33L61 36L64 36L64 33ZM69 33L69 34L70 34L70 33ZM89 33L89 36L92 36L92 33ZM93 33L93 34L94 34L94 33ZM6 34L6 35L7 35L7 34ZM15 34L15 35L16 35L16 36L15 36L15 37L17 37L17 35L16 35L16 34ZM34 34L34 35L35 35L35 34ZM62 34L62 35L63 35L63 34ZM90 34L90 35L91 35L91 34ZM3 35L3 36L4 36L4 35ZM67 35L67 36L68 36L68 35ZM42 36L42 37L43 37L43 38L41 38L41 39L43 39L43 38L44 38L44 37L43 37L43 36ZM47 36L47 37L48 37L48 36ZM55 36L55 37L53 37L53 38L55 38L55 37L56 37L56 38L57 38L57 39L55 39L55 40L58 40L58 41L60 41L60 40L58 40L58 39L59 39L59 38L57 38L57 37L56 37L56 36ZM29 37L29 38L30 38L30 39L31 39L31 38L30 38L30 37ZM50 37L50 38L49 38L49 39L48 39L48 38L47 38L47 39L46 39L46 42L44 42L44 41L45 41L45 40L43 40L43 42L42 42L42 43L41 43L41 44L39 44L39 43L37 43L37 44L36 44L36 43L35 43L35 44L36 44L36 45L38 45L38 46L39 46L39 45L41 45L41 44L43 44L43 45L44 45L44 46L40 46L40 47L41 47L41 48L39 48L39 47L37 47L37 48L38 48L38 50L39 50L39 49L42 49L42 47L45 47L45 48L43 48L43 49L44 49L44 50L43 50L43 52L44 52L44 53L45 53L45 54L47 54L47 55L46 55L46 58L45 58L45 56L43 56L43 57L44 57L44 59L43 59L43 61L46 61L46 62L44 62L44 63L43 63L43 64L44 64L44 63L47 63L47 61L48 61L48 60L49 60L49 59L46 59L46 58L47 58L47 57L48 57L48 56L50 56L50 57L49 57L49 58L51 58L51 57L52 57L52 59L51 59L51 60L52 60L52 59L53 59L53 58L54 58L54 57L55 57L55 56L56 56L56 57L57 57L57 56L56 56L56 55L55 55L55 56L54 56L54 54L53 54L53 53L54 53L54 51L55 51L55 52L56 52L56 53L55 53L55 54L56 54L56 53L57 53L57 52L56 52L56 51L57 51L57 50L53 50L53 48L54 48L54 49L57 49L57 48L54 48L54 47L53 47L53 46L54 46L54 45L53 45L53 44L52 44L52 43L51 43L51 44L50 44L50 42L51 42L51 41L50 41L50 40L52 40L52 39L50 39L50 38L51 38L51 37ZM89 37L89 38L90 38L90 39L91 39L91 38L90 38L90 37ZM39 38L39 39L40 39L40 38ZM61 38L61 41L62 41L62 42L61 42L61 43L60 43L60 44L61 44L61 43L62 43L62 44L63 44L63 43L64 43L64 44L65 44L65 45L66 45L66 46L64 46L64 45L63 45L63 46L62 46L62 47L67 47L67 48L65 48L65 49L67 49L67 50L68 50L68 51L67 51L67 52L66 52L66 53L67 53L67 52L68 52L68 51L69 51L69 50L70 50L70 49L71 49L71 50L73 50L73 49L71 49L71 47L70 47L70 49L69 49L69 50L68 50L68 49L67 49L67 48L69 48L69 47L68 47L68 46L67 46L67 44L68 44L68 45L69 45L69 46L70 46L70 45L71 45L71 44L72 44L72 43L66 43L66 42L65 42L65 43L64 43L64 42L63 42L63 41L64 41L64 40L63 40L63 39L64 39L64 38L63 38L63 39L62 39L62 38ZM68 38L68 39L71 39L71 38ZM12 39L12 41L13 41L13 40L14 40L14 39ZM47 39L47 40L48 40L48 41L47 41L47 42L46 42L46 44L45 44L45 43L43 43L43 44L45 44L45 47L46 47L46 48L45 48L45 49L47 49L47 50L45 50L45 51L44 51L44 52L46 52L46 51L47 51L47 52L48 52L48 53L49 53L49 54L50 54L50 53L49 53L49 52L48 52L48 51L49 51L49 49L50 49L50 48L47 48L47 47L48 47L48 46L50 46L50 47L51 47L51 48L53 48L53 47L51 47L51 46L52 46L52 45L51 45L51 46L50 46L50 44L47 44L47 42L48 42L48 43L49 43L49 42L50 42L50 41L49 41L49 40L48 40L48 39ZM6 40L6 41L7 41L7 40ZM72 40L72 41L74 41L74 40ZM88 40L88 41L87 41L87 42L88 42L88 41L89 41L89 40ZM8 41L8 42L9 42L9 41ZM53 41L53 42L55 42L55 41ZM11 42L11 43L12 43L12 45L14 45L14 48L15 48L15 49L17 49L17 48L16 48L16 47L15 47L15 44L13 44L13 43L14 43L14 42L13 42L13 43L12 43L12 42ZM92 42L92 43L93 43L93 44L92 44L92 47L91 47L91 48L92 48L92 50L94 50L94 48L95 48L95 47L96 47L96 46L95 46L95 45L96 45L96 44L95 44L95 43L96 43L96 42L95 42L95 43L93 43L93 42ZM22 43L22 44L23 44L23 43ZM2 44L2 45L1 45L1 47L2 47L2 46L3 46L3 44ZM27 44L27 45L28 45L28 44ZM38 44L38 45L39 45L39 44ZM69 44L69 45L70 45L70 44ZM93 44L93 47L92 47L92 48L94 48L94 47L95 47L95 46L94 46L94 45L95 45L95 44ZM46 45L46 46L48 46L48 45ZM60 45L60 48L61 48L61 45ZM87 45L87 46L86 46L86 47L87 47L87 46L88 46L88 45ZM72 46L72 48L74 48L74 47L73 47L73 46ZM11 47L11 48L10 48L10 49L11 49L11 48L12 48L12 47ZM34 47L34 48L35 48L35 49L32 49L32 52L31 52L31 55L30 55L30 54L29 54L29 57L30 57L30 58L31 58L31 59L32 59L32 58L31 58L31 57L33 57L33 58L34 58L34 59L33 59L33 60L34 60L34 59L36 59L36 58L34 58L34 57L33 57L33 56L34 56L34 55L33 55L33 53L32 53L32 52L33 52L33 50L36 50L36 47ZM75 48L75 49L76 49L76 48ZM30 49L30 50L31 50L31 49ZM28 50L28 51L27 51L27 52L29 52L29 53L30 53L30 52L29 52L29 50ZM47 50L47 51L48 51L48 50ZM50 50L50 51L51 51L51 52L53 52L53 51L52 51L52 50ZM81 50L81 51L80 51L80 52L79 52L79 53L80 53L80 52L81 52L81 53L82 53L82 52L83 52L83 54L84 54L84 52L83 52L83 51L82 51L82 50ZM84 50L84 51L85 51L85 50ZM35 51L35 53L34 53L34 54L37 54L37 53L36 53L36 51ZM62 51L62 52L63 52L63 51ZM94 51L94 52L95 52L95 51ZM8 52L8 53L9 53L9 52ZM70 52L70 53L69 53L69 54L70 54L70 53L71 53L71 52ZM75 52L75 53L76 53L76 52ZM63 53L63 54L64 54L64 53ZM0 54L0 55L1 55L1 54ZM2 54L2 55L3 55L3 54ZM24 54L24 55L25 55L25 54ZM52 54L52 55L51 55L51 56L52 56L52 55L53 55L53 54ZM31 55L31 56L32 56L32 55ZM40 55L40 56L39 56L39 57L40 57L40 56L41 56L41 55ZM47 55L47 56L48 56L48 55ZM68 55L68 57L69 57L69 58L68 58L68 59L69 59L69 58L70 58L70 57L69 57L69 56L70 56L70 55ZM74 55L74 57L73 57L73 58L75 58L75 60L76 60L76 59L77 59L77 60L78 60L78 59L77 59L77 58L76 58L76 57L77 57L77 56L76 56L76 55ZM75 56L75 57L76 57L76 56ZM6 57L6 58L5 58L5 60L7 60L7 59L8 59L8 60L9 60L9 59L8 59L8 58L7 58L7 57ZM91 57L91 58L92 58L92 57ZM6 58L6 59L7 59L7 58ZM96 58L96 59L97 59L97 58ZM15 59L15 60L14 60L14 61L13 61L13 62L14 62L14 61L15 61L15 60L16 60L16 59ZM41 59L41 60L42 60L42 59ZM44 59L44 60L46 60L46 59ZM56 59L56 60L57 60L57 59ZM73 59L73 60L74 60L74 59ZM79 60L79 61L80 61L80 60ZM5 61L5 64L8 64L8 61ZM33 61L33 64L36 64L36 61ZM41 61L41 62L40 62L40 63L41 63L41 62L42 62L42 61ZM61 61L61 64L64 64L64 61ZM67 61L67 62L70 62L70 61ZM73 61L73 62L74 62L74 61ZM83 61L83 62L84 62L84 61ZM89 61L89 64L92 64L92 61ZM2 62L2 63L1 63L1 64L2 64L2 65L3 65L3 64L4 64L4 63L3 63L3 62ZM6 62L6 63L7 63L7 62ZM9 62L9 63L10 63L10 62ZM34 62L34 63L35 63L35 62ZM62 62L62 63L63 63L63 62ZM90 62L90 63L91 63L91 62ZM93 62L93 63L94 63L94 62ZM95 62L95 63L96 63L96 62ZM2 63L2 64L3 64L3 63ZM25 63L25 64L26 64L26 63ZM86 63L86 64L87 64L87 63ZM30 64L30 65L31 65L31 64ZM48 64L48 65L49 65L49 64ZM70 64L70 65L72 65L72 64ZM79 64L79 65L80 65L80 64ZM81 64L81 65L82 65L82 64ZM64 65L64 66L66 66L66 67L67 67L67 66L66 66L66 65ZM49 66L49 67L52 67L52 68L53 68L53 66ZM81 66L81 67L82 67L82 68L83 68L83 69L84 69L84 68L85 68L85 67L84 67L84 68L83 68L83 67L82 67L82 66ZM89 66L89 67L90 67L90 66ZM95 66L95 69L96 69L96 68L97 68L97 66ZM26 67L26 68L28 68L28 67ZM12 68L12 70L13 70L13 69L15 69L15 68ZM39 68L39 69L40 69L40 68ZM92 68L92 69L93 69L93 70L92 70L92 71L94 71L94 68ZM0 69L0 70L2 70L2 69ZM3 69L3 70L4 70L4 69ZM9 69L9 70L10 70L10 69ZM29 69L29 72L30 72L30 70L34 70L34 69ZM96 70L96 71L97 71L97 70ZM6 71L6 72L7 72L7 71ZM31 71L31 72L32 72L32 73L33 73L33 74L37 74L37 71L36 71L36 73L35 73L35 71L34 71L34 73L33 73L33 71ZM52 71L52 72L51 72L51 73L52 73L52 72L53 72L53 74L52 74L52 76L53 76L53 74L55 74L55 71ZM63 71L63 72L64 72L64 71ZM18 72L18 73L19 73L19 72ZM43 72L43 74L42 74L42 75L44 75L44 73L46 73L46 74L45 74L45 75L46 75L46 74L48 74L48 72ZM84 72L84 75L83 75L83 76L82 76L82 77L81 77L81 78L82 78L82 77L83 77L83 76L87 76L87 75L88 75L88 76L89 76L89 75L88 75L88 74L89 74L89 73L88 73L88 74L87 74L87 75L86 75L86 74L85 74L85 72ZM13 73L13 74L12 74L12 75L14 75L14 76L12 76L12 77L13 77L13 78L12 78L12 79L11 79L11 82L12 82L12 84L13 84L13 85L16 85L16 86L15 86L15 87L13 87L13 88L14 88L14 89L15 89L15 90L17 90L17 89L18 89L18 88L17 88L17 89L15 89L15 87L16 87L16 86L17 86L17 87L18 87L18 86L20 86L20 85L21 85L21 84L20 84L20 82L23 82L23 81L21 81L21 80L23 80L23 78L22 78L22 76L23 76L23 77L24 77L24 76L23 76L23 75L21 75L21 76L20 76L20 75L19 75L19 76L18 76L18 75L16 75L16 74L15 74L15 75L14 75L14 73ZM61 73L61 74L62 74L62 73ZM64 73L64 75L63 75L63 76L64 76L64 77L66 77L66 78L65 78L65 79L60 79L60 80L61 80L61 81L62 81L62 83L60 83L60 84L64 84L64 83L63 83L63 82L65 82L65 84L68 84L68 83L66 83L66 82L67 82L67 80L66 80L66 82L65 82L65 79L67 79L67 76L65 76L65 75L67 75L67 74L65 74L65 73ZM81 73L81 74L82 74L82 73ZM92 73L92 74L93 74L93 73ZM26 74L26 75L27 75L27 74ZM40 74L40 75L41 75L41 74ZM49 74L49 75L50 75L50 74ZM15 75L15 77L14 77L14 79L12 79L12 82L13 82L13 80L14 80L14 83L13 83L13 84L15 84L15 83L16 83L16 80L17 80L17 84L16 84L16 85L17 85L17 84L18 84L18 85L19 85L19 82L20 82L20 80L17 80L17 79L21 79L21 78L20 78L20 76L19 76L19 77L17 77L17 76L16 76L16 75ZM71 75L71 76L72 76L72 77L73 77L73 76L72 76L72 75ZM75 75L75 76L76 76L76 75ZM6 76L6 77L7 77L7 78L6 78L6 79L5 79L5 80L6 80L6 79L7 79L7 78L8 78L8 77L7 77L7 76ZM55 76L55 77L54 77L54 78L55 78L55 77L56 77L56 76ZM86 77L86 78L87 78L87 77ZM16 78L16 79L17 79L17 78ZM14 79L14 80L15 80L15 79ZM79 79L79 80L78 80L78 82L77 82L77 83L75 83L75 85L74 85L74 86L73 86L73 87L75 87L75 86L76 86L76 85L77 85L77 83L78 83L78 84L79 84L79 83L78 83L78 82L79 82L79 80L80 80L80 79ZM27 80L27 81L28 81L28 82L29 82L29 81L28 81L28 80ZM47 80L47 81L48 81L48 82L47 82L47 83L48 83L48 82L50 82L50 81L49 81L49 80ZM62 80L62 81L63 81L63 80ZM9 81L9 82L10 82L10 81ZM18 81L18 82L19 82L19 81ZM44 81L44 84L45 84L45 83L46 83L46 81ZM51 81L51 82L52 82L52 81ZM59 81L59 82L58 82L58 83L56 83L56 84L55 84L55 83L54 83L54 84L53 84L53 86L56 86L56 84L58 84L58 85L59 85L59 86L57 86L57 87L59 87L59 86L60 86L60 85L59 85L59 84L58 84L58 83L59 83L59 82L60 82L60 81ZM22 83L22 85L23 85L23 83ZM80 83L80 84L81 84L81 85L78 85L78 86L77 86L77 87L78 87L78 86L80 86L80 88L81 88L81 90L82 90L82 89L83 89L83 88L85 88L85 87L86 87L86 86L85 86L85 85L84 85L84 86L85 86L85 87L83 87L83 84L82 84L82 83ZM91 83L91 84L89 84L89 85L91 85L91 84L92 84L92 85L93 85L93 84L92 84L92 83ZM24 84L24 85L25 85L25 84ZM39 84L39 85L41 85L41 84ZM54 84L54 85L55 85L55 84ZM87 84L87 85L88 85L88 84ZM61 85L61 86L62 86L62 85ZM63 85L63 86L65 86L65 85ZM31 86L31 87L32 87L32 86ZM41 86L41 87L45 87L45 86ZM81 86L81 88L82 88L82 86ZM78 88L78 89L79 89L79 88ZM25 89L25 90L24 90L24 91L23 91L23 93L24 93L24 91L25 91L25 92L26 92L26 91L25 91L25 90L26 90L26 89ZM33 89L33 92L36 92L36 89ZM61 89L61 92L64 92L64 89ZM84 89L84 90L85 90L85 91L79 91L79 92L85 92L85 91L86 91L86 90L85 90L85 89ZM89 89L89 92L92 92L92 89ZM34 90L34 91L35 91L35 90ZM58 90L58 91L59 91L59 90ZM62 90L62 91L63 91L63 90ZM77 90L77 91L78 91L78 90ZM90 90L90 91L91 91L91 90ZM95 90L95 91L94 91L94 92L95 92L95 91L96 91L96 90ZM12 91L12 92L13 92L13 91ZM51 91L51 92L53 92L53 91ZM71 91L71 92L73 92L73 91ZM37 92L37 93L38 93L38 92ZM21 93L21 94L22 94L22 93ZM34 93L34 96L37 96L37 95L35 95L35 93ZM79 93L79 94L80 94L80 93ZM81 93L81 94L82 94L82 95L83 95L83 94L82 94L82 93ZM91 93L91 94L90 94L90 95L91 95L91 94L92 94L92 96L93 96L93 94L92 94L92 93ZM95 93L95 95L94 95L94 96L96 96L96 93ZM11 94L11 95L12 95L12 96L13 96L13 95L12 95L12 94ZM31 95L31 96L32 96L32 95ZM28 96L28 97L29 97L29 96ZM61 96L61 97L62 97L62 96ZM0 0L0 7L7 7L7 0ZM1 1L1 6L6 6L6 1ZM2 2L2 5L5 5L5 2ZM90 0L90 7L97 7L97 0ZM91 1L91 6L96 6L96 1ZM92 2L92 5L95 5L95 2ZM0 90L0 97L7 97L7 90ZM1 91L1 96L6 96L6 91ZM2 92L2 95L5 95L5 92Z" fill="#000000"/></g></g></svg>
