<?xml version="1.0" encoding="UTF-8"?>
<svg xmlns="http://www.w3.org/2000/svg" version="1.1" width="300" height="300" viewBox="0 0 300 300"><rect x="0" y="0" width="300" height="300" fill="#ffffff"/><g transform="scale(7.317)"><g transform="translate(0,0)"><path fill-rule="evenodd" d="M10 0L10 2L11 2L11 1L12 1L12 2L13 2L13 3L14 3L14 2L15 2L15 1L13 1L13 0ZM16 0L16 3L19 3L19 4L18 4L18 5L16 5L16 4L15 4L15 5L16 5L16 7L17 7L17 6L18 6L18 8L15 8L15 6L14 6L14 5L13 5L13 6L12 6L12 5L11 5L11 4L9 4L9 3L8 3L8 5L9 5L9 6L8 6L8 7L9 7L9 8L10 8L10 7L11 7L11 6L12 6L12 7L13 7L13 6L14 6L14 8L11 8L11 9L9 9L9 10L8 10L8 8L5 8L5 9L4 9L4 10L3 10L3 11L2 11L2 12L3 12L3 11L5 11L5 10L6 10L6 11L9 11L9 12L10 12L10 11L12 11L12 13L14 13L14 14L11 14L11 13L10 13L10 14L9 14L9 13L8 13L8 14L6 14L6 13L7 13L7 12L6 12L6 13L5 13L5 12L4 12L4 14L5 14L5 15L4 15L4 17L3 17L3 13L0 13L0 14L1 14L1 15L0 15L0 16L1 16L1 17L3 17L3 18L1 18L1 19L4 19L4 18L5 18L5 16L6 16L6 17L7 17L7 16L6 16L6 15L8 15L8 14L9 14L9 17L11 17L11 20L10 20L10 18L9 18L9 20L10 20L10 21L9 21L9 22L8 22L8 23L7 23L7 22L6 22L6 21L8 21L8 20L6 20L6 19L8 19L8 18L6 18L6 19L5 19L5 21L4 21L4 20L3 20L3 21L2 21L2 20L1 20L1 21L2 21L2 22L3 22L3 24L2 24L2 26L3 26L3 29L4 29L4 30L5 30L5 29L8 29L8 28L6 28L6 27L9 27L9 25L10 25L10 24L9 24L9 23L10 23L10 21L11 21L11 20L12 20L12 19L13 19L13 20L14 20L14 26L15 26L15 29L14 29L14 30L12 30L12 31L11 31L11 30L10 30L10 31L9 31L9 30L8 30L8 31L7 31L7 30L6 30L6 31L7 31L7 32L6 32L6 33L8 33L8 36L9 36L9 39L8 39L8 41L9 41L9 39L11 39L11 38L10 38L10 36L11 36L11 37L12 37L12 38L13 38L13 37L14 37L14 35L16 35L16 36L15 36L15 37L16 37L16 36L17 36L17 37L18 37L18 38L14 38L14 39L16 39L16 40L15 40L15 41L16 41L16 40L17 40L17 39L18 39L18 38L19 38L19 37L21 37L21 38L20 38L20 40L19 40L19 41L20 41L20 40L21 40L21 38L22 38L22 41L23 41L23 40L24 40L24 41L30 41L30 40L32 40L32 39L31 39L31 38L29 38L29 35L30 35L30 32L29 32L29 30L31 30L31 31L33 31L33 30L35 30L35 31L34 31L34 32L31 32L31 33L32 33L32 34L31 34L31 35L32 35L32 36L31 36L31 37L35 37L35 38L34 38L34 40L33 40L33 41L36 41L36 39L38 39L38 40L37 40L37 41L39 41L39 39L38 39L38 38L36 38L36 37L38 37L38 36L37 36L37 35L39 35L39 34L38 34L38 33L39 33L39 32L40 32L40 34L41 34L41 29L40 29L40 26L41 26L41 25L40 25L40 24L39 24L39 25L38 25L38 30L37 30L37 29L36 29L36 28L37 28L37 25L36 25L36 26L35 26L35 24L33 24L33 23L34 23L34 22L33 22L33 21L34 21L34 20L32 20L32 21L31 21L31 20L28 20L28 21L27 21L27 19L28 19L28 18L29 18L29 17L31 17L31 18L30 18L30 19L32 19L32 17L33 17L33 19L36 19L36 21L35 21L35 23L38 23L38 22L40 22L40 21L39 21L39 20L37 20L37 19L39 19L39 18L37 18L37 17L36 17L36 16L39 16L39 15L38 15L38 14L41 14L41 12L40 12L40 9L38 9L38 8L36 8L36 10L35 10L35 11L33 11L33 14L32 14L32 13L31 13L31 12L32 12L32 11L31 11L31 10L33 10L33 5L32 5L32 3L31 3L31 1L30 1L30 0L29 0L29 1L28 1L28 3L27 3L27 4L26 4L26 3L25 3L25 2L27 2L27 0L26 0L26 1L24 1L24 2L23 2L23 0L21 0L21 1L20 1L20 3L19 3L19 2L18 2L18 1L19 1L19 0L18 0L18 1L17 1L17 0ZM32 0L32 1L33 1L33 0ZM21 1L21 2L22 2L22 3L23 3L23 4L22 4L22 5L21 5L21 3L20 3L20 4L19 4L19 8L18 8L18 9L17 9L17 10L16 10L16 11L15 11L15 8L14 8L14 9L13 9L13 10L12 10L12 9L11 9L11 10L12 10L12 11L13 11L13 12L14 12L14 11L15 11L15 14L14 14L14 15L12 15L12 17L13 17L13 16L14 16L14 17L16 17L16 19L15 19L15 18L13 18L13 19L14 19L14 20L15 20L15 22L16 22L16 19L19 19L19 14L20 14L20 16L21 16L21 18L23 18L23 17L24 17L24 21L25 21L25 24L24 24L24 25L25 25L25 26L23 26L23 24L22 24L22 23L24 23L24 22L23 22L23 19L21 19L21 21L22 21L22 22L21 22L21 23L20 23L20 21L19 21L19 20L17 20L17 22L18 22L18 21L19 21L19 24L21 24L21 26L22 26L22 27L20 27L20 26L19 26L19 25L18 25L18 23L15 23L15 24L17 24L17 25L16 25L16 27L17 27L17 28L16 28L16 29L15 29L15 30L14 30L14 31L12 31L12 33L13 33L13 32L14 32L14 34L16 34L16 35L17 35L17 33L19 33L19 34L18 34L18 35L20 35L20 34L22 34L22 35L21 35L21 37L22 37L22 35L23 35L23 37L27 37L27 36L28 36L28 35L27 35L27 36L26 36L26 33L25 33L25 32L26 32L26 31L25 31L25 30L27 30L27 29L25 29L25 28L26 28L26 27L27 27L27 24L28 24L28 23L26 23L26 21L25 21L25 20L26 20L26 19L27 19L27 18L26 18L26 19L25 19L25 16L27 16L27 15L26 15L26 14L28 14L28 15L29 15L29 16L30 16L30 14L31 14L31 15L32 15L32 16L31 16L31 17L32 17L32 16L34 16L34 17L35 17L35 18L36 18L36 19L37 19L37 18L36 18L36 17L35 17L35 16L36 16L36 15L37 15L37 14L38 14L38 13L40 13L40 12L39 12L39 10L36 10L36 11L38 11L38 12L35 12L35 14L36 14L36 15L34 15L34 14L33 14L33 15L32 15L32 14L31 14L31 13L30 13L30 12L31 12L31 11L29 11L29 10L31 10L31 9L32 9L32 8L31 8L31 9L28 9L28 8L27 8L27 7L28 7L28 4L27 4L27 7L26 7L26 4L25 4L25 3L23 3L23 2L22 2L22 1ZM29 1L29 3L30 3L30 1ZM23 4L23 5L24 5L24 7L23 7L23 6L22 6L22 9L21 9L21 10L20 10L20 9L18 9L18 11L19 11L19 10L20 10L20 12L16 12L16 14L17 14L17 13L20 13L20 14L21 14L21 11L22 11L22 14L24 14L24 16L25 16L25 13L24 13L24 12L23 12L23 10L24 10L24 11L25 11L25 10L24 10L24 9L23 9L23 8L25 8L25 9L26 9L26 12L27 12L27 11L28 11L28 10L27 10L27 8L25 8L25 4ZM29 4L29 8L30 8L30 5L31 5L31 7L32 7L32 5L31 5L31 4ZM10 5L10 6L9 6L9 7L10 7L10 6L11 6L11 5ZM20 5L20 7L21 7L21 5ZM0 8L0 9L2 9L2 8ZM6 9L6 10L7 10L7 9ZM0 11L0 12L1 12L1 11ZM28 13L28 14L29 14L29 13ZM36 13L36 14L37 14L37 13ZM10 14L10 15L11 15L11 14ZM14 15L14 16L16 16L16 17L17 17L17 18L18 18L18 16L16 16L16 15ZM40 15L40 16L41 16L41 15ZM22 16L22 17L23 17L23 16ZM40 18L40 20L41 20L41 18ZM3 21L3 22L4 22L4 24L3 24L3 26L4 26L4 27L6 27L6 26L8 26L8 24L7 24L7 23L6 23L6 22L4 22L4 21ZM12 21L12 22L13 22L13 21ZM28 21L28 22L29 22L29 26L28 26L28 27L29 27L29 28L28 28L28 29L29 29L29 28L30 28L30 29L31 29L31 28L30 28L30 27L32 27L32 28L34 28L34 29L35 29L35 30L36 30L36 31L35 31L35 32L36 32L36 31L37 31L37 32L39 32L39 31L40 31L40 29L39 29L39 31L37 31L37 30L36 30L36 29L35 29L35 28L36 28L36 27L34 27L34 25L33 25L33 24L32 24L32 23L33 23L33 22L31 22L31 24L32 24L32 26L30 26L30 21ZM37 21L37 22L38 22L38 21ZM0 22L0 23L1 23L1 22ZM5 23L5 25L4 25L4 26L6 26L6 25L7 25L7 24L6 24L6 23ZM12 23L12 24L11 24L11 26L10 26L10 27L11 27L11 28L12 28L12 29L13 29L13 27L11 27L11 26L13 26L13 25L12 25L12 24L13 24L13 23ZM0 24L0 25L1 25L1 24ZM0 26L0 27L1 27L1 28L2 28L2 27L1 27L1 26ZM18 26L18 27L19 27L19 28L18 28L18 29L16 29L16 31L15 31L15 32L16 32L16 33L17 33L17 31L18 31L18 29L20 29L20 31L19 31L19 33L21 33L21 31L22 31L22 34L24 34L24 35L25 35L25 34L24 34L24 32L23 32L23 31L24 31L24 30L25 30L25 29L20 29L20 27L19 27L19 26ZM25 26L25 27L22 27L22 28L25 28L25 27L26 27L26 26ZM29 26L29 27L30 27L30 26ZM9 28L9 29L10 29L10 28ZM0 29L0 33L1 33L1 31L3 31L3 33L5 33L5 31L3 31L3 30L1 30L1 29ZM32 29L32 30L33 30L33 29ZM10 31L10 33L11 33L11 31ZM27 31L27 32L28 32L28 34L29 34L29 32L28 32L28 31ZM8 32L8 33L9 33L9 32ZM33 33L33 36L36 36L36 33ZM9 34L9 35L10 35L10 34ZM11 34L11 36L12 36L12 37L13 37L13 36L12 36L12 34ZM34 34L34 35L35 35L35 34ZM40 35L40 38L41 38L41 35ZM18 36L18 37L19 37L19 36ZM23 38L23 39L24 39L24 38ZM25 38L25 40L27 40L27 38ZM28 38L28 39L29 39L29 40L30 40L30 39L29 39L29 38ZM35 38L35 39L36 39L36 38ZM12 39L12 40L13 40L13 41L14 41L14 40L13 40L13 39ZM40 39L40 40L41 40L41 39ZM10 40L10 41L11 41L11 40ZM0 0L0 7L7 7L7 0ZM1 1L1 6L6 6L6 1ZM2 2L2 5L5 5L5 2ZM34 0L34 7L41 7L41 0ZM35 1L35 6L40 6L40 1ZM36 2L36 5L39 5L39 2ZM0 34L0 41L7 41L7 34ZM1 35L1 40L6 40L6 35ZM2 36L2 39L5 39L5 36Z" fill="#000000"/></g></g></svg>
