<?xml version="1.0" encoding="UTF-8"?>
<svg xmlns="http://www.w3.org/2000/svg" version="1.1" width="300" height="300" viewBox="0 0 300 300"><rect x="0" y="0" width="300" height="300" fill="#ffffff"/><g transform="scale(12)"><g transform="translate(0,0)"><path fill-rule="evenodd" d="M9 0L9 1L8 1L8 3L9 3L9 4L8 4L8 8L6 8L6 9L7 9L7 10L5 10L5 9L4 9L4 8L3 8L3 9L4 9L4 10L2 10L2 8L0 8L0 10L2 10L2 11L1 11L1 12L0 12L0 13L3 13L3 14L4 14L4 12L5 12L5 11L7 11L7 12L6 12L6 13L5 13L5 15L7 15L7 14L8 14L8 16L6 16L6 17L8 17L8 19L10 19L10 21L11 21L11 22L10 22L10 23L8 23L8 25L10 25L10 23L12 23L12 22L13 22L13 20L14 20L14 19L16 19L16 20L15 20L15 21L16 21L16 22L18 22L18 23L17 23L17 24L16 24L16 25L17 25L17 24L18 24L18 25L20 25L20 24L19 24L19 23L21 23L21 24L22 24L22 23L21 23L21 22L22 22L22 21L21 21L21 20L22 20L22 19L23 19L23 21L25 21L25 17L24 17L24 16L23 16L23 17L21 17L21 16L20 16L20 15L22 15L22 13L23 13L23 12L24 12L24 10L23 10L23 12L21 12L21 10L22 10L22 9L24 9L24 8L22 8L22 9L21 9L21 8L18 8L18 9L17 9L17 8L16 8L16 7L17 7L17 6L16 6L16 5L17 5L17 4L16 4L16 3L17 3L17 1L16 1L16 0L15 0L15 4L14 4L14 3L13 3L13 2L14 2L14 0L12 0L12 1L11 1L11 2L9 2L9 1L10 1L10 0ZM12 3L12 4L9 4L9 5L10 5L10 6L9 6L9 7L10 7L10 8L8 8L8 10L7 10L7 11L9 11L9 12L8 12L8 14L9 14L9 15L10 15L10 16L12 16L12 14L9 14L9 13L12 13L12 12L13 12L13 13L14 13L14 14L13 14L13 15L14 15L14 16L13 16L13 17L9 17L9 16L8 16L8 17L9 17L9 18L10 18L10 19L11 19L11 20L12 20L12 18L13 18L13 17L14 17L14 18L16 18L16 17L15 17L15 15L16 15L16 16L19 16L19 15L20 15L20 14L19 14L19 13L21 13L21 12L19 12L19 11L20 11L20 10L19 10L19 9L18 9L18 10L17 10L17 9L16 9L16 8L15 8L15 9L14 9L14 6L15 6L15 7L16 7L16 6L15 6L15 5L14 5L14 6L13 6L13 3ZM11 5L11 6L10 6L10 7L11 7L11 6L12 6L12 8L13 8L13 6L12 6L12 5ZM10 8L10 10L9 10L9 11L11 11L11 10L12 10L12 9L11 9L11 8ZM13 9L13 12L14 12L14 13L15 13L15 14L14 14L14 15L15 15L15 14L16 14L16 15L17 15L17 14L18 14L18 13L17 13L17 11L16 11L16 9L15 9L15 11L16 11L16 13L15 13L15 12L14 12L14 9ZM18 10L18 11L19 11L19 10ZM3 11L3 12L4 12L4 11ZM6 13L6 14L7 14L7 13ZM16 13L16 14L17 14L17 13ZM0 14L0 15L1 15L1 16L0 16L0 17L2 17L2 16L3 16L3 15L1 15L1 14ZM17 17L17 20L20 20L20 17ZM23 17L23 19L24 19L24 17ZM18 18L18 19L19 19L19 18ZM21 18L21 19L22 19L22 18ZM8 21L8 22L9 22L9 21ZM18 21L18 22L20 22L20 21ZM14 22L14 23L15 23L15 22ZM24 22L24 25L25 25L25 22ZM12 24L12 25L15 25L15 24ZM0 0L0 7L7 7L7 0ZM1 1L1 6L6 6L6 1ZM2 2L2 5L5 5L5 2ZM18 0L18 7L25 7L25 0ZM19 1L19 6L24 6L24 1ZM20 2L20 5L23 5L23 2ZM0 18L0 25L7 25L7 18ZM1 19L1 24L6 24L6 19ZM2 20L2 23L5 23L5 20Z" fill="#000000"/></g></g></svg>
