<?xml version="1.0" encoding="UTF-8"?>
<svg xmlns="http://www.w3.org/2000/svg" version="1.1" width="300" height="300" viewBox="0 0 300 300"><rect x="0" y="0" width="300" height="300" fill="#ffffff"/><g transform="scale(12)"><g transform="translate(0,0)"><path fill-rule="evenodd" d="M9 0L9 1L10 1L10 2L8 2L8 3L9 3L9 4L10 4L10 5L9 5L9 6L8 6L8 8L4 8L4 9L5 9L5 10L4 10L4 12L3 12L3 13L2 13L2 14L4 14L4 12L5 12L5 14L6 14L6 15L1 15L1 14L0 14L0 15L1 15L1 16L0 16L0 17L1 17L1 16L2 16L2 17L3 17L3 16L6 16L6 17L7 17L7 16L6 16L6 15L7 15L7 14L6 14L6 13L8 13L8 16L9 16L9 17L8 17L8 21L10 21L10 24L9 24L9 22L8 22L8 25L11 25L11 21L12 21L12 23L13 23L13 24L15 24L15 25L16 25L16 23L17 23L17 24L18 24L18 25L19 25L19 24L20 24L20 25L21 25L21 23L23 23L23 24L22 24L22 25L23 25L23 24L24 24L24 25L25 25L25 22L24 22L24 23L23 23L23 22L22 22L22 20L21 20L21 16L17 16L17 15L18 15L18 13L17 13L17 12L18 12L18 9L19 9L19 8L17 8L17 9L15 9L15 10L14 10L14 9L13 9L13 10L14 10L14 11L13 11L13 12L12 12L12 11L11 11L11 12L12 12L12 13L11 13L11 14L10 14L10 13L9 13L9 12L8 12L8 11L10 11L10 10L12 10L12 8L16 8L16 7L17 7L17 4L16 4L16 3L17 3L17 0L16 0L16 1L15 1L15 2L14 2L14 3L13 3L13 1L14 1L14 0L12 0L12 1L10 1L10 0ZM11 2L11 3L12 3L12 4L11 4L11 5L10 5L10 6L9 6L9 7L10 7L10 6L11 6L11 8L12 8L12 6L13 6L13 7L14 7L14 6L13 6L13 5L14 5L14 4L15 4L15 3L16 3L16 2L15 2L15 3L14 3L14 4L13 4L13 3L12 3L12 2ZM15 6L15 7L16 7L16 6ZM0 8L0 9L1 9L1 10L0 10L0 13L1 13L1 10L2 10L2 11L3 11L3 8ZM9 8L9 9L8 9L8 10L7 10L7 9L6 9L6 10L5 10L5 11L6 11L6 12L7 12L7 11L8 11L8 10L10 10L10 8ZM22 8L22 9L20 9L20 11L19 11L19 12L20 12L20 11L21 11L21 10L22 10L22 11L24 11L24 10L22 10L22 9L23 9L23 8ZM6 10L6 11L7 11L7 10ZM16 10L16 12L17 12L17 10ZM14 11L14 12L13 12L13 13L14 13L14 12L15 12L15 11ZM21 12L21 14L22 14L22 17L23 17L23 18L22 18L22 19L23 19L23 20L24 20L24 21L25 21L25 17L24 17L24 16L23 16L23 15L24 15L24 14L22 14L22 13L23 13L23 12ZM15 13L15 14L17 14L17 13ZM13 14L13 15L14 15L14 16L13 16L13 17L12 17L12 18L11 18L11 20L10 20L10 18L9 18L9 20L10 20L10 21L11 21L11 20L12 20L12 21L14 21L14 20L13 20L13 19L12 19L12 18L14 18L14 16L15 16L15 17L16 17L16 16L15 16L15 15L14 15L14 14ZM11 15L11 16L10 16L10 17L11 17L11 16L12 16L12 15ZM17 17L17 20L20 20L20 17ZM15 18L15 19L16 19L16 18ZM18 18L18 19L19 19L19 18ZM23 18L23 19L24 19L24 18ZM15 20L15 22L17 22L17 23L18 23L18 22L19 22L19 23L20 23L20 22L21 22L21 21L20 21L20 22L19 22L19 21L18 21L18 22L17 22L17 21L16 21L16 20ZM13 22L13 23L14 23L14 22ZM0 0L0 7L7 7L7 0ZM1 1L1 6L6 6L6 1ZM2 2L2 5L5 5L5 2ZM18 0L18 7L25 7L25 0ZM19 1L19 6L24 6L24 1ZM20 2L20 5L23 5L23 2ZM0 18L0 25L7 25L7 18ZM1 19L1 24L6 24L6 19ZM2 20L2 23L5 23L5 20Z" fill="#000000"/></g></g></svg>
