<?xml version="1.0" encoding="UTF-8"?>
<svg xmlns="http://www.w3.org/2000/svg" version="1.1" width="300" height="300" viewBox="0 0 300 300"><rect x="0" y="0" width="300" height="300" fill="#ffffff"/><g transform="scale(12)"><g transform="translate(0,0)"><path fill-rule="evenodd" d="M8 0L8 2L9 2L9 3L10 3L10 2L9 2L9 1L11 1L11 2L12 2L12 0ZM15 0L15 1L13 1L13 3L11 3L11 5L9 5L9 4L8 4L8 9L7 9L7 8L5 8L5 9L3 9L3 8L0 8L0 11L1 11L1 12L2 12L2 11L1 11L1 9L3 9L3 13L1 13L1 14L0 14L0 15L3 15L3 14L4 14L4 13L5 13L5 14L6 14L6 15L5 15L5 16L3 16L3 17L5 17L5 16L6 16L6 17L8 17L8 18L9 18L9 15L10 15L10 17L11 17L11 18L10 18L10 19L8 19L8 20L10 20L10 21L11 21L11 22L10 22L10 23L9 23L9 22L8 22L8 25L9 25L9 24L10 24L10 25L12 25L12 24L11 24L11 23L12 23L12 22L13 22L13 21L15 21L15 22L14 22L14 25L18 25L18 24L15 24L15 23L18 23L18 22L17 22L17 21L19 21L19 23L20 23L20 24L19 24L19 25L20 25L20 24L21 24L21 25L25 25L25 22L24 22L24 21L25 21L25 19L24 19L24 18L25 18L25 17L24 17L24 18L23 18L23 16L24 16L24 15L23 15L23 14L24 14L24 11L23 11L23 10L24 10L24 9L25 9L25 8L23 8L23 10L21 10L21 8L15 8L15 6L16 6L16 7L17 7L17 5L16 5L16 4L17 4L17 2L16 2L16 4L15 4L15 6L14 6L14 8L11 8L11 9L12 9L12 11L11 11L11 10L9 10L9 9L10 9L10 7L11 7L11 5L12 5L12 7L13 7L13 5L14 5L14 4L13 4L13 3L14 3L14 2L15 2L15 1L17 1L17 0ZM9 6L9 7L10 7L10 6ZM6 9L6 10L7 10L7 11L6 11L6 12L5 12L5 11L4 11L4 12L5 12L5 13L6 13L6 14L7 14L7 15L6 15L6 16L7 16L7 15L9 15L9 13L8 13L8 14L7 14L7 13L6 13L6 12L8 12L8 11L9 11L9 12L10 12L10 11L9 11L9 10L7 10L7 9ZM15 9L15 10L14 10L14 11L15 11L15 13L14 13L14 12L13 12L13 13L12 13L12 12L11 12L11 14L10 14L10 15L11 15L11 17L12 17L12 18L13 18L13 19L14 19L14 20L15 20L15 21L16 21L16 20L15 20L15 19L16 19L16 18L15 18L15 17L16 17L16 16L18 16L18 15L19 15L19 16L21 16L21 15L22 15L22 16L23 16L23 15L22 15L22 14L20 14L20 13L21 13L21 12L23 12L23 11L20 11L20 9L17 9L17 10L19 10L19 11L16 11L16 9ZM16 12L16 13L15 13L15 14L16 14L16 15L18 15L18 14L16 14L16 13L18 13L18 12ZM19 12L19 13L20 13L20 12ZM11 14L11 15L14 15L14 14ZM19 14L19 15L20 15L20 14ZM0 16L0 17L2 17L2 16ZM13 16L13 17L15 17L15 16ZM17 17L17 20L20 20L20 17ZM14 18L14 19L15 19L15 18ZM18 18L18 19L19 19L19 18ZM10 19L10 20L12 20L12 21L13 21L13 20L12 20L12 19ZM21 19L21 20L22 20L22 21L21 21L21 22L22 22L22 21L23 21L23 20L24 20L24 19L23 19L23 20L22 20L22 19ZM21 23L21 24L22 24L22 23ZM23 23L23 24L24 24L24 23ZM0 0L0 7L7 7L7 0ZM1 1L1 6L6 6L6 1ZM2 2L2 5L5 5L5 2ZM18 0L18 7L25 7L25 0ZM19 1L19 6L24 6L24 1ZM20 2L20 5L23 5L23 2ZM0 18L0 25L7 25L7 18ZM1 19L1 24L6 24L6 19ZM2 20L2 23L5 23L5 20Z" fill="#000000"/></g></g></svg>
