<?xml version="1.0" encoding="UTF-8"?>
<svg xmlns="http://www.w3.org/2000/svg" version="1.1" width="300" height="300" viewBox="0 0 300 300"><rect x="0" y="0" width="300" height="300" fill="#ffffff"/><g transform="scale(12)"><g transform="translate(0,0)"><path fill-rule="evenodd" d="M8 0L8 1L11 1L11 3L10 3L10 2L9 2L9 3L10 3L10 5L9 5L9 6L8 6L8 8L9 8L9 9L10 9L10 10L8 10L8 11L7 11L7 10L5 10L5 8L3 8L3 9L2 9L2 8L0 8L0 9L1 9L1 12L2 12L2 10L3 10L3 11L4 11L4 10L5 10L5 11L7 11L7 12L6 12L6 13L2 13L2 14L1 14L1 13L0 13L0 17L1 17L1 15L2 15L2 14L4 14L4 15L3 15L3 16L2 16L2 17L5 17L5 16L6 16L6 17L8 17L8 18L9 18L9 16L8 16L8 15L7 15L7 14L6 14L6 13L7 13L7 12L8 12L8 11L10 11L10 10L11 10L11 9L10 9L10 7L11 7L11 6L12 6L12 9L13 9L13 10L12 10L12 11L13 11L13 12L12 12L12 16L11 16L11 12L9 12L9 13L8 13L8 14L10 14L10 16L11 16L11 17L12 17L12 18L11 18L11 19L10 19L10 20L8 20L8 22L9 22L9 21L11 21L11 22L10 22L10 24L9 24L9 23L8 23L8 25L10 25L10 24L11 24L11 25L12 25L12 24L13 24L13 23L12 23L12 21L14 21L14 19L13 19L13 18L14 18L14 17L15 17L15 15L16 15L16 22L17 22L17 23L16 23L16 24L15 24L15 22L14 22L14 25L18 25L18 24L19 24L19 25L20 25L20 24L21 24L21 23L22 23L22 22L21 22L21 20L23 20L23 19L24 19L24 17L23 17L23 18L22 18L22 19L21 19L21 17L22 17L22 16L21 16L21 15L23 15L23 16L25 16L25 15L24 15L24 14L25 14L25 13L24 13L24 12L25 12L25 11L24 11L24 12L23 12L23 11L22 11L22 10L25 10L25 8L24 8L24 9L22 9L22 10L21 10L21 9L20 9L20 11L22 11L22 12L21 12L21 14L19 14L19 13L20 13L20 12L19 12L19 11L16 11L16 10L19 10L19 8L18 8L18 9L17 9L17 6L16 6L16 10L15 10L15 11L13 11L13 10L14 10L14 9L15 9L15 5L16 5L16 4L15 4L15 3L17 3L17 0L15 0L15 1L14 1L14 2L13 2L13 1L12 1L12 0ZM15 1L15 2L14 2L14 3L13 3L13 2L12 2L12 4L13 4L13 5L12 5L12 6L13 6L13 7L14 7L14 6L13 6L13 5L14 5L14 3L15 3L15 2L16 2L16 1ZM10 5L10 6L9 6L9 7L10 7L10 6L11 6L11 5ZM6 8L6 9L7 9L7 8ZM3 9L3 10L4 10L4 9ZM15 11L15 12L16 12L16 13L15 13L15 14L16 14L16 13L17 13L17 16L19 16L19 14L18 14L18 13L19 13L19 12L18 12L18 13L17 13L17 12L16 12L16 11ZM13 12L13 14L14 14L14 12ZM5 14L5 15L4 15L4 16L5 16L5 15L6 15L6 16L7 16L7 15L6 15L6 14ZM13 15L13 16L12 16L12 17L13 17L13 16L14 16L14 15ZM17 17L17 20L20 20L20 17ZM18 18L18 19L19 19L19 18ZM24 20L24 21L23 21L23 25L25 25L25 24L24 24L24 23L25 23L25 20ZM17 21L17 22L18 22L18 23L20 23L20 22L18 22L18 21ZM0 0L0 7L7 7L7 0ZM1 1L1 6L6 6L6 1ZM2 2L2 5L5 5L5 2ZM18 0L18 7L25 7L25 0ZM19 1L19 6L24 6L24 1ZM20 2L20 5L23 5L23 2ZM0 18L0 25L7 25L7 18ZM1 19L1 24L6 24L6 19ZM2 20L2 23L5 23L5 20Z" fill="#000000"/></g></g></svg>
