<?xml version="1.0" encoding="UTF-8"?>
<svg xmlns="http://www.w3.org/2000/svg" version="1.1" width="300" height="300" viewBox="0 0 300 300"><rect x="0" y="0" width="300" height="300" fill="#ffffff"/><g transform="scale(12)"><g transform="translate(0,0)"><path fill-rule="evenodd" d="M10 0L10 1L8 1L8 3L9 3L9 4L8 4L8 8L6 8L6 9L8 9L8 10L6 10L6 11L5 11L5 9L4 9L4 8L3 8L3 9L2 9L2 8L0 8L0 9L1 9L1 10L0 10L0 13L1 13L1 14L0 14L0 15L1 15L1 16L0 16L0 17L8 17L8 19L9 19L9 18L10 18L10 19L11 19L11 18L12 18L12 21L11 21L11 20L9 20L9 21L8 21L8 22L9 22L9 21L10 21L10 23L11 23L11 22L12 22L12 21L13 21L13 18L15 18L15 17L16 17L16 20L15 20L15 22L13 22L13 23L14 23L14 24L15 24L15 25L16 25L16 24L17 24L17 25L19 25L19 24L20 24L20 23L22 23L22 21L21 21L21 16L23 16L23 17L24 17L24 18L25 18L25 17L24 17L24 16L23 16L23 14L22 14L22 15L21 15L21 12L22 12L22 13L23 13L23 12L24 12L24 10L23 10L23 12L22 12L22 11L21 11L21 10L22 10L22 9L24 9L24 8L22 8L22 9L21 9L21 8L18 8L18 9L17 9L17 8L16 8L16 9L14 9L14 8L15 8L15 6L16 6L16 7L17 7L17 5L16 5L16 3L17 3L17 1L15 1L15 2L14 2L14 1L13 1L13 2L14 2L14 3L12 3L12 7L11 7L11 4L10 4L10 3L9 3L9 2L11 2L11 0ZM14 3L14 5L13 5L13 7L12 7L12 8L14 8L14 6L15 6L15 3ZM9 5L9 8L8 8L8 9L10 9L10 10L9 10L9 11L11 11L11 8L10 8L10 5ZM13 9L13 10L14 10L14 11L13 11L13 12L16 12L16 14L15 14L15 13L12 13L12 14L13 14L13 15L12 15L12 18L13 18L13 15L14 15L14 17L15 17L15 15L16 15L16 14L17 14L17 13L18 13L18 15L20 15L20 16L21 16L21 15L20 15L20 12L19 12L19 9L18 9L18 10L17 10L17 9L16 9L16 11L15 11L15 10L14 10L14 9ZM20 9L20 10L21 10L21 9ZM1 10L1 11L2 11L2 12L3 12L3 13L2 13L2 14L1 14L1 15L3 15L3 14L4 14L4 16L8 16L8 17L10 17L10 18L11 18L11 17L10 17L10 16L11 16L11 13L10 13L10 12L8 12L8 14L9 14L9 15L6 15L6 14L7 14L7 13L6 13L6 14L4 14L4 13L5 13L5 11L4 11L4 12L3 12L3 11L2 11L2 10ZM6 11L6 12L7 12L7 11ZM9 13L9 14L10 14L10 13ZM9 15L9 16L10 16L10 15ZM17 17L17 20L20 20L20 17ZM18 18L18 19L19 19L19 18ZM22 18L22 20L23 20L23 21L25 21L25 19L23 19L23 18ZM18 21L18 22L15 22L15 24L16 24L16 23L17 23L17 24L19 24L19 21ZM24 22L24 25L25 25L25 22ZM8 23L8 25L9 25L9 23ZM0 0L0 7L7 7L7 0ZM1 1L1 6L6 6L6 1ZM2 2L2 5L5 5L5 2ZM18 0L18 7L25 7L25 0ZM19 1L19 6L24 6L24 1ZM20 2L20 5L23 5L23 2ZM0 18L0 25L7 25L7 18ZM1 19L1 24L6 24L6 19ZM2 20L2 23L5 23L5 20Z" fill="#000000"/></g></g></svg>
