<?xml version="1.0" encoding="UTF-8"?>
<svg xmlns="http://www.w3.org/2000/svg" version="1.1" width="300" height="300" viewBox="0 0 300 300"><rect x="0" y="0" width="300" height="300" fill="#ffffff"/><g transform="scale(12)"><g transform="translate(0,0)"><path fill-rule="evenodd" d="M9 0L9 1L8 1L8 3L9 3L9 4L8 4L8 8L6 8L6 9L4 9L4 8L3 8L3 9L2 9L2 8L0 8L0 9L2 9L2 10L1 10L1 12L0 12L0 13L1 13L1 14L0 14L0 15L1 15L1 16L0 16L0 17L3 17L3 16L2 16L2 15L1 15L1 14L3 14L3 15L4 15L4 14L3 14L3 13L4 13L4 12L3 12L3 11L5 11L5 14L6 14L6 15L7 15L7 14L12 14L12 16L10 16L10 15L8 15L8 19L9 19L9 17L10 17L10 20L11 20L11 17L13 17L13 18L12 18L12 19L13 19L13 20L12 20L12 23L13 23L13 24L14 24L14 23L15 23L15 24L16 24L16 25L17 25L17 24L18 24L18 25L19 25L19 24L20 24L20 23L21 23L21 22L22 22L22 21L25 21L25 17L24 17L24 16L23 16L23 15L22 15L22 13L23 13L23 12L24 12L24 10L23 10L23 12L21 12L21 10L22 10L22 9L24 9L24 8L22 8L22 9L21 9L21 8L18 8L18 10L20 10L20 12L21 12L21 13L19 13L19 15L20 15L20 14L21 14L21 16L17 16L17 14L18 14L18 13L17 13L17 12L16 12L16 11L15 11L15 10L17 10L17 6L16 6L16 4L17 4L17 0L15 0L15 1L16 1L16 4L15 4L15 5L14 5L14 7L13 7L13 6L12 6L12 5L11 5L11 6L10 6L10 5L9 5L9 4L12 4L12 3L13 3L13 4L14 4L14 3L15 3L15 2L14 2L14 0L12 0L12 1L11 1L11 2L9 2L9 1L10 1L10 0ZM13 2L13 3L14 3L14 2ZM9 6L9 7L10 7L10 8L8 8L8 9L6 9L6 10L5 10L5 11L6 11L6 12L7 12L7 13L6 13L6 14L7 14L7 13L8 13L8 12L9 12L9 13L12 13L12 12L13 12L13 17L14 17L14 18L13 18L13 19L15 19L15 17L16 17L16 14L17 14L17 13L15 13L15 15L14 15L14 12L13 12L13 9L14 9L14 10L15 10L15 9L14 9L14 8L12 8L12 6L11 6L11 7L10 7L10 6ZM15 6L15 8L16 8L16 6ZM10 8L10 10L9 10L9 11L11 11L11 10L12 10L12 9L11 9L11 8ZM3 9L3 10L2 10L2 11L3 11L3 10L4 10L4 9ZM6 10L6 11L7 11L7 10ZM4 16L4 17L7 17L7 16ZM14 16L14 17L15 17L15 16ZM21 16L21 17L23 17L23 19L22 19L22 18L21 18L21 19L22 19L22 20L23 20L23 19L24 19L24 17L23 17L23 16ZM17 17L17 20L20 20L20 17ZM18 18L18 19L19 19L19 18ZM13 20L13 23L14 23L14 22L15 22L15 20ZM8 21L8 22L9 22L9 23L8 23L8 25L11 25L11 24L10 24L10 23L11 23L11 21L10 21L10 22L9 22L9 21ZM16 21L16 24L17 24L17 23L18 23L18 22L19 22L19 21L18 21L18 22L17 22L17 21ZM20 21L20 22L21 22L21 21ZM24 22L24 25L25 25L25 22ZM22 23L22 24L23 24L23 23ZM0 0L0 7L7 7L7 0ZM1 1L1 6L6 6L6 1ZM2 2L2 5L5 5L5 2ZM18 0L18 7L25 7L25 0ZM19 1L19 6L24 6L24 1ZM20 2L20 5L23 5L23 2ZM0 18L0 25L7 25L7 18ZM1 19L1 24L6 24L6 19ZM2 20L2 23L5 23L5 20Z" fill="#000000"/></g></g></svg>
