<?xml version="1.0" encoding="UTF-8"?>
<svg xmlns="http://www.w3.org/2000/svg" version="1.1" width="300" height="300" viewBox="0 0 300 300"><rect x="0" y="0" width="300" height="300" fill="#ffffff"/><g transform="scale(12)"><g transform="translate(0,0)"><path fill-rule="evenodd" d="M9 0L9 1L10 1L10 2L8 2L8 3L9 3L9 4L10 4L10 5L9 5L9 6L8 6L8 8L4 8L4 9L3 9L3 8L0 8L0 9L3 9L3 12L4 12L4 13L2 13L2 11L1 11L1 14L0 14L0 15L1 15L1 16L0 16L0 17L1 17L1 16L2 16L2 15L3 15L3 17L4 17L4 16L5 16L5 17L8 17L8 21L9 21L9 19L11 19L11 20L14 20L14 21L11 21L11 23L9 23L9 22L8 22L8 25L10 25L10 24L12 24L12 22L15 22L15 21L16 21L16 23L17 23L17 22L18 22L18 25L19 25L19 22L18 22L18 21L21 21L21 22L20 22L20 23L21 23L21 24L20 24L20 25L23 25L23 24L24 24L24 25L25 25L25 22L24 22L24 23L23 23L23 22L22 22L22 21L23 21L23 20L24 20L24 21L25 21L25 17L24 17L24 16L22 16L22 17L23 17L23 18L22 18L22 19L23 19L23 20L21 20L21 14L23 14L23 15L24 15L24 14L23 14L23 12L20 12L20 13L19 13L19 14L20 14L20 16L17 16L17 15L18 15L18 13L17 13L17 12L18 12L18 11L19 11L19 10L18 10L18 11L17 11L17 9L19 9L19 8L17 8L17 9L15 9L15 10L16 10L16 11L17 11L17 12L16 12L16 13L14 13L14 12L12 12L12 11L11 11L11 12L12 12L12 13L11 13L11 14L10 14L10 15L7 15L7 14L9 14L9 13L8 13L8 12L9 12L9 11L10 11L10 10L12 10L12 8L15 8L15 4L14 4L14 3L13 3L13 1L14 1L14 2L16 2L16 5L17 5L17 2L16 2L16 1L17 1L17 0L16 0L16 1L15 1L15 0L12 0L12 1L10 1L10 0ZM11 2L11 3L12 3L12 4L11 4L11 5L10 5L10 6L9 6L9 7L10 7L10 6L11 6L11 8L12 8L12 6L13 6L13 7L14 7L14 6L13 6L13 5L14 5L14 4L13 4L13 3L12 3L12 2ZM16 6L16 7L17 7L17 6ZM9 8L9 10L8 10L8 9L5 9L5 10L7 10L7 11L5 11L5 12L8 12L8 11L9 11L9 10L10 10L10 8ZM22 8L22 9L21 9L21 10L20 10L20 11L21 11L21 10L22 10L22 11L24 11L24 10L22 10L22 9L23 9L23 8ZM13 9L13 10L14 10L14 9ZM4 13L4 15L5 15L5 16L7 16L7 15L6 15L6 14L7 14L7 13ZM13 13L13 15L14 15L14 16L16 16L16 14L17 14L17 13L16 13L16 14L15 14L15 15L14 15L14 13ZM1 14L1 15L2 15L2 14ZM11 15L11 16L12 16L12 15ZM9 17L9 18L11 18L11 19L12 19L12 18L13 18L13 19L14 19L14 20L16 20L16 19L14 19L14 18L13 18L13 17L12 17L12 18L11 18L11 17ZM17 17L17 20L20 20L20 17ZM18 18L18 19L19 19L19 18ZM23 18L23 19L24 19L24 18ZM13 23L13 24L14 24L14 25L15 25L15 24L14 24L14 23ZM22 23L22 24L23 24L23 23ZM16 24L16 25L17 25L17 24ZM0 0L0 7L7 7L7 0ZM1 1L1 6L6 6L6 1ZM2 2L2 5L5 5L5 2ZM18 0L18 7L25 7L25 0ZM19 1L19 6L24 6L24 1ZM20 2L20 5L23 5L23 2ZM0 18L0 25L7 25L7 18ZM1 19L1 24L6 24L6 19ZM2 20L2 23L5 23L5 20Z" fill="#000000"/></g></g></svg>
