<?xml version="1.0" encoding="UTF-8"?>
<svg xmlns="http://www.w3.org/2000/svg" version="1.1" width="300" height="300" viewBox="0 0 300 300"><rect x="0" y="0" width="300" height="300" fill="#ffffff"/><g transform="scale(12)"><g transform="translate(0,0)"><path fill-rule="evenodd" d="M10 0L10 1L9 1L9 2L8 2L8 3L9 3L9 5L10 5L10 7L11 7L11 8L12 8L12 9L11 9L11 10L10 10L10 9L9 9L9 6L8 6L8 8L4 8L4 9L5 9L5 10L4 10L4 11L3 11L3 12L2 12L2 11L1 11L1 10L0 10L0 11L1 11L1 12L0 12L0 13L1 13L1 12L2 12L2 14L3 14L3 16L2 16L2 15L1 15L1 14L0 14L0 15L1 15L1 16L0 16L0 17L1 17L1 16L2 16L2 17L7 17L7 16L5 16L5 14L6 14L6 15L8 15L8 21L9 21L9 22L8 22L8 25L10 25L10 24L12 24L12 25L13 25L13 24L12 24L12 23L13 23L13 22L11 22L11 21L12 21L12 20L10 20L10 19L11 19L11 18L10 18L10 17L9 17L9 15L8 15L8 14L9 14L9 12L10 12L10 14L12 14L12 15L10 15L10 16L11 16L11 17L13 17L13 16L14 16L14 15L16 15L16 16L15 16L15 17L14 17L14 18L15 18L15 17L16 17L16 19L13 19L13 18L12 18L12 19L13 19L13 20L14 20L14 25L15 25L15 24L16 24L16 25L17 25L17 24L18 24L18 23L17 23L17 22L18 22L18 21L19 21L19 22L20 22L20 24L21 24L21 25L23 25L23 24L24 24L24 25L25 25L25 22L24 22L24 23L23 23L23 22L22 22L22 21L23 21L23 20L24 20L24 21L25 21L25 19L23 19L23 20L21 20L21 19L22 19L22 18L25 18L25 17L24 17L24 16L23 16L23 15L24 15L24 14L23 14L23 15L21 15L21 13L23 13L23 12L22 12L22 11L24 11L24 10L22 10L22 9L23 9L23 8L22 8L22 9L21 9L21 10L20 10L20 11L21 11L21 13L20 13L20 14L19 14L19 15L17 15L17 14L18 14L18 13L17 13L17 12L18 12L18 9L19 9L19 8L17 8L17 6L16 6L16 5L17 5L17 2L16 2L16 1L15 1L15 3L12 3L12 2L11 2L11 3L12 3L12 5L10 5L10 3L9 3L9 2L10 2L10 1L11 1L11 0ZM13 4L13 5L16 5L16 4ZM11 6L11 7L12 7L12 8L13 8L13 13L12 13L12 14L13 14L13 15L12 15L12 16L13 16L13 15L14 15L14 11L16 11L16 10L14 10L14 8L16 8L16 6L15 6L15 7L14 7L14 6L13 6L13 7L12 7L12 6ZM0 8L0 9L2 9L2 10L3 10L3 8ZM6 9L6 10L5 10L5 11L4 11L4 12L3 12L3 13L5 13L5 12L7 12L7 13L6 13L6 14L8 14L8 11L10 11L10 10L7 10L7 9ZM6 10L6 11L7 11L7 10ZM21 10L21 11L22 11L22 10ZM11 11L11 12L12 12L12 11ZM15 13L15 14L17 14L17 13ZM19 15L19 16L21 16L21 17L22 17L22 16L21 16L21 15ZM17 17L17 20L20 20L20 17ZM9 18L9 19L10 19L10 18ZM18 18L18 19L19 19L19 18ZM9 20L9 21L10 21L10 20ZM15 20L15 23L16 23L16 22L17 22L17 21L16 21L16 20ZM20 21L20 22L21 22L21 24L23 24L23 23L22 23L22 22L21 22L21 21ZM10 22L10 23L9 23L9 24L10 24L10 23L11 23L11 22ZM0 0L0 7L7 7L7 0ZM1 1L1 6L6 6L6 1ZM2 2L2 5L5 5L5 2ZM18 0L18 7L25 7L25 0ZM19 1L19 6L24 6L24 1ZM20 2L20 5L23 5L23 2ZM0 18L0 25L7 25L7 18ZM1 19L1 24L6 24L6 19ZM2 20L2 23L5 23L5 20Z" fill="#000000"/></g></g></svg>
