<?xml version="1.0" encoding="UTF-8"?>
<svg xmlns="http://www.w3.org/2000/svg" version="1.1" width="300" height="300" viewBox="0 0 300 300"><rect x="0" y="0" width="300" height="300" fill="#ffffff"/><g transform="scale(7.317)"><g transform="translate(0,0)"><path fill-rule="evenodd" d="M10 0L10 1L11 1L11 2L13 2L13 3L11 3L11 4L9 4L9 3L10 3L10 2L9 2L9 3L8 3L8 5L12 5L12 8L11 8L11 9L10 9L10 11L9 11L9 9L8 9L8 8L5 8L5 9L4 9L4 10L5 10L5 11L4 11L4 12L3 12L3 10L1 10L1 9L2 9L2 8L0 8L0 10L1 10L1 11L2 11L2 12L0 12L0 13L2 13L2 12L3 12L3 13L4 13L4 12L5 12L5 14L6 14L6 15L5 15L5 16L6 16L6 17L5 17L5 19L4 19L4 20L5 20L5 21L4 21L4 22L3 22L3 18L1 18L1 19L0 19L0 21L1 21L1 22L3 22L3 23L0 23L0 28L1 28L1 29L0 29L0 33L1 33L1 31L2 31L2 32L5 32L5 31L7 31L7 32L6 32L6 33L8 33L8 36L9 36L9 35L10 35L10 38L9 38L9 39L8 39L8 41L9 41L9 39L10 39L10 38L11 38L11 37L12 37L12 38L13 38L13 39L12 39L12 40L13 40L13 41L14 41L14 40L13 40L13 39L14 39L14 38L13 38L13 37L14 37L14 35L16 35L16 36L15 36L15 37L16 37L16 36L17 36L17 37L18 37L18 38L15 38L15 39L16 39L16 40L15 40L15 41L16 41L16 40L17 40L17 39L18 39L18 38L19 38L19 37L21 37L21 38L22 38L22 41L23 41L23 40L24 40L24 41L30 41L30 40L32 40L32 39L31 39L31 38L29 38L29 35L30 35L30 32L29 32L29 30L31 30L31 31L32 31L32 29L33 29L33 30L35 30L35 29L36 29L36 30L37 30L37 31L36 31L36 32L35 32L35 31L34 31L34 32L31 32L31 33L32 33L32 34L31 34L31 35L32 35L32 36L31 36L31 37L35 37L35 38L34 38L34 39L33 39L33 40L34 40L34 41L36 41L36 39L37 39L37 38L38 38L38 36L37 36L37 35L39 35L39 34L38 34L38 33L39 33L39 32L40 32L40 34L41 34L41 29L40 29L40 26L41 26L41 25L40 25L40 24L38 24L38 23L39 23L39 22L40 22L40 21L39 21L39 20L37 20L37 19L39 19L39 18L37 18L37 17L36 17L36 16L39 16L39 14L41 14L41 12L40 12L40 11L39 11L39 12L40 12L40 13L39 13L39 14L37 14L37 13L36 13L36 15L35 15L35 12L38 12L38 11L36 11L36 10L39 10L39 9L38 9L38 8L36 8L36 10L35 10L35 12L33 12L33 14L32 14L32 13L31 13L31 12L32 12L32 11L31 11L31 10L33 10L33 11L34 11L34 10L33 10L33 8L32 8L32 9L31 9L31 5L32 5L32 7L33 7L33 5L32 5L32 3L29 3L29 2L31 2L31 1L30 1L30 0L29 0L29 1L28 1L28 3L27 3L27 4L26 4L26 3L25 3L25 2L27 2L27 0L26 0L26 1L24 1L24 2L23 2L23 0L21 0L21 1L20 1L20 3L19 3L19 2L18 2L18 1L19 1L19 0L18 0L18 1L17 1L17 0L16 0L16 1L17 1L17 2L15 2L15 1L12 1L12 0ZM32 0L32 1L33 1L33 0ZM21 1L21 2L22 2L22 3L23 3L23 4L22 4L22 5L21 5L21 3L20 3L20 4L19 4L19 3L15 3L15 2L14 2L14 3L13 3L13 4L12 4L12 5L14 5L14 6L13 6L13 8L14 8L14 9L13 9L13 10L12 10L12 11L13 11L13 12L14 12L14 11L15 11L15 15L12 15L12 17L13 17L13 16L14 16L14 17L16 17L16 19L15 19L15 18L13 18L13 19L12 19L12 20L11 20L11 22L10 22L10 20L9 20L9 19L8 19L8 22L7 22L7 21L6 21L6 22L7 22L7 23L5 23L5 22L4 22L4 23L5 23L5 25L3 25L3 24L2 24L2 25L1 25L1 26L2 26L2 29L1 29L1 30L2 30L2 29L3 29L3 28L4 28L4 27L3 27L3 26L5 26L5 28L7 28L7 29L4 29L4 31L5 31L5 30L8 30L8 32L9 32L9 34L10 34L10 32L11 32L11 31L12 31L12 33L13 33L13 32L14 32L14 34L16 34L16 35L17 35L17 33L19 33L19 34L18 34L18 35L20 35L20 34L21 34L21 37L22 37L22 36L23 36L23 37L27 37L27 36L28 36L28 35L27 35L27 36L26 36L26 33L25 33L25 32L26 32L26 31L25 31L25 30L27 30L27 29L25 29L25 28L26 28L26 27L27 27L27 24L28 24L28 23L26 23L26 21L25 21L25 20L26 20L26 19L27 19L27 21L28 21L28 22L29 22L29 26L28 26L28 27L29 27L29 28L28 28L28 29L29 29L29 28L30 28L30 29L31 29L31 28L30 28L30 27L32 27L32 28L34 28L34 29L35 29L35 28L36 28L36 29L38 29L38 31L37 31L37 32L39 32L39 31L40 31L40 29L38 29L38 25L37 25L37 24L35 24L35 23L36 23L36 22L35 22L35 21L36 21L36 19L37 19L37 18L36 18L36 17L35 17L35 15L34 15L34 14L33 14L33 15L32 15L32 14L31 14L31 13L30 13L30 10L31 10L31 9L30 9L30 10L29 10L29 9L28 9L28 8L27 8L27 7L28 7L28 4L27 4L27 7L26 7L26 4L25 4L25 3L23 3L23 2L22 2L22 1ZM15 4L15 5L16 5L16 7L17 7L17 6L18 6L18 8L15 8L15 11L17 11L17 9L18 9L18 11L19 11L19 10L20 10L20 12L16 12L16 14L17 14L17 13L20 13L20 14L19 14L19 19L16 19L16 22L15 22L15 20L14 20L14 19L13 19L13 20L14 20L14 21L12 21L12 22L15 22L15 23L14 23L14 26L15 26L15 29L14 29L14 31L15 31L15 32L16 32L16 33L17 33L17 31L18 31L18 29L20 29L20 31L19 31L19 33L21 33L21 31L22 31L22 34L24 34L24 35L25 35L25 34L24 34L24 32L23 32L23 31L24 31L24 30L25 30L25 29L20 29L20 27L22 27L22 28L25 28L25 27L26 27L26 26L25 26L25 25L24 25L24 24L25 24L25 21L24 21L24 17L23 17L23 16L22 16L22 17L23 17L23 18L21 18L21 16L20 16L20 14L21 14L21 11L22 11L22 14L24 14L24 16L25 16L25 19L26 19L26 18L27 18L27 19L28 19L28 18L29 18L29 19L30 19L30 20L28 20L28 21L30 21L30 26L29 26L29 27L30 27L30 26L32 26L32 25L31 25L31 22L32 22L32 23L34 23L34 22L33 22L33 21L34 21L34 20L32 20L32 21L31 21L31 19L32 19L32 17L33 17L33 18L34 18L34 19L36 19L36 18L35 18L35 17L34 17L34 16L32 16L32 15L31 15L31 14L30 14L30 16L29 16L29 15L28 15L28 14L29 14L29 13L28 13L28 14L26 14L26 15L27 15L27 16L25 16L25 13L24 13L24 12L23 12L23 10L24 10L24 11L25 11L25 10L24 10L24 9L23 9L23 8L25 8L25 9L26 9L26 12L27 12L27 11L28 11L28 10L27 10L27 8L25 8L25 4L23 4L23 5L24 5L24 7L23 7L23 6L22 6L22 9L21 9L21 10L20 10L20 9L18 9L18 8L19 8L19 4L18 4L18 5L16 5L16 4ZM29 4L29 8L30 8L30 5L31 5L31 4ZM20 5L20 7L21 7L21 5ZM8 6L8 7L9 7L9 8L10 8L10 7L11 7L11 6L10 6L10 7L9 7L9 6ZM14 6L14 7L15 7L15 6ZM5 9L5 10L8 10L8 9ZM40 9L40 10L41 10L41 9ZM6 11L6 12L7 12L7 13L6 13L6 14L7 14L7 13L8 13L8 14L9 14L9 11L8 11L8 12L7 12L7 11ZM10 11L10 14L14 14L14 13L11 13L11 11ZM0 14L0 16L3 16L3 15L1 15L1 14ZM6 15L6 16L7 16L7 17L6 17L6 18L7 18L7 17L8 17L8 18L10 18L10 17L11 17L11 16L10 16L10 17L8 17L8 16L7 16L7 15ZM15 15L15 16L16 16L16 17L17 17L17 18L18 18L18 16L16 16L16 15ZM40 15L40 16L41 16L41 15ZM31 16L31 17L30 17L30 18L31 18L31 17L32 17L32 16ZM40 18L40 20L41 20L41 18ZM1 19L1 20L2 20L2 19ZM6 19L6 20L7 20L7 19ZM21 19L21 21L22 21L22 22L21 22L21 23L20 23L20 21L19 21L19 20L17 20L17 22L18 22L18 21L19 21L19 24L21 24L21 26L22 26L22 27L25 27L25 26L23 26L23 24L22 24L22 23L24 23L24 22L23 22L23 19ZM37 21L37 22L38 22L38 21ZM8 22L8 25L9 25L9 26L6 26L6 25L7 25L7 24L6 24L6 25L5 25L5 26L6 26L6 27L8 27L8 28L9 28L9 29L8 29L8 30L10 30L10 31L9 31L9 32L10 32L10 31L11 31L11 30L10 30L10 29L11 29L11 28L9 28L9 26L10 26L10 27L11 27L11 26L12 26L12 29L13 29L13 25L12 25L12 24L13 24L13 23L12 23L12 24L10 24L10 22ZM15 23L15 24L17 24L17 25L16 25L16 27L17 27L17 28L16 28L16 29L15 29L15 31L16 31L16 29L18 29L18 28L19 28L19 27L20 27L20 26L19 26L19 25L18 25L18 23ZM33 24L33 25L34 25L34 27L36 27L36 28L37 28L37 25L36 25L36 26L35 26L35 24ZM18 26L18 27L19 27L19 26ZM12 30L12 31L13 31L13 30ZM27 31L27 32L28 32L28 34L29 34L29 32L28 32L28 31ZM33 33L33 36L36 36L36 33ZM11 34L11 35L12 35L12 34ZM34 34L34 35L35 35L35 34ZM40 35L40 38L41 38L41 35ZM12 36L12 37L13 37L13 36ZM18 36L18 37L19 37L19 36ZM36 37L36 38L35 38L35 39L36 39L36 38L37 38L37 37ZM23 38L23 39L24 39L24 38ZM25 38L25 40L27 40L27 38ZM28 38L28 39L29 39L29 40L30 40L30 39L29 39L29 38ZM20 39L20 40L21 40L21 39ZM38 39L38 40L37 40L37 41L39 41L39 39ZM40 39L40 40L41 40L41 39ZM10 40L10 41L11 41L11 40ZM0 0L0 7L7 7L7 0ZM1 1L1 6L6 6L6 1ZM2 2L2 5L5 5L5 2ZM34 0L34 7L41 7L41 0ZM35 1L35 6L40 6L40 1ZM36 2L36 5L39 5L39 2ZM0 34L0 41L7 41L7 34ZM1 35L1 40L6 40L6 35ZM2 36L2 39L5 39L5 36Z" fill="#000000"/></g></g></svg>
