<?xml version="1.0" encoding="UTF-8"?>
<svg xmlns="http://www.w3.org/2000/svg" version="1.1" width="300" height="300" viewBox="0 0 300 300"><rect x="0" y="0" width="300" height="300" fill="#ffffff"/><g transform="scale(3.093)"><g transform="translate(0,0)"><path fill-rule="evenodd" d="M10 0L10 2L9 2L9 1L8 1L8 2L9 2L9 3L8 3L8 4L9 4L9 3L10 3L10 2L11 2L11 1L12 1L12 2L13 2L13 1L14 1L14 0L13 0L13 1L12 1L12 0ZM15 0L15 1L16 1L16 2L15 2L15 4L14 4L14 3L13 3L13 4L12 4L12 5L11 5L11 6L10 6L10 5L8 5L8 7L9 7L9 8L6 8L6 9L9 9L9 10L10 10L10 11L9 11L9 12L10 12L10 13L8 13L8 15L7 15L7 14L5 14L5 13L7 13L7 12L8 12L8 11L7 11L7 10L6 10L6 11L7 11L7 12L4 12L4 11L5 11L5 8L0 8L0 9L4 9L4 11L3 11L3 10L1 10L1 11L0 11L0 12L1 12L1 14L0 14L0 15L1 15L1 16L2 16L2 17L0 17L0 21L2 21L2 20L1 20L1 19L3 19L3 21L4 21L4 20L5 20L5 19L3 19L3 18L5 18L5 17L4 17L4 16L6 16L6 17L8 17L8 16L9 16L9 17L11 17L11 18L9 18L9 19L8 19L8 18L6 18L6 19L7 19L7 20L6 20L6 21L5 21L5 22L3 22L3 23L5 23L5 25L8 25L8 24L6 24L6 23L7 23L7 22L6 22L6 21L8 21L8 20L9 20L9 19L10 19L10 20L11 20L11 21L10 21L10 22L8 22L8 23L9 23L9 25L12 25L12 26L13 26L13 27L12 27L12 30L11 30L11 31L12 31L12 32L11 32L11 33L9 33L9 32L10 32L10 31L8 31L8 30L9 30L9 29L11 29L11 28L10 28L10 26L8 26L8 27L7 27L7 26L6 26L6 27L7 27L7 28L6 28L6 29L7 29L7 28L8 28L8 27L9 27L9 29L8 29L8 30L5 30L5 29L3 29L3 28L5 28L5 27L4 27L4 26L2 26L2 25L4 25L4 24L1 24L1 23L0 23L0 31L1 31L1 35L0 35L0 41L1 41L1 44L3 44L3 46L4 46L4 48L6 48L6 49L7 49L7 50L6 50L6 51L7 51L7 52L5 52L5 49L4 49L4 50L3 50L3 49L2 49L2 48L1 48L1 46L0 46L0 48L1 48L1 49L2 49L2 50L0 50L0 52L1 52L1 53L2 53L2 54L0 54L0 56L2 56L2 57L0 57L0 58L2 58L2 59L0 59L0 61L1 61L1 62L0 62L0 65L3 65L3 64L2 64L2 61L4 61L4 62L3 62L3 63L4 63L4 65L7 65L7 66L5 66L5 67L7 67L7 68L6 68L6 69L5 69L5 68L3 68L3 69L2 69L2 70L3 70L3 71L1 71L1 72L0 72L0 74L3 74L3 72L4 72L4 73L5 73L5 72L4 72L4 71L5 71L5 70L6 70L6 71L7 71L7 72L6 72L6 73L7 73L7 74L6 74L6 75L3 75L3 78L2 78L2 75L1 75L1 76L0 76L0 78L1 78L1 79L0 79L0 80L3 80L3 81L2 81L2 83L0 83L0 86L1 86L1 85L2 85L2 86L3 86L3 85L5 85L5 84L3 84L3 82L5 82L5 81L11 81L11 82L12 82L12 85L13 85L13 86L14 86L14 88L12 88L12 87L11 87L11 85L10 85L10 87L9 87L9 85L8 85L8 84L9 84L9 82L8 82L8 83L7 83L7 82L6 82L6 83L7 83L7 84L6 84L6 85L7 85L7 86L6 86L6 87L5 87L5 88L3 88L3 87L2 87L2 88L1 88L1 87L0 87L0 89L5 89L5 88L6 88L6 89L8 89L8 91L10 91L10 90L9 90L9 89L12 89L12 90L11 90L11 92L12 92L12 90L13 90L13 94L11 94L11 93L10 93L10 94L11 94L11 95L10 95L10 96L9 96L9 92L8 92L8 97L10 97L10 96L11 96L11 97L12 97L12 96L15 96L15 97L16 97L16 96L17 96L17 97L19 97L19 96L18 96L18 95L19 95L19 94L16 94L16 91L20 91L20 92L19 92L19 93L20 93L20 94L21 94L21 96L20 96L20 97L22 97L22 95L24 95L24 96L23 96L23 97L24 97L24 96L25 96L25 95L24 95L24 94L26 94L26 96L27 96L27 94L28 94L28 93L24 93L24 92L27 92L27 91L26 91L26 90L28 90L28 91L29 91L29 90L28 90L28 89L26 89L26 90L22 90L22 88L23 88L23 89L24 89L24 88L25 88L25 86L26 86L26 87L27 87L27 88L28 88L28 86L30 86L30 89L31 89L31 88L32 88L32 91L31 91L31 90L30 90L30 93L29 93L29 94L30 94L30 95L31 95L31 96L30 96L30 97L31 97L31 96L32 96L32 95L31 95L31 94L32 94L32 93L33 93L33 97L38 97L38 96L36 96L36 95L37 95L37 94L39 94L39 95L40 95L40 96L42 96L42 97L44 97L44 96L45 96L45 97L46 97L46 94L47 94L47 95L51 95L51 96L48 96L48 97L51 97L51 96L53 96L53 97L56 97L56 96L58 96L58 95L59 95L59 94L62 94L62 93L63 93L63 94L64 94L64 93L67 93L67 92L68 92L68 91L69 91L69 92L70 92L70 91L71 91L71 92L75 92L75 93L74 93L74 94L73 94L73 93L72 93L72 94L71 94L71 96L70 96L70 95L69 95L69 94L70 94L70 93L68 93L68 95L66 95L66 94L65 94L65 95L66 95L66 96L68 96L68 97L71 97L71 96L72 96L72 97L74 97L74 95L75 95L75 94L76 94L76 93L78 93L78 94L77 94L77 95L78 95L78 96L75 96L75 97L79 97L79 96L80 96L80 94L82 94L82 96L81 96L81 97L83 97L83 95L87 95L87 94L88 94L88 93L90 93L90 94L91 94L91 95L88 95L88 96L89 96L89 97L91 97L91 95L92 95L92 94L94 94L94 92L93 92L93 91L94 91L94 89L97 89L97 86L96 86L96 85L95 85L95 86L94 86L94 85L93 85L93 84L92 84L92 83L91 83L91 82L92 82L92 81L93 81L93 83L94 83L94 81L95 81L95 80L94 80L94 79L96 79L96 81L97 81L97 74L95 74L95 75L96 75L96 78L94 78L94 76L92 76L92 77L93 77L93 78L92 78L92 80L91 80L91 79L90 79L90 78L91 78L91 75L94 75L94 73L95 73L95 72L93 72L93 71L92 71L92 69L93 69L93 70L96 70L96 71L97 71L97 70L96 70L96 69L97 69L97 66L94 66L94 65L95 65L95 64L96 64L96 65L97 65L97 64L96 64L96 63L97 63L97 62L96 62L96 61L97 61L97 57L96 57L96 58L95 58L95 56L97 56L97 53L96 53L96 51L97 51L97 50L96 50L96 48L97 48L97 46L95 46L95 48L94 48L94 50L93 50L93 49L92 49L92 48L93 48L93 47L92 47L92 48L91 48L91 47L89 47L89 46L91 46L91 45L92 45L92 46L93 46L93 45L97 45L97 44L96 44L96 43L97 43L97 42L95 42L95 40L93 40L93 41L94 41L94 42L93 42L93 43L92 43L92 44L91 44L91 43L90 43L90 41L89 41L89 42L88 42L88 41L86 41L86 42L83 42L83 43L89 43L89 44L91 44L91 45L89 45L89 46L88 46L88 45L87 45L87 46L88 46L88 47L89 47L89 48L87 48L87 47L86 47L86 46L85 46L85 45L86 45L86 44L84 44L84 47L80 47L80 48L84 48L84 49L81 49L81 50L80 50L80 51L79 51L79 52L80 52L80 53L78 53L78 54L77 54L77 55L76 55L76 54L75 54L75 53L77 53L77 52L75 52L75 53L74 53L74 54L72 54L72 53L73 53L73 52L74 52L74 51L78 51L78 50L79 50L79 48L77 48L77 47L79 47L79 45L78 45L78 46L77 46L77 44L75 44L75 43L78 43L78 44L80 44L80 46L82 46L82 39L83 39L83 40L84 40L84 39L86 39L86 38L84 38L84 39L83 39L83 38L82 38L82 36L81 36L81 35L78 35L78 34L77 34L77 35L76 35L76 36L75 36L75 37L76 37L76 38L77 38L77 39L76 39L76 40L75 40L75 39L74 39L74 38L73 38L73 36L72 36L72 35L74 35L74 34L76 34L76 33L78 33L78 32L80 32L80 33L79 33L79 34L82 34L82 35L83 35L83 36L85 36L85 37L87 37L87 38L88 38L88 39L87 39L87 40L88 40L88 39L89 39L89 38L90 38L90 40L91 40L91 41L92 41L92 40L91 40L91 39L92 39L92 37L93 37L93 38L94 38L94 37L95 37L95 38L96 38L96 39L97 39L97 38L96 38L96 36L97 36L97 34L94 34L94 31L95 31L95 33L97 33L97 30L96 30L96 29L97 29L97 26L95 26L95 24L92 24L92 23L93 23L93 21L94 21L94 23L95 23L95 22L96 22L96 23L97 23L97 22L96 22L96 21L97 21L97 20L96 20L96 21L95 21L95 20L94 20L94 19L93 19L93 18L94 18L94 17L97 17L97 14L96 14L96 12L97 12L97 10L95 10L95 12L94 12L94 8L93 8L93 9L92 9L92 8L91 8L91 9L90 9L90 8L88 8L88 7L89 7L89 6L88 6L88 5L89 5L89 0L87 0L87 1L88 1L88 2L87 2L87 3L88 3L88 5L87 5L87 6L86 6L86 5L85 5L85 3L86 3L86 0L85 0L85 3L84 3L84 7L83 7L83 4L79 4L79 6L78 6L78 5L77 5L77 3L82 3L82 2L84 2L84 0L79 0L79 2L78 2L78 1L77 1L77 0L76 0L76 3L75 3L75 6L74 6L74 5L73 5L73 4L74 4L74 2L75 2L75 1L72 1L72 0L71 0L71 2L72 2L72 3L73 3L73 4L71 4L71 3L70 3L70 2L68 2L68 1L67 1L67 0L66 0L66 1L65 1L65 2L66 2L66 4L67 4L67 5L66 5L66 7L65 7L65 4L64 4L64 0L62 0L62 1L63 1L63 2L62 2L62 3L63 3L63 4L61 4L61 3L60 3L60 5L57 5L57 6L56 6L56 3L59 3L59 2L61 2L61 0L59 0L59 1L58 1L58 0L57 0L57 1L58 1L58 2L55 2L55 0L53 0L53 1L52 1L52 0L51 0L51 1L50 1L50 0L49 0L49 1L48 1L48 0L47 0L47 1L45 1L45 0L44 0L44 1L43 1L43 0L41 0L41 1L43 1L43 2L42 2L42 3L41 3L41 5L44 5L44 4L42 4L42 3L44 3L44 2L46 2L46 4L47 4L47 5L45 5L45 6L44 6L44 7L43 7L43 6L42 6L42 7L41 7L41 6L40 6L40 5L38 5L38 4L40 4L40 3L39 3L39 1L37 1L37 0L35 0L35 1L34 1L34 2L33 2L33 4L32 4L32 3L30 3L30 2L32 2L32 1L33 1L33 0L32 0L32 1L30 1L30 0L29 0L29 3L28 3L28 4L27 4L27 3L26 3L26 4L25 4L25 3L23 3L23 2L25 2L25 1L26 1L26 2L27 2L27 1L28 1L28 0L25 0L25 1L22 1L22 3L20 3L20 5L21 5L21 6L20 6L20 7L19 7L19 6L18 6L18 5L19 5L19 4L17 4L17 6L16 6L16 3L17 3L17 0ZM19 0L19 2L20 2L20 0ZM69 0L69 1L70 1L70 0ZM35 1L35 2L34 2L34 4L38 4L38 3L36 3L36 1ZM47 1L47 4L48 4L48 5L47 5L47 7L46 7L46 6L45 6L45 7L46 7L46 10L44 10L44 9L45 9L45 8L43 8L43 10L42 10L42 9L41 9L41 8L39 8L39 7L40 7L40 6L39 6L39 7L38 7L38 5L37 5L37 8L38 8L38 9L37 9L37 10L36 10L36 12L35 12L35 10L34 10L34 9L32 9L32 8L31 8L31 9L32 9L32 10L34 10L34 12L33 12L33 11L31 11L31 10L30 10L30 12L33 12L33 14L32 14L32 15L30 15L30 14L31 14L31 13L29 13L29 14L28 14L28 15L29 15L29 17L30 17L30 18L31 18L31 23L30 23L30 22L28 22L28 23L29 23L29 25L28 25L28 24L27 24L27 22L26 22L26 23L25 23L25 24L24 24L24 22L25 22L25 21L27 21L27 20L25 20L25 19L24 19L24 17L28 17L28 16L27 16L27 14L26 14L26 13L28 13L28 12L29 12L29 11L28 11L28 12L26 12L26 13L25 13L25 12L24 12L24 11L25 11L25 9L28 9L28 10L29 10L29 9L30 9L30 8L29 8L29 9L28 9L28 8L27 8L27 7L28 7L28 6L27 6L27 5L25 5L25 4L23 4L23 3L22 3L22 4L21 4L21 5L22 5L22 6L21 6L21 8L20 8L20 9L19 9L19 8L18 8L18 6L17 6L17 7L16 7L16 6L15 6L15 5L14 5L14 4L13 4L13 5L12 5L12 6L11 6L11 7L12 7L12 10L11 10L11 11L10 11L10 12L13 12L13 13L12 13L12 14L11 14L11 13L10 13L10 14L11 14L11 15L10 15L10 16L11 16L11 17L12 17L12 16L13 16L13 15L15 15L15 19L14 19L14 17L13 17L13 19L14 19L14 20L13 20L13 21L11 21L11 22L10 22L10 23L12 23L12 25L13 25L13 26L14 26L14 25L16 25L16 26L15 26L15 27L16 27L16 29L14 29L14 30L13 30L13 31L15 31L15 32L17 32L17 33L14 33L14 32L13 32L13 34L12 34L12 35L10 35L10 36L11 36L11 37L12 37L12 35L13 35L13 36L14 36L14 35L15 35L15 34L16 34L16 36L17 36L17 35L18 35L18 34L17 34L17 33L19 33L19 34L20 34L20 35L22 35L22 36L23 36L23 35L22 35L22 34L24 34L24 36L25 36L25 37L28 37L28 38L25 38L25 39L24 39L24 41L23 41L23 38L24 38L24 37L23 37L23 38L22 38L22 37L21 37L21 38L22 38L22 41L23 41L23 42L22 42L22 44L23 44L23 45L22 45L22 46L20 46L20 45L21 45L21 40L20 40L20 39L19 39L19 38L18 38L18 37L20 37L20 36L18 36L18 37L16 37L16 38L15 38L15 39L14 39L14 40L15 40L15 39L16 39L16 41L12 41L12 40L13 40L13 39L12 39L12 38L11 38L11 39L12 39L12 40L10 40L10 43L11 43L11 44L9 44L9 45L12 45L12 46L10 46L10 47L12 47L12 46L14 46L14 48L15 48L15 45L14 45L14 44L13 44L13 42L15 42L15 43L16 43L16 47L17 47L17 48L16 48L16 49L13 49L13 48L8 48L8 47L6 47L6 48L7 48L7 49L8 49L8 50L7 50L7 51L9 51L9 49L11 49L11 50L12 50L12 51L10 51L10 53L9 53L9 56L10 56L10 53L12 53L12 54L16 54L16 55L18 55L18 54L19 54L19 53L20 53L20 54L21 54L21 53L20 53L20 52L21 52L21 50L22 50L22 52L23 52L23 53L26 53L26 52L23 52L23 51L24 51L24 50L25 50L25 51L28 51L28 52L29 52L29 53L27 53L27 54L26 54L26 56L24 56L24 57L22 57L22 58L21 58L21 56L20 56L20 55L19 55L19 56L16 56L16 57L14 57L14 55L13 55L13 56L12 56L12 55L11 55L11 56L12 56L12 57L11 57L11 58L12 58L12 57L14 57L14 58L16 58L16 59L12 59L12 60L10 60L10 59L9 59L9 57L5 57L5 55L6 55L6 56L8 56L8 55L6 55L6 54L8 54L8 52L7 52L7 53L6 53L6 54L4 54L4 52L3 52L3 51L1 51L1 52L2 52L2 53L3 53L3 54L2 54L2 55L3 55L3 56L4 56L4 57L5 57L5 58L3 58L3 57L2 57L2 58L3 58L3 60L5 60L5 59L6 59L6 60L10 60L10 62L9 62L9 65L8 65L8 67L10 67L10 68L9 68L9 69L6 69L6 70L8 70L8 71L10 71L10 73L9 73L9 74L11 74L11 75L12 75L12 76L11 76L11 78L10 78L10 79L11 79L11 80L13 80L13 81L15 81L15 80L16 80L16 81L17 81L17 82L15 82L15 83L14 83L14 84L13 84L13 85L14 85L14 86L15 86L15 88L14 88L14 90L15 90L15 91L16 91L16 90L15 90L15 88L16 88L16 89L17 89L17 90L18 90L18 88L17 88L17 87L16 87L16 86L15 86L15 85L16 85L16 84L18 84L18 83L17 83L17 82L18 82L18 81L19 81L19 82L20 82L20 79L22 79L22 80L21 80L21 82L23 82L23 83L22 83L22 85L21 85L21 84L20 84L20 86L19 86L19 85L17 85L17 86L19 86L19 87L21 87L21 86L23 86L23 88L24 88L24 86L25 86L25 85L26 85L26 84L28 84L28 85L30 85L30 86L31 86L31 87L32 87L32 88L34 88L34 87L36 87L36 84L35 84L35 86L34 86L34 84L33 84L33 86L32 86L32 84L31 84L31 85L30 85L30 84L28 84L28 83L30 83L30 82L33 82L33 83L36 83L36 82L37 82L37 83L38 83L38 82L40 82L40 83L39 83L39 85L38 85L38 84L37 84L37 85L38 85L38 86L39 86L39 85L41 85L41 84L40 84L40 83L42 83L42 84L44 84L44 86L40 86L40 87L37 87L37 89L38 89L38 91L39 91L39 90L41 90L41 89L42 89L42 87L44 87L44 86L45 86L45 85L46 85L46 88L43 88L43 89L44 89L44 91L42 91L42 92L39 92L39 94L40 94L40 95L42 95L42 94L43 94L43 93L45 93L45 94L44 94L44 95L45 95L45 94L46 94L46 93L45 93L45 92L46 92L46 90L47 90L47 89L48 89L48 88L49 88L49 90L51 90L51 89L52 89L52 91L47 91L47 93L48 93L48 92L49 92L49 94L51 94L51 95L53 95L53 94L54 94L54 95L55 95L55 96L56 96L56 95L57 95L57 94L59 94L59 93L60 93L60 90L59 90L59 89L60 89L60 88L59 88L59 87L62 87L62 86L60 86L60 85L61 85L61 84L59 84L59 83L62 83L62 81L63 81L63 80L62 80L62 81L61 81L61 80L60 80L60 79L65 79L65 81L64 81L64 82L66 82L66 83L68 83L68 84L67 84L67 85L68 85L68 84L69 84L69 83L68 83L68 81L69 81L69 80L67 80L67 79L65 79L65 78L66 78L66 77L64 77L64 76L63 76L63 75L64 75L64 74L63 74L63 73L64 73L64 72L67 72L67 73L68 73L68 72L67 72L67 71L65 71L65 70L67 70L67 69L69 69L69 67L70 67L70 68L71 68L71 69L72 69L72 70L74 70L74 71L72 71L72 72L70 72L70 74L71 74L71 75L70 75L70 76L71 76L71 77L70 77L70 78L69 78L69 77L68 77L68 76L67 76L67 78L69 78L69 79L72 79L72 80L70 80L70 82L71 82L71 81L72 81L72 82L74 82L74 81L72 81L72 80L73 80L73 78L74 78L74 79L75 79L75 80L76 80L76 79L75 79L75 77L74 77L74 76L76 76L76 78L79 78L79 77L82 77L82 78L80 78L80 80L79 80L79 79L77 79L77 82L78 82L78 83L79 83L79 85L78 85L78 84L77 84L77 83L76 83L76 81L75 81L75 83L74 83L74 84L76 84L76 86L78 86L78 87L77 87L77 88L79 88L79 89L76 89L76 91L75 91L75 92L76 92L76 91L77 91L77 90L78 90L78 92L79 92L79 93L82 93L82 92L83 92L83 94L87 94L87 93L85 93L85 91L86 91L86 92L88 92L88 90L87 90L87 89L88 89L88 88L91 88L91 87L93 87L93 85L92 85L92 84L91 84L91 85L90 85L90 86L89 86L89 87L88 87L88 88L87 88L87 86L88 86L88 85L89 85L89 84L88 84L88 83L85 83L85 82L86 82L86 80L83 80L83 83L82 83L82 82L80 82L80 80L82 80L82 79L83 79L83 77L84 77L84 79L85 79L85 78L86 78L86 79L87 79L87 82L88 82L88 81L89 81L89 82L90 82L90 80L88 80L88 79L89 79L89 78L90 78L90 77L89 77L89 76L90 76L90 74L91 74L91 73L92 73L92 74L93 74L93 73L92 73L92 72L91 72L91 71L90 71L90 70L91 70L91 69L89 69L89 68L87 68L87 66L89 66L89 67L90 67L90 68L95 68L95 67L94 67L94 66L93 66L93 65L94 65L94 64L95 64L95 63L96 63L96 62L95 62L95 63L94 63L94 64L93 64L93 65L92 65L92 66L93 66L93 67L90 67L90 65L88 65L88 64L87 64L87 63L86 63L86 65L85 65L85 63L84 63L84 62L86 62L86 61L85 61L85 60L87 60L87 58L88 58L88 56L89 56L89 57L90 57L90 58L91 58L91 60L92 60L92 59L93 59L93 58L94 58L94 56L95 56L95 55L96 55L96 53L95 53L95 55L94 55L94 53L93 53L93 52L92 52L92 51L91 51L91 52L92 52L92 54L91 54L91 56L89 56L89 55L90 55L90 54L89 54L89 53L88 53L88 52L89 52L89 51L90 51L90 50L89 50L89 51L86 51L86 53L85 53L85 52L83 52L83 51L82 51L82 50L81 50L81 51L80 51L80 52L81 52L81 51L82 51L82 52L83 52L83 53L85 53L85 54L86 54L86 55L85 55L85 58L84 58L84 60L81 60L81 59L83 59L83 57L84 57L84 56L83 56L83 57L82 57L82 58L81 58L81 57L80 57L80 56L82 56L82 54L81 54L81 53L80 53L80 54L78 54L78 55L77 55L77 56L76 56L76 55L72 55L72 56L71 56L71 57L70 57L70 58L71 58L71 59L70 59L70 61L71 61L71 62L68 62L68 60L69 60L69 59L68 59L68 58L69 58L69 55L70 55L70 54L69 54L69 53L68 53L68 52L69 52L69 51L70 51L70 53L72 53L72 52L71 52L71 51L73 51L73 50L74 50L74 49L75 49L75 50L78 50L78 49L77 49L77 48L76 48L76 47L77 47L77 46L76 46L76 47L75 47L75 46L74 46L74 45L75 45L75 44L73 44L73 42L78 42L78 43L80 43L80 41L81 41L81 40L79 40L79 42L78 42L78 39L79 39L79 38L80 38L80 39L82 39L82 38L81 38L81 37L80 37L80 36L78 36L78 37L77 37L77 36L76 36L76 37L77 37L77 38L78 38L78 39L77 39L77 40L76 40L76 41L73 41L73 39L72 39L72 38L69 38L69 37L70 37L70 36L71 36L71 37L72 37L72 36L71 36L71 35L72 35L72 34L74 34L74 33L75 33L75 32L76 32L76 31L77 31L77 30L78 30L78 31L82 31L82 30L83 30L83 31L84 31L84 32L81 32L81 33L82 33L82 34L86 34L86 35L87 35L87 34L88 34L88 33L87 33L87 34L86 34L86 32L90 32L90 31L89 31L89 30L90 30L90 28L91 28L91 29L92 29L92 30L91 30L91 31L92 31L92 32L93 32L93 31L94 31L94 30L93 30L93 27L92 27L92 26L91 26L91 23L92 23L92 22L91 22L91 21L92 21L92 20L93 20L93 19L92 19L92 18L91 18L91 17L92 17L92 16L95 16L95 15L92 15L92 16L90 16L90 15L89 15L89 14L86 14L86 13L88 13L88 12L89 12L89 11L86 11L86 12L85 12L85 11L84 11L84 9L85 9L85 10L87 10L87 9L88 9L88 8L87 8L87 7L88 7L88 6L87 6L87 7L86 7L86 6L85 6L85 7L84 7L84 8L83 8L83 7L82 7L82 5L80 5L80 6L79 6L79 7L80 7L80 6L81 6L81 7L82 7L82 8L81 8L81 9L82 9L82 10L80 10L80 8L79 8L79 10L78 10L78 6L77 6L77 5L76 5L76 6L75 6L75 7L74 7L74 6L73 6L73 5L72 5L72 6L71 6L71 4L70 4L70 3L69 3L69 4L68 4L68 3L67 3L67 4L68 4L68 5L67 5L67 7L68 7L68 6L69 6L69 7L70 7L70 6L71 6L71 7L72 7L72 6L73 6L73 9L72 9L72 8L69 8L69 9L68 9L68 8L65 8L65 11L64 11L64 12L66 12L66 13L64 13L64 16L63 16L63 17L62 17L62 15L63 15L63 14L62 14L62 13L63 13L63 9L62 9L62 10L61 10L61 13L60 13L60 11L58 11L58 12L56 12L56 14L54 14L54 13L53 13L53 12L55 12L55 11L57 11L57 10L60 10L60 6L59 6L59 7L58 7L58 6L57 6L57 7L58 7L58 8L55 8L55 7L56 7L56 6L55 6L55 5L52 5L52 6L51 6L51 7L50 7L50 5L51 5L51 4L50 4L50 2L49 2L49 4L48 4L48 1ZM53 1L53 2L54 2L54 3L52 3L52 2L51 2L51 3L52 3L52 4L55 4L55 2L54 2L54 1ZM66 1L66 2L67 2L67 1ZM80 1L80 2L82 2L82 1ZM29 3L29 4L28 4L28 5L29 5L29 4L30 4L30 5L31 5L31 7L32 7L32 4L30 4L30 3ZM22 4L22 5L23 5L23 4ZM49 4L49 5L48 5L48 7L47 7L47 8L48 8L48 9L47 9L47 10L46 10L46 13L47 13L47 14L44 14L44 13L43 13L43 11L42 11L42 10L41 10L41 11L39 11L39 10L37 10L37 12L41 12L41 13L40 13L40 14L38 14L38 13L34 13L34 14L33 14L33 15L32 15L32 16L30 16L30 17L32 17L32 16L34 16L34 14L36 14L36 15L35 15L35 17L33 17L33 18L32 18L32 19L34 19L34 18L35 18L35 20L36 20L36 21L35 21L35 22L36 22L36 21L37 21L37 22L38 22L38 23L40 23L40 24L37 24L37 25L36 25L36 23L34 23L34 22L33 22L33 21L34 21L34 20L33 20L33 21L32 21L32 22L33 22L33 23L32 23L32 24L33 24L33 26L34 26L34 24L35 24L35 27L37 27L37 28L35 28L35 29L34 29L34 31L33 31L33 30L32 30L32 29L31 29L31 26L30 26L30 25L29 25L29 26L28 26L28 25L27 25L27 24L26 24L26 25L24 25L24 24L23 24L23 25L22 25L22 23L23 23L23 20L22 20L22 19L23 19L23 18L22 18L22 19L21 19L21 21L22 21L22 22L20 22L20 21L19 21L19 20L18 20L18 21L16 21L16 20L17 20L17 18L16 18L16 20L15 20L15 22L14 22L14 24L16 24L16 25L17 25L17 26L16 26L16 27L17 27L17 26L18 26L18 29L16 29L16 30L15 30L15 31L16 31L16 30L18 30L18 29L19 29L19 30L21 30L21 31L22 31L22 30L21 30L21 29L22 29L22 28L23 28L23 29L24 29L24 30L23 30L23 31L25 31L25 30L29 30L29 28L28 28L28 27L29 27L29 26L30 26L30 29L31 29L31 30L30 30L30 32L31 32L31 31L32 31L32 34L31 34L31 35L29 35L29 34L30 34L30 33L29 33L29 32L28 32L28 31L26 31L26 33L25 33L25 32L23 32L23 33L24 33L24 34L25 34L25 35L26 35L26 36L27 36L27 34L28 34L28 37L29 37L29 38L30 38L30 39L27 39L27 40L26 40L26 41L25 41L25 42L27 42L27 43L28 43L28 42L31 42L31 43L30 43L30 44L32 44L32 45L30 45L30 46L31 46L31 50L30 50L30 49L29 49L29 48L28 48L28 47L29 47L29 46L28 46L28 45L29 45L29 44L28 44L28 45L27 45L27 44L26 44L26 45L27 45L27 46L25 46L25 45L24 45L24 47L27 47L27 48L26 48L26 49L25 49L25 50L26 50L26 49L27 49L27 50L28 50L28 51L29 51L29 50L30 50L30 53L31 53L31 51L35 51L35 52L36 52L36 53L37 53L37 54L34 54L34 53L33 53L33 52L32 52L32 53L33 53L33 54L32 54L32 55L31 55L31 54L30 54L30 55L31 55L31 56L33 56L33 57L29 57L29 54L28 54L28 56L27 56L27 59L26 59L26 61L25 61L25 62L27 62L27 64L26 64L26 63L24 63L24 62L23 62L23 61L24 61L24 59L25 59L25 58L26 58L26 57L25 57L25 58L24 58L24 59L22 59L22 60L21 60L21 58L20 58L20 56L19 56L19 57L18 57L18 58L17 58L17 59L16 59L16 61L14 61L14 62L13 62L13 61L11 61L11 62L10 62L10 63L13 63L13 64L14 64L14 62L15 62L15 63L17 63L17 62L18 62L18 63L19 63L19 64L21 64L21 62L19 62L19 60L21 60L21 61L22 61L22 64L23 64L23 65L21 65L21 66L23 66L23 65L24 65L24 64L26 64L26 65L25 65L25 66L24 66L24 67L23 67L23 68L24 68L24 70L27 70L27 72L26 72L26 71L24 71L24 72L23 72L23 69L22 69L22 68L21 68L21 67L20 67L20 68L21 68L21 69L19 69L19 67L17 67L17 66L20 66L20 65L17 65L17 64L15 64L15 65L12 65L12 64L10 64L10 65L11 65L11 66L10 66L10 67L11 67L11 69L9 69L9 70L11 70L11 69L12 69L12 71L13 71L13 69L15 69L15 68L14 68L14 67L17 67L17 69L16 69L16 70L17 70L17 71L16 71L16 76L12 76L12 77L13 77L13 78L11 78L11 79L13 79L13 78L14 78L14 77L15 77L15 78L16 78L16 79L17 79L17 78L18 78L18 80L17 80L17 81L18 81L18 80L19 80L19 78L20 78L20 73L19 73L19 71L18 71L18 70L22 70L22 71L20 71L20 72L23 72L23 73L24 73L24 74L22 74L22 73L21 73L21 75L23 75L23 77L22 77L22 76L21 76L21 77L22 77L22 79L25 79L25 78L23 78L23 77L26 77L26 78L27 78L27 80L28 80L28 81L26 81L26 83L28 83L28 82L30 82L30 81L31 81L31 80L32 80L32 81L33 81L33 82L34 82L34 80L37 80L37 82L38 82L38 80L41 80L41 79L39 79L39 78L38 78L38 76L39 76L39 74L40 74L40 73L39 73L39 71L40 71L40 72L41 72L41 73L42 73L42 74L41 74L41 75L40 75L40 76L41 76L41 75L42 75L42 77L41 77L41 78L42 78L42 79L43 79L43 76L46 76L46 77L51 77L51 78L50 78L50 79L49 79L49 80L47 80L47 79L48 79L48 78L45 78L45 77L44 77L44 79L46 79L46 80L45 80L45 83L44 83L44 84L46 84L46 85L47 85L47 84L46 84L46 83L48 83L48 82L46 82L46 81L49 81L49 82L50 82L50 83L51 83L51 84L52 84L52 82L50 82L50 79L51 79L51 81L52 81L52 80L53 80L53 79L52 79L52 77L51 77L51 76L52 76L52 75L51 75L51 74L52 74L52 72L53 72L53 73L54 73L54 74L55 74L55 75L54 75L54 77L53 77L53 78L54 78L54 80L55 80L55 81L53 81L53 82L57 82L57 83L56 83L56 84L55 84L55 85L54 85L54 86L55 86L55 87L54 87L54 88L55 88L55 89L54 89L54 90L53 90L53 91L52 91L52 92L51 92L51 93L52 93L52 92L53 92L53 91L54 91L54 94L55 94L55 95L56 95L56 92L57 92L57 91L59 91L59 90L57 90L57 89L58 89L58 88L57 88L57 87L59 87L59 86L58 86L58 84L57 84L57 83L58 83L58 82L57 82L57 81L58 81L58 79L59 79L59 78L62 78L62 77L63 77L63 76L62 76L62 75L59 75L59 74L60 74L60 72L62 72L62 73L61 73L61 74L62 74L62 73L63 73L63 72L64 72L64 71L63 71L63 70L64 70L64 69L63 69L63 68L65 68L65 67L66 67L66 66L68 66L68 65L66 65L66 62L67 62L67 61L66 61L66 60L68 60L68 59L67 59L67 57L66 57L66 58L65 58L65 57L64 57L64 54L65 54L65 53L63 53L63 55L62 55L62 54L61 54L61 55L60 55L60 56L61 56L61 55L62 55L62 58L61 58L61 57L60 57L60 60L59 60L59 58L58 58L58 60L57 60L57 58L56 58L56 56L58 56L58 55L59 55L59 54L58 54L58 55L56 55L56 54L57 54L57 53L60 53L60 52L59 52L59 51L61 51L61 53L62 53L62 51L64 51L64 52L66 52L66 50L65 50L65 51L64 51L64 50L63 50L63 49L64 49L64 48L65 48L65 49L67 49L67 50L68 50L68 51L67 51L67 52L68 52L68 51L69 51L69 50L70 50L70 49L71 49L71 50L73 50L73 49L71 49L71 47L70 47L70 49L69 49L69 50L68 50L68 49L67 49L67 48L69 48L69 47L68 47L68 46L71 46L71 45L70 45L70 44L69 44L69 43L68 43L68 42L70 42L70 41L69 41L69 39L67 39L67 35L66 35L66 34L65 34L65 31L66 31L66 33L67 33L67 34L68 34L68 33L69 33L69 35L68 35L68 36L70 36L70 35L71 35L71 34L70 34L70 32L73 32L73 33L74 33L74 32L73 32L73 31L74 31L74 30L75 30L75 31L76 31L76 30L77 30L77 29L79 29L79 27L80 27L80 28L81 28L81 30L82 30L82 27L83 27L83 28L84 28L84 29L83 29L83 30L84 30L84 31L88 31L88 29L86 29L86 30L85 30L85 28L86 28L86 27L87 27L87 28L90 28L90 27L91 27L91 28L92 28L92 27L91 27L91 26L89 26L89 27L88 27L88 25L90 25L90 24L86 24L86 26L85 26L85 23L84 23L84 22L85 22L85 21L86 21L86 20L85 20L85 19L87 19L87 18L88 18L88 21L87 21L87 22L88 22L88 23L89 23L89 22L90 22L90 23L91 23L91 22L90 22L90 20L89 20L89 19L91 19L91 18L88 18L88 17L90 17L90 16L88 16L88 15L86 15L86 14L85 14L85 12L84 12L84 11L81 11L81 12L80 12L80 11L79 11L79 12L78 12L78 13L79 13L79 12L80 12L80 13L81 13L81 14L83 14L83 15L80 15L80 14L76 14L76 16L75 16L75 15L74 15L74 14L73 14L73 12L72 12L72 11L73 11L73 10L72 10L72 9L71 9L71 11L66 11L66 12L70 12L70 13L66 13L66 15L65 15L65 16L64 16L64 17L63 17L63 19L62 19L62 18L60 18L60 17L59 17L59 16L58 16L58 15L60 15L60 16L61 16L61 15L62 15L62 14L58 14L58 15L57 15L57 14L56 14L56 16L55 16L55 15L54 15L54 14L53 14L53 13L52 13L52 15L51 15L51 14L49 14L49 12L47 12L47 10L48 10L48 11L49 11L49 10L50 10L50 13L51 13L51 11L52 11L52 12L53 12L53 11L52 11L52 8L54 8L54 7L55 7L55 6L54 6L54 7L53 7L53 6L52 6L52 8L50 8L50 9L49 9L49 8L48 8L48 7L49 7L49 5L50 5L50 4ZM69 4L69 5L70 5L70 4ZM13 5L13 6L12 6L12 7L13 7L13 6L14 6L14 9L16 9L16 10L17 10L17 11L15 11L15 10L12 10L12 11L13 11L13 12L17 12L17 13L13 13L13 14L15 14L15 15L17 15L17 14L18 14L18 13L19 13L19 14L20 14L20 15L18 15L18 16L17 16L17 17L18 17L18 16L19 16L19 18L21 18L21 17L24 17L24 16L26 16L26 15L25 15L25 14L23 14L23 13L24 13L24 12L23 12L23 11L24 11L24 10L23 10L23 11L22 11L22 12L23 12L23 13L21 13L21 12L20 12L20 13L19 13L19 11L20 11L20 10L21 10L21 9L25 9L25 8L26 8L26 7L27 7L27 6L26 6L26 7L25 7L25 5L24 5L24 8L23 8L23 6L22 6L22 8L21 8L21 9L20 9L20 10L17 10L17 9L16 9L16 7L15 7L15 6L14 6L14 5ZM33 5L33 8L36 8L36 5ZM61 5L61 8L64 8L64 5ZM9 6L9 7L10 7L10 6ZM29 6L29 7L30 7L30 6ZM34 6L34 7L35 7L35 6ZM62 6L62 7L63 7L63 6ZM76 6L76 8L75 8L75 9L76 9L76 10L77 10L77 6ZM85 7L85 9L87 9L87 8L86 8L86 7ZM9 8L9 9L11 9L11 8ZM58 8L58 9L59 9L59 8ZM95 8L95 9L96 9L96 8ZM50 9L50 10L51 10L51 9ZM53 9L53 10L55 10L55 9ZM69 9L69 10L70 10L70 9ZM91 9L91 11L90 11L90 12L91 12L91 11L92 11L92 12L93 12L93 11L92 11L92 9ZM26 10L26 11L27 11L27 10ZM74 10L74 11L75 11L75 10ZM1 11L1 12L2 12L2 16L4 16L4 13L3 13L3 11ZM17 11L17 12L18 12L18 11ZM44 11L44 12L45 12L45 11ZM71 12L71 13L70 13L70 14L68 14L68 15L73 15L73 18L72 18L72 19L73 19L73 22L72 22L72 20L71 20L71 17L72 17L72 16L69 16L69 17L68 17L68 16L66 16L66 17L65 17L65 18L64 18L64 20L61 20L61 19L60 19L60 20L59 20L59 19L58 19L58 18L59 18L59 17L58 17L58 16L56 16L56 17L55 17L55 18L53 18L53 16L54 16L54 15L53 15L53 16L51 16L51 15L48 15L48 16L47 16L47 15L46 15L46 16L44 16L44 19L43 19L43 18L41 18L41 17L43 17L43 16L42 16L42 15L44 15L44 14L40 14L40 15L41 15L41 16L40 16L40 18L39 18L39 15L38 15L38 14L37 14L37 16L36 16L36 17L38 17L38 18L37 18L37 21L38 21L38 22L41 22L41 24L40 24L40 25L41 25L41 27L42 27L42 28L39 28L39 30L37 30L37 35L38 35L38 38L37 38L37 37L32 37L32 40L34 40L34 41L31 41L31 42L32 42L32 44L33 44L33 43L34 43L34 42L35 42L35 43L36 43L36 44L37 44L37 45L34 45L34 46L37 46L37 47L36 47L36 48L35 48L35 47L34 47L34 48L35 48L35 49L32 49L32 50L37 50L37 52L38 52L38 54L37 54L37 55L36 55L36 56L38 56L38 54L39 54L39 55L40 55L40 57L37 57L37 60L38 60L38 61L37 61L37 62L38 62L38 63L37 63L37 65L38 65L38 66L41 66L41 65L42 65L42 63L41 63L41 64L40 64L40 63L39 63L39 62L42 62L42 61L41 61L41 60L42 60L42 59L43 59L43 62L44 62L44 61L46 61L46 62L45 62L45 63L47 63L47 64L44 64L44 63L43 63L43 64L44 64L44 65L43 65L43 67L42 67L42 68L41 68L41 67L38 67L38 69L37 69L37 70L28 70L28 72L27 72L27 73L28 73L28 72L29 72L29 73L30 73L30 72L31 72L31 75L30 75L30 76L31 76L31 77L29 77L29 78L28 78L28 79L29 79L29 81L30 81L30 80L31 80L31 79L33 79L33 80L34 80L34 79L38 79L38 78L36 78L36 77L33 77L33 76L31 76L31 75L37 75L37 76L38 76L38 74L39 74L39 73L38 73L38 72L37 72L37 74L34 74L34 73L36 73L36 71L38 71L38 70L40 70L40 71L41 71L41 69L44 69L44 70L42 70L42 71L43 71L43 73L44 73L44 75L46 75L46 76L51 76L51 75L50 75L50 74L51 74L51 72L49 72L49 73L50 73L50 74L49 74L49 75L46 75L46 74L48 74L48 73L47 73L47 71L48 71L48 68L49 68L49 69L50 69L50 70L49 70L49 71L50 71L50 70L51 70L51 69L50 69L50 68L49 68L49 66L53 66L53 67L54 67L54 68L56 68L56 70L59 70L59 71L62 71L62 68L59 68L59 69L57 69L57 68L58 68L58 67L59 67L59 64L60 64L60 61L57 61L57 60L56 60L56 58L54 58L54 55L55 55L55 56L56 56L56 55L55 55L55 54L54 54L54 53L53 53L53 52L56 52L56 53L57 53L57 52L58 52L58 51L57 51L57 48L56 48L56 47L57 47L57 46L60 46L60 47L61 47L61 48L60 48L60 49L58 49L58 50L62 50L62 49L63 49L63 47L62 47L62 46L64 46L64 47L65 47L65 48L67 48L67 47L65 47L65 46L66 46L66 45L65 45L65 44L64 44L64 43L67 43L67 42L68 42L68 40L67 40L67 39L65 39L65 38L66 38L66 37L65 37L65 38L64 38L64 37L61 37L61 38L60 38L60 37L58 37L58 36L59 36L59 35L60 35L60 32L61 32L61 31L60 31L60 32L59 32L59 33L58 33L58 34L59 34L59 35L57 35L57 34L56 34L56 33L57 33L57 32L56 32L56 31L57 31L57 30L58 30L58 31L59 31L59 30L61 30L61 29L62 29L62 27L63 27L63 29L64 29L64 30L62 30L62 32L64 32L64 30L66 30L66 31L67 31L67 30L68 30L68 31L72 31L72 30L74 30L74 29L73 29L73 28L74 28L74 27L73 27L73 26L75 26L75 24L79 24L79 25L77 25L77 26L78 26L78 27L75 27L75 28L78 28L78 27L79 27L79 25L81 25L81 24L82 24L82 25L83 25L83 27L84 27L84 28L85 28L85 27L84 27L84 24L82 24L82 22L78 22L78 20L79 20L79 21L82 21L82 20L83 20L83 22L84 22L84 20L83 20L83 19L85 19L85 18L87 18L87 17L88 17L88 16L87 16L87 17L85 17L85 18L84 18L84 16L85 16L85 15L83 15L83 16L82 16L82 17L83 17L83 19L82 19L82 18L81 18L81 17L80 17L80 16L79 16L79 15L78 15L78 17L76 17L76 18L78 18L78 19L73 19L73 18L75 18L75 17L74 17L74 15L73 15L73 14L71 14L71 13L72 13L72 12ZM74 12L74 13L76 13L76 12ZM82 12L82 13L84 13L84 12ZM20 13L20 14L21 14L21 13ZM90 13L90 14L93 14L93 13ZM94 13L94 14L95 14L95 13ZM22 14L22 15L23 15L23 16L24 16L24 15L23 15L23 14ZM6 15L6 16L7 16L7 15ZM20 16L20 17L21 17L21 16ZM48 16L48 17L49 17L49 18L50 18L50 19L51 19L51 20L47 20L47 18L46 18L46 17L45 17L45 18L46 18L46 20L45 20L45 19L44 19L44 20L43 20L43 21L42 21L42 22L43 22L43 23L42 23L42 24L41 24L41 25L42 25L42 26L43 26L43 27L44 27L44 26L46 26L46 28L45 28L45 29L46 29L46 30L45 30L45 31L44 31L44 32L43 32L43 30L42 30L42 29L40 29L40 30L42 30L42 31L38 31L38 33L39 33L39 34L38 34L38 35L39 35L39 36L40 36L40 37L39 37L39 38L38 38L38 39L39 39L39 38L40 38L40 40L42 40L42 42L41 42L41 41L39 41L39 42L38 42L38 43L37 43L37 42L36 42L36 43L37 43L37 44L38 44L38 43L39 43L39 44L41 44L41 45L39 45L39 46L38 46L38 45L37 45L37 46L38 46L38 47L37 47L37 48L36 48L36 49L37 49L37 50L38 50L38 51L39 51L39 52L41 52L41 50L43 50L43 51L42 51L42 53L41 53L41 54L42 54L42 55L41 55L41 56L42 56L42 55L43 55L43 56L45 56L45 57L44 57L44 58L43 58L43 57L42 57L42 58L43 58L43 59L44 59L44 60L46 60L46 59L47 59L47 58L46 58L46 57L47 57L47 54L46 54L46 55L44 55L44 54L45 54L45 53L44 53L44 52L45 52L45 51L47 51L47 50L48 50L48 52L47 52L47 53L48 53L48 55L49 55L49 56L48 56L48 57L50 57L50 56L53 56L53 55L54 55L54 54L52 54L52 55L49 55L49 54L50 54L50 53L49 53L49 51L51 51L51 52L52 52L52 49L51 49L51 48L52 48L52 47L53 47L53 50L56 50L56 48L54 48L54 47L53 47L53 46L52 46L52 45L51 45L51 46L48 46L48 45L50 45L50 44L47 44L47 43L49 43L49 42L50 42L50 43L51 43L51 44L53 44L53 42L55 42L55 39L52 39L52 36L53 36L53 38L55 38L55 37L56 37L56 38L57 38L57 39L56 39L56 40L57 40L57 39L58 39L58 41L60 41L60 40L59 40L59 38L57 38L57 37L56 37L56 36L57 36L57 35L56 35L56 36L55 36L55 35L54 35L54 34L55 34L55 33L52 33L52 34L53 34L53 35L52 35L52 36L51 36L51 38L50 38L50 36L48 36L48 35L49 35L49 32L50 32L50 31L51 31L51 32L55 32L55 31L54 31L54 30L55 30L55 29L56 29L56 28L55 28L55 27L56 27L56 26L57 26L57 29L58 29L58 27L60 27L60 29L61 29L61 27L62 27L62 26L64 26L64 27L65 27L65 29L66 29L66 28L68 28L68 29L69 29L69 30L70 30L70 29L69 29L69 28L68 28L68 27L69 27L69 26L70 26L70 25L69 25L69 24L70 24L70 23L71 23L71 24L72 24L72 23L71 23L71 22L70 22L70 21L71 21L71 20L70 20L70 21L69 21L69 22L70 22L70 23L69 23L69 24L68 24L68 22L67 22L67 23L66 23L66 22L65 22L65 20L64 20L64 21L61 21L61 20L60 20L60 21L61 21L61 22L57 22L57 23L56 23L56 24L55 24L55 23L54 23L54 22L56 22L56 20L58 20L58 19L57 19L57 18L58 18L58 17L57 17L57 18L55 18L55 19L53 19L53 18L52 18L52 17L51 17L51 18L50 18L50 16ZM66 17L66 18L65 18L65 19L66 19L66 18L67 18L67 17ZM69 17L69 18L68 18L68 19L67 19L67 20L66 20L66 21L67 21L67 20L68 20L68 19L69 19L69 18L70 18L70 17ZM79 17L79 18L80 18L80 17ZM51 18L51 19L52 19L52 21L48 21L48 22L47 22L47 20L46 20L46 21L45 21L45 20L44 20L44 21L43 21L43 22L44 22L44 21L45 21L45 22L47 22L47 23L46 23L46 26L47 26L47 28L49 28L49 31L50 31L50 30L51 30L51 29L52 29L52 31L53 31L53 30L54 30L54 29L55 29L55 28L54 28L54 27L55 27L55 26L54 26L54 25L55 25L55 24L54 24L54 23L53 23L53 21L54 21L54 20L53 20L53 19L52 19L52 18ZM95 18L95 19L97 19L97 18ZM38 19L38 20L42 20L42 19ZM80 19L80 20L81 20L81 19ZM24 20L24 21L25 21L25 20ZM28 20L28 21L30 21L30 20ZM75 20L75 22L74 22L74 23L73 23L73 25L74 25L74 23L76 23L76 21L77 21L77 20ZM18 21L18 22L17 22L17 23L16 23L16 22L15 22L15 23L16 23L16 24L17 24L17 25L18 25L18 26L19 26L19 27L20 27L20 26L21 26L21 24L20 24L20 26L19 26L19 21ZM5 22L5 23L6 23L6 22ZM12 22L12 23L13 23L13 22ZM48 22L48 23L47 23L47 24L48 24L48 27L49 27L49 28L50 28L50 27L51 27L51 28L52 28L52 27L54 27L54 26L53 26L53 25L52 25L52 27L51 27L51 26L50 26L50 27L49 27L49 24L48 24L48 23L49 23L49 22ZM50 22L50 24L53 24L53 23L52 23L52 22ZM61 22L61 23L57 23L57 24L56 24L56 25L57 25L57 26L60 26L60 24L61 24L61 25L64 25L64 24L65 24L65 26L66 26L66 27L68 27L68 24L67 24L67 25L66 25L66 24L65 24L65 23L64 23L64 22ZM17 23L17 24L18 24L18 23ZM62 23L62 24L64 24L64 23ZM79 23L79 24L80 24L80 23ZM42 24L42 25L45 25L45 24ZM57 24L57 25L58 25L58 24ZM23 25L23 26L24 26L24 27L25 27L25 28L24 28L24 29L26 29L26 27L25 27L25 26L24 26L24 25ZM26 25L26 26L27 26L27 25ZM38 25L38 26L37 26L37 27L38 27L38 26L39 26L39 25ZM80 26L80 27L82 27L82 26ZM94 26L94 28L96 28L96 27L95 27L95 26ZM2 27L2 28L1 28L1 31L2 31L2 30L3 30L3 29L2 29L2 28L3 28L3 27ZM13 27L13 28L14 28L14 27ZM32 27L32 28L34 28L34 27ZM70 27L70 28L73 28L73 27ZM19 28L19 29L20 29L20 28ZM27 28L27 29L28 29L28 28ZM37 28L37 29L38 29L38 28ZM43 28L43 29L44 29L44 28ZM47 29L47 30L46 30L46 31L47 31L47 30L48 30L48 29ZM4 30L4 31L3 31L3 33L2 33L2 35L3 35L3 36L1 36L1 38L2 38L2 39L3 39L3 44L4 44L4 42L5 42L5 41L6 41L6 42L8 42L8 43L9 43L9 42L8 42L8 41L6 41L6 40L8 40L8 38L10 38L10 37L8 37L8 38L7 38L7 37L4 37L4 35L3 35L3 34L4 34L4 31L5 31L5 32L7 32L7 31L5 31L5 30ZM35 30L35 32L36 32L36 30ZM92 30L92 31L93 31L93 30ZM95 30L95 31L96 31L96 30ZM17 31L17 32L18 32L18 31ZM20 32L20 33L22 33L22 32ZM27 32L27 33L28 33L28 32ZM39 32L39 33L40 33L40 36L41 36L41 35L42 35L42 37L43 37L43 38L41 38L41 39L43 39L43 38L44 38L44 37L43 37L43 36L45 36L45 37L46 37L46 39L48 39L48 40L43 40L43 42L42 42L42 43L44 43L44 41L46 41L46 42L45 42L45 44L43 44L43 45L44 45L44 46L42 46L42 45L41 45L41 46L40 46L40 47L38 47L38 50L39 50L39 51L40 51L40 50L39 50L39 49L41 49L41 48L42 48L42 49L43 49L43 48L44 48L44 50L45 50L45 48L47 48L47 49L46 49L46 50L47 50L47 49L48 49L48 47L46 47L46 46L47 46L47 45L45 45L45 44L46 44L46 42L48 42L48 40L50 40L50 42L51 42L51 43L52 43L52 42L53 42L53 40L52 40L52 39L51 39L51 40L50 40L50 38L49 38L49 39L48 39L48 38L47 38L47 37L48 37L48 36L47 36L47 35L48 35L48 33L47 33L47 32L46 32L46 33L45 33L45 32L44 32L44 34L42 34L42 33L43 33L43 32L42 32L42 33L41 33L41 32ZM67 32L67 33L68 33L68 32ZM84 32L84 33L85 33L85 32ZM5 33L5 36L8 36L8 33ZM33 33L33 36L36 36L36 33ZM61 33L61 36L64 36L64 33ZM89 33L89 36L92 36L92 33ZM6 34L6 35L7 35L7 34ZM34 34L34 35L35 35L35 34ZM44 34L44 35L47 35L47 34ZM62 34L62 35L63 35L63 34ZM90 34L90 35L91 35L91 34ZM31 35L31 36L29 36L29 37L30 37L30 38L31 38L31 36L32 36L32 35ZM53 35L53 36L54 36L54 35ZM93 35L93 36L95 36L95 35ZM88 37L88 38L89 38L89 37ZM3 38L3 39L4 39L4 38ZM5 38L5 40L6 40L6 39L7 39L7 38ZM34 38L34 39L35 39L35 40L37 40L37 38ZM61 38L61 41L62 41L62 42L61 42L61 43L60 43L60 44L58 44L58 43L59 43L59 42L57 42L57 41L56 41L56 44L55 44L55 45L54 45L54 46L57 46L57 45L60 45L60 46L61 46L61 43L62 43L62 44L63 44L63 43L64 43L64 42L63 42L63 41L64 41L64 40L63 40L63 39L64 39L64 38L63 38L63 39L62 39L62 38ZM70 39L70 40L72 40L72 39ZM1 40L1 41L2 41L2 40ZM17 40L17 41L16 41L16 43L17 43L17 45L18 45L18 47L19 47L19 48L20 48L20 50L21 50L21 49L22 49L22 48L23 48L23 49L24 49L24 48L23 48L23 46L22 46L22 48L20 48L20 47L19 47L19 44L18 44L18 43L19 43L19 42L18 42L18 40ZM19 40L19 41L20 41L20 40ZM27 40L27 41L28 41L28 40ZM29 40L29 41L30 41L30 40ZM51 40L51 41L52 41L52 40ZM66 40L66 41L67 41L67 40ZM96 40L96 41L97 41L97 40ZM72 41L72 42L71 42L71 44L72 44L72 42L73 42L73 41ZM40 42L40 43L41 43L41 42ZM6 43L6 44L7 44L7 45L6 45L6 46L8 46L8 44L7 44L7 43ZM24 43L24 44L25 44L25 43ZM94 43L94 44L95 44L95 43ZM12 44L12 45L13 45L13 44ZM56 44L56 45L57 45L57 44ZM67 44L67 45L68 45L68 44ZM92 44L92 45L93 45L93 44ZM4 45L4 46L5 46L5 45ZM32 45L32 46L33 46L33 45ZM64 45L64 46L65 46L65 45ZM51 46L51 47L50 47L50 48L51 48L51 47L52 47L52 46ZM72 46L72 48L75 48L75 49L76 49L76 48L75 48L75 47L74 47L74 46ZM32 47L32 48L33 48L33 47ZM40 47L40 48L41 48L41 47ZM42 47L42 48L43 48L43 47ZM44 47L44 48L45 48L45 47ZM85 47L85 50L84 50L84 51L85 51L85 50L86 50L86 49L87 49L87 50L88 50L88 49L87 49L87 48L86 48L86 47ZM17 48L17 50L16 50L16 51L15 51L15 50L13 50L13 51L12 51L12 53L13 53L13 52L15 52L15 53L16 53L16 54L18 54L18 53L19 53L19 49L18 49L18 48ZM27 48L27 49L28 49L28 50L29 50L29 49L28 49L28 48ZM61 48L61 49L62 49L62 48ZM89 48L89 49L91 49L91 50L92 50L92 49L91 49L91 48ZM50 49L50 50L51 50L51 49ZM17 51L17 52L16 52L16 53L17 53L17 52L18 52L18 51ZM43 51L43 52L44 52L44 51ZM56 51L56 52L57 52L57 51ZM94 51L94 52L95 52L95 51ZM66 53L66 55L65 55L65 56L68 56L68 55L69 55L69 54L67 54L67 53ZM3 54L3 55L4 55L4 54ZM22 54L22 56L23 56L23 54ZM24 54L24 55L25 55L25 54ZM33 54L33 56L34 56L34 54ZM83 54L83 55L84 55L84 54ZM87 54L87 55L86 55L86 58L85 58L85 59L86 59L86 58L87 58L87 55L89 55L89 54ZM79 55L79 56L78 56L78 57L79 57L79 56L80 56L80 55ZM92 55L92 56L93 56L93 55ZM72 56L72 57L71 57L71 58L73 58L73 59L71 59L71 60L72 60L72 61L73 61L73 59L74 59L74 60L75 60L75 62L74 62L74 63L70 63L70 64L69 64L69 63L67 63L67 64L69 64L69 66L70 66L70 67L71 67L71 68L72 68L72 67L71 67L71 64L73 64L73 65L72 65L72 66L73 66L73 65L75 65L75 71L74 71L74 74L72 74L72 75L71 75L71 76L72 76L72 77L73 77L73 76L72 76L72 75L76 75L76 76L77 76L77 77L79 77L79 76L82 76L82 77L83 77L83 76L84 76L84 77L85 77L85 76L86 76L86 75L88 75L88 74L87 74L87 73L91 73L91 72L90 72L90 71L89 71L89 72L86 72L86 71L88 71L88 70L86 70L86 71L85 71L85 70L84 70L84 71L83 71L83 69L82 69L82 67L83 67L83 68L84 68L84 67L86 67L86 66L84 66L84 65L82 65L82 63L83 63L83 64L84 64L84 63L83 63L83 62L82 62L82 61L80 61L80 62L82 62L82 63L80 63L80 64L81 64L81 66L82 66L82 67L79 67L79 68L77 68L77 67L78 67L78 66L79 66L79 65L78 65L78 66L77 66L77 67L76 67L76 64L77 64L77 63L79 63L79 62L77 62L77 61L76 61L76 60L77 60L77 59L78 59L78 58L77 58L77 57L76 57L76 56L74 56L74 58L73 58L73 56ZM28 57L28 60L29 60L29 61L28 61L28 64L27 64L27 65L28 65L28 66L27 66L27 67L25 67L25 69L26 69L26 68L27 68L27 69L28 69L28 68L27 68L27 67L29 67L29 69L33 69L33 68L34 68L34 69L36 69L36 68L34 68L34 67L35 67L35 66L36 66L36 67L37 67L37 66L36 66L36 65L35 65L35 66L34 66L34 67L33 67L33 65L32 65L32 62L31 62L31 60L30 60L30 58L29 58L29 57ZM33 57L33 58L34 58L34 59L36 59L36 58L34 58L34 57ZM63 57L63 58L64 58L64 57ZM91 57L91 58L92 58L92 57ZM6 58L6 59L8 59L8 58ZM31 58L31 59L32 59L32 58ZM38 58L38 59L39 59L39 60L41 60L41 59L40 59L40 58ZM44 58L44 59L46 59L46 58ZM49 58L49 59L48 59L48 60L47 60L47 61L48 61L48 63L50 63L50 65L51 65L51 64L53 64L53 61L52 61L52 60L53 60L53 59L54 59L54 58L52 58L52 59L51 59L51 58ZM76 58L76 59L75 59L75 60L76 60L76 59L77 59L77 58ZM61 59L61 60L63 60L63 59ZM64 59L64 60L65 60L65 59ZM79 59L79 60L80 60L80 59ZM88 59L88 60L89 60L89 59ZM94 59L94 60L95 60L95 61L96 61L96 59ZM22 60L22 61L23 61L23 60ZM50 60L50 61L49 61L49 62L51 62L51 60ZM5 61L5 64L8 64L8 61ZM29 61L29 62L30 62L30 61ZM33 61L33 64L36 64L36 61ZM54 61L54 62L55 62L55 63L54 63L54 64L55 64L55 65L53 65L53 66L56 66L56 68L57 68L57 67L58 67L58 66L56 66L56 64L57 64L57 65L58 65L58 63L59 63L59 62L58 62L58 63L56 63L56 61ZM61 61L61 64L64 64L64 61ZM65 61L65 62L66 62L66 61ZM87 61L87 62L88 62L88 61ZM89 61L89 64L92 64L92 61ZM6 62L6 63L7 63L7 62ZM34 62L34 63L35 63L35 62ZM62 62L62 63L63 63L63 62ZM75 62L75 63L77 63L77 62ZM90 62L90 63L91 63L91 62ZM29 63L29 64L28 64L28 65L29 65L29 66L30 66L30 65L29 65L29 64L31 64L31 63ZM48 64L48 65L49 65L49 64ZM15 65L15 66L16 66L16 65ZM60 65L60 67L64 67L64 66L66 66L66 65L63 65L63 66L62 66L62 65ZM0 66L0 67L1 67L1 66ZM2 66L2 67L3 67L3 66ZM12 66L12 69L13 69L13 67L14 67L14 66ZM46 66L46 67L45 67L45 70L46 70L46 71L47 71L47 70L46 70L46 69L47 69L47 68L48 68L48 66ZM83 66L83 67L84 67L84 66ZM31 67L31 68L33 68L33 67ZM43 67L43 68L44 68L44 67ZM51 67L51 68L52 68L52 69L53 69L53 68L52 68L52 67ZM67 67L67 68L66 68L66 69L67 69L67 68L68 68L68 67ZM39 68L39 69L40 69L40 68ZM76 68L76 70L78 70L78 71L81 71L81 72L76 72L76 71L75 71L75 72L76 72L76 73L77 73L77 74L76 74L76 75L77 75L77 76L78 76L78 75L84 75L84 74L86 74L86 72L85 72L85 71L84 71L84 72L83 72L83 71L82 71L82 70L78 70L78 69L77 69L77 68ZM79 68L79 69L81 69L81 68ZM0 69L0 70L1 70L1 69ZM3 69L3 70L5 70L5 69ZM17 69L17 70L18 70L18 69ZM59 69L59 70L60 70L60 69ZM14 70L14 72L13 72L13 73L12 73L12 72L11 72L11 74L12 74L12 75L14 75L14 72L15 72L15 70ZM52 70L52 71L55 71L55 70ZM68 70L68 71L71 71L71 70ZM31 71L31 72L33 72L33 73L32 73L32 74L33 74L33 73L34 73L34 72L35 72L35 71ZM57 71L57 72L55 72L55 73L56 73L56 75L55 75L55 76L56 76L56 77L55 77L55 80L56 80L56 81L57 81L57 80L56 80L56 79L57 79L57 78L59 78L59 77L60 77L60 76L59 76L59 75L58 75L58 74L59 74L59 73L57 73L57 72L58 72L58 71ZM24 72L24 73L26 73L26 72ZM45 72L45 74L46 74L46 72ZM72 72L72 73L73 73L73 72ZM17 73L17 74L19 74L19 73ZM65 73L65 76L66 76L66 75L69 75L69 74L66 74L66 73ZM78 73L78 74L77 74L77 75L78 75L78 74L79 74L79 73ZM81 73L81 74L82 74L82 73ZM7 74L7 75L6 75L6 76L7 76L7 75L8 75L8 74ZM24 74L24 75L25 75L25 74ZM26 74L26 75L29 75L29 74ZM42 74L42 75L43 75L43 74ZM57 75L57 76L58 76L58 75ZM4 76L4 78L3 78L3 79L4 79L4 80L7 80L7 79L6 79L6 78L7 78L7 77L6 77L6 78L5 78L5 76ZM26 76L26 77L28 77L28 76ZM61 76L61 77L62 77L62 76ZM18 77L18 78L19 78L19 77ZM88 77L88 78L87 78L87 79L88 79L88 78L89 78L89 77ZM29 78L29 79L31 79L31 78ZM8 79L8 80L9 80L9 79ZM22 80L22 81L24 81L24 82L25 82L25 81L24 81L24 80ZM42 80L42 81L41 81L41 82L43 82L43 81L44 81L44 80ZM66 80L66 82L67 82L67 80ZM78 80L78 82L79 82L79 80ZM93 80L93 81L94 81L94 80ZM0 81L0 82L1 82L1 81ZM35 81L35 82L36 82L36 81ZM60 81L60 82L61 82L61 81ZM95 82L95 84L97 84L97 82ZM15 83L15 84L14 84L14 85L15 85L15 84L16 84L16 83ZM80 83L80 84L82 84L82 83ZM83 83L83 84L84 84L84 85L85 85L85 83ZM2 84L2 85L3 85L3 84ZM24 84L24 85L25 85L25 84ZM48 84L48 85L49 85L49 86L50 86L50 87L51 87L51 88L50 88L50 89L51 89L51 88L52 88L52 86L50 86L50 84ZM56 84L56 85L55 85L55 86L56 86L56 85L57 85L57 84ZM62 84L62 85L64 85L64 86L63 86L63 87L64 87L64 88L65 88L65 86L66 86L66 85L65 85L65 84ZM71 84L71 85L70 85L70 86L69 86L69 87L68 87L68 86L67 86L67 87L66 87L66 89L65 89L65 90L66 90L66 91L65 91L65 92L66 92L66 91L68 91L68 89L69 89L69 87L70 87L70 90L69 90L69 91L70 91L70 90L72 90L72 91L73 91L73 90L74 90L74 89L75 89L75 88L76 88L76 87L75 87L75 88L74 88L74 87L72 87L72 85L73 85L73 86L75 86L75 85L73 85L73 84ZM86 84L86 86L85 86L85 87L83 87L83 86L82 86L82 85L79 85L79 86L80 86L80 87L79 87L79 88L80 88L80 87L81 87L81 86L82 86L82 87L83 87L83 88L85 88L85 87L86 87L86 86L87 86L87 84ZM7 86L7 87L6 87L6 88L9 88L9 87L8 87L8 86ZM47 86L47 88L46 88L46 89L45 89L45 90L46 90L46 89L47 89L47 88L48 88L48 86ZM70 86L70 87L71 87L71 88L72 88L72 87L71 87L71 86ZM90 86L90 87L91 87L91 86ZM40 87L40 88L39 88L39 89L40 89L40 88L41 88L41 87ZM55 87L55 88L56 88L56 89L57 89L57 88L56 88L56 87ZM67 87L67 88L68 88L68 87ZM94 87L94 88L96 88L96 87ZM19 88L19 90L20 90L20 89L21 89L21 88ZM73 88L73 89L74 89L74 88ZM33 89L33 92L36 92L36 89ZM61 89L61 92L64 92L64 89ZM66 89L66 90L67 90L67 89ZM79 89L79 90L80 90L80 91L79 91L79 92L81 92L81 90L82 90L82 89L81 89L81 90L80 90L80 89ZM89 89L89 92L92 92L92 89ZM34 90L34 91L35 91L35 90ZM54 90L54 91L55 91L55 92L56 92L56 91L57 91L57 90ZM62 90L62 91L63 91L63 90ZM84 90L84 91L83 91L83 92L84 92L84 91L85 91L85 90ZM86 90L86 91L87 91L87 90ZM90 90L90 91L91 91L91 90ZM96 90L96 91L97 91L97 90ZM21 91L21 92L20 92L20 93L21 93L21 94L22 94L22 93L23 93L23 94L24 94L24 93L23 93L23 91ZM44 91L44 92L45 92L45 91ZM31 92L31 93L30 93L30 94L31 94L31 93L32 93L32 92ZM37 92L37 93L38 93L38 92ZM35 93L35 95L34 95L34 96L35 96L35 95L36 95L36 93ZM40 93L40 94L42 94L42 93ZM91 93L91 94L92 94L92 93ZM96 93L96 96L94 96L94 95L93 95L93 96L92 96L92 97L93 97L93 96L94 96L94 97L97 97L97 93ZM13 94L13 95L16 95L16 94ZM72 94L72 95L73 95L73 94ZM11 95L11 96L12 96L12 95ZM28 95L28 97L29 97L29 95ZM62 95L62 96L60 96L60 97L62 97L62 96L63 96L63 97L64 97L64 96L63 96L63 95ZM84 96L84 97L85 97L85 96ZM0 0L0 7L7 7L7 0ZM1 1L1 6L6 6L6 1ZM2 2L2 5L5 5L5 2ZM90 0L90 7L97 7L97 0ZM91 1L91 6L96 6L96 1ZM92 2L92 5L95 5L95 2ZM0 90L0 97L7 97L7 90ZM1 91L1 96L6 96L6 91ZM2 92L2 95L5 95L5 92Z" fill="#000000"/></g></g></svg>
