<?xml version="1.0" encoding="UTF-8"?>
<svg xmlns="http://www.w3.org/2000/svg" version="1.1" width="300" height="300" viewBox="0 0 300 300"><rect x="0" y="0" width="300" height="300" fill="#ffffff"/><g transform="scale(3.093)"><g transform="translate(0,0)"><path fill-rule="evenodd" d="M12 0L12 2L11 2L11 3L10 3L10 2L9 2L9 1L8 1L8 2L9 2L9 3L8 3L8 4L9 4L9 5L8 5L8 7L9 7L9 6L10 6L10 8L6 8L6 9L10 9L10 10L9 10L9 11L7 11L7 10L4 10L4 11L5 11L5 12L6 12L6 13L4 13L4 16L5 16L5 18L4 18L4 17L2 17L2 18L1 18L1 19L0 19L0 22L2 22L2 24L6 24L6 25L1 25L1 24L0 24L0 26L2 26L2 27L1 27L1 28L0 28L0 31L1 31L1 30L2 30L2 31L4 31L4 33L3 33L3 32L2 32L2 33L1 33L1 32L0 32L0 36L1 36L1 34L2 34L2 35L3 35L3 36L2 36L2 37L3 37L3 38L2 38L2 39L3 39L3 40L4 40L4 39L5 39L5 38L6 38L6 39L7 39L7 40L5 40L5 41L4 41L4 42L3 42L3 41L2 41L2 42L1 42L1 41L0 41L0 45L1 45L1 46L4 46L4 44L5 44L5 45L7 45L7 44L8 44L8 42L9 42L9 45L8 45L8 46L5 46L5 47L8 47L8 46L9 46L9 45L10 45L10 46L11 46L11 47L12 47L12 49L9 49L9 51L10 51L10 50L11 50L11 51L12 51L12 52L10 52L10 53L8 53L8 51L7 51L7 50L6 50L6 51L7 51L7 52L6 52L6 53L7 53L7 54L5 54L5 51L4 51L4 52L3 52L3 50L4 50L4 49L3 49L3 47L1 47L1 48L0 48L0 50L2 50L2 51L1 51L1 53L2 53L2 52L3 52L3 54L5 54L5 56L6 56L6 57L4 57L4 55L3 55L3 59L1 59L1 58L2 58L2 56L1 56L1 57L0 57L0 60L3 60L3 62L2 62L2 63L1 63L1 61L0 61L0 64L1 64L1 65L0 65L0 66L1 66L1 67L0 67L0 68L1 68L1 67L2 67L2 66L1 66L1 65L2 65L2 64L3 64L3 65L10 65L10 66L9 66L9 67L10 67L10 68L11 68L11 69L9 69L9 68L8 68L8 66L6 66L6 67L7 67L7 68L5 68L5 66L3 66L3 67L4 67L4 68L2 68L2 69L1 69L1 70L0 70L0 72L4 72L4 73L3 73L3 74L2 74L2 73L0 73L0 74L1 74L1 75L0 75L0 76L2 76L2 77L0 77L0 78L2 78L2 77L3 77L3 79L5 79L5 78L4 78L4 75L7 75L7 76L5 76L5 77L7 77L7 76L8 76L8 77L10 77L10 78L9 78L9 79L8 79L8 78L6 78L6 79L8 79L8 80L11 80L11 82L10 82L10 83L11 83L11 82L16 82L16 81L17 81L17 84L18 84L18 83L20 83L20 84L19 84L19 87L20 87L20 89L18 89L18 88L17 88L17 85L16 85L16 84L15 84L15 83L14 83L14 84L13 84L13 85L12 85L12 84L10 84L10 86L9 86L9 87L10 87L10 88L9 88L9 89L8 89L8 88L6 88L6 87L8 87L8 84L9 84L9 83L8 83L8 81L7 81L7 80L2 80L2 79L0 79L0 80L2 80L2 81L0 81L0 86L1 86L1 85L2 85L2 84L1 84L1 82L3 82L3 85L4 85L4 86L6 86L6 87L5 87L5 88L3 88L3 87L2 87L2 88L1 88L1 87L0 87L0 89L5 89L5 88L6 88L6 89L8 89L8 91L9 91L9 89L10 89L10 90L11 90L11 91L14 91L14 93L11 93L11 92L8 92L8 97L11 97L11 96L12 96L12 97L17 97L17 95L18 95L18 94L19 94L19 93L18 93L18 92L20 92L20 93L21 93L21 92L22 92L22 94L20 94L20 95L21 95L21 96L18 96L18 97L21 97L21 96L23 96L23 97L24 97L24 96L25 96L25 95L26 95L26 94L28 94L28 93L29 93L29 92L28 92L28 91L27 91L27 92L26 92L26 93L24 93L24 96L23 96L23 95L22 95L22 94L23 94L23 92L24 92L24 91L26 91L26 90L28 90L28 89L29 89L29 90L30 90L30 93L31 93L31 94L29 94L29 95L27 95L27 96L26 96L26 97L27 97L27 96L28 96L28 97L29 97L29 96L30 96L30 97L31 97L31 96L32 96L32 95L31 95L31 94L32 94L32 93L33 93L33 96L34 96L34 97L37 97L37 96L34 96L34 95L35 95L35 94L36 94L36 95L37 95L37 94L40 94L40 95L39 95L39 96L41 96L41 97L44 97L44 95L43 95L43 96L41 96L41 93L39 93L39 92L42 92L42 94L43 94L43 93L44 93L44 92L43 92L43 91L42 91L42 90L43 90L43 89L44 89L44 90L46 90L46 91L45 91L45 94L46 94L46 95L45 95L45 97L46 97L46 95L47 95L47 97L51 97L51 95L49 95L49 96L48 96L48 95L47 95L47 94L48 94L48 93L49 93L49 94L50 94L50 93L49 93L49 92L46 92L46 91L48 91L48 90L46 90L46 87L47 87L47 86L46 86L46 87L44 87L44 86L45 86L45 85L44 85L44 84L47 84L47 85L48 85L48 87L49 87L49 86L50 86L50 87L51 87L51 88L54 88L54 89L52 89L52 90L51 90L51 92L53 92L53 91L52 91L52 90L55 90L55 91L54 91L54 93L51 93L51 94L52 94L52 96L54 96L54 97L56 97L56 96L57 96L57 94L58 94L58 95L59 95L59 94L60 94L60 95L61 95L61 94L62 94L62 96L60 96L60 97L64 97L64 96L65 96L65 95L66 95L66 97L67 97L67 95L68 95L68 96L69 96L69 97L70 97L70 95L71 95L71 96L72 96L72 95L76 95L76 96L73 96L73 97L76 97L76 96L77 96L77 97L78 97L78 95L76 95L76 94L77 94L77 92L74 92L74 91L75 91L75 89L76 89L76 90L77 90L77 91L78 91L78 94L79 94L79 96L80 96L80 97L81 97L81 96L82 96L82 95L83 95L83 96L84 96L84 97L85 97L85 95L86 95L86 94L88 94L88 93L89 93L89 94L91 94L91 95L88 95L88 96L89 96L89 97L91 97L91 95L92 95L92 94L93 94L93 95L95 95L95 94L94 94L94 93L95 93L95 92L97 92L97 90L96 90L96 89L97 89L97 86L95 86L95 87L96 87L96 88L93 88L93 87L94 87L94 86L92 86L92 85L93 85L93 84L92 84L92 85L91 85L91 84L89 84L89 83L94 83L94 81L93 81L93 80L92 80L92 79L91 79L91 78L92 78L92 77L93 77L93 79L94 79L94 76L91 76L91 75L94 75L94 73L96 73L96 72L93 72L93 71L97 71L97 70L94 70L94 69L95 69L95 68L94 68L94 69L93 69L93 68L92 68L92 69L91 69L91 66L92 66L92 65L93 65L93 66L94 66L94 64L93 64L93 63L94 63L94 61L95 61L95 60L94 60L94 61L93 61L93 60L91 60L91 58L92 58L92 56L93 56L93 58L94 58L94 56L93 56L93 55L94 55L94 53L97 53L97 50L96 50L96 49L97 49L97 46L96 46L96 45L97 45L97 42L96 42L96 41L97 41L97 40L96 40L96 39L97 39L97 38L95 38L95 40L94 40L94 41L92 41L92 40L93 40L93 39L94 39L94 38L93 38L93 39L92 39L92 37L94 37L94 36L93 36L93 35L94 35L94 33L95 33L95 34L96 34L96 35L97 35L97 34L96 34L96 33L97 33L97 32L96 32L96 31L97 31L97 30L96 30L96 29L97 29L97 26L96 26L96 24L94 24L94 23L97 23L97 22L95 22L95 20L97 20L97 18L96 18L96 17L95 17L95 16L94 16L94 14L92 14L92 11L93 11L93 12L94 12L94 13L95 13L95 12L96 12L96 13L97 13L97 12L96 12L96 11L97 11L97 10L96 10L96 8L95 8L95 12L94 12L94 11L93 11L93 9L94 9L94 8L93 8L93 9L92 9L92 8L91 8L91 9L90 9L90 8L89 8L89 9L90 9L90 10L88 10L88 7L89 7L89 6L88 6L88 5L89 5L89 0L87 0L87 1L88 1L88 2L87 2L87 3L88 3L88 5L87 5L87 6L86 6L86 5L85 5L85 4L82 4L82 2L83 2L83 3L84 3L84 2L85 2L85 3L86 3L86 1L83 1L83 0L78 0L78 1L77 1L77 0L74 0L74 1L73 1L73 0L71 0L71 1L70 1L70 0L67 0L67 2L66 2L66 1L65 1L65 3L64 3L64 4L61 4L61 3L60 3L60 2L61 2L61 1L62 1L62 0L59 0L59 1L58 1L58 0L57 0L57 1L58 1L58 4L59 4L59 3L60 3L60 7L59 7L59 5L57 5L57 4L56 4L56 5L57 5L57 6L56 6L56 7L57 7L57 6L58 6L58 8L57 8L57 11L54 11L54 12L53 12L53 11L52 11L52 10L53 10L53 9L54 9L54 10L56 10L56 8L53 8L53 6L52 6L52 8L47 8L47 9L48 9L48 10L47 10L47 11L49 11L49 12L48 12L48 14L45 14L45 13L47 13L47 12L46 12L46 10L45 10L45 9L46 9L46 7L47 7L47 6L48 6L48 7L49 7L49 6L50 6L50 7L51 7L51 5L52 5L52 4L51 4L51 5L49 5L49 4L50 4L50 2L51 2L51 3L53 3L53 5L55 5L55 3L57 3L57 2L56 2L56 0L51 0L51 1L50 1L50 0L49 0L49 3L47 3L47 1L46 1L46 0L45 0L45 1L44 1L44 0L41 0L41 2L40 2L40 0L39 0L39 2L40 2L40 3L38 3L38 0L32 0L32 1L30 1L30 0L24 0L24 2L25 2L25 1L27 1L27 3L26 3L26 4L24 4L24 8L26 8L26 9L24 9L24 12L23 12L23 11L22 11L22 12L23 12L23 13L21 13L21 12L20 12L20 14L19 14L19 13L18 13L18 12L19 12L19 9L20 9L20 10L21 10L21 9L22 9L22 8L21 8L21 6L20 6L20 5L21 5L21 4L22 4L22 7L23 7L23 2L22 2L22 3L20 3L20 1L21 1L21 0L18 0L18 1L19 1L19 2L18 2L18 3L17 3L17 4L16 4L16 3L15 3L15 0ZM22 0L22 1L23 1L23 0ZM63 0L63 2L62 2L62 3L63 3L63 2L64 2L64 0ZM13 1L13 2L12 2L12 4L11 4L11 8L12 8L12 9L11 9L11 11L12 11L12 10L13 10L13 8L12 8L12 5L13 5L13 7L14 7L14 6L15 6L15 7L16 7L16 5L15 5L15 3L14 3L14 1ZM16 1L16 2L17 2L17 1ZM29 1L29 2L28 2L28 3L27 3L27 4L28 4L28 3L29 3L29 5L28 5L28 6L27 6L27 5L26 5L26 6L25 6L25 7L26 7L26 8L27 8L27 9L26 9L26 11L28 11L28 12L26 12L26 13L25 13L25 12L24 12L24 13L23 13L23 14L22 14L22 15L23 15L23 16L22 16L22 17L20 17L20 16L21 16L21 14L20 14L20 15L19 15L19 18L20 18L20 22L19 22L19 19L18 19L18 15L17 15L17 16L16 16L16 14L18 14L18 13L15 13L15 11L16 11L16 10L17 10L17 12L18 12L18 9L19 9L19 8L20 8L20 6L19 6L19 4L18 4L18 6L17 6L17 8L18 8L18 9L15 9L15 8L14 8L14 9L15 9L15 11L14 11L14 13L15 13L15 15L14 15L14 16L16 16L16 18L15 18L15 17L13 17L13 12L12 12L12 15L11 15L11 14L10 14L10 12L9 12L9 14L7 14L7 13L8 13L8 12L7 12L7 11L6 11L6 12L7 12L7 13L6 13L6 14L5 14L5 15L6 15L6 16L7 16L7 17L6 17L6 18L7 18L7 17L9 17L9 14L10 14L10 16L11 16L11 17L10 17L10 18L8 18L8 19L6 19L6 20L7 20L7 21L4 21L4 20L5 20L5 19L4 19L4 20L3 20L3 19L1 19L1 21L2 21L2 22L4 22L4 23L5 23L5 22L7 22L7 21L8 21L8 20L9 20L9 22L8 22L8 23L6 23L6 24L8 24L8 27L5 27L5 29L6 29L6 30L7 30L7 29L8 29L8 27L9 27L9 25L10 25L10 24L9 24L9 23L11 23L11 26L12 26L12 27L14 27L14 26L15 26L15 27L16 27L16 28L15 28L15 29L14 29L14 28L13 28L13 29L14 29L14 30L16 30L16 29L17 29L17 30L18 30L18 31L19 31L19 32L18 32L18 33L17 33L17 32L16 32L16 33L15 33L15 31L13 31L13 30L10 30L10 29L9 29L9 31L6 31L6 32L9 32L9 33L13 33L13 35L14 35L14 34L16 34L16 33L17 33L17 35L16 35L16 36L14 36L14 37L13 37L13 36L12 36L12 34L11 34L11 35L10 35L10 34L9 34L9 36L11 36L11 37L8 37L8 38L7 38L7 37L6 37L6 38L7 38L7 39L9 39L9 38L10 38L10 40L9 40L9 41L10 41L10 44L12 44L12 42L11 42L11 41L12 41L12 39L11 39L11 37L13 37L13 38L14 38L14 37L16 37L16 38L15 38L15 39L14 39L14 40L15 40L15 41L17 41L17 40L18 40L18 42L19 42L19 44L20 44L20 45L21 45L21 44L20 44L20 41L21 41L21 42L23 42L23 43L22 43L22 44L23 44L23 45L22 45L22 46L19 46L19 45L18 45L18 44L17 44L17 42L14 42L14 41L13 41L13 43L15 43L15 44L13 44L13 45L12 45L12 47L14 47L14 48L13 48L13 50L12 50L12 51L16 51L16 52L15 52L15 53L16 53L16 56L15 56L15 54L14 54L14 52L12 52L12 53L11 53L11 54L12 54L12 56L13 56L13 57L14 57L14 56L15 56L15 58L14 58L14 59L15 59L15 60L14 60L14 61L16 61L16 62L13 62L13 63L12 63L12 62L10 62L10 61L11 61L11 60L12 60L12 61L13 61L13 60L12 60L12 59L13 59L13 58L12 58L12 59L11 59L11 60L10 60L10 57L9 57L9 56L10 56L10 54L7 54L7 55L6 55L6 56L7 56L7 57L6 57L6 58L4 58L4 59L6 59L6 60L7 60L7 59L8 59L8 58L9 58L9 60L10 60L10 61L9 61L9 64L11 64L11 63L12 63L12 65L13 65L13 64L14 64L14 66L12 66L12 68L15 68L15 67L16 67L16 66L15 66L15 64L14 64L14 63L16 63L16 64L17 64L17 63L18 63L18 64L19 64L19 67L18 67L18 68L17 68L17 69L13 69L13 70L12 70L12 69L11 69L11 71L12 71L12 72L11 72L11 73L10 73L10 70L7 70L7 69L3 69L3 70L2 70L2 71L4 71L4 72L5 72L5 73L6 73L6 74L7 74L7 75L8 75L8 76L10 76L10 77L12 77L12 78L13 78L13 80L16 80L16 79L17 79L17 78L16 78L16 79L15 79L15 77L16 77L16 76L18 76L18 74L19 74L19 75L20 75L20 77L19 77L19 78L20 78L20 80L21 80L21 81L19 81L19 82L21 82L21 81L22 81L22 85L23 85L23 88L21 88L21 91L22 91L22 92L23 92L23 91L24 91L24 90L25 90L25 89L28 89L28 88L25 88L25 87L24 87L24 86L25 86L25 85L26 85L26 86L27 86L27 85L26 85L26 84L27 84L27 83L26 83L26 82L25 82L25 83L23 83L23 82L24 82L24 81L26 81L26 79L27 79L27 78L26 78L26 77L28 77L28 78L29 78L29 79L28 79L28 80L27 80L27 81L28 81L28 82L29 82L29 84L28 84L28 85L30 85L30 86L28 86L28 87L30 87L30 86L31 86L31 87L33 87L33 88L34 88L34 87L37 87L37 88L38 88L38 89L37 89L37 90L39 90L39 88L40 88L40 91L41 91L41 90L42 90L42 87L43 87L43 88L44 88L44 89L45 89L45 88L44 88L44 87L43 87L43 86L42 86L42 87L41 87L41 88L40 88L40 86L41 86L41 83L42 83L42 85L43 85L43 84L44 84L44 83L45 83L45 82L47 82L47 81L46 81L46 80L47 80L47 79L48 79L48 80L49 80L49 81L50 81L50 82L49 82L49 85L50 85L50 86L52 86L52 87L55 87L55 88L56 88L56 89L57 89L57 88L56 88L56 87L58 87L58 90L57 90L57 91L58 91L58 90L59 90L59 91L60 91L60 90L59 90L59 89L60 89L60 87L62 87L62 88L63 88L63 87L64 87L64 88L65 88L65 86L66 86L66 87L67 87L67 88L66 88L66 89L65 89L65 90L66 90L66 89L67 89L67 91L66 91L66 92L65 92L65 93L62 93L62 94L63 94L63 95L65 95L65 94L66 94L66 93L67 93L67 94L68 94L68 95L70 95L70 94L71 94L71 95L72 95L72 94L71 94L71 93L73 93L73 94L76 94L76 93L73 93L73 91L72 91L72 90L71 90L71 91L70 91L70 90L69 90L69 89L70 89L70 88L71 88L71 89L72 89L72 88L71 88L71 87L70 87L70 86L72 86L72 87L73 87L73 90L74 90L74 88L76 88L76 89L77 89L77 90L78 90L78 91L82 91L82 92L79 92L79 93L83 93L83 95L84 95L84 92L85 92L85 94L86 94L86 93L87 93L87 92L88 92L88 90L87 90L87 91L84 91L84 92L83 92L83 91L82 91L82 90L83 90L83 89L84 89L84 88L83 88L83 87L85 87L85 88L86 88L86 89L85 89L85 90L86 90L86 89L88 89L88 88L89 88L89 87L90 87L90 88L91 88L91 85L89 85L89 84L88 84L88 83L86 83L86 84L88 84L88 86L89 86L89 87L88 87L88 88L86 88L86 87L85 87L85 86L86 86L86 85L85 85L85 83L84 83L84 82L86 82L86 80L83 80L83 79L85 79L85 78L88 78L88 77L89 77L89 78L91 78L91 77L89 77L89 75L88 75L88 76L87 76L87 74L88 74L88 73L89 73L89 74L90 74L90 75L91 75L91 73L92 73L92 74L93 74L93 73L92 73L92 72L91 72L91 69L90 69L90 71L89 71L89 72L88 72L88 71L86 71L86 69L87 69L87 70L88 70L88 68L90 68L90 67L88 67L88 68L86 68L86 67L87 67L87 66L88 66L88 65L87 65L87 64L86 64L86 63L87 63L87 62L88 62L88 61L87 61L87 59L86 59L86 58L88 58L88 56L89 56L89 57L90 57L90 58L91 58L91 56L89 56L89 55L90 55L90 54L89 54L89 55L88 55L88 56L87 56L87 55L85 55L85 54L86 54L86 53L85 53L85 51L84 51L84 52L83 52L83 51L82 51L82 50L81 50L81 49L84 49L84 48L80 48L80 47L83 47L83 45L84 45L84 44L83 44L83 43L82 43L82 44L81 44L81 45L82 45L82 46L80 46L80 44L76 44L76 42L75 42L75 40L76 40L76 41L77 41L77 42L78 42L78 41L77 41L77 40L79 40L79 43L80 43L80 40L81 40L81 39L82 39L82 42L83 42L83 41L84 41L84 43L85 43L85 50L86 50L86 49L88 49L88 50L87 50L87 51L86 51L86 52L87 52L87 51L88 51L88 52L89 52L89 53L91 53L91 52L89 52L89 51L88 51L88 50L90 50L90 51L92 51L92 49L93 49L93 50L94 50L94 49L93 49L93 48L92 48L92 49L91 49L91 48L89 48L89 47L88 47L88 45L87 45L87 44L89 44L89 43L88 43L88 41L87 41L87 40L85 40L85 38L86 38L86 39L88 39L88 40L89 40L89 42L90 42L90 43L91 43L91 44L90 44L90 45L89 45L89 46L91 46L91 47L93 47L93 46L94 46L94 45L93 45L93 44L92 44L92 43L93 43L93 42L92 42L92 41L91 41L91 40L92 40L92 39L91 39L91 40L89 40L89 39L90 39L90 38L89 38L89 37L88 37L88 36L86 36L86 35L87 35L87 34L88 34L88 32L91 32L91 31L92 31L92 32L93 32L93 31L92 31L92 30L91 30L91 31L88 31L88 30L89 30L89 29L90 29L90 28L91 28L91 27L90 27L90 28L89 28L89 25L91 25L91 26L93 26L93 27L92 27L92 28L95 28L95 27L96 27L96 26L95 26L95 25L91 25L91 23L92 23L92 24L93 24L93 23L92 23L92 22L93 22L93 19L94 19L94 20L95 20L95 19L96 19L96 18L95 18L95 17L94 17L94 18L93 18L93 17L92 17L92 16L93 16L93 15L92 15L92 16L91 16L91 15L89 15L89 14L86 14L86 13L85 13L85 12L87 12L87 11L85 11L85 12L83 12L83 11L84 11L84 10L83 10L83 9L85 9L85 10L87 10L87 9L85 9L85 7L86 7L86 6L85 6L85 7L84 7L84 5L83 5L83 7L82 7L82 5L80 5L80 6L79 6L79 8L78 8L78 5L79 5L79 4L81 4L81 3L79 3L79 1L78 1L78 3L77 3L77 5L76 5L76 4L75 4L75 7L74 7L74 6L73 6L73 5L74 5L74 3L73 3L73 5L72 5L72 6L71 6L71 7L72 7L72 8L69 8L69 9L68 9L68 8L67 8L67 9L66 9L66 6L67 6L67 7L68 7L68 6L67 6L67 4L70 4L70 5L69 5L69 7L70 7L70 5L71 5L71 4L72 4L72 3L71 3L71 2L72 2L72 1L71 1L71 2L70 2L70 1L69 1L69 3L67 3L67 4L66 4L66 3L65 3L65 5L66 5L66 6L65 6L65 10L66 10L66 12L63 12L63 9L62 9L62 12L61 12L61 11L60 11L60 10L61 10L61 9L60 9L60 8L58 8L58 10L59 10L59 13L58 13L58 11L57 11L57 12L54 12L54 13L55 13L55 14L53 14L53 12L52 12L52 11L51 11L51 13L50 13L50 12L49 12L49 13L50 13L50 14L49 14L49 15L48 15L48 16L47 16L47 17L46 17L46 18L47 18L47 19L46 19L46 21L45 21L45 20L43 20L43 21L44 21L44 22L43 22L43 24L44 24L44 25L43 25L43 26L42 26L42 24L40 24L40 23L38 23L38 22L39 22L39 21L38 21L38 20L37 20L37 18L36 18L36 17L38 17L38 18L41 18L41 20L40 20L40 19L39 19L39 20L40 20L40 21L42 21L42 19L45 19L45 16L44 16L44 18L41 18L41 17L42 17L42 15L44 15L44 13L45 13L45 12L44 12L44 11L45 11L45 10L44 10L44 9L45 9L45 8L43 8L43 10L42 10L42 9L41 9L41 8L40 8L40 6L41 6L41 7L42 7L42 6L43 6L43 7L44 7L44 6L45 6L45 7L46 7L46 6L45 6L45 5L47 5L47 3L46 3L46 1L45 1L45 3L42 3L42 2L44 2L44 1L42 1L42 2L41 2L41 3L40 3L40 6L39 6L39 7L38 7L38 5L39 5L39 4L37 4L37 1L36 1L36 4L37 4L37 7L38 7L38 9L37 9L37 10L39 10L39 8L40 8L40 9L41 9L41 10L40 10L40 11L41 11L41 12L39 12L39 11L37 11L37 12L36 12L36 13L37 13L37 14L35 14L35 12L34 12L34 11L35 11L35 10L36 10L36 9L35 9L35 10L34 10L34 11L33 11L33 9L32 9L32 11L30 11L30 12L31 12L31 13L28 13L28 12L29 12L29 10L27 10L27 9L28 9L28 8L29 8L29 9L30 9L30 8L31 8L31 7L32 7L32 4L30 4L30 1ZM32 1L32 2L31 2L31 3L33 3L33 2L34 2L34 1ZM51 1L51 2L52 2L52 1ZM54 1L54 2L55 2L55 1ZM74 1L74 2L75 2L75 3L76 3L76 2L75 2L75 1ZM80 1L80 2L82 2L82 1ZM13 3L13 5L14 5L14 3ZM34 3L34 4L35 4L35 3ZM41 3L41 5L43 5L43 4L42 4L42 3ZM45 3L45 4L44 4L44 5L45 5L45 4L46 4L46 3ZM70 3L70 4L71 4L71 3ZM29 5L29 6L28 6L28 7L29 7L29 8L30 8L30 7L31 7L31 5ZM33 5L33 8L36 8L36 5ZM48 5L48 6L49 6L49 5ZM61 5L61 8L64 8L64 5ZM18 6L18 8L19 8L19 6ZM26 6L26 7L27 7L27 6ZM29 6L29 7L30 7L30 6ZM34 6L34 7L35 7L35 6ZM54 6L54 7L55 7L55 6ZM62 6L62 7L63 7L63 6ZM72 6L72 7L73 7L73 6ZM76 6L76 7L77 7L77 6ZM80 6L80 8L81 8L81 6ZM87 6L87 7L88 7L88 6ZM83 7L83 8L82 8L82 9L81 9L81 10L82 10L82 9L83 9L83 8L84 8L84 7ZM0 8L0 9L1 9L1 10L0 10L0 14L2 14L2 13L3 13L3 10L2 10L2 9L5 9L5 8ZM52 8L52 9L53 9L53 8ZM74 8L74 10L73 10L73 9L71 9L71 10L73 10L73 11L74 11L74 13L75 13L75 14L76 14L76 16L75 16L75 15L74 15L74 14L73 14L73 15L72 15L72 13L73 13L73 12L72 12L72 11L67 11L67 12L66 12L66 14L67 14L67 12L72 12L72 13L68 13L68 14L71 14L71 15L65 15L65 16L64 16L64 13L63 13L63 14L62 14L62 13L61 13L61 14L60 14L60 13L59 13L59 14L60 14L60 15L58 15L58 13L56 13L56 16L54 16L54 17L53 17L53 18L57 18L57 19L59 19L59 21L61 21L61 22L58 22L58 21L57 21L57 22L58 22L58 23L54 23L54 22L55 22L55 21L56 21L56 20L55 20L55 19L54 19L54 20L53 20L53 19L52 19L52 18L50 18L50 17L49 17L49 16L50 16L50 15L51 15L51 16L53 16L53 15L51 15L51 14L50 14L50 15L49 15L49 16L48 16L48 17L47 17L47 18L48 18L48 19L47 19L47 22L48 22L48 23L49 23L49 22L50 22L50 23L51 23L51 22L50 22L50 21L51 21L51 20L53 20L53 21L52 21L52 22L53 22L53 23L52 23L52 24L53 24L53 23L54 23L54 24L57 24L57 25L56 25L56 28L55 28L55 25L51 25L51 24L50 24L50 25L51 25L51 26L50 26L50 27L49 27L49 24L48 24L48 25L47 25L47 26L46 26L46 25L45 25L45 26L43 26L43 27L42 27L42 30L41 30L41 29L40 29L40 28L41 28L41 27L40 27L40 28L39 28L39 30L37 30L37 29L38 29L38 28L37 28L37 29L36 29L36 28L35 28L35 27L34 27L34 26L35 26L35 25L36 25L36 26L37 26L37 27L38 27L38 25L36 25L36 23L35 23L35 25L34 25L34 26L33 26L33 27L32 27L32 26L31 26L31 24L30 24L30 23L31 23L31 22L33 22L33 23L32 23L32 24L34 24L34 22L33 22L33 21L34 21L34 20L33 20L33 21L32 21L32 20L31 20L31 21L28 21L28 20L29 20L29 18L30 18L30 19L32 19L32 18L33 18L33 19L34 19L34 18L35 18L35 17L34 17L34 12L33 12L33 14L30 14L30 15L32 15L32 18L31 18L31 16L30 16L30 17L29 17L29 16L28 16L28 15L27 15L27 16L26 16L26 17L24 17L24 19L25 19L25 18L26 18L26 21L25 21L25 20L24 20L24 21L25 21L25 22L24 22L24 23L27 23L27 24L26 24L26 25L25 25L25 24L21 24L21 23L23 23L23 20L22 20L22 19L23 19L23 17L22 17L22 18L21 18L21 21L22 21L22 22L21 22L21 23L19 23L19 22L18 22L18 19L17 19L17 18L16 18L16 19L15 19L15 18L14 18L14 20L15 20L15 21L16 21L16 20L17 20L17 23L19 23L19 24L21 24L21 25L19 25L19 26L18 26L18 24L17 24L17 25L15 25L15 23L16 23L16 22L14 22L14 21L13 21L13 18L12 18L12 17L11 17L11 18L12 18L12 19L10 19L10 20L11 20L11 21L13 21L13 23L14 23L14 24L12 24L12 25L15 25L15 26L18 26L18 27L19 27L19 29L18 29L18 28L17 28L17 29L18 29L18 30L21 30L21 33L22 33L22 34L21 34L21 35L18 35L18 36L17 36L17 37L18 37L18 39L19 39L19 38L20 38L20 40L19 40L19 41L20 41L20 40L21 40L21 41L22 41L22 38L23 38L23 39L24 39L24 40L23 40L23 41L25 41L25 39L24 39L24 38L23 38L23 37L25 37L25 38L26 38L26 39L27 39L27 40L28 40L28 41L26 41L26 43L27 43L27 42L28 42L28 45L27 45L27 44L26 44L26 45L27 45L27 46L26 46L26 47L25 47L25 45L24 45L24 48L22 48L22 47L23 47L23 46L22 46L22 47L19 47L19 46L17 46L17 44L15 44L15 46L14 46L14 45L13 45L13 46L14 46L14 47L15 47L15 48L14 48L14 50L16 50L16 51L17 51L17 53L18 53L18 52L20 52L20 53L22 53L22 54L23 54L23 56L22 56L22 55L21 55L21 56L20 56L20 57L19 57L19 54L18 54L18 55L17 55L17 56L16 56L16 59L17 59L17 60L18 60L18 61L17 61L17 62L18 62L18 63L19 63L19 62L22 62L22 61L24 61L24 63L25 63L25 62L30 62L30 64L31 64L31 62L32 62L32 65L31 65L31 66L30 66L30 65L29 65L29 66L28 66L28 65L27 65L27 64L28 64L28 63L27 63L27 64L26 64L26 65L25 65L25 64L23 64L23 63L22 63L22 64L23 64L23 65L21 65L21 67L19 67L19 69L17 69L17 71L18 71L18 72L16 72L16 70L15 70L15 72L14 72L14 70L13 70L13 72L12 72L12 73L11 73L11 75L13 75L13 72L14 72L14 74L15 74L15 75L14 75L14 76L13 76L13 78L14 78L14 77L15 77L15 75L16 75L16 74L15 74L15 73L17 73L17 74L18 74L18 72L19 72L19 69L20 69L20 70L21 70L21 71L22 71L22 74L23 74L23 73L24 73L24 72L25 72L25 71L24 71L24 70L26 70L26 69L24 69L24 68L25 68L25 67L22 67L22 66L23 66L23 65L24 65L24 66L27 66L27 67L26 67L26 68L28 68L28 69L27 69L27 70L28 70L28 69L29 69L29 70L30 70L30 69L29 69L29 66L30 66L30 67L31 67L31 68L32 68L32 69L36 69L36 70L38 70L38 69L37 69L37 67L39 67L39 66L40 66L40 68L39 68L39 69L40 69L40 68L41 68L41 70L40 70L40 71L39 71L39 72L38 72L38 71L33 71L33 70L31 70L31 72L30 72L30 73L29 73L29 72L28 72L28 71L26 71L26 72L28 72L28 73L25 73L25 75L24 75L24 76L23 76L23 75L21 75L21 76L22 76L22 78L23 78L23 79L22 79L22 80L23 80L23 81L24 81L24 79L25 79L25 77L26 77L26 76L27 76L27 74L28 74L28 75L29 75L29 76L28 76L28 77L31 77L31 76L32 76L32 77L34 77L34 78L35 78L35 77L36 77L36 79L33 79L33 78L30 78L30 81L31 81L31 82L30 82L30 84L32 84L32 85L31 85L31 86L33 86L33 87L34 87L34 86L33 86L33 85L34 85L34 84L35 84L35 86L38 86L38 87L39 87L39 86L38 86L38 83L39 83L39 84L40 84L40 81L39 81L39 80L40 80L40 78L42 78L42 79L41 79L41 80L42 80L42 79L44 79L44 80L43 80L43 81L42 81L42 82L44 82L44 80L46 80L46 79L47 79L47 78L48 78L48 79L49 79L49 77L50 77L50 75L51 75L51 76L52 76L52 75L51 75L51 74L50 74L50 73L52 73L52 71L53 71L53 70L54 70L54 73L53 73L53 74L54 74L54 75L53 75L53 76L54 76L54 75L55 75L55 76L58 76L58 75L60 75L60 76L59 76L59 78L58 78L58 77L57 77L57 78L56 78L56 77L53 77L53 79L52 79L52 77L51 77L51 78L50 78L50 79L51 79L51 80L50 80L50 81L51 81L51 82L50 82L50 84L54 84L54 82L55 82L55 83L56 83L56 84L57 84L57 83L60 83L60 84L59 84L59 86L58 86L58 85L56 85L56 86L58 86L58 87L60 87L60 86L64 86L64 83L65 83L65 85L66 85L66 86L67 86L67 85L66 85L66 84L67 84L67 83L66 83L66 82L67 82L67 80L69 80L69 81L68 81L68 82L69 82L69 83L68 83L68 85L69 85L69 86L68 86L68 88L69 88L69 86L70 86L70 85L69 85L69 84L72 84L72 86L73 86L73 87L74 87L74 86L73 86L73 85L74 85L74 83L75 83L75 81L76 81L76 83L77 83L77 84L78 84L78 85L79 85L79 83L78 83L78 82L79 82L79 80L80 80L80 82L82 82L82 83L83 83L83 84L84 84L84 83L83 83L83 80L80 80L80 78L82 78L82 77L81 77L81 74L82 74L82 76L83 76L83 75L84 75L84 77L83 77L83 78L85 78L85 77L87 77L87 76L86 76L86 75L85 75L85 74L84 74L84 73L83 73L83 72L84 72L84 71L85 71L85 70L84 70L84 69L85 69L85 67L86 67L86 66L87 66L87 65L86 65L86 66L84 66L84 65L85 65L85 63L86 63L86 62L87 62L87 61L86 61L86 62L84 62L84 61L83 61L83 60L84 60L84 59L85 59L85 55L84 55L84 54L82 54L82 51L80 51L80 53L79 53L79 54L80 54L80 55L79 55L79 56L80 56L80 57L81 57L81 58L82 58L82 59L83 59L83 60L82 60L82 61L81 61L81 59L80 59L80 58L79 58L79 59L78 59L78 58L77 58L77 59L78 59L78 60L80 60L80 61L79 61L79 62L77 62L77 61L76 61L76 60L75 60L75 61L74 61L74 62L73 62L73 60L74 60L74 59L76 59L76 57L77 57L77 56L78 56L78 54L77 54L77 55L76 55L76 53L77 53L77 52L74 52L74 54L72 54L72 53L73 53L73 51L78 51L78 50L79 50L79 48L77 48L77 47L79 47L79 46L77 46L77 45L76 45L76 44L75 44L75 47L74 47L74 46L73 46L73 45L72 45L72 46L70 46L70 45L71 45L71 44L72 44L72 43L73 43L73 44L74 44L74 42L73 42L73 41L74 41L74 40L75 40L75 39L79 39L79 40L80 40L80 39L79 39L79 38L82 38L82 39L83 39L83 40L84 40L84 41L85 41L85 40L84 40L84 39L83 39L83 37L82 37L82 36L83 36L83 32L82 32L82 31L85 31L85 32L84 32L84 35L86 35L86 34L85 34L85 33L86 33L86 32L87 32L87 31L86 31L86 30L83 30L83 28L84 28L84 27L85 27L85 29L86 29L86 26L85 26L85 25L87 25L87 28L88 28L88 29L87 29L87 30L88 30L88 29L89 29L89 28L88 28L88 25L89 25L89 24L86 24L86 23L89 23L89 20L86 20L86 21L87 21L87 22L85 22L85 20L84 20L84 19L88 19L88 17L87 17L87 16L88 16L88 15L87 15L87 16L86 16L86 14L84 14L84 15L85 15L85 16L84 16L84 19L83 19L83 17L82 17L82 16L83 16L83 12L82 12L82 11L79 11L79 12L77 12L77 11L78 11L78 10L76 10L76 12L75 12L75 11L74 11L74 10L75 10L75 9L76 9L76 8ZM50 9L50 10L49 10L49 11L50 11L50 10L51 10L51 9ZM67 9L67 10L68 10L68 9ZM69 9L69 10L70 10L70 9ZM41 10L41 11L42 11L42 10ZM1 11L1 12L2 12L2 11ZM88 11L88 13L90 13L90 12L91 12L91 11ZM37 12L37 13L38 13L38 12ZM79 12L79 13L80 13L80 14L79 14L79 15L82 15L82 14L81 14L81 12ZM24 13L24 14L23 14L23 15L26 15L26 14L28 14L28 13L26 13L26 14L25 14L25 13ZM42 13L42 14L43 14L43 13ZM76 13L76 14L78 14L78 13ZM6 14L6 15L7 15L7 16L8 16L8 15L7 15L7 14ZM37 14L37 16L38 16L38 15L40 15L40 16L41 16L41 15L40 15L40 14ZM61 14L61 15L60 15L60 16L61 16L61 17L58 17L58 18L59 18L59 19L60 19L60 18L61 18L61 17L64 17L64 18L62 18L62 19L61 19L61 21L62 21L62 20L63 20L63 21L64 21L64 20L65 20L65 22L66 22L66 23L63 23L63 22L61 22L61 23L58 23L58 25L57 25L57 26L58 26L58 27L57 27L57 28L56 28L56 29L55 29L55 30L54 30L54 29L53 29L53 28L51 28L51 27L52 27L52 26L51 26L51 27L50 27L50 30L51 30L51 31L49 31L49 30L48 30L48 29L45 29L45 28L44 28L44 27L43 27L43 28L44 28L44 30L42 30L42 31L41 31L41 32L40 32L40 33L39 33L39 31L38 31L38 32L37 32L37 33L38 33L38 34L39 34L39 36L40 36L40 39L38 39L38 38L39 38L39 37L38 37L38 36L37 36L37 37L34 37L34 38L33 38L33 37L32 37L32 38L31 38L31 36L32 36L32 35L29 35L29 33L30 33L30 34L31 34L31 33L30 33L30 31L29 31L29 29L30 29L30 30L32 30L32 31L31 31L31 32L35 32L35 31L33 31L33 29L35 29L35 28L34 28L34 27L33 27L33 28L32 28L32 27L30 27L30 26L26 26L26 27L25 27L25 25L23 25L23 26L22 26L22 25L21 25L21 26L22 26L22 27L23 27L23 28L22 28L22 29L21 29L21 30L22 30L22 29L23 29L23 30L24 30L24 29L28 29L28 31L27 31L27 30L26 30L26 31L25 31L25 33L26 33L26 31L27 31L27 32L29 32L29 33L28 33L28 36L25 36L25 37L28 37L28 36L29 36L29 37L30 37L30 38L29 38L29 41L28 41L28 42L29 42L29 45L28 45L28 46L30 46L30 48L29 48L29 47L28 47L28 48L25 48L25 49L23 49L23 51L24 51L24 50L25 50L25 51L26 51L26 52L23 52L23 53L26 53L26 52L27 52L27 50L25 50L25 49L28 49L28 48L29 48L29 49L30 49L30 48L31 48L31 49L32 49L32 50L31 50L31 51L32 51L32 50L33 50L33 52L31 52L31 53L30 53L30 50L29 50L29 51L28 51L28 52L29 52L29 53L27 53L27 57L28 57L28 56L29 56L29 59L28 59L28 60L26 60L26 59L27 59L27 58L25 58L25 59L24 59L24 57L26 57L26 56L24 56L24 57L23 57L23 58L22 58L22 57L21 57L21 58L22 58L22 59L18 59L18 58L17 58L17 59L18 59L18 60L19 60L19 61L21 61L21 60L22 60L22 59L23 59L23 60L24 60L24 61L28 61L28 60L29 60L29 61L31 61L31 59L32 59L32 58L31 58L31 57L33 57L33 58L34 58L34 60L35 60L35 59L36 59L36 58L34 58L34 57L33 57L33 56L34 56L34 55L36 55L36 54L37 54L37 55L38 55L38 56L37 56L37 58L42 58L42 59L40 59L40 61L39 61L39 59L38 59L38 60L37 60L37 64L38 64L38 66L39 66L39 65L42 65L42 63L43 63L43 64L44 64L44 65L45 65L45 64L46 64L46 62L47 62L47 63L48 63L48 64L49 64L49 65L46 65L46 66L47 66L47 67L46 67L46 68L47 68L47 67L48 67L48 68L49 68L49 69L46 69L46 70L48 70L48 71L47 71L47 72L49 72L49 71L50 71L50 72L51 72L51 71L52 71L52 69L54 69L54 67L53 67L53 66L52 66L52 67L50 67L50 66L51 66L51 65L54 65L54 63L55 63L55 62L54 62L54 61L55 61L55 60L56 60L56 61L58 61L58 62L56 62L56 63L58 63L58 65L57 65L57 64L56 64L56 66L55 66L55 70L56 70L56 71L55 71L55 73L56 73L56 75L57 75L57 74L59 74L59 73L58 73L58 72L59 72L59 71L62 71L62 72L60 72L60 75L64 75L64 74L63 74L63 73L62 73L62 72L63 72L63 71L64 71L64 70L69 70L69 69L68 69L68 68L66 68L66 67L65 67L65 66L67 66L67 67L70 67L70 70L71 70L71 71L69 71L69 72L67 72L67 71L65 71L65 72L64 72L64 73L65 73L65 74L67 74L67 73L68 73L68 75L70 75L70 77L71 77L71 79L70 79L70 82L71 82L71 81L72 81L72 83L73 83L73 82L74 82L74 81L72 81L72 80L73 80L73 78L74 78L74 79L75 79L75 80L76 80L76 79L75 79L75 76L74 76L74 75L76 75L76 74L77 74L77 76L76 76L76 78L79 78L79 77L80 77L80 76L78 76L78 75L80 75L80 72L79 72L79 71L77 71L77 70L80 70L80 71L82 71L82 72L83 72L83 69L84 69L84 68L83 68L83 67L82 67L82 66L83 66L83 65L84 65L84 64L79 64L79 66L78 66L78 63L77 63L77 62L76 62L76 61L75 61L75 63L72 63L72 64L71 64L71 65L70 65L70 66L67 66L67 65L68 65L68 64L67 64L67 65L65 65L65 66L61 66L61 70L60 70L60 68L59 68L59 67L60 67L60 64L59 64L59 63L60 63L60 62L59 62L59 61L58 61L58 60L59 60L59 59L58 59L58 58L60 58L60 59L61 59L61 58L63 58L63 57L65 57L65 58L64 58L64 60L65 60L65 62L66 62L66 63L65 63L65 64L66 64L66 63L67 63L67 61L68 61L68 60L67 60L67 61L66 61L66 59L69 59L69 61L70 61L70 60L71 60L71 62L72 62L72 60L73 60L73 59L72 59L72 54L71 54L71 56L67 56L67 57L66 57L66 56L65 56L65 55L64 55L64 56L63 56L63 55L62 55L62 56L63 56L63 57L61 57L61 55L60 55L60 54L62 54L62 53L59 53L59 52L63 52L63 50L64 50L64 53L63 53L63 54L64 54L64 53L65 53L65 54L66 54L66 55L70 55L70 54L68 54L68 53L69 53L69 52L68 52L68 51L70 51L70 52L71 52L71 53L72 53L72 52L71 52L71 51L73 51L73 50L74 50L74 49L75 49L75 50L78 50L78 49L77 49L77 48L76 48L76 47L77 47L77 46L76 46L76 47L75 47L75 48L72 48L72 47L69 47L69 45L70 45L70 44L71 44L71 43L72 43L72 41L73 41L73 38L74 38L74 36L76 36L76 37L75 37L75 38L78 38L78 37L77 37L77 36L76 36L76 35L77 35L77 34L78 34L78 33L79 33L79 35L81 35L81 36L82 36L82 34L81 34L81 33L80 33L80 32L78 32L78 31L79 31L79 29L80 29L80 28L78 28L78 27L81 27L81 29L82 29L82 28L83 28L83 27L84 27L84 24L83 24L83 23L84 23L84 22L83 22L83 21L84 21L84 20L83 20L83 19L82 19L82 18L81 18L81 17L80 17L80 16L78 16L78 17L76 17L76 18L78 18L78 21L77 21L77 19L71 19L71 17L72 17L72 16L69 16L69 17L68 17L68 16L66 16L66 17L64 17L64 16L63 16L63 15L62 15L62 14ZM96 14L96 15L97 15L97 14ZM0 15L0 16L1 16L1 15ZM2 15L2 16L3 16L3 15ZM35 15L35 16L36 16L36 15ZM57 15L57 16L56 16L56 17L57 17L57 16L58 16L58 15ZM73 15L73 18L75 18L75 17L74 17L74 15ZM27 16L27 17L28 17L28 18L29 18L29 17L28 17L28 16ZM89 16L89 17L90 17L90 16ZM33 17L33 18L34 18L34 17ZM48 17L48 18L49 18L49 19L48 19L48 20L49 20L49 21L50 21L50 20L51 20L51 19L50 19L50 18L49 18L49 17ZM66 17L66 18L64 18L64 19L65 19L65 20L66 20L66 21L67 21L67 22L68 22L68 21L69 21L69 22L70 22L70 23L66 23L66 24L69 24L69 25L68 25L68 26L67 26L67 25L66 25L66 26L64 26L64 25L65 25L65 24L62 24L62 23L61 23L61 24L60 24L60 25L61 25L61 26L59 26L59 28L57 28L57 29L56 29L56 30L55 30L55 31L54 31L54 32L55 32L55 33L54 33L54 34L55 34L55 35L52 35L52 34L50 34L50 33L51 33L51 32L53 32L53 30L52 30L52 31L51 31L51 32L49 32L49 31L48 31L48 30L45 30L45 31L44 31L44 32L43 32L43 31L42 31L42 33L40 33L40 34L41 34L41 35L40 35L40 36L41 36L41 35L42 35L42 34L43 34L43 33L44 33L44 32L46 32L46 33L45 33L45 34L44 34L44 35L43 35L43 36L42 36L42 37L41 37L41 38L43 38L43 36L45 36L45 35L50 35L50 37L51 37L51 38L50 38L50 40L48 40L48 39L49 39L49 36L47 36L47 38L46 38L46 40L47 40L47 42L45 42L45 43L42 43L42 45L41 45L41 46L42 46L42 48L41 48L41 49L40 49L40 50L39 50L39 52L38 52L38 51L37 51L37 50L34 50L34 49L38 49L38 48L40 48L40 45L39 45L39 44L40 44L40 43L41 43L41 42L40 42L40 43L39 43L39 42L34 42L34 43L33 43L33 42L32 42L32 41L37 41L37 40L38 40L38 41L40 41L40 40L41 40L41 39L40 39L40 40L38 40L38 39L37 39L37 38L36 38L36 39L37 39L37 40L35 40L35 38L34 38L34 40L32 40L32 41L31 41L31 38L30 38L30 41L31 41L31 43L30 43L30 44L31 44L31 45L30 45L30 46L31 46L31 47L32 47L32 46L31 46L31 45L34 45L34 43L35 43L35 44L36 44L36 45L35 45L35 46L36 46L36 48L35 48L35 47L34 47L34 46L33 46L33 48L32 48L32 49L33 49L33 50L34 50L34 51L35 51L35 54L36 54L36 51L37 51L37 54L38 54L38 55L40 55L40 56L39 56L39 57L40 57L40 56L41 56L41 57L42 57L42 58L44 58L44 60L43 60L43 59L42 59L42 60L43 60L43 61L42 61L42 62L41 62L41 63L38 63L38 64L41 64L41 63L42 63L42 62L43 62L43 63L44 63L44 64L45 64L45 62L44 62L44 60L45 60L45 59L49 59L49 56L50 56L50 57L51 57L51 56L53 56L53 57L52 57L52 59L51 59L51 58L50 58L50 59L51 59L51 60L50 60L50 61L51 61L51 60L54 60L54 59L56 59L56 60L58 60L58 59L57 59L57 58L58 58L58 56L57 56L57 58L56 58L56 57L54 57L54 56L55 56L55 55L57 55L57 54L58 54L58 55L59 55L59 54L58 54L58 52L57 52L57 51L58 51L58 50L57 50L57 49L58 49L58 47L61 47L61 44L60 44L60 43L62 43L62 44L63 44L63 45L64 45L64 46L62 46L62 47L64 47L64 49L67 49L67 50L68 50L68 49L67 49L67 48L69 48L69 47L67 47L67 46L65 46L65 43L66 43L66 45L67 45L67 44L68 44L68 45L69 45L69 44L70 44L70 43L69 43L69 42L71 42L71 41L70 41L70 39L69 39L69 38L70 38L70 37L71 37L71 36L73 36L73 35L74 35L74 34L73 34L73 35L72 35L72 33L70 33L70 31L71 31L71 32L72 32L72 31L73 31L73 33L74 33L74 31L76 31L76 32L75 32L75 34L77 34L77 31L78 31L78 30L77 30L77 31L76 31L76 28L77 28L77 27L78 27L78 26L77 26L77 23L78 23L78 24L81 24L81 25L79 25L79 26L82 26L82 27L83 27L83 25L82 25L82 24L81 24L81 23L78 23L78 22L79 22L79 21L78 21L78 22L77 22L77 23L76 23L76 22L73 22L73 23L71 23L71 22L72 22L72 21L73 21L73 20L72 20L72 21L71 21L71 20L70 20L70 19L69 19L69 18L70 18L70 17L69 17L69 18L68 18L68 19L67 19L67 20L66 20L66 18L67 18L67 17ZM79 17L79 18L80 18L80 20L81 20L81 18L80 18L80 17ZM85 17L85 18L87 18L87 17ZM89 18L89 19L91 19L91 20L90 20L90 21L91 21L91 22L90 22L90 23L91 23L91 22L92 22L92 21L91 21L91 20L92 20L92 19L93 19L93 18L92 18L92 19L91 19L91 18ZM27 19L27 20L28 20L28 19ZM68 19L68 20L67 20L67 21L68 21L68 20L69 20L69 19ZM36 20L36 21L35 21L35 22L36 22L36 21L37 21L37 22L38 22L38 21L37 21L37 20ZM75 20L75 21L76 21L76 20ZM82 20L82 21L80 21L80 22L82 22L82 21L83 21L83 20ZM53 21L53 22L54 22L54 21ZM70 21L70 22L71 22L71 21ZM28 22L28 24L27 24L27 25L28 25L28 24L29 24L29 25L30 25L30 24L29 24L29 22ZM41 22L41 23L42 23L42 22ZM44 22L44 24L45 24L45 23L46 23L46 22ZM37 23L37 24L38 24L38 23ZM70 23L70 24L71 24L71 25L70 25L70 26L68 26L68 27L70 27L70 26L71 26L71 25L72 25L72 24L71 24L71 23ZM73 23L73 26L75 26L75 27L72 27L72 28L70 28L70 30L71 30L71 31L72 31L72 29L73 29L73 30L75 30L75 29L73 29L73 28L75 28L75 27L77 27L77 26L75 26L75 24L76 24L76 23ZM39 24L39 26L40 26L40 24ZM61 24L61 25L62 25L62 27L61 27L61 28L59 28L59 29L58 29L58 30L57 30L57 31L58 31L58 30L61 30L61 29L62 29L62 30L63 30L63 29L62 29L62 28L63 28L63 25L62 25L62 24ZM6 25L6 26L7 26L7 25ZM3 26L3 27L2 27L2 30L3 30L3 28L4 28L4 26ZM45 26L45 27L46 27L46 28L49 28L49 27L46 27L46 26ZM53 26L53 27L54 27L54 26ZM66 26L66 27L64 27L64 30L66 30L66 31L65 31L65 34L66 34L66 36L65 36L65 38L64 38L64 37L63 37L63 38L64 38L64 39L62 39L62 40L65 40L65 41L57 41L57 40L58 40L58 38L59 38L59 40L61 40L61 38L62 38L62 37L61 37L61 38L60 38L60 37L57 37L57 36L58 36L58 35L57 35L57 32L56 32L56 31L55 31L55 32L56 32L56 33L55 33L55 34L56 34L56 35L57 35L57 36L55 36L55 38L54 38L54 37L53 37L53 36L51 36L51 37L53 37L53 38L52 38L52 39L51 39L51 40L50 40L50 42L49 42L49 43L48 43L48 42L47 42L47 43L46 43L46 44L43 44L43 45L44 45L44 46L43 46L43 48L44 48L44 49L43 49L43 50L40 50L40 53L38 53L38 54L40 54L40 55L42 55L42 56L44 56L44 58L45 58L45 56L44 56L44 55L45 55L45 54L47 54L47 56L49 56L49 55L50 55L50 54L53 54L53 56L54 56L54 55L55 55L55 54L56 54L56 53L57 53L57 52L56 52L56 51L57 51L57 50L56 50L56 49L57 49L57 48L56 48L56 47L58 47L58 46L60 46L60 45L58 45L58 46L57 46L57 43L55 43L55 42L54 42L54 41L55 41L55 40L56 40L56 42L59 42L59 43L60 43L60 42L62 42L62 43L63 43L63 44L64 44L64 43L63 43L63 42L66 42L66 43L68 43L68 40L66 40L66 39L68 39L68 36L67 36L67 34L66 34L66 33L68 33L68 32L66 32L66 31L69 31L69 28L66 28L66 27L67 27L67 26ZM94 26L94 27L95 27L95 26ZM10 27L10 28L11 28L11 29L12 29L12 28L11 28L11 27ZM20 27L20 28L21 28L21 27ZM24 27L24 28L23 28L23 29L24 29L24 28L25 28L25 27ZM26 27L26 28L28 28L28 29L29 29L29 28L28 28L28 27ZM6 28L6 29L7 29L7 28ZM31 28L31 29L32 29L32 28ZM66 29L66 30L68 30L68 29ZM4 30L4 31L5 31L5 30ZM80 30L80 31L82 31L82 30ZM95 30L95 31L94 31L94 32L95 32L95 33L96 33L96 32L95 32L95 31L96 31L96 30ZM12 31L12 32L13 32L13 31ZM23 31L23 32L22 32L22 33L23 33L23 34L22 34L22 35L21 35L21 36L22 36L22 37L20 37L20 38L22 38L22 37L23 37L23 36L22 36L22 35L23 35L23 34L24 34L24 33L23 33L23 32L24 32L24 31ZM46 31L46 32L47 32L47 33L46 33L46 34L48 34L48 31ZM60 31L60 32L59 32L59 33L58 33L58 34L59 34L59 35L60 35L60 32L62 32L62 31ZM63 31L63 32L64 32L64 31ZM5 33L5 36L8 36L8 33ZM33 33L33 36L36 36L36 33ZM61 33L61 36L64 36L64 33ZM89 33L89 36L92 36L92 33ZM3 34L3 35L4 35L4 34ZM6 34L6 35L7 35L7 34ZM26 34L26 35L27 35L27 34ZM34 34L34 35L35 35L35 34ZM62 34L62 35L63 35L63 34ZM68 34L68 35L70 35L70 36L71 36L71 35L70 35L70 34ZM90 34L90 35L91 35L91 34ZM18 36L18 37L19 37L19 36ZM79 36L79 37L80 37L80 36ZM84 36L84 38L85 38L85 37L86 37L86 36ZM96 36L96 37L97 37L97 36ZM0 37L0 39L1 39L1 37ZM56 37L56 39L57 39L57 37ZM66 37L66 38L65 38L65 39L66 39L66 38L67 38L67 37ZM87 37L87 38L88 38L88 39L89 39L89 38L88 38L88 37ZM3 38L3 39L4 39L4 38ZM16 38L16 39L15 39L15 40L16 40L16 39L17 39L17 38ZM32 38L32 39L33 39L33 38ZM43 39L43 40L45 40L45 39ZM52 39L52 40L51 40L51 42L50 42L50 43L49 43L49 44L48 44L48 43L47 43L47 45L49 45L49 46L50 46L50 47L49 47L49 48L48 48L48 46L44 46L44 48L45 48L45 49L46 49L46 47L47 47L47 50L48 50L48 51L51 51L51 52L46 52L46 50L43 50L43 52L42 52L42 51L41 51L41 52L42 52L42 53L41 53L41 54L44 54L44 52L46 52L46 53L49 53L49 54L48 54L48 55L49 55L49 54L50 54L50 53L51 53L51 52L53 52L53 51L52 51L52 49L51 49L51 50L50 50L50 49L49 49L49 48L50 48L50 47L51 47L51 48L52 48L52 47L53 47L53 46L56 46L56 45L54 45L54 43L53 43L53 41L52 41L52 40L54 40L54 39ZM71 39L71 40L72 40L72 39ZM95 40L95 41L96 41L96 40ZM6 41L6 42L7 42L7 41ZM42 41L42 42L43 42L43 41ZM66 41L66 42L67 42L67 41ZM86 41L86 42L85 42L85 43L87 43L87 41ZM90 41L90 42L91 42L91 41ZM2 42L2 45L3 45L3 44L4 44L4 43L5 43L5 44L7 44L7 43L5 43L5 42L4 42L4 43L3 43L3 42ZM24 43L24 44L25 44L25 43ZM32 43L32 44L33 44L33 43ZM36 43L36 44L39 44L39 43ZM50 43L50 46L51 46L51 47L52 47L52 46L53 46L53 44L51 44L51 43ZM94 43L94 44L95 44L95 45L96 45L96 44L95 44L95 43ZM91 44L91 46L92 46L92 44ZM36 45L36 46L37 46L37 48L38 48L38 46L39 46L39 45ZM15 46L15 47L16 47L16 48L15 48L15 49L16 49L16 50L17 50L17 49L18 49L18 50L19 50L19 51L20 51L20 52L21 52L21 50L22 50L22 49L20 49L20 48L17 48L17 46ZM64 46L64 47L65 47L65 48L67 48L67 47L65 47L65 46ZM86 46L86 47L87 47L87 46ZM95 46L95 47L94 47L94 48L95 48L95 47L96 47L96 46ZM9 47L9 48L10 48L10 47ZM54 47L54 48L53 48L53 50L55 50L55 49L56 49L56 48L55 48L55 47ZM5 48L5 49L8 49L8 48ZM59 48L59 49L60 49L60 50L59 50L59 51L60 51L60 50L61 50L61 51L62 51L62 50L61 50L61 49L63 49L63 48ZM70 48L70 49L69 49L69 50L70 50L70 49L71 49L71 50L73 50L73 49L71 49L71 48ZM75 48L75 49L76 49L76 48ZM19 49L19 50L20 50L20 49ZM48 49L48 50L49 50L49 49ZM90 49L90 50L91 50L91 49ZM65 50L65 53L66 53L66 50ZM94 51L94 52L96 52L96 51ZM33 52L33 55L34 55L34 52ZM54 52L54 54L55 54L55 52ZM92 52L92 54L91 54L91 55L93 55L93 52ZM1 54L1 55L2 55L2 54ZM13 54L13 55L14 55L14 54ZM24 54L24 55L26 55L26 54ZM28 54L28 55L29 55L29 54ZM30 54L30 57L31 57L31 55L32 55L32 54ZM74 54L74 55L73 55L73 58L75 58L75 57L74 57L74 55L75 55L75 56L76 56L76 55L75 55L75 54ZM95 54L95 56L96 56L96 57L97 57L97 54ZM8 55L8 56L9 56L9 55ZM82 55L82 56L81 56L81 57L82 57L82 56L83 56L83 57L84 57L84 56L83 56L83 55ZM17 56L17 57L18 57L18 56ZM59 56L59 57L60 57L60 56ZM7 57L7 58L6 58L6 59L7 59L7 58L8 58L8 57ZM46 57L46 58L47 58L47 57ZM69 57L69 58L70 58L70 59L71 59L71 60L72 60L72 59L71 59L71 58L70 58L70 57ZM30 58L30 59L31 59L31 58ZM53 58L53 59L54 59L54 58ZM65 58L65 59L66 59L66 58ZM83 58L83 59L84 59L84 58ZM95 58L95 59L96 59L96 62L95 62L95 64L96 64L96 65L95 65L95 66L96 66L96 67L97 67L97 66L96 66L96 65L97 65L97 64L96 64L96 63L97 63L97 58ZM62 59L62 60L63 60L63 59ZM88 59L88 60L89 60L89 59ZM47 60L47 62L49 62L49 60ZM5 61L5 64L8 64L8 61ZM33 61L33 64L36 64L36 61ZM61 61L61 64L64 64L64 61ZM80 61L80 62L79 62L79 63L82 63L82 62L83 62L83 63L84 63L84 62L83 62L83 61L82 61L82 62L81 62L81 61ZM89 61L89 64L92 64L92 61ZM3 62L3 63L4 63L4 62ZM6 62L6 63L7 63L7 62ZM34 62L34 63L35 63L35 62ZM50 62L50 63L51 63L51 64L53 64L53 63L52 63L52 62ZM58 62L58 63L59 63L59 62ZM62 62L62 63L63 63L63 62ZM68 62L68 63L69 63L69 64L70 64L70 62ZM90 62L90 63L91 63L91 62ZM20 63L20 64L21 64L21 63ZM76 63L76 64L75 64L75 66L74 66L74 67L76 67L76 68L75 68L75 70L73 70L73 69L74 69L74 68L73 68L73 69L71 69L71 70L72 70L72 71L71 71L71 72L70 72L70 73L69 73L69 74L70 74L70 73L71 73L71 74L72 74L72 75L74 75L74 74L73 74L73 73L71 73L71 72L72 72L72 71L76 71L76 72L75 72L75 74L76 74L76 73L77 73L77 71L76 71L76 68L77 68L77 66L76 66L76 65L77 65L77 63ZM72 64L72 65L73 65L73 64ZM32 65L32 66L31 66L31 67L32 67L32 68L33 68L33 67L35 67L35 68L36 68L36 67L37 67L37 66L36 66L36 65L35 65L35 66L34 66L34 65ZM49 65L49 66L48 66L48 67L49 67L49 66L50 66L50 65ZM81 65L81 66L82 66L82 65ZM90 65L90 66L91 66L91 65ZM10 66L10 67L11 67L11 66ZM14 66L14 67L15 67L15 66ZM35 66L35 67L36 67L36 66ZM41 66L41 68L43 68L43 70L41 70L41 72L40 72L40 74L42 74L42 75L41 75L41 76L40 76L40 77L38 77L38 76L37 76L37 82L36 82L36 80L35 80L35 81L34 81L34 80L33 80L33 79L32 79L32 80L31 80L31 81L32 81L32 83L35 83L35 84L36 84L36 83L37 83L37 82L39 82L39 81L38 81L38 78L40 78L40 77L41 77L41 76L42 76L42 75L45 75L45 76L44 76L44 77L43 77L43 78L44 78L44 79L45 79L45 78L47 78L47 77L45 77L45 76L46 76L46 75L45 75L45 74L48 74L48 73L46 73L46 71L45 71L45 72L43 72L43 74L42 74L42 71L44 71L44 69L45 69L45 68L44 68L44 67L45 67L45 66ZM71 66L71 68L72 68L72 67L73 67L73 66ZM79 66L79 67L78 67L78 69L79 69L79 68L80 68L80 69L81 69L81 70L82 70L82 69L83 69L83 68L81 68L81 67L80 67L80 66ZM52 67L52 68L53 68L53 67ZM57 67L57 68L58 68L58 69L59 69L59 68L58 68L58 67ZM63 67L63 68L64 68L64 67ZM20 68L20 69L21 69L21 70L24 70L24 69L22 69L22 68ZM49 69L49 70L50 70L50 69ZM62 69L62 70L64 70L64 69ZM92 69L92 70L93 70L93 69ZM4 70L4 71L5 71L5 72L6 72L6 73L7 73L7 72L8 72L8 73L9 73L9 72L8 72L8 71L7 71L7 70L6 70L6 71L5 71L5 70ZM57 70L57 71L56 71L56 72L58 72L58 71L59 71L59 70ZM6 71L6 72L7 72L7 71ZM20 72L20 74L21 74L21 72ZM31 72L31 73L30 73L30 76L31 76L31 75L33 75L33 74L34 74L34 77L35 77L35 76L36 76L36 75L37 75L37 74L39 74L39 73L36 73L36 72L34 72L34 73L33 73L33 74L32 74L32 72ZM78 72L78 74L79 74L79 72ZM89 72L89 73L91 73L91 72ZM35 73L35 75L36 75L36 73ZM44 73L44 74L45 74L45 73ZM61 73L61 74L62 74L62 73ZM82 73L82 74L83 74L83 73ZM86 73L86 74L87 74L87 73ZM8 74L8 75L10 75L10 74ZM49 74L49 75L47 75L47 76L49 76L49 75L50 75L50 74ZM95 74L95 76L96 76L96 77L97 77L97 76L96 76L96 75L97 75L97 74ZM2 75L2 76L3 76L3 75ZM60 76L60 77L61 77L61 78L60 78L60 79L62 79L62 80L63 80L63 81L64 81L64 82L66 82L66 80L67 80L67 79L65 79L65 78L67 78L67 77L69 77L69 76L67 76L67 77L66 77L66 76L65 76L65 78L64 78L64 76ZM72 76L72 78L73 78L73 76ZM23 77L23 78L24 78L24 77ZM62 77L62 78L63 78L63 77ZM10 78L10 79L11 79L11 78ZM54 78L54 80L52 80L52 82L51 82L51 83L53 83L53 81L55 81L55 79L56 79L56 78ZM57 78L57 80L56 80L56 83L57 83L57 82L59 82L59 80L58 80L58 78ZM95 78L95 79L96 79L96 81L95 81L95 84L97 84L97 82L96 82L96 81L97 81L97 78ZM18 79L18 80L19 80L19 79ZM63 79L63 80L64 80L64 79ZM71 79L71 80L72 80L72 79ZM77 79L77 82L78 82L78 80L79 80L79 79ZM89 79L89 80L88 80L88 81L87 81L87 82L88 82L88 81L89 81L89 82L91 82L91 81L92 81L92 82L93 82L93 81L92 81L92 80L91 80L91 81L89 81L89 80L90 80L90 79ZM28 80L28 81L29 81L29 80ZM6 81L6 82L4 82L4 83L5 83L5 85L6 85L6 86L7 86L7 85L6 85L6 84L7 84L7 83L6 83L6 82L7 82L7 81ZM61 81L61 82L60 82L60 83L62 83L62 81ZM35 82L35 83L36 83L36 82ZM25 83L25 84L24 84L24 85L25 85L25 84L26 84L26 83ZM47 83L47 84L48 84L48 83ZM80 83L80 84L81 84L81 83ZM20 84L20 85L21 85L21 84ZM62 84L62 85L63 85L63 84ZM75 84L75 86L76 86L76 84ZM52 85L52 86L53 86L53 85ZM54 85L54 86L55 86L55 85ZM81 85L81 86L82 86L82 87L83 87L83 86L82 86L82 85ZM15 86L15 87L14 87L14 91L15 91L15 92L16 92L16 93L15 93L15 94L16 94L16 95L17 95L17 94L18 94L18 93L17 93L17 92L18 92L18 91L15 91L15 90L16 90L16 86ZM20 86L20 87L22 87L22 86ZM77 86L77 87L76 87L76 88L77 88L77 87L78 87L78 89L79 89L79 90L80 90L80 89L79 89L79 88L81 88L81 87L79 87L79 86ZM10 88L10 89L12 89L12 90L13 90L13 89L12 89L12 88ZM23 88L23 89L22 89L22 91L23 91L23 89L24 89L24 88ZM29 88L29 89L30 89L30 90L31 90L31 91L32 91L32 90L31 90L31 89L32 89L32 88ZM47 88L47 89L49 89L49 90L50 90L50 89L49 89L49 88ZM82 88L82 89L81 89L81 90L82 90L82 89L83 89L83 88ZM33 89L33 92L36 92L36 89ZM61 89L61 92L64 92L64 89ZM89 89L89 92L92 92L92 89ZM94 89L94 90L93 90L93 91L94 91L94 92L95 92L95 91L94 91L94 90L95 90L95 89ZM19 90L19 91L20 91L20 90ZM34 90L34 91L35 91L35 90ZM62 90L62 91L63 91L63 90ZM90 90L90 91L91 91L91 90ZM55 91L55 92L56 92L56 94L55 94L55 96L56 96L56 94L57 94L57 93L58 93L58 94L59 94L59 93L60 93L60 94L61 94L61 93L60 93L60 92L56 92L56 91ZM67 91L67 92L68 92L68 94L70 94L70 93L69 93L69 92L70 92L70 91ZM71 91L71 92L72 92L72 91ZM27 92L27 93L28 93L28 92ZM31 92L31 93L32 93L32 92ZM37 92L37 93L36 93L36 94L37 94L37 93L38 93L38 92ZM9 93L9 96L11 96L11 95L10 95L10 93ZM16 93L16 94L17 94L17 93ZM46 93L46 94L47 94L47 93ZM91 93L91 94L92 94L92 93ZM96 93L96 96L93 96L93 97L97 97L97 93ZM12 94L12 95L13 95L13 94ZM53 94L53 95L54 95L54 94ZM80 94L80 95L82 95L82 94ZM30 95L30 96L31 96L31 95ZM58 96L58 97L59 97L59 96ZM86 96L86 97L87 97L87 96ZM0 0L0 7L7 7L7 0ZM1 1L1 6L6 6L6 1ZM2 2L2 5L5 5L5 2ZM90 0L90 7L97 7L97 0ZM91 1L91 6L96 6L96 1ZM92 2L92 5L95 5L95 2ZM0 90L0 97L7 97L7 90ZM1 91L1 96L6 96L6 91ZM2 92L2 95L5 95L5 92Z" fill="#000000"/></g></g></svg>
