<?xml version="1.0" encoding="UTF-8"?>
<svg xmlns="http://www.w3.org/2000/svg" version="1.1" width="300" height="300" viewBox="0 0 300 300"><rect x="0" y="0" width="300" height="300" fill="#ffffff"/><g transform="scale(7.317)"><g transform="translate(0,0)"><path fill-rule="evenodd" d="M8 0L8 1L9 1L9 0ZM12 0L12 1L10 1L10 2L8 2L8 5L9 5L9 6L8 6L8 7L9 7L9 8L8 8L8 9L9 9L9 11L10 11L10 12L6 12L6 11L7 11L7 10L6 10L6 9L7 9L7 8L6 8L6 9L5 9L5 10L4 10L4 8L0 8L0 9L2 9L2 10L4 10L4 11L0 11L0 12L1 12L1 13L0 13L0 14L1 14L1 13L2 13L2 14L3 14L3 15L1 15L1 18L0 18L0 21L1 21L1 20L2 20L2 19L3 19L3 21L2 21L2 22L4 22L4 21L7 21L7 20L9 20L9 22L8 22L8 23L7 23L7 22L6 22L6 23L4 23L4 24L3 24L3 23L2 23L2 25L0 25L0 29L4 29L4 30L3 30L3 31L2 31L2 32L1 32L1 33L2 33L2 32L3 32L3 33L5 33L5 32L6 32L6 33L7 33L7 32L12 32L12 33L11 33L11 35L10 35L10 36L9 36L9 37L8 37L8 41L10 41L10 40L9 40L9 39L10 39L10 37L11 37L11 40L12 40L12 41L16 41L16 40L17 40L17 41L19 41L19 40L20 40L20 41L24 41L24 40L22 40L22 38L23 38L23 37L24 37L24 39L26 39L26 40L25 40L25 41L26 41L26 40L27 40L27 41L29 41L29 39L30 39L30 41L31 41L31 40L32 40L32 41L33 41L33 39L34 39L34 41L35 41L35 40L36 40L36 41L38 41L38 40L36 40L36 39L34 39L34 38L33 38L33 37L36 37L36 38L37 38L37 39L38 39L38 38L39 38L39 41L40 41L40 39L41 39L41 37L39 37L39 36L38 36L38 34L39 34L39 31L38 31L38 30L39 30L39 29L40 29L40 28L41 28L41 26L37 26L37 27L36 27L36 24L35 24L35 23L34 23L34 24L32 24L32 23L31 23L31 24L29 24L29 25L28 25L28 24L26 24L26 23L25 23L25 19L24 19L24 20L23 20L23 18L26 18L26 19L29 19L29 20L26 20L26 21L28 21L28 22L29 22L29 23L30 23L30 22L29 22L29 21L30 21L30 19L29 19L29 18L28 18L28 17L29 17L29 15L27 15L27 14L31 14L31 15L30 15L30 16L32 16L32 14L33 14L33 16L35 16L35 15L36 15L36 17L37 17L37 18L38 18L38 17L40 17L40 18L41 18L41 17L40 17L40 15L41 15L41 13L39 13L39 12L41 12L41 11L40 11L40 9L41 9L41 8L40 8L40 9L39 9L39 8L36 8L36 11L35 11L35 9L34 9L34 8L32 8L32 7L33 7L33 6L32 6L32 5L33 5L33 3L32 3L32 2L33 2L33 1L32 1L32 0L31 0L31 1L30 1L30 3L28 3L28 2L29 2L29 0L28 0L28 2L26 2L26 0L25 0L25 4L26 4L26 5L25 5L25 6L24 6L24 7L23 7L23 4L22 4L22 8L21 8L21 9L19 9L19 8L20 8L20 7L21 7L21 6L20 6L20 7L19 7L19 6L18 6L18 5L19 5L19 4L20 4L20 3L21 3L21 2L22 2L22 3L24 3L24 0L23 0L23 2L22 2L22 0L18 0L18 1L17 1L17 2L18 2L18 4L16 4L16 3L15 3L15 0L14 0L14 2L13 2L13 0ZM18 1L18 2L21 2L21 1ZM31 1L31 2L32 2L32 1ZM10 2L10 3L9 3L9 5L10 5L10 3L11 3L11 5L14 5L14 6L13 6L13 7L12 7L12 6L11 6L11 7L12 7L12 8L9 8L9 9L10 9L10 10L11 10L11 12L12 12L12 14L10 14L10 13L3 13L3 12L2 12L2 13L3 13L3 14L4 14L4 15L3 15L3 16L2 16L2 17L5 17L5 16L4 16L4 15L5 15L5 14L7 14L7 15L6 15L6 16L7 16L7 15L8 15L8 16L9 16L9 15L11 15L11 16L10 16L10 17L6 17L6 18L5 18L5 19L6 19L6 20L7 20L7 19L6 19L6 18L10 18L10 17L11 17L11 16L12 16L12 14L13 14L13 16L14 16L14 12L16 12L16 10L17 10L17 11L18 11L18 12L17 12L17 13L15 13L15 15L16 15L16 16L15 16L15 17L16 17L16 16L17 16L17 19L18 19L18 16L19 16L19 19L20 19L20 20L17 20L17 22L16 22L16 24L14 24L14 26L13 26L13 24L12 24L12 25L10 25L10 26L7 26L7 25L6 25L6 24L7 24L7 23L6 23L6 24L5 24L5 25L3 25L3 27L2 27L2 26L1 26L1 27L2 27L2 28L3 28L3 27L4 27L4 26L5 26L5 28L7 28L7 29L5 29L5 30L4 30L4 32L5 32L5 31L6 31L6 32L7 32L7 31L6 31L6 30L7 30L7 29L8 29L8 31L9 31L9 30L10 30L10 29L9 29L9 28L11 28L11 27L12 27L12 26L13 26L13 27L14 27L14 28L13 28L13 29L11 29L11 31L12 31L12 32L13 32L13 34L12 34L12 35L14 35L14 33L17 33L17 34L15 34L15 36L13 36L13 38L12 38L12 40L16 40L16 39L15 39L15 38L16 38L16 37L18 37L18 35L19 35L19 37L20 37L20 35L21 35L21 37L23 37L23 36L24 36L24 37L25 37L25 36L24 36L24 35L25 35L25 34L27 34L27 35L26 35L26 36L30 36L30 39L31 39L31 38L32 38L32 39L33 39L33 38L32 38L32 36L31 36L31 35L30 35L30 34L32 34L32 33L29 33L29 35L28 35L28 32L29 32L29 29L30 29L30 31L31 31L31 32L34 32L34 30L35 30L35 28L36 28L36 30L37 30L37 29L39 29L39 27L37 27L37 28L36 28L36 27L34 27L34 28L32 28L32 29L31 29L31 28L30 28L30 27L31 27L31 25L30 25L30 26L29 26L29 27L28 27L28 26L27 26L27 28L26 28L26 27L25 27L25 28L26 28L26 30L25 30L25 29L24 29L24 30L23 30L23 27L24 27L24 26L25 26L25 24L24 24L24 23L23 23L23 22L22 22L22 21L21 21L21 20L22 20L22 19L21 19L21 18L20 18L20 17L21 17L21 15L18 15L18 14L20 14L20 12L19 12L19 11L21 11L21 14L23 14L23 15L25 15L25 16L26 16L26 17L28 17L28 16L26 16L26 15L25 15L25 14L27 14L27 13L28 13L28 11L29 11L29 12L33 12L33 11L34 11L34 10L33 10L33 9L32 9L32 10L31 10L31 7L32 7L32 6L31 6L31 5L29 5L29 7L28 7L28 3L27 3L27 7L28 7L28 8L27 8L27 9L26 9L26 6L25 6L25 7L24 7L24 8L22 8L22 10L19 10L19 11L18 11L18 10L17 10L17 8L16 8L16 9L15 9L15 7L16 7L16 6L15 6L15 5L16 5L16 4L15 4L15 3L13 3L13 2L12 2L12 3L11 3L11 2ZM9 6L9 7L10 7L10 6ZM14 6L14 7L15 7L15 6ZM17 6L17 7L18 7L18 8L19 8L19 7L18 7L18 6ZM30 6L30 7L29 7L29 9L27 9L27 10L29 10L29 11L30 11L30 7L31 7L31 6ZM24 8L24 9L23 9L23 10L22 10L22 12L23 12L23 11L24 11L24 12L25 12L25 13L27 13L27 12L26 12L26 9L25 9L25 8ZM11 9L11 10L12 10L12 9ZM13 9L13 11L12 11L12 12L13 12L13 11L14 11L14 10L15 10L15 9ZM24 9L24 11L25 11L25 9ZM38 9L38 10L37 10L37 11L36 11L36 14L38 14L38 13L37 13L37 12L39 12L39 11L38 11L38 10L39 10L39 9ZM32 10L32 11L33 11L33 10ZM34 12L34 13L35 13L35 12ZM17 13L17 14L18 14L18 13ZM8 14L8 15L9 15L9 14ZM34 14L34 15L35 15L35 14ZM38 15L38 16L37 16L37 17L38 17L38 16L39 16L39 15ZM12 17L12 18L11 18L11 20L10 20L10 21L11 21L11 22L9 22L9 23L8 23L8 25L9 25L9 23L10 23L10 24L11 24L11 23L15 23L15 22L14 22L14 21L15 21L15 20L16 20L16 19L15 19L15 18L13 18L13 17ZM30 17L30 18L31 18L31 17ZM33 17L33 18L32 18L32 20L31 20L31 22L32 22L32 21L33 21L33 20L34 20L34 22L37 22L37 25L41 25L41 23L40 23L40 22L41 22L41 19L38 19L38 21L39 21L39 20L40 20L40 22L39 22L39 23L40 23L40 24L38 24L38 22L37 22L37 21L35 21L35 20L36 20L36 19L35 19L35 20L34 20L34 17ZM1 18L1 19L2 19L2 18ZM12 18L12 19L13 19L13 18ZM13 20L13 21L14 21L14 20ZM20 21L20 22L19 22L19 23L20 23L20 24L17 24L17 25L18 25L18 26L16 26L16 25L15 25L15 26L14 26L14 27L15 27L15 26L16 26L16 27L17 27L17 28L16 28L16 30L15 30L15 31L14 31L14 32L15 32L15 31L17 31L17 32L18 32L18 34L17 34L17 35L18 35L18 34L19 34L19 33L20 33L20 34L22 34L22 32L23 32L23 31L22 31L22 27L23 27L23 26L22 26L22 27L21 27L21 26L20 26L20 24L21 24L21 23L22 23L22 22L21 22L21 21ZM22 24L22 25L24 25L24 24ZM34 24L34 25L33 25L33 26L32 26L32 27L33 27L33 26L34 26L34 25L35 25L35 24ZM6 26L6 27L7 27L7 26ZM10 26L10 27L11 27L11 26ZM13 29L13 30L14 30L14 29ZM18 29L18 30L17 30L17 31L19 31L19 32L20 32L20 30L21 30L21 29L20 29L20 30L19 30L19 29ZM27 29L27 32L26 32L26 33L27 33L27 32L28 32L28 29ZM0 30L0 31L1 31L1 30ZM24 30L24 31L25 31L25 30ZM21 31L21 32L22 32L22 31ZM35 31L35 32L37 32L37 33L38 33L38 31ZM24 32L24 33L23 33L23 35L22 35L22 36L23 36L23 35L24 35L24 33L25 33L25 32ZM40 32L40 34L41 34L41 32ZM8 33L8 34L9 34L9 33ZM33 33L33 36L36 36L36 33ZM34 34L34 35L35 35L35 34ZM11 36L11 37L12 37L12 36ZM15 36L15 37L16 37L16 36ZM37 36L37 37L38 37L38 36ZM13 38L13 39L14 39L14 38ZM26 38L26 39L27 39L27 40L28 40L28 39L29 39L29 38ZM17 39L17 40L19 40L19 39ZM20 39L20 40L21 40L21 39ZM0 0L0 7L7 7L7 0ZM1 1L1 6L6 6L6 1ZM2 2L2 5L5 5L5 2ZM34 0L34 7L41 7L41 0ZM35 1L35 6L40 6L40 1ZM36 2L36 5L39 5L39 2ZM0 34L0 41L7 41L7 34ZM1 35L1 40L6 40L6 35ZM2 36L2 39L5 39L5 36Z" fill="#000000"/></g></g></svg>
