<?xml version="1.0" encoding="UTF-8"?>
<svg xmlns="http://www.w3.org/2000/svg" version="1.1" width="300" height="300" viewBox="0 0 300 300"><rect x="0" y="0" width="300" height="300" fill="#ffffff"/><g transform="scale(12)"><g transform="translate(0,0)"><path fill-rule="evenodd" d="M8 0L8 4L10 4L10 3L11 3L11 4L12 4L12 2L11 2L11 0ZM12 0L12 1L13 1L13 0ZM14 0L14 1L15 1L15 3L17 3L17 0L16 0L16 1L15 1L15 0ZM9 2L9 3L10 3L10 2ZM13 3L13 5L11 5L11 6L10 6L10 7L9 7L9 5L8 5L8 7L9 7L9 8L10 8L10 7L11 7L11 6L12 6L12 8L11 8L11 9L8 9L8 10L5 10L5 9L7 9L7 8L4 8L4 10L3 10L3 9L2 9L2 8L0 8L0 12L1 12L1 10L3 10L3 11L4 11L4 13L3 13L3 12L2 12L2 15L3 15L3 16L0 16L0 17L4 17L4 15L5 15L5 17L7 17L7 16L6 16L6 15L8 15L8 18L10 18L10 21L9 21L9 19L8 19L8 21L9 21L9 23L8 23L8 25L9 25L9 24L11 24L11 23L12 23L12 20L11 20L11 19L12 19L12 18L14 18L14 19L13 19L13 23L14 23L14 24L13 24L13 25L14 25L14 24L15 24L15 23L16 23L16 24L17 24L17 23L18 23L18 25L19 25L19 24L20 24L20 25L22 25L22 23L23 23L23 24L24 24L24 25L25 25L25 23L24 23L24 22L25 22L25 19L24 19L24 18L21 18L21 16L23 16L23 17L24 17L24 16L23 16L23 15L22 15L22 14L24 14L24 15L25 15L25 13L23 13L23 10L24 10L24 11L25 11L25 8L21 8L21 9L20 9L20 8L19 8L19 10L20 10L20 11L21 11L21 12L19 12L19 13L18 13L18 15L20 15L20 14L19 14L19 13L21 13L21 16L17 16L17 14L16 14L16 13L17 13L17 12L18 12L18 11L17 11L17 10L18 10L18 9L16 9L16 10L15 10L15 9L12 9L12 8L17 8L17 6L16 6L16 7L15 7L15 6L14 6L14 7L13 7L13 5L14 5L14 3ZM15 4L15 5L17 5L17 4ZM11 9L11 10L8 10L8 11L9 11L9 13L10 13L10 14L8 14L8 15L10 15L10 16L12 16L12 15L13 15L13 16L14 16L14 17L16 17L16 15L15 15L15 11L14 11L14 10L13 10L13 11L12 11L12 12L11 12L11 13L10 13L10 11L11 11L11 10L12 10L12 9ZM21 9L21 10L23 10L23 9ZM4 10L4 11L5 11L5 13L4 13L4 14L3 14L3 15L4 15L4 14L5 14L5 13L6 13L6 14L7 14L7 13L8 13L8 12L7 12L7 11L5 11L5 10ZM13 11L13 12L12 12L12 13L13 13L13 12L14 12L14 11ZM6 12L6 13L7 13L7 12ZM21 12L21 13L22 13L22 12ZM0 13L0 14L1 14L1 13ZM10 14L10 15L11 15L11 14ZM11 17L11 18L12 18L12 17ZM17 17L17 20L20 20L20 17ZM18 18L18 19L19 19L19 18ZM14 19L14 20L15 20L15 19ZM23 20L23 21L21 21L21 22L20 22L20 21L19 21L19 22L18 22L18 21L17 21L17 22L18 22L18 23L20 23L20 24L21 24L21 23L22 23L22 22L23 22L23 21L24 21L24 20ZM10 21L10 23L11 23L11 21ZM14 22L14 23L15 23L15 22ZM0 0L0 7L7 7L7 0ZM1 1L1 6L6 6L6 1ZM2 2L2 5L5 5L5 2ZM18 0L18 7L25 7L25 0ZM19 1L19 6L24 6L24 1ZM20 2L20 5L23 5L23 2ZM0 18L0 25L7 25L7 18ZM1 19L1 24L6 24L6 19ZM2 20L2 23L5 23L5 20Z" fill="#000000"/></g></g></svg>
