<?xml version="1.0" encoding="UTF-8"?>
<svg xmlns="http://www.w3.org/2000/svg" version="1.1" width="300" height="300" viewBox="0 0 300 300"><rect x="0" y="0" width="300" height="300" fill="#ffffff"/><g transform="scale(2.97)"><g transform="translate(0,0)"><path fill-rule="evenodd" d="M8 0L8 4L14 4L14 5L8 5L8 7L9 7L9 8L12 8L12 9L13 9L13 10L14 10L14 8L15 8L15 11L12 11L12 10L11 10L11 9L9 9L9 11L7 11L7 10L8 10L8 9L7 9L7 8L4 8L4 10L6 10L6 11L7 11L7 12L5 12L5 14L4 14L4 13L3 13L3 12L4 12L4 11L3 11L3 12L2 12L2 11L1 11L1 12L0 12L0 16L2 16L2 17L3 17L3 16L4 16L4 17L5 17L5 18L6 18L6 19L7 19L7 20L6 20L6 21L5 21L5 23L4 23L4 20L5 20L5 19L3 19L3 20L0 20L0 24L2 24L2 25L3 25L3 24L6 24L6 25L7 25L7 26L5 26L5 25L4 25L4 26L1 26L1 27L4 27L4 30L2 30L2 29L3 29L3 28L0 28L0 29L1 29L1 30L2 30L2 31L0 31L0 39L2 39L2 40L3 40L3 41L4 41L4 40L5 40L5 41L7 41L7 42L5 42L5 45L3 45L3 46L5 46L5 47L3 47L3 48L1 48L1 47L0 47L0 48L1 48L1 49L2 49L2 50L0 50L0 51L1 51L1 52L0 52L0 53L1 53L1 52L2 52L2 54L6 54L6 55L7 55L7 54L8 54L8 55L11 55L11 57L10 57L10 58L8 58L8 59L7 59L7 58L6 58L6 59L5 59L5 58L4 58L4 59L3 59L3 57L5 57L5 56L4 56L4 55L1 55L1 54L0 54L0 60L1 60L1 61L0 61L0 64L1 64L1 67L0 67L0 68L3 68L3 70L2 70L2 69L0 69L0 71L1 71L1 70L2 70L2 72L3 72L3 73L2 73L2 74L1 74L1 72L0 72L0 74L1 74L1 75L0 75L0 76L1 76L1 77L2 77L2 78L4 78L4 79L3 79L3 80L2 80L2 82L3 82L3 80L5 80L5 81L4 81L4 82L6 82L6 83L7 83L7 82L8 82L8 84L6 84L6 85L4 85L4 86L3 86L3 87L4 87L4 88L0 88L0 92L1 92L1 90L3 90L3 91L2 91L2 92L4 92L4 93L5 93L5 92L6 92L6 93L7 93L7 92L9 92L9 91L10 91L10 92L11 92L11 91L10 91L10 90L9 90L9 91L8 91L8 89L7 89L7 88L9 88L9 87L10 87L10 89L11 89L11 90L12 90L12 89L11 89L11 88L12 88L12 87L13 87L13 90L14 90L14 92L12 92L12 93L8 93L8 94L10 94L10 98L9 98L9 99L8 99L8 101L13 101L13 98L14 98L14 97L13 97L13 96L14 96L14 92L15 92L15 95L16 95L16 96L17 96L17 98L16 98L16 97L15 97L15 98L16 98L16 99L15 99L15 100L14 100L14 101L17 101L17 100L18 100L18 101L20 101L20 100L23 100L23 101L27 101L27 99L28 99L28 100L30 100L30 101L31 101L31 100L32 100L32 101L37 101L37 100L36 100L36 99L38 99L38 101L39 101L39 99L38 99L38 98L41 98L41 99L40 99L40 100L41 100L41 101L44 101L44 100L45 100L45 101L47 101L47 100L45 100L45 99L51 99L51 100L54 100L54 101L57 101L57 100L56 100L56 98L57 98L57 99L58 99L58 100L60 100L60 101L63 101L63 99L64 99L64 100L65 100L65 101L66 101L66 100L68 100L68 99L69 99L69 100L70 100L70 99L72 99L72 97L75 97L75 96L77 96L77 95L78 95L78 97L76 97L76 98L78 98L78 97L79 97L79 95L78 95L78 94L79 94L79 93L81 93L81 92L82 92L82 94L80 94L80 95L81 95L81 96L80 96L80 99L74 99L74 98L73 98L73 100L72 100L72 101L75 101L75 100L77 100L77 101L80 101L80 99L81 99L81 101L86 101L86 100L87 100L87 101L88 101L88 100L89 100L89 99L86 99L86 98L88 98L88 96L90 96L90 97L89 97L89 98L91 98L91 99L90 99L90 100L92 100L92 101L95 101L95 100L96 100L96 101L98 101L98 100L96 100L96 97L98 97L98 95L99 95L99 97L100 97L100 96L101 96L101 90L99 90L99 89L98 89L98 87L99 87L99 85L98 85L98 83L97 83L97 81L96 81L96 84L97 84L97 85L94 85L94 86L93 86L93 84L92 84L92 83L95 83L95 81L94 81L94 82L93 82L93 81L92 81L92 78L93 78L93 80L95 80L95 78L96 78L96 80L98 80L98 82L99 82L99 80L101 80L101 76L100 76L100 75L101 75L101 73L100 73L100 71L101 71L101 70L100 70L100 71L99 71L99 70L98 70L98 65L99 65L99 66L100 66L100 67L101 67L101 66L100 66L100 65L101 65L101 64L98 64L98 63L97 63L97 62L99 62L99 61L98 61L98 58L99 58L99 60L100 60L100 63L101 63L101 60L100 60L100 59L101 59L101 53L100 53L100 57L99 57L99 56L98 56L98 55L96 55L96 57L95 57L95 56L93 56L93 57L92 57L92 56L91 56L91 55L92 55L92 54L93 54L93 55L94 55L94 53L95 53L95 54L99 54L99 53L97 53L97 52L98 52L98 50L97 50L97 49L98 49L98 48L96 48L96 47L97 47L97 45L99 45L99 44L98 44L98 42L99 42L99 41L97 41L97 40L95 40L95 41L91 41L91 39L92 39L92 37L94 37L94 38L93 38L93 40L94 40L94 38L95 38L95 39L96 39L96 37L94 37L94 36L91 36L91 35L86 35L86 34L87 34L87 31L88 31L88 32L90 32L90 34L91 34L91 31L90 31L90 30L88 30L88 28L89 28L89 29L90 29L90 28L91 28L91 27L92 27L92 31L94 31L94 32L95 32L95 31L97 31L97 29L98 29L98 30L100 30L100 31L101 31L101 25L100 25L100 24L99 24L99 25L100 25L100 26L98 26L98 27L97 27L97 26L96 26L96 24L95 24L95 23L94 23L94 22L92 22L92 21L93 21L93 19L92 19L92 21L91 21L91 19L90 19L90 18L92 18L92 17L93 17L93 16L92 16L92 17L91 17L91 15L92 15L92 14L91 14L91 13L93 13L93 15L94 15L94 17L95 17L95 15L96 15L96 14L97 14L97 15L98 15L98 14L99 14L99 13L100 13L100 16L99 16L99 17L98 17L98 16L97 16L97 18L98 18L98 19L99 19L99 21L100 21L100 23L101 23L101 20L100 20L100 19L101 19L101 8L97 8L97 9L96 9L96 8L95 8L95 9L93 9L93 8L92 8L92 7L93 7L93 6L92 6L92 5L93 5L93 4L92 4L92 2L91 2L91 3L90 3L90 5L91 5L91 6L90 6L90 7L89 7L89 6L88 6L88 8L89 8L89 9L90 9L90 8L92 8L92 9L91 9L91 10L93 10L93 11L92 11L92 12L91 12L91 11L88 11L88 10L87 10L87 9L85 9L85 8L84 8L84 10L83 10L83 9L81 9L81 8L83 8L83 6L82 6L82 5L81 5L81 4L83 4L83 3L80 3L80 1L79 1L79 0L77 0L77 1L74 1L74 0L71 0L71 1L73 1L73 2L74 2L74 3L73 3L73 4L71 4L71 3L68 3L68 4L66 4L66 3L67 3L67 1L69 1L69 2L70 2L70 1L69 1L69 0L67 0L67 1L65 1L65 0L63 0L63 1L62 1L62 0L61 0L61 1L62 1L62 2L61 2L61 3L63 3L63 1L64 1L64 4L66 4L66 5L62 5L62 4L60 4L60 5L59 5L59 6L58 6L58 5L57 5L57 4L56 4L56 1L57 1L57 3L58 3L58 4L59 4L59 3L60 3L60 0L58 0L58 1L57 1L57 0L55 0L55 1L53 1L53 0L51 0L51 1L50 1L50 0L49 0L49 2L50 2L50 3L51 3L51 1L52 1L52 4L49 4L49 3L48 3L48 7L47 7L47 6L46 6L46 8L47 8L47 10L46 10L46 11L45 11L45 10L43 10L43 11L42 11L42 10L40 10L40 9L39 9L39 10L40 10L40 11L38 11L38 9L36 9L36 8L34 8L34 7L35 7L35 6L34 6L34 5L35 5L35 3L34 3L34 0L32 0L32 1L30 1L30 0L27 0L27 1L26 1L26 3L27 3L27 4L25 4L25 3L24 3L24 5L25 5L25 6L24 6L24 7L25 7L25 6L26 6L26 8L25 8L25 9L24 9L24 8L23 8L23 9L22 9L22 8L21 8L21 9L20 9L20 10L19 10L19 11L18 11L18 12L15 12L15 11L16 11L16 9L19 9L19 8L20 8L20 7L21 7L21 6L20 6L20 7L19 7L19 6L18 6L18 7L17 7L17 5L18 5L18 4L16 4L16 2L18 2L18 1L20 1L20 2L22 2L22 0L21 0L21 1L20 1L20 0L16 0L16 1L15 1L15 2L14 2L14 0L13 0L13 1L12 1L12 2L10 2L10 3L9 3L9 1L11 1L11 0ZM23 0L23 1L25 1L25 0ZM38 0L38 3L36 3L36 5L38 5L38 7L37 7L37 6L36 6L36 7L37 7L37 8L39 8L39 4L38 4L38 3L39 3L39 2L40 2L40 3L41 3L41 4L42 4L42 5L40 5L40 8L41 8L41 9L42 9L42 7L43 7L43 6L44 6L44 7L45 7L45 6L44 6L44 5L46 5L46 4L47 4L47 3L46 3L46 2L45 2L45 1L44 1L44 0L40 0L40 1L39 1L39 0ZM46 0L46 1L47 1L47 0ZM81 0L81 2L82 2L82 0ZM84 0L84 1L83 1L83 2L84 2L84 1L86 1L86 2L85 2L85 3L87 3L87 5L86 5L86 4L85 4L85 5L84 5L84 7L85 7L85 5L86 5L86 8L87 8L87 5L88 5L88 3L89 3L89 0L88 0L88 1L86 1L86 0ZM90 0L90 1L92 1L92 0ZM32 1L32 6L31 6L31 7L32 7L32 8L31 8L31 9L29 9L29 11L30 11L30 13L29 13L29 12L28 12L28 13L25 13L25 14L24 14L24 15L21 15L21 14L20 14L20 15L19 15L19 13L21 13L21 12L19 12L19 13L16 13L16 14L15 14L15 13L14 13L14 12L11 12L11 10L10 10L10 11L9 11L9 12L8 12L8 13L6 13L6 14L5 14L5 16L7 16L7 17L6 17L6 18L8 18L8 19L9 19L9 20L11 20L11 22L10 22L10 21L6 21L6 22L8 22L8 25L9 25L9 24L11 24L11 26L9 26L9 28L10 28L10 29L9 29L9 32L8 32L8 33L5 33L5 31L4 31L4 34L3 34L3 35L4 35L4 36L2 36L2 35L1 35L1 38L3 38L3 39L6 39L6 40L8 40L8 42L7 42L7 43L6 43L6 44L7 44L7 45L5 45L5 46L7 46L7 47L6 47L6 48L7 48L7 47L8 47L8 48L9 48L9 49L11 49L11 50L12 50L12 51L10 51L10 52L9 52L9 54L10 54L10 53L12 53L12 55L13 55L13 57L15 57L15 58L16 58L16 57L17 57L17 59L16 59L16 61L15 61L15 59L14 59L14 61L15 61L15 63L13 63L13 66L12 66L12 65L11 65L11 66L12 66L12 67L11 67L11 68L9 68L9 67L10 67L10 64L12 64L12 62L11 62L11 63L9 63L9 62L10 62L10 61L11 61L11 59L8 59L8 60L7 60L7 59L6 59L6 60L7 60L7 61L6 61L6 62L7 62L7 63L4 63L4 64L7 64L7 63L9 63L9 65L8 65L8 66L7 66L7 65L6 65L6 66L7 66L7 67L5 67L5 66L4 66L4 65L3 65L3 64L2 64L2 63L1 63L1 64L2 64L2 65L3 65L3 66L2 66L2 67L3 67L3 68L4 68L4 69L5 69L5 70L7 70L7 69L8 69L8 70L9 70L9 69L10 69L10 72L9 72L9 73L10 73L10 72L11 72L11 75L10 75L10 76L11 76L11 77L10 77L10 78L9 78L9 77L8 77L8 76L9 76L9 75L6 75L6 76L5 76L5 75L4 75L4 73L3 73L3 75L4 75L4 76L3 76L3 77L4 77L4 78L5 78L5 80L7 80L7 79L8 79L8 80L9 80L9 81L8 81L8 82L9 82L9 83L10 83L10 84L9 84L9 85L8 85L8 86L12 86L12 82L13 82L13 84L14 84L14 85L13 85L13 87L15 87L15 91L16 91L16 92L17 92L17 93L18 93L18 95L21 95L21 96L19 96L19 97L18 97L18 98L17 98L17 99L18 99L18 100L19 100L19 98L21 98L21 99L23 99L23 98L22 98L22 97L21 97L21 96L23 96L23 97L24 97L24 98L25 98L25 97L26 97L26 95L24 95L24 96L23 96L23 95L21 95L21 94L22 94L22 93L23 93L23 94L24 94L24 93L25 93L25 94L26 94L26 92L28 92L28 90L27 90L27 89L26 89L26 90L25 90L25 91L24 91L24 90L23 90L23 89L24 89L24 88L26 88L26 87L27 87L27 88L28 88L28 89L30 89L30 91L29 91L29 92L31 92L31 93L32 93L32 92L34 92L34 93L33 93L33 95L31 95L31 96L32 96L32 97L33 97L33 99L32 99L32 98L31 98L31 97L27 97L27 98L26 98L26 99L24 99L24 100L26 100L26 99L27 99L27 98L29 98L29 99L32 99L32 100L33 100L33 99L34 99L34 100L35 100L35 99L36 99L36 98L35 98L35 96L37 96L37 98L38 98L38 96L40 96L40 95L42 95L42 96L41 96L41 98L42 98L42 99L45 99L45 98L46 98L46 96L48 96L48 95L46 95L46 93L45 93L45 92L47 92L47 91L48 91L48 92L49 92L49 91L48 91L48 90L50 90L50 84L49 84L49 83L50 83L50 81L53 81L53 82L54 82L54 83L53 83L53 84L52 84L52 83L51 83L51 86L52 86L52 85L53 85L53 84L54 84L54 83L56 83L56 85L57 85L57 83L58 83L58 84L59 84L59 85L60 85L60 86L59 86L59 87L58 87L58 86L57 86L57 87L56 87L56 86L53 86L53 87L56 87L56 88L55 88L55 89L56 89L56 90L54 90L54 91L53 91L53 94L54 94L54 95L53 95L53 97L50 97L50 98L51 98L51 99L53 99L53 97L54 97L54 95L56 95L56 96L57 96L57 97L58 97L58 98L59 98L59 99L60 99L60 100L62 100L62 99L63 99L63 98L64 98L64 99L68 99L68 96L69 96L69 97L70 97L70 98L69 98L69 99L70 99L70 98L71 98L71 97L70 97L70 94L69 94L69 95L68 95L68 94L66 94L66 92L63 92L63 91L67 91L67 88L69 88L69 87L68 87L68 86L65 86L65 87L67 87L67 88L66 88L66 89L65 89L65 88L64 88L64 89L63 89L63 90L62 90L62 92L63 92L63 93L61 93L61 94L60 94L60 92L61 92L61 88L62 88L62 87L64 87L64 86L63 86L63 85L64 85L64 83L66 83L66 84L65 84L65 85L66 85L66 84L69 84L69 83L70 83L70 82L69 82L69 81L68 81L68 80L69 80L69 79L67 79L67 78L66 78L66 79L65 79L65 77L63 77L63 78L61 78L61 77L62 77L62 76L64 76L64 75L67 75L67 76L66 76L66 77L67 77L67 76L68 76L68 77L69 77L69 78L70 78L70 77L69 77L69 75L68 75L68 73L70 73L70 72L69 72L69 71L70 71L70 70L71 70L71 69L74 69L74 70L75 70L75 69L74 69L74 68L73 68L73 66L72 66L72 65L74 65L74 66L75 66L75 67L80 67L80 68L81 68L81 69L82 69L82 70L81 70L81 71L80 71L80 69L79 69L79 68L76 68L76 71L75 71L75 74L76 74L76 75L77 75L77 76L78 76L78 77L76 77L76 76L75 76L75 75L72 75L72 76L75 76L75 78L74 78L74 77L72 77L72 79L70 79L70 81L71 81L71 84L70 84L70 85L69 85L69 86L70 86L70 87L73 87L73 88L72 88L72 89L71 89L71 88L70 88L70 90L69 90L69 89L68 89L68 90L69 90L69 91L68 91L68 92L67 92L67 93L70 93L70 92L69 92L69 91L70 91L70 90L71 90L71 92L76 92L76 94L77 94L77 93L78 93L78 92L76 92L76 91L80 91L80 92L81 92L81 91L82 91L82 92L83 92L83 93L84 93L84 92L85 92L85 95L82 95L82 96L81 96L81 99L82 99L82 100L83 100L83 99L82 99L82 97L84 97L84 96L85 96L85 97L86 97L86 96L87 96L87 95L91 95L91 94L88 94L88 91L93 91L93 92L95 92L95 91L96 91L96 92L98 92L98 93L97 93L97 95L98 95L98 94L99 94L99 95L100 95L100 91L99 91L99 90L98 90L98 89L97 89L97 87L96 87L96 86L95 86L95 87L93 87L93 86L92 86L92 85L91 85L91 84L88 84L88 83L87 83L87 81L89 81L89 80L88 80L88 79L90 79L90 80L91 80L91 78L90 78L90 76L88 76L88 75L91 75L91 74L89 74L89 72L90 72L90 73L91 73L91 72L90 72L90 71L92 71L92 70L90 70L90 68L87 68L87 70L86 70L86 68L85 68L85 66L86 66L86 67L91 67L91 68L92 68L92 69L93 69L93 70L96 70L96 69L94 69L94 68L97 68L97 66L96 66L96 67L95 67L95 65L94 65L94 66L93 66L93 67L92 67L92 66L90 66L90 65L91 65L91 63L92 63L92 61L93 61L93 60L92 60L92 59L93 59L93 58L92 58L92 57L91 57L91 58L90 58L90 55L91 55L91 54L92 54L92 53L91 53L91 54L90 54L90 55L89 55L89 54L88 54L88 55L87 55L87 54L86 54L86 53L85 53L85 54L86 54L86 55L83 55L83 56L81 56L81 55L82 55L82 54L84 54L84 52L86 52L86 51L87 51L87 52L88 52L88 51L90 51L90 52L92 52L92 50L90 50L90 48L88 48L88 47L89 47L89 46L90 46L90 47L91 47L91 48L92 48L92 47L94 47L94 46L95 46L95 47L96 47L96 46L95 46L95 44L97 44L97 43L95 43L95 44L94 44L94 45L93 45L93 43L94 43L94 42L92 42L92 43L91 43L91 42L89 42L89 41L90 41L90 39L91 39L91 36L90 36L90 37L87 37L87 36L85 36L85 35L84 35L84 33L85 33L85 34L86 34L86 32L85 32L85 31L87 31L87 29L86 29L86 28L85 28L85 27L84 27L84 28L83 28L83 27L82 27L82 26L84 26L84 25L86 25L86 27L87 27L87 28L88 28L88 27L89 27L89 26L88 26L88 25L90 25L90 27L91 27L91 26L92 26L92 23L91 23L91 21L90 21L90 20L89 20L89 21L88 21L88 19L89 19L89 17L87 17L87 18L86 18L86 19L87 19L87 20L86 20L86 21L87 21L87 22L86 22L86 23L84 23L84 22L85 22L85 21L84 21L84 22L83 22L83 23L82 23L82 24L84 24L84 25L82 25L82 26L81 26L81 25L80 25L80 24L81 24L81 23L79 23L79 22L80 22L80 20L81 20L81 19L80 19L80 20L79 20L79 22L78 22L78 23L79 23L79 25L78 25L78 24L76 24L76 23L75 23L75 22L76 22L76 20L75 20L75 22L74 22L74 23L72 23L72 21L73 21L73 20L74 20L74 19L77 19L77 20L78 20L78 19L79 19L79 18L77 18L77 17L78 17L78 16L76 16L76 15L75 15L75 14L78 14L78 15L80 15L80 17L81 17L81 18L82 18L82 16L83 16L83 18L84 18L84 17L86 17L86 15L87 15L87 16L88 16L88 15L89 15L89 13L87 13L87 12L88 12L88 11L87 11L87 10L85 10L85 11L84 11L84 12L85 12L85 11L87 11L87 12L86 12L86 13L85 13L85 14L86 14L86 15L84 15L84 14L83 14L83 15L82 15L82 14L81 14L81 11L80 11L80 8L81 8L81 7L82 7L82 6L81 6L81 5L79 5L79 7L80 7L80 8L78 8L78 4L80 4L80 3L78 3L78 4L77 4L77 3L74 3L74 4L76 4L76 5L77 5L77 9L79 9L79 10L78 10L78 11L77 11L77 12L76 12L76 11L75 11L75 10L74 10L74 9L70 9L70 8L69 8L69 7L70 7L70 6L69 6L69 5L70 5L70 4L68 4L68 6L67 6L67 7L66 7L66 6L65 6L65 7L66 7L66 9L67 9L67 10L65 10L65 8L64 8L64 6L63 6L63 8L61 8L61 7L62 7L62 6L61 6L61 5L60 5L60 6L59 6L59 7L58 7L58 6L57 6L57 7L58 7L58 8L59 8L59 7L60 7L60 8L61 8L61 9L59 9L59 10L61 10L61 9L62 9L62 10L63 10L63 11L60 11L60 12L61 12L61 13L59 13L59 11L58 11L58 9L57 9L57 8L56 8L56 9L55 9L55 10L54 10L54 11L53 11L53 10L52 10L52 11L51 11L51 10L50 10L50 12L49 12L49 11L48 11L48 12L47 12L47 11L46 11L46 12L45 12L45 11L44 11L44 12L45 12L45 13L50 13L50 14L51 14L51 15L49 15L49 16L48 16L48 15L46 15L46 14L42 14L42 13L43 13L43 12L42 12L42 13L41 13L41 12L40 12L40 13L39 13L39 14L38 14L38 12L37 12L37 11L34 11L34 10L36 10L36 9L34 9L34 10L33 10L33 11L32 11L32 10L31 10L31 9L33 9L33 7L34 7L34 6L33 6L33 5L34 5L34 4L33 4L33 1ZM43 1L43 3L42 3L42 2L41 2L41 3L42 3L42 4L43 4L43 3L44 3L44 4L45 4L45 2L44 2L44 1ZM12 2L12 3L13 3L13 2ZM30 2L30 3L28 3L28 4L30 4L30 3L31 3L31 2ZM14 3L14 4L15 4L15 3ZM19 3L19 4L21 4L21 3ZM53 3L53 4L55 4L55 5L56 5L56 4L55 4L55 3ZM22 4L22 5L23 5L23 4ZM91 4L91 5L92 5L92 4ZM14 5L14 6L13 6L13 7L14 7L14 6L15 6L15 8L16 8L16 6L15 6L15 5ZM27 5L27 8L30 8L30 5ZM49 5L49 8L52 8L52 5ZM53 5L53 9L54 9L54 5ZM71 5L71 8L74 8L74 5ZM9 6L9 7L10 7L10 6ZM11 6L11 7L12 7L12 6ZM22 6L22 7L23 7L23 6ZM28 6L28 7L29 7L29 6ZM32 6L32 7L33 7L33 6ZM41 6L41 7L42 7L42 6ZM50 6L50 7L51 7L51 6ZM55 6L55 7L56 7L56 6ZM60 6L60 7L61 7L61 6ZM68 6L68 7L67 7L67 8L68 8L68 10L67 10L67 11L64 11L64 13L63 13L63 14L65 14L65 15L62 15L62 14L58 14L58 15L57 15L57 12L58 12L58 11L57 11L57 12L56 12L56 10L55 10L55 11L54 11L54 12L53 12L53 11L52 11L52 12L51 12L51 14L53 14L53 13L54 13L54 12L55 12L55 15L54 15L54 16L53 16L53 15L51 15L51 16L49 16L49 17L48 17L48 16L47 16L47 17L48 17L48 18L46 18L46 15L45 15L45 16L44 16L44 15L40 15L40 14L39 14L39 15L37 15L37 16L36 16L36 14L37 14L37 13L36 13L36 12L34 12L34 11L33 11L33 12L32 12L32 11L31 11L31 10L30 10L30 11L31 11L31 12L32 12L32 13L30 13L30 14L32 14L32 15L28 15L28 14L29 14L29 13L28 13L28 14L27 14L27 15L28 15L28 16L26 16L26 15L24 15L24 16L25 16L25 17L26 17L26 19L25 19L25 18L24 18L24 17L23 17L23 18L22 18L22 17L21 17L21 16L19 16L19 17L18 17L18 16L16 16L16 17L18 17L18 18L15 18L15 17L14 17L14 18L13 18L13 16L14 16L14 14L13 14L13 16L12 16L12 14L11 14L11 15L10 15L10 14L9 14L9 15L8 15L8 14L6 14L6 15L8 15L8 16L10 16L10 17L11 17L11 18L9 18L9 19L11 19L11 20L12 20L12 19L11 19L11 18L13 18L13 19L14 19L14 18L15 18L15 20L13 20L13 21L12 21L12 23L11 23L11 24L12 24L12 25L16 25L16 26L15 26L15 28L14 28L14 26L12 26L12 27L13 27L13 28L11 28L11 27L10 27L10 28L11 28L11 32L12 32L12 30L13 30L13 31L15 31L15 30L18 30L18 31L16 31L16 32L14 32L14 33L13 33L13 34L12 34L12 33L11 33L11 35L14 35L14 37L12 37L12 36L9 36L9 37L10 37L10 38L9 38L9 39L10 39L10 40L9 40L9 41L10 41L10 40L11 40L11 41L13 41L13 40L14 40L14 41L15 41L15 42L14 42L14 43L13 43L13 42L12 42L12 43L13 43L13 44L12 44L12 45L11 45L11 46L12 46L12 47L9 47L9 48L11 48L11 49L12 49L12 50L13 50L13 51L12 51L12 52L13 52L13 53L14 53L14 55L15 55L15 56L16 56L16 55L18 55L18 56L17 56L17 57L19 57L19 55L20 55L20 57L22 57L22 56L23 56L23 55L25 55L25 54L22 54L22 55L21 55L21 54L18 54L18 53L17 53L17 52L16 52L16 51L19 51L19 52L20 52L20 53L21 53L21 52L23 52L23 53L27 53L27 55L28 55L28 57L27 57L27 56L25 56L25 57L24 57L24 58L22 58L22 59L26 59L26 58L28 58L28 59L29 59L29 58L30 58L30 61L32 61L32 60L33 60L33 61L34 61L34 63L33 63L33 62L32 62L32 63L33 63L33 64L34 64L34 66L32 66L32 64L31 64L31 62L28 62L28 61L29 61L29 60L26 60L26 62L25 62L25 60L24 60L24 61L23 61L23 60L21 60L21 58L20 58L20 62L21 62L21 61L22 61L22 63L24 63L24 62L25 62L25 63L27 63L27 62L28 62L28 64L26 64L26 65L25 65L25 64L24 64L24 66L23 66L23 65L21 65L21 66L19 66L19 65L20 65L20 63L19 63L19 62L17 62L17 63L19 63L19 65L18 65L18 66L16 66L16 63L15 63L15 67L14 67L14 66L13 66L13 70L14 70L14 71L15 71L15 72L13 72L13 71L12 71L12 68L11 68L11 72L12 72L12 73L13 73L13 74L12 74L12 75L11 75L11 76L12 76L12 77L11 77L11 79L9 79L9 78L8 78L8 79L9 79L9 80L11 80L11 81L12 81L12 80L15 80L15 79L16 79L16 78L18 78L18 79L20 79L20 80L21 80L21 79L24 79L24 80L25 80L25 81L26 81L26 82L28 82L28 83L27 83L27 84L26 84L26 85L24 85L24 87L25 87L25 86L26 86L26 85L28 85L28 88L29 88L29 87L30 87L30 88L31 88L31 91L32 91L32 90L33 90L33 91L38 91L38 92L35 92L35 94L34 94L34 95L33 95L33 96L34 96L34 95L37 95L37 96L38 96L38 94L39 94L39 95L40 95L40 94L41 94L41 93L42 93L42 92L43 92L43 93L44 93L44 91L47 91L47 90L46 90L46 89L45 89L45 90L44 90L44 88L43 88L43 87L45 87L45 88L47 88L47 89L49 89L49 87L48 87L48 86L46 86L46 87L45 87L45 85L44 85L44 83L45 83L45 84L47 84L47 85L48 85L48 83L49 83L49 81L50 81L50 80L51 80L51 77L52 77L52 79L53 79L53 80L56 80L56 81L55 81L55 82L56 82L56 83L57 83L57 82L58 82L58 83L62 83L62 85L63 85L63 83L62 83L62 82L63 82L63 81L64 81L64 80L65 80L65 81L66 81L66 80L67 80L67 79L66 79L66 80L65 80L65 79L64 79L64 78L63 78L63 79L62 79L62 80L60 80L60 81L59 81L59 80L58 80L58 79L61 79L61 78L59 78L59 77L61 77L61 76L58 76L58 75L59 75L59 73L61 73L61 74L60 74L60 75L64 75L64 74L65 74L65 72L66 72L66 73L67 73L67 72L68 72L68 71L69 71L69 70L70 70L70 69L71 69L71 68L72 68L72 66L71 66L71 68L70 68L70 69L69 69L69 70L68 70L68 71L64 71L64 70L63 70L63 69L64 69L64 68L66 68L66 69L65 69L65 70L67 70L67 68L68 68L68 67L70 67L70 65L72 65L72 64L70 64L70 65L69 65L69 64L68 64L68 67L64 67L64 68L62 68L62 69L61 69L61 68L60 68L60 67L62 67L62 66L63 66L63 64L61 64L61 63L62 63L62 62L63 62L63 63L64 63L64 64L66 64L66 65L67 65L67 63L66 63L66 62L65 62L65 61L66 61L66 59L64 59L64 58L65 58L65 56L66 56L66 58L67 58L67 59L69 59L69 61L67 61L67 62L68 62L68 63L70 63L70 61L71 61L71 63L72 63L72 62L73 62L73 64L74 64L74 65L75 65L75 64L76 64L76 66L77 66L77 63L78 63L78 65L80 65L80 64L79 64L79 63L78 63L78 62L77 62L77 61L76 61L76 60L79 60L79 59L81 59L81 60L80 60L80 63L85 63L85 64L83 64L83 66L82 66L82 67L83 67L83 66L85 66L85 65L87 65L87 64L88 64L88 66L89 66L89 65L90 65L90 63L88 63L88 62L89 62L89 60L90 60L90 62L91 62L91 61L92 61L92 60L90 60L90 59L88 59L88 60L87 60L87 59L86 59L86 58L87 58L87 57L88 57L88 56L89 56L89 55L88 55L88 56L87 56L87 55L86 55L86 58L82 58L82 57L80 57L80 56L77 56L77 55L76 55L76 54L79 54L79 53L80 53L80 55L81 55L81 52L80 52L80 51L81 51L81 48L82 48L82 47L83 47L83 45L82 45L82 47L81 47L81 46L80 46L80 47L79 47L79 48L78 48L78 47L75 47L75 46L77 46L77 43L78 43L78 46L79 46L79 44L80 44L80 43L83 43L83 44L84 44L84 43L85 43L85 42L86 42L86 40L87 40L87 43L86 43L86 46L85 46L85 45L84 45L84 47L86 47L86 48L83 48L83 50L82 50L82 52L83 52L83 51L84 51L84 50L85 50L85 51L86 51L86 49L87 49L87 50L88 50L88 48L87 48L87 47L88 47L88 46L87 46L87 43L88 43L88 45L90 45L90 44L91 44L91 43L88 43L88 40L89 40L89 39L90 39L90 38L89 38L89 39L88 39L88 38L87 38L87 39L86 39L86 37L85 37L85 36L84 36L84 37L83 37L83 36L81 36L81 38L79 38L79 36L80 36L80 35L81 35L81 34L82 34L82 35L83 35L83 33L84 33L84 32L83 32L83 33L81 33L81 32L82 32L82 31L85 31L85 30L86 30L86 29L85 29L85 28L84 28L84 29L83 29L83 30L82 30L82 31L81 31L81 32L80 32L80 31L79 31L79 32L78 32L78 28L79 28L79 30L80 30L80 28L79 28L79 27L78 27L78 28L77 28L77 27L76 27L76 26L73 26L73 25L75 25L75 23L74 23L74 24L73 24L73 25L72 25L72 26L71 26L71 25L70 25L70 23L69 23L69 24L68 24L68 23L66 23L66 24L65 24L65 22L64 22L64 23L62 23L62 22L61 22L61 21L63 21L63 19L64 19L64 20L65 20L65 21L66 21L66 22L71 22L71 21L70 21L70 20L67 20L67 19L69 19L69 18L71 18L71 19L73 19L73 18L74 18L74 17L75 17L75 18L76 18L76 17L75 17L75 15L74 15L74 14L71 14L71 13L75 13L75 11L74 11L74 10L70 10L70 11L69 11L69 12L68 12L68 10L69 10L69 8L68 8L68 7L69 7L69 6ZM72 6L72 7L73 7L73 6ZM75 6L75 9L76 9L76 6ZM80 6L80 7L81 7L81 6ZM91 6L91 7L92 7L92 6ZM18 7L18 8L19 8L19 7ZM0 8L0 10L2 10L2 8ZM43 8L43 9L44 9L44 8ZM63 8L63 9L64 9L64 8ZM6 9L6 10L7 10L7 9ZM21 9L21 10L20 10L20 11L22 11L22 14L23 14L23 11L24 11L24 12L27 12L27 11L26 11L26 10L28 10L28 9L26 9L26 10L25 10L25 11L24 11L24 9L23 9L23 11L22 11L22 9ZM95 9L95 10L94 10L94 11L93 11L93 13L94 13L94 14L96 14L96 12L95 12L95 13L94 13L94 11L97 11L97 13L99 13L99 12L100 12L100 9L99 9L99 11L98 11L98 9L97 9L97 10L96 10L96 9ZM71 11L71 12L70 12L70 13L69 13L69 14L70 14L70 13L71 13L71 12L73 12L73 11ZM78 11L78 13L80 13L80 11ZM1 12L1 15L2 15L2 16L3 16L3 15L4 15L4 14L2 14L2 12ZM10 12L10 13L11 13L11 12ZM65 12L65 14L66 14L66 15L65 15L65 16L64 16L64 19L65 19L65 20L66 20L66 19L67 19L67 18L66 18L66 19L65 19L65 17L66 17L66 15L67 15L67 16L69 16L69 17L71 17L71 16L72 16L72 18L73 18L73 17L74 17L74 15L71 15L71 16L69 16L69 15L67 15L67 13L66 13L66 12ZM32 13L32 14L33 14L33 15L32 15L32 16L30 16L30 17L31 17L31 18L29 18L29 16L28 16L28 17L27 17L27 19L26 19L26 20L27 20L27 21L26 21L26 22L25 22L25 23L24 23L24 22L23 22L23 23L22 23L22 24L21 24L21 23L20 23L20 24L19 24L19 26L18 26L18 27L20 27L20 28L25 28L25 29L23 29L23 30L25 30L25 31L22 31L22 30L21 30L21 29L20 29L20 31L19 31L19 32L17 32L17 33L16 33L16 34L15 34L15 33L14 33L14 34L15 34L15 36L16 36L16 37L17 37L17 36L16 36L16 34L17 34L17 35L18 35L18 34L17 34L17 33L21 33L21 35L20 35L20 34L19 34L19 35L20 35L20 36L19 36L19 37L20 37L20 38L19 38L19 39L17 39L17 38L15 38L15 39L14 39L14 40L15 40L15 41L16 41L16 44L15 44L15 46L14 46L14 45L13 45L13 46L14 46L14 47L12 47L12 48L13 48L13 49L15 49L15 50L14 50L14 52L15 52L15 51L16 51L16 49L17 49L17 47L15 47L15 46L16 46L16 44L17 44L17 41L16 41L16 40L15 40L15 39L17 39L17 40L20 40L20 41L18 41L18 42L20 42L20 41L21 41L21 40L22 40L22 42L21 42L21 43L20 43L20 45L21 45L21 46L19 46L19 45L17 45L17 46L18 46L18 47L19 47L19 51L24 51L24 52L25 52L25 51L24 51L24 49L23 49L23 50L22 50L22 49L21 49L21 50L20 50L20 48L23 48L23 47L24 47L24 48L25 48L25 50L26 50L26 48L27 48L27 47L28 47L28 48L29 48L29 47L30 47L30 48L31 48L31 47L32 47L32 48L34 48L34 49L33 49L33 50L36 50L36 51L34 51L34 52L35 52L35 53L36 53L36 54L35 54L35 55L34 55L34 53L33 53L33 55L32 55L32 53L31 53L31 55L29 55L29 56L31 56L31 55L32 55L32 56L33 56L33 55L34 55L34 57L33 57L33 58L32 58L32 57L30 57L30 58L31 58L31 59L33 59L33 60L38 60L38 62L37 62L37 63L34 63L34 64L37 64L37 65L36 65L36 66L37 66L37 65L38 65L38 67L36 67L36 68L35 68L35 67L34 67L34 68L33 68L33 67L32 67L32 66L31 66L31 65L29 65L29 64L30 64L30 63L29 63L29 64L28 64L28 65L27 65L27 67L26 67L26 68L27 68L27 67L28 67L28 66L31 66L31 67L29 67L29 68L31 68L31 69L30 69L30 70L31 70L31 71L32 71L32 72L33 72L33 71L34 71L34 70L37 70L37 68L38 68L38 67L39 67L39 70L38 70L38 71L36 71L36 72L38 72L38 71L39 71L39 74L38 74L38 75L34 75L34 74L35 74L35 72L34 72L34 74L33 74L33 75L32 75L32 73L31 73L31 75L30 75L30 77L31 77L31 79L30 79L30 78L29 78L29 79L28 79L28 80L27 80L27 76L28 76L28 75L27 75L27 76L26 76L26 73L23 73L23 71L21 71L21 70L22 70L22 69L24 69L24 70L25 70L25 67L24 67L24 68L23 68L23 67L22 67L22 66L21 66L21 67L22 67L22 68L19 68L19 69L18 69L18 67L15 67L15 68L14 68L14 69L15 69L15 70L16 70L16 73L14 73L14 74L15 74L15 75L13 75L13 76L14 76L14 77L12 77L12 78L14 78L14 77L15 77L15 78L16 78L16 76L15 76L15 75L16 75L16 73L17 73L17 74L18 74L18 76L19 76L19 78L22 78L22 77L23 77L23 78L24 78L24 79L25 79L25 80L26 80L26 81L28 81L28 80L29 80L29 79L30 79L30 80L32 80L32 84L33 84L33 82L34 82L34 81L33 81L33 79L35 79L35 80L37 80L37 82L36 82L36 81L35 81L35 83L34 83L34 85L35 85L35 86L36 86L36 87L34 87L34 88L33 88L33 86L31 86L31 87L32 87L32 88L33 88L33 89L34 89L34 90L36 90L36 88L37 88L37 89L38 89L38 88L40 88L40 87L43 87L43 85L41 85L41 84L40 84L40 83L43 83L43 82L44 82L44 81L46 81L46 82L48 82L48 81L49 81L49 79L50 79L50 77L51 77L51 75L49 75L49 76L48 76L48 77L47 77L47 75L46 75L46 73L45 73L45 72L46 72L46 71L43 71L43 70L42 70L42 69L40 69L40 67L41 67L41 68L42 68L42 67L43 67L43 69L44 69L44 68L45 68L45 69L46 69L46 70L47 70L47 71L48 71L48 70L51 70L51 69L53 69L53 70L54 70L54 71L53 71L53 72L54 72L54 73L53 73L53 74L54 74L54 75L55 75L55 77L57 77L57 75L56 75L56 74L57 74L57 72L56 72L56 73L55 73L55 72L54 72L54 71L57 71L57 70L58 70L58 68L57 68L57 67L60 67L60 66L61 66L61 64L60 64L60 63L61 63L61 61L60 61L60 63L56 63L56 62L58 62L58 60L57 60L57 59L58 59L58 58L59 58L59 57L60 57L60 56L62 56L62 58L61 58L61 59L59 59L59 60L62 60L62 59L63 59L63 57L64 57L64 56L65 56L65 55L67 55L67 56L68 56L68 57L67 57L67 58L71 58L71 59L72 59L72 61L73 61L73 60L74 60L74 59L72 59L72 58L71 58L71 57L73 57L73 58L75 58L75 57L74 57L74 56L75 56L75 54L76 54L76 53L77 53L77 52L76 52L76 53L73 53L73 54L71 54L71 53L70 53L70 51L67 51L67 49L66 49L66 52L65 52L65 53L63 53L63 52L64 52L64 51L65 51L65 50L62 50L62 51L58 51L58 50L60 50L60 49L59 49L59 48L61 48L61 47L58 47L58 46L59 46L59 45L60 45L60 44L61 44L61 43L62 43L62 44L64 44L64 43L65 43L65 44L66 44L66 43L67 43L67 44L68 44L68 45L67 45L67 46L66 46L66 45L65 45L65 46L64 46L64 47L63 47L63 45L62 45L62 47L63 47L63 48L64 48L64 49L65 49L65 48L64 48L64 47L65 47L65 46L66 46L66 47L67 47L67 48L70 48L70 47L71 47L71 46L70 46L70 43L68 43L68 42L69 42L69 40L70 40L70 42L71 42L71 43L73 43L73 44L74 44L74 45L76 45L76 44L75 44L75 43L74 43L74 42L76 42L76 43L77 43L77 42L78 42L78 43L80 43L80 42L82 42L82 40L83 40L83 41L84 41L84 42L83 42L83 43L84 43L84 42L85 42L85 40L86 40L86 39L84 39L84 40L83 40L83 39L82 39L82 38L83 38L83 37L82 37L82 38L81 38L81 39L80 39L80 42L78 42L78 39L79 39L79 38L78 38L78 35L79 35L79 34L77 34L77 33L76 33L76 32L75 32L75 31L77 31L77 29L76 29L76 27L75 27L75 31L74 31L74 33L73 33L73 34L72 34L72 35L71 35L71 34L70 34L70 35L69 35L69 34L65 34L65 33L66 33L66 32L64 32L64 31L65 31L65 30L64 30L64 31L63 31L63 28L61 28L61 27L65 27L65 24L64 24L64 25L63 25L63 24L62 24L62 23L58 23L58 24L57 24L57 23L55 23L55 22L56 22L56 20L57 20L57 19L58 19L58 20L59 20L59 19L58 19L58 17L59 17L59 16L60 16L60 17L61 17L61 15L59 15L59 16L57 16L57 15L56 15L56 16L55 16L55 17L56 17L56 16L57 16L57 19L56 19L56 18L54 18L54 17L53 17L53 16L51 16L51 17L52 17L52 19L56 19L56 20L55 20L55 22L54 22L54 21L52 21L52 23L53 23L53 25L54 25L54 23L55 23L55 24L56 24L56 26L54 26L54 27L53 27L53 29L54 29L54 30L53 30L53 31L55 31L55 30L57 30L57 29L54 29L54 28L55 28L55 27L56 27L56 28L57 28L57 27L56 27L56 26L58 26L58 24L60 24L60 26L61 26L61 27L58 27L58 29L59 29L59 28L60 28L60 30L59 30L59 31L60 31L60 32L61 32L61 33L62 33L62 31L63 31L63 32L64 32L64 33L63 33L63 34L61 34L61 35L60 35L60 33L59 33L59 32L57 32L57 31L56 31L56 32L55 32L55 33L54 33L54 32L52 32L52 31L49 31L49 33L48 33L48 34L47 34L47 31L46 31L46 30L48 30L48 28L47 28L47 29L46 29L46 28L45 28L45 27L44 27L44 26L42 26L42 24L40 24L40 23L43 23L43 24L45 24L45 23L46 23L46 24L48 24L48 25L49 25L49 26L50 26L50 23L51 23L51 18L50 18L50 20L49 20L49 18L48 18L48 19L44 19L44 18L40 18L40 17L39 17L39 16L40 16L40 15L39 15L39 16L38 16L38 17L37 17L37 18L35 18L35 19L32 19L32 18L34 18L34 16L33 16L33 15L35 15L35 14L36 14L36 13L35 13L35 14L34 14L34 13ZM86 13L86 14L87 14L87 13ZM16 14L16 15L17 15L17 14ZM80 14L80 15L81 15L81 16L82 16L82 15L81 15L81 14ZM90 14L90 15L91 15L91 14ZM83 15L83 16L84 16L84 15ZM11 16L11 17L12 17L12 16ZM32 16L32 17L33 17L33 16ZM35 16L35 17L36 17L36 16ZM42 16L42 17L43 17L43 16ZM62 16L62 18L61 18L61 19L60 19L60 20L62 20L62 19L63 19L63 16ZM0 17L0 19L1 19L1 17ZM38 17L38 18L37 18L37 19L38 19L38 20L39 20L39 21L41 21L41 20L42 20L42 21L43 21L43 22L44 22L44 23L45 23L45 22L46 22L46 23L48 23L48 24L49 24L49 22L50 22L50 21L48 21L48 20L47 20L47 22L46 22L46 20L44 20L44 19L40 19L40 18L39 18L39 17ZM19 18L19 19L21 19L21 22L22 22L22 19L21 19L21 18ZM23 18L23 19L24 19L24 20L23 20L23 21L25 21L25 19L24 19L24 18ZM38 18L38 19L39 19L39 20L40 20L40 19L39 19L39 18ZM87 18L87 19L88 19L88 18ZM99 18L99 19L100 19L100 18ZM16 19L16 20L15 20L15 21L13 21L13 23L12 23L12 24L17 24L17 23L18 23L18 22L19 22L19 20L18 20L18 22L17 22L17 23L15 23L15 22L16 22L16 21L17 21L17 19ZM28 19L28 21L29 21L29 22L26 22L26 23L25 23L25 24L22 24L22 25L20 25L20 26L22 26L22 27L26 27L26 29L25 29L25 30L26 30L26 31L25 31L25 32L23 32L23 33L22 33L22 35L21 35L21 36L22 36L22 35L24 35L24 33L25 33L25 34L26 34L26 35L25 35L25 36L24 36L24 38L23 38L23 37L21 37L21 39L24 39L24 38L25 38L25 36L26 36L26 35L29 35L29 34L28 34L28 33L26 33L26 31L31 31L31 33L30 33L30 34L32 34L32 35L31 35L31 37L32 37L32 35L36 35L36 34L37 34L37 35L38 35L38 36L36 36L36 38L35 38L35 36L33 36L33 38L32 38L32 39L31 39L31 40L32 40L32 43L31 43L31 44L29 44L29 43L30 43L30 42L31 42L31 41L28 41L28 39L30 39L30 36L29 36L29 37L28 37L28 38L27 38L27 37L26 37L26 38L27 38L27 39L25 39L25 40L24 40L24 42L22 42L22 43L25 43L25 44L24 44L24 46L26 46L26 45L27 45L27 46L28 46L28 45L27 45L27 44L29 44L29 45L30 45L30 46L31 46L31 44L32 44L32 45L33 45L33 46L32 46L32 47L34 47L34 48L35 48L35 47L37 47L37 46L38 46L38 44L39 44L39 43L41 43L41 44L40 44L40 45L39 45L39 47L38 47L38 48L39 48L39 49L41 49L41 50L43 50L43 49L44 49L44 48L43 48L43 47L40 47L40 46L41 46L41 45L42 45L42 46L44 46L44 47L45 47L45 48L46 48L46 49L45 49L45 50L44 50L44 51L42 51L42 52L41 52L41 51L40 51L40 50L39 50L39 51L38 51L38 49L36 49L36 50L37 50L37 51L36 51L36 52L37 52L37 53L38 53L38 54L39 54L39 55L40 55L40 56L41 56L41 57L40 57L40 58L39 58L39 59L38 59L38 57L37 57L37 58L36 58L36 57L35 57L35 58L34 58L34 59L35 59L35 58L36 58L36 59L38 59L38 60L39 60L39 62L40 62L40 61L41 61L41 63L40 63L40 65L39 65L39 67L40 67L40 66L41 66L41 67L42 67L42 66L43 66L43 67L44 67L44 66L45 66L45 68L47 68L47 67L48 67L48 66L49 66L49 67L50 67L50 68L48 68L48 69L51 69L51 68L54 68L54 70L55 70L55 69L56 69L56 70L57 70L57 68L56 68L56 67L57 67L57 65L58 65L58 66L60 66L60 65L59 65L59 64L57 64L57 65L56 65L56 66L55 66L55 65L53 65L53 64L54 64L54 61L53 61L53 60L54 60L54 59L55 59L55 60L56 60L56 61L55 61L55 62L56 62L56 61L57 61L57 60L56 60L56 59L57 59L57 58L56 58L56 59L55 59L55 58L54 58L54 59L53 59L53 58L52 58L52 59L48 59L48 60L47 60L47 62L46 62L46 61L45 61L45 60L44 60L44 59L47 59L47 57L50 57L50 58L51 58L51 57L54 57L54 56L55 56L55 57L56 57L56 56L55 56L55 55L54 55L54 56L53 56L53 55L51 55L51 56L50 56L50 55L49 55L49 56L46 56L46 55L48 55L48 53L51 53L51 54L52 54L52 53L53 53L53 52L54 52L54 53L55 53L55 54L56 54L56 53L57 53L57 52L58 52L58 51L57 51L57 50L58 50L58 49L57 49L57 50L56 50L56 49L53 49L53 48L56 48L56 47L57 47L57 48L58 48L58 47L57 47L57 46L58 46L58 45L59 45L59 44L58 44L58 43L59 43L59 42L60 42L60 43L61 43L61 41L62 41L62 42L63 42L63 43L64 43L64 41L65 41L65 42L67 42L67 41L68 41L68 39L71 39L71 41L72 41L72 42L73 42L73 39L74 39L74 38L75 38L75 39L76 39L76 40L75 40L75 41L76 41L76 40L77 40L77 39L78 39L78 38L77 38L77 39L76 39L76 37L77 37L77 35L75 35L75 36L76 36L76 37L74 37L74 36L73 36L73 35L72 35L72 37L71 37L71 38L70 38L70 37L69 37L69 36L68 36L68 37L69 37L69 38L68 38L68 39L64 39L64 38L63 38L63 39L64 39L64 40L62 40L62 37L63 37L63 35L64 35L64 36L65 36L65 35L64 35L64 34L63 34L63 35L62 35L62 36L61 36L61 38L60 38L60 39L61 39L61 40L60 40L60 41L59 41L59 40L58 40L58 41L57 41L57 40L56 40L56 41L55 41L55 39L56 39L56 38L57 38L57 39L59 39L59 38L58 38L58 36L60 36L60 35L59 35L59 34L58 34L58 33L57 33L57 32L56 32L56 33L55 33L55 35L53 35L53 34L54 34L54 33L53 33L53 34L52 34L52 33L51 33L51 34L50 34L50 35L49 35L49 34L48 34L48 35L49 35L49 36L50 36L50 35L51 35L51 36L52 36L52 35L53 35L53 36L55 36L55 39L54 39L54 38L53 38L53 37L51 37L51 40L52 40L52 38L53 38L53 40L54 40L54 41L53 41L53 43L52 43L52 41L50 41L50 37L49 37L49 39L48 39L48 38L47 38L47 36L45 36L45 35L47 35L47 34L45 34L45 32L46 32L46 31L45 31L45 28L44 28L44 30L42 30L42 31L40 31L40 30L39 30L39 31L37 31L37 29L39 29L39 27L38 27L38 26L39 26L39 25L40 25L40 24L34 24L34 23L40 23L40 22L38 22L38 21L37 21L37 20L36 20L36 19L35 19L35 20L32 20L32 19ZM82 19L82 20L85 20L85 19ZM94 19L94 21L95 21L95 19ZM96 19L96 21L98 21L98 20L97 20L97 19ZM29 20L29 21L30 21L30 20ZM31 20L31 21L32 21L32 20ZM43 20L43 21L44 21L44 22L45 22L45 21L44 21L44 20ZM2 21L2 23L3 23L3 21ZM35 21L35 22L36 22L36 21ZM57 21L57 22L59 22L59 21ZM81 21L81 22L82 22L82 21ZM89 21L89 22L90 22L90 21ZM9 22L9 23L10 23L10 22ZM29 22L29 23L27 23L27 25L26 25L26 24L25 24L25 25L22 25L22 26L25 26L25 25L26 25L26 26L27 26L27 25L28 25L28 24L29 24L29 23L32 23L32 24L30 24L30 25L29 25L29 26L32 26L32 27L31 27L31 29L32 29L32 28L35 28L35 29L36 29L36 28L38 28L38 27L36 27L36 26L35 26L35 25L34 25L34 24L33 24L33 23L34 23L34 22L33 22L33 23L32 23L32 22ZM87 22L87 23L86 23L86 24L87 24L87 25L88 25L88 24L90 24L90 25L91 25L91 23L88 23L88 22ZM98 22L98 23L99 23L99 22ZM6 23L6 24L7 24L7 23ZM71 23L71 24L72 24L72 23ZM87 23L87 24L88 24L88 23ZM93 23L93 25L94 25L94 26L95 26L95 25L94 25L94 23ZM32 24L32 26L34 26L34 27L35 27L35 26L34 26L34 25L33 25L33 24ZM51 24L51 25L52 25L52 24ZM61 24L61 25L62 25L62 26L63 26L63 25L62 25L62 24ZM97 24L97 25L98 25L98 24ZM37 25L37 26L38 26L38 25ZM77 25L77 26L78 26L78 25ZM16 26L16 28L15 28L15 29L18 29L18 30L19 30L19 29L18 29L18 28L17 28L17 26ZM40 26L40 28L41 28L41 29L42 29L42 28L41 28L41 26ZM66 26L66 27L67 27L67 28L64 28L64 29L67 29L67 28L68 28L68 30L66 30L66 31L68 31L68 32L69 32L69 33L71 33L71 32L72 32L72 31L71 31L71 32L70 32L70 31L69 31L69 30L70 30L70 26L69 26L69 27L68 27L68 26ZM80 26L80 27L81 27L81 28L82 28L82 27L81 27L81 26ZM5 27L5 30L8 30L8 27ZM27 27L27 30L30 30L30 27ZM49 27L49 30L52 30L52 27ZM71 27L71 30L74 30L74 27ZM93 27L93 30L96 30L96 27ZM98 27L98 29L100 29L100 28L99 28L99 27ZM6 28L6 29L7 29L7 28ZM13 28L13 30L14 30L14 28ZM28 28L28 29L29 29L29 28ZM50 28L50 29L51 29L51 28ZM72 28L72 29L73 29L73 28ZM94 28L94 29L95 29L95 28ZM61 29L61 30L62 30L62 29ZM84 29L84 30L85 30L85 29ZM31 30L31 31L32 31L32 32L33 32L33 31L34 31L34 32L37 32L37 34L38 34L38 35L39 35L39 36L38 36L38 37L37 37L37 38L36 38L36 39L34 39L34 40L33 40L33 39L32 39L32 40L33 40L33 43L32 43L32 44L33 44L33 45L34 45L34 46L36 46L36 45L35 45L35 44L38 44L38 43L39 43L39 42L41 42L41 43L42 43L42 44L43 44L43 42L44 42L44 44L45 44L45 45L46 45L46 46L45 46L45 47L46 47L46 48L47 48L47 49L46 49L46 50L47 50L47 51L44 51L44 52L42 52L42 54L40 54L40 55L41 55L41 56L42 56L42 55L43 55L43 57L44 57L44 56L45 56L45 58L46 58L46 56L45 56L45 55L43 55L43 54L44 54L44 52L46 52L46 54L47 54L47 53L48 53L48 50L47 50L47 49L48 49L48 47L50 47L50 48L51 48L51 46L53 46L53 47L52 47L52 48L53 48L53 47L56 47L56 46L57 46L57 43L58 43L58 42L59 42L59 41L58 41L58 42L57 42L57 43L56 43L56 42L55 42L55 41L54 41L54 43L55 43L55 44L56 44L56 45L55 45L55 46L54 46L54 45L53 45L53 44L52 44L52 45L51 45L51 46L50 46L50 45L49 45L49 44L48 44L48 43L46 43L46 42L47 42L47 41L48 41L48 39L47 39L47 38L46 38L46 37L45 37L45 36L44 36L44 37L43 37L43 38L41 38L41 37L42 37L42 36L40 36L40 35L45 35L45 34L44 34L44 33L43 33L43 34L42 34L42 32L43 32L43 31L42 31L42 32L41 32L41 33L38 33L38 32L37 32L37 31L34 31L34 30ZM2 31L2 33L1 33L1 34L2 34L2 33L3 33L3 31ZM6 31L6 32L7 32L7 31ZM21 31L21 32L22 32L22 31ZM39 31L39 32L40 32L40 31ZM44 31L44 32L45 32L45 31ZM9 32L9 35L10 35L10 32ZM92 32L92 35L93 35L93 34L95 34L95 33L93 33L93 32ZM96 32L96 35L97 35L97 37L98 37L98 38L97 38L97 39L98 39L98 38L99 38L99 39L101 39L101 36L100 36L100 35L101 35L101 32L99 32L99 33L98 33L98 32ZM33 33L33 34L36 34L36 33ZM74 33L74 34L75 34L75 33ZM4 34L4 35L8 35L8 34ZM98 34L98 37L99 37L99 34ZM56 35L56 37L57 37L57 36L58 36L58 35ZM66 35L66 37L65 37L65 38L66 38L66 37L67 37L67 35ZM4 36L4 37L3 37L3 38L4 38L4 37L5 37L5 38L6 38L6 39L7 39L7 38L6 38L6 37L7 37L7 36L6 36L6 37L5 37L5 36ZM39 36L39 37L38 37L38 38L37 38L37 40L36 40L36 43L37 43L37 42L39 42L39 41L41 41L41 40L42 40L42 42L43 42L43 41L44 41L44 42L46 42L46 41L47 41L47 39L45 39L45 38L44 38L44 39L45 39L45 40L43 40L43 39L40 39L40 40L39 40L39 39L38 39L38 38L40 38L40 36ZM73 37L73 38L74 38L74 37ZM81 39L81 40L82 40L82 39ZM0 40L0 41L1 41L1 40ZM25 40L25 43L26 43L26 44L27 44L27 42L28 42L28 41L27 41L27 40ZM37 40L37 41L38 41L38 40ZM45 40L45 41L46 41L46 40ZM34 41L34 43L33 43L33 44L34 44L34 43L35 43L35 41ZM96 41L96 42L97 42L97 41ZM100 41L100 44L101 44L101 41ZM0 42L0 43L1 43L1 44L0 44L0 46L2 46L2 45L1 45L1 44L2 44L2 43L3 43L3 44L4 44L4 42ZM49 42L49 43L50 43L50 44L51 44L51 42ZM7 43L7 44L8 44L8 43ZM10 43L10 44L11 44L11 43ZM18 43L18 44L19 44L19 43ZM45 43L45 44L46 44L46 45L47 45L47 46L46 46L46 47L47 47L47 46L48 46L48 45L47 45L47 44L46 44L46 43ZM22 44L22 45L23 45L23 44ZM7 45L7 46L8 46L8 45ZM9 45L9 46L10 46L10 45ZM72 45L72 47L73 47L73 48L75 48L75 50L78 50L78 51L80 51L80 48L81 48L81 47L80 47L80 48L79 48L79 50L78 50L78 49L76 49L76 48L75 48L75 47L74 47L74 46L73 46L73 45ZM100 45L100 47L101 47L101 45ZM21 46L21 47L23 47L23 46ZM67 46L67 47L70 47L70 46ZM86 46L86 47L87 47L87 46ZM91 46L91 47L92 47L92 46ZM98 46L98 47L99 47L99 46ZM14 47L14 48L15 48L15 47ZM25 47L25 48L26 48L26 47ZM39 47L39 48L40 48L40 47ZM3 48L3 50L2 50L2 52L3 52L3 53L4 53L4 51L3 51L3 50L4 50L4 48ZM99 48L99 49L100 49L100 52L101 52L101 49L100 49L100 48ZM5 49L5 52L8 52L8 49ZM27 49L27 52L30 52L30 49ZM49 49L49 52L52 52L52 49ZM69 49L69 50L70 50L70 49ZM71 49L71 52L74 52L74 49ZM93 49L93 52L96 52L96 49ZM6 50L6 51L7 51L7 50ZM28 50L28 51L29 51L29 50ZM31 50L31 51L32 51L32 52L33 52L33 51L32 51L32 50ZM50 50L50 51L51 51L51 50ZM54 50L54 52L55 52L55 53L56 53L56 52L57 52L57 51L56 51L56 50ZM72 50L72 51L73 51L73 50ZM94 50L94 51L95 51L95 50ZM37 51L37 52L38 52L38 51ZM39 51L39 53L40 53L40 51ZM55 51L55 52L56 52L56 51ZM59 52L59 54L58 54L58 55L57 55L57 56L59 56L59 55L62 55L62 56L63 56L63 55L65 55L65 54L63 54L63 53L62 53L62 52ZM66 52L66 53L67 53L67 54L68 54L68 55L69 55L69 57L71 57L71 56L72 56L72 55L69 55L69 53L68 53L68 52ZM78 52L78 53L79 53L79 52ZM6 53L6 54L7 54L7 53ZM15 53L15 55L16 55L16 54L17 54L17 53ZM28 53L28 54L29 54L29 53ZM61 53L61 54L62 54L62 55L63 55L63 54L62 54L62 53ZM36 54L36 55L37 55L37 56L38 56L38 55L37 55L37 54ZM73 55L73 56L74 56L74 55ZM1 56L1 57L2 57L2 56ZM6 56L6 57L7 57L7 56ZM76 56L76 59L75 59L75 60L76 60L76 59L79 59L79 58L80 58L80 57L79 57L79 58L78 58L78 57L77 57L77 56ZM83 56L83 57L85 57L85 56ZM25 57L25 58L26 58L26 57ZM28 57L28 58L29 58L29 57ZM41 57L41 58L40 58L40 59L41 59L41 61L42 61L42 59L44 59L44 58L42 58L42 57ZM94 57L94 63L93 63L93 64L95 64L95 63L96 63L96 62L97 62L97 61L95 61L95 57ZM97 57L97 58L96 58L96 59L97 59L97 58L98 58L98 57ZM1 58L1 59L2 59L2 58ZM18 58L18 59L17 59L17 60L18 60L18 61L19 61L19 60L18 60L18 59L19 59L19 58ZM81 58L81 59L82 59L82 62L84 62L84 61L83 61L83 60L86 60L86 61L87 61L87 60L86 60L86 59L82 59L82 58ZM91 58L91 59L92 59L92 58ZM12 59L12 60L13 60L13 59ZM52 59L52 60L53 60L53 59ZM3 60L3 61L1 61L1 62L5 62L5 61L4 61L4 60ZM8 60L8 61L10 61L10 60ZM43 60L43 62L42 62L42 63L41 63L41 64L43 64L43 62L44 62L44 64L45 64L45 63L46 63L46 65L45 65L45 66L47 66L47 65L50 65L50 64L51 64L51 66L50 66L50 67L55 67L55 66L53 66L53 65L52 65L52 64L53 64L53 61L50 61L50 60L48 60L48 62L47 62L47 63L46 63L46 62L44 62L44 60ZM63 60L63 62L64 62L64 63L65 63L65 62L64 62L64 61L65 61L65 60ZM49 61L49 62L50 62L50 61ZM74 61L74 63L77 63L77 62L75 62L75 61ZM51 62L51 64L52 64L52 62ZM85 62L85 63L87 63L87 62ZM38 63L38 64L39 64L39 63ZM55 63L55 64L56 64L56 63ZM81 64L81 65L82 65L82 64ZM64 65L64 66L65 66L65 65ZM8 66L8 67L9 67L9 66ZM80 66L80 67L81 67L81 66ZM31 67L31 68L32 68L32 69L31 69L31 70L32 70L32 71L33 71L33 68L32 68L32 67ZM93 67L93 68L94 68L94 67ZM6 68L6 69L7 69L7 68ZM8 68L8 69L9 69L9 68ZM15 68L15 69L17 69L17 70L18 70L18 72L17 72L17 73L18 73L18 74L19 74L19 73L18 73L18 72L19 72L19 70L21 70L21 69L19 69L19 70L18 70L18 69L17 69L17 68ZM82 68L82 69L83 69L83 68ZM84 68L84 70L82 70L82 71L81 71L81 72L82 72L82 71L85 71L85 72L83 72L83 73L85 73L85 74L84 74L84 75L83 75L83 74L82 74L82 73L81 73L81 75L83 75L83 76L82 76L82 77L81 77L81 76L80 76L80 75L78 75L78 74L79 74L79 73L76 73L76 74L77 74L77 75L78 75L78 76L79 76L79 79L78 79L78 82L79 82L79 80L80 80L80 79L81 79L81 81L80 81L80 83L79 83L79 84L78 84L78 83L76 83L76 84L72 84L72 85L71 85L71 86L72 86L72 85L74 85L74 86L75 86L75 87L74 87L74 88L73 88L73 90L74 90L74 91L76 91L76 89L74 89L74 88L75 88L75 87L76 87L76 88L80 88L80 86L82 86L82 87L85 87L85 88L87 88L87 89L86 89L86 90L84 90L84 89L83 89L83 88L81 88L81 89L77 89L77 90L80 90L80 91L81 91L81 89L82 89L82 91L86 91L86 94L87 94L87 91L88 91L88 90L94 90L94 91L95 91L95 90L94 90L94 88L93 88L93 87L92 87L92 86L91 86L91 87L90 87L90 86L89 86L89 87L88 87L88 86L87 86L87 87L86 87L86 85L85 85L85 84L84 84L84 83L86 83L86 84L87 84L87 83L86 83L86 82L85 82L85 81L84 81L84 82L83 82L83 81L82 81L82 79L85 79L85 80L87 80L87 79L88 79L88 76L87 76L87 75L86 75L86 74L88 74L88 73L87 73L87 71L88 71L88 72L89 72L89 71L90 71L90 70L89 70L89 71L88 71L88 70L87 70L87 71L86 71L86 70L85 70L85 68ZM27 69L27 70L29 70L29 69ZM59 69L59 71L58 71L58 72L61 72L61 73L62 73L62 74L63 74L63 73L64 73L64 71L63 71L63 70L61 70L61 69ZM77 69L77 71L76 71L76 72L77 72L77 71L78 71L78 72L80 72L80 71L78 71L78 70L79 70L79 69ZM3 70L3 71L4 71L4 70ZM40 70L40 72L42 72L42 73L41 73L41 74L40 74L40 75L39 75L39 76L36 76L36 79L38 79L38 78L39 78L39 79L40 79L40 80L38 80L38 81L40 81L40 80L42 80L42 81L44 81L44 80L43 80L43 79L40 79L40 78L39 78L39 77L40 77L40 76L43 76L43 77L41 77L41 78L43 78L43 77L44 77L44 79L45 79L45 80L46 80L46 79L47 79L47 81L48 81L48 79L49 79L49 78L47 78L47 77L46 77L46 75L45 75L45 73L44 73L44 72L43 72L43 71L41 71L41 70ZM60 70L60 71L61 71L61 72L63 72L63 71L61 71L61 70ZM97 70L97 72L98 72L98 73L99 73L99 74L98 74L98 75L96 75L96 76L95 76L95 75L94 75L94 76L95 76L95 77L94 77L94 78L95 78L95 77L99 77L99 78L97 78L97 79L98 79L98 80L99 80L99 79L100 79L100 77L99 77L99 75L100 75L100 73L99 73L99 71L98 71L98 70ZM5 71L5 74L8 74L8 71ZM20 71L20 73L21 73L21 71ZM24 71L24 72L26 72L26 71ZM27 71L27 74L30 74L30 71ZM49 71L49 74L52 74L52 71ZM71 71L71 74L74 74L74 71ZM93 71L93 74L96 74L96 71ZM6 72L6 73L7 73L7 72ZM28 72L28 73L29 73L29 72ZM47 72L47 74L48 74L48 72ZM50 72L50 73L51 73L51 72ZM72 72L72 73L73 73L73 72ZM94 72L94 73L95 73L95 72ZM22 73L22 74L21 74L21 76L20 76L20 75L19 75L19 76L20 76L20 77L21 77L21 76L22 76L22 75L23 75L23 73ZM42 73L42 74L41 74L41 75L43 75L43 76L45 76L45 75L44 75L44 74L43 74L43 73ZM24 74L24 75L25 75L25 74ZM31 75L31 76L32 76L32 75ZM52 75L52 76L53 76L53 77L54 77L54 76L53 76L53 75ZM70 75L70 76L71 76L71 75ZM84 75L84 76L83 76L83 77L82 77L82 78L81 78L81 79L82 79L82 78L85 78L85 77L86 77L86 79L87 79L87 76L86 76L86 75ZM92 75L92 76L93 76L93 75ZM4 76L4 77L5 77L5 78L6 78L6 79L7 79L7 78L6 78L6 77L7 77L7 76L6 76L6 77L5 77L5 76ZM23 76L23 77L25 77L25 78L26 78L26 77L25 77L25 76ZM33 76L33 77L34 77L34 78L35 78L35 76ZM0 78L0 79L1 79L1 78ZM32 78L32 79L33 79L33 78ZM45 78L45 79L46 79L46 78ZM53 78L53 79L56 79L56 80L57 80L57 81L58 81L58 80L57 80L57 79L58 79L58 78L57 78L57 79L56 79L56 78ZM63 79L63 80L64 80L64 79ZM73 79L73 80L71 80L71 81L73 81L73 83L75 83L75 82L77 82L77 79L75 79L75 80L74 80L74 79ZM16 80L16 82L18 82L18 81L19 81L19 82L20 82L20 81L19 81L19 80ZM75 80L75 81L76 81L76 80ZM0 81L0 82L1 82L1 81ZM6 81L6 82L7 82L7 81ZM9 81L9 82L10 82L10 81ZM21 81L21 83L20 83L20 84L17 84L17 83L16 83L16 86L15 86L15 87L16 87L16 89L17 89L17 92L18 92L18 91L19 91L19 90L18 90L18 89L17 89L17 88L19 88L19 89L20 89L20 88L19 88L19 87L20 87L20 86L19 86L19 87L18 87L18 85L21 85L21 86L22 86L22 87L21 87L21 88L23 88L23 86L22 86L22 85L21 85L21 83L22 83L22 84L24 84L24 83L25 83L25 82L24 82L24 81L23 81L23 82L22 82L22 81ZM29 81L29 82L30 82L30 84L28 84L28 85L29 85L29 86L30 86L30 85L31 85L31 82L30 82L30 81ZM61 81L61 82L62 82L62 81ZM81 81L81 83L80 83L80 85L81 85L81 83L82 83L82 81ZM100 81L100 83L99 83L99 84L100 84L100 87L101 87L101 81ZM23 82L23 83L24 83L24 82ZM39 82L39 83L38 83L38 84L39 84L39 85L40 85L40 86L38 86L38 85L37 85L37 84L36 84L36 83L35 83L35 85L36 85L36 86L37 86L37 87L40 87L40 86L41 86L41 85L40 85L40 84L39 84L39 83L40 83L40 82ZM66 82L66 83L69 83L69 82ZM89 82L89 83L92 83L92 82ZM4 83L4 84L5 84L5 83ZM14 83L14 84L15 84L15 83ZM0 84L0 85L1 85L1 86L2 86L2 85L1 85L1 84ZM10 84L10 85L11 85L11 84ZM76 84L76 85L75 85L75 86L76 86L76 87L79 87L79 85L78 85L78 86L77 86L77 84ZM83 84L83 85L84 85L84 84ZM6 85L6 86L4 86L4 87L5 87L5 91L4 91L4 92L5 92L5 91L6 91L6 92L7 92L7 91L6 91L6 90L7 90L7 89L6 89L6 88L7 88L7 87L6 87L6 86L7 86L7 85ZM60 86L60 87L62 87L62 86ZM47 87L47 88L48 88L48 87ZM87 87L87 88L88 88L88 89L89 89L89 88L88 88L88 87ZM91 87L91 88L92 88L92 87ZM95 87L95 89L96 89L96 90L97 90L97 91L98 91L98 90L97 90L97 89L96 89L96 87ZM34 88L34 89L35 89L35 88ZM41 88L41 89L39 89L39 90L38 90L38 91L39 91L39 93L40 93L40 91L44 91L44 90L43 90L43 89L42 89L42 88ZM53 88L53 89L51 89L51 91L52 91L52 90L53 90L53 89L54 89L54 88ZM56 88L56 89L57 89L57 90L56 90L56 91L55 91L55 94L57 94L57 95L59 95L59 97L60 97L60 99L62 99L62 98L61 98L61 97L65 97L65 98L67 98L67 96L68 96L68 95L67 95L67 96L66 96L66 95L64 95L64 94L63 94L63 95L62 95L62 94L61 94L61 95L62 95L62 96L60 96L60 95L59 95L59 93L58 93L58 94L57 94L57 93L56 93L56 91L57 91L57 92L58 92L58 91L60 91L60 89L59 89L59 88ZM3 89L3 90L4 90L4 89ZM58 89L58 90L57 90L57 91L58 91L58 90L59 90L59 89ZM22 90L22 91L21 91L21 92L20 92L20 94L21 94L21 93L22 93L22 92L23 92L23 93L24 93L24 92L23 92L23 90ZM26 90L26 91L27 91L27 90ZM39 90L39 91L40 91L40 90ZM86 90L86 91L87 91L87 90ZM90 92L90 93L91 93L91 92ZM27 93L27 96L30 96L30 93ZM36 93L36 94L37 94L37 93ZM49 93L49 96L52 96L52 93ZM71 93L71 96L74 96L74 93ZM93 93L93 96L96 96L96 93ZM11 94L11 95L12 95L12 94ZM16 94L16 95L17 95L17 94ZM28 94L28 95L29 95L29 94ZM42 94L42 95L43 95L43 94ZM44 94L44 95L45 95L45 94ZM50 94L50 95L51 95L51 94ZM72 94L72 95L73 95L73 94ZM94 94L94 95L95 95L95 94ZM8 95L8 97L9 97L9 95ZM63 95L63 96L64 96L64 95ZM11 96L11 98L10 98L10 99L9 99L9 100L12 100L12 98L13 98L13 97L12 97L12 96ZM65 96L65 97L66 97L66 96ZM44 97L44 98L45 98L45 97ZM47 97L47 98L48 98L48 97ZM92 97L92 99L93 99L93 100L94 100L94 99L95 99L95 98L93 98L93 97ZM34 98L34 99L35 99L35 98ZM54 98L54 100L55 100L55 98ZM99 98L99 101L100 101L100 100L101 100L101 98ZM84 99L84 100L86 100L86 99ZM48 100L48 101L50 101L50 100ZM0 0L0 7L7 7L7 0ZM1 1L1 6L6 6L6 1ZM2 2L2 5L5 5L5 2ZM94 0L94 7L101 7L101 0ZM95 1L95 6L100 6L100 1ZM96 2L96 5L99 5L99 2ZM0 94L0 101L7 101L7 94ZM1 95L1 100L6 100L6 95ZM2 96L2 99L5 99L5 96Z" fill="#000000"/></g></g></svg>
