<?xml version="1.0" encoding="UTF-8"?>
<svg xmlns="http://www.w3.org/2000/svg" version="1.1" width="300" height="300" viewBox="0 0 300 300"><rect x="0" y="0" width="300" height="300" fill="#ffffff"/><g transform="scale(12)"><g transform="translate(0,0)"><path fill-rule="evenodd" d="M8 0L8 1L11 1L11 3L10 3L10 2L9 2L9 3L10 3L10 5L9 5L9 6L8 6L8 8L9 8L9 9L10 9L10 10L8 10L8 9L7 9L7 8L6 8L6 9L5 9L5 8L3 8L3 10L1 10L1 11L0 11L0 12L2 12L2 13L0 13L0 17L1 17L1 15L3 15L3 17L4 17L4 16L5 16L5 15L7 15L7 16L6 16L6 17L8 17L8 18L9 18L9 19L10 19L10 21L9 21L9 20L8 20L8 22L9 22L9 23L8 23L8 25L10 25L10 21L11 21L11 23L12 23L12 24L11 24L11 25L13 25L13 24L14 24L14 25L18 25L18 24L19 24L19 25L20 25L20 23L22 23L22 22L20 22L20 23L18 23L18 22L19 22L19 21L22 21L22 20L23 20L23 19L24 19L24 17L23 17L23 18L22 18L22 16L20 16L20 15L19 15L19 16L16 16L16 19L15 19L15 17L14 17L14 16L15 16L15 15L17 15L17 14L15 14L15 11L17 11L17 12L16 12L16 13L18 13L18 14L20 14L20 13L21 13L21 15L22 15L22 13L23 13L23 16L25 16L25 15L24 15L24 14L25 14L25 13L24 13L24 12L25 12L25 11L24 11L24 12L23 12L23 11L22 11L22 10L25 10L25 8L24 8L24 9L22 9L22 10L20 10L20 9L19 9L19 8L18 8L18 10L15 10L15 11L13 11L13 10L14 10L14 9L17 9L17 6L16 6L16 7L15 7L15 5L17 5L17 4L15 4L15 3L17 3L17 1L16 1L16 2L15 2L15 3L14 3L14 2L13 2L13 1L12 1L12 0ZM14 0L14 1L15 1L15 0ZM12 2L12 4L13 4L13 5L12 5L12 6L11 6L11 5L10 5L10 6L9 6L9 7L10 7L10 9L11 9L11 10L10 10L10 11L8 11L8 10L7 10L7 9L6 9L6 10L7 10L7 11L5 11L5 10L3 10L3 11L2 11L2 12L3 12L3 11L4 11L4 12L11 12L11 15L10 15L10 14L9 14L9 13L6 13L6 14L9 14L9 15L10 15L10 18L11 18L11 16L12 16L12 12L13 12L13 14L14 14L14 12L13 12L13 11L12 11L12 10L13 10L13 9L14 9L14 6L13 6L13 5L15 5L15 4L14 4L14 3L13 3L13 2ZM10 6L10 7L11 7L11 6ZM12 6L12 9L13 9L13 6ZM0 8L0 9L2 9L2 8ZM20 11L20 12L21 12L21 13L22 13L22 11ZM18 12L18 13L19 13L19 12ZM4 13L4 14L3 14L3 15L4 15L4 14L5 14L5 13ZM13 15L13 16L14 16L14 15ZM12 17L12 18L13 18L13 19L11 19L11 21L12 21L12 20L13 20L13 19L14 19L14 17ZM17 17L17 20L20 20L20 17ZM18 18L18 19L19 19L19 18ZM21 19L21 20L22 20L22 19ZM14 20L14 22L13 22L13 23L14 23L14 22L15 22L15 21L16 21L16 23L15 23L15 24L16 24L16 23L17 23L17 22L18 22L18 21L16 21L16 20ZM24 20L24 21L23 21L23 24L21 24L21 25L25 25L25 24L24 24L24 23L25 23L25 20ZM0 0L0 7L7 7L7 0ZM1 1L1 6L6 6L6 1ZM2 2L2 5L5 5L5 2ZM18 0L18 7L25 7L25 0ZM19 1L19 6L24 6L24 1ZM20 2L20 5L23 5L23 2ZM0 18L0 25L7 25L7 18ZM1 19L1 24L6 24L6 19ZM2 20L2 23L5 23L5 20Z" fill="#000000"/></g></g></svg>
