<?xml version="1.0" encoding="UTF-8"?>
<svg xmlns="http://www.w3.org/2000/svg" version="1.1" width="300" height="300" viewBox="0 0 300 300"><rect x="0" y="0" width="300" height="300" fill="#ffffff"/><g transform="scale(3.093)"><g transform="translate(0,0)"><path fill-rule="evenodd" d="M9 0L9 1L8 1L8 2L9 2L9 1L10 1L10 3L8 3L8 4L10 4L10 5L8 5L8 7L9 7L9 6L10 6L10 7L11 7L11 6L12 6L12 7L13 7L13 6L14 6L14 7L15 7L15 9L16 9L16 10L15 10L15 11L16 11L16 12L14 12L14 16L12 16L12 15L11 15L11 14L13 14L13 12L12 12L12 11L11 11L11 14L10 14L10 15L11 15L11 17L7 17L7 16L8 16L8 14L9 14L9 11L10 11L10 8L6 8L6 9L5 9L5 8L0 8L0 10L1 10L1 13L0 13L0 15L2 15L2 16L1 16L1 19L0 19L0 20L1 20L1 21L0 21L0 29L1 29L1 28L2 28L2 29L3 29L3 31L4 31L4 32L2 32L2 30L0 30L0 31L1 31L1 33L0 33L0 35L1 35L1 36L0 36L0 38L3 38L3 40L2 40L2 39L1 39L1 43L2 43L2 44L3 44L3 45L4 45L4 47L2 47L2 46L1 46L1 49L0 49L0 53L2 53L2 54L4 54L4 51L5 51L5 53L7 53L7 54L6 54L6 55L8 55L8 53L7 53L7 52L6 52L6 51L8 51L8 52L9 52L9 57L8 57L8 56L6 56L6 57L5 57L5 55L3 55L3 56L4 56L4 58L6 58L6 59L7 59L7 58L8 58L8 59L9 59L9 60L4 60L4 59L2 59L2 58L3 58L3 57L2 57L2 55L1 55L1 57L0 57L0 60L1 60L1 61L0 61L0 62L1 62L1 63L0 63L0 66L4 66L4 65L5 65L5 66L6 66L6 67L7 67L7 66L8 66L8 65L9 65L9 67L8 67L8 68L9 68L9 67L10 67L10 70L11 70L11 71L12 71L12 70L11 70L11 68L12 68L12 69L13 69L13 73L14 73L14 74L13 74L13 75L14 75L14 76L13 76L13 77L12 77L12 78L13 78L13 79L10 79L10 78L11 78L11 77L9 77L9 76L11 76L11 75L9 75L9 74L10 74L10 73L12 73L12 72L10 72L10 71L9 71L9 72L10 72L10 73L9 73L9 74L8 74L8 73L7 73L7 72L5 72L5 71L4 71L4 75L7 75L7 76L3 76L3 75L2 75L2 74L1 74L1 72L2 72L2 73L3 73L3 72L2 72L2 71L3 71L3 70L4 70L4 68L3 68L3 69L2 69L2 67L1 67L1 70L0 70L0 74L1 74L1 75L2 75L2 77L1 77L1 76L0 76L0 79L1 79L1 80L0 80L0 82L1 82L1 83L2 83L2 84L3 84L3 83L4 83L4 84L5 84L5 83L4 83L4 82L5 82L5 81L4 81L4 79L5 79L5 80L6 80L6 81L7 81L7 80L8 80L8 78L6 78L6 77L7 77L7 76L8 76L8 77L9 77L9 79L10 79L10 81L11 81L11 82L15 82L15 80L13 80L13 79L16 79L16 80L17 80L17 81L18 81L18 82L19 82L19 81L18 81L18 79L19 79L19 78L20 78L20 79L21 79L21 80L20 80L20 81L22 81L22 82L21 82L21 83L19 83L19 84L21 84L21 85L22 85L22 86L23 86L23 87L21 87L21 86L20 86L20 89L18 89L18 87L19 87L19 85L18 85L18 84L17 84L17 85L16 85L16 84L15 84L15 86L14 86L14 85L13 85L13 84L14 84L14 83L12 83L12 85L11 85L11 87L10 87L10 86L9 86L9 84L10 84L10 83L7 83L7 82L6 82L6 83L7 83L7 84L6 84L6 85L7 85L7 86L6 86L6 87L5 87L5 88L3 88L3 87L2 87L2 88L1 88L1 87L0 87L0 89L5 89L5 88L6 88L6 89L8 89L8 91L9 91L9 90L10 90L10 91L11 91L11 93L10 93L10 92L8 92L8 97L11 97L11 95L12 95L12 94L11 94L11 93L12 93L12 90L10 90L10 88L11 88L11 89L13 89L13 90L14 90L14 91L15 91L15 93L16 93L16 94L15 94L15 95L14 95L14 92L13 92L13 95L14 95L14 97L18 97L18 96L17 96L17 95L19 95L19 97L22 97L22 96L23 96L23 97L24 97L24 96L25 96L25 95L26 95L26 94L28 94L28 93L27 93L27 92L28 92L28 91L29 91L29 92L31 92L31 91L29 91L29 90L32 90L32 94L33 94L33 93L34 93L34 94L36 94L36 95L35 95L35 96L34 96L34 95L33 95L33 96L34 96L34 97L35 97L35 96L36 96L36 97L37 97L37 96L36 96L36 95L37 95L37 94L36 94L36 93L37 93L37 91L38 91L38 93L39 93L39 94L38 94L38 95L40 95L40 94L43 94L43 95L41 95L41 97L42 97L42 96L43 96L43 97L44 97L44 96L45 96L45 97L46 97L46 96L47 96L47 97L52 97L52 96L53 96L53 95L54 95L54 96L55 96L55 97L56 97L56 92L57 92L57 93L58 93L58 91L59 91L59 90L60 90L60 93L64 93L64 94L65 94L65 95L64 95L64 96L63 96L63 95L62 95L62 94L60 94L60 96L61 96L61 97L65 97L65 95L66 95L66 96L68 96L68 94L70 94L70 93L69 93L69 92L70 92L70 91L71 91L71 92L72 92L72 93L71 93L71 95L70 95L70 96L72 96L72 95L73 95L73 97L76 97L76 96L77 96L77 97L79 97L79 96L80 96L80 97L83 97L83 96L84 96L84 95L85 95L85 97L87 97L87 93L88 93L88 95L90 95L90 96L92 96L92 97L97 97L97 93L96 93L96 96L92 96L92 94L94 94L94 95L95 95L95 94L94 94L94 93L95 93L95 92L97 92L97 89L96 89L96 88L94 88L94 87L93 87L93 86L92 86L92 85L97 85L97 84L96 84L96 83L97 83L97 82L94 82L94 81L95 81L95 80L97 80L97 78L95 78L95 76L92 76L92 73L93 73L93 74L94 74L94 73L97 73L97 70L96 70L96 69L97 69L97 68L96 68L96 67L97 67L97 66L95 66L95 68L94 68L94 69L95 69L95 72L94 72L94 73L93 73L93 72L92 72L92 73L91 73L91 72L90 72L90 73L89 73L89 69L93 69L93 67L94 67L94 66L90 66L90 67L88 67L88 66L83 66L83 64L84 64L84 63L87 63L87 61L86 61L86 59L89 59L89 60L88 60L88 64L86 64L86 65L95 65L95 64L96 64L96 65L97 65L97 64L96 64L96 63L97 63L97 61L96 61L96 59L97 59L97 58L96 58L96 57L97 57L97 56L96 56L96 55L97 55L97 54L96 54L96 55L95 55L95 56L93 56L93 55L94 55L94 53L96 53L96 52L94 52L94 53L93 53L93 55L91 55L91 53L92 53L92 52L93 52L93 51L97 51L97 50L94 50L94 49L96 49L96 48L94 48L94 49L92 49L92 48L93 48L93 47L94 47L94 46L93 46L93 47L92 47L92 46L91 46L91 45L92 45L92 41L90 41L90 40L91 40L91 39L92 39L92 40L93 40L93 43L94 43L94 42L95 42L95 40L93 40L93 32L92 32L92 31L93 31L93 29L95 29L95 31L96 31L96 33L94 33L94 35L95 35L95 36L94 36L94 38L95 38L95 39L97 39L97 38L95 38L95 36L96 36L96 35L97 35L97 30L96 30L96 29L97 29L97 26L96 26L96 25L97 25L97 18L95 18L95 17L97 17L97 16L96 16L96 15L97 15L97 12L96 12L96 13L95 13L95 12L93 12L93 13L92 13L92 15L93 15L93 13L94 13L94 15L95 15L95 16L94 16L94 17L93 17L93 18L92 18L92 16L90 16L90 15L91 15L91 14L90 14L90 15L89 15L89 12L90 12L90 13L91 13L91 12L92 12L92 11L93 11L93 10L94 10L94 11L97 11L97 10L94 10L94 8L93 8L93 9L92 9L92 8L91 8L91 10L90 10L90 8L88 8L88 7L89 7L89 6L88 6L88 5L89 5L89 0L87 0L87 1L88 1L88 2L87 2L87 3L88 3L88 5L87 5L87 6L86 6L86 4L85 4L85 3L86 3L86 2L85 2L85 1L86 1L86 0L85 0L85 1L84 1L84 0L83 0L83 1L82 1L82 0L81 0L81 1L82 1L82 2L83 2L83 3L84 3L84 4L83 4L83 5L84 5L84 7L83 7L83 6L82 6L82 7L81 7L81 5L82 5L82 4L81 4L81 2L78 2L78 1L80 1L80 0L78 0L78 1L76 1L76 0L74 0L74 1L71 1L71 0L69 0L69 1L68 1L68 0L66 0L66 1L68 1L68 2L65 2L65 1L64 1L64 0L62 0L62 1L64 1L64 2L62 2L62 3L68 3L68 4L66 4L66 5L65 5L65 4L61 4L61 3L60 3L60 2L61 2L61 0L60 0L60 2L59 2L59 1L57 1L57 0L53 0L53 1L55 1L55 3L60 3L60 7L59 7L59 5L57 5L57 6L56 6L56 5L55 5L55 4L53 4L53 5L55 5L55 6L54 6L54 8L53 8L53 6L52 6L52 5L51 5L51 6L50 6L50 7L49 7L49 6L48 6L48 5L50 5L50 4L52 4L52 3L54 3L54 2L52 2L52 3L50 3L50 4L49 4L49 3L48 3L48 5L45 5L45 4L44 4L44 2L42 2L42 3L41 3L41 1L43 1L43 0L41 0L41 1L38 1L38 0L33 0L33 1L35 1L35 2L40 2L40 3L41 3L41 5L43 5L43 4L44 4L44 5L45 5L45 6L44 6L44 8L45 8L45 9L44 9L44 10L45 10L45 9L47 9L47 6L48 6L48 7L49 7L49 8L48 8L48 9L50 9L50 8L51 8L51 10L50 10L50 12L48 12L48 11L49 11L49 10L46 10L46 11L43 11L43 6L42 6L42 7L41 7L41 6L40 6L40 7L39 7L39 5L38 5L38 4L39 4L39 3L37 3L37 4L36 4L36 3L35 3L35 4L33 4L33 3L34 3L34 2L33 2L33 3L30 3L30 4L29 4L29 3L28 3L28 4L27 4L27 3L26 3L26 4L25 4L25 5L24 5L24 7L23 7L23 6L22 6L22 5L21 5L21 4L22 4L22 3L23 3L23 4L24 4L24 3L25 3L25 2L24 2L24 1L23 1L23 0L22 0L22 2L21 2L21 4L20 4L20 1L21 1L21 0L18 0L18 1L17 1L17 0L15 0L15 1L14 1L14 2L13 2L13 1L12 1L12 0ZM25 0L25 1L26 1L26 0ZM27 0L27 2L29 2L29 1L30 1L30 2L32 2L32 1L30 1L30 0L29 0L29 1L28 1L28 0ZM45 0L45 3L47 3L47 2L48 2L48 1L49 1L49 2L51 2L51 1L52 1L52 0L51 0L51 1L50 1L50 0L48 0L48 1L46 1L46 0ZM11 1L11 2L12 2L12 3L11 3L11 4L12 4L12 5L14 5L14 4L15 4L15 7L16 7L16 9L17 9L17 10L16 10L16 11L17 11L17 12L16 12L16 14L17 14L17 15L15 15L15 17L13 17L13 19L12 19L12 17L11 17L11 19L10 19L10 18L9 18L9 19L8 19L8 18L7 18L7 17L6 17L6 16L7 16L7 15L6 15L6 16L5 16L5 13L6 13L6 14L7 14L7 13L6 13L6 12L8 12L8 11L9 11L9 9L6 9L6 10L4 10L4 9L2 9L2 11L3 11L3 12L4 12L4 11L5 11L5 13L2 13L2 14L4 14L4 16L5 16L5 17L4 17L4 18L3 18L3 16L2 16L2 18L3 18L3 19L2 19L2 20L3 20L3 21L4 21L4 22L1 22L1 23L4 23L4 24L3 24L3 25L2 25L2 24L1 24L1 27L2 27L2 28L5 28L5 23L4 23L4 22L7 22L7 23L6 23L6 24L7 24L7 25L6 25L6 26L8 26L8 22L7 22L7 21L6 21L6 20L7 20L7 19L8 19L8 21L9 21L9 23L10 23L10 25L11 25L11 26L9 26L9 30L8 30L8 28L7 28L7 27L6 27L6 28L7 28L7 29L6 29L6 30L5 30L5 29L4 29L4 31L5 31L5 32L8 32L8 31L9 31L9 30L10 30L10 31L11 31L11 30L10 30L10 28L11 28L11 26L12 26L12 28L13 28L13 29L12 29L12 30L13 30L13 29L14 29L14 30L15 30L15 32L14 32L14 31L12 31L12 32L11 32L11 34L12 34L12 33L14 33L14 34L13 34L13 35L12 35L12 36L13 36L13 35L14 35L14 37L11 37L11 39L13 39L13 40L11 40L11 41L12 41L12 42L7 42L7 41L9 41L9 40L10 40L10 39L4 39L4 40L3 40L3 41L2 41L2 42L3 42L3 41L4 41L4 43L6 43L6 44L5 44L5 47L6 47L6 48L8 48L8 51L9 51L9 52L10 52L10 54L12 54L12 56L11 56L11 55L10 55L10 56L11 56L11 57L9 57L9 58L11 58L11 59L10 59L10 60L11 60L11 61L13 61L13 62L12 62L12 65L11 65L11 64L10 64L10 63L9 63L9 64L10 64L10 66L12 66L12 68L13 68L13 69L14 69L14 70L15 70L15 71L16 71L16 69L18 69L18 68L19 68L19 71L20 71L20 73L19 73L19 72L18 72L18 74L19 74L19 75L18 75L18 77L17 77L17 76L16 76L16 75L17 75L17 74L14 74L14 75L15 75L15 78L16 78L16 79L18 79L18 78L19 78L19 75L20 75L20 73L22 73L22 72L24 72L24 73L23 73L23 74L22 74L22 75L21 75L21 76L20 76L20 78L21 78L21 79L22 79L22 77L23 77L23 80L22 80L22 81L23 81L23 82L22 82L22 83L21 83L21 84L23 84L23 85L25 85L25 86L24 86L24 87L26 87L26 88L25 88L25 89L26 89L26 88L27 88L27 89L28 89L28 90L29 90L29 89L32 89L32 88L31 88L31 87L37 87L37 90L39 90L39 91L40 91L40 89L42 89L42 88L39 88L39 87L38 87L38 86L39 86L39 85L38 85L38 86L37 86L37 84L39 84L39 83L40 83L40 82L41 82L41 84L40 84L40 85L41 85L41 87L43 87L43 88L44 88L44 89L45 89L45 88L44 88L44 87L46 87L46 90L44 90L44 91L43 91L43 90L41 90L41 91L43 91L43 92L44 92L44 93L45 93L45 94L44 94L44 95L43 95L43 96L44 96L44 95L45 95L45 94L48 94L48 93L45 93L45 92L44 92L44 91L46 91L46 92L49 92L49 91L48 91L48 90L49 90L49 89L50 89L50 93L49 93L49 94L51 94L51 95L47 95L47 96L52 96L52 95L53 95L53 94L54 94L54 95L55 95L55 94L54 94L54 93L55 93L55 92L56 92L56 91L58 91L58 90L59 90L59 89L60 89L60 88L59 88L59 87L62 87L62 86L61 86L61 85L60 85L60 86L59 86L59 83L62 83L62 82L63 82L63 83L64 83L64 84L62 84L62 85L64 85L64 86L63 86L63 87L64 87L64 86L67 86L67 88L66 88L66 87L65 87L65 90L66 90L66 91L65 91L65 94L66 94L66 95L67 95L67 94L68 94L68 92L67 92L67 91L70 91L70 90L71 90L71 91L73 91L73 90L74 90L74 88L73 88L73 87L72 87L72 86L74 86L74 85L75 85L75 84L76 84L76 81L77 81L77 82L78 82L78 83L77 83L77 84L78 84L78 83L79 83L79 85L80 85L80 81L84 81L84 80L83 80L83 79L82 79L82 78L84 78L84 79L85 79L85 82L86 82L86 84L87 84L87 86L86 86L86 85L85 85L85 86L86 86L86 87L85 87L85 88L83 88L83 87L84 87L84 86L83 86L83 85L84 85L84 84L85 84L85 83L84 83L84 82L83 82L83 83L84 83L84 84L81 84L81 85L82 85L82 86L81 86L81 87L82 87L82 88L78 88L78 87L80 87L80 86L78 86L78 85L77 85L77 86L76 86L76 87L75 87L75 88L76 88L76 89L75 89L75 91L74 91L74 92L76 92L76 91L77 91L77 90L78 90L78 91L82 91L82 92L81 92L81 93L83 93L83 94L84 94L84 93L85 93L85 94L86 94L86 93L87 93L87 92L88 92L88 90L87 90L87 91L84 91L84 90L86 90L86 89L88 89L88 88L93 88L93 87L92 87L92 86L91 86L91 85L92 85L92 84L91 84L91 83L92 83L92 82L93 82L93 84L95 84L95 83L94 83L94 82L93 82L93 81L94 81L94 80L95 80L95 78L93 78L93 77L92 77L92 76L91 76L91 73L90 73L90 74L88 74L88 75L89 75L89 76L88 76L88 77L89 77L89 78L88 78L88 79L87 79L87 80L88 80L88 81L87 81L87 82L86 82L86 79L85 79L85 78L87 78L87 77L86 77L86 76L87 76L87 75L83 75L83 77L82 77L82 74L81 74L81 73L80 73L80 72L79 72L79 73L78 73L78 71L79 71L79 70L78 70L78 69L77 69L77 70L76 70L76 71L74 71L74 72L73 72L73 71L72 71L72 70L74 70L74 69L75 69L75 68L76 68L76 67L77 67L77 68L79 68L79 69L80 69L80 68L79 68L79 67L82 67L82 68L83 68L83 69L82 69L82 70L80 70L80 71L82 71L82 72L83 72L83 74L84 74L84 73L85 73L85 74L86 74L86 73L88 73L88 71L85 71L85 70L86 70L86 69L87 69L87 70L88 70L88 69L87 69L87 67L84 67L84 68L83 68L83 67L82 67L82 66L81 66L81 63L82 63L82 64L83 64L83 63L82 63L82 62L86 62L86 61L84 61L84 60L83 60L83 59L84 59L84 58L83 58L83 57L84 57L84 56L83 56L83 55L85 55L85 59L86 59L86 58L88 58L88 56L89 56L89 55L88 55L88 54L89 54L89 53L91 53L91 52L92 52L92 51L93 51L93 50L91 50L91 48L92 48L92 47L91 47L91 48L90 48L90 49L88 49L88 50L87 50L87 51L84 51L84 52L81 52L81 53L82 53L82 54L80 54L80 55L81 55L81 56L79 56L79 53L80 53L80 52L78 52L78 51L79 51L79 50L80 50L80 51L82 51L82 50L81 50L81 49L80 49L80 48L77 48L77 50L76 50L76 49L75 49L75 48L76 48L76 47L74 47L74 46L75 46L75 44L76 44L76 43L75 43L75 40L76 40L76 39L77 39L77 38L78 38L78 40L77 40L77 42L78 42L78 43L79 43L79 41L80 41L80 40L79 40L79 38L78 38L78 37L82 37L82 38L80 38L80 39L81 39L81 40L83 40L83 43L82 43L82 42L80 42L80 43L81 43L81 44L77 44L77 46L78 46L78 47L82 47L82 48L83 48L83 49L84 49L84 48L83 48L83 47L84 47L84 46L87 46L87 45L88 45L88 46L89 46L89 47L87 47L87 48L89 48L89 47L90 47L90 45L91 45L91 44L89 44L89 43L84 43L84 42L88 42L88 40L90 40L90 39L91 39L91 38L92 38L92 37L91 37L91 38L90 38L90 37L88 37L88 36L87 36L87 35L86 35L86 36L78 36L78 35L79 35L79 34L80 34L80 33L81 33L81 32L82 32L82 33L83 33L83 34L84 34L84 33L85 33L85 34L88 34L88 32L91 32L91 31L92 31L92 28L96 28L96 27L95 27L95 25L96 25L96 23L95 23L95 22L93 22L93 19L94 19L94 20L95 20L95 19L94 19L94 18L93 18L93 19L92 19L92 20L91 20L91 19L88 19L88 20L87 20L87 19L86 19L86 20L85 20L85 19L84 19L84 18L83 18L83 17L84 17L84 16L85 16L85 18L86 18L86 17L88 17L88 18L90 18L90 17L88 17L88 16L89 16L89 15L87 15L87 13L88 13L88 12L89 12L89 11L88 11L88 10L87 10L87 11L86 11L86 12L85 12L85 11L84 11L84 12L83 12L83 11L81 11L81 10L80 10L80 11L81 11L81 12L78 12L78 11L79 11L79 10L78 10L78 8L79 8L79 9L82 9L82 10L84 10L84 9L85 9L85 10L86 10L86 9L88 9L88 8L87 8L87 7L88 7L88 6L87 6L87 7L86 7L86 6L85 6L85 7L86 7L86 8L83 8L83 7L82 7L82 8L79 8L79 7L80 7L80 5L81 5L81 4L80 4L80 3L79 3L79 4L77 4L77 5L78 5L78 6L77 6L77 13L76 13L76 14L75 14L75 10L74 10L74 9L75 9L75 8L74 8L74 6L73 6L73 9L72 9L72 8L71 8L71 7L72 7L72 6L71 6L71 7L70 7L70 6L69 6L69 5L68 5L68 6L67 6L67 7L68 7L68 6L69 6L69 8L70 8L70 9L71 9L71 10L72 10L72 11L73 11L73 10L74 10L74 13L73 13L73 14L74 14L74 15L73 15L73 16L70 16L70 18L71 18L71 19L68 19L68 18L69 18L69 16L67 16L67 15L66 15L66 17L65 17L65 18L66 18L66 19L64 19L64 20L63 20L63 19L62 19L62 18L61 18L61 17L64 17L64 16L65 16L65 14L68 14L68 15L72 15L72 14L68 14L68 10L69 10L69 11L70 11L70 10L69 10L69 9L68 9L68 8L67 8L67 9L66 9L66 6L65 6L65 9L64 9L64 10L63 10L63 11L62 11L62 10L61 10L61 9L60 9L60 8L59 8L59 9L58 9L58 10L57 10L57 12L56 12L56 11L55 11L55 10L52 10L52 11L54 11L54 12L52 12L52 13L51 13L51 12L50 12L50 14L49 14L49 15L48 15L48 16L49 16L49 17L50 17L50 18L52 18L52 19L54 19L54 20L55 20L55 22L52 22L52 21L53 21L53 20L51 20L51 19L45 19L45 20L44 20L44 17L45 17L45 18L48 18L48 17L45 17L45 16L44 16L44 15L45 15L45 14L48 14L48 12L47 12L47 11L46 11L46 12L47 12L47 13L45 13L45 12L43 12L43 13L44 13L44 15L43 15L43 14L42 14L42 15L41 15L41 16L39 16L39 15L40 15L40 14L41 14L41 12L42 12L42 11L41 11L41 8L40 8L40 9L39 9L39 8L37 8L37 9L38 9L38 10L37 10L37 12L36 12L36 9L35 9L35 12L33 12L33 13L31 13L31 14L27 14L27 13L30 13L30 11L31 11L31 12L32 12L32 11L34 11L34 9L33 9L33 10L32 10L32 8L31 8L31 7L32 7L32 6L31 6L31 5L32 5L32 4L30 4L30 6L29 6L29 7L28 7L28 5L29 5L29 4L28 4L28 5L26 5L26 6L25 6L25 7L26 7L26 8L24 8L24 9L23 9L23 8L22 8L22 9L20 9L20 8L19 8L19 7L20 7L20 5L19 5L19 3L18 3L18 2L16 2L16 1L15 1L15 2L16 2L16 4L15 4L15 3L14 3L14 4L13 4L13 2L12 2L12 1ZM69 1L69 2L70 2L70 4L72 4L72 5L74 5L74 4L75 4L75 7L76 7L76 4L75 4L75 3L76 3L76 2L72 2L72 3L71 3L71 2L70 2L70 1ZM77 2L77 3L78 3L78 2ZM42 3L42 4L43 4L43 3ZM72 3L72 4L74 4L74 3ZM16 4L16 7L17 7L17 6L18 6L18 7L19 7L19 6L18 6L18 5L17 5L17 4ZM79 4L79 5L80 5L80 4ZM33 5L33 8L36 8L36 5ZM37 5L37 7L38 7L38 5ZM61 5L61 8L64 8L64 5ZM21 6L21 7L22 7L22 6ZM26 6L26 7L27 7L27 6ZM30 6L30 7L31 7L31 6ZM34 6L34 7L35 7L35 6ZM45 6L45 8L46 8L46 6ZM51 6L51 7L52 7L52 6ZM55 6L55 8L56 8L56 9L57 9L57 8L58 8L58 6L57 6L57 8L56 8L56 6ZM62 6L62 7L63 7L63 6ZM78 6L78 7L79 7L79 6ZM12 8L12 9L13 9L13 8ZM17 8L17 9L18 9L18 10L20 10L20 9L19 9L19 8ZM52 8L52 9L53 9L53 8ZM95 8L95 9L96 9L96 8ZM22 9L22 10L21 10L21 12L20 12L20 11L18 11L18 12L17 12L17 13L18 13L18 12L20 12L20 14L21 14L21 15L25 15L25 14L22 14L22 13L24 13L24 12L25 12L25 10L26 10L26 11L27 11L27 12L26 12L26 13L27 13L27 12L28 12L28 11L27 11L27 10L28 10L28 9L27 9L27 10L26 10L26 9L25 9L25 10L23 10L23 9ZM29 9L29 10L31 10L31 11L32 11L32 10L31 10L31 9ZM59 9L59 10L58 10L58 12L57 12L57 13L56 13L56 12L54 12L54 14L55 14L55 15L56 15L56 16L54 16L54 15L51 15L51 14L50 14L50 15L49 15L49 16L50 16L50 17L51 17L51 16L53 16L53 18L55 18L55 17L56 17L56 18L57 18L57 19L56 19L56 20L58 20L58 21L60 21L60 20L58 20L58 19L61 19L61 18L57 18L57 17L56 17L56 16L59 16L59 15L61 15L61 16L60 16L60 17L61 17L61 16L62 16L62 14L64 14L64 13L61 13L61 12L62 12L62 11L61 11L61 10L60 10L60 9ZM67 9L67 10L68 10L68 9ZM6 10L6 11L8 11L8 10ZM38 10L38 11L39 11L39 12L41 12L41 11L39 11L39 10ZM65 10L65 12L66 12L66 13L67 13L67 11L66 11L66 10ZM91 10L91 11L90 11L90 12L91 12L91 11L92 11L92 10ZM22 11L22 12L24 12L24 11ZM59 11L59 13L57 13L57 14L61 14L61 13L60 13L60 12L61 12L61 11ZM63 11L63 12L64 12L64 11ZM37 12L37 13L34 13L34 14L31 14L31 15L30 15L30 16L31 16L31 15L32 15L32 16L33 16L33 17L34 17L34 18L31 18L31 19L33 19L33 20L32 20L32 22L30 22L30 21L31 21L31 20L30 20L30 21L29 21L29 20L28 20L28 19L27 19L27 21L29 21L29 22L28 22L28 24L29 24L29 22L30 22L30 23L32 23L32 22L33 22L33 23L34 23L34 24L35 24L35 25L34 25L34 27L33 27L33 28L35 28L35 25L36 25L36 28L37 28L37 27L39 27L39 28L38 28L38 29L39 29L39 30L38 30L38 31L40 31L40 32L41 32L41 34L43 34L43 33L44 33L44 32L45 32L45 33L47 33L47 32L46 32L46 31L48 31L48 30L45 30L45 29L49 29L49 28L50 28L50 27L51 27L51 30L49 30L49 31L53 31L53 32L54 32L54 33L51 33L51 32L50 32L50 33L49 33L49 32L48 32L48 33L49 33L49 34L48 34L48 35L52 35L52 36L51 36L51 37L52 37L52 38L55 38L55 40L53 40L53 39L52 39L52 40L53 40L53 42L55 42L55 43L54 43L54 44L55 44L55 45L53 45L53 46L52 46L52 45L51 45L51 44L53 44L53 43L51 43L51 42L50 42L50 43L49 43L49 42L48 42L48 41L49 41L49 38L50 38L50 39L51 39L51 38L50 38L50 36L48 36L48 37L49 37L49 38L48 38L48 39L47 39L47 38L46 38L46 37L47 37L47 34L46 34L46 37L45 37L45 39L44 39L44 36L45 36L45 35L43 35L43 36L41 36L41 35L39 35L39 34L40 34L40 33L39 33L39 34L38 34L38 33L37 33L37 29L31 29L31 30L30 30L30 29L29 29L29 28L30 28L30 26L31 26L31 27L32 27L32 26L31 26L31 25L27 25L27 27L26 27L26 29L25 29L25 26L26 26L26 25L24 25L24 22L25 22L25 23L26 23L26 24L27 24L27 22L26 22L26 21L23 21L23 17L24 17L24 16L23 16L23 17L22 17L22 16L21 16L21 17L22 17L22 20L21 20L21 21L20 21L20 19L21 19L21 18L20 18L20 17L18 17L18 18L17 18L17 17L16 17L16 19L15 19L15 18L14 18L14 19L13 19L13 20L14 20L14 19L15 19L15 21L16 21L16 22L15 22L15 23L17 23L17 24L13 24L13 23L11 23L11 24L12 24L12 26L13 26L13 25L17 25L17 27L18 27L18 28L16 28L16 26L14 26L14 27L13 27L13 28L14 28L14 29L15 29L15 30L16 30L16 32L15 32L15 34L14 34L14 35L15 35L15 34L16 34L16 33L17 33L17 34L19 34L19 35L17 35L17 36L15 36L15 38L14 38L14 40L15 40L15 41L17 41L17 42L15 42L15 43L17 43L17 44L16 44L16 45L17 45L17 46L15 46L15 44L14 44L14 41L13 41L13 43L10 43L10 44L12 44L12 45L11 45L11 46L13 46L13 47L9 47L9 50L10 50L10 52L12 52L12 53L13 53L13 56L16 56L16 54L17 54L17 55L18 55L18 56L17 56L17 57L14 57L14 58L12 58L12 59L11 59L11 60L14 60L14 61L15 61L15 60L16 60L16 61L18 61L18 60L19 60L19 61L20 61L20 62L18 62L18 63L19 63L19 64L17 64L17 63L16 63L16 62L15 62L15 63L16 63L16 65L14 65L14 64L13 64L13 65L14 65L14 66L13 66L13 68L15 68L15 69L16 69L16 68L15 68L15 66L16 66L16 65L17 65L17 67L18 67L18 65L19 65L19 67L20 67L20 68L21 68L21 67L22 67L22 70L21 70L21 71L22 71L22 70L23 70L23 71L24 71L24 72L26 72L26 73L25 73L25 74L26 74L26 73L27 73L27 75L28 75L28 77L27 77L27 76L26 76L26 77L27 77L27 78L25 78L25 77L24 77L24 76L25 76L25 75L24 75L24 74L23 74L23 77L24 77L24 79L26 79L26 80L28 80L28 79L29 79L29 78L30 78L30 79L31 79L31 80L30 80L30 81L29 81L29 82L30 82L30 83L27 83L27 84L28 84L28 85L26 85L26 87L27 87L27 88L29 88L29 87L27 87L27 86L28 86L28 85L29 85L29 86L30 86L30 87L31 87L31 86L30 86L30 85L31 85L31 80L32 80L32 86L33 86L33 84L34 84L34 86L35 86L35 83L34 83L34 81L36 81L36 82L38 82L38 81L37 81L37 79L34 79L34 78L35 78L35 77L36 77L36 78L38 78L38 79L39 79L39 80L41 80L41 82L45 82L45 81L43 81L43 79L44 79L44 80L46 80L46 81L47 81L47 82L46 82L46 83L47 83L47 82L48 82L48 83L49 83L49 82L50 82L50 83L51 83L51 84L50 84L50 85L51 85L51 84L53 84L53 83L52 83L52 82L55 82L55 81L52 81L52 82L50 82L50 81L51 81L51 80L53 80L53 78L55 78L55 79L54 79L54 80L55 80L55 79L56 79L56 80L58 80L58 81L56 81L56 82L57 82L57 83L56 83L56 84L55 84L55 83L54 83L54 84L55 84L55 85L52 85L52 87L51 87L51 86L49 86L49 84L46 84L46 85L45 85L45 86L46 86L46 87L51 87L51 88L50 88L50 89L51 89L51 90L52 90L52 91L51 91L51 93L52 93L52 92L53 92L53 93L54 93L54 92L55 92L55 91L53 91L53 90L55 90L55 89L56 89L56 88L58 88L58 87L59 87L59 86L57 86L57 85L56 85L56 84L58 84L58 83L59 83L59 82L58 82L58 81L59 81L59 80L58 80L58 79L59 79L59 78L58 78L58 79L57 79L57 77L56 77L56 76L57 76L57 75L58 75L58 77L60 77L60 78L63 78L63 77L64 77L64 78L65 78L65 79L63 79L63 80L62 80L62 79L60 79L60 80L62 80L62 81L63 81L63 82L65 82L65 84L66 84L66 85L67 85L67 84L68 84L68 83L69 83L69 82L70 82L70 85L68 85L68 88L70 88L70 87L71 87L71 88L72 88L72 89L71 89L71 90L73 90L73 88L72 88L72 87L71 87L71 81L70 81L70 80L71 80L71 79L69 79L69 78L70 78L70 76L72 76L72 79L73 79L73 77L74 77L74 79L75 79L75 77L76 77L76 78L77 78L77 79L76 79L76 80L74 80L74 81L76 81L76 80L77 80L77 79L78 79L78 81L79 81L79 80L82 80L82 79L80 79L80 78L82 78L82 77L80 77L80 78L79 78L79 76L80 76L80 75L78 75L78 74L77 74L77 73L76 73L76 72L77 72L77 71L78 71L78 70L77 70L77 71L76 71L76 72L74 72L74 73L76 73L76 74L77 74L77 75L76 75L76 76L72 76L72 75L74 75L74 74L73 74L73 73L72 73L72 75L71 75L71 72L72 72L72 71L71 71L71 70L72 70L72 69L73 69L73 68L75 68L75 67L76 67L76 66L74 66L74 67L73 67L73 66L72 66L72 65L73 65L73 64L72 64L72 63L75 63L75 62L73 62L73 61L74 61L74 60L73 60L73 59L75 59L75 58L76 58L76 60L75 60L75 61L76 61L76 60L77 60L77 61L78 61L78 60L80 60L80 61L79 61L79 62L80 62L80 61L81 61L81 62L82 62L82 61L81 61L81 60L82 60L82 59L78 59L78 58L76 58L76 57L77 57L77 56L78 56L78 57L79 57L79 58L80 58L80 57L79 57L79 56L78 56L78 54L77 54L77 55L76 55L76 54L73 54L73 51L74 51L74 53L76 53L76 52L75 52L75 51L76 51L76 50L75 50L75 49L74 49L74 50L72 50L72 51L71 51L71 49L68 49L68 51L67 51L67 50L63 50L63 49L62 49L62 48L61 48L61 49L62 49L62 50L61 50L61 51L60 51L60 52L59 52L59 50L58 50L58 51L57 51L57 50L55 50L55 47L56 47L56 48L58 48L58 49L60 49L60 47L59 47L59 46L57 46L57 47L56 47L56 46L55 46L55 45L56 45L56 38L55 38L55 37L56 37L56 36L55 36L55 35L57 35L57 34L56 34L56 32L57 32L57 31L58 31L58 33L59 33L59 32L60 32L60 34L58 34L58 35L59 35L59 36L58 36L58 37L62 37L62 38L57 38L57 42L58 42L58 43L59 43L59 42L58 42L58 41L59 41L59 40L58 40L58 39L60 39L60 40L61 40L61 41L62 41L62 42L61 42L61 43L60 43L60 44L59 44L59 45L60 45L60 46L61 46L61 47L64 47L64 46L61 46L61 45L62 45L62 44L63 44L63 45L64 45L64 44L65 44L65 43L66 43L66 44L68 44L68 47L67 47L67 45L66 45L66 46L65 46L65 47L67 47L67 48L65 48L65 49L67 49L67 48L72 48L72 49L73 49L73 48L72 48L72 47L73 47L73 46L72 46L72 47L69 47L69 46L71 46L71 44L73 44L73 45L74 45L74 44L73 44L73 43L74 43L74 42L73 42L73 41L74 41L74 40L73 40L73 41L72 41L72 42L70 42L70 41L71 41L71 40L72 40L72 39L76 39L76 38L77 38L77 35L78 35L78 34L76 34L76 32L80 32L80 31L78 31L78 30L77 30L77 28L78 28L78 29L79 29L79 28L80 28L80 29L81 29L81 30L82 30L82 29L83 29L83 30L84 30L84 31L83 31L83 32L84 32L84 31L85 31L85 33L87 33L87 32L88 32L88 31L87 31L87 30L88 30L88 29L86 29L86 30L85 30L85 27L86 27L86 26L88 26L88 27L91 27L91 25L90 25L90 24L92 24L92 23L91 23L91 22L92 22L92 21L91 21L91 20L90 20L90 21L91 21L91 22L89 22L89 23L90 23L90 24L88 24L88 23L87 23L87 22L88 22L88 21L87 21L87 20L86 20L86 22L85 22L85 21L83 21L83 20L84 20L84 19L83 19L83 18L82 18L82 17L79 17L79 16L80 16L80 13L79 13L79 15L78 15L78 14L77 14L77 15L76 15L76 16L75 16L75 18L73 18L73 19L71 19L71 20L73 20L73 21L74 21L74 22L71 22L71 24L72 24L72 25L71 25L71 26L73 26L73 27L68 27L68 26L70 26L70 25L67 25L67 24L70 24L70 23L66 23L66 22L64 22L64 21L66 21L66 20L64 20L64 21L63 21L63 20L62 20L62 21L61 21L61 22L57 22L57 21L56 21L56 22L57 22L57 23L56 23L56 24L55 24L55 25L52 25L52 27L51 27L51 26L49 26L49 28L46 28L46 27L48 27L48 25L49 25L49 24L47 24L47 23L48 23L48 21L49 21L49 20L47 20L47 22L46 22L46 21L44 21L44 20L41 20L41 19L40 19L40 17L39 17L39 18L38 18L38 16L37 16L37 15L36 15L36 14L38 14L38 15L39 15L39 14L38 14L38 12ZM70 12L70 13L72 13L72 12ZM86 12L86 13L87 13L87 12ZM81 13L81 14L82 14L82 15L86 15L86 14L84 14L84 13ZM26 14L26 16L28 16L28 17L25 17L25 18L28 18L28 17L29 17L29 18L30 18L30 17L29 17L29 16L28 16L28 15L27 15L27 14ZM34 14L34 15L35 15L35 14ZM19 15L19 16L20 16L20 15ZM42 15L42 16L43 16L43 15ZM46 15L46 16L47 16L47 15ZM63 15L63 16L64 16L64 15ZM77 15L77 19L74 19L74 20L76 20L76 21L75 21L75 22L76 22L76 23L75 23L75 24L76 24L76 25L77 25L77 26L78 26L78 27L79 27L79 25L80 25L80 24L81 24L81 25L82 25L82 26L81 26L81 28L83 28L83 29L84 29L84 28L83 28L83 25L84 25L84 24L81 24L81 23L82 23L82 22L80 22L80 24L79 24L79 21L82 21L82 18L81 18L81 20L78 20L78 21L77 21L77 19L79 19L79 18L78 18L78 15ZM34 16L34 17L35 17L35 16ZM73 16L73 17L74 17L74 16ZM41 17L41 18L42 18L42 19L43 19L43 17ZM67 17L67 18L68 18L68 17ZM5 18L5 19L4 19L4 21L5 21L5 20L6 20L6 19L7 19L7 18ZM19 18L19 19L20 19L20 18ZM34 18L34 21L33 21L33 22L34 22L34 23L35 23L35 24L36 24L36 25L37 25L37 26L41 26L41 27L42 27L42 29L43 29L43 30L40 30L40 31L41 31L41 32L43 32L43 31L45 31L45 30L44 30L44 29L45 29L45 28L44 28L44 27L46 27L46 26L47 26L47 24L46 24L46 22L44 22L44 23L43 23L43 22L42 22L42 21L41 21L41 20L39 20L39 19L38 19L38 18ZM9 19L9 20L10 20L10 19ZM16 19L16 21L17 21L17 22L18 22L18 23L20 23L20 21L19 21L19 22L18 22L18 21L17 21L17 19ZM24 19L24 20L26 20L26 19ZM36 19L36 20L35 20L35 21L34 21L34 22L35 22L35 21L36 21L36 22L37 22L37 23L36 23L36 24L37 24L37 23L39 23L39 24L38 24L38 25L39 25L39 24L42 24L42 26L43 26L43 27L44 27L44 24L45 24L45 23L44 23L44 24L42 24L42 22L41 22L41 23L39 23L39 22L40 22L40 21L39 21L39 22L38 22L38 19ZM67 19L67 20L68 20L68 21L67 21L67 22L68 22L68 21L69 21L69 22L70 22L70 21L69 21L69 20L68 20L68 19ZM11 20L11 21L12 21L12 22L14 22L14 21L12 21L12 20ZM36 20L36 21L37 21L37 20ZM50 20L50 21L51 21L51 20ZM21 21L21 23L22 23L22 24L23 24L23 22L22 22L22 21ZM49 22L49 23L51 23L51 24L50 24L50 25L51 25L51 24L54 24L54 23L52 23L52 22ZM61 22L61 23L62 23L62 24L59 24L59 23L58 23L58 25L57 25L57 24L56 24L56 26L61 26L61 25L62 25L62 24L63 24L63 25L64 25L64 24L65 24L65 26L66 26L66 27L64 27L64 26L63 26L63 28L62 28L62 27L61 27L61 28L59 28L59 27L57 27L57 28L56 28L56 27L55 27L55 26L54 26L54 27L53 27L53 28L52 28L52 29L53 29L53 31L55 31L55 32L56 32L56 31L55 31L55 30L54 30L54 27L55 27L55 28L56 28L56 29L57 29L57 30L58 30L58 31L59 31L59 30L61 30L61 31L60 31L60 32L64 32L64 31L63 31L63 29L64 29L64 30L66 30L66 31L65 31L65 32L66 32L66 31L67 31L67 33L65 33L65 34L67 34L67 36L66 36L66 37L65 37L65 38L64 38L64 37L63 37L63 38L62 38L62 39L61 39L61 40L62 40L62 41L63 41L63 42L62 42L62 43L61 43L61 44L62 44L62 43L63 43L63 44L64 44L64 43L65 43L65 42L66 42L66 43L68 43L68 44L69 44L69 45L70 45L70 44L71 44L71 43L70 43L70 42L68 42L68 40L65 40L65 38L66 38L66 39L70 39L70 40L69 40L69 41L70 41L70 40L71 40L71 39L70 39L70 38L72 38L72 37L73 37L73 38L75 38L75 37L74 37L74 35L72 35L72 33L73 33L73 34L75 34L75 35L76 35L76 34L75 34L75 33L73 33L73 31L72 31L72 30L71 30L71 31L70 31L70 30L69 30L69 29L72 29L72 28L69 28L69 29L68 29L68 28L67 28L67 25L66 25L66 23L64 23L64 24L63 24L63 22ZM77 22L77 23L76 23L76 24L77 24L77 25L79 25L79 24L77 24L77 23L78 23L78 22ZM83 22L83 23L84 23L84 22ZM72 23L72 24L73 24L73 23ZM20 24L20 25L21 25L21 26L19 26L19 27L20 27L20 28L19 28L19 29L18 29L18 32L19 32L19 29L21 29L21 30L20 30L20 31L21 31L21 32L22 32L22 33L21 33L21 34L22 34L22 35L19 35L19 36L18 36L18 39L20 39L20 36L22 36L22 37L21 37L21 38L22 38L22 39L21 39L21 40L22 40L22 41L21 41L21 42L20 42L20 40L19 40L19 41L18 41L18 40L17 40L17 41L18 41L18 42L17 42L17 43L19 43L19 42L20 42L20 44L21 44L21 45L23 45L23 46L22 46L22 47L23 47L23 48L22 48L22 49L20 49L20 48L18 48L18 49L19 49L19 50L14 50L14 52L15 52L15 51L16 51L16 53L15 53L15 54L14 54L14 55L15 55L15 54L16 54L16 53L17 53L17 54L18 54L18 53L19 53L19 52L20 52L20 54L21 54L21 55L23 55L23 56L24 56L24 54L25 54L25 55L26 55L26 56L25 56L25 57L28 57L28 60L29 60L29 61L28 61L28 62L27 62L27 63L28 63L28 64L27 64L27 65L28 65L28 66L29 66L29 67L28 67L28 68L27 68L27 66L24 66L24 65L26 65L26 63L25 63L25 64L24 64L24 65L22 65L22 66L24 66L24 69L23 69L23 70L24 70L24 69L26 69L26 68L27 68L27 69L28 69L28 68L29 68L29 69L30 69L30 68L29 68L29 67L30 67L30 66L31 66L31 67L35 67L35 68L33 68L33 69L32 69L32 68L31 68L31 69L32 69L32 70L28 70L28 71L27 71L27 73L29 73L29 74L28 74L28 75L29 75L29 77L31 77L31 78L32 78L32 77L33 77L33 76L34 76L34 77L35 77L35 76L34 76L34 75L37 75L37 76L36 76L36 77L38 77L38 78L39 78L39 79L40 79L40 78L42 78L42 79L41 79L41 80L42 80L42 79L43 79L43 78L42 78L42 77L44 77L44 79L45 79L45 78L47 78L47 79L46 79L46 80L49 80L49 79L50 79L50 78L53 78L53 76L54 76L54 77L55 77L55 78L56 78L56 77L55 77L55 76L54 76L54 75L55 75L55 74L56 74L56 75L57 75L57 74L58 74L58 75L59 75L59 76L60 76L60 75L62 75L62 76L61 76L61 77L63 77L63 75L64 75L64 76L65 76L65 78L66 78L66 77L69 77L69 76L66 76L66 75L65 75L65 74L67 74L67 75L70 75L70 74L68 74L68 73L69 73L69 72L66 72L66 71L67 71L67 69L68 69L68 71L70 71L70 72L71 72L71 71L70 71L70 70L69 70L69 69L70 69L70 68L69 68L69 67L71 67L71 65L72 65L72 64L71 64L71 63L72 63L72 62L69 62L69 61L68 61L68 60L67 60L67 57L68 57L68 56L67 56L67 55L69 55L69 57L70 57L70 58L68 58L68 59L70 59L70 60L71 60L71 61L73 61L73 60L71 60L71 59L73 59L73 58L74 58L74 55L73 55L73 54L71 54L71 53L72 53L72 52L71 52L71 51L70 51L70 50L69 50L69 51L68 51L68 52L67 52L67 53L66 53L66 51L65 51L65 52L63 52L63 51L61 51L61 52L60 52L60 53L59 53L59 52L58 52L58 53L57 53L57 52L56 52L56 51L55 51L55 50L54 50L54 53L57 53L57 54L60 54L60 55L61 55L61 54L62 54L62 52L63 52L63 54L64 54L64 55L65 55L65 56L67 56L67 57L65 57L65 58L64 58L64 56L63 56L63 57L62 57L62 56L60 56L60 57L59 57L59 56L58 56L58 55L57 55L57 56L56 56L56 55L55 55L55 54L53 54L53 55L55 55L55 56L56 56L56 57L57 57L57 58L56 58L56 63L55 63L55 62L54 62L54 61L55 61L55 58L52 58L52 57L53 57L53 56L51 56L51 57L50 57L50 54L51 54L51 55L52 55L52 54L51 54L51 53L53 53L53 52L52 52L52 51L51 51L51 49L52 49L52 50L53 50L53 48L51 48L51 47L52 47L52 46L51 46L51 45L50 45L50 46L47 46L47 45L48 45L48 44L49 44L49 43L48 43L48 42L47 42L47 41L46 41L46 40L47 40L47 39L46 39L46 40L44 40L44 39L43 39L43 38L40 38L40 39L42 39L42 41L43 41L43 42L41 42L41 40L39 40L39 39L38 39L38 38L39 38L39 37L41 37L41 36L39 36L39 37L38 37L38 38L37 38L37 37L36 37L36 38L37 38L37 39L38 39L38 41L37 41L37 40L35 40L35 41L34 41L34 42L37 42L37 43L36 43L36 44L33 44L33 43L32 43L32 42L33 42L33 41L32 41L32 40L31 40L31 41L32 41L32 42L28 42L28 43L29 43L29 45L31 45L31 46L26 46L26 45L28 45L28 44L26 44L26 45L25 45L25 42L24 42L24 41L26 41L26 42L27 42L27 41L30 41L30 40L29 40L29 39L30 39L30 38L29 38L29 39L28 39L28 38L25 38L25 37L26 37L26 36L27 36L27 37L28 37L28 36L29 36L29 37L31 37L31 36L30 36L30 35L29 35L29 34L28 34L28 36L27 36L27 34L26 34L26 33L28 33L28 32L29 32L29 33L30 33L30 34L32 34L32 31L31 31L31 32L30 32L30 31L27 31L27 30L25 30L25 32L24 32L24 31L23 31L23 30L24 30L24 29L23 29L23 28L24 28L24 27L23 27L23 26L24 26L24 25L23 25L23 26L22 26L22 25L21 25L21 24ZM85 24L85 26L84 26L84 27L85 27L85 26L86 26L86 25L88 25L88 26L89 26L89 25L88 25L88 24ZM94 24L94 25L95 25L95 24ZM45 25L45 26L46 26L46 25ZM73 25L73 26L74 26L74 25ZM2 26L2 27L4 27L4 26ZM28 26L28 27L27 27L27 29L28 29L28 28L29 28L29 26ZM75 26L75 27L73 27L73 30L75 30L75 28L76 28L76 26ZM92 26L92 27L94 27L94 26ZM14 27L14 28L15 28L15 27ZM21 27L21 29L22 29L22 30L21 30L21 31L22 31L22 30L23 30L23 29L22 29L22 28L23 28L23 27ZM39 28L39 29L41 29L41 28ZM43 28L43 29L44 29L44 28ZM57 28L57 29L59 29L59 28ZM65 28L65 29L66 29L66 30L67 30L67 31L68 31L68 33L69 33L69 34L71 34L71 32L72 32L72 31L71 31L71 32L70 32L70 31L68 31L68 30L67 30L67 28ZM61 29L61 30L62 30L62 29ZM89 29L89 30L90 30L90 31L91 31L91 29ZM6 30L6 31L7 31L7 30ZM76 30L76 31L75 31L75 32L76 32L76 31L77 31L77 30ZM33 31L33 32L36 32L36 31ZM86 31L86 32L87 32L87 31ZM9 32L9 34L10 34L10 32ZM23 32L23 33L22 33L22 34L23 34L23 33L24 33L24 34L25 34L25 35L24 35L24 36L23 36L23 37L22 37L22 38L23 38L23 37L24 37L24 36L26 36L26 34L25 34L25 33L24 33L24 32ZM1 33L1 34L2 34L2 36L3 36L3 37L4 37L4 38L7 38L7 37L4 37L4 35L3 35L3 34L2 34L2 33ZM5 33L5 36L8 36L8 33ZM19 33L19 34L20 34L20 33ZM33 33L33 36L36 36L36 33ZM50 33L50 34L51 34L51 33ZM61 33L61 36L64 36L64 33ZM89 33L89 36L92 36L92 33ZM6 34L6 35L7 35L7 34ZM34 34L34 35L35 35L35 34ZM37 34L37 35L38 35L38 34ZM52 34L52 35L53 35L53 36L52 36L52 37L53 37L53 36L54 36L54 35L55 35L55 34ZM62 34L62 35L63 35L63 34ZM81 34L81 35L82 35L82 34ZM90 34L90 35L91 35L91 34ZM9 35L9 36L10 36L10 35ZM68 35L68 36L69 36L69 38L70 38L70 35ZM71 35L71 36L72 36L72 35ZM86 36L86 38L85 38L85 37L84 37L84 38L82 38L82 39L83 39L83 40L84 40L84 41L87 41L87 40L86 40L86 39L89 39L89 38L87 38L87 36ZM32 37L32 38L33 38L33 40L34 40L34 38L35 38L35 37L34 37L34 38L33 38L33 37ZM66 37L66 38L68 38L68 37ZM15 38L15 39L16 39L16 38ZM63 38L63 39L62 39L62 40L63 40L63 41L65 41L65 40L63 40L63 39L64 39L64 38ZM84 38L84 40L85 40L85 38ZM27 39L27 40L26 40L26 41L27 41L27 40L28 40L28 39ZM4 40L4 41L5 41L5 42L6 42L6 43L7 43L7 44L6 44L6 45L7 45L7 46L6 46L6 47L8 47L8 46L10 46L10 45L9 45L9 44L8 44L8 43L7 43L7 42L6 42L6 41L7 41L7 40L6 40L6 41L5 41L5 40ZM23 40L23 41L22 41L22 44L23 44L23 45L24 45L24 42L23 42L23 41L24 41L24 40ZM50 40L50 41L51 41L51 40ZM96 40L96 41L97 41L97 40ZM39 41L39 42L38 42L38 43L37 43L37 46L36 46L36 45L35 45L35 46L34 46L34 45L33 45L33 44L31 44L31 43L30 43L30 44L31 44L31 45L33 45L33 46L32 46L32 47L29 47L29 48L30 48L30 49L29 49L29 50L28 50L28 49L27 49L27 48L28 48L28 47L26 47L26 49L24 49L24 48L25 48L25 46L24 46L24 48L23 48L23 49L22 49L22 50L23 50L23 51L22 51L22 52L21 52L21 53L23 53L23 51L24 51L24 50L25 50L25 52L24 52L24 53L25 53L25 54L26 54L26 53L25 53L25 52L26 52L26 50L27 50L27 51L29 51L29 50L30 50L30 51L31 51L31 52L30 52L30 53L28 53L28 52L27 52L27 55L28 55L28 56L29 56L29 54L30 54L30 53L31 53L31 54L32 54L32 55L31 55L31 56L30 56L30 57L29 57L29 60L30 60L30 61L29 61L29 62L30 62L30 61L31 61L31 62L32 62L32 65L33 65L33 66L34 66L34 65L36 65L36 66L35 66L35 67L36 67L36 68L38 68L38 69L36 69L36 70L37 70L37 71L32 71L32 72L36 72L36 73L37 73L37 71L39 71L39 70L38 70L38 69L39 69L39 68L41 68L41 69L42 69L42 70L43 70L43 72L42 72L42 71L41 71L41 70L40 70L40 72L41 72L41 74L44 74L44 75L42 75L42 76L45 76L45 77L47 77L47 76L48 76L48 79L49 79L49 78L50 78L50 77L51 77L51 76L53 76L53 75L52 75L52 74L53 74L53 73L51 73L51 74L50 74L50 75L49 75L49 74L44 74L44 73L43 73L43 72L47 72L47 73L49 73L49 72L54 72L54 74L55 74L55 73L56 73L56 72L57 72L57 73L58 73L58 72L57 72L57 71L59 71L59 72L61 72L61 73L62 73L62 72L64 72L64 71L60 71L60 69L59 69L59 68L62 68L62 69L61 69L61 70L62 70L62 69L63 69L63 70L64 70L64 69L63 69L63 68L64 68L64 67L65 67L65 66L64 66L64 67L60 67L60 66L61 66L61 65L62 65L62 66L63 66L63 65L65 65L65 63L66 63L66 66L68 66L68 65L67 65L67 63L66 63L66 62L65 62L65 60L66 60L66 61L67 61L67 60L66 60L66 58L65 58L65 59L64 59L64 58L63 58L63 59L64 59L64 60L61 60L61 59L62 59L62 58L61 58L61 59L59 59L59 58L57 58L57 59L59 59L59 60L57 60L57 62L58 62L58 63L56 63L56 64L55 64L55 63L54 63L54 62L53 62L53 61L52 61L52 60L54 60L54 59L52 59L52 58L50 58L50 59L52 59L52 60L50 60L50 61L51 61L51 62L49 62L49 64L48 64L48 65L47 65L47 64L46 64L46 63L48 63L48 61L49 61L49 60L47 60L47 58L48 58L48 59L49 59L49 58L48 58L48 57L49 57L49 56L47 56L47 55L49 55L49 51L50 51L50 53L51 53L51 51L50 51L50 49L49 49L49 48L50 48L50 47L51 47L51 46L50 46L50 47L49 47L49 48L47 48L47 49L48 49L48 50L46 50L46 51L47 51L47 52L45 52L45 51L44 51L44 52L43 52L43 51L42 51L42 52L41 52L41 53L39 53L39 52L38 52L38 53L37 53L37 54L36 54L36 55L37 55L37 54L38 54L38 57L39 57L39 58L38 58L38 59L39 59L39 60L38 60L38 61L39 61L39 62L37 62L37 60L33 60L33 59L32 59L32 58L31 58L31 57L33 57L33 58L34 58L34 59L35 59L35 58L36 58L36 59L37 59L37 58L36 58L36 57L35 57L35 56L34 56L34 55L35 55L35 54L34 54L34 52L33 52L33 50L32 50L32 49L34 49L34 48L32 48L32 47L35 47L35 46L36 46L36 47L37 47L37 48L36 48L36 49L37 49L37 48L38 48L38 49L39 49L39 47L40 47L40 48L41 48L41 50L43 50L43 49L42 49L42 48L45 48L45 47L44 47L44 46L43 46L43 44L46 44L46 43L47 43L47 44L48 44L48 43L47 43L47 42L44 42L44 43L43 43L43 44L41 44L41 43L39 43L39 42L40 42L40 41ZM89 41L89 42L90 42L90 41ZM63 42L63 43L64 43L64 42ZM96 42L96 44L93 44L93 45L96 45L96 44L97 44L97 42ZM38 43L38 44L39 44L39 45L38 45L38 46L37 46L37 47L38 47L38 46L39 46L39 45L41 45L41 46L40 46L40 47L41 47L41 48L42 48L42 47L43 47L43 46L42 46L42 45L41 45L41 44L39 44L39 43ZM50 43L50 44L51 44L51 43ZM69 43L69 44L70 44L70 43ZM83 43L83 44L84 44L84 45L86 45L86 44L84 44L84 43ZM13 44L13 45L14 45L14 44ZM17 44L17 45L18 45L18 44ZM57 44L57 45L58 45L58 44ZM81 44L81 46L82 46L82 47L83 47L83 45L82 45L82 44ZM88 44L88 45L89 45L89 44ZM19 45L19 46L17 46L17 47L19 47L19 46L20 46L20 45ZM79 45L79 46L80 46L80 45ZM46 46L46 47L47 47L47 46ZM53 46L53 47L55 47L55 46ZM95 46L95 47L97 47L97 46ZM14 47L14 49L17 49L17 48L16 48L16 47ZM58 47L58 48L59 48L59 47ZM2 48L2 49L1 49L1 50L5 50L5 51L6 51L6 50L7 50L7 49L3 49L3 48ZM10 48L10 50L11 50L11 49L12 49L12 50L13 50L13 49L12 49L12 48ZM31 48L31 49L30 49L30 50L31 50L31 49L32 49L32 48ZM85 48L85 50L86 50L86 48ZM23 49L23 50L24 50L24 49ZM44 49L44 50L45 50L45 49ZM19 50L19 51L20 51L20 50ZM35 50L35 52L37 52L37 50ZM38 50L38 51L40 51L40 50ZM77 50L77 51L78 51L78 50ZM88 50L88 51L89 51L89 50ZM1 51L1 52L2 52L2 53L3 53L3 52L2 52L2 51ZM69 51L69 52L68 52L68 54L69 54L69 55L71 55L71 56L72 56L72 57L73 57L73 56L72 56L72 55L71 55L71 54L70 54L70 53L69 53L69 52L70 52L70 51ZM90 51L90 52L91 52L91 51ZM31 52L31 53L32 53L32 54L33 54L33 53L32 53L32 52ZM44 52L44 53L43 53L43 54L42 54L42 53L41 53L41 54L40 54L40 55L41 55L41 56L39 56L39 57L43 57L43 58L40 58L40 59L42 59L42 60L40 60L40 62L39 62L39 63L38 63L38 65L37 65L37 66L36 66L36 67L38 67L38 66L39 66L39 67L40 67L40 65L43 65L43 63L46 63L46 62L47 62L47 61L46 61L46 58L47 58L47 56L44 56L44 55L43 55L43 54L44 54L44 53L45 53L45 52ZM86 52L86 53L87 53L87 54L85 54L85 53L84 53L84 54L85 54L85 55L87 55L87 54L88 54L88 53L87 53L87 52ZM38 53L38 54L39 54L39 53ZM46 53L46 54L45 54L45 55L46 55L46 54L47 54L47 53ZM64 53L64 54L65 54L65 55L66 55L66 54L65 54L65 53ZM19 55L19 56L18 56L18 59L17 59L17 58L14 58L14 60L15 60L15 59L16 59L16 60L18 60L18 59L19 59L19 58L20 58L20 55ZM42 55L42 56L43 56L43 57L44 57L44 58L43 58L43 61L41 61L41 62L40 62L40 64L42 64L42 62L44 62L44 60L45 60L45 58L46 58L46 57L44 57L44 56L43 56L43 55ZM75 55L75 56L76 56L76 55ZM57 56L57 57L58 57L58 56ZM81 56L81 58L82 58L82 57L83 57L83 56ZM90 56L90 57L91 57L91 56ZM92 56L92 58L91 58L91 60L92 60L92 58L93 58L93 60L95 60L95 57L94 57L94 58L93 58L93 56ZM6 57L6 58L7 58L7 57ZM21 57L21 58L22 58L22 59L25 59L25 61L23 61L23 62L22 62L22 61L21 61L21 60L20 60L20 61L21 61L21 62L20 62L20 63L21 63L21 62L22 62L22 64L23 64L23 63L24 63L24 62L26 62L26 59L27 59L27 58L24 58L24 57L23 57L23 58L22 58L22 57ZM34 57L34 58L35 58L35 57ZM30 58L30 60L31 60L31 58ZM89 58L89 59L90 59L90 58ZM1 59L1 60L2 60L2 61L1 61L1 62L2 62L2 63L1 63L1 64L2 64L2 65L3 65L3 64L2 64L2 63L4 63L4 62L2 62L2 61L3 61L3 60L2 60L2 59ZM77 59L77 60L78 60L78 59ZM5 61L5 64L8 64L8 61ZM33 61L33 64L36 64L36 61ZM58 61L58 62L59 62L59 63L58 63L58 64L59 64L59 65L57 65L57 64L56 64L56 65L57 65L57 67L55 67L55 66L54 66L54 65L53 65L53 64L52 64L52 65L53 65L53 67L54 67L54 68L56 68L56 69L55 69L55 70L52 70L52 69L53 69L53 68L52 68L52 67L51 67L51 68L52 68L52 69L50 69L50 68L49 68L49 67L50 67L50 66L51 66L51 63L50 63L50 66L49 66L49 65L48 65L48 66L47 66L47 65L46 65L46 64L44 64L44 66L41 66L41 68L42 68L42 67L43 67L43 68L44 68L44 69L43 69L43 70L44 70L44 71L45 71L45 70L46 70L46 71L47 71L47 72L48 72L48 70L49 70L49 69L50 69L50 70L51 70L51 71L54 71L54 72L56 72L56 71L57 71L57 70L59 70L59 69L57 69L57 68L58 68L58 66L59 66L59 65L60 65L60 62L59 62L59 61ZM61 61L61 64L64 64L64 61ZM89 61L89 64L92 64L92 61ZM93 61L93 64L95 64L95 63L94 63L94 61ZM6 62L6 63L7 63L7 62ZM13 62L13 63L14 63L14 62ZM34 62L34 63L35 63L35 62ZM52 62L52 63L53 63L53 62ZM62 62L62 63L63 63L63 62ZM77 62L77 63L76 63L76 64L74 64L74 65L77 65L77 63L78 63L78 64L80 64L80 63L78 63L78 62ZM90 62L90 63L91 63L91 62ZM68 63L68 64L70 64L70 63ZM20 64L20 65L21 65L21 64ZM28 64L28 65L29 65L29 66L30 66L30 65L29 65L29 64ZM6 65L6 66L7 66L7 65ZM69 65L69 66L70 66L70 65ZM79 65L79 66L80 66L80 65ZM20 66L20 67L21 67L21 66ZM44 66L44 68L45 68L45 69L46 69L46 67L47 67L47 66ZM77 66L77 67L78 67L78 66ZM66 67L66 68L65 68L65 69L67 69L67 68L68 68L68 67ZM72 67L72 68L71 68L71 69L72 69L72 68L73 68L73 67ZM5 68L5 70L6 70L6 71L8 71L8 70L9 70L9 69L8 69L8 70L6 70L6 69L7 69L7 68ZM48 68L48 69L49 69L49 68ZM84 68L84 69L85 69L85 68ZM95 68L95 69L96 69L96 68ZM1 70L1 71L2 71L2 70ZM25 70L25 71L26 71L26 70ZM55 70L55 71L56 71L56 70ZM65 70L65 71L66 71L66 70ZM82 70L82 71L83 71L83 72L84 72L84 71L83 71L83 70ZM90 70L90 71L91 71L91 70ZM92 70L92 71L93 71L93 70ZM28 71L28 72L30 72L30 73L31 73L31 71ZM16 72L16 73L17 73L17 72ZM38 72L38 73L39 73L39 72ZM85 72L85 73L86 73L86 72ZM6 73L6 74L7 74L7 75L8 75L8 74L7 74L7 73ZM33 73L33 75L34 75L34 73ZM59 73L59 75L60 75L60 73ZM63 73L63 74L62 74L62 75L63 75L63 74L64 74L64 73ZM79 73L79 74L80 74L80 73ZM37 74L37 75L39 75L39 76L38 76L38 77L39 77L39 78L40 78L40 76L41 76L41 75L40 75L40 74ZM96 74L96 75L97 75L97 74ZM30 75L30 76L32 76L32 75ZM46 75L46 76L47 76L47 75ZM48 75L48 76L49 76L49 77L50 77L50 76L49 76L49 75ZM77 75L77 76L76 76L76 77L77 77L77 78L78 78L78 79L79 79L79 78L78 78L78 77L77 77L77 76L78 76L78 75ZM90 76L90 77L91 77L91 78L92 78L92 77L91 77L91 76ZM96 76L96 77L97 77L97 76ZM4 77L4 78L5 78L5 77ZM13 77L13 78L14 78L14 77ZM16 77L16 78L17 78L17 77ZM1 78L1 79L3 79L3 78ZM89 78L89 79L90 79L90 78ZM6 79L6 80L7 80L7 79ZM32 79L32 80L33 80L33 81L34 81L34 80L33 80L33 79ZM65 79L65 80L67 80L67 81L68 81L68 82L67 82L67 83L68 83L68 82L69 82L69 81L68 81L68 80L67 80L67 79ZM1 80L1 81L2 81L2 82L3 82L3 81L2 81L2 80ZM12 80L12 81L13 81L13 80ZM23 80L23 81L24 81L24 80ZM72 80L72 82L73 82L73 84L72 84L72 85L73 85L73 84L74 84L74 82L73 82L73 80ZM89 80L89 82L90 82L90 83L91 83L91 82L92 82L92 81L93 81L93 80ZM25 81L25 82L24 82L24 83L23 83L23 84L26 84L26 83L25 83L25 82L28 82L28 81ZM39 81L39 82L40 82L40 81ZM60 81L60 82L61 82L61 81ZM65 81L65 82L66 82L66 81ZM90 81L90 82L91 82L91 81ZM81 82L81 83L82 83L82 82ZM87 82L87 83L88 83L88 82ZM36 83L36 84L37 84L37 83ZM42 83L42 84L43 84L43 85L42 85L42 86L44 86L44 84L45 84L45 83L44 83L44 84L43 84L43 83ZM0 84L0 86L1 86L1 84ZM7 84L7 85L8 85L8 84ZM29 84L29 85L30 85L30 84ZM89 84L89 85L88 85L88 86L87 86L87 87L89 87L89 85L91 85L91 84ZM17 85L17 86L18 86L18 85ZM46 85L46 86L47 86L47 85ZM55 85L55 86L53 86L53 87L54 87L54 88L56 88L56 87L57 87L57 86L56 86L56 85ZM7 86L7 87L6 87L6 88L8 88L8 89L9 89L9 88L10 88L10 87L9 87L9 86ZM15 86L15 91L17 91L17 92L16 92L16 93L17 93L17 94L16 94L16 95L17 95L17 94L19 94L19 92L20 92L20 91L19 91L19 90L17 90L17 89L16 89L16 88L17 88L17 87L16 87L16 86ZM69 86L69 87L70 87L70 86ZM77 86L77 87L76 87L76 88L77 88L77 89L76 89L76 90L77 90L77 89L78 89L78 88L77 88L77 87L78 87L78 86ZM90 86L90 87L91 87L91 86ZM95 86L95 87L97 87L97 86ZM11 87L11 88L13 88L13 89L14 89L14 88L13 88L13 87ZM38 88L38 89L39 89L39 88ZM47 88L47 89L49 89L49 88ZM51 88L51 89L53 89L53 88ZM85 88L85 89L86 89L86 88ZM20 89L20 90L21 90L21 93L20 93L20 96L21 96L21 95L22 95L22 94L21 94L21 93L23 93L23 96L24 96L24 95L25 95L25 94L24 94L24 93L26 93L26 92L24 92L24 91L23 91L23 92L22 92L22 90L21 90L21 89ZM23 89L23 90L24 90L24 89ZM33 89L33 92L36 92L36 89ZM61 89L61 92L64 92L64 89ZM66 89L66 90L68 90L68 89ZM69 89L69 90L70 90L70 89ZM80 89L80 90L82 90L82 91L83 91L83 92L84 92L84 91L83 91L83 90L82 90L82 89ZM89 89L89 92L92 92L92 89ZM93 89L93 92L95 92L95 90L94 90L94 89ZM26 90L26 91L27 91L27 90ZM34 90L34 91L35 91L35 90ZM46 90L46 91L47 91L47 90ZM62 90L62 91L63 91L63 90ZM90 90L90 91L91 91L91 90ZM18 91L18 92L17 92L17 93L18 93L18 92L19 92L19 91ZM23 92L23 93L24 93L24 92ZM40 92L40 93L41 93L41 92ZM78 92L78 93L77 93L77 94L76 94L76 93L75 93L75 96L76 96L76 95L77 95L77 96L78 96L78 95L80 95L80 96L83 96L83 95L82 95L82 94L80 94L80 92ZM29 93L29 95L28 95L28 97L29 97L29 96L30 96L30 97L32 97L32 96L30 96L30 95L31 95L31 94L30 94L30 93ZM72 93L72 94L74 94L74 93ZM78 93L78 94L77 94L77 95L78 95L78 94L79 94L79 93ZM89 93L89 94L90 94L90 95L91 95L91 94L90 94L90 93ZM9 94L9 95L10 95L10 94ZM57 94L57 95L58 95L58 94ZM61 95L61 96L62 96L62 95ZM26 96L26 97L27 97L27 96ZM38 96L38 97L39 97L39 96ZM57 96L57 97L58 97L58 96ZM0 0L0 7L7 7L7 0ZM1 1L1 6L6 6L6 1ZM2 2L2 5L5 5L5 2ZM90 0L90 7L97 7L97 0ZM91 1L91 6L96 6L96 1ZM92 2L92 5L95 5L95 2ZM0 90L0 97L7 97L7 90ZM1 91L1 96L6 96L6 91ZM2 92L2 95L5 95L5 92Z" fill="#000000"/></g></g></svg>
