<?xml version="1.0" encoding="UTF-8"?>
<svg xmlns="http://www.w3.org/2000/svg" version="1.1" width="300" height="300" viewBox="0 0 300 300"><rect x="0" y="0" width="300" height="300" fill="#ffffff"/><g transform="scale(2.97)"><g transform="translate(0,0)"><path fill-rule="evenodd" d="M8 0L8 4L10 4L10 3L11 3L11 4L14 4L14 5L11 5L11 6L10 6L10 5L8 5L8 7L9 7L9 6L10 6L10 7L11 7L11 8L12 8L12 9L13 9L13 10L14 10L14 8L15 8L15 11L12 11L12 10L11 10L11 9L8 9L8 10L6 10L6 11L8 11L8 12L5 12L5 11L3 11L3 12L2 12L2 11L1 11L1 12L0 12L0 16L1 16L1 17L0 17L0 18L2 18L2 17L3 17L3 16L4 16L4 17L5 17L5 18L6 18L6 19L7 19L7 20L6 20L6 21L5 21L5 23L4 23L4 20L5 20L5 19L3 19L3 20L0 20L0 22L2 22L2 21L3 21L3 24L6 24L6 25L7 25L7 26L5 26L5 25L4 25L4 26L3 26L3 25L2 25L2 23L0 23L0 25L2 25L2 26L3 26L3 27L1 27L1 26L0 26L0 29L1 29L1 30L3 30L3 31L0 31L0 39L2 39L2 40L3 40L3 41L4 41L4 40L5 40L5 41L7 41L7 40L6 40L6 39L7 39L7 38L6 38L6 37L7 37L7 36L6 36L6 37L5 37L5 36L4 36L4 35L8 35L8 34L4 34L4 33L3 33L3 34L1 34L1 33L2 33L2 32L3 32L3 31L5 31L5 33L8 33L8 32L9 32L9 35L10 35L10 32L9 32L9 29L10 29L10 28L11 28L11 32L12 32L12 30L13 30L13 31L15 31L15 30L17 30L17 31L16 31L16 32L14 32L14 33L13 33L13 34L12 34L12 33L11 33L11 35L14 35L14 37L12 37L12 36L11 36L11 37L9 37L9 38L10 38L10 39L11 39L11 41L10 41L10 40L8 40L8 42L9 42L9 41L10 41L10 42L11 42L11 41L13 41L13 40L14 40L14 41L15 41L15 42L14 42L14 43L13 43L13 42L12 42L12 43L13 43L13 44L12 44L12 45L11 45L11 44L10 44L10 43L9 43L9 45L10 45L10 46L12 46L12 47L11 47L11 49L9 49L9 47L8 47L8 46L6 46L6 45L8 45L8 44L6 44L6 45L5 45L5 42L0 42L0 43L1 43L1 44L0 44L0 46L2 46L2 45L1 45L1 44L2 44L2 43L3 43L3 44L4 44L4 45L3 45L3 46L5 46L5 47L3 47L3 48L1 48L1 47L0 47L0 50L1 50L1 49L2 49L2 50L3 50L3 51L4 51L4 53L3 53L3 52L2 52L2 54L1 54L1 51L0 51L0 54L1 54L1 55L0 55L0 58L1 58L1 56L3 56L3 55L11 55L11 56L12 56L12 57L10 57L10 58L8 58L8 59L7 59L7 58L6 58L6 59L5 59L5 58L4 58L4 57L3 57L3 58L2 58L2 59L3 59L3 61L2 61L2 60L1 60L1 59L0 59L0 60L1 60L1 61L0 61L0 64L1 64L1 67L0 67L0 68L3 68L3 70L2 70L2 69L0 69L0 71L1 71L1 70L2 70L2 72L3 72L3 73L2 73L2 74L1 74L1 72L0 72L0 74L1 74L1 75L0 75L0 76L1 76L1 77L2 77L2 78L4 78L4 79L3 79L3 80L2 80L2 81L1 81L1 80L0 80L0 82L3 82L3 80L5 80L5 81L4 81L4 82L5 82L5 83L4 83L4 84L5 84L5 85L4 85L4 86L3 86L3 88L4 88L4 89L5 89L5 86L6 86L6 87L7 87L7 88L6 88L6 89L7 89L7 90L6 90L6 91L5 91L5 90L3 90L3 91L2 91L2 92L4 92L4 93L5 93L5 92L6 92L6 93L8 93L8 94L10 94L10 98L9 98L9 99L8 99L8 101L9 101L9 99L10 99L10 98L11 98L11 96L12 96L12 97L13 97L13 98L12 98L12 100L10 100L10 101L13 101L13 98L14 98L14 97L13 97L13 96L14 96L14 92L15 92L15 95L16 95L16 96L17 96L17 98L16 98L16 97L15 97L15 98L16 98L16 99L15 99L15 100L14 100L14 101L17 101L17 100L18 100L18 101L21 101L21 99L22 99L22 100L23 100L23 101L27 101L27 99L28 99L28 100L30 100L30 101L31 101L31 100L32 100L32 101L37 101L37 100L36 100L36 99L38 99L38 101L39 101L39 99L38 99L38 98L41 98L41 99L40 99L40 100L41 100L41 101L43 101L43 99L44 99L44 98L45 98L45 99L49 99L49 100L48 100L48 101L50 101L50 99L49 99L49 97L50 97L50 98L51 98L51 97L53 97L53 99L51 99L51 100L54 100L54 101L57 101L57 100L60 100L60 101L63 101L63 99L64 99L64 100L65 100L65 101L66 101L66 100L68 100L68 99L69 99L69 100L70 100L70 99L72 99L72 97L75 97L75 96L77 96L77 95L78 95L78 97L76 97L76 98L78 98L78 97L79 97L79 95L78 95L78 94L79 94L79 93L81 93L81 92L82 92L82 94L80 94L80 95L81 95L81 96L80 96L80 99L74 99L74 98L73 98L73 100L72 100L72 101L75 101L75 100L77 100L77 101L80 101L80 99L81 99L81 101L86 101L86 100L89 100L89 101L91 101L91 100L92 100L92 101L95 101L95 100L96 100L96 101L98 101L98 100L96 100L96 97L98 97L98 95L99 95L99 97L100 97L100 96L101 96L101 90L99 90L99 89L98 89L98 87L99 87L99 85L98 85L98 83L97 83L97 81L96 81L96 84L97 84L97 85L95 85L95 84L94 84L94 85L95 85L95 86L94 86L94 87L92 87L92 86L93 86L93 84L92 84L92 83L95 83L95 81L94 81L94 82L93 82L93 81L92 81L92 79L91 79L91 80L90 80L90 79L88 79L88 76L90 76L90 78L91 78L91 77L93 77L93 80L95 80L95 78L96 78L96 80L98 80L98 82L99 82L99 80L101 80L101 76L100 76L100 75L101 75L101 73L100 73L100 75L99 75L99 76L98 76L98 75L97 75L97 73L98 73L98 74L99 74L99 73L98 73L98 72L97 72L97 70L98 70L98 71L101 71L101 69L99 69L99 70L98 70L98 65L99 65L99 66L100 66L100 67L101 67L101 66L100 66L100 65L101 65L101 64L98 64L98 63L97 63L97 62L99 62L99 61L98 61L98 58L99 58L99 60L100 60L100 63L101 63L101 60L100 60L100 59L101 59L101 53L100 53L100 57L99 57L99 56L98 56L98 55L97 55L97 54L99 54L99 53L97 53L97 52L98 52L98 50L97 50L97 49L98 49L98 48L95 48L95 47L96 47L96 46L97 46L97 45L99 45L99 44L98 44L98 41L97 41L97 40L95 40L95 41L93 41L93 40L94 40L94 38L95 38L95 39L96 39L96 37L94 37L94 36L91 36L91 35L86 35L86 34L87 34L87 31L88 31L88 32L90 32L90 34L91 34L91 31L90 31L90 30L88 30L88 28L89 28L89 29L90 29L90 28L91 28L91 27L92 27L92 31L94 31L94 32L95 32L95 31L97 31L97 29L98 29L98 30L100 30L100 31L101 31L101 25L100 25L100 24L99 24L99 25L100 25L100 26L98 26L98 27L97 27L97 26L96 26L96 24L95 24L95 23L94 23L94 22L92 22L92 21L93 21L93 19L92 19L92 21L91 21L91 19L90 19L90 18L92 18L92 17L93 17L93 16L92 16L92 17L91 17L91 15L92 15L92 14L91 14L91 13L93 13L93 15L94 15L94 17L95 17L95 15L96 15L96 14L97 14L97 15L98 15L98 14L99 14L99 13L100 13L100 16L99 16L99 17L98 17L98 16L97 16L97 18L98 18L98 19L99 19L99 21L100 21L100 23L101 23L101 20L100 20L100 19L101 19L101 8L97 8L97 11L98 11L98 10L99 10L99 9L100 9L100 12L99 12L99 13L97 13L97 12L96 12L96 14L94 14L94 13L95 13L95 11L96 11L96 8L95 8L95 9L93 9L93 8L92 8L92 7L93 7L93 6L92 6L92 5L93 5L93 4L92 4L92 2L91 2L91 3L89 3L89 2L90 2L90 1L92 1L92 0L88 0L88 1L86 1L86 0L84 0L84 1L83 1L83 2L84 2L84 1L86 1L86 2L85 2L85 3L87 3L87 4L88 4L88 3L89 3L89 4L90 4L90 5L91 5L91 6L90 6L90 8L89 8L89 6L88 6L88 8L89 8L89 9L90 9L90 8L92 8L92 9L91 9L91 10L93 10L93 11L92 11L92 12L91 12L91 11L88 11L88 10L87 10L87 9L85 9L85 8L84 8L84 10L83 10L83 9L81 9L81 8L83 8L83 6L82 6L82 5L81 5L81 4L83 4L83 3L80 3L80 1L79 1L79 0L77 0L77 1L74 1L74 0L71 0L71 1L73 1L73 2L74 2L74 3L77 3L77 4L78 4L78 8L80 8L80 11L78 11L78 10L79 10L79 9L77 9L77 5L76 5L76 4L71 4L71 3L68 3L68 4L66 4L66 3L67 3L67 1L69 1L69 2L70 2L70 1L69 1L69 0L67 0L67 1L65 1L65 0L63 0L63 1L62 1L62 0L60 0L60 1L59 1L59 2L58 2L58 4L59 4L59 3L60 3L60 1L62 1L62 2L61 2L61 3L63 3L63 1L64 1L64 4L66 4L66 5L62 5L62 4L60 4L60 5L59 5L59 6L58 6L58 5L57 5L57 4L56 4L56 1L58 1L58 0L55 0L55 1L53 1L53 0L51 0L51 1L50 1L50 0L49 0L49 2L50 2L50 3L51 3L51 1L52 1L52 4L49 4L49 3L48 3L48 7L47 7L47 4L46 4L46 5L45 5L45 6L44 6L44 5L43 5L43 4L42 4L42 3L44 3L44 4L45 4L45 3L46 3L46 2L45 2L45 1L44 1L44 0L40 0L40 1L39 1L39 0L38 0L38 3L36 3L36 5L38 5L38 7L37 7L37 6L36 6L36 7L37 7L37 8L39 8L39 4L38 4L38 3L39 3L39 2L40 2L40 3L41 3L41 4L42 4L42 5L40 5L40 8L41 8L41 9L42 9L42 7L43 7L43 6L44 6L44 7L45 7L45 8L47 8L47 10L46 10L46 11L45 11L45 10L43 10L43 11L42 11L42 10L40 10L40 9L39 9L39 11L38 11L38 9L36 9L36 8L34 8L34 7L35 7L35 6L34 6L34 5L35 5L35 3L34 3L34 0L32 0L32 1L30 1L30 0L27 0L27 1L26 1L26 3L27 3L27 4L25 4L25 3L24 3L24 5L25 5L25 6L24 6L24 7L25 7L25 6L26 6L26 8L25 8L25 9L24 9L24 8L23 8L23 9L22 9L22 8L21 8L21 9L22 9L22 11L21 11L21 12L20 12L20 11L18 11L18 12L17 12L17 10L16 10L16 9L19 9L19 10L20 10L20 8L18 8L18 7L19 7L19 6L20 6L20 7L21 7L21 6L20 6L20 5L21 5L21 4L19 4L19 6L18 6L18 7L17 7L17 5L18 5L18 4L16 4L16 2L18 2L18 1L20 1L20 0L16 0L16 1L15 1L15 2L14 2L14 0L13 0L13 1L12 1L12 2L10 2L10 3L9 3L9 1L11 1L11 0ZM21 0L21 2L19 2L19 3L21 3L21 2L22 2L22 0ZM23 0L23 1L25 1L25 0ZM46 0L46 1L47 1L47 0ZM81 0L81 2L82 2L82 0ZM32 1L32 6L31 6L31 7L32 7L32 8L31 8L31 9L33 9L33 7L34 7L34 6L33 6L33 5L34 5L34 4L33 4L33 1ZM12 2L12 3L13 3L13 2ZM30 2L30 4L31 4L31 2ZM41 2L41 3L42 3L42 2ZM14 3L14 4L15 4L15 3ZM28 3L28 4L29 4L29 3ZM53 3L53 4L55 4L55 9L56 9L56 8L57 8L57 7L58 7L58 8L59 8L59 7L60 7L60 8L61 8L61 7L62 7L62 6L61 6L61 5L60 5L60 6L59 6L59 7L58 7L58 6L57 6L57 7L56 7L56 4L55 4L55 3ZM78 3L78 4L80 4L80 3ZM22 4L22 5L23 5L23 4ZM68 4L68 6L67 6L67 7L66 7L66 6L65 6L65 7L66 7L66 9L67 9L67 10L65 10L65 8L64 8L64 6L63 6L63 8L64 8L64 9L63 9L63 10L62 10L62 9L59 9L59 10L61 10L61 11L60 11L60 12L61 12L61 13L59 13L59 11L58 11L58 9L57 9L57 10L56 10L56 12L57 12L57 15L56 15L56 16L55 16L55 17L56 17L56 16L57 16L57 19L56 19L56 18L54 18L54 17L53 17L53 16L54 16L54 15L55 15L55 12L54 12L54 11L55 11L55 10L54 10L54 11L53 11L53 10L52 10L52 11L51 11L51 10L50 10L50 12L52 12L52 11L53 11L53 12L54 12L54 13L53 13L53 14L50 14L50 13L49 13L49 11L48 11L48 12L47 12L47 11L46 11L46 12L45 12L45 11L44 11L44 12L45 12L45 13L49 13L49 15L50 15L50 16L51 16L51 17L52 17L52 19L56 19L56 20L55 20L55 22L54 22L54 21L52 21L52 23L53 23L53 24L54 24L54 25L53 25L53 27L54 27L54 28L53 28L53 29L54 29L54 30L53 30L53 31L55 31L55 30L57 30L57 29L54 29L54 28L55 28L55 27L56 27L56 28L57 28L57 27L56 27L56 26L58 26L58 24L60 24L60 26L61 26L61 27L58 27L58 29L59 29L59 28L60 28L60 31L59 31L59 33L60 33L60 34L58 34L58 33L57 33L57 35L56 35L56 37L57 37L57 35L60 35L60 36L58 36L58 38L59 38L59 39L57 39L57 38L55 38L55 36L53 36L53 35L55 35L55 33L56 33L56 32L57 32L57 31L56 31L56 32L55 32L55 33L54 33L54 32L53 32L53 33L54 33L54 34L52 34L52 33L51 33L51 31L48 31L48 28L47 28L47 29L46 29L46 28L45 28L45 27L44 27L44 26L42 26L42 24L40 24L40 23L43 23L43 24L45 24L45 23L46 23L46 24L48 24L48 25L49 25L49 26L50 26L50 23L51 23L51 18L50 18L50 20L49 20L49 18L48 18L48 17L49 17L49 16L48 16L48 15L46 15L46 14L42 14L42 13L43 13L43 12L42 12L42 13L41 13L41 14L40 14L40 15L39 15L39 14L38 14L38 12L37 12L37 11L34 11L34 10L36 10L36 9L34 9L34 10L33 10L33 11L32 11L32 10L30 10L30 11L29 11L29 12L28 12L28 13L25 13L25 14L23 14L23 11L24 11L24 12L25 12L25 11L26 11L26 12L27 12L27 11L26 11L26 10L28 10L28 9L26 9L26 10L25 10L25 11L24 11L24 9L23 9L23 11L22 11L22 14L23 14L23 15L21 15L21 14L20 14L20 15L19 15L19 13L15 13L15 12L14 12L14 13L13 13L13 12L11 12L11 13L10 13L10 12L8 12L8 14L7 14L7 13L5 13L5 12L3 12L3 13L4 13L4 14L2 14L2 12L1 12L1 15L2 15L2 16L3 16L3 15L4 15L4 14L7 14L7 15L5 15L5 16L7 16L7 17L6 17L6 18L8 18L8 19L9 19L9 20L12 20L12 21L11 21L11 22L10 22L10 21L6 21L6 22L8 22L8 25L9 25L9 24L19 24L19 25L18 25L18 27L17 27L17 26L16 26L16 25L13 25L13 26L12 26L12 27L11 27L11 26L9 26L9 28L10 28L10 27L11 27L11 28L12 28L12 27L13 27L13 26L14 26L14 28L13 28L13 30L14 30L14 28L15 28L15 29L17 29L17 30L18 30L18 31L17 31L17 33L16 33L16 34L15 34L15 33L14 33L14 34L15 34L15 36L16 36L16 37L17 37L17 36L16 36L16 34L17 34L17 35L18 35L18 34L17 34L17 33L21 33L21 34L20 34L20 35L19 35L19 38L20 38L20 35L22 35L22 36L21 36L21 37L23 37L23 38L24 38L24 39L21 39L21 40L20 40L20 41L18 41L18 42L19 42L19 43L18 43L18 44L19 44L19 45L15 45L15 46L18 46L18 47L19 47L19 51L16 51L16 49L17 49L17 48L16 48L16 47L14 47L14 46L13 46L13 47L12 47L12 48L13 48L13 47L14 47L14 48L16 48L16 49L15 49L15 50L14 50L14 54L13 54L13 50L12 50L12 49L11 49L11 50L12 50L12 53L11 53L11 51L10 51L10 52L9 52L9 54L10 54L10 53L11 53L11 54L12 54L12 55L14 55L14 56L13 56L13 57L15 57L15 58L16 58L16 57L17 57L17 56L18 56L18 55L16 55L16 54L18 54L18 53L16 53L16 52L19 52L19 54L21 54L21 55L22 55L22 54L24 54L24 53L26 53L26 50L25 50L25 49L26 49L26 48L27 48L27 47L28 47L28 48L30 48L30 47L29 47L29 44L31 44L31 45L30 45L30 46L31 46L31 47L32 47L32 48L33 48L33 47L35 47L35 48L34 48L34 49L33 49L33 50L35 50L35 51L34 51L34 52L35 52L35 51L36 51L36 52L37 52L37 53L38 53L38 54L39 54L39 53L40 53L40 51L41 51L41 52L42 52L42 54L40 54L40 55L36 55L36 53L35 53L35 55L34 55L34 53L33 53L33 55L32 55L32 53L31 53L31 55L29 55L29 56L31 56L31 55L32 55L32 56L33 56L33 55L34 55L34 57L33 57L33 58L32 58L32 57L30 57L30 58L29 58L29 57L28 57L28 55L27 55L27 54L26 54L26 55L23 55L23 56L22 56L22 57L20 57L20 55L19 55L19 60L18 60L18 61L17 61L17 59L18 59L18 58L17 58L17 59L16 59L16 61L15 61L15 59L14 59L14 61L15 61L15 63L13 63L13 66L12 66L12 65L11 65L11 66L12 66L12 67L11 67L11 68L9 68L9 67L10 67L10 64L12 64L12 58L11 58L11 59L8 59L8 60L7 60L7 59L6 59L6 60L7 60L7 61L6 61L6 62L7 62L7 63L4 63L4 62L5 62L5 61L3 61L3 62L2 62L2 61L1 61L1 62L2 62L2 63L1 63L1 64L2 64L2 67L3 67L3 68L4 68L4 69L5 69L5 70L7 70L7 69L8 69L8 70L9 70L9 75L6 75L6 76L5 76L5 75L4 75L4 73L3 73L3 75L4 75L4 76L3 76L3 77L4 77L4 78L5 78L5 80L7 80L7 79L8 79L8 80L9 80L9 81L8 81L8 82L7 82L7 81L6 81L6 82L7 82L7 83L6 83L6 84L7 84L7 83L8 83L8 82L9 82L9 83L10 83L10 84L9 84L9 86L7 86L7 85L6 85L6 86L7 86L7 87L9 87L9 88L7 88L7 89L8 89L8 93L12 93L12 94L11 94L11 95L12 95L12 94L13 94L13 92L14 92L14 90L13 90L13 91L12 91L12 92L10 92L10 91L11 91L11 89L13 89L13 88L11 88L11 89L10 89L10 87L9 87L9 86L11 86L11 85L12 85L12 86L13 86L13 84L14 84L14 86L17 86L17 88L18 88L18 92L17 92L17 89L16 89L16 87L15 87L15 91L16 91L16 92L17 92L17 94L16 94L16 95L17 95L17 96L19 96L19 97L18 97L18 98L17 98L17 99L18 99L18 100L20 100L20 99L21 99L21 97L22 97L22 98L23 98L23 97L24 97L24 98L25 98L25 97L26 97L26 95L24 95L24 96L19 96L19 95L22 95L22 93L23 93L23 94L24 94L24 93L25 93L25 94L26 94L26 92L28 92L28 90L27 90L27 91L26 91L26 90L25 90L25 91L24 91L24 90L23 90L23 89L24 89L24 88L25 88L25 87L24 87L24 85L25 85L25 86L27 86L27 87L26 87L26 89L27 89L27 88L28 88L28 89L29 89L29 92L31 92L31 91L33 91L33 92L32 92L32 93L31 93L31 94L33 94L33 95L31 95L31 96L32 96L32 97L33 97L33 99L32 99L32 98L31 98L31 97L27 97L27 98L26 98L26 99L24 99L24 100L26 100L26 99L27 99L27 98L29 98L29 99L32 99L32 100L33 100L33 99L34 99L34 100L35 100L35 99L36 99L36 98L35 98L35 96L37 96L37 98L38 98L38 96L40 96L40 95L41 95L41 98L42 98L42 99L43 99L43 98L44 98L44 97L45 97L45 98L46 98L46 96L48 96L48 95L46 95L46 93L45 93L45 92L47 92L47 91L48 91L48 92L51 92L51 91L52 91L52 90L53 90L53 91L54 91L54 92L53 92L53 94L54 94L54 95L53 95L53 97L54 97L54 95L56 95L56 96L59 96L59 97L60 97L60 98L58 98L58 97L57 97L57 98L56 98L56 100L57 100L57 99L60 99L60 100L62 100L62 99L63 99L63 98L64 98L64 99L68 99L68 96L69 96L69 97L70 97L70 98L69 98L69 99L70 99L70 98L71 98L71 97L70 97L70 94L69 94L69 95L68 95L68 94L66 94L66 92L63 92L63 91L67 91L67 88L69 88L69 87L68 87L68 86L65 86L65 87L63 87L63 85L64 85L64 83L65 83L65 85L66 85L66 84L69 84L69 83L70 83L70 82L69 82L69 83L67 83L67 82L66 82L66 83L65 83L65 81L66 81L66 79L67 79L67 80L69 80L69 79L67 79L67 78L66 78L66 79L65 79L65 77L63 77L63 78L61 78L61 77L62 77L62 76L64 76L64 75L67 75L67 76L66 76L66 77L67 77L67 76L68 76L68 77L69 77L69 78L70 78L70 77L69 77L69 75L68 75L68 73L70 73L70 72L69 72L69 71L70 71L70 70L71 70L71 69L74 69L74 70L75 70L75 69L74 69L74 68L73 68L73 67L72 67L72 68L71 68L71 66L72 66L72 65L74 65L74 66L75 66L75 67L80 67L80 68L81 68L81 69L82 69L82 70L81 70L81 71L80 71L80 69L79 69L79 68L76 68L76 71L75 71L75 74L76 74L76 75L77 75L77 76L78 76L78 75L80 75L80 76L81 76L81 77L82 77L82 78L81 78L81 79L80 79L80 80L79 80L79 82L78 82L78 80L77 80L77 82L75 82L75 83L73 83L73 81L71 81L71 80L73 80L73 79L74 79L74 80L75 80L75 81L76 81L76 80L75 80L75 79L79 79L79 78L77 78L77 77L76 77L76 76L75 76L75 75L72 75L72 76L75 76L75 78L74 78L74 77L72 77L72 79L70 79L70 81L71 81L71 84L70 84L70 89L71 89L71 92L76 92L76 93L78 93L78 92L76 92L76 91L80 91L80 92L81 92L81 91L82 91L82 92L83 92L83 93L84 93L84 92L86 92L86 94L85 94L85 95L82 95L82 96L81 96L81 99L82 99L82 100L83 100L83 99L82 99L82 97L84 97L84 96L85 96L85 97L86 97L86 96L85 96L85 95L91 95L91 94L88 94L88 91L93 91L93 92L98 92L98 93L97 93L97 95L98 95L98 94L99 94L99 95L100 95L100 91L99 91L99 90L98 90L98 89L97 89L97 87L96 87L96 86L95 86L95 87L96 87L96 89L95 89L95 88L94 88L94 90L88 90L88 91L87 91L87 90L86 90L86 89L87 89L87 88L88 88L88 89L89 89L89 88L88 88L88 87L89 87L89 86L90 86L90 87L91 87L91 88L92 88L92 87L91 87L91 86L92 86L92 85L91 85L91 84L88 84L88 83L87 83L87 81L89 81L89 80L88 80L88 79L87 79L87 76L88 76L88 75L91 75L91 74L89 74L89 72L90 72L90 73L91 73L91 72L90 72L90 71L92 71L92 70L90 70L90 71L89 71L89 69L91 69L91 68L92 68L92 69L93 69L93 70L96 70L96 69L94 69L94 68L97 68L97 66L96 66L96 67L95 67L95 65L94 65L94 66L93 66L93 67L92 67L92 66L90 66L90 65L91 65L91 63L92 63L92 61L93 61L93 60L92 60L92 59L93 59L93 58L92 58L92 57L93 57L93 56L95 56L95 57L94 57L94 63L93 63L93 64L95 64L95 63L96 63L96 62L97 62L97 61L95 61L95 57L96 57L96 55L95 55L95 53L94 53L94 55L93 55L93 54L92 54L92 53L91 53L91 54L90 54L90 55L89 55L89 54L88 54L88 55L87 55L87 54L86 54L86 53L85 53L85 54L86 54L86 55L82 55L82 54L81 54L81 55L80 55L80 52L82 52L82 50L83 50L83 48L86 48L86 47L87 47L87 48L88 48L88 50L87 50L87 49L86 49L86 51L85 51L85 50L84 50L84 51L83 51L83 54L84 54L84 52L86 52L86 51L87 51L87 52L88 52L88 51L90 51L90 52L92 52L92 50L90 50L90 48L88 48L88 47L89 47L89 46L90 46L90 47L91 47L91 48L92 48L92 47L94 47L94 46L93 46L93 45L95 45L95 44L97 44L97 43L95 43L95 44L93 44L93 43L94 43L94 42L92 42L92 43L91 43L91 42L89 42L89 41L90 41L90 39L91 39L91 40L92 40L92 39L93 39L93 38L94 38L94 37L93 37L93 38L92 38L92 39L91 39L91 38L90 38L90 37L91 37L91 36L88 36L88 37L87 37L87 36L85 36L85 35L84 35L84 33L85 33L85 34L86 34L86 32L85 32L85 31L87 31L87 29L86 29L86 28L85 28L85 27L84 27L84 28L83 28L83 27L82 27L82 26L84 26L84 25L86 25L86 27L87 27L87 28L88 28L88 27L89 27L89 26L88 26L88 25L90 25L90 27L91 27L91 26L92 26L92 23L91 23L91 21L90 21L90 20L89 20L89 21L88 21L88 19L89 19L89 17L87 17L87 18L86 18L86 19L87 19L87 20L86 20L86 21L87 21L87 22L86 22L86 23L84 23L84 22L85 22L85 21L84 21L84 22L83 22L83 20L85 20L85 19L82 19L82 20L81 20L81 19L80 19L80 18L77 18L77 17L78 17L78 16L79 16L79 15L80 15L80 17L81 17L81 18L82 18L82 16L83 16L83 18L84 18L84 17L86 17L86 15L87 15L87 16L88 16L88 15L89 15L89 13L87 13L87 12L88 12L88 11L87 11L87 10L85 10L85 11L84 11L84 12L83 12L83 13L84 13L84 14L83 14L83 15L82 15L82 14L81 14L81 11L80 11L80 13L79 13L79 14L78 14L78 11L77 11L77 12L76 12L76 11L75 11L75 9L76 9L76 6L75 6L75 9L74 9L74 10L73 10L73 9L70 9L70 8L69 8L69 7L70 7L70 6L69 6L69 5L70 5L70 4ZM85 4L85 5L84 5L84 7L85 7L85 5L86 5L86 8L87 8L87 5L86 5L86 4ZM91 4L91 5L92 5L92 4ZM14 5L14 6L13 6L13 7L14 7L14 6L15 6L15 8L16 8L16 6L15 6L15 5ZM27 5L27 8L30 8L30 5ZM49 5L49 8L52 8L52 5ZM53 5L53 9L54 9L54 5ZM71 5L71 8L74 8L74 5ZM79 5L79 7L80 7L80 8L81 8L81 7L82 7L82 6L81 6L81 5ZM11 6L11 7L12 7L12 6ZM22 6L22 7L23 7L23 6ZM28 6L28 7L29 7L29 6ZM32 6L32 7L33 7L33 6ZM41 6L41 7L42 7L42 6ZM45 6L45 7L46 7L46 6ZM50 6L50 7L51 7L51 6ZM60 6L60 7L61 7L61 6ZM68 6L68 7L67 7L67 8L68 8L68 10L67 10L67 11L64 11L64 13L63 13L63 14L65 14L65 15L62 15L62 14L58 14L58 15L57 15L57 16L59 16L59 17L58 17L58 19L57 19L57 20L56 20L56 22L55 22L55 23L54 23L54 24L55 24L55 26L54 26L54 27L55 27L55 26L56 26L56 24L55 24L55 23L57 23L57 24L58 24L58 23L62 23L62 24L61 24L61 25L62 25L62 26L65 26L65 27L61 27L61 28L63 28L63 31L62 31L62 33L61 33L61 34L60 34L60 35L61 35L61 34L63 34L63 35L62 35L62 36L61 36L61 38L60 38L60 39L61 39L61 40L60 40L60 41L59 41L59 40L58 40L58 41L57 41L57 42L56 42L56 43L57 43L57 46L56 46L56 47L53 47L53 46L51 46L51 45L52 45L52 44L53 44L53 45L54 45L54 46L55 46L55 45L56 45L56 44L55 44L55 43L54 43L54 41L56 41L56 40L57 40L57 39L54 39L54 38L53 38L53 37L51 37L51 40L52 40L52 38L53 38L53 40L54 40L54 41L53 41L53 43L52 43L52 41L50 41L50 37L49 37L49 39L48 39L48 38L46 38L46 37L45 37L45 36L44 36L44 37L43 37L43 35L44 35L44 34L45 34L45 35L49 35L49 36L50 36L50 35L51 35L51 36L52 36L52 35L51 35L51 34L50 34L50 35L49 35L49 33L48 33L48 34L45 34L45 32L46 32L46 31L47 31L47 32L48 32L48 31L47 31L47 30L46 30L46 31L45 31L45 28L44 28L44 30L43 30L43 28L42 28L42 29L41 29L41 31L40 31L40 30L39 30L39 31L37 31L37 29L39 29L39 27L38 27L38 26L39 26L39 25L40 25L40 24L38 24L38 23L37 23L37 22L36 22L36 21L35 21L35 20L32 20L32 19L36 19L36 20L37 20L37 21L38 21L38 22L39 22L39 23L40 23L40 22L39 22L39 21L41 21L41 20L42 20L42 21L43 21L43 22L44 22L44 23L45 23L45 22L46 22L46 23L48 23L48 24L49 24L49 22L50 22L50 21L48 21L48 20L47 20L47 22L46 22L46 20L44 20L44 19L48 19L48 18L46 18L46 15L45 15L45 16L44 16L44 15L40 15L40 16L39 16L39 15L37 15L37 16L36 16L36 14L37 14L37 13L36 13L36 12L35 12L35 13L36 13L36 14L34 14L34 13L33 13L33 12L34 12L34 11L33 11L33 12L32 12L32 11L31 11L31 12L32 12L32 13L30 13L30 12L29 12L29 13L28 13L28 14L25 14L25 15L26 15L26 16L27 16L27 17L25 17L25 16L24 16L24 15L23 15L23 16L19 16L19 17L18 17L18 16L16 16L16 15L17 15L17 14L14 14L14 16L12 16L12 14L11 14L11 16L10 16L10 15L8 15L8 16L10 16L10 17L11 17L11 18L9 18L9 19L12 19L12 20L16 20L16 21L17 21L17 22L15 22L15 21L14 21L14 23L17 23L17 22L18 22L18 23L19 23L19 24L20 24L20 23L21 23L21 24L22 24L22 25L20 25L20 26L22 26L22 27L26 27L26 29L25 29L25 28L20 28L20 27L18 27L18 28L17 28L17 29L18 29L18 28L19 28L19 31L18 31L18 32L19 32L19 31L20 31L20 29L21 29L21 30L22 30L22 31L21 31L21 32L22 32L22 31L25 31L25 32L23 32L23 33L22 33L22 35L24 35L24 33L25 33L25 34L26 34L26 35L25 35L25 36L24 36L24 38L25 38L25 36L26 36L26 35L27 35L27 34L28 34L28 35L29 35L29 33L26 33L26 31L31 31L31 33L30 33L30 34L32 34L32 35L31 35L31 37L32 37L32 35L36 35L36 34L37 34L37 35L38 35L38 36L36 36L36 38L35 38L35 36L33 36L33 38L32 38L32 39L31 39L31 40L32 40L32 43L31 43L31 44L32 44L32 45L34 45L34 46L35 46L35 47L37 47L37 46L38 46L38 44L39 44L39 45L40 45L40 44L41 44L41 45L42 45L42 46L44 46L44 47L45 47L45 48L46 48L46 49L45 49L45 50L44 50L44 51L42 51L42 52L44 52L44 54L43 54L43 55L42 55L42 56L41 56L41 55L40 55L40 56L41 56L41 57L40 57L40 58L39 58L39 59L38 59L38 57L37 57L37 58L36 58L36 57L35 57L35 58L34 58L34 59L35 59L35 58L36 58L36 59L38 59L38 60L32 60L32 61L31 61L31 59L32 59L32 58L30 58L30 61L31 61L31 62L28 62L28 61L29 61L29 60L26 60L26 62L25 62L25 60L24 60L24 61L23 61L23 60L21 60L21 58L20 58L20 62L21 62L21 61L22 61L22 63L24 63L24 62L25 62L25 63L27 63L27 62L28 62L28 64L29 64L29 65L27 65L27 64L26 64L26 65L25 65L25 64L24 64L24 66L23 66L23 65L21 65L21 66L20 66L20 69L19 69L19 65L20 65L20 63L19 63L19 65L18 65L18 66L16 66L16 63L15 63L15 67L14 67L14 66L13 66L13 70L14 70L14 71L15 71L15 72L13 72L13 71L12 71L12 68L11 68L11 70L10 70L10 75L9 75L9 76L8 76L8 77L11 77L11 78L10 78L10 79L9 79L9 78L8 78L8 79L9 79L9 80L11 80L11 81L12 81L12 80L14 80L14 79L13 79L13 78L14 78L14 77L15 77L15 78L16 78L16 76L13 76L13 75L15 75L15 74L14 74L14 73L16 73L16 74L17 74L17 78L18 78L18 79L20 79L20 80L21 80L21 81L22 81L22 82L23 82L23 81L24 81L24 83L20 83L20 84L19 84L19 85L18 85L18 87L20 87L20 86L19 86L19 85L21 85L21 86L22 86L22 87L21 87L21 88L23 88L23 86L22 86L22 85L21 85L21 84L23 84L23 85L24 85L24 83L26 83L26 85L28 85L28 88L29 88L29 89L30 89L30 90L33 90L33 91L38 91L38 92L35 92L35 94L34 94L34 95L33 95L33 96L34 96L34 95L37 95L37 96L38 96L38 94L39 94L39 95L40 95L40 94L41 94L41 95L42 95L42 94L43 94L43 93L44 93L44 91L47 91L47 90L46 90L46 89L45 89L45 90L44 90L44 88L43 88L43 87L45 87L45 88L47 88L47 89L49 89L49 87L48 87L48 86L46 86L46 87L45 87L45 85L44 85L44 83L45 83L45 84L47 84L47 85L48 85L48 83L49 83L49 84L50 84L50 90L48 90L48 91L51 91L51 89L54 89L54 88L56 88L56 89L55 89L55 90L54 90L54 91L55 91L55 94L57 94L57 95L60 95L60 96L61 96L61 97L65 97L65 98L67 98L67 96L68 96L68 95L67 95L67 96L66 96L66 95L64 95L64 94L63 94L63 95L62 95L62 94L61 94L61 93L63 93L63 92L62 92L62 90L65 90L65 89L66 89L66 88L67 88L67 87L65 87L65 88L64 88L64 89L63 89L63 87L62 87L62 86L60 86L60 85L59 85L59 84L58 84L58 83L62 83L62 85L63 85L63 83L62 83L62 82L63 82L63 81L64 81L64 80L65 80L65 79L64 79L64 78L63 78L63 79L62 79L62 80L60 80L60 81L59 81L59 80L58 80L58 79L61 79L61 78L59 78L59 77L61 77L61 76L62 76L62 75L61 75L61 74L60 74L60 75L61 75L61 76L58 76L58 75L59 75L59 73L62 73L62 74L63 74L63 75L64 75L64 74L65 74L65 72L66 72L66 73L67 73L67 72L68 72L68 71L69 71L69 70L70 70L70 69L71 69L71 68L70 68L70 69L69 69L69 70L68 70L68 71L64 71L64 70L63 70L63 69L64 69L64 68L66 68L66 69L65 69L65 70L67 70L67 68L68 68L68 67L70 67L70 65L72 65L72 64L70 64L70 65L69 65L69 64L68 64L68 67L64 67L64 68L62 68L62 69L61 69L61 68L60 68L60 67L62 67L62 66L63 66L63 64L60 64L60 63L59 63L59 62L60 62L60 61L61 61L61 63L62 63L62 62L63 62L63 63L64 63L64 64L66 64L66 65L67 65L67 63L66 63L66 62L65 62L65 61L66 61L66 59L64 59L64 58L63 58L63 59L62 59L62 60L59 60L59 59L61 59L61 58L62 58L62 56L63 56L63 57L64 57L64 56L66 56L66 58L67 58L67 59L69 59L69 61L67 61L67 62L68 62L68 63L70 63L70 61L71 61L71 63L72 63L72 62L73 62L73 64L74 64L74 65L75 65L75 64L76 64L76 66L77 66L77 63L78 63L78 65L80 65L80 64L79 64L79 63L78 63L78 62L77 62L77 63L74 63L74 61L75 61L75 59L76 59L76 61L77 61L77 60L79 60L79 59L81 59L81 60L80 60L80 63L85 63L85 62L86 62L86 61L87 61L87 64L83 64L83 66L82 66L82 67L83 67L83 66L85 66L85 68L84 68L84 70L82 70L82 71L81 71L81 72L82 72L82 71L85 71L85 72L83 72L83 73L85 73L85 74L84 74L84 75L83 75L83 74L82 74L82 73L81 73L81 75L83 75L83 76L82 76L82 77L83 77L83 76L84 76L84 75L86 75L86 76L87 76L87 75L86 75L86 74L88 74L88 73L87 73L87 71L88 71L88 72L89 72L89 71L88 71L88 70L87 70L87 69L89 69L89 68L91 68L91 67L86 67L86 66L85 66L85 65L87 65L87 64L88 64L88 66L89 66L89 65L90 65L90 63L88 63L88 62L89 62L89 60L90 60L90 62L91 62L91 61L92 61L92 60L90 60L90 59L88 59L88 60L87 60L87 59L86 59L86 58L87 58L87 57L88 57L88 56L89 56L89 55L88 55L88 56L87 56L87 55L86 55L86 58L82 58L82 57L80 57L80 56L77 56L77 55L76 55L76 54L79 54L79 53L78 53L78 52L80 52L80 51L81 51L81 48L82 48L82 47L83 47L83 46L84 46L84 47L86 47L86 46L87 46L87 47L88 47L88 46L87 46L87 43L88 43L88 45L90 45L90 44L91 44L91 43L88 43L88 40L89 40L89 39L90 39L90 38L89 38L89 39L88 39L88 38L87 38L87 39L86 39L86 37L85 37L85 36L84 36L84 37L83 37L83 36L81 36L81 38L79 38L79 36L80 36L80 35L81 35L81 34L82 34L82 35L83 35L83 33L84 33L84 32L83 32L83 33L81 33L81 32L82 32L82 31L85 31L85 30L86 30L86 29L85 29L85 28L84 28L84 29L83 29L83 30L82 30L82 31L81 31L81 32L80 32L80 31L79 31L79 32L78 32L78 28L79 28L79 30L80 30L80 28L79 28L79 27L78 27L78 28L77 28L77 27L76 27L76 28L75 28L75 26L73 26L73 25L75 25L75 23L76 23L76 24L78 24L78 25L77 25L77 26L78 26L78 25L79 25L79 23L81 23L81 24L80 24L80 25L81 25L81 26L80 26L80 27L81 27L81 28L82 28L82 27L81 27L81 26L82 26L82 25L84 25L84 24L83 24L83 22L82 22L82 23L81 23L81 21L80 21L80 20L79 20L79 19L78 19L78 20L77 20L77 19L74 19L74 20L73 20L73 21L72 21L72 23L71 23L71 24L72 24L72 26L71 26L71 25L70 25L70 23L69 23L69 24L68 24L68 23L66 23L66 24L64 24L64 25L62 25L62 24L63 24L63 23L65 23L65 22L63 22L63 23L62 23L62 22L61 22L61 21L63 21L63 19L64 19L64 20L65 20L65 21L66 21L66 22L71 22L71 21L70 21L70 20L66 20L66 18L65 18L65 19L64 19L64 16L65 16L65 17L67 17L67 19L69 19L69 18L71 18L71 19L73 19L73 18L74 18L74 17L75 17L75 18L76 18L76 17L75 17L75 15L76 15L76 16L78 16L78 15L77 15L77 14L75 14L75 15L74 15L74 14L71 14L71 13L75 13L75 11L73 11L73 10L70 10L70 11L69 11L69 12L68 12L68 10L69 10L69 8L68 8L68 7L69 7L69 6ZM72 6L72 7L73 7L73 6ZM80 6L80 7L81 7L81 6ZM91 6L91 7L92 7L92 6ZM0 8L0 10L2 10L2 8ZM4 8L4 9L7 9L7 8ZM43 8L43 9L44 9L44 8ZM8 10L8 11L11 11L11 10ZM94 10L94 11L93 11L93 13L94 13L94 11L95 11L95 10ZM39 11L39 13L40 13L40 12L41 12L41 11ZM57 11L57 12L58 12L58 11ZM61 11L61 12L62 12L62 11ZM71 11L71 12L70 12L70 13L69 13L69 14L70 14L70 13L71 13L71 12L73 12L73 11ZM85 11L85 13L86 13L86 14L84 14L84 15L83 15L83 16L84 16L84 15L86 15L86 14L87 14L87 13L86 13L86 12L87 12L87 11ZM65 12L65 14L66 14L66 15L65 15L65 16L66 16L66 15L67 15L67 17L68 17L68 16L69 16L69 17L71 17L71 16L72 16L72 18L73 18L73 17L74 17L74 15L70 15L70 16L69 16L69 15L67 15L67 13L66 13L66 12ZM29 13L29 14L28 14L28 15L27 15L27 16L28 16L28 17L27 17L27 19L26 19L26 18L25 18L25 19L24 19L24 17L23 17L23 18L22 18L22 17L21 17L21 18L19 18L19 19L24 19L24 21L25 21L25 19L26 19L26 20L27 20L27 21L26 21L26 22L25 22L25 23L24 23L24 22L23 22L23 23L22 23L22 24L25 24L25 25L22 25L22 26L25 26L25 25L26 25L26 26L31 26L31 27L33 27L33 28L32 28L32 29L31 29L31 31L32 31L32 32L33 32L33 31L34 31L34 32L37 32L37 34L38 34L38 35L39 35L39 36L38 36L38 37L37 37L37 38L36 38L36 39L34 39L34 40L33 40L33 39L32 39L32 40L33 40L33 43L32 43L32 44L33 44L33 43L34 43L34 44L38 44L38 43L40 43L40 42L41 42L41 43L42 43L42 44L43 44L43 42L44 42L44 44L45 44L45 45L46 45L46 46L45 46L45 47L46 47L46 48L47 48L47 49L46 49L46 50L47 50L47 51L44 51L44 52L46 52L46 54L47 54L47 53L48 53L48 55L46 55L46 56L45 56L45 55L43 55L43 57L44 57L44 56L45 56L45 58L46 58L46 56L49 56L49 57L47 57L47 59L44 59L44 58L42 58L42 57L41 57L41 58L40 58L40 59L41 59L41 60L42 60L42 61L40 61L40 62L39 62L39 60L38 60L38 62L37 62L37 63L34 63L34 61L33 61L33 63L32 63L32 62L31 62L31 64L32 64L32 66L31 66L31 65L29 65L29 66L28 66L28 67L26 67L26 68L31 68L31 69L30 69L30 70L31 70L31 71L32 71L32 72L33 72L33 71L34 71L34 70L37 70L37 68L38 68L38 67L39 67L39 70L38 70L38 71L36 71L36 72L38 72L38 71L39 71L39 74L38 74L38 75L34 75L34 74L35 74L35 72L34 72L34 74L33 74L33 75L32 75L32 73L31 73L31 75L30 75L30 77L31 77L31 79L30 79L30 78L29 78L29 79L28 79L28 80L27 80L27 76L28 76L28 75L27 75L27 76L26 76L26 73L23 73L23 71L21 71L21 70L22 70L22 69L24 69L24 70L25 70L25 67L24 67L24 68L23 68L23 67L22 67L22 66L21 66L21 67L22 67L22 68L21 68L21 70L19 70L19 69L18 69L18 67L15 67L15 68L14 68L14 69L15 69L15 70L16 70L16 73L17 73L17 74L18 74L18 76L19 76L19 75L21 75L21 74L22 74L22 73L23 73L23 75L22 75L22 77L21 77L21 76L20 76L20 77L21 77L21 78L22 78L22 77L23 77L23 79L21 79L21 80L23 80L23 79L24 79L24 80L26 80L26 81L28 81L28 80L29 80L29 79L30 79L30 80L32 80L32 84L33 84L33 82L34 82L34 81L33 81L33 80L34 80L34 79L32 79L32 78L33 78L33 77L34 77L34 78L35 78L35 80L37 80L37 82L36 82L36 81L35 81L35 82L36 82L36 83L34 83L34 85L36 85L36 87L34 87L34 88L33 88L33 86L31 86L31 87L30 87L30 88L31 88L31 87L32 87L32 88L33 88L33 89L34 89L34 90L36 90L36 88L37 88L37 89L38 89L38 88L40 88L40 87L43 87L43 85L41 85L41 84L40 84L40 83L43 83L43 82L44 82L44 81L46 81L46 82L48 82L48 81L49 81L49 83L50 83L50 81L53 81L53 82L54 82L54 83L53 83L53 84L52 84L52 83L51 83L51 86L52 86L52 85L53 85L53 84L54 84L54 83L56 83L56 85L57 85L57 83L58 83L58 82L57 82L57 83L56 83L56 82L55 82L55 81L56 81L56 80L57 80L57 81L58 81L58 80L57 80L57 79L58 79L58 78L57 78L57 79L56 79L56 78L53 78L53 79L52 79L52 77L54 77L54 76L52 76L52 75L49 75L49 76L48 76L48 77L47 77L47 75L46 75L46 73L45 73L45 71L48 71L48 70L54 70L54 71L53 71L53 72L54 72L54 73L53 73L53 74L54 74L54 75L55 75L55 77L57 77L57 75L56 75L56 74L55 74L55 73L56 73L56 72L57 72L57 70L58 70L58 67L56 67L56 68L57 68L57 70L56 70L56 69L55 69L55 70L54 70L54 68L52 68L52 69L49 69L49 68L50 68L50 67L55 67L55 66L56 66L56 65L58 65L58 66L59 66L59 67L60 67L60 65L59 65L59 63L56 63L56 62L58 62L58 60L57 60L57 59L58 59L58 58L59 58L59 57L60 57L60 56L62 56L62 55L64 55L64 54L65 54L65 55L67 55L67 56L68 56L68 57L67 57L67 58L71 58L71 59L72 59L72 61L73 61L73 60L74 60L74 59L72 59L72 58L71 58L71 57L73 57L73 58L75 58L75 57L74 57L74 56L75 56L75 54L76 54L76 53L77 53L77 52L76 52L76 53L74 53L74 54L71 54L71 53L70 53L70 52L69 52L69 51L70 51L70 49L69 49L69 51L66 51L66 50L67 50L67 48L70 48L70 47L71 47L71 46L70 46L70 43L68 43L68 42L69 42L69 40L70 40L70 42L71 42L71 43L73 43L73 44L74 44L74 46L73 46L73 45L72 45L72 47L73 47L73 48L75 48L75 50L78 50L78 51L79 51L79 50L80 50L80 48L81 48L81 47L82 47L82 45L83 45L83 43L80 43L80 42L82 42L82 40L83 40L83 41L84 41L84 42L85 42L85 43L84 43L84 44L85 44L85 46L86 46L86 43L87 43L87 40L86 40L86 39L84 39L84 40L83 40L83 39L82 39L82 38L83 38L83 37L82 37L82 38L81 38L81 39L80 39L80 42L78 42L78 39L79 39L79 38L78 38L78 35L79 35L79 34L77 34L77 33L76 33L76 32L75 32L75 31L77 31L77 28L76 28L76 30L75 30L75 31L74 31L74 33L73 33L73 34L72 34L72 35L71 35L71 34L70 34L70 35L69 35L69 34L65 34L65 33L66 33L66 32L64 32L64 31L65 31L65 30L64 30L64 31L63 31L63 32L64 32L64 33L63 33L63 34L64 34L64 35L63 35L63 37L62 37L62 40L61 40L61 41L62 41L62 42L63 42L63 40L64 40L64 39L68 39L68 41L67 41L67 42L65 42L65 41L64 41L64 43L60 43L60 42L59 42L59 41L58 41L58 42L57 42L57 43L58 43L58 44L59 44L59 45L58 45L58 46L57 46L57 47L56 47L56 48L53 48L53 47L52 47L52 48L53 48L53 49L56 49L56 50L54 50L54 52L53 52L53 53L52 53L52 54L51 54L51 53L48 53L48 50L47 50L47 49L48 49L48 47L50 47L50 48L51 48L51 46L50 46L50 45L49 45L49 44L48 44L48 43L46 43L46 42L47 42L47 41L48 41L48 39L47 39L47 41L46 41L46 39L44 39L44 38L41 38L41 37L42 37L42 36L40 36L40 35L43 35L43 34L44 34L44 33L43 33L43 34L42 34L42 32L43 32L43 30L42 30L42 31L41 31L41 33L38 33L38 32L37 32L37 31L34 31L34 30L33 30L33 28L35 28L35 29L36 29L36 28L38 28L38 27L36 27L36 26L35 26L35 25L34 25L34 24L37 24L37 23L34 23L34 22L33 22L33 23L32 23L32 22L29 22L29 21L30 21L30 20L29 20L29 21L28 21L28 19L32 19L32 18L34 18L34 15L32 15L32 14L33 14L33 13L32 13L32 14L30 14L30 13ZM80 14L80 15L81 15L81 16L82 16L82 15L81 15L81 14ZM90 14L90 15L91 15L91 14ZM28 15L28 16L29 16L29 18L31 18L31 17L30 17L30 16L32 16L32 17L33 17L33 16L32 16L32 15ZM51 15L51 16L53 16L53 15ZM59 15L59 16L60 16L60 17L61 17L61 15ZM11 16L11 17L12 17L12 16ZM14 16L14 17L15 17L15 16ZM35 16L35 17L36 17L36 16ZM38 16L38 17L37 17L37 18L36 18L36 19L37 19L37 20L38 20L38 19L39 19L39 20L40 20L40 19L44 19L44 18L40 18L40 17L39 17L39 16ZM42 16L42 17L43 17L43 16ZM47 16L47 17L48 17L48 16ZM62 16L62 18L61 18L61 19L60 19L60 20L62 20L62 19L63 19L63 16ZM17 17L17 18L18 18L18 17ZM38 17L38 18L37 18L37 19L38 19L38 18L39 18L39 19L40 19L40 18L39 18L39 17ZM13 18L13 19L16 19L16 20L17 20L17 21L18 21L18 22L19 22L19 21L18 21L18 20L17 20L17 19L16 19L16 18ZM87 18L87 19L88 19L88 18ZM99 18L99 19L100 19L100 18ZM58 19L58 20L59 20L59 19ZM94 19L94 21L95 21L95 19ZM96 19L96 21L98 21L98 20L97 20L97 19ZM21 20L21 22L22 22L22 20ZM31 20L31 21L32 21L32 20ZM43 20L43 21L44 21L44 22L45 22L45 21L44 21L44 20ZM75 20L75 22L74 22L74 23L72 23L72 24L74 24L74 23L75 23L75 22L76 22L76 20ZM12 21L12 22L11 22L11 23L13 23L13 21ZM57 21L57 22L59 22L59 21ZM89 21L89 22L90 22L90 21ZM9 22L9 23L10 23L10 22ZM26 22L26 23L25 23L25 24L26 24L26 25L28 25L28 24L29 24L29 25L30 25L30 24L32 24L32 26L34 26L34 27L35 27L35 26L34 26L34 25L33 25L33 24L34 24L34 23L33 23L33 24L32 24L32 23L29 23L29 22L28 22L28 23L27 23L27 22ZM78 22L78 23L79 23L79 22ZM87 22L87 23L86 23L86 24L87 24L87 25L88 25L88 24L90 24L90 25L91 25L91 23L88 23L88 22ZM98 22L98 23L99 23L99 22ZM6 23L6 24L7 24L7 23ZM87 23L87 24L88 24L88 23ZM93 23L93 25L94 25L94 26L95 26L95 25L94 25L94 23ZM51 24L51 25L52 25L52 24ZM97 24L97 25L98 25L98 24ZM37 25L37 26L38 26L38 25ZM15 26L15 28L16 28L16 26ZM40 26L40 28L41 28L41 26ZM66 26L66 27L67 27L67 28L64 28L64 29L67 29L67 28L68 28L68 30L66 30L66 31L68 31L68 32L69 32L69 33L71 33L71 32L72 32L72 31L71 31L71 32L70 32L70 31L69 31L69 30L70 30L70 26L69 26L69 27L68 27L68 26ZM3 27L3 28L2 28L2 29L4 29L4 27ZM5 27L5 30L8 30L8 27ZM27 27L27 30L30 30L30 27ZM49 27L49 30L52 30L52 27ZM71 27L71 30L74 30L74 27ZM93 27L93 30L96 30L96 27ZM98 27L98 29L100 29L100 28L99 28L99 27ZM6 28L6 29L7 29L7 28ZM28 28L28 29L29 29L29 28ZM50 28L50 29L51 29L51 28ZM72 28L72 29L73 29L73 28ZM94 28L94 29L95 29L95 28ZM23 29L23 30L25 30L25 31L26 31L26 30L25 30L25 29ZM61 29L61 30L62 30L62 29ZM84 29L84 30L85 30L85 29ZM6 31L6 32L7 32L7 31ZM39 31L39 32L40 32L40 31ZM44 31L44 32L45 32L45 31ZM60 31L60 32L61 32L61 31ZM92 32L92 35L93 35L93 34L95 34L95 33L93 33L93 32ZM96 32L96 35L97 35L97 37L98 37L98 38L97 38L97 39L98 39L98 38L99 38L99 41L100 41L100 44L101 44L101 41L100 41L100 39L101 39L101 32L99 32L99 33L98 33L98 32ZM33 33L33 34L36 34L36 33ZM74 33L74 34L75 34L75 33ZM3 34L3 35L4 35L4 34ZM98 34L98 37L99 37L99 36L100 36L100 35L99 35L99 34ZM1 35L1 38L3 38L3 39L6 39L6 38L5 38L5 37L4 37L4 36L2 36L2 35ZM64 35L64 36L65 36L65 35ZM66 35L66 37L65 37L65 38L66 38L66 37L67 37L67 35ZM72 35L72 37L71 37L71 38L70 38L70 37L69 37L69 36L68 36L68 37L69 37L69 38L68 38L68 39L71 39L71 41L72 41L72 42L73 42L73 39L74 39L74 38L75 38L75 39L76 39L76 40L75 40L75 41L76 41L76 40L77 40L77 39L78 39L78 38L77 38L77 39L76 39L76 37L77 37L77 35L75 35L75 36L76 36L76 37L74 37L74 36L73 36L73 35ZM29 36L29 37L28 37L28 38L27 38L27 37L26 37L26 38L27 38L27 39L25 39L25 40L24 40L24 42L22 42L22 40L21 40L21 41L20 41L20 42L22 42L22 43L25 43L25 44L24 44L24 46L23 46L23 45L20 45L20 46L21 46L21 47L24 47L24 48L26 48L26 47L27 47L27 46L28 46L28 45L27 45L27 44L29 44L29 43L30 43L30 42L31 42L31 41L28 41L28 39L30 39L30 36ZM39 36L39 37L38 37L38 38L37 38L37 40L36 40L36 43L37 43L37 42L39 42L39 41L41 41L41 40L42 40L42 42L43 42L43 41L44 41L44 42L46 42L46 41L45 41L45 40L43 40L43 39L40 39L40 40L39 40L39 39L38 39L38 38L40 38L40 36ZM3 37L3 38L4 38L4 37ZM73 37L73 38L74 38L74 37ZM15 38L15 39L14 39L14 40L15 40L15 41L16 41L16 42L15 42L15 43L16 43L16 44L17 44L17 43L16 43L16 42L17 42L17 41L16 41L16 40L15 40L15 39L17 39L17 40L19 40L19 39L17 39L17 38ZM63 38L63 39L64 39L64 38ZM81 39L81 40L82 40L82 39ZM0 40L0 41L1 41L1 40ZM25 40L25 43L26 43L26 44L27 44L27 42L28 42L28 41L27 41L27 40ZM37 40L37 41L38 41L38 40ZM85 40L85 42L86 42L86 40ZM34 41L34 43L35 43L35 41ZM96 41L96 42L97 42L97 41ZM6 42L6 43L7 43L7 42ZM49 42L49 43L50 43L50 44L51 44L51 42ZM58 42L58 43L59 43L59 42ZM74 42L74 43L75 43L75 44L76 44L76 45L75 45L75 46L74 46L74 47L75 47L75 48L76 48L76 49L78 49L78 50L79 50L79 48L80 48L80 47L81 47L81 46L80 46L80 47L78 47L78 48L77 48L77 47L75 47L75 46L77 46L77 45L78 45L78 44L80 44L80 43L78 43L78 42L77 42L77 43L76 43L76 42ZM20 43L20 44L21 44L21 43ZM45 43L45 44L46 44L46 45L47 45L47 46L46 46L46 47L47 47L47 46L48 46L48 45L47 45L47 44L46 44L46 43ZM64 43L64 44L60 44L60 45L59 45L59 46L58 46L58 47L57 47L57 48L58 48L58 47L61 47L61 48L59 48L59 49L60 49L60 50L58 50L58 49L57 49L57 50L56 50L56 51L55 51L55 52L54 52L54 53L55 53L55 54L56 54L56 53L57 53L57 52L58 52L58 51L62 51L62 50L65 50L65 49L66 49L66 48L67 48L67 47L70 47L70 46L67 46L67 45L68 45L68 44L67 44L67 43L66 43L66 44L65 44L65 43ZM77 43L77 44L78 44L78 43ZM13 44L13 45L14 45L14 44ZM25 45L25 46L24 46L24 47L26 47L26 46L27 46L27 45ZM35 45L35 46L36 46L36 45ZM62 45L62 47L63 47L63 48L64 48L64 49L65 49L65 48L64 48L64 47L65 47L65 46L66 46L66 47L67 47L67 46L66 46L66 45L65 45L65 46L64 46L64 47L63 47L63 45ZM100 45L100 47L101 47L101 45ZM32 46L32 47L33 47L33 46ZM39 46L39 47L38 47L38 48L39 48L39 49L41 49L41 50L43 50L43 49L44 49L44 48L43 48L43 47L40 47L40 46ZM91 46L91 47L92 47L92 46ZM98 46L98 47L99 47L99 46ZM6 47L6 48L8 48L8 47ZM39 47L39 48L40 48L40 47ZM3 48L3 50L4 50L4 48ZM20 48L20 50L21 50L21 51L19 51L19 52L20 52L20 53L21 53L21 51L22 51L22 52L23 52L23 53L24 53L24 51L25 51L25 50L24 50L24 49L23 49L23 50L22 50L22 49L21 49L21 48ZM99 48L99 49L100 49L100 52L101 52L101 49L100 49L100 48ZM5 49L5 52L8 52L8 49ZM27 49L27 52L30 52L30 49ZM36 49L36 50L37 50L37 51L38 51L38 52L39 52L39 51L40 51L40 50L39 50L39 51L38 51L38 49ZM49 49L49 52L52 52L52 49ZM71 49L71 52L74 52L74 49ZM93 49L93 52L96 52L96 49ZM6 50L6 51L7 51L7 50ZM23 50L23 51L24 51L24 50ZM28 50L28 51L29 51L29 50ZM31 50L31 51L32 51L32 52L33 52L33 51L32 51L32 50ZM50 50L50 51L51 51L51 50ZM57 50L57 51L56 51L56 52L55 52L55 53L56 53L56 52L57 52L57 51L58 51L58 50ZM72 50L72 51L73 51L73 50ZM94 50L94 51L95 51L95 50ZM15 51L15 52L16 52L16 51ZM64 51L64 52L63 52L63 53L62 53L62 52L59 52L59 54L58 54L58 55L57 55L57 56L59 56L59 55L62 55L62 54L63 54L63 53L65 53L65 52L66 52L66 53L67 53L67 54L68 54L68 55L69 55L69 57L71 57L71 56L72 56L72 55L70 55L70 54L69 54L69 53L68 53L68 52L66 52L66 51ZM6 53L6 54L7 54L7 53ZM15 53L15 54L14 54L14 55L15 55L15 56L16 56L16 55L15 55L15 54L16 54L16 53ZM28 53L28 54L30 54L30 53ZM61 53L61 54L62 54L62 53ZM2 54L2 55L3 55L3 54ZM49 54L49 55L50 55L50 56L51 56L51 57L49 57L49 58L51 58L51 57L53 57L53 58L52 58L52 59L48 59L48 60L47 60L47 62L46 62L46 61L45 61L45 60L44 60L44 59L42 59L42 60L44 60L44 62L42 62L42 63L40 63L40 65L39 65L39 67L40 67L40 69L42 69L42 70L43 70L43 71L41 71L41 70L40 70L40 72L42 72L42 73L41 73L41 74L39 74L39 75L41 75L41 76L40 76L40 77L39 77L39 76L36 76L36 79L38 79L38 78L39 78L39 79L40 79L40 80L38 80L38 81L40 81L40 80L42 80L42 81L44 81L44 80L43 80L43 79L40 79L40 78L43 78L43 77L44 77L44 79L45 79L45 80L46 80L46 79L47 79L47 81L48 81L48 79L49 79L49 81L50 81L50 80L51 80L51 77L50 77L50 79L49 79L49 78L47 78L47 77L46 77L46 75L45 75L45 73L44 73L44 72L43 72L43 71L45 71L45 70L43 70L43 69L44 69L44 68L45 68L45 69L46 69L46 70L47 70L47 69L48 69L48 68L49 68L49 67L50 67L50 66L51 66L51 64L52 64L52 65L53 65L53 66L55 66L55 65L53 65L53 64L54 64L54 61L53 61L53 60L52 60L52 59L54 59L54 58L55 58L55 57L56 57L56 56L55 56L55 55L54 55L54 57L53 57L53 55L51 55L51 54ZM91 54L91 55L90 55L90 58L91 58L91 59L92 59L92 58L91 58L91 57L92 57L92 56L91 56L91 55L92 55L92 54ZM73 55L73 56L74 56L74 55ZM5 56L5 57L7 57L7 56ZM25 56L25 57L24 57L24 58L22 58L22 59L26 59L26 58L28 58L28 59L29 59L29 58L28 58L28 57L27 57L27 56ZM76 56L76 59L79 59L79 58L80 58L80 57L79 57L79 58L78 58L78 57L77 57L77 56ZM83 56L83 57L85 57L85 56ZM25 57L25 58L26 58L26 57ZM97 57L97 58L96 58L96 59L97 59L97 58L98 58L98 57ZM56 58L56 59L55 59L55 60L56 60L56 61L55 61L55 62L56 62L56 61L57 61L57 60L56 60L56 59L57 59L57 58ZM81 58L81 59L82 59L82 62L84 62L84 61L83 61L83 60L85 60L85 61L86 61L86 59L82 59L82 58ZM8 60L8 61L10 61L10 62L9 62L9 63L7 63L7 64L4 64L4 66L5 66L5 67L7 67L7 66L8 66L8 67L9 67L9 66L8 66L8 65L9 65L9 63L11 63L11 61L10 61L10 60ZM48 60L48 62L47 62L47 63L46 63L46 62L44 62L44 64L45 64L45 63L46 63L46 65L45 65L45 66L42 66L42 67L41 67L41 66L40 66L40 67L41 67L41 68L42 68L42 67L45 67L45 66L47 66L47 67L48 67L48 65L50 65L50 64L51 64L51 62L52 62L52 64L53 64L53 61L50 61L50 60ZM63 60L63 62L64 62L64 63L65 63L65 62L64 62L64 61L65 61L65 60ZM49 61L49 62L50 62L50 61ZM17 62L17 64L18 64L18 62ZM2 63L2 64L3 64L3 63ZM29 63L29 64L30 64L30 63ZM33 63L33 64L34 64L34 66L32 66L32 67L31 67L31 66L29 66L29 67L31 67L31 68L32 68L32 69L31 69L31 70L32 70L32 71L33 71L33 68L34 68L34 67L35 67L35 68L36 68L36 67L38 67L38 65L37 65L37 64L34 64L34 63ZM38 63L38 64L39 64L39 63ZM42 63L42 64L43 64L43 63ZM55 63L55 64L56 64L56 63ZM81 64L81 65L82 65L82 64ZM6 65L6 66L7 66L7 65ZM36 65L36 66L37 66L37 65ZM64 65L64 66L65 66L65 65ZM80 66L80 67L81 67L81 66ZM32 67L32 68L33 68L33 67ZM93 67L93 68L94 68L94 67ZM6 68L6 69L7 69L7 68ZM8 68L8 69L9 69L9 68ZM15 68L15 69L17 69L17 70L18 70L18 72L17 72L17 73L18 73L18 74L19 74L19 73L18 73L18 72L19 72L19 70L18 70L18 69L17 69L17 68ZM82 68L82 69L83 69L83 68ZM85 68L85 70L86 70L86 71L87 71L87 70L86 70L86 68ZM27 69L27 70L29 70L29 69ZM59 69L59 71L58 71L58 72L61 72L61 71L63 71L63 73L64 73L64 71L63 71L63 70L61 70L61 69ZM77 69L77 71L76 71L76 72L77 72L77 71L78 71L78 72L80 72L80 71L78 71L78 70L79 70L79 69ZM3 70L3 71L4 71L4 70ZM55 70L55 71L54 71L54 72L55 72L55 71L56 71L56 70ZM60 70L60 71L61 71L61 70ZM5 71L5 74L8 74L8 71ZM24 71L24 72L26 72L26 71ZM27 71L27 74L30 74L30 71ZM49 71L49 74L52 74L52 71ZM71 71L71 74L74 74L74 71ZM93 71L93 74L96 74L96 71ZM6 72L6 73L7 73L7 72ZM11 72L11 75L10 75L10 76L11 76L11 77L12 77L12 78L13 78L13 77L12 77L12 76L11 76L11 75L12 75L12 74L13 74L13 73L12 73L12 72ZM28 72L28 73L29 73L29 72ZM47 72L47 74L48 74L48 72ZM50 72L50 73L51 73L51 72ZM72 72L72 73L73 73L73 72ZM94 72L94 73L95 73L95 72ZM20 73L20 74L21 74L21 73ZM42 73L42 74L41 74L41 75L43 75L43 76L41 76L41 77L43 77L43 76L45 76L45 75L44 75L44 74L43 74L43 73ZM76 73L76 74L77 74L77 75L78 75L78 74L79 74L79 73ZM24 74L24 75L25 75L25 74ZM31 75L31 76L32 76L32 75ZM70 75L70 76L71 76L71 75ZM92 75L92 76L93 76L93 75ZM94 75L94 76L95 76L95 77L94 77L94 78L95 78L95 77L97 77L97 75L96 75L96 76L95 76L95 75ZM4 76L4 77L5 77L5 78L6 78L6 79L7 79L7 78L6 78L6 77L7 77L7 76L6 76L6 77L5 77L5 76ZM23 76L23 77L25 77L25 78L26 78L26 77L25 77L25 76ZM84 77L84 78L82 78L82 79L81 79L81 81L80 81L80 83L79 83L79 84L78 84L78 83L76 83L76 84L72 84L72 85L71 85L71 86L72 86L72 85L74 85L74 86L75 86L75 87L76 87L76 88L80 88L80 86L81 86L81 84L84 84L84 85L82 85L82 87L81 87L81 89L77 89L77 90L80 90L80 91L81 91L81 89L82 89L82 91L86 91L86 92L87 92L87 91L86 91L86 90L84 90L84 89L83 89L83 88L82 88L82 87L85 87L85 88L87 88L87 87L88 87L88 86L87 86L87 87L86 87L86 85L85 85L85 84L84 84L84 83L86 83L86 84L87 84L87 83L86 83L86 82L85 82L85 81L84 81L84 82L83 82L83 81L82 81L82 79L85 79L85 80L87 80L87 79L86 79L86 77ZM99 77L99 78L97 78L97 79L98 79L98 80L99 80L99 79L100 79L100 77ZM0 78L0 79L1 79L1 78ZM45 78L45 79L46 79L46 78ZM16 79L16 81L15 81L15 82L14 82L14 84L16 84L16 81L17 81L17 82L18 82L18 81L19 81L19 82L20 82L20 81L19 81L19 80L17 80L17 79ZM53 79L53 80L56 80L56 79ZM63 79L63 80L64 80L64 79ZM9 81L9 82L10 82L10 81ZM29 81L29 82L30 82L30 84L28 84L28 85L29 85L29 86L30 86L30 85L31 85L31 82L30 82L30 81ZM61 81L61 82L62 82L62 81ZM81 81L81 83L80 83L80 84L81 84L81 83L82 83L82 81ZM100 81L100 83L99 83L99 84L100 84L100 87L101 87L101 81ZM11 82L11 83L13 83L13 82ZM26 82L26 83L28 83L28 82ZM39 82L39 83L38 83L38 84L37 84L37 83L36 83L36 84L37 84L37 85L38 85L38 86L39 86L39 87L40 87L40 86L41 86L41 85L40 85L40 84L39 84L39 83L40 83L40 82ZM89 82L89 83L92 83L92 82ZM0 83L0 84L2 84L2 83ZM10 84L10 85L11 85L11 84ZM76 84L76 85L75 85L75 86L76 86L76 87L79 87L79 86L80 86L80 85L78 85L78 86L77 86L77 84ZM1 85L1 86L0 86L0 92L1 92L1 90L2 90L2 88L1 88L1 86L2 86L2 85ZM39 85L39 86L40 86L40 85ZM53 86L53 87L56 87L56 88L59 88L59 89L58 89L58 90L57 90L57 89L56 89L56 90L55 90L55 91L56 91L56 93L57 93L57 94L58 94L58 93L59 93L59 94L60 94L60 95L61 95L61 96L62 96L62 95L61 95L61 94L60 94L60 92L61 92L61 88L62 88L62 87L60 87L60 86L59 86L59 87L58 87L58 86L57 86L57 87L56 87L56 86ZM37 87L37 88L38 88L38 87ZM47 87L47 88L48 88L48 87ZM71 87L71 89L72 89L72 88L73 88L73 91L76 91L76 89L75 89L75 88L73 88L73 87ZM19 88L19 89L20 89L20 88ZM34 88L34 89L35 89L35 88ZM41 88L41 89L39 89L39 90L38 90L38 91L39 91L39 93L40 93L40 91L44 91L44 90L43 90L43 89L42 89L42 88ZM59 89L59 90L58 90L58 91L57 91L57 90L56 90L56 91L57 91L57 92L58 92L58 91L60 91L60 89ZM68 89L68 90L69 90L69 91L68 91L68 92L67 92L67 93L70 93L70 92L69 92L69 91L70 91L70 90L69 90L69 89ZM96 89L96 90L97 90L97 91L98 91L98 90L97 90L97 89ZM9 90L9 91L10 91L10 90ZM22 90L22 91L21 91L21 92L20 92L20 94L21 94L21 93L22 93L22 92L23 92L23 93L24 93L24 92L23 92L23 90ZM39 90L39 91L40 91L40 90ZM94 90L94 91L95 91L95 90ZM4 91L4 92L5 92L5 91ZM6 91L6 92L7 92L7 91ZM18 92L18 93L19 93L19 92ZM33 92L33 93L34 93L34 92ZM41 92L41 93L42 93L42 92ZM90 92L90 93L91 93L91 92ZM27 93L27 96L30 96L30 93ZM36 93L36 94L37 94L37 93ZM49 93L49 96L52 96L52 93ZM71 93L71 96L74 96L74 93ZM93 93L93 96L96 96L96 93ZM17 94L17 95L19 95L19 94ZM28 94L28 95L29 95L29 94ZM44 94L44 95L45 95L45 94ZM50 94L50 95L51 95L51 94ZM72 94L72 95L73 95L73 94ZM94 94L94 95L95 95L95 94ZM8 95L8 97L9 97L9 95ZM63 95L63 96L64 96L64 95ZM65 96L65 97L66 97L66 96ZM88 96L88 98L86 98L86 99L84 99L84 100L86 100L86 99L89 99L89 100L90 100L90 99L91 99L91 98L89 98L89 97L90 97L90 96ZM47 97L47 98L48 98L48 97ZM92 97L92 99L93 99L93 100L94 100L94 99L95 99L95 98L93 98L93 97ZM34 98L34 99L35 99L35 98ZM54 98L54 100L55 100L55 98ZM60 98L60 99L62 99L62 98ZM99 98L99 101L100 101L100 100L101 100L101 98ZM44 100L44 101L45 101L45 100ZM0 0L0 7L7 7L7 0ZM1 1L1 6L6 6L6 1ZM2 2L2 5L5 5L5 2ZM94 0L94 7L101 7L101 0ZM95 1L95 6L100 6L100 1ZM96 2L96 5L99 5L99 2ZM0 94L0 101L7 101L7 94ZM1 95L1 100L6 100L6 95ZM2 96L2 99L5 99L5 96Z" fill="#000000"/></g></g></svg>
