<?xml version="1.0" encoding="UTF-8"?>
<svg xmlns="http://www.w3.org/2000/svg" version="1.1" width="300" height="300" viewBox="0 0 300 300"><rect x="0" y="0" width="300" height="300" fill="#ffffff"/><g transform="scale(12)"><g transform="translate(0,0)"><path fill-rule="evenodd" d="M9 0L9 1L10 1L10 2L8 2L8 3L9 3L9 4L10 4L10 5L9 5L9 6L8 6L8 8L4 8L4 9L5 9L5 10L2 10L2 9L3 9L3 8L0 8L0 9L1 9L1 10L0 10L0 12L2 12L2 13L1 13L1 14L0 14L0 15L1 15L1 16L0 16L0 17L1 17L1 16L2 16L2 17L3 17L3 16L2 16L2 15L4 15L4 14L5 14L5 12L6 12L6 13L7 13L7 12L6 12L6 11L7 11L7 10L6 10L6 9L8 9L8 10L9 10L9 11L8 11L8 12L9 12L9 11L10 11L10 10L12 10L12 8L13 8L13 10L14 10L14 9L15 9L15 11L16 11L16 12L18 12L18 11L16 11L16 9L15 9L15 8L13 8L13 6L14 6L14 7L15 7L15 5L16 5L16 7L17 7L17 0L16 0L16 1L15 1L15 2L14 2L14 3L15 3L15 2L16 2L16 4L13 4L13 6L12 6L12 8L11 8L11 6L10 6L10 5L11 5L11 4L12 4L12 3L13 3L13 1L14 1L14 0L12 0L12 1L10 1L10 0ZM11 2L11 3L12 3L12 2ZM9 6L9 7L10 7L10 6ZM9 8L9 10L10 10L10 8ZM17 8L17 10L19 10L19 8ZM22 8L22 9L20 9L20 10L22 10L22 11L24 11L24 10L22 10L22 9L23 9L23 8ZM11 11L11 12L12 12L12 13L11 13L11 15L10 15L10 14L9 14L9 13L8 13L8 15L7 15L7 14L6 14L6 15L5 15L5 16L4 16L4 17L5 17L5 16L6 16L6 17L8 17L8 21L9 21L9 22L8 22L8 25L9 25L9 24L10 24L10 25L11 25L11 24L12 24L12 23L13 23L13 25L14 25L14 24L16 24L16 25L17 25L17 22L18 22L18 24L19 24L19 25L23 25L23 24L24 24L24 25L25 25L25 22L24 22L24 23L23 23L23 20L24 20L24 21L25 21L25 17L24 17L24 16L22 16L22 15L21 15L21 13L20 13L20 14L19 14L19 16L17 16L17 15L18 15L18 13L17 13L17 14L16 14L16 13L14 13L14 14L16 14L16 18L15 18L15 16L14 16L14 15L13 15L13 12L14 12L14 11L13 11L13 12L12 12L12 11ZM19 11L19 12L20 12L20 11ZM3 12L3 13L2 13L2 14L1 14L1 15L2 15L2 14L4 14L4 12ZM23 14L23 15L24 15L24 14ZM6 15L6 16L7 16L7 15ZM9 15L9 21L10 21L10 22L11 22L11 21L12 21L12 20L13 20L13 22L15 22L15 23L16 23L16 22L15 22L15 21L16 21L16 19L15 19L15 21L14 21L14 16L13 16L13 17L12 17L12 18L11 18L11 16L12 16L12 15L11 15L11 16L10 16L10 15ZM20 15L20 16L21 16L21 20L23 20L23 19L24 19L24 18L23 18L23 17L22 17L22 16L21 16L21 15ZM17 17L17 20L20 20L20 17ZM12 18L12 19L11 19L11 20L12 20L12 19L13 19L13 18ZM18 18L18 19L19 19L19 18ZM22 18L22 19L23 19L23 18ZM18 21L18 22L19 22L19 24L21 24L21 23L20 23L20 22L19 22L19 21ZM10 23L10 24L11 24L11 23ZM22 23L22 24L23 24L23 23ZM0 0L0 7L7 7L7 0ZM1 1L1 6L6 6L6 1ZM2 2L2 5L5 5L5 2ZM18 0L18 7L25 7L25 0ZM19 1L19 6L24 6L24 1ZM20 2L20 5L23 5L23 2ZM0 18L0 25L7 25L7 18ZM1 19L1 24L6 24L6 19ZM2 20L2 23L5 23L5 20Z" fill="#000000"/></g></g></svg>
