<?xml version="1.0" encoding="UTF-8"?>
<svg xmlns="http://www.w3.org/2000/svg" version="1.1" width="300" height="300" viewBox="0 0 300 300"><rect x="0" y="0" width="300" height="300" fill="#ffffff"/><g transform="scale(3.226)"><g transform="translate(0,0)"><path fill-rule="evenodd" d="M11 0L11 1L12 1L12 2L11 2L11 5L10 5L10 4L9 4L9 3L10 3L10 1L8 1L8 2L9 2L9 3L8 3L8 4L9 4L9 5L8 5L8 7L9 7L9 5L10 5L10 8L6 8L6 9L9 9L9 10L6 10L6 11L5 11L5 10L3 10L3 11L2 11L2 10L1 10L1 9L5 9L5 8L0 8L0 11L1 11L1 12L3 12L3 14L1 14L1 16L2 16L2 18L1 18L1 19L0 19L0 21L1 21L1 20L3 20L3 21L4 21L4 23L2 23L2 24L0 24L0 26L1 26L1 25L2 25L2 24L4 24L4 25L3 25L3 28L2 28L2 27L1 27L1 28L0 28L0 31L1 31L1 30L2 30L2 33L1 33L1 32L0 32L0 33L1 33L1 35L2 35L2 37L3 37L3 33L4 33L4 34L5 34L5 35L4 35L4 36L5 36L5 37L7 37L7 38L6 38L6 39L5 39L5 38L1 38L1 37L0 37L0 39L1 39L1 41L0 41L0 42L1 42L1 41L2 41L2 43L3 43L3 42L4 42L4 43L5 43L5 42L4 42L4 41L5 41L5 40L6 40L6 41L7 41L7 42L6 42L6 43L7 43L7 44L6 44L6 45L7 45L7 44L8 44L8 43L9 43L9 44L10 44L10 43L11 43L11 42L12 42L12 43L13 43L13 42L12 42L12 41L11 41L11 40L13 40L13 41L14 41L14 40L16 40L16 39L17 39L17 41L16 41L16 42L14 42L14 43L15 43L15 45L14 45L14 44L13 44L13 47L11 47L11 46L12 46L12 45L11 45L11 46L10 46L10 45L8 45L8 46L3 46L3 45L5 45L5 44L2 44L2 45L1 45L1 43L0 43L0 45L1 45L1 46L3 46L3 47L4 47L4 48L1 48L1 47L0 47L0 50L1 50L1 51L0 51L0 52L2 52L2 49L5 49L5 50L4 50L4 51L3 51L3 53L0 53L0 55L1 55L1 57L0 57L0 58L1 58L1 59L0 59L0 60L3 60L3 61L2 61L2 62L1 62L1 63L0 63L0 65L1 65L1 66L4 66L4 65L5 65L5 66L6 66L6 67L5 67L5 69L4 69L4 67L0 67L0 68L1 68L1 70L2 70L2 72L1 72L1 71L0 71L0 72L1 72L1 75L0 75L0 76L2 76L2 77L0 77L0 79L1 79L1 80L0 80L0 82L1 82L1 80L3 80L3 81L2 81L2 82L3 82L3 81L5 81L5 82L4 82L4 83L3 83L3 84L2 84L2 83L0 83L0 84L1 84L1 85L3 85L3 84L6 84L6 85L8 85L8 87L9 87L9 86L10 86L10 87L11 87L11 88L8 88L8 93L10 93L10 91L11 91L11 93L17 93L17 92L16 92L16 91L17 91L17 90L18 90L18 91L19 91L19 92L18 92L18 93L19 93L19 92L20 92L20 93L22 93L22 91L23 91L23 90L22 90L22 89L23 89L23 88L22 88L22 87L24 87L24 88L27 88L27 89L24 89L24 92L23 92L23 93L24 93L24 92L26 92L26 91L28 91L28 90L29 90L29 92L31 92L31 93L32 93L32 91L30 91L30 89L31 89L31 90L32 90L32 89L33 89L33 90L34 90L34 89L33 89L33 88L34 88L34 87L35 87L35 86L38 86L38 87L37 87L37 88L35 88L35 91L36 91L36 90L38 90L38 91L37 91L37 92L35 92L35 93L37 93L37 92L38 92L38 91L39 91L39 92L40 92L40 93L41 93L41 92L42 92L42 90L43 90L43 93L44 93L44 92L45 92L45 91L46 91L46 93L47 93L47 92L48 92L48 93L50 93L50 92L48 92L48 91L51 91L51 92L54 92L54 93L55 93L55 91L52 91L52 89L51 89L51 90L50 90L50 89L49 89L49 88L50 88L50 87L51 87L51 88L52 88L52 86L50 86L50 85L49 85L49 84L54 84L54 86L55 86L55 87L54 87L54 88L53 88L53 89L54 89L54 90L56 90L56 93L57 93L57 92L58 92L58 91L57 91L57 90L59 90L59 92L60 92L60 93L62 93L62 92L63 92L63 93L64 93L64 92L65 92L65 91L66 91L66 92L69 92L69 93L71 93L71 92L72 92L72 93L74 93L74 92L75 92L75 93L78 93L78 92L77 92L77 91L80 91L80 92L82 92L82 93L83 93L83 92L84 92L84 93L86 93L86 92L84 92L84 91L85 91L85 90L86 90L86 91L87 91L87 90L89 90L89 86L90 86L90 85L91 85L91 82L93 82L93 81L90 81L90 82L89 82L89 83L86 83L86 82L88 82L88 81L89 81L89 80L91 80L91 79L92 79L92 80L93 80L93 79L92 79L92 78L93 78L93 77L92 77L92 78L91 78L91 77L89 77L89 76L92 76L92 74L93 74L93 72L92 72L92 70L93 70L93 69L92 69L92 70L91 70L91 67L92 67L92 66L91 66L91 65L90 65L90 64L91 64L91 63L92 63L92 64L93 64L93 59L92 59L92 58L93 58L93 56L92 56L92 55L91 55L91 53L90 53L90 55L88 55L88 56L85 56L85 54L84 54L84 55L83 55L83 56L84 56L84 60L83 60L83 61L82 61L82 59L83 59L83 57L81 57L81 58L80 58L80 57L79 57L79 56L80 56L80 55L81 55L81 56L82 56L82 55L81 55L81 54L83 54L83 53L80 53L80 54L79 54L79 52L82 52L82 51L83 51L83 50L85 50L85 51L84 51L84 52L85 52L85 53L86 53L86 54L87 54L87 52L92 52L92 50L93 50L93 48L92 48L92 46L93 46L93 45L92 45L92 46L91 46L91 45L90 45L90 46L89 46L89 45L88 45L88 46L86 46L86 45L85 45L85 44L86 44L86 43L85 43L85 42L84 42L84 44L82 44L82 43L83 43L83 41L85 41L85 40L86 40L86 41L88 41L88 40L89 40L89 39L88 39L88 38L86 38L86 37L87 37L87 36L88 36L88 35L87 35L87 36L86 36L86 34L88 34L88 33L90 33L90 34L93 34L93 33L92 33L92 30L93 30L93 27L92 27L92 28L91 28L91 27L90 27L90 28L91 28L91 29L90 29L90 30L91 30L91 31L90 31L90 32L89 32L89 28L87 28L87 27L86 27L86 26L85 26L85 25L86 25L86 24L88 24L88 23L89 23L89 24L91 24L91 23L92 23L92 24L93 24L93 23L92 23L92 22L93 22L93 20L91 20L91 18L93 18L93 15L92 15L92 17L90 17L90 19L89 19L89 18L87 18L87 17L88 17L88 16L87 16L87 15L86 15L86 14L85 14L85 12L84 12L84 11L81 11L81 10L82 10L82 9L84 9L84 10L85 10L85 9L86 9L86 10L87 10L87 11L86 11L86 12L87 12L87 11L90 11L90 12L91 12L91 13L90 13L90 14L93 14L93 13L92 13L92 12L91 12L91 11L92 11L92 8L91 8L91 9L90 9L90 8L89 8L89 9L88 9L88 8L87 8L87 9L86 9L86 8L85 8L85 6L84 6L84 3L85 3L85 1L84 1L84 0L83 0L83 2L84 2L84 3L83 3L83 4L82 4L82 0L78 0L78 1L77 1L77 2L76 2L76 0L75 0L75 1L74 1L74 3L75 3L75 4L78 4L78 5L77 5L77 6L76 6L76 5L75 5L75 6L74 6L74 5L73 5L73 4L72 4L72 5L73 5L73 6L72 6L72 7L71 7L71 4L70 4L70 3L72 3L72 2L73 2L73 0L71 0L71 2L70 2L70 3L69 3L69 5L68 5L68 4L67 4L67 3L68 3L68 2L67 2L67 1L68 1L68 0L66 0L66 1L65 1L65 2L67 2L67 3L63 3L63 2L62 2L62 1L61 1L61 0L60 0L60 1L59 1L59 2L58 2L58 1L57 1L57 0L56 0L56 1L57 1L57 2L56 2L56 3L57 3L57 4L56 4L56 5L55 5L55 3L54 3L54 4L51 4L51 5L52 5L52 8L53 8L53 9L54 9L54 10L55 10L55 11L54 11L54 12L53 12L53 11L51 11L51 10L48 10L48 12L47 12L47 13L48 13L48 15L50 15L50 16L51 16L51 18L50 18L50 17L49 17L49 16L47 16L47 15L46 15L46 13L44 13L44 12L46 12L46 11L45 11L45 9L46 9L46 7L47 7L47 8L48 8L48 9L49 9L49 8L48 8L48 7L49 7L49 6L48 6L48 5L47 5L47 6L46 6L46 4L45 4L45 5L44 5L44 3L46 3L46 2L48 2L48 3L47 3L47 4L48 4L48 3L49 3L49 1L48 1L48 0L47 0L47 1L46 1L46 0L41 0L41 1L43 1L43 2L42 2L42 3L41 3L41 2L39 2L39 1L38 1L38 3L35 3L35 1L34 1L34 0L33 0L33 2L34 2L34 3L33 3L33 4L31 4L31 3L30 3L30 4L29 4L29 3L28 3L28 2L30 2L30 0L25 0L25 1L26 1L26 2L27 2L27 3L28 3L28 4L26 4L26 5L27 5L27 6L26 6L26 7L27 7L27 6L28 6L28 8L27 8L27 9L26 9L26 10L27 10L27 12L26 12L26 11L25 11L25 10L24 10L24 12L23 12L23 10L22 10L22 12L21 12L21 13L20 13L20 11L21 11L21 9L22 9L22 8L21 8L21 5L23 5L23 4L24 4L24 5L25 5L25 4L24 4L24 3L25 3L25 2L24 2L24 3L23 3L23 2L22 2L22 3L23 3L23 4L21 4L21 3L20 3L20 1L21 1L21 0L13 0L13 1L12 1L12 0ZM22 0L22 1L23 1L23 0ZM31 0L31 1L32 1L32 0ZM51 0L51 1L50 1L50 2L52 2L52 3L53 3L53 2L54 2L54 1L55 1L55 0L54 0L54 1L53 1L53 0ZM69 0L69 1L70 1L70 0ZM14 1L14 2L12 2L12 3L13 3L13 5L15 5L15 8L14 8L14 6L13 6L13 8L12 8L12 6L11 6L11 9L10 9L10 10L9 10L9 11L6 11L6 12L5 12L5 13L4 13L4 15L2 15L2 16L3 16L3 17L4 17L4 16L5 16L5 19L4 19L4 18L3 18L3 20L5 20L5 19L6 19L6 20L7 20L7 21L6 21L6 22L8 22L8 24L9 24L9 22L8 22L8 20L9 20L9 19L10 19L10 18L7 18L7 17L8 17L8 15L9 15L9 16L11 16L11 15L12 15L12 22L11 22L11 23L10 23L10 24L11 24L11 26L13 26L13 24L11 24L11 23L13 23L13 22L14 22L14 21L15 21L15 22L16 22L16 21L17 21L17 23L14 23L14 24L17 24L17 23L19 23L19 22L21 22L21 23L22 23L22 24L23 24L23 26L22 26L22 25L21 25L21 24L18 24L18 25L19 25L19 27L18 27L18 26L17 26L17 25L16 25L16 27L14 27L14 28L13 28L13 30L12 30L12 31L10 31L10 30L9 30L9 32L10 32L10 33L9 33L9 34L8 34L8 33L5 33L5 34L8 34L8 35L6 35L6 36L7 36L7 37L8 37L8 38L7 38L7 39L6 39L6 40L7 40L7 41L8 41L8 42L11 42L11 41L8 41L8 40L7 40L7 39L9 39L9 37L11 37L11 38L10 38L10 40L11 40L11 39L15 39L15 37L14 37L14 35L15 35L15 34L18 34L18 32L19 32L19 34L20 34L20 31L18 31L18 30L20 30L20 29L18 29L18 28L19 28L19 27L20 27L20 26L21 26L21 27L23 27L23 28L24 28L24 29L23 29L23 30L22 30L22 29L21 29L21 30L22 30L22 32L23 32L23 30L24 30L24 31L26 31L26 32L24 32L24 33L22 33L22 34L23 34L23 36L24 36L24 37L21 37L21 35L20 35L20 37L21 37L21 38L20 38L20 39L21 39L21 40L19 40L19 38L18 38L18 37L17 37L17 35L16 35L16 38L18 38L18 40L19 40L19 41L17 41L17 42L16 42L16 43L18 43L18 44L20 44L20 45L21 45L21 46L19 46L19 45L15 45L15 46L14 46L14 47L13 47L13 49L12 49L12 48L11 48L11 47L9 47L9 46L8 46L8 47L5 47L5 49L6 49L6 50L5 50L5 52L7 52L7 51L9 51L9 50L10 50L10 52L8 52L8 53L4 53L4 54L5 54L5 55L3 55L3 54L2 54L2 56L3 56L3 57L4 57L4 56L5 56L5 55L6 55L6 56L8 56L8 55L6 55L6 54L9 54L9 55L11 55L11 56L10 56L10 57L11 57L11 58L10 58L10 59L9 59L9 61L5 61L5 62L8 62L8 63L4 63L4 64L3 64L3 62L2 62L2 63L1 63L1 64L3 64L3 65L4 65L4 64L7 64L7 65L6 65L6 66L7 66L7 65L9 65L9 64L10 64L10 66L8 66L8 67L6 67L6 68L7 68L7 69L6 69L6 70L3 70L3 68L2 68L2 70L3 70L3 72L4 72L4 71L6 71L6 72L7 72L7 73L6 73L6 74L5 74L5 76L4 76L4 75L3 75L3 77L4 77L4 79L6 79L6 80L5 80L5 81L6 81L6 82L5 82L5 83L6 83L6 84L7 84L7 83L8 83L8 85L10 85L10 84L9 84L9 82L10 82L10 81L9 81L9 79L6 79L6 78L8 78L8 76L7 76L7 75L8 75L8 74L10 74L10 75L9 75L9 77L10 77L10 80L11 80L11 78L12 78L12 77L13 77L13 79L12 79L12 81L11 81L11 83L12 83L12 81L13 81L13 80L15 80L15 81L14 81L14 82L13 82L13 83L14 83L14 84L12 84L12 85L11 85L11 87L13 87L13 85L14 85L14 89L15 89L15 88L16 88L16 90L17 90L17 87L18 87L18 88L19 88L19 89L18 89L18 90L19 90L19 91L20 91L20 92L21 92L21 91L20 91L20 89L21 89L21 86L22 86L22 85L20 85L20 84L21 84L21 83L20 83L20 81L19 81L19 80L22 80L22 79L24 79L24 80L23 80L23 84L24 84L24 82L25 82L25 81L26 81L26 79L27 79L27 80L28 80L28 81L27 81L27 82L26 82L26 83L25 83L25 85L23 85L23 86L24 86L24 87L25 87L25 85L26 85L26 83L27 83L27 84L31 84L31 83L32 83L32 84L33 84L33 83L34 83L34 82L35 82L35 83L36 83L36 84L37 84L37 83L38 83L38 82L39 82L39 81L40 81L40 83L43 83L43 84L44 84L44 85L43 85L43 86L42 86L42 87L43 87L43 89L44 89L44 91L45 91L45 88L46 88L46 86L47 86L47 87L48 87L48 85L47 85L47 84L49 84L49 83L50 83L50 82L52 82L52 83L53 83L53 82L54 82L54 83L56 83L56 84L58 84L58 83L56 83L56 82L54 82L54 79L56 79L56 81L57 81L57 80L58 80L58 82L59 82L59 81L60 81L60 83L59 83L59 84L60 84L60 83L61 83L61 82L62 82L62 81L63 81L63 80L65 80L65 82L64 82L64 83L65 83L65 85L64 85L64 87L63 87L63 85L61 85L61 86L62 86L62 88L61 88L61 89L60 89L60 91L61 91L61 92L62 92L62 91L63 91L63 92L64 92L64 91L65 91L65 90L66 90L66 91L69 91L69 92L70 92L70 91L69 91L69 88L65 88L65 90L64 90L64 89L63 89L63 88L64 88L64 87L67 87L67 86L68 86L68 87L70 87L70 90L71 90L71 91L72 91L72 90L74 90L74 91L73 91L73 92L74 92L74 91L75 91L75 92L76 92L76 91L77 91L77 90L79 90L79 89L80 89L80 91L82 91L82 92L83 92L83 91L84 91L84 90L85 90L85 89L84 89L84 87L82 87L82 86L81 86L81 85L82 85L82 84L83 84L83 86L84 86L84 84L86 84L86 83L85 83L85 82L86 82L86 81L87 81L87 80L88 80L88 79L86 79L86 81L85 81L85 78L89 78L89 77L88 77L88 76L89 76L89 73L88 73L88 71L89 71L89 67L90 67L90 65L89 65L89 64L90 64L90 63L89 63L89 61L90 61L90 62L92 62L92 61L91 61L91 60L90 60L90 56L89 56L89 61L88 61L88 65L87 65L87 62L86 62L86 65L87 65L87 66L85 66L85 62L83 62L83 63L82 63L82 62L81 62L81 60L79 60L79 63L78 63L78 64L76 64L76 63L77 63L77 62L78 62L78 59L79 59L79 57L76 57L76 58L78 58L78 59L77 59L77 62L76 62L76 63L75 63L75 60L76 60L76 59L71 59L71 58L72 58L72 57L73 57L73 58L75 58L75 57L74 57L74 56L79 56L79 54L78 54L78 53L77 53L77 54L76 54L76 55L74 55L74 56L70 56L70 58L69 58L69 55L71 55L71 54L72 54L72 55L73 55L73 54L74 54L74 53L75 53L75 52L79 52L79 51L82 51L82 50L81 50L81 49L82 49L82 48L84 48L84 47L85 47L85 46L84 46L84 45L83 45L83 47L82 47L82 46L81 46L81 43L82 43L82 42L81 42L81 40L82 40L82 39L85 39L85 38L84 38L84 37L85 37L85 36L84 36L84 35L85 35L85 34L86 34L86 33L84 33L84 29L82 29L82 27L83 27L83 26L84 26L84 28L86 28L86 27L85 27L85 26L84 26L84 25L85 25L85 24L84 24L84 21L85 21L85 20L86 20L86 21L87 21L87 22L85 22L85 23L88 23L88 21L87 21L87 20L89 20L89 22L90 22L90 20L89 20L89 19L87 19L87 18L86 18L86 17L87 17L87 16L86 16L86 15L85 15L85 16L83 16L83 15L82 15L82 14L81 14L81 11L80 11L80 12L79 12L79 10L81 10L81 9L82 9L82 8L84 8L84 6L83 6L83 5L82 5L82 4L81 4L81 5L79 5L79 8L78 8L78 9L77 9L77 10L78 10L78 11L75 11L75 12L76 12L76 13L75 13L75 14L76 14L76 15L72 15L72 14L74 14L74 13L72 13L72 12L71 12L71 11L73 11L73 12L74 12L74 11L73 11L73 10L74 10L74 9L72 9L72 8L73 8L73 7L74 7L74 6L73 6L73 7L72 7L72 8L71 8L71 7L70 7L70 5L69 5L69 7L68 7L68 6L67 6L67 5L66 5L66 4L65 4L65 5L66 5L66 6L65 6L65 7L64 7L64 6L63 6L63 5L62 5L62 2L60 2L60 4L61 4L61 5L62 5L62 6L61 6L61 8L62 8L62 9L61 9L61 10L60 10L60 9L59 9L59 10L60 10L60 11L61 11L61 12L59 12L59 11L58 11L58 12L59 12L59 13L57 13L57 10L58 10L58 9L57 9L57 10L56 10L56 13L57 13L57 14L56 14L56 15L55 15L55 14L54 14L54 13L53 13L53 12L51 12L51 11L49 11L49 12L50 12L50 13L49 13L49 14L52 14L52 15L51 15L51 16L52 16L52 19L50 19L50 18L49 18L49 17L48 17L48 18L47 18L47 16L46 16L46 15L45 15L45 16L44 16L44 15L42 15L42 14L40 14L40 13L42 13L42 11L41 11L41 10L42 10L42 9L41 9L41 8L42 8L42 6L43 6L43 8L44 8L44 9L43 9L43 10L44 10L44 9L45 9L45 8L44 8L44 6L43 6L43 5L42 5L42 4L43 4L43 3L44 3L44 2L45 2L45 1L44 1L44 2L43 2L43 3L42 3L42 4L41 4L41 3L40 3L40 4L41 4L41 7L40 7L40 5L39 5L39 3L38 3L38 5L37 5L37 4L36 4L36 5L34 5L34 4L33 4L33 5L34 5L34 6L33 6L33 9L32 9L32 11L34 11L34 10L35 10L35 7L36 7L36 8L37 8L37 11L35 11L35 12L38 12L38 13L37 13L37 15L36 15L36 13L34 13L34 14L35 14L35 15L36 15L36 16L34 16L34 15L32 15L32 14L33 14L33 13L32 13L32 12L31 12L31 9L29 9L29 10L28 10L28 11L29 11L29 12L28 12L28 14L26 14L26 16L25 16L25 17L23 17L23 16L24 16L24 15L25 15L25 13L26 13L26 12L24 12L24 13L23 13L23 12L22 12L22 13L21 13L21 15L19 15L19 14L20 14L20 13L19 13L19 12L18 12L18 11L19 11L19 10L18 10L18 9L21 9L21 8L18 8L18 9L16 9L16 8L17 8L17 7L18 7L18 6L17 6L17 7L16 7L16 5L15 5L15 4L18 4L18 5L19 5L19 3L18 3L18 2L19 2L19 1L17 1L17 2L16 2L16 1ZM80 1L80 2L81 2L81 1ZM75 2L75 3L76 3L76 2ZM14 3L14 4L15 4L15 3ZM79 3L79 4L80 4L80 3ZM49 4L49 5L50 5L50 4ZM29 5L29 8L32 8L32 5ZM36 5L36 7L37 7L37 8L38 8L38 7L39 7L39 5L38 5L38 7L37 7L37 5ZM54 5L54 6L53 6L53 7L54 7L54 6L55 6L55 8L56 8L56 6L55 6L55 5ZM57 5L57 8L60 8L60 5ZM81 5L81 6L80 6L80 9L81 9L81 8L82 8L82 7L83 7L83 6L82 6L82 5ZM19 6L19 7L20 7L20 6ZM22 6L22 7L23 7L23 9L24 9L24 8L25 8L25 6L24 6L24 7L23 7L23 6ZM30 6L30 7L31 7L31 6ZM34 6L34 7L35 7L35 6ZM45 6L45 7L46 7L46 6ZM47 6L47 7L48 7L48 6ZM50 6L50 7L51 7L51 6ZM58 6L58 7L59 7L59 6ZM62 6L62 8L63 8L63 9L64 9L64 8L63 8L63 6ZM66 6L66 7L65 7L65 9L66 9L66 10L64 10L64 11L65 11L65 12L62 12L62 14L61 14L61 13L60 13L60 16L59 16L59 17L58 17L58 15L59 15L59 14L57 14L57 15L56 15L56 16L55 16L55 15L54 15L54 14L53 14L53 13L52 13L52 14L53 14L53 15L52 15L52 16L54 16L54 18L57 18L57 19L56 19L56 22L55 22L55 21L53 21L53 22L52 22L52 23L51 23L51 22L50 22L50 21L52 21L52 20L53 20L53 19L52 19L52 20L48 20L48 21L47 21L47 22L46 22L46 19L47 19L47 18L45 18L45 17L46 17L46 16L45 16L45 17L44 17L44 19L45 19L45 20L43 20L43 19L42 19L42 18L43 18L43 17L41 17L41 19L40 19L40 18L38 18L38 19L37 19L37 20L34 20L34 19L36 19L36 18L37 18L37 17L40 17L40 16L42 16L42 15L40 15L40 14L38 14L38 16L36 16L36 18L33 18L33 20L32 20L32 18L31 18L31 20L28 20L28 19L30 19L30 18L28 18L28 17L27 17L27 16L29 16L29 17L31 17L31 14L32 14L32 13L30 13L30 12L29 12L29 13L30 13L30 16L29 16L29 14L28 14L28 15L27 15L27 16L26 16L26 17L25 17L25 19L24 19L24 22L23 22L23 21L22 21L22 20L23 20L23 19L22 19L22 20L21 20L21 18L20 18L20 21L22 21L22 23L25 23L25 21L26 21L26 22L27 22L27 21L26 21L26 20L28 20L28 21L31 21L31 23L32 23L32 24L30 24L30 22L29 22L29 24L28 24L28 23L26 23L26 25L25 25L25 24L24 24L24 25L25 25L25 26L24 26L24 27L26 27L26 26L27 26L27 24L28 24L28 25L29 25L29 24L30 24L30 27L29 27L29 28L28 28L28 27L27 27L27 28L28 28L28 31L27 31L27 32L26 32L26 33L25 33L25 34L24 34L24 36L25 36L25 35L26 35L26 37L24 37L24 39L23 39L23 40L21 40L21 41L20 41L20 42L21 42L21 45L22 45L22 46L21 46L21 47L19 47L19 48L18 48L18 46L17 46L17 47L16 47L16 46L15 46L15 47L14 47L14 49L16 49L16 48L18 48L18 50L14 50L14 52L12 52L12 53L9 53L9 54L11 54L11 55L13 55L13 58L18 58L18 57L20 57L20 56L19 56L19 55L18 55L18 57L15 57L15 55L16 55L16 56L17 56L17 54L16 54L16 53L15 53L15 54L14 54L14 52L16 52L16 51L17 51L17 53L18 53L18 54L19 54L19 53L18 53L18 52L21 52L21 53L20 53L20 54L21 54L21 55L22 55L22 54L23 54L23 56L25 56L25 55L24 55L24 54L26 54L26 55L29 55L29 54L31 54L31 55L32 55L32 54L33 54L33 56L26 56L26 57L24 57L24 60L23 60L23 59L22 59L22 60L23 60L23 61L21 61L21 60L20 60L20 58L19 58L19 61L18 61L18 59L17 59L17 60L16 60L16 59L15 59L15 60L14 60L14 61L13 61L13 60L12 60L12 58L11 58L11 60L10 60L10 61L9 61L9 62L10 62L10 61L12 61L12 62L11 62L11 66L12 66L12 65L13 65L13 63L14 63L14 64L16 64L16 65L18 65L18 64L19 64L19 65L20 65L20 67L19 67L19 68L20 68L20 69L18 69L18 68L17 68L17 67L18 67L18 66L15 66L15 65L14 65L14 66L13 66L13 67L14 67L14 68L11 68L11 67L10 67L10 68L9 68L9 67L8 67L8 68L9 68L9 69L12 69L12 71L11 71L11 70L10 70L10 72L9 72L9 71L8 71L8 69L7 69L7 70L6 70L6 71L7 71L7 72L9 72L9 73L10 73L10 74L12 74L12 72L14 72L14 73L13 73L13 75L10 75L10 77L12 77L12 76L13 76L13 77L14 77L14 74L16 74L16 75L20 75L20 74L19 74L19 73L20 73L20 72L21 72L21 73L24 73L24 76L23 76L23 77L22 77L22 74L21 74L21 76L19 76L19 77L18 77L18 76L17 76L17 77L18 77L18 79L17 79L17 78L16 78L16 76L15 76L15 80L16 80L16 79L17 79L17 81L18 81L18 82L19 82L19 81L18 81L18 80L19 80L19 79L20 79L20 78L19 78L19 77L21 77L21 78L23 78L23 77L24 77L24 78L25 78L25 77L26 77L26 78L27 78L27 79L28 79L28 80L29 80L29 79L30 79L30 80L32 80L32 79L34 79L34 80L33 80L33 81L35 81L35 82L36 82L36 83L37 83L37 82L38 82L38 79L36 79L36 78L39 78L39 80L41 80L41 82L43 82L43 81L42 81L42 80L43 80L43 79L45 79L45 80L46 80L46 79L48 79L48 80L47 80L47 81L48 81L48 83L49 83L49 82L50 82L50 81L51 81L51 80L53 80L53 79L52 79L52 78L55 78L55 76L56 76L56 75L58 75L58 76L59 76L59 77L58 77L58 78L57 78L57 77L56 77L56 78L57 78L57 79L58 79L58 78L59 78L59 79L60 79L60 78L59 78L59 77L61 77L61 76L59 76L59 75L60 75L60 74L61 74L61 75L63 75L63 73L64 73L64 74L65 74L65 71L66 71L66 74L67 74L67 71L66 71L66 70L65 70L65 68L66 68L66 69L67 69L67 68L69 68L69 69L68 69L68 70L70 70L70 71L68 71L68 72L70 72L70 71L71 71L71 72L72 72L72 73L73 73L73 72L72 72L72 71L76 71L76 72L74 72L74 73L76 73L76 76L75 76L75 75L74 75L74 74L72 74L72 75L70 75L70 77L69 77L69 78L68 78L68 79L67 79L67 77L66 77L66 78L65 78L65 76L63 76L63 78L62 78L62 79L61 79L61 80L60 80L60 81L61 81L61 80L62 80L62 79L67 79L67 80L66 80L66 82L65 82L65 83L67 83L67 84L66 84L66 86L67 86L67 84L68 84L68 83L69 83L69 82L70 82L70 81L69 81L69 78L70 78L70 80L72 80L72 79L73 79L73 81L72 81L72 82L71 82L71 84L70 84L70 85L69 85L69 86L70 86L70 85L71 85L71 84L73 84L73 83L74 83L74 84L75 84L75 85L74 85L74 86L72 86L72 87L71 87L71 88L73 88L73 89L75 89L75 90L77 90L77 88L78 88L78 89L79 89L79 88L80 88L80 87L78 87L78 86L77 86L77 87L76 87L76 86L75 86L75 85L76 85L76 84L75 84L75 83L77 83L77 85L78 85L78 82L79 82L79 83L80 83L80 82L79 82L79 81L78 81L78 82L77 82L77 81L76 81L76 80L74 80L74 79L75 79L75 78L76 78L76 79L77 79L77 78L76 78L76 77L78 77L78 78L79 78L79 77L78 77L78 76L77 76L77 75L80 75L80 76L83 76L83 78L82 78L82 77L81 77L81 78L82 78L82 79L83 79L83 78L84 78L84 77L86 77L86 75L85 75L85 76L83 76L83 71L81 71L81 72L80 72L80 74L79 74L79 71L77 71L77 69L76 69L76 68L75 68L75 67L74 67L74 66L73 66L73 67L72 67L72 65L74 65L74 62L73 62L73 61L74 61L74 60L72 60L72 63L71 63L71 64L72 64L72 65L70 65L70 64L68 64L68 63L69 63L69 62L71 62L71 60L70 60L70 59L69 59L69 58L67 58L67 57L66 57L66 55L67 55L67 53L66 53L66 54L65 54L65 53L64 53L64 52L63 52L63 53L62 53L62 52L60 52L60 53L59 53L59 52L58 52L58 51L59 51L59 50L60 50L60 49L63 49L63 50L64 50L64 51L67 51L67 52L69 52L69 54L71 54L71 52L72 52L72 53L73 53L73 52L72 52L72 51L74 51L74 52L75 52L75 51L79 51L79 50L80 50L80 49L81 49L81 47L80 47L80 45L79 45L79 44L80 44L80 43L81 43L81 42L80 42L80 41L78 41L78 40L80 40L80 39L78 39L78 38L77 38L77 37L79 37L79 36L80 36L80 38L83 38L83 36L82 36L82 35L83 35L83 34L82 34L82 33L83 33L83 32L82 32L82 33L81 33L81 30L82 30L82 31L83 31L83 30L82 30L82 29L79 29L79 28L80 28L80 27L79 27L79 28L78 28L78 30L80 30L80 31L78 31L78 34L77 34L77 35L76 35L76 34L75 34L75 35L74 35L74 34L73 34L73 35L74 35L74 36L75 36L75 39L77 39L77 40L74 40L74 39L71 39L71 38L70 38L70 37L69 37L69 38L68 38L68 37L67 37L67 38L65 38L65 36L64 36L64 34L65 34L65 35L66 35L66 36L68 36L68 35L67 35L67 34L68 34L68 33L66 33L66 34L65 34L65 31L66 31L66 32L68 32L68 31L69 31L69 30L71 30L71 29L70 29L70 27L71 27L71 24L72 24L72 25L73 25L73 24L74 24L74 23L75 23L75 22L76 22L76 23L77 23L77 22L76 22L76 21L78 21L78 22L79 22L79 23L78 23L78 24L80 24L80 26L83 26L83 25L84 25L84 24L83 24L83 25L82 25L82 23L83 23L83 21L84 21L84 20L85 20L85 19L86 19L86 20L87 20L87 19L86 19L86 18L85 18L85 17L84 17L84 20L81 20L81 19L79 19L79 16L80 16L80 17L81 17L81 18L82 18L82 19L83 19L83 18L82 18L82 17L81 17L81 16L80 16L80 15L81 15L81 14L80 14L80 15L79 15L79 14L77 14L77 13L78 13L78 12L77 12L77 13L76 13L76 14L77 14L77 15L76 15L76 16L72 16L72 19L68 19L68 18L70 18L70 17L69 17L69 16L71 16L71 14L72 14L72 13L71 13L71 12L70 12L70 13L69 13L69 14L70 14L70 15L67 15L67 16L68 16L68 17L67 17L67 18L65 18L65 17L64 17L64 16L65 16L65 15L66 15L66 14L67 14L67 13L66 13L66 12L69 12L69 11L66 11L66 10L67 10L67 9L66 9L66 7L67 7L67 8L68 8L68 7L67 7L67 6ZM75 6L75 8L77 8L77 7L78 7L78 6L77 6L77 7L76 7L76 6ZM81 6L81 7L82 7L82 6ZM39 8L39 9L40 9L40 8ZM70 8L70 9L69 9L69 10L70 10L70 11L71 11L71 8ZM13 9L13 10L12 10L12 12L11 12L11 11L9 11L9 12L8 12L8 14L6 14L6 13L7 13L7 12L6 12L6 13L5 13L5 15L8 15L8 14L9 14L9 15L10 15L10 14L11 14L11 13L12 13L12 12L13 12L13 11L15 11L15 10L16 10L16 9L15 9L15 10L14 10L14 9ZM78 9L78 10L79 10L79 9ZM89 9L89 10L90 10L90 9ZM29 10L29 11L30 11L30 10ZM38 10L38 12L41 12L41 11L40 11L40 10ZM62 10L62 11L63 11L63 10ZM3 11L3 12L4 12L4 11ZM16 11L16 12L17 12L17 14L18 14L18 12L17 12L17 11ZM43 11L43 12L44 12L44 11ZM9 12L9 14L10 14L10 13L11 13L11 12ZM82 12L82 13L83 13L83 14L84 14L84 13L83 13L83 12ZM13 13L13 14L12 14L12 15L15 15L15 16L14 16L14 17L13 17L13 18L14 18L14 19L13 19L13 21L14 21L14 19L15 19L15 20L17 20L17 18L18 18L18 17L20 17L20 16L18 16L18 15L16 15L16 13ZM22 13L22 14L23 14L23 15L22 15L22 16L21 16L21 17L22 17L22 18L23 18L23 17L22 17L22 16L23 16L23 15L24 15L24 14L23 14L23 13ZM65 13L65 14L64 14L64 15L63 15L63 16L62 16L62 17L61 17L61 16L60 16L60 17L59 17L59 18L58 18L58 19L57 19L57 20L58 20L58 21L57 21L57 22L56 22L56 25L55 25L55 26L54 26L54 23L55 23L55 22L53 22L53 24L52 24L52 26L51 26L51 25L50 25L50 26L48 26L48 27L47 27L47 24L48 24L48 23L46 23L46 22L45 22L45 23L46 23L46 24L43 24L43 26L42 26L42 27L43 27L43 28L44 28L44 29L43 29L43 30L41 30L41 28L39 28L39 25L41 25L41 24L39 24L39 23L40 23L40 22L37 22L37 21L38 21L38 20L37 20L37 21L34 21L34 20L33 20L33 21L32 21L32 23L34 23L34 22L37 22L37 25L38 25L38 26L37 26L37 27L36 27L36 26L35 26L35 25L36 25L36 24L34 24L34 25L33 25L33 24L32 24L32 25L31 25L31 26L32 26L32 27L31 27L31 28L33 28L33 26L35 26L35 27L34 27L34 30L33 30L33 31L34 31L34 32L33 32L33 33L34 33L34 34L32 34L32 33L31 33L31 36L30 36L30 33L28 33L28 32L27 32L27 34L26 34L26 35L27 35L27 34L28 34L28 36L27 36L27 38L25 38L25 40L24 40L24 41L23 41L23 42L22 42L22 41L21 41L21 42L22 42L22 43L24 43L24 42L25 42L25 41L26 41L26 42L28 42L28 41L30 41L30 39L31 39L31 42L32 42L32 44L31 44L31 45L33 45L33 46L32 46L32 47L33 47L33 46L35 46L35 47L34 47L34 48L33 48L33 49L34 49L34 50L32 50L32 49L31 49L31 50L30 50L30 49L26 49L26 48L27 48L27 47L28 47L28 48L29 48L29 46L30 46L30 45L27 45L27 46L24 46L24 45L26 45L26 44L28 44L28 43L25 43L25 44L24 44L24 45L23 45L23 46L22 46L22 47L24 47L24 49L23 49L23 48L22 48L22 49L20 49L20 50L19 50L19 51L21 51L21 52L22 52L22 53L21 53L21 54L22 54L22 53L26 53L26 52L24 52L24 50L25 50L25 51L26 51L26 50L27 50L27 51L29 51L29 50L30 50L30 51L31 51L31 52L32 52L32 51L34 51L34 52L33 52L33 54L36 54L36 55L35 55L35 56L33 56L33 57L34 57L34 59L33 59L33 60L34 60L34 59L36 59L36 60L37 60L37 61L38 61L38 62L39 62L39 61L38 61L38 60L37 60L37 59L38 59L38 58L39 58L39 60L40 60L40 61L42 61L42 59L43 59L43 62L44 62L44 61L45 61L45 60L44 60L44 59L46 59L46 58L47 58L47 60L46 60L46 62L48 62L48 63L49 63L49 60L50 60L50 62L52 62L52 63L51 63L51 64L50 64L50 65L49 65L49 66L47 66L47 65L45 65L45 64L44 64L44 63L43 63L43 64L44 64L44 65L43 65L43 66L44 66L44 67L42 67L42 68L44 68L44 69L43 69L43 71L42 71L42 70L40 70L40 73L39 73L39 69L41 69L41 68L40 68L40 67L41 67L41 66L42 66L42 65L41 65L41 64L42 64L42 63L36 63L36 64L38 64L38 66L37 66L37 67L35 67L35 68L37 68L37 69L38 69L38 70L37 70L37 71L36 71L36 70L35 70L35 69L32 69L32 68L33 68L33 67L30 67L30 66L31 66L31 65L32 65L32 64L31 64L31 63L33 63L33 62L34 62L34 63L35 63L35 62L34 62L34 61L32 61L32 62L31 62L31 61L27 61L27 62L25 62L25 61L26 61L26 60L24 60L24 61L23 61L23 62L21 62L21 61L19 61L19 62L21 62L21 63L20 63L20 64L22 64L22 65L21 65L21 67L20 67L20 68L22 68L22 67L23 67L23 68L24 68L24 69L23 69L23 70L22 70L22 69L20 69L20 70L22 70L22 71L23 71L23 72L24 72L24 73L27 73L27 72L24 72L24 71L23 71L23 70L25 70L25 69L26 69L26 71L27 71L27 68L28 68L28 70L29 70L29 68L28 68L28 67L30 67L30 70L31 70L31 71L30 71L30 72L31 72L31 73L32 73L32 74L31 74L31 75L30 75L30 77L29 77L29 76L28 76L28 75L29 75L29 74L30 74L30 73L28 73L28 75L27 75L27 74L26 74L26 75L27 75L27 76L26 76L26 77L27 77L27 78L28 78L28 79L29 79L29 78L30 78L30 79L32 79L32 78L33 78L33 74L35 74L35 76L37 76L37 77L38 77L38 76L37 76L37 75L36 75L36 74L35 74L35 73L33 73L33 72L34 72L34 71L32 71L32 70L35 70L35 72L37 72L37 73L38 73L38 74L40 74L40 75L41 75L41 76L39 76L39 77L40 77L40 78L41 78L41 80L42 80L42 79L43 79L43 78L44 78L44 77L43 77L43 76L46 76L46 78L45 78L45 79L46 79L46 78L48 78L48 79L50 79L50 80L51 80L51 79L50 79L50 78L51 78L51 77L50 77L50 75L48 75L48 74L47 74L47 73L46 73L46 72L47 72L47 71L48 71L48 72L49 72L49 73L50 73L50 74L51 74L51 76L52 76L52 77L54 77L54 76L55 76L55 75L56 75L56 74L60 74L60 73L61 73L61 74L62 74L62 73L63 73L63 72L64 72L64 69L63 69L63 68L64 68L64 67L68 67L68 64L67 64L67 66L66 66L66 63L68 63L68 60L67 60L67 62L66 62L66 59L65 59L65 58L66 58L66 57L65 57L65 58L63 58L63 57L62 57L62 56L63 56L63 55L61 55L61 58L62 58L62 59L61 59L61 62L62 62L62 63L63 63L63 64L62 64L62 65L61 65L61 66L60 66L60 64L61 64L61 63L60 63L60 61L57 61L57 62L58 62L58 63L56 63L56 60L55 60L55 59L56 59L56 58L54 58L54 57L55 57L55 56L54 56L54 55L55 55L55 54L57 54L57 55L56 55L56 56L57 56L57 55L58 55L58 54L57 54L57 53L55 53L55 52L57 52L57 51L58 51L58 50L59 50L59 49L60 49L60 48L59 48L59 47L60 47L60 46L59 46L59 43L60 43L60 44L61 44L61 47L62 47L62 48L63 48L63 47L62 47L62 46L64 46L64 47L65 47L65 46L66 46L66 45L65 45L65 44L64 44L64 43L65 43L65 42L66 42L66 43L67 43L67 42L68 42L68 43L70 43L70 44L69 44L69 45L68 45L68 44L67 44L67 45L68 45L68 46L67 46L67 47L71 47L71 48L70 48L70 49L71 49L71 51L70 51L70 50L69 50L69 48L67 48L67 49L66 49L66 48L65 48L65 50L67 50L67 49L68 49L68 51L70 51L70 52L71 52L71 51L72 51L72 48L74 48L74 49L73 49L73 50L75 50L75 48L76 48L76 47L77 47L77 48L78 48L78 49L77 49L77 50L78 50L78 49L80 49L80 48L78 48L78 43L77 43L77 42L78 42L78 41L77 41L77 42L76 42L76 43L73 43L73 44L71 44L71 43L70 43L70 42L69 42L69 41L68 41L68 40L67 40L67 41L65 41L65 40L66 40L66 39L65 39L65 38L64 38L64 39L63 39L63 38L62 38L62 37L63 37L63 36L62 36L62 35L63 35L63 33L62 33L62 31L63 31L63 32L64 32L64 31L65 31L65 30L67 30L67 29L68 29L68 30L69 30L69 27L70 27L70 26L69 26L69 27L68 27L68 28L66 28L66 27L67 27L67 26L66 26L66 24L67 24L67 25L68 25L68 24L67 24L67 23L68 23L68 22L69 22L69 24L71 24L71 23L70 23L70 22L73 22L73 23L72 23L72 24L73 24L73 23L74 23L74 22L75 22L75 20L76 20L76 19L77 19L77 20L79 20L79 21L80 21L80 20L79 20L79 19L77 19L77 18L78 18L78 17L76 17L76 18L74 18L74 17L73 17L73 18L74 18L74 19L72 19L72 20L69 20L69 21L68 21L68 20L67 20L67 19L65 19L65 18L64 18L64 19L65 19L65 21L64 21L64 22L66 22L66 20L67 20L67 23L63 23L63 22L62 22L62 21L61 21L61 22L60 22L60 21L59 21L59 19L61 19L61 20L63 20L63 16L64 16L64 15L65 15L65 14L66 14L66 13ZM70 13L70 14L71 14L71 13ZM87 13L87 14L88 14L88 15L89 15L89 16L91 16L91 15L89 15L89 13ZM39 15L39 16L40 16L40 15ZM77 15L77 16L78 16L78 15ZM6 16L6 17L7 17L7 16ZM15 16L15 18L17 18L17 16ZM32 16L32 17L33 17L33 16ZM6 18L6 19L7 19L7 20L8 20L8 19L7 19L7 18ZM26 18L26 19L28 19L28 18ZM61 18L61 19L62 19L62 18ZM39 19L39 21L41 21L41 20L42 20L42 21L43 21L43 22L41 22L41 23L43 23L43 22L44 22L44 21L43 21L43 20L42 20L42 19L41 19L41 20L40 20L40 19ZM54 19L54 20L55 20L55 19ZM74 19L74 20L75 20L75 19ZM18 20L18 21L19 21L19 20ZM58 21L58 22L57 22L57 23L58 23L58 24L57 24L57 25L56 25L56 26L55 26L55 27L54 27L54 26L53 26L53 27L52 27L52 28L51 28L51 29L52 29L52 28L53 28L53 27L54 27L54 30L53 30L53 31L51 31L51 30L50 30L50 29L49 29L49 28L47 28L47 29L49 29L49 30L50 30L50 31L51 31L51 32L49 32L49 31L48 31L48 30L47 30L47 31L45 31L45 29L46 29L46 27L44 27L44 28L45 28L45 29L44 29L44 30L43 30L43 31L45 31L45 34L46 34L46 35L44 35L44 36L43 36L43 38L42 38L42 37L41 37L41 36L42 36L42 35L41 35L41 36L40 36L40 35L39 35L39 34L40 34L40 32L42 32L42 31L39 31L39 34L38 34L38 31L37 31L37 30L38 30L38 29L37 29L37 28L36 28L36 27L35 27L35 28L36 28L36 29L35 29L35 30L34 30L34 31L37 31L37 32L35 32L35 33L37 33L37 34L36 34L36 35L37 35L37 34L38 34L38 35L39 35L39 36L40 36L40 37L39 37L39 38L40 38L40 39L37 39L37 38L38 38L38 37L37 37L37 36L34 36L34 35L33 35L33 37L37 37L37 38L36 38L36 39L37 39L37 40L36 40L36 42L33 42L33 44L35 44L35 46L37 46L37 47L38 47L38 45L37 45L37 44L35 44L35 43L36 43L36 42L37 42L37 40L38 40L38 41L39 41L39 40L41 40L41 42L42 42L42 44L41 44L41 43L40 43L40 44L39 44L39 48L41 48L41 49L42 49L42 50L41 50L41 51L40 51L40 50L39 50L39 51L40 51L40 52L41 52L41 51L42 51L42 52L45 52L45 53L44 53L44 56L42 56L42 55L41 55L41 54L43 54L43 53L40 53L40 55L39 55L39 54L38 54L38 53L37 53L37 54L38 54L38 55L37 55L37 56L35 56L35 57L36 57L36 59L37 59L37 58L38 58L38 55L39 55L39 56L42 56L42 57L39 57L39 58L40 58L40 60L41 60L41 58L44 58L44 56L45 56L45 57L46 57L46 56L45 56L45 55L46 55L46 54L48 54L48 55L49 55L49 54L50 54L50 55L51 55L51 56L53 56L53 55L54 55L54 54L55 54L55 53L54 53L54 54L53 54L53 53L51 53L51 54L50 54L50 52L51 52L51 50L52 50L52 48L53 48L53 50L55 50L55 49L54 49L54 48L55 48L55 45L56 45L56 46L58 46L58 44L56 44L56 43L57 43L57 42L58 42L58 43L59 43L59 42L60 42L60 41L62 41L62 40L61 40L61 39L60 39L60 40L59 40L59 42L58 42L58 41L57 41L57 40L58 40L58 39L59 39L59 38L61 38L61 37L62 37L62 36L61 36L61 37L60 37L60 36L59 36L59 38L58 38L58 35L59 35L59 34L60 34L60 33L61 33L61 31L62 31L62 30L63 30L63 31L64 31L64 29L65 29L65 28L64 28L64 26L65 26L65 24L63 24L63 25L64 25L64 26L62 26L62 27L63 27L63 29L62 29L62 30L61 30L61 24L60 24L60 22L59 22L59 21ZM69 21L69 22L70 22L70 21ZM91 21L91 22L92 22L92 21ZM0 22L0 23L1 23L1 22ZM58 22L58 23L59 23L59 22ZM61 22L61 23L62 23L62 22ZM81 22L81 23L80 23L80 24L81 24L81 23L82 23L82 22ZM5 23L5 24L7 24L7 23ZM49 23L49 24L51 24L51 23ZM58 24L58 25L57 25L57 26L56 26L56 27L57 27L57 28L59 28L59 27L57 27L57 26L58 26L58 25L59 25L59 26L60 26L60 25L59 25L59 24ZM75 24L75 26L72 26L72 28L73 28L73 27L76 27L76 26L77 26L77 27L78 27L78 26L77 26L77 24ZM6 25L6 26L4 26L4 28L3 28L3 29L2 29L2 30L3 30L3 29L4 29L4 28L5 28L5 27L6 27L6 28L8 28L8 27L6 27L6 26L9 26L9 27L10 27L10 26L9 26L9 25ZM14 25L14 26L15 26L15 25ZM44 25L44 26L46 26L46 25ZM87 25L87 26L88 26L88 27L89 27L89 26L88 26L88 25ZM92 25L92 26L93 26L93 25ZM40 26L40 27L41 27L41 26ZM50 26L50 27L51 27L51 26ZM16 27L16 28L15 28L15 29L14 29L14 33L13 33L13 34L12 34L12 33L10 33L10 36L11 36L11 37L12 37L12 38L14 38L14 37L13 37L13 34L15 34L15 33L17 33L17 32L18 32L18 31L17 31L17 30L16 30L16 29L17 29L17 27ZM10 28L10 29L12 29L12 28ZM75 28L75 29L76 29L76 30L77 30L77 29L76 29L76 28ZM5 29L5 32L8 32L8 29ZM24 29L24 30L27 30L27 29ZM29 29L29 32L32 32L32 29ZM55 29L55 30L54 30L54 31L55 31L55 30L56 30L56 29ZM57 29L57 32L60 32L60 29ZM72 29L72 31L70 31L70 33L69 33L69 34L70 34L70 35L69 35L69 36L70 36L70 35L72 35L72 33L73 33L73 32L74 32L74 31L75 31L75 30L73 30L73 29ZM85 29L85 32L88 32L88 29ZM6 30L6 31L7 31L7 30ZM30 30L30 31L31 31L31 30ZM58 30L58 31L59 31L59 30ZM86 30L86 31L87 31L87 30ZM15 31L15 32L16 32L16 31ZM72 31L72 32L71 32L71 33L70 33L70 34L71 34L71 33L72 33L72 32L73 32L73 31ZM76 31L76 32L75 32L75 33L76 33L76 32L77 32L77 31ZM43 32L43 33L42 33L42 34L43 34L43 33L44 33L44 32ZM47 32L47 33L46 33L46 34L47 34L47 35L46 35L46 37L45 37L45 36L44 36L44 38L43 38L43 40L44 40L44 41L45 41L45 40L44 40L44 38L45 38L45 39L46 39L46 38L48 38L48 36L50 36L50 37L49 37L49 39L47 39L47 41L46 41L46 42L43 42L43 43L45 43L45 44L42 44L42 45L44 45L44 48L43 48L43 49L44 49L44 50L42 50L42 51L45 51L45 52L46 52L46 50L47 50L47 49L46 49L46 50L45 50L45 47L46 47L46 46L47 46L47 48L51 48L51 47L48 47L48 46L49 46L49 45L48 45L48 46L47 46L47 45L46 45L46 42L47 42L47 44L50 44L50 46L51 46L51 44L52 44L52 47L53 47L53 48L54 48L54 46L53 46L53 45L54 45L54 43L56 43L56 41L55 41L55 42L54 42L54 41L53 41L53 40L54 40L54 38L52 38L52 39L50 39L50 38L51 38L51 37L54 37L54 32L51 32L51 33L50 33L50 34L49 34L49 35L48 35L48 34L47 34L47 33L48 33L48 32ZM55 32L55 36L56 36L56 37L55 37L55 40L57 40L57 39L56 39L56 37L57 37L57 36L56 36L56 35L58 35L58 34L57 34L57 33L56 33L56 32ZM79 32L79 35L77 35L77 36L79 36L79 35L80 35L80 36L81 36L81 37L82 37L82 36L81 36L81 35L82 35L82 34L81 34L81 33L80 33L80 32ZM90 32L90 33L91 33L91 32ZM52 33L52 35L51 35L51 34L50 34L50 36L53 36L53 33ZM11 34L11 35L12 35L12 34ZM61 34L61 35L62 35L62 34ZM80 34L80 35L81 35L81 34ZM47 35L47 36L48 36L48 35ZM75 35L75 36L76 36L76 35ZM90 35L90 36L91 36L91 35ZM8 36L8 37L9 37L9 36ZM28 36L28 37L29 37L29 38L31 38L31 39L32 39L32 36L31 36L31 37L29 37L29 36ZM72 36L72 38L73 38L73 36ZM92 36L92 37L93 37L93 36ZM89 37L89 38L90 38L90 37ZM21 38L21 39L22 39L22 38ZM27 38L27 39L26 39L26 41L28 41L28 40L29 40L29 39L28 39L28 38ZM34 38L34 39L33 39L33 41L34 41L34 39L35 39L35 38ZM41 38L41 40L42 40L42 38ZM69 38L69 39L70 39L70 40L71 40L71 42L72 42L72 40L71 40L71 39L70 39L70 38ZM91 38L91 39L90 39L90 40L91 40L91 41L92 41L92 40L93 40L93 39L92 39L92 38ZM2 39L2 40L5 40L5 39ZM27 39L27 40L28 40L28 39ZM64 39L64 40L63 40L63 43L64 43L64 42L65 42L65 41L64 41L64 40L65 40L65 39ZM86 39L86 40L88 40L88 39ZM48 40L48 41L49 41L49 40ZM50 40L50 41L51 41L51 43L50 43L50 44L51 44L51 43L52 43L52 44L53 44L53 43L52 43L52 41L51 41L51 40ZM73 41L73 42L75 42L75 41ZM89 41L89 42L87 42L87 44L92 44L92 43L89 43L89 42L90 42L90 41ZM18 42L18 43L19 43L19 42ZM38 42L38 43L39 43L39 42ZM61 42L61 43L62 43L62 42ZM29 43L29 44L30 44L30 43ZM76 43L76 44L74 44L74 46L72 46L72 47L74 47L74 48L75 48L75 47L76 47L76 46L75 46L75 45L77 45L77 43ZM40 44L40 45L41 45L41 44ZM63 44L63 45L64 45L64 44ZM70 44L70 45L69 45L69 46L70 46L70 45L71 45L71 44ZM41 46L41 47L43 47L43 46ZM74 46L74 47L75 47L75 46ZM88 46L88 47L86 47L86 48L85 48L85 50L86 50L86 52L87 52L87 50L86 50L86 48L87 48L87 49L88 49L88 51L91 51L91 49L92 49L92 48L89 48L89 46ZM90 46L90 47L91 47L91 46ZM8 47L8 50L9 50L9 47ZM15 47L15 48L16 48L16 47ZM35 47L35 48L34 48L34 49L35 49L35 50L34 50L34 51L35 51L35 50L37 50L37 51L36 51L36 52L35 52L35 53L36 53L36 52L38 52L38 50L37 50L37 49L38 49L38 48L36 48L36 47ZM57 47L57 49L56 49L56 50L58 50L58 49L59 49L59 48L58 48L58 47ZM6 48L6 49L7 49L7 48ZM10 49L10 50L11 50L11 49ZM49 49L49 50L51 50L51 49ZM89 49L89 50L90 50L90 49ZM6 50L6 51L7 51L7 50ZM12 50L12 51L13 51L13 50ZM21 50L21 51L22 51L22 52L23 52L23 51L22 51L22 50ZM31 50L31 51L32 51L32 50ZM61 50L61 51L62 51L62 50ZM47 51L47 52L48 52L48 51ZM49 51L49 52L50 52L50 51ZM52 51L52 52L53 52L53 51ZM54 51L54 52L55 52L55 51ZM29 52L29 53L28 53L28 54L29 54L29 53L30 53L30 52ZM45 53L45 54L46 54L46 53ZM61 53L61 54L62 54L62 53ZM63 53L63 54L64 54L64 55L65 55L65 54L64 54L64 53ZM92 53L92 54L93 54L93 53ZM51 54L51 55L52 55L52 54ZM59 54L59 55L60 55L60 54ZM77 54L77 55L78 55L78 54ZM21 56L21 57L22 57L22 58L23 58L23 57L22 57L22 56ZM47 56L47 58L50 58L50 60L53 60L53 59L54 59L54 58L52 58L52 59L51 59L51 58L50 58L50 56ZM91 56L91 57L92 57L92 56ZM1 57L1 58L2 58L2 59L3 59L3 60L4 60L4 59L3 59L3 58L2 58L2 57ZM5 57L5 60L8 60L8 57ZM27 57L27 58L26 58L26 59L27 59L27 58L28 58L28 57ZM29 57L29 60L32 60L32 57ZM57 57L57 60L60 60L60 57ZM85 57L85 60L88 60L88 57ZM6 58L6 59L7 59L7 58ZM30 58L30 59L31 59L31 58ZM58 58L58 59L59 59L59 58ZM81 58L81 59L82 59L82 58ZM86 58L86 59L87 59L87 58ZM48 59L48 60L47 60L47 61L48 61L48 60L49 60L49 59ZM64 59L64 60L62 60L62 62L63 62L63 61L64 61L64 62L65 62L65 61L64 61L64 60L65 60L65 59ZM15 60L15 61L14 61L14 63L15 63L15 62L16 62L16 60ZM69 60L69 61L70 61L70 60ZM17 61L17 62L18 62L18 61ZM52 61L52 62L53 62L53 63L52 63L52 64L53 64L53 66L55 66L55 63L54 63L54 62L55 62L55 61L54 61L54 62L53 62L53 61ZM12 62L12 63L13 63L13 62ZM23 62L23 63L22 63L22 64L23 64L23 65L24 65L24 64L25 64L25 62ZM27 62L27 63L26 63L26 65L25 65L25 66L23 66L23 67L24 67L24 68L26 68L26 67L28 67L28 66L29 66L29 64L30 64L30 63L31 63L31 62L30 62L30 63L28 63L28 62ZM80 62L80 63L79 63L79 64L78 64L78 65L79 65L79 66L80 66L80 67L78 67L78 66L77 66L77 65L76 65L76 64L75 64L75 65L76 65L76 67L78 67L78 70L79 70L79 68L80 68L80 70L84 70L84 69L86 69L86 70L85 70L85 71L84 71L84 73L86 73L86 74L87 74L87 73L86 73L86 72L87 72L87 69L88 69L88 66L87 66L87 69L86 69L86 68L84 68L84 69L83 69L83 67L81 67L81 66L82 66L82 65L83 65L83 66L84 66L84 65L83 65L83 64L82 64L82 63L81 63L81 62ZM8 63L8 64L9 64L9 63ZM17 63L17 64L18 64L18 63ZM23 63L23 64L24 64L24 63ZM46 63L46 64L47 64L47 63ZM53 63L53 64L54 64L54 63ZM58 63L58 64L59 64L59 63ZM64 63L64 64L63 64L63 65L64 65L64 66L65 66L65 63ZM80 63L80 64L79 64L79 65L80 65L80 66L81 66L81 65L82 65L82 64L81 64L81 63ZM33 64L33 65L34 65L34 66L36 66L36 65L35 65L35 64ZM39 64L39 65L40 65L40 64ZM56 64L56 67L55 67L55 68L56 68L56 67L58 67L58 68L57 68L57 73L58 73L58 72L59 72L59 71L60 71L60 72L61 72L61 71L60 71L60 70L58 70L58 68L59 68L59 66L58 66L58 65L57 65L57 64ZM80 64L80 65L81 65L81 64ZM44 65L44 66L45 66L45 68L46 68L46 67L47 67L47 68L48 68L48 69L47 69L47 70L46 70L46 69L45 69L45 70L46 70L46 71L44 71L44 72L41 72L41 73L40 73L40 74L43 74L43 73L44 73L44 72L46 72L46 71L47 71L47 70L52 70L52 72L51 72L51 73L52 73L52 72L54 72L54 71L53 71L53 69L52 69L52 68L54 68L54 67L51 67L51 66L52 66L52 65L51 65L51 66L49 66L49 68L48 68L48 67L47 67L47 66L45 66L45 65ZM38 66L38 67L40 67L40 66ZM61 66L61 67L60 67L60 69L61 69L61 67L62 67L62 68L63 68L63 67L62 67L62 66ZM69 66L69 68L71 68L71 71L72 71L72 70L74 70L74 67L73 67L73 68L71 68L71 67L70 67L70 66ZM80 67L80 68L81 68L81 67ZM15 68L15 70L14 70L14 69L13 69L13 71L14 71L14 72L15 72L15 73L16 73L16 74L17 74L17 73L18 73L18 72L19 72L19 70L18 70L18 69L17 69L17 70L16 70L16 68ZM49 68L49 69L50 69L50 68ZM54 69L54 70L56 70L56 69ZM62 70L62 71L63 71L63 70ZM15 71L15 72L17 72L17 71ZM28 71L28 72L29 72L29 71ZM37 71L37 72L38 72L38 71ZM55 71L55 72L56 72L56 71ZM85 71L85 72L86 72L86 71ZM10 72L10 73L11 73L11 72ZM76 72L76 73L77 73L77 74L78 74L78 73L77 73L77 72ZM90 72L90 75L91 75L91 74L92 74L92 72ZM45 73L45 75L47 75L47 74L46 74L46 73ZM53 73L53 74L52 74L52 76L53 76L53 74L55 74L55 73ZM69 73L69 74L70 74L70 73ZM6 74L6 75L7 75L7 74ZM80 74L80 75L82 75L82 74ZM31 75L31 76L32 76L32 75ZM66 75L66 76L67 76L67 75ZM68 75L68 76L69 76L69 75ZM73 75L73 77L72 77L72 76L71 76L71 77L70 77L70 78L71 78L71 79L72 79L72 78L74 78L74 75ZM87 75L87 76L88 76L88 75ZM5 76L5 77L7 77L7 76ZM24 76L24 77L25 77L25 76ZM27 76L27 77L28 77L28 76ZM47 76L47 77L49 77L49 76ZM34 77L34 78L36 78L36 77ZM42 77L42 78L43 78L43 77ZM1 78L1 79L2 79L2 78ZM90 78L90 79L91 79L91 78ZM78 79L78 80L80 80L80 81L81 81L81 82L82 82L82 81L83 81L83 82L85 82L85 81L83 81L83 80L82 80L82 81L81 81L81 79ZM6 80L6 81L7 81L7 80ZM24 80L24 81L25 81L25 80ZM35 80L35 81L36 81L36 80ZM67 80L67 81L68 81L68 82L67 82L67 83L68 83L68 82L69 82L69 81L68 81L68 80ZM21 81L21 82L22 82L22 81ZM28 81L28 82L27 82L27 83L29 83L29 81ZM31 81L31 82L30 82L30 83L31 83L31 82L32 82L32 83L33 83L33 82L32 82L32 81ZM45 81L45 82L44 82L44 83L45 83L45 84L47 84L47 83L45 83L45 82L46 82L46 81ZM73 81L73 82L72 82L72 83L73 83L73 82L75 82L75 81ZM6 82L6 83L7 83L7 82ZM14 82L14 83L15 83L15 84L16 84L16 85L15 85L15 87L16 87L16 85L17 85L17 86L19 86L19 83L18 83L18 85L17 85L17 83L16 83L16 82ZM92 83L92 86L91 86L91 87L90 87L90 88L91 88L91 87L92 87L92 89L93 89L93 87L92 87L92 86L93 86L93 83ZM38 84L38 86L39 86L39 87L38 87L38 88L37 88L37 89L38 89L38 90L40 90L40 92L41 92L41 89L42 89L42 88L41 88L41 86L40 86L40 85L41 85L41 84ZM89 84L89 85L90 85L90 84ZM27 85L27 86L28 86L28 85ZM29 85L29 88L32 88L32 85ZM34 85L34 86L33 86L33 87L34 87L34 86L35 86L35 85ZM57 85L57 88L60 88L60 85ZM85 85L85 88L88 88L88 85ZM30 86L30 87L31 87L31 86ZM49 86L49 87L50 87L50 86ZM58 86L58 87L59 87L59 86ZM86 86L86 87L87 87L87 86ZM39 87L39 89L40 89L40 87ZM44 87L44 88L45 88L45 87ZM55 87L55 88L54 88L54 89L56 89L56 87ZM75 87L75 88L76 88L76 87ZM11 88L11 89L10 89L10 90L9 90L9 91L10 91L10 90L11 90L11 91L12 91L12 92L13 92L13 90L12 90L12 89L13 89L13 88ZM47 88L47 89L46 89L46 90L47 90L47 91L48 91L48 90L47 90L47 89L48 89L48 88ZM81 88L81 90L82 90L82 91L83 91L83 88ZM27 89L27 90L28 90L28 89ZM62 89L62 90L61 90L61 91L62 91L62 90L63 90L63 91L64 91L64 90L63 90L63 89ZM67 89L67 90L68 90L68 89ZM86 89L86 90L87 90L87 89ZM90 89L90 90L91 90L91 89ZM14 90L14 91L15 91L15 90ZM25 90L25 91L26 91L26 90ZM33 91L33 93L34 93L34 91ZM88 91L88 92L87 92L87 93L88 93L88 92L89 92L89 93L90 93L90 92L91 92L91 93L92 93L92 92L91 92L91 91L90 91L90 92L89 92L89 91ZM27 92L27 93L28 93L28 92ZM0 0L0 7L7 7L7 0ZM1 1L1 6L6 6L6 1ZM2 2L2 5L5 5L5 2ZM86 0L86 7L93 7L93 0ZM87 1L87 6L92 6L92 1ZM88 2L88 5L91 5L91 2ZM0 86L0 93L7 93L7 86ZM1 87L1 92L6 92L6 87ZM2 88L2 91L5 91L5 88Z" fill="#000000"/></g></g></svg>
