<?xml version="1.0" encoding="UTF-8"?>
<svg xmlns="http://www.w3.org/2000/svg" version="1.1" width="300" height="300" viewBox="0 0 300 300"><rect x="0" y="0" width="300" height="300" fill="#ffffff"/><g transform="scale(7.317)"><g transform="translate(0,0)"><path fill-rule="evenodd" d="M13 0L13 2L12 2L12 1L11 1L11 2L12 2L12 3L13 3L13 4L14 4L14 5L12 5L12 7L13 7L13 6L14 6L14 8L13 8L13 9L12 9L12 11L11 11L11 9L9 9L9 11L10 11L10 13L9 13L9 12L8 12L8 13L7 13L7 12L6 12L6 11L8 11L8 8L9 8L9 6L10 6L10 8L11 8L11 6L10 6L10 5L11 5L11 4L10 4L10 3L9 3L9 1L8 1L8 3L9 3L9 4L8 4L8 8L6 8L6 9L7 9L7 10L6 10L6 11L5 11L5 12L4 12L4 11L3 11L3 10L2 10L2 11L3 11L3 12L2 12L2 14L3 14L3 12L4 12L4 14L5 14L5 15L1 15L1 14L0 14L0 16L2 16L2 17L0 17L0 19L1 19L1 20L0 20L0 21L1 21L1 22L2 22L2 24L0 24L0 25L1 25L1 27L0 27L0 29L2 29L2 32L3 32L3 33L4 33L4 31L5 31L5 29L4 29L4 28L5 28L5 26L6 26L6 27L9 27L9 29L8 29L8 28L6 28L6 29L8 29L8 30L6 30L6 31L7 31L7 32L6 32L6 33L7 33L7 32L8 32L8 35L10 35L10 36L9 36L9 37L8 37L8 38L9 38L9 39L8 39L8 41L11 41L11 40L12 40L12 37L10 37L10 36L13 36L13 34L12 34L12 35L11 35L11 33L10 33L10 32L9 32L9 31L8 31L8 30L10 30L10 31L12 31L12 32L13 32L13 33L14 33L14 34L17 34L17 35L14 35L14 36L18 36L18 34L17 34L17 33L18 33L18 32L19 32L19 35L20 35L20 34L21 34L21 36L20 36L20 37L24 37L24 36L25 36L25 38L23 38L23 39L25 39L25 40L24 40L24 41L25 41L25 40L27 40L27 39L25 39L25 38L27 38L27 37L26 37L26 33L27 33L27 32L28 32L28 35L27 35L27 36L28 36L28 37L29 37L29 38L28 38L28 39L29 39L29 40L28 40L28 41L30 41L30 39L31 39L31 37L30 37L30 36L32 36L32 37L33 37L33 39L32 39L32 40L31 40L31 41L33 41L33 40L35 40L35 41L36 41L36 40L38 40L38 39L37 39L37 38L38 38L38 37L37 37L37 36L39 36L39 41L40 41L40 39L41 39L41 38L40 38L40 37L41 37L41 35L40 35L40 32L39 32L39 33L38 33L38 34L39 34L39 35L37 35L37 32L38 32L38 31L41 31L41 29L38 29L38 27L40 27L40 28L41 28L41 25L38 25L38 24L40 24L40 22L41 22L41 17L40 17L40 15L41 15L41 14L39 14L39 17L37 17L37 18L38 18L38 19L39 19L39 20L36 20L36 19L35 19L35 17L36 17L36 16L35 16L35 15L37 15L37 16L38 16L38 14L36 14L36 9L37 9L37 8L34 8L34 9L33 9L33 6L32 6L32 5L33 5L33 3L32 3L32 5L31 5L31 6L30 6L30 7L29 7L29 4L27 4L27 3L28 3L28 0L25 0L25 2L24 2L24 0L22 0L22 1L20 1L20 0L15 0L15 1L14 1L14 0ZM31 0L31 1L29 1L29 3L31 3L31 1L33 1L33 0ZM17 1L17 3L18 3L18 1ZM19 1L19 4L20 4L20 1ZM22 1L22 2L21 2L21 5L20 5L20 6L19 6L19 5L18 5L18 4L15 4L15 5L18 5L18 6L17 6L17 7L18 7L18 8L14 8L14 9L15 9L15 11L14 11L14 12L13 12L13 11L12 11L12 12L11 12L11 13L12 13L12 12L13 12L13 15L15 15L15 16L16 16L16 15L15 15L15 14L14 14L14 12L15 12L15 13L16 13L16 14L17 14L17 13L18 13L18 10L20 10L20 12L19 12L19 14L18 14L18 15L19 15L19 16L18 16L18 17L19 17L19 18L18 18L18 19L17 19L17 17L14 17L14 16L12 16L12 14L10 14L10 15L6 15L6 16L5 16L5 18L4 18L4 16L3 16L3 18L4 18L4 19L2 19L2 22L3 22L3 23L4 23L4 22L3 22L3 20L4 20L4 19L6 19L6 20L7 20L7 19L9 19L9 18L10 18L10 17L9 17L9 18L8 18L8 16L12 16L12 18L11 18L11 20L10 20L10 21L11 21L11 20L12 20L12 22L11 22L11 24L10 24L10 22L9 22L9 21L5 21L5 25L4 25L4 26L5 26L5 25L6 25L6 26L9 26L9 27L10 27L10 25L11 25L11 26L12 26L12 27L11 27L11 29L10 29L10 30L12 30L12 27L15 27L15 29L14 29L14 30L13 30L13 32L14 32L14 33L15 33L15 32L16 32L16 33L17 33L17 31L19 31L19 30L17 30L17 31L14 31L14 30L15 30L15 29L18 29L18 28L17 28L17 27L16 27L16 24L19 24L19 25L20 25L20 24L19 24L19 23L16 23L16 22L17 22L17 20L18 20L18 22L19 22L19 19L20 19L20 18L21 18L21 19L22 19L22 18L23 18L23 22L22 22L22 21L20 21L20 23L21 23L21 22L22 22L22 23L24 23L24 24L22 24L22 25L23 25L23 26L24 26L24 27L22 27L22 26L21 26L21 27L22 27L22 29L20 29L20 26L19 26L19 29L20 29L20 30L21 30L21 31L22 31L22 36L24 36L24 33L25 33L25 32L26 32L26 30L25 30L25 29L27 29L27 31L28 31L28 32L29 32L29 34L30 34L30 35L29 35L29 36L30 36L30 35L32 35L32 34L30 34L30 33L32 33L32 32L29 32L29 31L28 31L28 29L29 29L29 27L30 27L30 31L33 31L33 30L34 30L34 32L35 32L35 30L37 30L37 31L36 31L36 32L37 32L37 31L38 31L38 30L37 30L37 27L38 27L38 25L37 25L37 24L36 24L36 23L35 23L35 22L38 22L38 23L39 23L39 22L40 22L40 21L35 21L35 22L33 22L33 21L34 21L34 20L33 20L33 18L34 18L34 17L35 17L35 16L33 16L33 14L34 14L34 15L35 15L35 13L34 13L34 12L35 12L35 10L34 10L34 11L33 11L33 12L32 12L32 11L31 11L31 10L33 10L33 9L32 9L32 6L31 6L31 7L30 7L30 8L29 8L29 7L28 7L28 6L27 6L27 4L26 4L26 3L27 3L27 2L25 2L25 4L26 4L26 6L25 6L25 5L23 5L23 3L24 3L24 2L23 2L23 1ZM14 2L14 3L15 3L15 2ZM22 2L22 3L23 3L23 2ZM9 4L9 5L10 5L10 4ZM21 5L21 6L20 6L20 7L21 7L21 9L20 9L20 10L21 10L21 9L22 9L22 7L23 7L23 6L22 6L22 5ZM15 6L15 7L16 7L16 6ZM18 6L18 7L19 7L19 6ZM21 6L21 7L22 7L22 6ZM24 6L24 7L25 7L25 6ZM26 6L26 7L27 7L27 6ZM0 8L0 11L1 11L1 9L2 9L2 8ZM3 8L3 9L4 9L4 8ZM23 8L23 9L24 9L24 12L25 12L25 13L26 13L26 9L27 9L27 10L29 10L29 11L30 11L30 10L31 10L31 8L30 8L30 9L28 9L28 8L25 8L25 9L24 9L24 8ZM38 8L38 9L39 9L39 10L37 10L37 11L38 11L38 12L37 12L37 13L38 13L38 12L39 12L39 11L40 11L40 8ZM17 9L17 10L16 10L16 11L17 11L17 10L18 10L18 9ZM22 10L22 11L21 11L21 12L20 12L20 14L19 14L19 15L20 15L20 16L21 16L21 18L22 18L22 17L23 17L23 18L25 18L25 17L23 17L23 16L24 16L24 15L25 15L25 16L27 16L27 14L28 14L28 15L29 15L29 16L28 16L28 18L29 18L29 19L26 19L26 20L25 20L25 19L24 19L24 20L25 20L25 22L24 22L24 23L25 23L25 25L26 25L26 24L28 24L28 25L29 25L29 26L28 26L28 27L29 27L29 26L30 26L30 25L31 25L31 26L32 26L32 25L31 25L31 24L32 24L32 22L30 22L30 21L31 21L31 19L30 19L30 18L31 18L31 17L32 17L32 18L33 18L33 17L32 17L32 15L31 15L31 14L32 14L32 12L29 12L29 14L28 14L28 11L27 11L27 14L26 14L26 15L25 15L25 14L22 14L22 13L23 13L23 10ZM5 12L5 13L6 13L6 14L7 14L7 13L6 13L6 12ZM16 12L16 13L17 13L17 12ZM8 13L8 14L9 14L9 13ZM20 14L20 15L21 15L21 14ZM30 15L30 16L31 16L31 15ZM6 16L6 17L7 17L7 16ZM29 17L29 18L30 18L30 17ZM39 17L39 19L40 19L40 17ZM6 18L6 19L7 19L7 18ZM12 18L12 20L14 20L14 21L13 21L13 25L14 25L14 26L15 26L15 24L16 24L16 23L14 23L14 21L15 21L15 22L16 22L16 19L15 19L15 20L14 20L14 18ZM28 20L28 21L26 21L26 23L28 23L28 21L30 21L30 20ZM32 20L32 21L33 21L33 20ZM6 22L6 23L8 23L8 24L6 24L6 25L8 25L8 24L9 24L9 25L10 25L10 24L9 24L9 22ZM29 22L29 24L31 24L31 23L30 23L30 22ZM33 23L33 24L34 24L34 25L33 25L33 27L32 27L32 28L35 28L35 29L34 29L34 30L35 30L35 29L36 29L36 27L37 27L37 26L36 26L36 24L34 24L34 23ZM2 25L2 26L3 26L3 25ZM34 25L34 27L36 27L36 26L35 26L35 25ZM25 26L25 28L26 28L26 26ZM1 27L1 28L3 28L3 27ZM3 29L3 31L4 31L4 29ZM22 29L22 31L23 31L23 32L25 32L25 31L23 31L23 30L24 30L24 29ZM32 29L32 30L33 30L33 29ZM0 30L0 31L1 31L1 30ZM0 32L0 33L1 33L1 32ZM33 33L33 36L36 36L36 33ZM34 34L34 35L35 35L35 34ZM15 37L15 38L18 38L18 37ZM35 37L35 38L34 38L34 39L35 39L35 40L36 40L36 39L35 39L35 38L36 38L36 37ZM13 38L13 40L14 40L14 41L15 41L15 40L16 40L16 39L15 39L15 40L14 40L14 38ZM20 38L20 39L17 39L17 40L20 40L20 41L23 41L23 40L22 40L22 38ZM29 38L29 39L30 39L30 38ZM10 39L10 40L11 40L11 39ZM20 39L20 40L21 40L21 39ZM0 0L0 7L7 7L7 0ZM1 1L1 6L6 6L6 1ZM2 2L2 5L5 5L5 2ZM34 0L34 7L41 7L41 0ZM35 1L35 6L40 6L40 1ZM36 2L36 5L39 5L39 2ZM0 34L0 41L7 41L7 34ZM1 35L1 40L6 40L6 35ZM2 36L2 39L5 39L5 36Z" fill="#000000"/></g></g></svg>
