<?xml version="1.0" encoding="UTF-8"?>
<svg xmlns="http://www.w3.org/2000/svg" version="1.1" width="300" height="300" viewBox="0 0 300 300"><rect x="0" y="0" width="300" height="300" fill="#ffffff"/><g transform="scale(12)"><g transform="translate(0,0)"><path fill-rule="evenodd" d="M9 0L9 1L10 1L10 2L8 2L8 3L9 3L9 4L10 4L10 5L9 5L9 6L8 6L8 8L4 8L4 9L9 9L9 8L10 8L10 10L8 10L8 11L7 11L7 10L6 10L6 11L7 11L7 12L5 12L5 10L3 10L3 8L0 8L0 9L2 9L2 10L3 10L3 11L4 11L4 12L5 12L5 13L4 13L4 14L3 14L3 12L1 12L1 14L0 14L0 15L1 15L1 16L0 16L0 17L1 17L1 16L3 16L3 15L9 15L9 11L10 11L10 10L12 10L12 8L13 8L13 10L14 10L14 11L15 11L15 12L16 12L16 13L17 13L17 14L16 14L16 15L18 15L18 13L17 13L17 12L18 12L18 9L19 9L19 8L17 8L17 6L16 6L16 5L15 5L15 4L13 4L13 6L12 6L12 8L11 8L11 6L10 6L10 5L11 5L11 4L12 4L12 3L13 3L13 2L14 2L14 1L13 1L13 0L12 0L12 1L10 1L10 0ZM15 0L15 1L17 1L17 0ZM11 2L11 3L12 3L12 2ZM15 2L15 3L16 3L16 4L17 4L17 2ZM9 6L9 7L10 7L10 6ZM13 6L13 8L16 8L16 6L15 6L15 7L14 7L14 6ZM22 8L22 9L20 9L20 11L19 11L19 12L20 12L20 11L21 11L21 10L22 10L22 11L24 11L24 10L22 10L22 9L23 9L23 8ZM14 9L14 10L15 10L15 9ZM16 9L16 10L17 10L17 9ZM11 11L11 12L12 12L12 13L11 13L11 14L10 14L10 17L9 17L9 16L4 16L4 17L8 17L8 21L9 21L9 22L8 22L8 25L10 25L10 24L9 24L9 22L10 22L10 23L13 23L13 21L10 21L10 20L9 20L9 19L11 19L11 20L12 20L12 19L13 19L13 20L14 20L14 21L15 21L15 22L14 22L14 23L17 23L17 22L18 22L18 25L20 25L20 24L19 24L19 22L20 22L20 23L21 23L21 25L22 25L22 23L23 23L23 24L24 24L24 25L25 25L25 22L24 22L24 23L23 23L23 22L22 22L22 20L21 20L21 19L23 19L23 20L24 20L24 21L25 21L25 17L24 17L24 16L22 16L22 15L20 15L20 14L21 14L21 13L20 13L20 14L19 14L19 16L14 16L14 15L15 15L15 14L14 14L14 13L13 13L13 12L12 12L12 11ZM6 13L6 14L7 14L7 13ZM1 14L1 15L3 15L3 14ZM13 14L13 15L14 15L14 14ZM23 14L23 15L24 15L24 14ZM11 15L11 16L12 16L12 15ZM13 16L13 17L12 17L12 18L11 18L11 17L10 17L10 18L11 18L11 19L12 19L12 18L13 18L13 19L14 19L14 16ZM21 16L21 17L22 17L22 18L23 18L23 19L24 19L24 18L23 18L23 17L22 17L22 16ZM15 17L15 18L16 18L16 17ZM17 17L17 20L20 20L20 17ZM18 18L18 19L19 19L19 18ZM15 20L15 21L16 21L16 22L17 22L17 21L16 21L16 20ZM18 21L18 22L19 22L19 21ZM20 21L20 22L21 22L21 21ZM13 24L13 25L14 25L14 24ZM16 24L16 25L17 25L17 24ZM0 0L0 7L7 7L7 0ZM1 1L1 6L6 6L6 1ZM2 2L2 5L5 5L5 2ZM18 0L18 7L25 7L25 0ZM19 1L19 6L24 6L24 1ZM20 2L20 5L23 5L23 2ZM0 18L0 25L7 25L7 18ZM1 19L1 24L6 24L6 19ZM2 20L2 23L5 23L5 20Z" fill="#000000"/></g></g></svg>
