<?xml version="1.0" encoding="UTF-8"?>
<svg xmlns="http://www.w3.org/2000/svg" version="1.1" width="300" height="300" viewBox="0 0 300 300"><rect x="0" y="0" width="300" height="300" fill="#ffffff"/><g transform="scale(7.317)"><g transform="translate(0,0)"><path fill-rule="evenodd" d="M8 0L8 1L9 1L9 0ZM11 0L11 1L10 1L10 2L9 2L9 4L13 4L13 2L12 2L12 1L13 1L13 0ZM16 0L16 2L15 2L15 3L19 3L19 4L17 4L17 5L18 5L18 8L17 8L17 9L16 9L16 8L15 8L15 10L14 10L14 12L12 12L12 13L13 13L13 14L11 14L11 10L12 10L12 9L13 9L13 8L14 8L14 7L15 7L15 6L14 6L14 7L13 7L13 6L12 6L12 9L11 9L11 8L10 8L10 9L11 9L11 10L9 10L9 11L7 11L7 10L8 10L8 9L7 9L7 8L6 8L6 9L7 9L7 10L5 10L5 11L4 11L4 10L3 10L3 9L5 9L5 8L3 8L3 9L2 9L2 8L0 8L0 10L1 10L1 9L2 9L2 11L4 11L4 12L6 12L6 13L5 13L5 14L3 14L3 13L1 13L1 11L0 11L0 13L1 13L1 17L0 17L0 19L1 19L1 21L0 21L0 22L1 22L1 23L0 23L0 24L4 24L4 25L2 25L2 26L3 26L3 27L2 27L2 28L1 28L1 27L0 27L0 28L1 28L1 29L0 29L0 33L2 33L2 32L3 32L3 33L4 33L4 32L3 32L3 31L2 31L2 30L3 30L3 29L4 29L4 31L5 31L5 33L7 33L7 32L6 32L6 31L11 31L11 34L9 34L9 32L8 32L8 34L9 34L9 36L8 36L8 38L9 38L9 39L8 39L8 41L9 41L9 40L10 40L10 39L11 39L11 37L12 37L12 38L15 38L15 39L14 39L14 40L13 40L13 39L12 39L12 40L11 40L11 41L12 41L12 40L13 40L13 41L16 41L16 40L17 40L17 41L18 41L18 40L17 40L17 39L18 39L18 38L19 38L19 40L20 40L20 41L21 41L21 40L20 40L20 39L21 39L21 38L24 38L24 39L22 39L22 41L26 41L26 40L25 40L25 39L26 39L26 38L25 38L25 37L23 37L23 36L24 36L24 35L25 35L25 34L24 34L24 32L23 32L23 31L24 31L24 30L25 30L25 32L26 32L26 34L27 34L27 35L26 35L26 36L27 36L27 41L29 41L29 39L30 39L30 40L32 40L32 41L33 41L33 40L32 40L32 38L33 38L33 37L35 37L35 38L36 38L36 39L34 39L34 41L35 41L35 40L36 40L36 39L37 39L37 40L38 40L38 41L39 41L39 39L38 39L38 38L39 38L39 37L38 37L38 36L37 36L37 35L38 35L38 32L41 32L41 30L40 30L40 31L39 31L39 30L38 30L38 32L37 32L37 31L36 31L36 30L37 30L37 27L38 27L38 28L39 28L39 29L40 29L40 27L41 27L41 25L40 25L40 24L41 24L41 23L40 23L40 24L39 24L39 26L38 26L38 25L36 25L36 26L35 26L35 23L36 23L36 24L37 24L37 23L39 23L39 22L40 22L40 21L41 21L41 17L40 17L40 21L39 21L39 18L37 18L37 17L35 17L35 18L34 18L34 16L33 16L33 18L34 18L34 20L33 20L33 19L32 19L32 17L31 17L31 16L32 16L32 14L35 14L35 11L34 11L34 10L33 10L33 8L31 8L31 5L32 5L32 7L33 7L33 4L32 4L32 2L33 2L33 0L32 0L32 1L31 1L31 3L27 3L27 4L28 4L28 5L29 5L29 6L28 6L28 7L27 7L27 5L26 5L26 7L25 7L25 4L26 4L26 2L25 2L25 1L24 1L24 2L23 2L23 0L21 0L21 1L22 1L22 2L20 2L20 1L19 1L19 0L18 0L18 1L17 1L17 0ZM26 0L26 1L27 1L27 0ZM29 0L29 1L28 1L28 2L30 2L30 0ZM18 1L18 2L19 2L19 1ZM10 2L10 3L12 3L12 2ZM20 3L20 4L19 4L19 7L20 7L20 4L21 4L21 3ZM23 3L23 4L22 4L22 5L21 5L21 8L20 8L20 10L19 10L19 11L18 11L18 12L20 12L20 11L21 11L21 13L20 13L20 14L19 14L19 13L17 13L17 15L16 15L16 13L14 13L14 14L13 14L13 15L12 15L12 16L11 16L11 15L10 15L10 17L11 17L11 18L12 18L12 17L13 17L13 16L15 16L15 17L16 17L16 16L17 16L17 18L16 18L16 19L15 19L15 18L13 18L13 19L12 19L12 20L11 20L11 19L10 19L10 18L9 18L9 17L6 17L6 18L5 18L5 20L4 20L4 19L3 19L3 18L4 18L4 17L5 17L5 16L8 16L8 15L9 15L9 14L10 14L10 11L9 11L9 14L7 14L7 13L6 13L6 14L5 14L5 15L4 15L4 16L3 16L3 15L2 15L2 17L1 17L1 19L2 19L2 20L3 20L3 21L2 21L2 22L5 22L5 20L8 20L8 19L6 19L6 18L9 18L9 21L8 21L8 22L7 22L7 21L6 21L6 22L7 22L7 23L6 23L6 24L5 24L5 23L4 23L4 24L5 24L5 27L4 27L4 29L5 29L5 31L6 31L6 30L7 30L7 29L8 29L8 28L7 28L7 27L9 27L9 28L10 28L10 29L9 29L9 30L10 30L10 29L11 29L11 28L10 28L10 25L11 25L11 24L9 24L9 21L10 21L10 20L11 20L11 22L10 22L10 23L11 23L11 22L12 22L12 23L13 23L13 24L12 24L12 25L14 25L14 27L12 27L12 26L11 26L11 27L12 27L12 28L13 28L13 29L12 29L12 30L11 30L11 31L12 31L12 33L14 33L14 37L15 37L15 38L16 38L16 39L15 39L15 40L16 40L16 39L17 39L17 38L18 38L18 37L19 37L19 36L18 36L18 35L21 35L21 37L22 37L22 36L23 36L23 34L22 34L22 33L23 33L23 32L22 32L22 31L20 31L20 29L17 29L17 28L19 28L19 27L18 27L18 26L23 26L23 27L25 27L25 28L24 28L24 29L23 29L23 28L22 28L22 27L20 27L20 28L21 28L21 29L22 29L22 30L24 30L24 29L25 29L25 30L27 30L27 28L26 28L26 27L27 27L27 26L23 26L23 24L24 24L24 25L27 25L27 24L29 24L29 26L30 26L30 27L29 27L29 28L28 28L28 30L29 30L29 32L30 32L30 34L29 34L29 33L28 33L28 34L29 34L29 35L27 35L27 36L29 36L29 38L31 38L31 36L32 36L32 35L31 35L31 34L32 34L32 33L31 33L31 30L30 30L30 29L31 29L31 28L30 28L30 27L31 27L31 26L32 26L32 30L33 30L33 31L32 31L32 32L34 32L34 31L35 31L35 32L36 32L36 31L35 31L35 30L36 30L36 29L35 29L35 28L36 28L36 27L35 27L35 26L34 26L34 25L33 25L33 24L34 24L34 23L35 23L35 21L36 21L36 19L37 19L37 18L36 18L36 19L35 19L35 21L33 21L33 22L31 22L31 26L30 26L30 24L29 24L29 23L27 23L27 22L26 22L26 20L27 20L27 21L28 21L28 22L30 22L30 21L29 21L29 20L30 20L30 19L29 19L29 18L31 18L31 17L30 17L30 14L32 14L32 13L33 13L33 12L34 12L34 11L32 11L32 10L31 10L31 9L29 9L29 8L30 8L30 6L29 6L29 8L27 8L27 10L26 10L26 8L22 8L22 5L24 5L24 4L25 4L25 3ZM14 4L14 5L16 5L16 4ZM30 4L30 5L31 5L31 4ZM10 5L10 7L11 7L11 5ZM8 6L8 8L9 8L9 6ZM16 6L16 7L17 7L17 6ZM23 6L23 7L24 7L24 6ZM18 8L18 9L17 9L17 10L18 10L18 9L19 9L19 8ZM34 8L34 9L35 9L35 8ZM40 8L40 10L41 10L41 8ZM21 9L21 11L23 11L23 12L22 12L22 15L23 15L23 14L24 14L24 16L22 16L22 18L21 18L21 17L20 17L20 15L19 15L19 19L16 19L16 20L19 20L19 19L23 19L23 20L22 20L22 21L21 21L21 20L20 20L20 22L22 22L22 21L23 21L23 23L24 23L24 24L25 24L25 21L24 21L24 18L23 18L23 17L24 17L24 16L25 16L25 20L26 20L26 18L27 18L27 19L28 19L28 17L29 17L29 13L28 13L28 14L27 14L27 13L24 13L24 11L25 11L25 10L24 10L24 9ZM36 9L36 10L38 10L38 11L36 11L36 12L38 12L38 11L39 11L39 13L38 13L38 14L37 14L37 13L36 13L36 14L37 14L37 15L36 15L36 16L38 16L38 17L39 17L39 15L38 15L38 14L40 14L40 16L41 16L41 11L39 11L39 9ZM27 10L27 11L26 11L26 12L27 12L27 11L28 11L28 12L30 12L30 13L31 13L31 12L32 12L32 11L31 11L31 12L30 12L30 10L29 10L29 11L28 11L28 10ZM6 11L6 12L7 12L7 11ZM16 11L16 12L17 12L17 11ZM6 14L6 15L7 15L7 14ZM14 14L14 15L15 15L15 16L16 16L16 15L15 15L15 14ZM25 15L25 16L26 16L26 17L27 17L27 15ZM14 19L14 20L13 20L13 21L12 21L12 22L14 22L14 23L16 23L16 24L14 24L14 25L15 25L15 28L14 28L14 30L12 30L12 31L13 31L13 32L14 32L14 31L15 31L15 32L17 32L17 31L18 31L18 30L16 30L16 31L15 31L15 29L16 29L16 28L17 28L17 26L16 26L16 25L17 25L17 24L18 24L18 25L21 25L21 24L19 24L19 21L18 21L18 23L17 23L17 21L16 21L16 22L15 22L15 19ZM37 20L37 22L36 22L36 23L37 23L37 22L38 22L38 20ZM33 22L33 23L34 23L34 22ZM6 24L6 25L7 25L7 26L6 26L6 27L7 27L7 26L8 26L8 25L9 25L9 24ZM32 25L32 26L33 26L33 25ZM2 28L2 29L1 29L1 30L2 30L2 29L3 29L3 28ZM6 28L6 29L7 29L7 28ZM25 28L25 29L26 29L26 28ZM33 28L33 30L34 30L34 28ZM26 31L26 32L28 32L28 31ZM20 32L20 33L21 33L21 32ZM17 33L17 34L19 34L19 33ZM33 33L33 36L36 36L36 33ZM40 33L40 34L41 34L41 33ZM15 34L15 35L16 35L16 34ZM21 34L21 35L22 35L22 34ZM34 34L34 35L35 35L35 34ZM12 35L12 37L13 37L13 35ZM29 35L29 36L30 36L30 35ZM9 36L9 37L10 37L10 36ZM15 36L15 37L16 37L16 36ZM17 36L17 37L18 37L18 36ZM40 36L40 40L41 40L41 36ZM36 37L36 38L38 38L38 37ZM0 0L0 7L7 7L7 0ZM1 1L1 6L6 6L6 1ZM2 2L2 5L5 5L5 2ZM34 0L34 7L41 7L41 0ZM35 1L35 6L40 6L40 1ZM36 2L36 5L39 5L39 2ZM0 34L0 41L7 41L7 34ZM1 35L1 40L6 40L6 35ZM2 36L2 39L5 39L5 36Z" fill="#000000"/></g></g></svg>
