<?xml version="1.0" encoding="UTF-8"?>
<svg xmlns="http://www.w3.org/2000/svg" version="1.1" width="300" height="300" viewBox="0 0 300 300"><rect x="0" y="0" width="300" height="300" fill="#ffffff"/><g transform="scale(12)"><g transform="translate(0,0)"><path fill-rule="evenodd" d="M8 0L8 4L10 4L10 3L11 3L11 4L12 4L12 2L11 2L11 0ZM12 0L12 1L14 1L14 0ZM15 0L15 1L16 1L16 2L14 2L14 3L13 3L13 5L11 5L11 6L10 6L10 7L9 7L9 5L8 5L8 7L9 7L9 8L10 8L10 7L11 7L11 6L12 6L12 8L11 8L11 9L7 9L7 8L4 8L4 9L2 9L2 8L0 8L0 9L2 9L2 10L0 10L0 11L2 11L2 16L0 16L0 17L2 17L2 16L3 16L3 17L4 17L4 15L5 15L5 14L6 14L6 15L7 15L7 14L8 14L8 13L9 13L9 12L8 12L8 11L9 11L9 10L11 10L11 11L10 11L10 13L11 13L11 12L12 12L12 13L13 13L13 14L14 14L14 15L15 15L15 16L13 16L13 15L12 15L12 16L11 16L11 17L10 17L10 19L12 19L12 21L11 21L11 20L9 20L9 19L8 19L8 21L9 21L9 23L8 23L8 25L11 25L11 24L12 24L12 25L15 25L15 24L14 24L14 23L13 23L13 24L12 24L12 21L14 21L14 22L15 22L15 23L16 23L16 24L17 24L17 23L18 23L18 25L19 25L19 24L20 24L20 25L21 25L21 23L23 23L23 24L22 24L22 25L23 25L23 24L24 24L24 25L25 25L25 23L24 23L24 22L25 22L25 19L24 19L24 18L22 18L22 17L21 17L21 16L20 16L20 15L22 15L22 16L23 16L23 17L24 17L24 16L23 16L23 14L24 14L24 15L25 15L25 13L23 13L23 14L20 14L20 13L22 13L22 12L23 12L23 10L24 10L24 11L25 11L25 8L21 8L21 9L20 9L20 8L19 8L19 9L20 9L20 11L19 11L19 10L18 10L18 11L16 11L16 10L17 10L17 9L16 9L16 10L15 10L15 9L12 9L12 8L17 8L17 5L16 5L16 4L15 4L15 6L14 6L14 7L13 7L13 5L14 5L14 3L17 3L17 0ZM9 2L9 3L10 3L10 2ZM15 6L15 7L16 7L16 6ZM4 9L4 10L2 10L2 11L4 11L4 10L5 10L5 12L3 12L3 15L4 15L4 13L5 13L5 12L7 12L7 11L8 11L8 10L7 10L7 9L6 9L6 10L5 10L5 9ZM11 9L11 10L12 10L12 9ZM21 9L21 10L23 10L23 9ZM6 10L6 11L7 11L7 10ZM13 10L13 11L12 11L12 12L14 12L14 13L16 13L16 14L15 14L15 15L16 15L16 16L15 16L15 17L13 17L13 18L12 18L12 17L11 17L11 18L12 18L12 19L13 19L13 20L16 20L16 18L15 18L15 17L16 17L16 16L19 16L19 15L20 15L20 14L19 14L19 15L18 15L18 13L19 13L19 11L18 11L18 12L15 12L15 11L14 11L14 10ZM20 11L20 12L22 12L22 11ZM0 13L0 14L1 14L1 13ZM6 13L6 14L7 14L7 13ZM9 14L9 15L8 15L8 16L6 16L6 17L8 17L8 18L9 18L9 17L8 17L8 16L9 16L9 15L10 15L10 14ZM16 14L16 15L17 15L17 14ZM17 17L17 20L20 20L20 17ZM18 18L18 19L19 19L19 18ZM21 18L21 19L22 19L22 20L23 20L23 21L21 21L21 22L20 22L20 21L19 21L19 22L18 22L18 21L17 21L17 22L18 22L18 23L21 23L21 22L23 22L23 21L24 21L24 20L23 20L23 19L22 19L22 18ZM10 21L10 23L9 23L9 24L11 24L11 21ZM0 0L0 7L7 7L7 0ZM1 1L1 6L6 6L6 1ZM2 2L2 5L5 5L5 2ZM18 0L18 7L25 7L25 0ZM19 1L19 6L24 6L24 1ZM20 2L20 5L23 5L23 2ZM0 18L0 25L7 25L7 18ZM1 19L1 24L6 24L6 19ZM2 20L2 23L5 23L5 20Z" fill="#000000"/></g></g></svg>
