<?xml version="1.0" encoding="UTF-8"?>
<svg xmlns="http://www.w3.org/2000/svg" version="1.1" width="300" height="300" viewBox="0 0 300 300"><rect x="0" y="0" width="300" height="300" fill="#ffffff"/><g transform="scale(7.317)"><g transform="translate(0,0)"><path fill-rule="evenodd" d="M11 0L11 2L10 2L10 1L8 1L8 2L10 2L10 3L8 3L8 4L9 4L9 5L8 5L8 7L9 7L9 8L6 8L6 9L5 9L5 8L0 8L0 9L4 9L4 10L3 10L3 11L4 11L4 12L5 12L5 13L8 13L8 14L5 14L5 16L4 16L4 14L3 14L3 12L2 12L2 10L0 10L0 12L1 12L1 15L0 15L0 16L1 16L1 18L0 18L0 19L1 19L1 20L0 20L0 21L1 21L1 22L0 22L0 23L1 23L1 24L0 24L0 25L3 25L3 24L4 24L4 26L0 26L0 27L1 27L1 29L0 29L0 33L1 33L1 30L2 30L2 29L3 29L3 31L4 31L4 33L5 33L5 30L4 30L4 29L5 29L5 28L6 28L6 29L7 29L7 30L6 30L6 31L7 31L7 30L8 30L8 31L10 31L10 32L8 32L8 35L10 35L10 39L9 39L9 36L8 36L8 41L10 41L10 40L11 40L11 41L12 41L12 39L13 39L13 38L11 38L11 36L12 36L12 37L13 37L13 36L12 36L12 35L11 35L11 34L13 34L13 33L14 33L14 34L15 34L15 35L14 35L14 36L15 36L15 37L14 37L14 39L15 39L15 38L17 38L17 39L16 39L16 40L17 40L17 39L18 39L18 38L17 38L17 37L16 37L16 36L17 36L17 35L16 35L16 34L17 34L17 32L16 32L16 31L17 31L17 30L19 30L19 29L21 29L21 28L25 28L25 29L22 29L22 30L20 30L20 31L21 31L21 32L20 32L20 35L19 35L19 33L18 33L18 35L19 35L19 36L18 36L18 37L19 37L19 36L21 36L21 37L20 37L20 38L19 38L19 41L20 41L20 40L22 40L22 41L30 41L30 40L33 40L33 41L36 41L36 39L39 39L39 40L37 40L37 41L39 41L39 40L40 40L40 39L39 39L39 38L41 38L41 37L40 37L40 36L41 36L41 35L40 35L40 36L38 36L38 37L39 37L39 38L36 38L36 37L37 37L37 35L39 35L39 34L40 34L40 33L41 33L41 31L39 31L39 32L37 32L37 31L38 31L38 30L37 30L37 29L36 29L36 28L37 28L37 25L36 25L36 24L38 24L38 23L35 23L35 25L34 25L34 22L35 22L35 21L36 21L36 22L37 22L37 21L40 21L40 22L41 22L41 20L40 20L40 19L39 19L39 20L37 20L37 19L36 19L36 20L35 20L35 17L36 17L36 18L37 18L37 17L39 17L39 18L40 18L40 17L39 17L39 16L40 16L40 15L39 15L39 16L37 16L37 17L36 17L36 16L35 16L35 15L38 15L38 13L39 13L39 12L40 12L40 10L41 10L41 9L40 9L40 8L39 8L39 9L40 9L40 10L39 10L39 12L38 12L38 11L36 11L36 10L38 10L38 8L37 8L37 9L36 9L36 8L35 8L35 9L34 9L34 8L32 8L32 7L33 7L33 6L32 6L32 7L31 7L31 5L32 5L32 4L33 4L33 3L31 3L31 2L30 2L30 3L29 3L29 0L28 0L28 1L26 1L26 3L25 3L25 1L24 1L24 0L23 0L23 1L21 1L21 0L18 0L18 2L19 2L19 1L20 1L20 3L18 3L18 4L20 4L20 5L17 5L17 4L16 4L16 3L17 3L17 1L15 1L15 0L14 0L14 1L15 1L15 2L14 2L14 3L15 3L15 4L14 4L14 5L13 5L13 6L12 6L12 7L11 7L11 6L10 6L10 7L9 7L9 5L11 5L11 4L10 4L10 3L12 3L12 2L13 2L13 1L12 1L12 0ZM31 0L31 1L32 1L32 0ZM23 1L23 2L24 2L24 1ZM27 2L27 4L25 4L25 7L24 7L24 5L22 5L22 6L21 6L21 5L20 5L20 6L19 6L19 7L20 7L20 6L21 6L21 7L22 7L22 6L23 6L23 9L22 9L22 8L20 8L20 9L22 9L22 12L21 12L21 13L20 13L20 10L18 10L18 11L19 11L19 12L17 12L17 9L16 9L16 6L17 6L17 8L18 8L18 9L19 9L19 8L18 8L18 6L17 6L17 5L14 5L14 6L13 6L13 8L14 8L14 9L15 9L15 10L16 10L16 11L14 11L14 12L12 12L12 11L13 11L13 9L12 9L12 8L11 8L11 12L10 12L10 10L9 10L9 9L10 9L10 8L9 8L9 9L6 9L6 10L7 10L7 11L5 11L5 10L4 10L4 11L5 11L5 12L8 12L8 13L9 13L9 14L8 14L8 16L7 16L7 15L6 15L6 16L5 16L5 17L6 17L6 18L5 18L5 22L7 22L7 21L9 21L9 23L10 23L10 25L11 25L11 22L13 22L13 23L12 23L12 25L13 25L13 24L14 24L14 25L15 25L15 26L16 26L16 27L14 27L14 28L13 28L13 27L12 27L12 26L11 26L11 27L9 27L9 24L8 24L8 23L6 23L6 24L7 24L7 25L6 25L6 26L7 26L7 27L6 27L6 28L7 28L7 27L8 27L8 29L11 29L11 30L10 30L10 31L11 31L11 33L9 33L9 34L11 34L11 33L13 33L13 32L14 32L14 33L15 33L15 29L14 29L14 28L17 28L17 29L16 29L16 30L17 30L17 29L19 29L19 28L17 28L17 24L18 24L18 23L17 23L17 22L20 22L20 23L23 23L23 25L22 25L22 24L20 24L20 25L22 25L22 26L21 26L21 27L25 27L25 28L26 28L26 26L28 26L28 27L27 27L27 28L30 28L30 31L29 31L29 32L28 32L28 33L25 33L25 32L26 32L26 31L27 31L27 30L28 30L28 29L27 29L27 30L26 30L26 29L25 29L25 32L23 32L23 33L22 33L22 32L21 32L21 33L22 33L22 34L21 34L21 35L23 35L23 36L22 36L22 37L21 37L21 38L20 38L20 39L22 39L22 40L26 40L26 39L27 39L27 38L28 38L28 39L29 39L29 40L30 40L30 39L29 39L29 38L30 38L30 37L31 37L31 39L34 39L34 40L35 40L35 39L36 39L36 38L35 38L35 37L34 37L34 38L33 38L33 37L32 37L32 35L31 35L31 36L30 36L30 35L29 35L29 36L28 36L28 37L27 37L27 34L28 34L28 33L29 33L29 34L32 34L32 32L31 32L31 31L34 31L34 29L35 29L35 30L36 30L36 31L35 31L35 32L36 32L36 31L37 31L37 30L36 30L36 29L35 29L35 28L36 28L36 27L35 27L35 26L36 26L36 25L35 25L35 26L33 26L33 25L32 25L32 22L34 22L34 21L35 21L35 20L34 20L34 21L32 21L32 20L33 20L33 19L34 19L34 17L35 17L35 16L34 16L34 17L32 17L32 14L33 14L33 15L34 15L34 14L33 14L33 13L32 13L32 14L31 14L31 17L29 17L29 18L30 18L30 19L28 19L28 20L27 20L27 18L28 18L28 15L27 15L27 18L26 18L26 17L25 17L25 16L26 16L26 14L28 14L28 13L29 13L29 16L30 16L30 13L29 13L29 12L31 12L31 11L32 11L32 12L33 12L33 9L32 9L32 8L31 8L31 9L29 9L29 10L28 10L28 12L27 12L27 13L25 13L25 12L26 12L26 10L27 10L27 9L28 9L28 6L29 6L29 8L30 8L30 5L31 5L31 4L29 4L29 5L28 5L28 2ZM20 3L20 4L24 4L24 3ZM26 5L26 7L27 7L27 6L28 6L28 5ZM14 6L14 8L15 8L15 6ZM25 8L25 10L24 10L24 9L23 9L23 10L24 10L24 11L25 11L25 10L26 10L26 9L27 9L27 8ZM31 9L31 10L30 10L30 11L31 11L31 10L32 10L32 9ZM35 9L35 10L34 10L34 11L35 11L35 10L36 10L36 9ZM11 12L11 13L12 13L12 14L13 14L13 13L12 13L12 12ZM14 12L14 13L15 13L15 14L14 14L14 15L15 15L15 17L14 17L14 16L13 16L13 15L12 15L12 17L14 17L14 18L15 18L15 19L14 19L14 20L17 20L17 18L15 18L15 17L18 17L18 16L16 16L16 15L17 15L17 14L16 14L16 13L17 13L17 12ZM34 12L34 13L35 13L35 14L36 14L36 13L37 13L37 12L36 12L36 13L35 13L35 12ZM18 13L18 14L19 14L19 13ZM21 13L21 14L20 14L20 15L21 15L21 16L20 16L20 17L19 17L19 18L18 18L18 19L19 19L19 20L18 20L18 21L20 21L20 22L21 22L21 21L20 21L20 20L22 20L22 17L23 17L23 18L24 18L24 17L23 17L23 16L25 16L25 13ZM40 13L40 14L41 14L41 13ZM2 14L2 18L1 18L1 19L3 19L3 20L4 20L4 16L3 16L3 14ZM10 14L10 15L9 15L9 16L8 16L8 17L7 17L7 16L6 16L6 17L7 17L7 18L6 18L6 19L7 19L7 20L6 20L6 21L7 21L7 20L8 20L8 18L9 18L9 21L10 21L10 22L11 22L11 21L10 21L10 19L11 19L11 20L12 20L12 21L13 21L13 22L17 22L17 21L13 21L13 20L12 20L12 19L13 19L13 18L12 18L12 19L11 19L11 18L9 18L9 17L10 17L10 16L11 16L11 14ZM21 14L21 15L24 15L24 14ZM21 16L21 17L22 17L22 16ZM31 17L31 18L32 18L32 19L33 19L33 18L32 18L32 17ZM19 18L19 19L21 19L21 18ZM25 18L25 19L26 19L26 18ZM23 19L23 21L22 21L22 22L24 22L24 24L25 24L25 25L23 25L23 26L25 26L25 25L28 25L28 26L29 26L29 27L30 27L30 26L32 26L32 25L31 25L31 22L32 22L32 21L30 21L30 20L31 20L31 19L30 19L30 20L28 20L28 21L27 21L27 20L25 20L25 21L24 21L24 19ZM1 20L1 21L2 21L2 20ZM36 20L36 21L37 21L37 20ZM25 21L25 24L28 24L28 25L29 25L29 24L30 24L30 21L29 21L29 22L28 22L28 23L26 23L26 22L27 22L27 21ZM1 22L1 23L2 23L2 24L3 24L3 23L4 23L4 24L5 24L5 23L4 23L4 22ZM14 23L14 24L15 24L15 23ZM16 23L16 24L17 24L17 23ZM39 23L39 25L38 25L38 27L39 27L39 28L38 28L38 29L39 29L39 30L41 30L41 29L39 29L39 28L40 28L40 26L41 26L41 24L40 24L40 23ZM7 25L7 26L8 26L8 25ZM18 25L18 27L20 27L20 26L19 26L19 25ZM39 25L39 26L40 26L40 25ZM4 26L4 28L3 28L3 29L4 29L4 28L5 28L5 26ZM11 27L11 28L12 28L12 27ZM31 27L31 30L32 30L32 29L34 29L34 28L35 28L35 27ZM12 29L12 30L13 30L13 29ZM22 30L22 31L24 31L24 30ZM12 31L12 32L13 32L13 31ZM2 32L2 33L3 33L3 32ZM6 32L6 33L7 33L7 32ZM29 32L29 33L30 33L30 32ZM39 32L39 33L40 33L40 32ZM23 33L23 34L24 34L24 35L26 35L26 34L24 34L24 33ZM33 33L33 36L36 36L36 33ZM34 34L34 35L35 35L35 34ZM23 36L23 38L22 38L22 39L23 39L23 38L27 38L27 37L26 37L26 36L25 36L25 37L24 37L24 36ZM29 36L29 37L28 37L28 38L29 38L29 37L30 37L30 36ZM34 38L34 39L35 39L35 38ZM13 40L13 41L14 41L14 40ZM0 0L0 7L7 7L7 0ZM1 1L1 6L6 6L6 1ZM2 2L2 5L5 5L5 2ZM34 0L34 7L41 7L41 0ZM35 1L35 6L40 6L40 1ZM36 2L36 5L39 5L39 2ZM0 34L0 41L7 41L7 34ZM1 35L1 40L6 40L6 35ZM2 36L2 39L5 39L5 36Z" fill="#000000"/></g></g></svg>
