<?xml version="1.0" encoding="UTF-8"?>
<svg xmlns="http://www.w3.org/2000/svg" version="1.1" width="300" height="300" viewBox="0 0 300 300"><rect x="0" y="0" width="300" height="300" fill="#ffffff"/><g transform="scale(7.317)"><g transform="translate(0,0)"><path fill-rule="evenodd" d="M9 0L9 1L8 1L8 2L9 2L9 3L8 3L8 4L10 4L10 5L8 5L8 7L9 7L9 6L10 6L10 8L6 8L6 9L7 9L7 10L6 10L6 11L4 11L4 10L3 10L3 11L4 11L4 12L1 12L1 10L0 10L0 16L1 16L1 17L0 17L0 20L1 20L1 21L2 21L2 22L1 22L1 23L0 23L0 24L2 24L2 25L3 25L3 26L4 26L4 27L5 27L5 29L7 29L7 28L8 28L8 29L10 29L10 28L8 28L8 26L9 26L9 27L11 27L11 26L12 26L12 28L11 28L11 29L12 29L12 30L14 30L14 29L15 29L15 31L14 31L14 32L13 32L13 31L12 31L12 32L13 32L13 33L10 33L10 32L11 32L11 31L10 31L10 32L9 32L9 31L8 31L8 30L5 30L5 31L2 31L2 32L6 32L6 33L8 33L8 35L9 35L9 36L8 36L8 41L12 41L12 39L13 39L13 38L17 38L17 39L16 39L16 40L17 40L17 39L18 39L18 38L17 38L17 37L16 37L16 36L17 36L17 35L16 35L16 34L17 34L17 32L16 32L16 31L17 31L17 30L19 30L19 29L20 29L20 28L22 28L22 25L23 25L23 26L26 26L26 28L25 28L25 27L23 27L23 28L25 28L25 29L22 29L22 30L21 30L21 32L20 32L20 31L19 31L19 32L20 32L20 35L19 35L19 33L18 33L18 35L19 35L19 36L18 36L18 37L19 37L19 38L20 38L20 39L19 39L19 40L20 40L20 39L21 39L21 40L22 40L22 41L23 41L23 40L22 40L22 39L23 39L23 38L24 38L24 36L23 36L23 37L22 37L22 39L21 39L21 38L20 38L20 37L21 37L21 36L22 36L22 33L23 33L23 34L24 34L24 35L26 35L26 34L24 34L24 33L23 33L23 32L25 32L25 33L28 33L28 34L27 34L27 36L25 36L25 38L26 38L26 37L28 37L28 38L27 38L27 39L26 39L26 40L24 40L24 41L27 41L27 39L28 39L28 41L30 41L30 40L33 40L33 41L36 41L36 39L37 39L37 38L36 38L36 37L37 37L37 35L39 35L39 36L38 36L38 37L39 37L39 36L41 36L41 35L40 35L40 34L41 34L41 33L40 33L40 31L39 31L39 30L41 30L41 29L39 29L39 28L41 28L41 27L39 27L39 26L40 26L40 25L41 25L41 24L40 24L40 23L39 23L39 22L38 22L38 21L40 21L40 22L41 22L41 21L40 21L40 20L41 20L41 19L40 19L40 20L37 20L37 19L36 19L36 21L34 21L34 18L35 18L35 17L36 17L36 18L37 18L37 17L39 17L39 18L40 18L40 17L39 17L39 16L40 16L40 15L39 15L39 16L37 16L37 15L36 15L36 16L35 16L35 13L36 13L36 14L38 14L38 13L39 13L39 12L38 12L38 11L36 11L36 10L38 10L38 8L37 8L37 9L36 9L36 8L35 8L35 9L34 9L34 8L33 8L33 5L32 5L32 4L33 4L33 3L29 3L29 2L31 2L31 1L32 1L32 0L31 0L31 1L29 1L29 0L28 0L28 1L26 1L26 0L25 0L25 1L24 1L24 0L23 0L23 1L24 1L24 2L23 2L23 3L25 3L25 4L20 4L20 3L22 3L22 2L21 2L21 1L22 1L22 0L18 0L18 2L19 2L19 1L20 1L20 3L18 3L18 4L20 4L20 5L17 5L17 4L16 4L16 3L17 3L17 2L16 2L16 1L15 1L15 0L14 0L14 1L15 1L15 2L14 2L14 3L15 3L15 4L13 4L13 5L12 5L12 4L10 4L10 2L9 2L9 1L10 1L10 0ZM12 1L12 2L11 2L11 3L12 3L12 2L13 2L13 1ZM25 2L25 3L26 3L26 2ZM27 2L27 4L25 4L25 8L24 8L24 5L22 5L22 6L21 6L21 5L20 5L20 6L19 6L19 7L20 7L20 6L21 6L21 7L22 7L22 6L23 6L23 9L22 9L22 8L20 8L20 9L22 9L22 10L23 10L23 11L22 11L22 12L21 12L21 13L20 13L20 10L18 10L18 11L19 11L19 12L17 12L17 11L16 11L16 12L17 12L17 13L16 13L16 14L17 14L17 15L16 15L16 16L18 16L18 17L15 17L15 16L14 16L14 15L13 15L13 14L15 14L15 13L14 13L14 12L15 12L15 11L14 11L14 12L13 12L13 8L14 8L14 9L15 9L15 10L17 10L17 9L16 9L16 6L17 6L17 8L18 8L18 9L19 9L19 8L18 8L18 6L17 6L17 5L13 5L13 7L12 7L12 6L11 6L11 7L12 7L12 9L11 9L11 10L12 10L12 11L10 11L10 10L9 10L9 11L8 11L8 10L7 10L7 11L6 11L6 12L7 12L7 11L8 11L8 13L9 13L9 15L8 15L8 17L6 17L6 16L7 16L7 15L5 15L5 17L4 17L4 19L3 19L3 18L2 18L2 17L1 17L1 20L2 20L2 21L3 21L3 22L2 22L2 24L3 24L3 25L4 25L4 21L3 21L3 20L4 20L4 19L6 19L6 20L8 20L8 22L7 22L7 21L5 21L5 23L6 23L6 24L7 24L7 25L5 25L5 27L6 27L6 28L7 28L7 27L6 27L6 26L8 26L8 25L9 25L9 26L11 26L11 24L10 24L10 23L9 23L9 22L10 22L10 20L12 20L12 19L13 19L13 21L11 21L11 22L14 22L14 21L17 21L17 22L15 22L15 24L14 24L14 23L12 23L12 25L13 25L13 24L14 24L14 25L15 25L15 26L16 26L16 27L14 27L14 28L12 28L12 29L14 29L14 28L17 28L17 29L16 29L16 30L17 30L17 29L19 29L19 28L17 28L17 24L18 24L18 23L17 23L17 22L20 22L20 23L23 23L23 24L24 24L24 25L25 25L25 24L27 24L27 23L26 23L26 22L28 22L28 23L29 23L29 24L28 24L28 25L26 25L26 26L28 26L28 27L27 27L27 28L28 28L28 29L25 29L25 32L26 32L26 31L27 31L27 32L28 32L28 33L29 33L29 34L30 34L30 35L29 35L29 36L30 36L30 37L29 37L29 38L30 38L30 37L31 37L31 39L33 39L33 40L34 40L34 38L35 38L35 39L36 39L36 38L35 38L35 37L34 37L34 38L33 38L33 37L32 37L32 35L31 35L31 34L32 34L32 32L33 32L33 31L34 31L34 30L33 30L33 29L32 29L32 30L30 30L30 31L29 31L29 30L28 30L28 29L29 29L29 28L31 28L31 27L33 27L33 28L34 28L34 29L36 29L36 27L35 27L35 26L36 26L36 25L37 25L37 30L35 30L35 32L36 32L36 31L38 31L38 32L37 32L37 33L39 33L39 34L40 34L40 33L39 33L39 31L38 31L38 30L39 30L39 29L38 29L38 28L39 28L39 27L38 27L38 25L37 25L37 24L39 24L39 23L37 23L37 24L36 24L36 23L35 23L35 22L34 22L34 21L32 21L32 20L33 20L33 19L32 19L32 18L34 18L34 17L35 17L35 16L34 16L34 17L32 17L32 16L31 16L31 17L29 17L29 19L28 19L28 20L27 20L27 21L25 21L25 20L26 20L26 17L25 17L25 16L26 16L26 13L25 13L25 12L27 12L27 14L28 14L28 12L31 12L31 11L32 11L32 12L34 12L34 13L32 13L32 14L31 14L31 13L29 13L29 16L30 16L30 14L31 14L31 15L34 15L34 13L35 13L35 11L33 11L33 9L32 9L32 8L31 8L31 9L29 9L29 10L28 10L28 12L27 12L27 11L24 11L24 10L25 10L25 8L30 8L30 5L31 5L31 7L32 7L32 5L31 5L31 4L29 4L29 5L28 5L28 6L27 6L27 7L26 7L26 5L27 5L27 4L28 4L28 2ZM14 6L14 8L15 8L15 6ZM28 6L28 7L29 7L29 6ZM0 8L0 9L5 9L5 8ZM39 8L39 10L40 10L40 8ZM23 9L23 10L24 10L24 9ZM26 9L26 10L27 10L27 9ZM31 9L31 10L29 10L29 11L31 11L31 10L32 10L32 9ZM35 9L35 10L36 10L36 9ZM9 11L9 13L10 13L10 14L11 14L11 13L12 13L12 14L13 14L13 13L12 13L12 12L11 12L11 13L10 13L10 11ZM4 12L4 13L1 13L1 14L3 14L3 15L4 15L4 14L5 14L5 12ZM36 12L36 13L37 13L37 12ZM6 13L6 14L7 14L7 13ZM18 13L18 14L19 14L19 13ZM21 13L21 14L20 14L20 15L21 15L21 16L20 16L20 17L19 17L19 18L18 18L18 19L19 19L19 20L18 20L18 21L20 21L20 22L21 22L21 21L20 21L20 20L23 20L23 21L22 21L22 22L25 22L25 21L24 21L24 19L23 19L23 18L24 18L24 17L23 17L23 16L25 16L25 13L23 13L23 14L24 14L24 15L21 15L21 14L22 14L22 13ZM40 13L40 14L41 14L41 13ZM10 15L10 16L11 16L11 15ZM12 15L12 16L13 16L13 17L10 17L10 18L13 18L13 17L14 17L14 18L15 18L15 19L14 19L14 20L17 20L17 18L15 18L15 17L14 17L14 16L13 16L13 15ZM21 16L21 18L19 18L19 19L21 19L21 18L23 18L23 17L22 17L22 16ZM36 16L36 17L37 17L37 16ZM8 17L8 18L6 18L6 19L8 19L8 20L9 20L9 17ZM27 17L27 18L28 18L28 17ZM31 17L31 18L30 18L30 19L31 19L31 18L32 18L32 17ZM29 20L29 21L28 21L28 22L29 22L29 21L31 21L31 22L30 22L30 24L29 24L29 25L28 25L28 26L29 26L29 25L30 25L30 26L32 26L32 25L33 25L33 26L35 26L35 25L36 25L36 24L35 24L35 25L34 25L34 22L33 22L33 24L31 24L31 22L32 22L32 21L31 21L31 20ZM6 22L6 23L7 23L7 24L8 24L8 23L7 23L7 22ZM16 23L16 24L17 24L17 23ZM9 24L9 25L10 25L10 24ZM20 24L20 25L22 25L22 24ZM18 25L18 27L20 27L20 26L19 26L19 25ZM0 26L0 27L2 27L2 26ZM0 28L0 33L1 33L1 30L3 30L3 28L2 28L2 29L1 29L1 28ZM22 30L22 31L24 31L24 30ZM27 30L27 31L28 31L28 30ZM6 31L6 32L7 32L7 31ZM14 32L14 33L13 33L13 35L12 35L12 34L11 34L11 35L10 35L10 38L9 38L9 39L10 39L10 40L11 40L11 39L10 39L10 38L13 38L13 37L15 37L15 36L14 36L14 35L15 35L15 34L14 34L14 33L15 33L15 32ZM21 32L21 33L22 33L22 32ZM29 32L29 33L30 33L30 32ZM33 33L33 36L36 36L36 33ZM34 34L34 35L35 35L35 34ZM11 35L11 36L12 36L12 37L13 37L13 36L12 36L12 35ZM30 35L30 36L31 36L31 35ZM19 36L19 37L20 37L20 36ZM40 37L40 38L41 38L41 37ZM38 38L38 39L39 39L39 40L37 40L37 41L39 41L39 40L40 40L40 39L39 39L39 38ZM29 39L29 40L30 40L30 39ZM13 40L13 41L14 41L14 40ZM0 0L0 7L7 7L7 0ZM1 1L1 6L6 6L6 1ZM2 2L2 5L5 5L5 2ZM34 0L34 7L41 7L41 0ZM35 1L35 6L40 6L40 1ZM36 2L36 5L39 5L39 2ZM0 34L0 41L7 41L7 34ZM1 35L1 40L6 40L6 35ZM2 36L2 39L5 39L5 36Z" fill="#000000"/></g></g></svg>
