<?xml version="1.0" encoding="UTF-8"?>
<svg xmlns="http://www.w3.org/2000/svg" version="1.1" width="300" height="300" viewBox="0 0 300 300"><rect x="0" y="0" width="300" height="300" fill="#ffffff"/><g transform="scale(12)"><g transform="translate(0,0)"><path fill-rule="evenodd" d="M8 0L8 1L10 1L10 0ZM8 2L8 5L9 5L9 6L8 6L8 7L9 7L9 8L8 8L8 10L10 10L10 9L9 9L9 8L10 8L10 7L11 7L11 8L12 8L12 7L13 7L13 5L14 5L14 9L13 9L13 10L15 10L15 11L14 11L14 12L16 12L16 10L17 10L17 11L19 11L19 12L20 12L20 11L19 11L19 10L22 10L22 9L23 9L23 10L24 10L24 11L22 11L22 12L21 12L21 13L20 13L20 14L18 14L18 13L17 13L17 14L16 14L16 17L14 17L14 16L13 16L13 15L15 15L15 14L13 14L13 15L12 15L12 16L11 16L11 14L12 14L12 13L13 13L13 11L11 11L11 13L10 13L10 12L9 12L9 11L8 11L8 12L3 12L3 15L4 15L4 16L2 16L2 17L7 17L7 16L8 16L8 15L9 15L9 16L11 16L11 17L10 17L10 18L9 18L9 17L8 17L8 18L9 18L9 19L10 19L10 20L9 20L9 21L8 21L8 25L9 25L9 22L10 22L10 23L12 23L12 22L13 22L13 24L12 24L12 25L13 25L13 24L14 24L14 22L13 22L13 21L14 21L14 20L15 20L15 22L16 22L16 21L18 21L18 22L17 22L17 23L15 23L15 25L16 25L16 24L17 24L17 23L19 23L19 24L20 24L20 25L21 25L21 24L20 24L20 23L21 23L21 22L23 22L23 23L24 23L24 25L25 25L25 23L24 23L24 22L25 22L25 21L23 21L23 20L25 20L25 19L23 19L23 17L21 17L21 15L22 15L22 14L23 14L23 16L24 16L24 18L25 18L25 14L23 14L23 13L22 13L22 12L24 12L24 11L25 11L25 8L24 8L24 9L23 9L23 8L20 8L20 9L19 9L19 10L17 10L17 9L18 9L18 8L17 8L17 6L16 6L16 7L15 7L15 5L14 5L14 2L11 2L11 4L10 4L10 3L9 3L9 2ZM15 2L15 3L16 3L16 5L17 5L17 2ZM12 3L12 5L10 5L10 6L9 6L9 7L10 7L10 6L11 6L11 7L12 7L12 5L13 5L13 3ZM0 8L0 9L1 9L1 10L0 10L0 12L2 12L2 9L3 9L3 11L5 11L5 10L4 10L4 8ZM6 8L6 9L7 9L7 8ZM15 8L15 9L16 9L16 8ZM6 10L6 11L7 11L7 10ZM8 12L8 13L4 13L4 14L7 14L7 15L5 15L5 16L7 16L7 15L8 15L8 13L9 13L9 12ZM21 13L21 14L20 14L20 15L18 15L18 14L17 14L17 16L20 16L20 15L21 15L21 14L22 14L22 13ZM1 14L1 15L0 15L0 16L1 16L1 15L2 15L2 14ZM12 16L12 17L11 17L11 21L10 21L10 22L12 22L12 21L13 21L13 19L15 19L15 20L16 20L16 18L13 18L13 19L12 19L12 17L13 17L13 16ZM17 17L17 20L20 20L20 17ZM18 18L18 19L19 19L19 18ZM21 18L21 19L22 19L22 20L21 20L21 21L22 21L22 20L23 20L23 19L22 19L22 18ZM19 21L19 23L20 23L20 21ZM22 24L22 25L23 25L23 24ZM0 0L0 7L7 7L7 0ZM1 1L1 6L6 6L6 1ZM2 2L2 5L5 5L5 2ZM18 0L18 7L25 7L25 0ZM19 1L19 6L24 6L24 1ZM20 2L20 5L23 5L23 2ZM0 18L0 25L7 25L7 18ZM1 19L1 24L6 24L6 19ZM2 20L2 23L5 23L5 20Z" fill="#000000"/></g></g></svg>
