<?xml version="1.0" encoding="UTF-8"?>
<svg xmlns="http://www.w3.org/2000/svg" version="1.1" width="300" height="300" viewBox="0 0 300 300"><rect x="0" y="0" width="300" height="300" fill="#ffffff"/><g transform="scale(12)"><g transform="translate(0,0)"><path fill-rule="evenodd" d="M9 0L9 1L10 1L10 2L8 2L8 3L9 3L9 4L10 4L10 5L9 5L9 6L8 6L8 8L4 8L4 9L5 9L5 10L6 10L6 11L7 11L7 10L6 10L6 9L8 9L8 10L9 10L9 11L8 11L8 12L6 12L6 13L8 13L8 14L6 14L6 15L8 15L8 16L9 16L9 17L8 17L8 21L9 21L9 22L8 22L8 25L9 25L9 24L10 24L10 21L9 21L9 18L12 18L12 19L10 19L10 20L11 20L11 21L12 21L12 22L14 22L14 23L13 23L13 24L12 24L12 23L11 23L11 24L12 24L12 25L16 25L16 24L18 24L18 25L21 25L21 24L20 24L20 23L23 23L23 24L22 24L22 25L23 25L23 24L24 24L24 25L25 25L25 22L24 22L24 23L23 23L23 22L22 22L22 21L21 21L21 18L22 18L22 17L23 17L23 18L24 18L24 19L22 19L22 20L24 20L24 21L25 21L25 17L24 17L24 16L23 16L23 15L24 15L24 14L23 14L23 13L22 13L22 11L24 11L24 10L22 10L22 9L23 9L23 8L22 8L22 9L19 9L19 8L17 8L17 2L16 2L16 1L17 1L17 0L15 0L15 1L13 1L13 0L12 0L12 1L10 1L10 0ZM11 2L11 3L12 3L12 4L11 4L11 5L10 5L10 6L9 6L9 7L10 7L10 6L11 6L11 8L12 8L12 10L10 10L10 8L9 8L9 10L10 10L10 11L9 11L9 13L10 13L10 14L9 14L9 16L12 16L12 15L10 15L10 14L11 14L11 13L12 13L12 12L13 12L13 9L14 9L14 13L15 13L15 9L16 9L16 8L12 8L12 6L13 6L13 7L14 7L14 6L13 6L13 5L14 5L14 4L15 4L15 3L16 3L16 2L13 2L13 3L12 3L12 2ZM13 3L13 4L14 4L14 3ZM15 5L15 7L16 7L16 5ZM0 8L0 9L1 9L1 10L2 10L2 11L1 11L1 12L0 12L0 13L1 13L1 14L0 14L0 15L1 15L1 16L0 16L0 17L1 17L1 16L2 16L2 15L1 15L1 14L3 14L3 16L4 16L4 17L5 17L5 16L4 16L4 13L5 13L5 12L4 12L4 10L3 10L3 8ZM18 9L18 10L16 10L16 14L15 14L15 15L14 15L14 14L13 14L13 15L14 15L14 16L13 16L13 17L12 17L12 18L13 18L13 19L12 19L12 21L14 21L14 22L15 22L15 23L14 23L14 24L16 24L16 22L17 22L17 21L16 21L16 20L15 20L15 21L14 21L14 20L13 20L13 19L16 19L16 17L15 17L15 15L16 15L16 14L17 14L17 13L18 13L18 15L17 15L17 16L20 16L20 14L19 14L19 13L20 13L20 12L21 12L21 11L22 11L22 10L21 10L21 11L20 11L20 12L19 12L19 11L18 11L18 10L19 10L19 9ZM2 11L2 13L4 13L4 12L3 12L3 11ZM11 11L11 12L12 12L12 11ZM17 11L17 12L18 12L18 11ZM6 16L6 17L7 17L7 16ZM21 16L21 17L22 17L22 16ZM14 17L14 18L15 18L15 17ZM17 17L17 20L20 20L20 17ZM18 18L18 19L19 19L19 18ZM18 21L18 22L19 22L19 23L18 23L18 24L19 24L19 23L20 23L20 22L21 22L21 21ZM0 0L0 7L7 7L7 0ZM1 1L1 6L6 6L6 1ZM2 2L2 5L5 5L5 2ZM18 0L18 7L25 7L25 0ZM19 1L19 6L24 6L24 1ZM20 2L20 5L23 5L23 2ZM0 18L0 25L7 25L7 18ZM1 19L1 24L6 24L6 19ZM2 20L2 23L5 23L5 20Z" fill="#000000"/></g></g></svg>
