<?xml version="1.0" encoding="UTF-8"?>
<svg xmlns="http://www.w3.org/2000/svg" version="1.1" width="300" height="300" viewBox="0 0 300 300"><rect x="0" y="0" width="300" height="300" fill="#ffffff"/><g transform="scale(7.317)"><g transform="translate(0,0)"><path fill-rule="evenodd" d="M8 0L8 1L9 1L9 2L8 2L8 5L9 5L9 6L8 6L8 7L9 7L9 8L8 8L8 9L9 9L9 13L8 13L8 14L9 14L9 13L11 13L11 14L10 14L10 16L9 16L9 15L7 15L7 14L6 14L6 13L7 13L7 12L6 12L6 11L8 11L8 10L6 10L6 11L5 11L5 12L4 12L4 10L5 10L5 9L4 9L4 8L0 8L0 10L1 10L1 11L3 11L3 12L1 12L1 14L3 14L3 18L0 18L0 19L3 19L3 20L4 20L4 21L5 21L5 24L3 24L3 23L4 23L4 22L3 22L3 23L2 23L2 21L1 21L1 23L0 23L0 24L1 24L1 23L2 23L2 24L3 24L3 25L0 25L0 28L1 28L1 30L0 30L0 31L1 31L1 30L3 30L3 29L2 29L2 28L1 28L1 27L3 27L3 28L4 28L4 27L5 27L5 26L6 26L6 27L8 27L8 29L9 29L9 28L10 28L10 27L11 27L11 25L12 25L12 24L13 24L13 26L12 26L12 28L11 28L11 29L10 29L10 30L6 30L6 31L5 31L5 29L7 29L7 28L5 28L5 29L4 29L4 32L1 32L1 33L5 33L5 32L6 32L6 33L8 33L8 34L9 34L9 35L10 35L10 36L9 36L9 37L8 37L8 41L9 41L9 38L10 38L10 39L11 39L11 40L10 40L10 41L11 41L11 40L12 40L12 41L16 41L16 40L17 40L17 41L19 41L19 40L17 40L17 39L20 39L20 41L24 41L24 40L22 40L22 38L23 38L23 37L24 37L24 39L26 39L26 40L25 40L25 41L26 41L26 40L27 40L27 41L29 41L29 39L30 39L30 41L31 41L31 40L32 40L32 41L33 41L33 39L34 39L34 41L35 41L35 40L36 40L36 41L38 41L38 40L36 40L36 39L34 39L34 38L33 38L33 37L36 37L36 38L37 38L37 39L38 39L38 38L39 38L39 41L40 41L40 39L41 39L41 37L39 37L39 36L38 36L38 34L39 34L39 31L38 31L38 33L37 33L37 30L36 30L36 28L37 28L37 27L39 27L39 29L40 29L40 28L41 28L41 26L37 26L37 27L36 27L36 23L34 23L34 24L32 24L32 25L31 25L31 24L29 24L29 25L28 25L28 24L26 24L26 23L25 23L25 19L24 19L24 20L23 20L23 18L26 18L26 19L29 19L29 20L26 20L26 21L28 21L28 22L29 22L29 23L30 23L30 22L29 22L29 21L30 21L30 18L31 18L31 17L30 17L30 18L28 18L28 17L29 17L29 15L27 15L27 14L31 14L31 15L30 15L30 16L35 16L35 15L36 15L36 17L37 17L37 18L38 18L38 17L39 17L39 19L38 19L38 21L40 21L40 22L39 22L39 23L40 23L40 24L38 24L38 23L37 23L37 25L41 25L41 23L40 23L40 22L41 22L41 20L39 20L39 19L40 19L40 15L41 15L41 11L39 11L39 10L38 10L38 9L39 9L39 8L36 8L36 11L35 11L35 12L36 12L36 13L37 13L37 15L36 15L36 14L35 14L35 15L34 15L34 14L33 14L33 12L31 12L31 10L32 10L32 11L34 11L34 10L35 10L35 9L34 9L34 8L31 8L31 10L30 10L30 12L29 12L29 11L28 11L28 13L27 13L27 12L26 12L26 9L27 9L27 10L29 10L29 9L30 9L30 7L31 7L31 6L32 6L32 7L33 7L33 3L32 3L32 2L33 2L33 1L32 1L32 0L31 0L31 1L32 1L32 2L30 2L30 1L29 1L29 0L28 0L28 2L26 2L26 0L25 0L25 4L26 4L26 5L25 5L25 6L24 6L24 7L23 7L23 4L22 4L22 8L21 8L21 9L19 9L19 8L20 8L20 7L21 7L21 6L20 6L20 7L19 7L19 6L18 6L18 5L19 5L19 4L20 4L20 3L21 3L21 2L22 2L22 3L24 3L24 0L23 0L23 2L22 2L22 0L18 0L18 1L17 1L17 2L16 2L16 3L15 3L15 0L14 0L14 2L12 2L12 1L13 1L13 0L10 0L10 1L9 1L9 0ZM10 1L10 2L9 2L9 3L10 3L10 4L9 4L9 5L10 5L10 6L9 6L9 7L10 7L10 8L9 8L9 9L10 9L10 8L12 8L12 10L10 10L10 11L11 11L11 12L12 12L12 14L11 14L11 16L10 16L10 17L8 17L8 16L7 16L7 15L6 15L6 16L5 16L5 17L6 17L6 18L7 18L7 17L8 17L8 18L10 18L10 21L9 21L9 19L5 19L5 18L4 18L4 19L5 19L5 20L8 20L8 24L9 24L9 26L8 26L8 25L6 25L6 24L7 24L7 23L6 23L6 24L5 24L5 25L6 25L6 26L8 26L8 27L9 27L9 26L10 26L10 25L11 25L11 24L10 24L10 23L9 23L9 22L10 22L10 21L11 21L11 23L14 23L14 26L13 26L13 27L14 27L14 28L13 28L13 29L11 29L11 31L10 31L10 32L11 32L11 33L12 33L12 32L13 32L13 35L11 35L11 36L10 36L10 38L11 38L11 37L12 37L12 36L13 36L13 38L12 38L12 40L16 40L16 39L15 39L15 38L16 38L16 37L18 37L18 35L19 35L19 37L20 37L20 35L21 35L21 37L23 37L23 36L24 36L24 37L25 37L25 36L24 36L24 35L25 35L25 34L27 34L27 35L26 35L26 36L30 36L30 39L31 39L31 38L32 38L32 39L33 39L33 38L32 38L32 36L31 36L31 35L30 35L30 34L32 34L32 33L29 33L29 35L28 35L28 32L29 32L29 29L30 29L30 31L31 31L31 32L32 32L32 30L33 30L33 32L34 32L34 30L35 30L35 31L36 31L36 30L35 30L35 28L36 28L36 27L35 27L35 28L32 28L32 29L31 29L31 28L30 28L30 27L31 27L31 25L29 25L29 27L28 27L28 26L27 26L27 28L26 28L26 27L25 27L25 28L26 28L26 30L25 30L25 29L24 29L24 30L23 30L23 27L24 27L24 26L25 26L25 24L24 24L24 23L23 23L23 22L22 22L22 21L21 21L21 20L22 20L22 19L21 19L21 18L20 18L20 17L21 17L21 15L18 15L18 14L20 14L20 12L19 12L19 11L21 11L21 14L23 14L23 15L25 15L25 16L26 16L26 17L28 17L28 16L26 16L26 15L25 15L25 14L27 14L27 13L25 13L25 12L24 12L24 11L25 11L25 9L26 9L26 6L25 6L25 7L24 7L24 8L22 8L22 10L19 10L19 11L18 11L18 10L17 10L17 8L16 8L16 9L15 9L15 8L14 8L14 5L16 5L16 4L18 4L18 2L21 2L21 1L18 1L18 2L17 2L17 3L16 3L16 4L15 4L15 3L13 3L13 4L12 4L12 6L11 6L11 5L10 5L10 4L11 4L11 3L12 3L12 2L11 2L11 1ZM28 2L28 3L27 3L27 7L28 7L28 8L27 8L27 9L29 9L29 7L30 7L30 6L31 6L31 5L29 5L29 7L28 7L28 3L30 3L30 2ZM10 6L10 7L11 7L11 6ZM12 6L12 8L13 8L13 6ZM15 6L15 7L16 7L16 6ZM17 6L17 7L18 7L18 8L19 8L19 7L18 7L18 6ZM6 8L6 9L7 9L7 8ZM24 8L24 9L23 9L23 10L22 10L22 12L23 12L23 11L24 11L24 9L25 9L25 8ZM40 8L40 10L41 10L41 8ZM1 9L1 10L4 10L4 9ZM13 9L13 10L12 10L12 11L14 11L14 10L15 10L15 9ZM32 9L32 10L33 10L33 9ZM16 10L16 12L14 12L14 13L13 13L13 14L12 14L12 16L11 16L11 17L10 17L10 18L12 18L12 20L13 20L13 22L14 22L14 23L15 23L15 24L16 24L16 22L17 22L17 20L20 20L20 19L19 19L19 16L18 16L18 19L17 19L17 16L16 16L16 15L14 15L14 14L15 14L15 13L17 13L17 14L18 14L18 13L17 13L17 12L18 12L18 11L17 11L17 10ZM37 10L37 11L36 11L36 12L39 12L39 11L38 11L38 10ZM3 12L3 14L4 14L4 12ZM5 12L5 13L6 13L6 12ZM38 14L38 16L37 16L37 17L38 17L38 16L39 16L39 14ZM13 15L13 16L14 16L14 15ZM0 16L0 17L1 17L1 16ZM6 16L6 17L7 17L7 16ZM15 16L15 17L16 17L16 16ZM12 17L12 18L13 18L13 20L14 20L14 21L15 21L15 20L16 20L16 19L15 19L15 18L13 18L13 17ZM33 17L33 18L32 18L32 20L31 20L31 22L32 22L32 21L33 21L33 20L34 20L34 22L37 22L37 21L35 21L35 20L36 20L36 19L35 19L35 20L34 20L34 19L33 19L33 18L34 18L34 17ZM6 21L6 22L7 22L7 21ZM20 21L20 22L19 22L19 23L20 23L20 24L17 24L17 25L18 25L18 26L16 26L16 25L15 25L15 26L14 26L14 27L15 27L15 26L16 26L16 27L17 27L17 28L16 28L16 30L15 30L15 31L17 31L17 32L18 32L18 34L17 34L17 33L14 33L14 35L13 35L13 36L15 36L15 37L16 37L16 36L15 36L15 34L17 34L17 35L18 35L18 34L19 34L19 33L20 33L20 34L22 34L22 32L23 32L23 31L22 31L22 27L23 27L23 26L22 26L22 27L21 27L21 26L20 26L20 24L21 24L21 23L22 23L22 22L21 22L21 21ZM22 24L22 25L24 25L24 24ZM34 24L34 25L33 25L33 26L32 26L32 27L34 27L34 25L35 25L35 24ZM13 29L13 30L14 30L14 29ZM18 29L18 30L17 30L17 31L19 31L19 32L20 32L20 31L21 31L21 32L22 32L22 31L21 31L21 29L20 29L20 30L19 30L19 29ZM27 29L27 32L26 32L26 33L27 33L27 32L28 32L28 29ZM24 30L24 31L25 31L25 30ZM6 31L6 32L9 32L9 31ZM11 31L11 32L12 32L12 31ZM24 32L24 33L23 33L23 35L22 35L22 36L23 36L23 35L24 35L24 33L25 33L25 32ZM40 32L40 34L41 34L41 32ZM9 33L9 34L10 34L10 33ZM33 33L33 36L36 36L36 33ZM34 34L34 35L35 35L35 34ZM37 36L37 37L38 37L38 36ZM20 38L20 39L21 39L21 38ZM26 38L26 39L27 39L27 40L28 40L28 39L29 39L29 38ZM0 0L0 7L7 7L7 0ZM1 1L1 6L6 6L6 1ZM2 2L2 5L5 5L5 2ZM34 0L34 7L41 7L41 0ZM35 1L35 6L40 6L40 1ZM36 2L36 5L39 5L39 2ZM0 34L0 41L7 41L7 34ZM1 35L1 40L6 40L6 35ZM2 36L2 39L5 39L5 36Z" fill="#000000"/></g></g></svg>
