<?xml version="1.0" encoding="UTF-8"?>
<svg xmlns="http://www.w3.org/2000/svg" version="1.1" width="300" height="300" viewBox="0 0 300 300"><rect x="0" y="0" width="300" height="300" fill="#ffffff"/><g transform="scale(7.317)"><g transform="translate(0,0)"><path fill-rule="evenodd" d="M8 0L8 1L9 1L9 2L8 2L8 5L9 5L9 6L8 6L8 7L9 7L9 6L10 6L10 8L8 8L8 9L10 9L10 10L6 10L6 9L7 9L7 8L6 8L6 9L4 9L4 8L0 8L0 11L1 11L1 12L0 12L0 13L2 13L2 14L3 14L3 15L1 15L1 14L0 14L0 19L1 19L1 20L2 20L2 19L3 19L3 20L4 20L4 19L5 19L5 18L6 18L6 19L8 19L8 20L6 20L6 21L3 21L3 22L0 22L0 24L2 24L2 25L1 25L1 26L0 26L0 27L1 27L1 28L4 28L4 32L1 32L1 33L4 33L4 32L5 32L5 33L8 33L8 34L10 34L10 36L9 36L9 37L8 37L8 41L9 41L9 39L10 39L10 38L9 38L9 37L10 37L10 36L11 36L11 35L12 35L12 34L13 34L13 32L12 32L12 31L11 31L11 29L13 29L13 30L14 30L14 32L15 32L15 31L17 31L17 32L18 32L18 34L17 34L17 33L14 33L14 35L13 35L13 36L12 36L12 37L11 37L11 40L12 40L12 41L16 41L16 40L17 40L17 41L19 41L19 40L20 40L20 41L24 41L24 40L22 40L22 38L23 38L23 37L24 37L24 39L26 39L26 40L25 40L25 41L26 41L26 40L27 40L27 41L29 41L29 39L30 39L30 41L31 41L31 40L32 40L32 41L33 41L33 39L34 39L34 41L35 41L35 40L36 40L36 41L37 41L37 40L38 40L38 41L40 41L40 39L41 39L41 37L39 37L39 36L38 36L38 34L39 34L39 31L38 31L38 33L37 33L37 32L36 32L36 31L37 31L37 30L39 30L39 29L40 29L40 28L41 28L41 26L37 26L37 27L36 27L36 23L37 23L37 25L41 25L41 23L40 23L40 22L41 22L41 20L40 20L40 15L41 15L41 13L40 13L40 11L39 11L39 10L38 10L38 9L39 9L39 8L36 8L36 11L35 11L35 12L36 12L36 13L39 13L39 19L38 19L38 21L37 21L37 20L36 20L36 19L33 19L33 18L34 18L34 17L33 17L33 18L32 18L32 20L31 20L31 22L32 22L32 25L31 25L31 24L29 24L29 25L28 25L28 24L26 24L26 23L25 23L25 19L24 19L24 20L23 20L23 18L26 18L26 19L29 19L29 20L26 20L26 21L28 21L28 22L29 22L29 23L30 23L30 22L29 22L29 21L30 21L30 19L31 19L31 17L29 17L29 15L27 15L27 14L31 14L31 15L30 15L30 16L31 16L31 15L32 15L32 16L36 16L36 17L37 17L37 18L38 18L38 16L37 16L37 14L35 14L35 13L34 13L34 11L33 11L33 10L35 10L35 9L34 9L34 8L33 8L33 6L32 6L32 5L33 5L33 3L32 3L32 2L33 2L33 1L32 1L32 0L31 0L31 1L30 1L30 3L28 3L28 2L29 2L29 0L28 0L28 2L26 2L26 0L25 0L25 4L26 4L26 5L25 5L25 6L24 6L24 7L23 7L23 4L22 4L22 8L21 8L21 9L19 9L19 8L20 8L20 7L21 7L21 6L20 6L20 7L19 7L19 6L18 6L18 5L19 5L19 4L20 4L20 3L21 3L21 2L22 2L22 3L24 3L24 0L23 0L23 2L22 2L22 0L18 0L18 1L17 1L17 2L16 2L16 3L17 3L17 2L18 2L18 4L16 4L16 5L14 5L14 7L15 7L15 9L13 9L13 8L12 8L12 7L13 7L13 6L12 6L12 5L13 5L13 4L12 4L12 3L9 3L9 2L10 2L10 1L9 1L9 0ZM11 0L11 1L13 1L13 0ZM14 0L14 2L13 2L13 3L15 3L15 0ZM18 1L18 2L21 2L21 1ZM31 1L31 2L32 2L32 1ZM27 3L27 7L28 7L28 8L27 8L27 9L26 9L26 6L25 6L25 7L24 7L24 8L22 8L22 10L19 10L19 11L18 11L18 10L17 10L17 8L16 8L16 9L15 9L15 10L14 10L14 11L13 11L13 10L11 10L11 11L10 11L10 12L9 12L9 11L6 11L6 12L8 12L8 13L6 13L6 14L5 14L5 15L4 15L4 16L1 16L1 17L2 17L2 18L1 18L1 19L2 19L2 18L3 18L3 19L4 19L4 17L5 17L5 15L6 15L6 16L7 16L7 15L8 15L8 18L9 18L9 16L12 16L12 14L14 14L14 15L13 15L13 16L14 16L14 15L16 15L16 16L15 16L15 17L16 17L16 16L17 16L17 19L18 19L18 16L19 16L19 19L20 19L20 20L17 20L17 22L16 22L16 24L14 24L14 26L13 26L13 24L12 24L12 25L11 25L11 24L10 24L10 25L9 25L9 23L10 23L10 22L11 22L11 23L15 23L15 22L14 22L14 21L15 21L15 20L16 20L16 19L15 19L15 18L13 18L13 17L12 17L12 18L11 18L11 17L10 17L10 18L11 18L11 19L10 19L10 20L9 20L9 21L10 21L10 22L7 22L7 21L6 21L6 22L4 22L4 23L3 23L3 24L4 24L4 25L2 25L2 26L1 26L1 27L3 27L3 26L5 26L5 25L6 25L6 26L10 26L10 27L9 27L9 28L8 28L8 27L4 27L4 28L7 28L7 29L5 29L5 32L8 32L8 33L10 33L10 34L11 34L11 33L12 33L12 32L9 32L9 31L8 31L8 29L9 29L9 28L13 28L13 29L14 29L14 30L16 30L16 28L17 28L17 27L16 27L16 26L18 26L18 25L17 25L17 24L20 24L20 26L21 26L21 27L22 27L22 31L21 31L21 29L20 29L20 30L19 30L19 29L18 29L18 30L17 30L17 31L19 31L19 32L20 32L20 31L21 31L21 32L22 32L22 34L20 34L20 33L19 33L19 34L18 34L18 35L17 35L17 34L15 34L15 36L13 36L13 38L12 38L12 40L14 40L14 39L13 39L13 38L16 38L16 37L18 37L18 35L19 35L19 37L20 37L20 35L21 35L21 37L23 37L23 36L24 36L24 37L25 37L25 36L24 36L24 35L25 35L25 34L27 34L27 35L26 35L26 36L30 36L30 39L31 39L31 38L32 38L32 39L33 39L33 38L34 38L34 39L36 39L36 40L37 40L37 39L38 39L38 40L39 40L39 39L38 39L38 38L36 38L36 37L33 37L33 38L32 38L32 36L31 36L31 35L30 35L30 34L32 34L32 31L33 31L33 32L34 32L34 30L35 30L35 28L36 28L36 30L37 30L37 29L39 29L39 27L37 27L37 28L36 28L36 27L33 27L33 26L34 26L34 25L35 25L35 24L34 24L34 23L35 23L35 22L36 22L36 21L35 21L35 22L34 22L34 20L33 20L33 21L32 21L32 22L33 22L33 24L34 24L34 25L33 25L33 26L32 26L32 27L33 27L33 28L32 28L32 29L31 29L31 28L30 28L30 27L28 27L28 26L27 26L27 28L26 28L26 27L25 27L25 28L26 28L26 30L25 30L25 29L24 29L24 30L23 30L23 27L24 27L24 26L25 26L25 24L24 24L24 23L23 23L23 22L22 22L22 21L21 21L21 20L22 20L22 19L21 19L21 18L20 18L20 17L21 17L21 15L18 15L18 14L20 14L20 12L19 12L19 11L21 11L21 14L23 14L23 15L25 15L25 16L26 16L26 17L28 17L28 18L29 18L29 19L30 19L30 18L29 18L29 17L28 17L28 16L26 16L26 15L25 15L25 14L27 14L27 13L28 13L28 11L29 11L29 12L33 12L33 11L32 11L32 10L33 10L33 9L32 9L32 10L31 10L31 8L32 8L32 6L31 6L31 5L29 5L29 7L28 7L28 3ZM9 4L9 5L10 5L10 6L11 6L11 7L12 7L12 6L11 6L11 5L12 5L12 4ZM15 6L15 7L16 7L16 6ZM17 6L17 7L18 7L18 8L19 8L19 7L18 7L18 6ZM30 6L30 7L29 7L29 9L27 9L27 10L29 10L29 9L30 9L30 7L31 7L31 6ZM10 8L10 9L11 9L11 8ZM24 8L24 9L23 9L23 10L22 10L22 12L23 12L23 11L24 11L24 12L25 12L25 13L27 13L27 12L26 12L26 9L25 9L25 8ZM40 8L40 10L41 10L41 8ZM1 9L1 11L2 11L2 9ZM3 9L3 11L4 11L4 12L5 12L5 10L4 10L4 9ZM24 9L24 11L25 11L25 9ZM16 10L16 12L14 12L14 14L15 14L15 13L17 13L17 14L18 14L18 13L17 13L17 12L18 12L18 11L17 11L17 10ZM30 10L30 11L31 11L31 10ZM37 10L37 11L36 11L36 12L39 12L39 11L38 11L38 10ZM12 11L12 12L11 12L11 14L12 14L12 12L13 12L13 11ZM2 12L2 13L3 13L3 12ZM8 13L8 14L10 14L10 13ZM6 14L6 15L7 15L7 14ZM32 14L32 15L33 15L33 14ZM34 14L34 15L35 15L35 14ZM6 17L6 18L7 18L7 17ZM12 18L12 19L11 19L11 20L10 20L10 21L11 21L11 20L12 20L12 19L13 19L13 18ZM13 20L13 21L14 21L14 20ZM20 21L20 22L19 22L19 23L20 23L20 24L21 24L21 23L22 23L22 22L21 22L21 21ZM38 21L38 22L37 22L37 23L38 23L38 24L40 24L40 23L38 23L38 22L40 22L40 21ZM6 22L6 23L7 23L7 22ZM6 24L6 25L7 25L7 24ZM22 24L22 25L24 25L24 24ZM10 25L10 26L11 26L11 25ZM15 25L15 26L14 26L14 27L13 27L13 28L14 28L14 27L15 27L15 26L16 26L16 25ZM30 25L30 26L31 26L31 25ZM22 26L22 27L23 27L23 26ZM1 29L1 30L0 30L0 31L1 31L1 30L2 30L2 29ZM27 29L27 32L26 32L26 33L27 33L27 32L28 32L28 35L29 35L29 33L31 33L31 31L30 31L30 29L29 29L29 32L28 32L28 29ZM6 30L6 31L7 31L7 30ZM24 30L24 31L25 31L25 30ZM22 31L22 32L23 32L23 31ZM24 32L24 33L23 33L23 35L22 35L22 36L23 36L23 35L24 35L24 33L25 33L25 32ZM40 32L40 34L41 34L41 32ZM33 33L33 36L36 36L36 33ZM34 34L34 35L35 35L35 34ZM15 36L15 37L16 37L16 36ZM37 36L37 37L38 37L38 36ZM20 38L20 39L21 39L21 38ZM26 38L26 39L27 39L27 40L28 40L28 39L29 39L29 38ZM15 39L15 40L16 40L16 39ZM17 39L17 40L19 40L19 39ZM0 0L0 7L7 7L7 0ZM1 1L1 6L6 6L6 1ZM2 2L2 5L5 5L5 2ZM34 0L34 7L41 7L41 0ZM35 1L35 6L40 6L40 1ZM36 2L36 5L39 5L39 2ZM0 34L0 41L7 41L7 34ZM1 35L1 40L6 40L6 35ZM2 36L2 39L5 39L5 36Z" fill="#000000"/></g></g></svg>
