<?xml version="1.0" encoding="UTF-8"?>
<svg xmlns="http://www.w3.org/2000/svg" version="1.1" width="300" height="300" viewBox="0 0 300 300"><rect x="0" y="0" width="300" height="300" fill="#ffffff"/><g transform="scale(7.317)"><g transform="translate(0,0)"><path fill-rule="evenodd" d="M8 0L8 1L9 1L9 2L8 2L8 5L9 5L9 6L8 6L8 7L9 7L9 6L10 6L10 8L11 8L11 9L10 9L10 10L11 10L11 9L12 9L12 11L14 11L14 10L15 10L15 9L16 9L16 8L17 8L17 10L16 10L16 12L14 12L14 14L12 14L12 13L11 13L11 12L9 12L9 11L8 11L8 10L9 10L9 8L8 8L8 10L6 10L6 11L7 11L7 12L5 12L5 11L4 11L4 10L3 10L3 9L4 9L4 8L0 8L0 9L2 9L2 11L1 11L1 10L0 10L0 11L1 11L1 12L0 12L0 15L1 15L1 13L2 13L2 11L4 11L4 12L3 12L3 13L4 13L4 14L2 14L2 15L3 15L3 16L4 16L4 17L3 17L3 18L4 18L4 17L5 17L5 18L6 18L6 19L5 19L5 20L4 20L4 19L3 19L3 20L4 20L4 21L5 21L5 22L4 22L4 23L1 23L1 22L2 22L2 21L1 21L1 22L0 22L0 23L1 23L1 24L0 24L0 25L2 25L2 24L3 24L3 26L4 26L4 27L2 27L2 26L1 26L1 28L0 28L0 29L2 29L2 32L1 32L1 33L2 33L2 32L3 32L3 33L5 33L5 30L6 30L6 31L7 31L7 32L6 32L6 33L8 33L8 34L9 34L9 36L10 36L10 37L8 37L8 41L9 41L9 38L11 38L11 39L10 39L10 40L12 40L12 41L16 41L16 40L17 40L17 41L19 41L19 40L20 40L20 41L24 41L24 40L22 40L22 38L23 38L23 37L24 37L24 39L26 39L26 40L25 40L25 41L26 41L26 40L27 40L27 41L29 41L29 39L30 39L30 41L31 41L31 40L32 40L32 41L33 41L33 39L34 39L34 41L35 41L35 40L36 40L36 41L37 41L37 40L38 40L38 41L40 41L40 39L41 39L41 37L39 37L39 36L38 36L38 34L39 34L39 30L38 30L38 29L37 29L37 27L39 27L39 29L40 29L40 28L41 28L41 26L37 26L37 27L36 27L36 24L35 24L35 23L36 23L36 22L37 22L37 23L40 23L40 24L39 24L39 25L41 25L41 23L40 23L40 22L41 22L41 20L40 20L40 15L41 15L41 13L39 13L39 12L40 12L40 11L39 11L39 10L38 10L38 9L39 9L39 8L36 8L36 11L35 11L35 9L34 9L34 8L32 8L32 7L33 7L33 3L32 3L32 2L33 2L33 1L32 1L32 0L31 0L31 1L32 1L32 2L30 2L30 1L29 1L29 0L28 0L28 2L26 2L26 0L25 0L25 4L26 4L26 5L25 5L25 6L24 6L24 7L23 7L23 4L22 4L22 8L21 8L21 9L19 9L19 8L20 8L20 7L21 7L21 6L20 6L20 7L19 7L19 6L18 6L18 5L19 5L19 4L20 4L20 3L21 3L21 2L22 2L22 3L24 3L24 0L23 0L23 2L22 2L22 0L18 0L18 1L16 1L16 3L15 3L15 0L14 0L14 2L12 2L12 1L11 1L11 0ZM18 1L18 2L17 2L17 3L16 3L16 4L15 4L15 3L13 3L13 4L12 4L12 5L14 5L14 6L13 6L13 8L12 8L12 9L15 9L15 8L14 8L14 6L15 6L15 7L16 7L16 6L15 6L15 5L16 5L16 4L18 4L18 2L21 2L21 1ZM9 2L9 3L10 3L10 4L9 4L9 5L10 5L10 6L11 6L11 7L12 7L12 6L11 6L11 5L10 5L10 4L11 4L11 3L10 3L10 2ZM28 2L28 3L27 3L27 7L28 7L28 8L27 8L27 9L26 9L26 6L25 6L25 7L24 7L24 8L22 8L22 10L19 10L19 11L18 11L18 10L17 10L17 11L18 11L18 12L17 12L17 13L15 13L15 14L14 14L14 15L13 15L13 16L14 16L14 15L16 15L16 16L15 16L15 17L16 17L16 16L17 16L17 19L18 19L18 16L19 16L19 19L20 19L20 20L17 20L17 22L16 22L16 24L14 24L14 26L13 26L13 24L12 24L12 25L11 25L11 23L13 23L13 22L14 22L14 23L15 23L15 22L14 22L14 21L15 21L15 20L16 20L16 19L15 19L15 18L13 18L13 17L12 17L12 18L11 18L11 17L10 17L10 16L8 16L8 15L10 15L10 13L9 13L9 12L8 12L8 13L9 13L9 14L7 14L7 13L6 13L6 14L7 14L7 15L6 15L6 16L5 16L5 17L6 17L6 18L7 18L7 17L10 17L10 18L9 18L9 19L8 19L8 20L7 20L7 19L6 19L6 20L5 20L5 21L6 21L6 22L8 22L8 23L5 23L5 25L4 25L4 26L5 26L5 25L6 25L6 26L8 26L8 25L6 25L6 24L10 24L10 27L8 27L8 28L7 28L7 27L5 27L5 28L3 28L3 29L4 29L4 30L3 30L3 31L4 31L4 30L5 30L5 29L6 29L6 30L7 30L7 29L8 29L8 28L9 28L9 30L8 30L8 33L9 33L9 34L11 34L11 33L12 33L12 32L13 32L13 35L14 35L14 33L17 33L17 34L15 34L15 36L13 36L13 38L12 38L12 40L16 40L16 39L15 39L15 38L16 38L16 37L18 37L18 35L19 35L19 37L20 37L20 35L21 35L21 37L23 37L23 36L24 36L24 37L25 37L25 36L24 36L24 35L25 35L25 34L27 34L27 35L26 35L26 36L30 36L30 39L31 39L31 38L32 38L32 39L33 39L33 38L34 38L34 39L36 39L36 40L37 40L37 39L38 39L38 40L39 40L39 37L38 37L38 36L37 36L37 38L36 38L36 37L33 37L33 38L32 38L32 36L31 36L31 35L30 35L30 34L32 34L32 33L29 33L29 35L28 35L28 32L29 32L29 29L30 29L30 31L32 31L32 32L34 32L34 30L37 30L37 29L36 29L36 27L35 27L35 28L32 28L32 29L31 29L31 28L30 28L30 27L31 27L31 25L32 25L32 24L34 24L34 25L33 25L33 26L32 26L32 27L34 27L34 25L35 25L35 24L34 24L34 23L35 23L35 22L34 22L34 20L35 20L35 21L37 21L37 22L38 22L38 19L39 19L39 13L37 13L37 12L39 12L39 11L38 11L38 10L37 10L37 11L36 11L36 15L37 15L37 16L38 16L38 18L37 18L37 17L36 17L36 16L33 16L33 14L34 14L34 15L35 15L35 12L33 12L33 11L34 11L34 10L33 10L33 9L32 9L32 10L31 10L31 7L32 7L32 6L31 6L31 5L29 5L29 7L28 7L28 3L30 3L30 2ZM17 6L17 7L18 7L18 8L19 8L19 7L18 7L18 6ZM30 6L30 7L29 7L29 9L27 9L27 10L29 10L29 11L28 11L28 13L27 13L27 12L26 12L26 9L25 9L25 8L24 8L24 9L23 9L23 10L22 10L22 12L23 12L23 11L24 11L24 12L25 12L25 13L27 13L27 14L25 14L25 15L23 15L23 14L21 14L21 11L19 11L19 12L20 12L20 14L18 14L18 13L17 13L17 14L18 14L18 15L21 15L21 17L20 17L20 18L21 18L21 19L22 19L22 20L21 20L21 21L20 21L20 22L19 22L19 23L20 23L20 24L17 24L17 25L18 25L18 26L16 26L16 25L15 25L15 26L14 26L14 27L13 27L13 26L12 26L12 28L11 28L11 29L10 29L10 30L9 30L9 33L10 33L10 32L12 32L12 31L11 31L11 29L13 29L13 31L17 31L17 32L18 32L18 34L17 34L17 35L18 35L18 34L19 34L19 33L20 33L20 34L22 34L22 32L23 32L23 31L22 31L22 27L23 27L23 30L24 30L24 31L25 31L25 30L26 30L26 28L27 28L27 26L28 26L28 27L29 27L29 25L31 25L31 24L32 24L32 23L33 23L33 22L32 22L32 21L33 21L33 20L34 20L34 19L33 19L33 18L34 18L34 17L33 17L33 18L32 18L32 20L31 20L31 22L32 22L32 23L31 23L31 24L29 24L29 25L28 25L28 24L26 24L26 23L25 23L25 19L24 19L24 20L23 20L23 18L26 18L26 19L29 19L29 20L26 20L26 21L28 21L28 22L29 22L29 23L30 23L30 22L29 22L29 21L30 21L30 19L31 19L31 17L32 17L32 16L31 16L31 15L32 15L32 14L33 14L33 12L31 12L31 10L29 10L29 9L30 9L30 7L31 7L31 6ZM6 8L6 9L7 9L7 8ZM40 8L40 10L41 10L41 8ZM24 9L24 11L25 11L25 9ZM32 10L32 11L33 11L33 10ZM29 11L29 12L30 12L30 11ZM11 14L11 16L12 16L12 14ZM27 14L27 15L29 15L29 17L28 17L28 16L26 16L26 15L25 15L25 16L26 16L26 17L28 17L28 18L29 18L29 19L30 19L30 17L31 17L31 16L30 16L30 15L31 15L31 14ZM37 14L37 15L38 15L38 14ZM1 16L1 17L0 17L0 18L1 18L1 19L0 19L0 20L1 20L1 19L2 19L2 16ZM6 16L6 17L7 17L7 16ZM12 18L12 20L13 20L13 21L14 21L14 20L13 20L13 18ZM9 19L9 21L8 21L8 22L9 22L9 23L10 23L10 19ZM35 19L35 20L36 20L36 19ZM6 20L6 21L7 21L7 20ZM21 21L21 22L22 22L22 23L21 23L21 24L20 24L20 26L21 26L21 27L22 27L22 26L23 26L23 27L24 27L24 26L25 26L25 24L24 24L24 23L23 23L23 22L22 22L22 21ZM39 21L39 22L40 22L40 21ZM22 24L22 25L24 25L24 24ZM15 26L15 27L14 27L14 28L13 28L13 29L14 29L14 30L16 30L16 28L17 28L17 27L16 27L16 26ZM25 27L25 28L26 28L26 27ZM6 28L6 29L7 29L7 28ZM18 29L18 30L17 30L17 31L20 31L20 30L21 30L21 29L20 29L20 30L19 30L19 29ZM24 29L24 30L25 30L25 29ZM27 29L27 32L26 32L26 33L27 33L27 32L28 32L28 29ZM0 30L0 31L1 31L1 30ZM32 30L32 31L33 31L33 30ZM21 31L21 32L22 32L22 31ZM36 31L36 32L37 32L37 33L38 33L38 31ZM24 32L24 33L23 33L23 35L22 35L22 36L23 36L23 35L24 35L24 33L25 33L25 32ZM40 32L40 34L41 34L41 32ZM33 33L33 36L36 36L36 33ZM34 34L34 35L35 35L35 34ZM11 35L11 37L12 37L12 35ZM15 36L15 37L16 37L16 36ZM13 38L13 39L14 39L14 38ZM26 38L26 39L27 39L27 40L28 40L28 39L29 39L29 38ZM17 39L17 40L19 40L19 39ZM20 39L20 40L21 40L21 39ZM0 0L0 7L7 7L7 0ZM1 1L1 6L6 6L6 1ZM2 2L2 5L5 5L5 2ZM34 0L34 7L41 7L41 0ZM35 1L35 6L40 6L40 1ZM36 2L36 5L39 5L39 2ZM0 34L0 41L7 41L7 34ZM1 35L1 40L6 40L6 35ZM2 36L2 39L5 39L5 36Z" fill="#000000"/></g></g></svg>
