<?xml version="1.0" encoding="UTF-8"?>
<svg xmlns="http://www.w3.org/2000/svg" version="1.1" width="300" height="300" viewBox="0 0 300 300"><rect x="0" y="0" width="300" height="300" fill="#ffffff"/><g transform="scale(7.317)"><g transform="translate(0,0)"><path fill-rule="evenodd" d="M9 0L9 1L8 1L8 2L9 2L9 3L8 3L8 4L9 4L9 3L10 3L10 5L11 5L11 6L10 6L10 7L9 7L9 5L8 5L8 7L9 7L9 8L6 8L6 9L8 9L8 10L5 10L5 11L4 11L4 12L2 12L2 10L4 10L4 9L5 9L5 8L0 8L0 9L1 9L1 10L0 10L0 11L1 11L1 12L0 12L0 13L1 13L1 12L2 12L2 13L4 13L4 12L5 12L5 15L4 15L4 16L3 16L3 17L2 17L2 15L3 15L3 14L2 14L2 15L0 15L0 16L1 16L1 18L0 18L0 22L1 22L1 20L5 20L5 21L8 21L8 20L10 20L10 18L9 18L9 19L8 19L8 17L9 17L9 16L8 16L8 17L7 17L7 16L6 16L6 15L8 15L8 14L6 14L6 13L7 13L7 12L6 12L6 11L8 11L8 12L9 12L9 13L10 13L10 17L11 17L11 18L12 18L12 19L11 19L11 20L12 20L12 21L13 21L13 17L14 17L14 18L15 18L15 19L14 19L14 20L17 20L17 18L15 18L15 17L18 17L18 16L16 16L16 15L17 15L17 14L16 14L16 13L17 13L17 12L19 12L19 11L18 11L18 10L20 10L20 13L21 13L21 14L20 14L20 15L21 15L21 16L20 16L20 17L19 17L19 18L18 18L18 19L19 19L19 20L18 20L18 21L20 21L20 22L17 22L17 21L14 21L14 22L17 22L17 23L16 23L16 24L17 24L17 28L14 28L14 27L16 27L16 26L15 26L15 25L14 25L14 24L15 24L15 23L14 23L14 24L13 24L13 25L12 25L12 23L13 23L13 22L10 22L10 21L9 21L9 22L8 22L8 23L7 23L7 22L3 22L3 21L2 21L2 22L3 22L3 23L4 23L4 24L3 24L3 26L2 26L2 24L1 24L1 26L2 26L2 27L3 27L3 28L2 28L2 29L0 29L0 33L1 33L1 30L2 30L2 33L7 33L7 32L8 32L8 35L9 35L9 36L8 36L8 41L9 41L9 38L10 38L10 39L11 39L11 41L12 41L12 39L14 39L14 40L13 40L13 41L14 41L14 40L15 40L15 39L14 39L14 38L17 38L17 39L16 39L16 40L17 40L17 39L18 39L18 38L17 38L17 37L16 37L16 36L17 36L17 35L16 35L16 34L17 34L17 32L16 32L16 31L17 31L17 30L19 30L19 29L20 29L20 28L22 28L22 25L23 25L23 26L26 26L26 28L25 28L25 27L23 27L23 28L25 28L25 29L22 29L22 30L20 30L20 31L21 31L21 32L19 32L19 33L18 33L18 35L19 35L19 36L18 36L18 37L19 37L19 38L20 38L20 37L21 37L21 36L22 36L22 33L23 33L23 34L24 34L24 35L26 35L26 34L24 34L24 33L23 33L23 32L25 32L25 33L28 33L28 34L27 34L27 36L25 36L25 38L26 38L26 37L28 37L28 38L27 38L27 39L26 39L26 40L24 40L24 41L27 41L27 39L28 39L28 41L30 41L30 40L33 40L33 41L36 41L36 39L38 39L38 38L39 38L39 36L41 36L41 35L40 35L40 34L41 34L41 33L40 33L40 31L39 31L39 32L37 32L37 25L38 25L38 27L39 27L39 28L38 28L38 29L39 29L39 30L41 30L41 29L39 29L39 28L41 28L41 27L39 27L39 26L40 26L40 25L41 25L41 24L40 24L40 23L39 23L39 22L38 22L38 21L39 21L39 20L37 20L37 19L36 19L36 20L35 20L35 19L33 19L33 18L32 18L32 17L34 17L34 18L35 18L35 17L36 17L36 18L37 18L37 17L39 17L39 16L40 16L40 15L39 15L39 16L37 16L37 17L36 17L36 16L35 16L35 14L36 14L36 15L38 15L38 14L39 14L39 13L40 13L40 14L41 14L41 13L40 13L40 12L41 12L41 11L40 11L40 10L41 10L41 9L40 9L40 8L39 8L39 9L40 9L40 10L39 10L39 11L40 11L40 12L38 12L38 11L36 11L36 10L38 10L38 8L37 8L37 9L36 9L36 8L35 8L35 9L34 9L34 8L32 8L32 9L31 9L31 5L32 5L32 7L33 7L33 5L32 5L32 4L33 4L33 3L29 3L29 2L31 2L31 1L32 1L32 0L31 0L31 1L29 1L29 0L28 0L28 1L26 1L26 0L25 0L25 1L24 1L24 0L23 0L23 1L24 1L24 2L23 2L23 3L25 3L25 4L20 4L20 3L22 3L22 2L21 2L21 1L22 1L22 0L18 0L18 2L19 2L19 1L20 1L20 3L18 3L18 4L20 4L20 5L17 5L17 4L16 4L16 1L15 1L15 0L14 0L14 1L15 1L15 2L14 2L14 3L15 3L15 4L14 4L14 5L17 5L17 6L16 6L16 9L17 9L17 10L15 10L15 9L14 9L14 8L13 8L13 5L11 5L11 4L12 4L12 3L11 3L11 2L13 2L13 1L10 1L10 0ZM9 1L9 2L10 2L10 1ZM25 2L25 3L26 3L26 2ZM27 2L27 4L25 4L25 8L24 8L24 5L22 5L22 6L21 6L21 5L20 5L20 6L19 6L19 7L20 7L20 6L21 6L21 7L22 7L22 6L23 6L23 9L22 9L22 8L20 8L20 9L22 9L22 10L23 10L23 11L22 11L22 12L21 12L21 13L22 13L22 14L21 14L21 15L24 15L24 14L23 14L23 13L25 13L25 16L23 16L23 17L22 17L22 16L21 16L21 18L19 18L19 19L21 19L21 18L23 18L23 19L24 19L24 21L25 21L25 22L22 22L22 21L23 21L23 20L20 20L20 21L21 21L21 22L20 22L20 23L23 23L23 24L24 24L24 25L25 25L25 24L27 24L27 23L26 23L26 22L28 22L28 23L29 23L29 24L28 24L28 25L26 25L26 26L28 26L28 27L27 27L27 28L28 28L28 29L25 29L25 32L26 32L26 31L27 31L27 32L28 32L28 33L29 33L29 34L30 34L30 35L29 35L29 36L30 36L30 37L29 37L29 38L30 38L30 37L31 37L31 39L33 39L33 40L34 40L34 38L35 38L35 39L36 39L36 38L38 38L38 36L39 36L39 35L37 35L37 37L36 37L36 38L35 38L35 37L34 37L34 38L33 38L33 37L32 37L32 35L31 35L31 34L32 34L32 32L33 32L33 31L34 31L34 30L33 30L33 29L32 29L32 30L30 30L30 31L29 31L29 30L28 30L28 29L29 29L29 28L30 28L30 27L29 27L29 26L30 26L30 25L29 25L29 24L30 24L30 22L31 22L31 24L33 24L33 23L32 23L32 22L34 22L34 25L35 25L35 26L33 26L33 25L32 25L32 26L31 26L31 27L35 27L35 28L34 28L34 29L36 29L36 27L35 27L35 26L36 26L36 25L37 25L37 24L39 24L39 23L38 23L38 22L36 22L36 21L37 21L37 20L36 20L36 21L35 21L35 20L34 20L34 21L32 21L32 20L33 20L33 19L32 19L32 18L31 18L31 17L29 17L29 19L28 19L28 20L27 20L27 21L25 21L25 20L26 20L26 17L25 17L25 16L26 16L26 13L25 13L25 12L27 12L27 14L28 14L28 12L30 12L30 10L31 10L31 11L32 11L32 12L33 12L33 13L32 13L32 14L31 14L31 13L29 13L29 16L30 16L30 14L31 14L31 16L33 16L33 15L34 15L34 14L35 14L35 13L36 13L36 12L34 12L34 11L35 11L35 10L36 10L36 9L35 9L35 10L34 10L34 11L33 11L33 9L32 9L32 10L31 10L31 9L30 9L30 10L28 10L28 12L27 12L27 11L24 11L24 10L25 10L25 8L30 8L30 5L31 5L31 4L29 4L29 5L28 5L28 6L27 6L27 7L26 7L26 5L27 5L27 4L28 4L28 2ZM11 6L11 7L10 7L10 8L11 8L11 7L12 7L12 6ZM14 6L14 7L15 7L15 6ZM17 6L17 8L18 8L18 9L19 9L19 8L18 8L18 6ZM28 6L28 7L29 7L29 6ZM12 8L12 9L13 9L13 8ZM10 9L10 10L11 10L11 9ZM23 9L23 10L24 10L24 9ZM26 9L26 10L27 10L27 9ZM8 10L8 11L9 11L9 12L12 12L12 13L11 13L11 17L13 17L13 16L14 16L14 17L15 17L15 16L14 16L14 15L13 15L13 14L15 14L15 13L14 13L14 12L15 12L15 11L14 11L14 12L13 12L13 11L9 11L9 10ZM16 11L16 12L17 12L17 11ZM12 13L12 14L13 14L13 13ZM18 13L18 14L19 14L19 13ZM33 13L33 14L34 14L34 13ZM37 13L37 14L38 14L38 13ZM12 15L12 16L13 16L13 15ZM4 16L4 18L7 18L7 17L6 17L6 16ZM34 16L34 17L35 17L35 16ZM23 17L23 18L24 18L24 17ZM27 17L27 18L28 18L28 17ZM40 17L40 18L39 18L39 19L40 19L40 18L41 18L41 17ZM5 19L5 20L8 20L8 19ZM30 19L30 20L29 20L29 21L28 21L28 22L29 22L29 21L31 21L31 22L32 22L32 21L31 21L31 19ZM34 21L34 22L35 22L35 23L36 23L36 24L35 24L35 25L36 25L36 24L37 24L37 23L36 23L36 22L35 22L35 21ZM40 21L40 22L41 22L41 21ZM6 23L6 24L5 24L5 26L4 26L4 28L3 28L3 29L2 29L2 30L4 30L4 29L6 29L6 30L8 30L8 31L10 31L10 29L11 29L11 32L10 32L10 33L9 33L9 35L10 35L10 37L11 37L11 38L14 38L14 37L15 37L15 36L14 36L14 35L15 35L15 34L14 34L14 33L15 33L15 32L14 32L14 31L15 31L15 29L14 29L14 28L13 28L13 26L10 26L10 25L11 25L11 23L10 23L10 24L9 24L9 23L8 23L8 24L7 24L7 23ZM17 23L17 24L18 24L18 23ZM6 24L6 25L7 25L7 24ZM8 24L8 26L9 26L9 24ZM20 24L20 25L22 25L22 24ZM18 25L18 27L20 27L20 26L19 26L19 25ZM28 25L28 26L29 26L29 25ZM5 26L5 27L7 27L7 26ZM0 27L0 28L1 28L1 27ZM8 27L8 28L9 28L9 29L8 29L8 30L9 30L9 29L10 29L10 27ZM6 28L6 29L7 29L7 28ZM17 28L17 29L16 29L16 30L17 30L17 29L19 29L19 28ZM12 29L12 30L14 30L14 29ZM22 30L22 31L24 31L24 30ZM27 30L27 31L28 31L28 30ZM32 30L32 31L31 31L31 32L32 32L32 31L33 31L33 30ZM35 30L35 31L36 31L36 30ZM3 31L3 32L4 32L4 31ZM5 31L5 32L7 32L7 31ZM12 31L12 32L13 32L13 33L10 33L10 34L12 34L12 36L11 36L11 37L13 37L13 33L14 33L14 32L13 32L13 31ZM21 32L21 33L22 33L22 32ZM29 32L29 33L30 33L30 32ZM19 33L19 35L20 35L20 33ZM33 33L33 36L36 36L36 33ZM39 33L39 34L40 34L40 33ZM34 34L34 35L35 35L35 34ZM30 35L30 36L31 36L31 35ZM19 36L19 37L20 37L20 36ZM23 36L23 37L22 37L22 39L20 39L20 40L22 40L22 41L23 41L23 40L22 40L22 39L23 39L23 38L24 38L24 36ZM40 37L40 38L41 38L41 37ZM29 39L29 40L30 40L30 39ZM39 39L39 40L37 40L37 41L39 41L39 40L40 40L40 39ZM0 0L0 7L7 7L7 0ZM1 1L1 6L6 6L6 1ZM2 2L2 5L5 5L5 2ZM34 0L34 7L41 7L41 0ZM35 1L35 6L40 6L40 1ZM36 2L36 5L39 5L39 2ZM0 34L0 41L7 41L7 34ZM1 35L1 40L6 40L6 35ZM2 36L2 39L5 39L5 36Z" fill="#000000"/></g></g></svg>
