<?xml version="1.0" encoding="UTF-8"?>
<svg xmlns="http://www.w3.org/2000/svg" version="1.1" width="300" height="300" viewBox="0 0 300 300"><rect x="0" y="0" width="300" height="300" fill="#ffffff"/><g transform="scale(8.108)"><g transform="translate(0,0)"><path fill-rule="evenodd" d="M8 0L8 4L9 4L9 5L8 5L8 7L9 7L9 6L10 6L10 9L11 9L11 8L12 8L12 9L13 9L13 10L15 10L15 11L14 11L14 12L13 12L13 11L12 11L12 12L11 12L11 10L10 10L10 11L7 11L7 10L9 10L9 9L7 9L7 8L4 8L4 9L5 9L5 10L6 10L6 11L4 11L4 10L2 10L2 8L0 8L0 9L1 9L1 13L3 13L3 14L1 14L1 16L0 16L0 17L1 17L1 16L2 16L2 17L3 17L3 18L2 18L2 20L4 20L4 19L7 19L7 18L8 18L8 21L7 21L7 20L5 20L5 21L7 21L7 22L6 22L6 23L7 23L7 24L6 24L6 25L5 25L5 24L4 24L4 21L1 21L1 20L0 20L0 21L1 21L1 22L2 22L2 23L0 23L0 26L1 26L1 24L2 24L2 25L5 25L5 26L4 26L4 27L3 27L3 26L2 26L2 28L0 28L0 29L7 29L7 28L4 28L4 27L7 27L7 26L8 26L8 25L9 25L9 24L10 24L10 25L11 25L11 24L12 24L12 25L13 25L13 26L15 26L15 27L14 27L14 28L13 28L13 27L12 27L12 28L11 28L11 29L12 29L12 30L9 30L9 29L10 29L10 26L9 26L9 29L8 29L8 30L9 30L9 31L8 31L8 33L9 33L9 34L10 34L10 36L9 36L9 35L8 35L8 37L12 37L12 36L13 36L13 37L20 37L20 36L21 36L21 37L22 37L22 35L23 35L23 37L25 37L25 36L24 36L24 35L26 35L26 36L27 36L27 37L28 37L28 35L29 35L29 34L30 34L30 35L31 35L31 33L35 33L35 34L33 34L33 35L32 35L32 36L34 36L34 37L37 37L37 36L36 36L36 35L35 35L35 34L37 34L37 31L36 31L36 32L35 32L35 31L34 31L34 30L35 30L35 28L36 28L36 27L33 27L33 28L31 28L31 27L30 27L30 25L31 25L31 26L34 26L34 25L35 25L35 26L36 26L36 25L37 25L37 24L36 24L36 23L34 23L34 22L33 22L33 21L35 21L35 22L36 22L36 21L37 21L37 20L36 20L36 19L35 19L35 18L36 18L36 17L37 17L37 16L36 16L36 13L35 13L35 12L37 12L37 11L36 11L36 10L35 10L35 9L37 9L37 8L33 8L33 9L32 9L32 8L31 8L31 10L35 10L35 11L32 11L32 12L34 12L34 13L31 13L31 12L30 12L30 9L29 9L29 8L28 8L28 7L29 7L29 6L28 6L28 7L27 7L27 6L26 6L26 5L29 5L29 0L26 0L26 1L25 1L25 2L22 2L22 1L24 1L24 0L22 0L22 1L19 1L19 0L18 0L18 1L19 1L19 2L16 2L16 3L15 3L15 2L14 2L14 3L15 3L15 4L14 4L14 5L16 5L16 3L18 3L18 4L19 4L19 2L20 2L20 3L22 3L22 4L21 4L21 5L17 5L17 6L16 6L16 7L15 7L15 6L14 6L14 7L13 7L13 6L12 6L12 7L11 7L11 3L10 3L10 2L9 2L9 0ZM13 0L13 1L11 1L11 2L12 2L12 5L13 5L13 1L14 1L14 0ZM15 0L15 1L16 1L16 0ZM27 1L27 2L28 2L28 1ZM25 2L25 3L24 3L24 5L23 5L23 7L22 7L22 5L21 5L21 7L20 7L20 6L19 6L19 7L18 7L18 6L17 6L17 7L18 7L18 8L17 8L17 9L16 9L16 8L15 8L15 7L14 7L14 9L16 9L16 10L17 10L17 11L18 11L18 10L19 10L19 11L20 11L20 10L21 10L21 11L22 11L22 12L21 12L21 13L20 13L20 12L18 12L18 13L19 13L19 15L18 15L18 14L17 14L17 13L16 13L16 12L15 12L15 13L13 13L13 12L12 12L12 13L4 13L4 11L2 11L2 12L3 12L3 13L4 13L4 14L5 14L5 15L2 15L2 16L5 16L5 17L6 17L6 18L7 18L7 17L6 17L6 16L8 16L8 17L10 17L10 18L9 18L9 21L8 21L8 24L9 24L9 21L10 21L10 23L11 23L11 22L12 22L12 21L13 21L13 22L15 22L15 21L16 21L16 22L17 22L17 21L16 21L16 20L17 20L17 19L16 19L16 20L15 20L15 21L13 21L13 20L14 20L14 19L15 19L15 18L13 18L13 17L12 17L12 16L13 16L13 15L12 15L12 16L11 16L11 17L10 17L10 15L11 15L11 14L12 14L12 13L13 13L13 14L15 14L15 13L16 13L16 18L19 18L19 20L18 20L18 21L19 21L19 24L18 24L18 25L16 25L16 23L14 23L14 25L16 25L16 26L17 26L17 27L18 27L18 29L16 29L16 28L15 28L15 29L13 29L13 28L12 28L12 29L13 29L13 30L15 30L15 29L16 29L16 30L18 30L18 29L19 29L19 31L20 31L20 29L21 29L21 26L22 26L22 25L23 25L23 26L25 26L25 29L24 29L24 27L22 27L22 29L24 29L24 31L23 31L23 32L22 32L22 33L23 33L23 32L24 32L24 31L25 31L25 33L24 33L24 34L26 34L26 35L27 35L27 34L28 34L28 29L27 29L27 28L26 28L26 27L27 27L27 26L25 26L25 25L27 25L27 22L28 22L28 21L27 21L27 20L29 20L29 24L30 24L30 22L31 22L31 23L32 23L32 22L31 22L31 21L33 21L33 19L34 19L34 18L35 18L35 17L36 17L36 16L35 16L35 17L33 17L33 16L32 16L32 14L31 14L31 13L30 13L30 12L29 12L29 10L28 10L28 12L27 12L27 13L26 13L26 11L27 11L27 9L28 9L28 8L27 8L27 7L26 7L26 6L25 6L25 7L24 7L24 5L26 5L26 4L25 4L25 3L26 3L26 2ZM12 7L12 8L13 8L13 7ZM19 7L19 9L20 9L20 7ZM21 7L21 8L22 8L22 9L23 9L23 12L22 12L22 13L23 13L23 15L22 15L22 14L21 14L21 15L19 15L19 17L20 17L20 18L21 18L21 16L22 16L22 19L21 19L21 21L20 21L20 20L19 20L19 21L20 21L20 23L21 23L21 25L20 25L20 26L21 26L21 25L22 25L22 20L23 20L23 23L24 23L24 24L23 24L23 25L24 25L24 24L25 24L25 23L26 23L26 21L25 21L25 19L24 19L24 17L23 17L23 16L25 16L25 15L26 15L26 16L28 16L28 15L29 15L29 16L30 16L30 17L27 17L27 18L26 18L26 17L25 17L25 18L26 18L26 19L28 19L28 18L29 18L29 20L30 20L30 21L31 21L31 20L30 20L30 17L31 17L31 19L32 19L32 18L33 18L33 17L31 17L31 16L30 16L30 13L27 13L27 14L24 14L24 13L25 13L25 11L26 11L26 9L25 9L25 8L24 8L24 9L23 9L23 8L22 8L22 7ZM6 9L6 10L7 10L7 9ZM17 9L17 10L18 10L18 9ZM24 9L24 10L25 10L25 9ZM6 11L6 12L7 12L7 11ZM6 14L6 15L10 15L10 14ZM33 14L33 15L35 15L35 14ZM14 15L14 17L15 17L15 15ZM17 15L17 17L18 17L18 15ZM12 19L12 20L10 20L10 21L12 21L12 20L13 20L13 19ZM23 19L23 20L24 20L24 19ZM24 21L24 22L25 22L25 21ZM2 23L2 24L3 24L3 23ZM12 23L12 24L13 24L13 23ZM32 24L32 25L33 25L33 24ZM6 25L6 26L7 26L7 25ZM18 25L18 26L19 26L19 25ZM28 26L28 27L29 27L29 26ZM19 28L19 29L20 29L20 28ZM33 28L33 29L34 29L34 28ZM25 29L25 31L26 31L26 32L27 32L27 31L26 31L26 30L27 30L27 29ZM29 29L29 32L32 32L32 29ZM30 30L30 31L31 31L31 30ZM9 31L9 33L10 33L10 34L11 34L11 36L12 36L12 35L13 35L13 36L14 36L14 35L15 35L15 34L13 34L13 33L12 33L12 32L13 32L13 31L12 31L12 32L11 32L11 31ZM14 31L14 33L16 33L16 36L17 36L17 35L18 35L18 36L19 36L19 35L21 35L21 34L20 34L20 33L21 33L21 32L20 32L20 33L19 33L19 32L18 32L18 33L16 33L16 31ZM10 32L10 33L11 33L11 32ZM26 33L26 34L27 34L27 33ZM29 36L29 37L31 37L31 36ZM0 0L0 7L7 7L7 0ZM1 1L1 6L6 6L6 1ZM2 2L2 5L5 5L5 2ZM30 0L30 7L37 7L37 0ZM31 1L31 6L36 6L36 1ZM32 2L32 5L35 5L35 2ZM0 30L0 37L7 37L7 30ZM1 31L1 36L6 36L6 31ZM2 32L2 35L5 35L5 32Z" fill="#000000"/></g></g></svg>
