<?xml version="1.0" encoding="UTF-8"?>
<svg xmlns="http://www.w3.org/2000/svg" version="1.1" width="300" height="300" viewBox="0 0 300 300"><rect x="0" y="0" width="300" height="300" fill="#ffffff"/><g transform="scale(8.108)"><g transform="translate(0,0)"><path fill-rule="evenodd" d="M8 0L8 1L11 1L11 3L10 3L10 2L9 2L9 3L10 3L10 5L9 5L9 6L8 6L8 8L9 8L9 9L8 9L8 10L9 10L9 11L7 11L7 10L6 10L6 9L7 9L7 8L6 8L6 9L5 9L5 8L3 8L3 9L2 9L2 8L0 8L0 12L2 12L2 13L3 13L3 14L2 14L2 15L3 15L3 14L5 14L5 15L4 15L4 16L1 16L1 17L0 17L0 18L1 18L1 17L4 17L4 18L3 18L3 19L2 19L2 20L0 20L0 22L1 22L1 21L2 21L2 25L4 25L4 27L3 27L3 26L1 26L1 23L0 23L0 29L1 29L1 27L2 27L2 29L3 29L3 28L4 28L4 29L8 29L8 30L10 30L10 35L11 35L11 31L12 31L12 33L14 33L14 36L13 36L13 37L16 37L16 36L15 36L15 35L16 35L16 34L17 34L17 33L19 33L19 34L18 34L18 35L17 35L17 36L18 36L18 37L20 37L20 36L19 36L19 34L20 34L20 35L23 35L23 36L22 36L22 37L23 37L23 36L24 36L24 37L25 37L25 35L26 35L26 36L27 36L27 35L28 35L28 34L27 34L27 33L29 33L29 34L32 34L32 36L33 36L33 37L34 37L34 36L36 36L36 37L37 37L37 32L36 32L36 31L37 31L37 30L36 30L36 28L37 28L37 26L36 26L36 25L37 25L37 22L36 22L36 21L37 21L37 18L36 18L36 20L35 20L35 21L34 21L34 22L33 22L33 18L32 18L32 19L31 19L31 18L29 18L29 19L28 19L28 16L27 16L27 17L26 17L26 16L25 16L25 17L26 17L26 18L22 18L22 19L23 19L23 20L22 20L22 21L23 21L23 22L20 22L20 19L21 19L21 16L20 16L20 17L19 17L19 18L18 18L18 17L17 17L17 16L16 16L16 14L14 14L14 15L12 15L12 16L9 16L9 14L5 14L5 13L7 13L7 12L9 12L9 11L10 11L10 10L11 10L11 9L10 9L10 7L11 7L11 6L12 6L12 9L14 9L14 12L13 12L13 13L12 13L12 14L13 14L13 13L15 13L15 12L16 12L16 13L17 13L17 12L19 12L19 13L18 13L18 14L19 14L19 15L22 15L22 16L23 16L23 17L24 17L24 16L23 16L23 14L24 14L24 13L25 13L25 12L24 12L24 9L25 9L25 8L26 8L26 9L27 9L27 10L25 10L25 11L26 11L26 13L27 13L27 14L26 14L26 15L29 15L29 14L30 14L30 16L29 16L29 17L32 17L32 16L31 16L31 15L33 15L33 14L36 14L36 16L35 16L35 15L34 15L34 19L35 19L35 17L37 17L37 14L36 14L36 11L37 11L37 10L34 10L34 9L32 9L32 12L33 12L33 13L31 13L31 10L30 10L30 9L31 9L31 8L30 8L30 9L29 9L29 10L28 10L28 8L29 8L29 1L28 1L28 2L27 2L27 0L26 0L26 1L25 1L25 3L24 3L24 4L25 4L25 5L23 5L23 2L22 2L22 0L21 0L21 1L19 1L19 2L20 2L20 3L19 3L19 4L18 4L18 3L17 3L17 4L18 4L18 5L17 5L17 6L16 6L16 7L17 7L17 6L18 6L18 7L19 7L19 6L18 6L18 5L20 5L20 7L21 7L21 5L20 5L20 4L22 4L22 5L23 5L23 6L22 6L22 9L21 9L21 8L20 8L20 9L21 9L21 10L20 10L20 11L19 11L19 9L18 9L18 8L15 8L15 5L16 5L16 3L15 3L15 2L16 2L16 0L13 0L13 1L12 1L12 0ZM17 0L17 1L18 1L18 0ZM12 2L12 4L14 4L14 5L15 5L15 4L14 4L14 3L13 3L13 2ZM26 3L26 4L27 4L27 8L28 8L28 3ZM10 5L10 6L9 6L9 7L10 7L10 6L11 6L11 5ZM12 5L12 6L13 6L13 8L14 8L14 6L13 6L13 5ZM25 5L25 7L26 7L26 5ZM23 6L23 7L24 7L24 6ZM23 8L23 9L22 9L22 11L20 11L20 13L19 13L19 14L21 14L21 13L22 13L22 11L23 11L23 9L24 9L24 8ZM36 8L36 9L37 9L37 8ZM4 9L4 11L3 11L3 10L1 10L1 11L2 11L2 12L4 12L4 11L5 11L5 12L7 12L7 11L5 11L5 9ZM15 9L15 11L16 11L16 12L17 12L17 11L18 11L18 9ZM12 10L12 11L13 11L13 10ZM33 10L33 12L34 12L34 13L35 13L35 12L34 12L34 10ZM27 11L27 12L29 12L29 11ZM10 12L10 14L11 14L11 12ZM23 12L23 13L24 13L24 12ZM0 13L0 14L1 14L1 13ZM30 13L30 14L31 14L31 13ZM5 15L5 20L8 20L8 17L6 17L6 16L8 16L8 15ZM13 16L13 17L12 17L12 18L11 18L11 17L9 17L9 19L10 19L10 20L11 20L11 19L12 19L12 21L4 21L4 22L3 22L3 23L4 23L4 24L5 24L5 25L6 25L6 26L7 26L7 27L5 27L5 28L7 28L7 27L8 27L8 26L9 26L9 25L10 25L10 29L14 29L14 28L16 28L16 27L15 27L15 26L14 26L14 27L12 27L12 28L11 28L11 26L13 26L13 25L11 25L11 22L12 22L12 23L13 23L13 22L12 22L12 21L13 21L13 19L12 19L12 18L15 18L15 16ZM6 18L6 19L7 19L7 18ZM16 18L16 21L17 21L17 20L18 20L18 18ZM26 18L26 19L27 19L27 18ZM3 19L3 20L4 20L4 19ZM14 19L14 25L15 25L15 24L16 24L16 26L21 26L21 27L20 27L20 28L21 28L21 31L19 31L19 32L20 32L20 33L21 33L21 34L23 34L23 33L22 33L22 32L23 32L23 31L22 31L22 30L25 30L25 31L24 31L24 32L25 32L25 33L24 33L24 35L25 35L25 33L26 33L26 32L27 32L27 31L28 31L28 27L29 27L29 28L32 28L32 27L33 27L33 28L34 28L34 27L35 27L35 28L36 28L36 27L35 27L35 25L36 25L36 24L34 24L34 23L33 23L33 22L32 22L32 20L31 20L31 21L30 21L30 19L29 19L29 20L27 20L27 21L26 21L26 20L25 20L25 19L24 19L24 20L25 20L25 21L24 21L24 23L23 23L23 27L22 27L22 23L20 23L20 22L19 22L19 21L18 21L18 24L16 24L16 23L17 23L17 22L16 22L16 23L15 23L15 19ZM4 22L4 23L5 23L5 22ZM6 22L6 23L9 23L9 24L6 24L6 25L9 25L9 24L10 24L10 22ZM25 22L25 23L28 23L28 24L29 24L29 23L28 23L28 22ZM35 22L35 23L36 23L36 22ZM19 23L19 24L18 24L18 25L20 25L20 23ZM31 23L31 24L30 24L30 25L25 25L25 27L26 27L26 26L27 26L27 27L28 27L28 26L30 26L30 27L32 27L32 26L34 26L34 25L32 25L32 24L33 24L33 23ZM30 25L30 26L31 26L31 25ZM17 27L17 29L18 29L18 30L19 30L19 29L18 29L18 27ZM23 27L23 29L26 29L26 28L24 28L24 27ZM29 29L29 32L32 32L32 29ZM34 29L34 31L33 31L33 33L32 33L32 34L34 34L34 35L33 35L33 36L34 36L34 35L36 35L36 34L34 34L34 33L36 33L36 32L35 32L35 31L36 31L36 30L35 30L35 29ZM12 30L12 31L13 31L13 32L14 32L14 31L15 31L15 33L16 33L16 31L17 31L17 32L18 32L18 31L17 31L17 30L16 30L16 31L15 31L15 30ZM26 30L26 31L25 31L25 32L26 32L26 31L27 31L27 30ZM30 30L30 31L31 31L31 30ZM8 32L8 34L9 34L9 32ZM12 34L12 35L13 35L13 34ZM8 35L8 37L9 37L9 35ZM30 35L30 37L31 37L31 35ZM10 36L10 37L11 37L11 36ZM28 36L28 37L29 37L29 36ZM0 0L0 7L7 7L7 0ZM1 1L1 6L6 6L6 1ZM2 2L2 5L5 5L5 2ZM30 0L30 7L37 7L37 0ZM31 1L31 6L36 6L36 1ZM32 2L32 5L35 5L35 2ZM0 30L0 37L7 37L7 30ZM1 31L1 36L6 36L6 31ZM2 32L2 35L5 35L5 32Z" fill="#000000"/></g></g></svg>
