<?xml version="1.0" encoding="UTF-8"?>
<svg xmlns="http://www.w3.org/2000/svg" version="1.1" width="300" height="300" viewBox="0 0 300 300"><rect x="0" y="0" width="300" height="300" fill="#ffffff"/><g transform="scale(7.317)"><g transform="translate(0,0)"><path fill-rule="evenodd" d="M8 0L8 1L11 1L11 2L10 2L10 3L9 3L9 4L10 4L10 3L11 3L11 5L9 5L9 6L8 6L8 8L10 8L10 9L9 9L9 10L10 10L10 11L12 11L12 12L10 12L10 13L12 13L12 14L13 14L13 15L12 15L12 16L11 16L11 17L12 17L12 18L10 18L10 16L9 16L9 14L8 14L8 12L9 12L9 11L8 11L8 9L7 9L7 8L6 8L6 9L7 9L7 10L6 10L6 11L8 11L8 12L3 12L3 13L2 13L2 11L3 11L3 10L4 10L4 11L5 11L5 10L4 10L4 9L5 9L5 8L3 8L3 10L1 10L1 9L2 9L2 8L0 8L0 11L1 11L1 12L0 12L0 13L1 13L1 14L3 14L3 15L1 15L1 16L0 16L0 17L1 17L1 18L0 18L0 20L1 20L1 19L2 19L2 21L3 21L3 22L1 22L1 21L0 21L0 25L1 25L1 23L2 23L2 25L3 25L3 26L4 26L4 27L3 27L3 28L1 28L1 29L0 29L0 33L2 33L2 30L4 30L4 29L5 29L5 30L6 30L6 31L7 31L7 32L6 32L6 33L8 33L8 34L10 34L10 33L11 33L11 35L12 35L12 36L11 36L11 37L13 37L13 38L11 38L11 40L12 40L12 39L14 39L14 40L13 40L13 41L15 41L15 40L16 40L16 39L18 39L18 38L17 38L17 37L20 37L20 38L19 38L19 40L20 40L20 41L21 41L21 38L24 38L24 37L23 37L23 36L24 36L24 35L29 35L29 36L31 36L31 37L30 37L30 38L29 38L29 37L28 37L28 36L27 36L27 37L26 37L26 38L25 38L25 39L26 39L26 38L27 38L27 40L28 40L28 41L29 41L29 40L28 40L28 38L29 38L29 39L30 39L30 40L32 40L32 41L35 41L35 40L36 40L36 39L37 39L37 40L38 40L38 41L39 41L39 39L38 39L38 38L40 38L40 40L41 40L41 36L40 36L40 37L38 37L38 36L37 36L37 35L38 35L38 33L39 33L39 35L40 35L40 33L41 33L41 32L39 32L39 30L38 30L38 29L35 29L35 30L38 30L38 31L36 31L36 32L35 32L35 31L34 31L34 32L33 32L33 31L32 31L32 26L33 26L33 27L34 27L34 28L33 28L33 29L34 29L34 28L35 28L35 27L36 27L36 28L37 28L37 27L38 27L38 28L39 28L39 26L38 26L38 25L40 25L40 24L41 24L41 23L40 23L40 24L38 24L38 23L39 23L39 22L40 22L40 21L41 21L41 20L40 20L40 19L41 19L41 18L40 18L40 17L39 17L39 18L37 18L37 17L38 17L38 16L39 16L39 15L38 15L38 13L37 13L37 12L38 12L38 11L39 11L39 12L40 12L40 13L39 13L39 14L40 14L40 16L41 16L41 12L40 12L40 9L41 9L41 8L40 8L40 9L36 9L36 10L38 10L38 11L36 11L36 12L33 12L33 13L32 13L32 14L30 14L30 17L31 17L31 18L29 18L29 19L30 19L30 20L28 20L28 21L27 21L27 20L26 20L26 18L27 18L27 19L28 19L28 17L29 17L29 16L27 16L27 17L26 17L26 16L25 16L25 15L28 15L28 14L29 14L29 13L27 13L27 14L26 14L26 13L24 13L24 11L26 11L26 10L27 10L27 11L28 11L28 12L30 12L30 13L31 13L31 12L32 12L32 11L34 11L34 10L33 10L33 8L31 8L31 5L33 5L33 4L32 4L32 2L33 2L33 0L32 0L32 1L31 1L31 3L29 3L29 4L28 4L28 3L27 3L27 2L25 2L25 1L24 1L24 2L22 2L22 1L23 1L23 0L21 0L21 2L20 2L20 1L19 1L19 0L16 0L16 1L18 1L18 2L19 2L19 3L18 3L18 4L17 4L17 2L16 2L16 4L15 4L15 1L14 1L14 0ZM26 0L26 1L27 1L27 0ZM29 0L29 1L28 1L28 2L30 2L30 0ZM11 2L11 3L13 3L13 4L12 4L12 6L11 6L11 8L12 8L12 6L13 6L13 7L14 7L14 8L13 8L13 9L12 9L12 10L13 10L13 9L14 9L14 13L15 13L15 14L14 14L14 15L13 15L13 16L12 16L12 17L13 17L13 18L12 18L12 19L9 19L9 17L8 17L8 18L7 18L7 17L6 17L6 18L5 18L5 17L4 17L4 18L3 18L3 20L4 20L4 18L5 18L5 22L4 22L4 23L3 23L3 24L4 24L4 25L5 25L5 24L4 24L4 23L6 23L6 24L7 24L7 25L6 25L6 26L5 26L5 27L6 27L6 28L7 28L7 29L6 29L6 30L7 30L7 31L8 31L8 33L10 33L10 32L11 32L11 33L13 33L13 36L14 36L14 34L16 34L16 35L15 35L15 36L17 36L17 34L18 34L18 33L19 33L19 35L18 35L18 36L19 36L19 35L21 35L21 36L20 36L20 37L22 37L22 35L23 35L23 34L22 34L22 33L24 33L24 34L26 34L26 32L27 32L27 31L26 31L26 32L22 32L22 31L21 31L21 33L19 33L19 30L21 30L21 29L22 29L22 30L24 30L24 29L25 29L25 30L27 30L27 27L25 27L25 26L26 26L26 25L27 25L27 24L29 24L29 26L30 26L30 24L29 24L29 22L31 22L31 23L32 23L32 25L31 25L31 26L32 26L32 25L33 25L33 26L34 26L34 25L33 25L33 24L34 24L34 23L36 23L36 24L35 24L35 26L36 26L36 25L37 25L37 23L36 23L36 22L35 22L35 21L36 21L36 19L37 19L37 18L36 18L36 19L34 19L34 18L35 18L35 17L37 17L37 16L38 16L38 15L37 15L37 14L36 14L36 15L35 15L35 14L33 14L33 16L31 16L31 17L32 17L32 19L33 19L33 20L35 20L35 21L34 21L34 23L33 23L33 22L31 22L31 21L28 21L28 23L27 23L27 22L26 22L26 20L25 20L25 18L26 18L26 17L25 17L25 16L24 16L24 17L23 17L23 18L22 18L22 19L17 19L17 18L16 18L16 19L14 19L14 21L12 21L12 20L13 20L13 18L14 18L14 17L13 17L13 16L14 16L14 15L15 15L15 16L16 16L16 15L17 15L17 17L18 17L18 18L19 18L19 17L22 17L22 16L23 16L23 15L24 15L24 14L23 14L23 13L22 13L22 11L21 11L21 10L22 10L22 9L24 9L24 10L25 10L25 9L26 9L26 8L24 8L24 6L23 6L23 8L22 8L22 5L21 5L21 4L18 4L18 5L17 5L17 8L15 8L15 7L16 7L16 6L15 6L15 7L14 7L14 6L13 6L13 5L15 5L15 4L14 4L14 3L13 3L13 2ZM23 3L23 5L24 5L24 4L25 4L25 7L26 7L26 4L27 4L27 3L26 3L26 4L25 4L25 3ZM30 4L30 5L31 5L31 4ZM18 5L18 8L17 8L17 9L15 9L15 11L16 11L16 12L15 12L15 13L16 13L16 12L17 12L17 13L18 13L18 14L19 14L19 15L20 15L20 16L21 16L21 13L20 13L20 12L21 12L21 11L20 11L20 12L19 12L19 11L18 11L18 12L17 12L17 10L20 10L20 9L18 9L18 8L19 8L19 6L20 6L20 7L21 7L21 6L20 6L20 5ZM27 5L27 7L28 7L28 9L27 9L27 10L28 10L28 11L29 11L29 8L30 8L30 6L29 6L29 7L28 7L28 5ZM9 6L9 7L10 7L10 6ZM32 6L32 7L33 7L33 6ZM34 8L34 9L35 9L35 8ZM10 9L10 10L11 10L11 9ZM30 9L30 10L31 10L31 11L32 11L32 10L31 10L31 9ZM12 12L12 13L13 13L13 12ZM18 12L18 13L19 13L19 12ZM6 13L6 14L7 14L7 15L6 15L6 16L7 16L7 15L8 15L8 14L7 14L7 13ZM4 14L4 15L3 15L3 16L1 16L1 17L3 17L3 16L4 16L4 15L5 15L5 14ZM10 14L10 15L11 15L11 14ZM15 14L15 15L16 15L16 14ZM22 14L22 15L23 15L23 14ZM36 15L36 16L37 16L37 15ZM33 16L33 18L34 18L34 16ZM6 18L6 19L7 19L7 18ZM23 18L23 19L22 19L22 21L21 21L21 22L18 22L18 23L17 23L17 24L16 24L16 23L15 23L15 22L14 22L14 25L15 25L15 26L14 26L14 27L13 27L13 28L15 28L15 29L16 29L16 30L15 30L15 31L16 31L16 30L17 30L17 31L18 31L18 30L19 30L19 29L21 29L21 28L20 28L20 27L22 27L22 28L23 28L23 29L24 29L24 28L25 28L25 29L26 29L26 28L25 28L25 27L23 27L23 26L25 26L25 25L23 25L23 26L19 26L19 27L18 27L18 25L19 25L19 24L20 24L20 25L21 25L21 22L22 22L22 21L23 21L23 24L24 24L24 22L25 22L25 21L24 21L24 18ZM16 19L16 21L17 21L17 19ZM6 20L6 21L7 21L7 22L6 22L6 23L8 23L8 24L9 24L9 25L10 25L10 24L9 24L9 22L10 22L10 23L11 23L11 22L10 22L10 21L11 21L11 20L10 20L10 21L9 21L9 22L8 22L8 21L7 21L7 20ZM18 20L18 21L19 21L19 20ZM37 20L37 22L38 22L38 20ZM39 20L39 21L40 21L40 20ZM12 22L12 23L13 23L13 22ZM15 24L15 25L16 25L16 26L17 26L17 25L18 25L18 24L17 24L17 25L16 25L16 24ZM11 25L11 26L10 26L10 27L9 27L9 26L8 26L8 27L7 27L7 26L6 26L6 27L7 27L7 28L8 28L8 27L9 27L9 28L10 28L10 27L11 27L11 26L13 26L13 25ZM1 26L1 27L2 27L2 26ZM40 26L40 27L41 27L41 26ZM29 27L29 28L28 28L28 30L29 30L29 31L28 31L28 32L30 32L30 33L28 33L28 34L29 34L29 35L31 35L31 36L32 36L32 35L31 35L31 34L32 34L32 33L31 33L31 30L30 30L30 28L31 28L31 27ZM3 28L3 29L4 29L4 28ZM11 28L11 31L12 31L12 32L14 32L14 30L13 30L13 29L12 29L12 28ZM18 28L18 29L17 29L17 30L18 30L18 29L19 29L19 28ZM8 30L8 31L9 31L9 32L10 32L10 31L9 31L9 30ZM12 30L12 31L13 31L13 30ZM40 30L40 31L41 31L41 30ZM3 32L3 33L5 33L5 32ZM15 32L15 33L16 33L16 32ZM37 32L37 33L38 33L38 32ZM33 33L33 36L36 36L36 33ZM21 34L21 35L22 35L22 34ZM34 34L34 35L35 35L35 34ZM9 35L9 36L8 36L8 38L9 38L9 39L8 39L8 41L10 41L10 37L9 37L9 36L10 36L10 35ZM14 37L14 39L16 39L16 37ZM33 37L33 38L32 38L32 40L33 40L33 39L34 39L34 40L35 40L35 39L36 39L36 38L37 38L37 37L36 37L36 38L35 38L35 37ZM22 39L22 41L26 41L26 40L23 40L23 39ZM17 40L17 41L18 41L18 40ZM0 0L0 7L7 7L7 0ZM1 1L1 6L6 6L6 1ZM2 2L2 5L5 5L5 2ZM34 0L34 7L41 7L41 0ZM35 1L35 6L40 6L40 1ZM36 2L36 5L39 5L39 2ZM0 34L0 41L7 41L7 34ZM1 35L1 40L6 40L6 35ZM2 36L2 39L5 39L5 36Z" fill="#000000"/></g></g></svg>
