<?xml version="1.0" encoding="UTF-8"?>
<svg xmlns="http://www.w3.org/2000/svg" version="1.1" width="300" height="300" viewBox="0 0 300 300"><rect x="0" y="0" width="300" height="300" fill="#ffffff"/><g transform="scale(7.317)"><g transform="translate(0,0)"><path fill-rule="evenodd" d="M16 0L16 3L19 3L19 4L18 4L18 5L16 5L16 4L15 4L15 5L14 5L14 7L15 7L15 5L16 5L16 7L17 7L17 6L18 6L18 8L15 8L15 11L14 11L14 12L13 12L13 10L12 10L12 9L14 9L14 8L12 8L12 7L13 7L13 3L14 3L14 2L15 2L15 1L13 1L13 3L12 3L12 2L11 2L11 3L8 3L8 5L9 5L9 6L8 6L8 7L9 7L9 8L10 8L10 9L9 9L9 10L8 10L8 11L7 11L7 10L6 10L6 9L8 9L8 8L5 8L5 10L6 10L6 11L4 11L4 10L2 10L2 11L1 11L1 12L0 12L0 13L1 13L1 12L2 12L2 15L0 15L0 18L1 18L1 19L0 19L0 20L1 20L1 22L0 22L0 23L1 23L1 24L0 24L0 26L1 26L1 25L2 25L2 23L3 23L3 24L4 24L4 25L3 25L3 26L4 26L4 27L0 27L0 28L2 28L2 29L4 29L4 27L5 27L5 30L6 30L6 31L4 31L4 30L1 30L1 29L0 29L0 33L1 33L1 31L4 31L4 33L5 33L5 32L6 32L6 33L8 33L8 36L10 36L10 37L9 37L9 39L8 39L8 41L9 41L9 39L10 39L10 38L11 38L11 37L12 37L12 38L13 38L13 37L14 37L14 35L16 35L16 36L15 36L15 37L16 37L16 36L17 36L17 37L18 37L18 38L14 38L14 39L16 39L16 40L15 40L15 41L16 41L16 40L17 40L17 39L18 39L18 38L19 38L19 37L21 37L21 38L20 38L20 40L21 40L21 38L22 38L22 41L23 41L23 40L24 40L24 41L30 41L30 40L32 40L32 39L31 39L31 38L29 38L29 35L30 35L30 32L29 32L29 30L31 30L31 31L32 31L32 34L31 34L31 35L32 35L32 36L31 36L31 37L35 37L35 38L34 38L34 40L33 40L33 41L36 41L36 39L37 39L37 38L38 38L38 40L37 40L37 41L39 41L39 38L38 38L38 36L37 36L37 35L39 35L39 34L38 34L38 33L39 33L39 32L40 32L40 34L41 34L41 29L40 29L40 31L39 31L39 32L37 32L37 31L38 31L38 29L39 29L39 28L41 28L41 27L40 27L40 26L41 26L41 25L40 25L40 24L39 24L39 25L38 25L38 29L36 29L36 28L37 28L37 25L36 25L36 26L35 26L35 24L33 24L33 23L34 23L34 22L33 22L33 21L34 21L34 20L35 20L35 21L36 21L36 22L37 22L37 23L36 23L36 24L37 24L37 23L38 23L38 22L37 22L37 21L39 21L39 22L40 22L40 20L41 20L41 17L39 17L39 14L41 14L41 13L40 13L40 9L38 9L38 8L36 8L36 10L35 10L35 12L33 12L33 14L32 14L32 13L31 13L31 12L32 12L32 11L31 11L31 10L33 10L33 8L31 8L31 5L32 5L32 7L33 7L33 5L32 5L32 3L31 3L31 1L30 1L30 0L29 0L29 1L28 1L28 3L27 3L27 4L26 4L26 3L25 3L25 2L27 2L27 0L26 0L26 1L24 1L24 2L23 2L23 0L21 0L21 1L20 1L20 3L19 3L19 2L18 2L18 1L19 1L19 0L18 0L18 1L17 1L17 0ZM32 0L32 1L33 1L33 0ZM21 1L21 2L22 2L22 3L23 3L23 4L22 4L22 5L21 5L21 3L20 3L20 4L19 4L19 8L18 8L18 9L17 9L17 12L20 12L20 10L21 10L21 9L22 9L22 6L23 6L23 7L24 7L24 5L23 5L23 4L25 4L25 8L23 8L23 9L24 9L24 10L23 10L23 12L24 12L24 13L25 13L25 16L24 16L24 14L22 14L22 11L21 11L21 14L20 14L20 13L17 13L17 14L16 14L16 13L15 13L15 15L16 15L16 16L14 16L14 13L12 13L12 10L11 10L11 9L10 9L10 12L11 12L11 14L10 14L10 16L11 16L11 14L13 14L13 15L12 15L12 17L13 17L13 16L14 16L14 17L16 17L16 19L15 19L15 18L13 18L13 19L12 19L12 20L11 20L11 18L10 18L10 17L9 17L9 20L10 20L10 21L11 21L11 24L9 24L9 21L8 21L8 20L7 20L7 19L6 19L6 18L8 18L8 17L6 17L6 16L9 16L9 15L8 15L8 14L7 14L7 13L9 13L9 12L7 12L7 11L6 11L6 12L7 12L7 13L6 13L6 14L7 14L7 15L5 15L5 18L4 18L4 17L3 17L3 16L4 16L4 14L5 14L5 12L4 12L4 11L2 11L2 12L3 12L3 16L2 16L2 17L1 17L1 18L2 18L2 19L3 19L3 18L4 18L4 19L5 19L5 20L2 20L2 21L4 21L4 22L3 22L3 23L4 23L4 22L5 22L5 23L6 23L6 24L5 24L5 25L4 25L4 26L5 26L5 27L6 27L6 28L7 28L7 29L6 29L6 30L11 30L11 31L6 31L6 32L8 32L8 33L11 33L11 31L12 31L12 33L13 33L13 32L14 32L14 34L16 34L16 35L17 35L17 33L19 33L19 34L18 34L18 35L20 35L20 34L22 34L22 31L21 31L21 33L19 33L19 31L20 31L20 29L25 29L25 30L24 30L24 31L23 31L23 32L24 32L24 34L23 34L23 37L27 37L27 36L28 36L28 35L27 35L27 36L26 36L26 33L25 33L25 32L26 32L26 31L25 31L25 30L27 30L27 29L25 29L25 28L26 28L26 27L27 27L27 24L28 24L28 23L26 23L26 21L25 21L25 20L26 20L26 19L27 19L27 21L28 21L28 22L29 22L29 26L28 26L28 27L29 27L29 28L28 28L28 29L29 29L29 28L30 28L30 29L31 29L31 28L30 28L30 27L32 27L32 28L34 28L34 29L35 29L35 30L33 30L33 29L32 29L32 31L33 31L33 32L34 32L34 31L35 31L35 30L36 30L36 31L37 31L37 30L36 30L36 29L35 29L35 28L36 28L36 27L34 27L34 25L33 25L33 24L32 24L32 22L31 22L31 24L32 24L32 26L30 26L30 21L28 21L28 20L31 20L31 21L32 21L32 20L34 20L34 18L33 18L33 17L32 17L32 16L34 16L34 17L35 17L35 18L36 18L36 19L35 19L35 20L36 20L36 21L37 21L37 20L39 20L39 19L37 19L37 18L39 18L39 17L37 17L37 16L38 16L38 14L39 14L39 10L36 10L36 11L38 11L38 12L37 12L37 13L38 13L38 14L37 14L37 16L36 16L36 14L35 14L35 15L34 15L34 14L33 14L33 15L32 15L32 14L31 14L31 13L30 13L30 12L31 12L31 11L30 11L30 10L31 10L31 9L30 9L30 10L29 10L29 9L28 9L28 8L27 8L27 7L28 7L28 4L27 4L27 7L26 7L26 4L25 4L25 3L23 3L23 2L22 2L22 1ZM29 1L29 3L30 3L30 1ZM11 3L11 5L10 5L10 6L9 6L9 7L10 7L10 6L11 6L11 7L12 7L12 3ZM29 4L29 8L30 8L30 5L31 5L31 4ZM20 5L20 7L21 7L21 5ZM0 8L0 10L1 10L1 9L2 9L2 8ZM25 8L25 9L26 9L26 12L27 12L27 11L28 11L28 10L27 10L27 8ZM18 9L18 11L19 11L19 10L20 10L20 9ZM24 10L24 11L25 11L25 10ZM28 13L28 14L26 14L26 15L27 15L27 16L25 16L25 19L26 19L26 18L27 18L27 19L28 19L28 18L29 18L29 19L30 19L30 18L29 18L29 17L31 17L31 19L32 19L32 17L31 17L31 16L32 16L32 15L31 15L31 14L30 14L30 16L29 16L29 15L28 15L28 14L29 14L29 13ZM19 14L19 19L16 19L16 22L15 22L15 20L14 20L14 19L13 19L13 20L14 20L14 22L15 22L15 23L14 23L14 26L15 26L15 29L14 29L14 30L12 30L12 31L14 31L14 32L16 32L16 33L17 33L17 31L18 31L18 29L20 29L20 27L22 27L22 28L25 28L25 27L26 27L26 26L25 26L25 25L24 25L24 24L25 24L25 21L24 21L24 17L23 17L23 16L22 16L22 17L23 17L23 18L21 18L21 16L20 16L20 14ZM40 15L40 16L41 16L41 15ZM16 16L16 17L17 17L17 18L18 18L18 16ZM35 16L35 17L36 17L36 18L37 18L37 17L36 17L36 16ZM2 17L2 18L3 18L3 17ZM21 19L21 21L22 21L22 22L21 22L21 23L20 23L20 21L19 21L19 20L17 20L17 22L18 22L18 21L19 21L19 24L21 24L21 26L22 26L22 27L25 27L25 26L23 26L23 24L22 24L22 23L24 23L24 22L23 22L23 19ZM36 19L36 20L37 20L37 19ZM5 20L5 21L7 21L7 22L6 22L6 23L8 23L8 21L7 21L7 20ZM12 21L12 22L13 22L13 21ZM1 22L1 23L2 23L2 22ZM12 23L12 24L11 24L11 25L9 25L9 24L6 24L6 25L7 25L7 26L6 26L6 27L7 27L7 26L12 26L12 27L10 27L10 29L11 29L11 28L12 28L12 29L13 29L13 25L12 25L12 24L13 24L13 23ZM15 23L15 24L17 24L17 25L16 25L16 27L17 27L17 28L16 28L16 29L15 29L15 31L16 31L16 29L18 29L18 28L19 28L19 27L20 27L20 26L19 26L19 25L18 25L18 23ZM18 26L18 27L19 27L19 26ZM29 26L29 27L30 27L30 26ZM8 28L8 29L9 29L9 28ZM27 31L27 32L28 32L28 34L29 34L29 32L28 32L28 31ZM2 32L2 33L3 33L3 32ZM33 33L33 36L36 36L36 33ZM9 34L9 35L10 35L10 34ZM11 34L11 36L12 36L12 37L13 37L13 34ZM24 34L24 35L25 35L25 34ZM34 34L34 35L35 35L35 34ZM21 35L21 37L22 37L22 35ZM40 35L40 38L41 38L41 35ZM18 36L18 37L19 37L19 36ZM36 37L36 38L35 38L35 39L36 39L36 38L37 38L37 37ZM23 38L23 39L24 39L24 38ZM25 38L25 40L27 40L27 38ZM28 38L28 39L29 39L29 40L30 40L30 39L29 39L29 38ZM12 39L12 40L13 40L13 41L14 41L14 40L13 40L13 39ZM40 39L40 40L41 40L41 39ZM10 40L10 41L11 41L11 40ZM0 0L0 7L7 7L7 0ZM1 1L1 6L6 6L6 1ZM2 2L2 5L5 5L5 2ZM34 0L34 7L41 7L41 0ZM35 1L35 6L40 6L40 1ZM36 2L36 5L39 5L39 2ZM0 34L0 41L7 41L7 34ZM1 35L1 40L6 40L6 35ZM2 36L2 39L5 39L5 36Z" fill="#000000"/></g></g></svg>
