<?xml version="1.0" encoding="UTF-8"?>
<svg xmlns="http://www.w3.org/2000/svg" version="1.1" width="300" height="300" viewBox="0 0 300 300"><rect x="0" y="0" width="300" height="300" fill="#ffffff"/><g transform="scale(7.317)"><g transform="translate(0,0)"><path fill-rule="evenodd" d="M9 0L9 1L8 1L8 2L9 2L9 3L8 3L8 4L9 4L9 5L8 5L8 7L9 7L9 5L10 5L10 9L9 9L9 8L6 8L6 9L5 9L5 8L0 8L0 9L1 9L1 13L0 13L0 14L1 14L1 16L0 16L0 18L1 18L1 16L2 16L2 18L3 18L3 20L2 20L2 19L0 19L0 21L1 21L1 20L2 20L2 21L3 21L3 22L5 22L5 21L7 21L7 20L6 20L6 19L7 19L7 18L6 18L6 19L5 19L5 18L4 18L4 17L8 17L8 18L9 18L9 17L10 17L10 20L9 20L9 19L8 19L8 20L9 20L9 22L10 22L10 24L6 24L6 25L5 25L5 26L3 26L3 25L4 25L4 24L5 24L5 23L4 23L4 24L2 24L2 23L1 23L1 22L0 22L0 26L1 26L1 27L2 27L2 26L3 26L3 27L4 27L4 29L3 29L3 28L2 28L2 29L3 29L3 30L2 30L2 31L3 31L3 33L4 33L4 32L5 32L5 30L4 30L4 29L5 29L5 26L6 26L6 27L7 27L7 28L6 28L6 29L7 29L7 28L9 28L9 29L11 29L11 28L12 28L12 29L13 29L13 28L12 28L12 27L11 27L11 26L13 26L13 25L14 25L14 26L15 26L15 27L14 27L14 28L15 28L15 29L14 29L14 30L18 30L18 29L20 29L20 30L19 30L19 33L17 33L17 31L16 31L16 33L14 33L14 32L15 32L15 31L14 31L14 32L13 32L13 33L12 33L12 31L13 31L13 30L10 30L10 31L11 31L11 33L10 33L10 36L8 36L8 41L9 41L9 40L10 40L10 41L11 41L11 40L10 40L10 39L11 39L11 36L12 36L12 35L11 35L11 34L13 34L13 36L14 36L14 37L15 37L15 38L13 38L13 37L12 37L12 38L13 38L13 39L12 39L12 40L13 40L13 41L14 41L14 40L15 40L15 41L16 41L16 39L18 39L18 38L19 38L19 37L18 37L18 38L16 38L16 37L17 37L17 36L22 36L22 35L21 35L21 34L22 34L22 33L23 33L23 34L24 34L24 35L25 35L25 34L24 34L24 32L23 32L23 31L22 31L22 30L25 30L25 29L28 29L28 30L27 30L27 31L26 31L26 32L25 32L25 33L28 33L28 34L26 34L26 36L25 36L25 37L24 37L24 36L23 36L23 37L22 37L22 39L21 39L21 38L20 38L20 39L21 39L21 40L22 40L22 41L23 41L23 40L24 40L24 41L30 41L30 40L33 40L33 39L31 39L31 38L29 38L29 37L30 37L30 36L29 36L29 35L30 35L30 32L29 32L29 31L30 31L30 30L32 30L32 31L33 31L33 32L31 32L31 33L32 33L32 34L31 34L31 35L32 35L32 37L33 37L33 38L34 38L34 39L35 39L35 40L34 40L34 41L36 41L36 39L38 39L38 37L39 37L39 38L41 38L41 37L39 37L39 36L41 36L41 35L39 35L39 34L40 34L40 33L41 33L41 31L40 31L40 33L39 33L39 32L37 32L37 30L38 30L38 31L39 31L39 30L41 30L41 29L39 29L39 28L38 28L38 29L36 29L36 28L37 28L37 25L38 25L38 27L40 27L40 26L41 26L41 24L40 24L40 23L39 23L39 24L37 24L37 25L36 25L36 24L35 24L35 25L34 25L34 22L35 22L35 21L36 21L36 23L38 23L38 21L39 21L39 20L37 20L37 19L36 19L36 20L35 20L35 19L34 19L34 18L35 18L35 17L36 17L36 18L37 18L37 17L39 17L39 16L40 16L40 15L39 15L39 16L37 16L37 15L38 15L38 14L37 14L37 13L40 13L40 14L41 14L41 12L40 12L40 10L41 10L41 9L40 9L40 8L39 8L39 9L40 9L40 10L39 10L39 12L38 12L38 11L36 11L36 10L38 10L38 8L37 8L37 9L36 9L36 8L35 8L35 9L34 9L34 8L32 8L32 7L33 7L33 6L32 6L32 7L31 7L31 5L32 5L32 4L33 4L33 3L29 3L29 2L31 2L31 1L32 1L32 0L31 0L31 1L29 1L29 0L28 0L28 1L26 1L26 0L25 0L25 1L24 1L24 0L23 0L23 1L22 1L22 0L17 0L17 1L15 1L15 0L11 0L11 1L13 1L13 2L12 2L12 3L11 3L11 4L9 4L9 3L10 3L10 0ZM18 1L18 2L19 2L19 3L17 3L17 2L16 2L16 3L15 3L15 2L14 2L14 3L13 3L13 5L12 5L12 6L11 6L11 7L12 7L12 6L13 6L13 8L11 8L11 10L12 10L12 9L13 9L13 11L12 11L12 12L9 12L9 13L8 13L8 12L7 12L7 11L6 11L6 12L7 12L7 13L6 13L6 14L5 14L5 16L8 16L8 17L9 17L9 16L10 16L10 15L6 15L6 14L9 14L9 13L11 13L11 14L13 14L13 15L12 15L12 17L13 17L13 16L14 16L14 17L15 17L15 18L17 18L17 17L16 17L16 15L17 15L17 16L18 16L18 19L21 19L21 18L19 18L19 14L20 14L20 15L23 15L23 17L22 17L22 16L21 16L21 17L22 17L22 20L21 20L21 21L19 21L19 20L17 20L17 21L16 21L16 20L15 20L15 19L14 19L14 20L13 20L13 19L12 19L12 18L11 18L11 19L12 19L12 20L11 20L11 25L9 25L9 26L8 26L8 25L6 25L6 26L8 26L8 27L9 27L9 28L11 28L11 27L9 27L9 26L11 26L11 25L13 25L13 24L14 24L14 25L15 25L15 26L16 26L16 27L15 27L15 28L16 28L16 29L18 29L18 28L19 28L19 27L20 27L20 26L19 26L19 25L22 25L22 28L20 28L20 29L21 29L21 30L20 30L20 31L21 31L21 30L22 30L22 29L25 29L25 28L28 28L28 29L29 29L29 28L30 28L30 29L31 29L31 28L30 28L30 27L34 27L34 26L33 26L33 25L32 25L32 24L33 24L33 21L32 21L32 20L33 20L33 19L32 19L32 18L34 18L34 17L35 17L35 16L36 16L36 17L37 17L37 16L36 16L36 15L37 15L37 14L36 14L36 13L37 13L37 12L36 12L36 13L35 13L35 12L34 12L34 13L32 13L32 14L31 14L31 13L29 13L29 14L28 14L28 15L27 15L27 16L30 16L30 14L31 14L31 17L29 17L29 19L28 19L28 20L27 20L27 21L25 21L25 20L26 20L26 18L25 18L25 16L26 16L26 14L27 14L27 13L28 13L28 12L30 12L30 10L31 10L31 11L32 11L32 12L33 12L33 9L32 9L32 8L31 8L31 9L29 9L29 10L28 10L28 12L27 12L27 13L25 13L25 12L26 12L26 10L27 10L27 9L28 9L28 6L27 6L27 7L26 7L26 4L25 4L25 3L27 3L27 5L28 5L28 4L29 4L29 8L30 8L30 5L31 5L31 4L29 4L29 3L28 3L28 2L25 2L25 3L23 3L23 2L24 2L24 1L23 1L23 2L22 2L22 3L21 3L21 4L19 4L19 3L20 3L20 1ZM14 3L14 4L15 4L15 6L14 6L14 7L15 7L15 9L14 9L14 8L13 8L13 9L14 9L14 10L15 10L15 11L14 11L14 12L15 12L15 13L13 13L13 12L12 12L12 13L13 13L13 14L17 14L17 13L16 13L16 12L17 12L17 11L16 11L16 10L15 10L15 9L18 9L18 11L19 11L19 10L20 10L20 12L23 12L23 10L24 10L24 11L25 11L25 10L24 10L24 9L23 9L23 8L25 8L25 9L27 9L27 8L25 8L25 4L23 4L23 5L24 5L24 7L23 7L23 6L22 6L22 4L21 4L21 5L20 5L20 7L21 7L21 8L22 8L22 9L23 9L23 10L21 10L21 9L18 9L18 8L19 8L19 4L18 4L18 5L16 5L16 4L17 4L17 3L16 3L16 4L15 4L15 3ZM15 6L15 7L16 7L16 8L18 8L18 6L17 6L17 7L16 7L16 6ZM21 6L21 7L22 7L22 6ZM4 9L4 11L5 11L5 9ZM6 9L6 10L7 10L7 9ZM31 9L31 10L32 10L32 9ZM35 9L35 10L34 10L34 11L35 11L35 10L36 10L36 9ZM9 10L9 11L10 11L10 10ZM2 11L2 14L3 14L3 15L4 15L4 13L3 13L3 11ZM15 11L15 12L16 12L16 11ZM18 12L18 13L19 13L19 12ZM20 13L20 14L24 14L24 16L25 16L25 13ZM34 13L34 15L32 15L32 17L31 17L31 18L32 18L32 17L34 17L34 16L35 16L35 15L36 15L36 14L35 14L35 13ZM23 17L23 18L24 18L24 17ZM27 17L27 18L28 18L28 17ZM40 17L40 18L39 18L39 19L40 19L40 20L41 20L41 19L40 19L40 18L41 18L41 17ZM23 19L23 21L22 21L22 22L24 22L24 23L21 23L21 22L20 22L20 23L21 23L21 24L22 24L22 25L23 25L23 26L25 26L25 27L23 27L23 28L25 28L25 27L26 27L26 26L25 26L25 25L28 25L28 26L27 26L27 27L28 27L28 26L29 26L29 27L30 27L30 26L32 26L32 25L31 25L31 24L32 24L32 23L31 23L31 22L32 22L32 21L31 21L31 19L30 19L30 20L28 20L28 22L26 22L26 23L27 23L27 24L25 24L25 21L24 21L24 19ZM14 20L14 21L12 21L12 22L14 22L14 21L15 21L15 23L14 23L14 24L15 24L15 25L16 25L16 23L18 23L18 24L17 24L17 25L19 25L19 21L18 21L18 22L16 22L16 21L15 21L15 20ZM34 20L34 21L35 21L35 20ZM36 20L36 21L37 21L37 20ZM29 21L29 24L28 24L28 25L29 25L29 26L30 26L30 25L29 25L29 24L30 24L30 21ZM40 21L40 22L41 22L41 21ZM6 22L6 23L8 23L8 22ZM12 23L12 24L13 24L13 23ZM23 24L23 25L25 25L25 24ZM1 25L1 26L2 26L2 25ZM35 25L35 26L36 26L36 25ZM39 25L39 26L40 26L40 25ZM18 26L18 27L19 27L19 26ZM35 27L35 28L34 28L34 29L32 29L32 30L33 30L33 31L34 31L34 29L35 29L35 30L36 30L36 29L35 29L35 28L36 28L36 27ZM0 29L0 33L1 33L1 29ZM38 29L38 30L39 30L39 29ZM6 30L6 31L8 31L8 32L6 32L6 33L8 33L8 35L9 35L9 33L8 33L8 32L9 32L9 30ZM28 30L28 31L29 31L29 30ZM21 32L21 33L22 33L22 32ZM28 32L28 33L29 33L29 32ZM19 33L19 34L18 34L18 35L20 35L20 33ZM33 33L33 36L36 36L36 33ZM16 34L16 35L17 35L17 34ZM34 34L34 35L35 35L35 34ZM14 35L14 36L15 36L15 35ZM37 35L37 37L36 37L36 38L35 38L35 37L34 37L34 38L35 38L35 39L36 39L36 38L37 38L37 37L38 37L38 36L39 36L39 35ZM28 36L28 37L27 37L27 38L25 38L25 40L26 40L26 39L27 39L27 40L30 40L30 39L29 39L29 38L28 38L28 37L29 37L29 36ZM9 37L9 39L10 39L10 37ZM23 38L23 39L22 39L22 40L23 40L23 39L24 39L24 38ZM27 38L27 39L28 39L28 38ZM13 39L13 40L14 40L14 39ZM39 39L39 40L37 40L37 41L39 41L39 40L40 40L40 39ZM19 40L19 41L20 41L20 40ZM0 0L0 7L7 7L7 0ZM1 1L1 6L6 6L6 1ZM2 2L2 5L5 5L5 2ZM34 0L34 7L41 7L41 0ZM35 1L35 6L40 6L40 1ZM36 2L36 5L39 5L39 2ZM0 34L0 41L7 41L7 34ZM1 35L1 40L6 40L6 35ZM2 36L2 39L5 39L5 36Z" fill="#000000"/></g></g></svg>
