<?xml version="1.0" encoding="UTF-8"?>
<svg xmlns="http://www.w3.org/2000/svg" version="1.1" width="300" height="300" viewBox="0 0 300 300"><rect x="0" y="0" width="300" height="300" fill="#ffffff"/><g transform="scale(7.317)"><g transform="translate(0,0)"><path fill-rule="evenodd" d="M8 0L8 1L9 1L9 0ZM13 0L13 1L11 1L11 2L8 2L8 5L9 5L9 6L8 6L8 7L9 7L9 8L8 8L8 9L7 9L7 8L6 8L6 9L5 9L5 10L4 10L4 8L0 8L0 12L2 12L2 13L0 13L0 15L1 15L1 14L4 14L4 13L5 13L5 16L4 16L4 15L2 15L2 16L1 16L1 19L0 19L0 20L1 20L1 23L2 23L2 24L0 24L0 25L2 25L2 26L0 26L0 29L2 29L2 32L1 32L1 33L4 33L4 32L5 32L5 33L7 33L7 32L8 32L8 34L11 34L11 35L9 35L9 37L8 37L8 41L10 41L10 40L11 40L11 41L15 41L15 40L16 40L16 39L15 39L15 37L17 37L17 39L20 39L20 41L24 41L24 40L25 40L25 41L26 41L26 40L27 40L27 39L26 39L26 37L27 37L27 38L28 38L28 39L30 39L30 41L31 41L31 40L32 40L32 41L35 41L35 40L36 40L36 41L38 41L38 40L36 40L36 39L35 39L35 40L34 40L34 38L33 38L33 37L36 37L36 38L39 38L39 41L40 41L40 39L41 39L41 37L40 37L40 38L39 38L39 36L38 36L38 34L39 34L39 35L40 35L40 32L41 32L41 31L39 31L39 30L37 30L37 32L35 32L35 31L36 31L36 28L37 28L37 27L39 27L39 26L40 26L40 27L41 27L41 23L40 23L40 22L41 22L41 19L40 19L40 15L41 15L41 11L39 11L39 10L38 10L38 9L39 9L39 8L36 8L36 11L35 11L35 9L34 9L34 8L31 8L31 10L32 10L32 11L33 11L33 12L29 12L29 11L30 11L30 10L29 10L29 9L30 9L30 7L31 7L31 6L32 6L32 7L33 7L33 6L32 6L32 5L33 5L33 3L32 3L32 2L33 2L33 1L32 1L32 0L31 0L31 1L32 1L32 2L30 2L30 0L28 0L28 2L27 2L27 3L26 3L26 0L25 0L25 4L27 4L27 5L25 5L25 6L24 6L24 7L25 7L25 6L26 6L26 9L27 9L27 10L29 10L29 11L28 11L28 15L29 15L29 14L31 14L31 15L30 15L30 16L31 16L31 17L30 17L30 18L28 18L28 17L29 17L29 16L28 16L28 17L26 17L26 16L27 16L27 11L24 11L24 9L25 9L25 8L24 8L24 9L23 9L23 10L22 10L22 11L24 11L24 12L25 12L25 13L26 13L26 14L25 14L25 15L24 15L24 16L23 16L23 13L22 13L22 14L21 14L21 15L19 15L19 12L21 12L21 11L18 11L18 10L21 10L21 9L22 9L22 8L23 8L23 5L22 5L22 8L21 8L21 2L19 2L19 1L22 1L22 3L24 3L24 0L23 0L23 1L22 1L22 0L17 0L17 1L18 1L18 2L16 2L16 3L14 3L14 4L12 4L12 3L13 3L13 2L14 2L14 1L15 1L15 0ZM11 2L11 3L12 3L12 2ZM18 2L18 3L17 3L17 4L15 4L15 5L14 5L14 6L13 6L13 7L12 7L12 4L10 4L10 5L11 5L11 7L10 7L10 6L9 6L9 7L10 7L10 8L11 8L11 9L13 9L13 11L14 11L14 9L15 9L15 11L17 11L17 12L16 12L16 13L15 13L15 12L13 12L13 14L12 14L12 16L11 16L11 17L10 17L10 18L9 18L9 16L10 16L10 15L6 15L6 16L5 16L5 17L4 17L4 16L2 16L2 18L3 18L3 19L1 19L1 20L3 20L3 21L2 21L2 22L3 22L3 21L4 21L4 23L3 23L3 24L4 24L4 26L2 26L2 27L1 27L1 28L3 28L3 29L4 29L4 30L3 30L3 32L4 32L4 31L5 31L5 32L7 32L7 31L9 31L9 32L10 32L10 33L11 33L11 32L12 32L12 31L11 31L11 30L12 30L12 29L14 29L14 27L15 27L15 30L13 30L13 33L15 33L15 32L14 32L14 31L19 31L19 30L17 30L17 28L18 28L18 29L19 29L19 26L17 26L17 24L19 24L19 25L20 25L20 26L21 26L21 27L22 27L22 31L21 31L21 30L20 30L20 32L19 32L19 35L18 35L18 34L14 34L14 35L11 35L11 37L10 37L10 39L9 39L9 40L10 40L10 39L11 39L11 40L12 40L12 38L13 38L13 40L14 40L14 36L17 36L17 37L18 37L18 38L20 38L20 37L23 37L23 38L22 38L22 40L23 40L23 39L25 39L25 40L26 40L26 39L25 39L25 36L24 36L24 35L27 35L27 36L28 36L28 37L29 37L29 36L30 36L30 37L31 37L31 38L30 38L30 39L31 39L31 38L32 38L32 39L33 39L33 38L32 38L32 36L30 36L30 34L32 34L32 33L30 33L30 34L29 34L29 35L28 35L28 31L29 31L29 29L30 29L30 31L32 31L32 32L34 32L34 30L35 30L35 28L36 28L36 27L37 27L37 26L39 26L39 25L37 25L37 22L36 22L36 21L35 21L35 22L33 22L33 21L34 21L34 20L33 20L33 21L32 21L32 22L30 22L30 21L31 21L31 20L32 20L32 18L33 18L33 17L34 17L34 19L36 19L36 20L37 20L37 21L38 21L38 22L40 22L40 20L39 20L39 21L38 21L38 19L39 19L39 14L37 14L37 12L39 12L39 11L38 11L38 10L37 10L37 11L36 11L36 14L37 14L37 16L38 16L38 18L37 18L37 17L36 17L36 15L35 15L35 14L34 14L34 15L35 15L35 16L33 16L33 14L32 14L32 15L31 15L31 16L32 16L32 17L31 17L31 20L30 20L30 21L29 21L29 19L26 19L26 17L25 17L25 18L22 18L22 17L21 17L21 16L20 16L20 17L19 17L19 18L18 18L18 19L17 19L17 20L16 20L16 19L15 19L15 20L16 20L16 22L15 22L15 21L14 21L14 22L13 22L13 23L11 23L11 26L10 26L10 25L9 25L9 23L5 23L5 20L7 20L7 21L6 21L6 22L7 22L7 21L8 21L8 22L12 22L12 18L14 18L14 17L12 17L12 16L16 16L16 15L14 15L14 14L16 14L16 13L18 13L18 11L17 11L17 10L18 10L18 9L17 9L17 7L18 7L18 8L20 8L20 9L21 9L21 8L20 8L20 6L19 6L19 5L20 5L20 4L19 4L19 2ZM28 2L28 3L27 3L27 4L29 4L29 3L30 3L30 2ZM17 4L17 6L16 6L16 7L17 7L17 6L18 6L18 7L19 7L19 6L18 6L18 4ZM27 5L27 7L28 7L28 6L29 6L29 7L30 7L30 6L31 6L31 5ZM14 6L14 7L15 7L15 6ZM28 8L28 9L29 9L29 8ZM40 8L40 10L41 10L41 8ZM1 9L1 11L3 11L3 9ZM6 9L6 10L7 10L7 11L5 11L5 12L8 12L8 14L9 14L9 11L8 11L8 10L9 10L9 9L8 9L8 10L7 10L7 9ZM32 9L32 10L33 10L33 11L34 11L34 10L33 10L33 9ZM10 10L10 11L12 11L12 10ZM3 12L3 13L4 13L4 12ZM10 12L10 13L11 13L11 12ZM34 12L34 13L35 13L35 12ZM6 13L6 14L7 14L7 13ZM17 14L17 17L18 17L18 16L19 16L19 15L18 15L18 14ZM25 15L25 16L26 16L26 15ZM6 16L6 17L5 17L5 19L4 19L4 20L5 20L5 19L8 19L8 20L10 20L10 21L11 21L11 20L10 20L10 19L11 19L11 18L12 18L12 17L11 17L11 18L10 18L10 19L8 19L8 18L6 18L6 17L7 17L7 16ZM20 17L20 18L21 18L21 19L22 19L22 18L21 18L21 17ZM19 19L19 20L18 20L18 22L19 22L19 20L20 20L20 21L22 21L22 22L21 22L21 23L22 23L22 22L23 22L23 24L22 24L22 25L23 25L23 24L24 24L24 22L25 22L25 19L24 19L24 20L20 20L20 19ZM26 20L26 21L28 21L28 23L30 23L30 22L29 22L29 21L28 21L28 20ZM14 22L14 23L13 23L13 25L14 25L14 23L15 23L15 22ZM16 22L16 24L15 24L15 26L16 26L16 27L17 27L17 26L16 26L16 24L17 24L17 22ZM32 22L32 23L31 23L31 24L29 24L29 25L28 25L28 24L26 24L26 23L25 23L25 25L26 25L26 26L28 26L28 27L30 27L30 29L32 29L32 28L35 28L35 27L36 27L36 24L35 24L35 23L34 23L34 24L32 24L32 23L33 23L33 22ZM4 23L4 24L5 24L5 23ZM19 23L19 24L20 24L20 23ZM38 23L38 24L40 24L40 23ZM6 24L6 25L8 25L8 24ZM34 24L34 25L33 25L33 26L32 26L32 27L33 27L33 26L34 26L34 27L35 27L35 26L34 26L34 25L35 25L35 24ZM30 25L30 26L31 26L31 25ZM4 26L4 27L5 27L5 26ZM6 26L6 27L8 27L8 26ZM9 26L9 27L10 27L10 28L6 28L6 29L9 29L9 30L10 30L10 29L12 29L12 28L11 28L11 27L10 27L10 26ZM13 26L13 27L14 27L14 26ZM22 26L22 27L23 27L23 30L24 30L24 29L25 29L25 30L26 30L26 28L25 28L25 26L24 26L24 27L23 27L23 26ZM39 28L39 29L40 29L40 28ZM27 29L27 31L28 31L28 29ZM33 29L33 30L32 30L32 31L33 31L33 30L34 30L34 29ZM0 30L0 31L1 31L1 30ZM5 30L5 31L7 31L7 30ZM10 31L10 32L11 32L11 31ZM22 31L22 32L20 32L20 34L22 34L22 36L23 36L23 37L24 37L24 36L23 36L23 35L24 35L24 33L25 33L25 31ZM16 32L16 33L18 33L18 32ZM22 32L22 34L23 34L23 32ZM26 32L26 33L27 33L27 32ZM38 32L38 33L39 33L39 32ZM33 33L33 36L36 36L36 33ZM34 34L34 35L35 35L35 34ZM17 35L17 36L18 36L18 35ZM20 35L20 36L21 36L21 35ZM37 36L37 37L38 37L38 36ZM11 37L11 38L12 38L12 37ZM17 40L17 41L19 41L19 40ZM28 40L28 41L29 41L29 40ZM0 0L0 7L7 7L7 0ZM1 1L1 6L6 6L6 1ZM2 2L2 5L5 5L5 2ZM34 0L34 7L41 7L41 0ZM35 1L35 6L40 6L40 1ZM36 2L36 5L39 5L39 2ZM0 34L0 41L7 41L7 34ZM1 35L1 40L6 40L6 35ZM2 36L2 39L5 39L5 36Z" fill="#000000"/></g></g></svg>
