<?xml version="1.0" encoding="UTF-8"?>
<svg xmlns="http://www.w3.org/2000/svg" version="1.1" width="300" height="300" viewBox="0 0 300 300"><rect x="0" y="0" width="300" height="300" fill="#ffffff"/><g transform="scale(7.317)"><g transform="translate(0,0)"><path fill-rule="evenodd" d="M9 0L9 1L13 1L13 3L11 3L11 2L9 2L9 3L8 3L8 5L10 5L10 7L9 7L9 6L8 6L8 7L9 7L9 10L10 10L10 11L11 11L11 12L12 12L12 13L14 13L14 14L15 14L15 13L16 13L16 14L17 14L17 13L20 13L20 14L19 14L19 19L16 19L16 17L17 17L17 18L18 18L18 16L16 16L16 15L14 15L14 16L13 16L13 17L12 17L12 15L13 15L13 14L11 14L11 16L10 16L10 14L9 14L9 13L10 13L10 12L9 12L9 11L8 11L8 12L6 12L6 11L7 11L7 10L6 10L6 9L8 9L8 8L5 8L5 12L4 12L4 13L7 13L7 14L3 14L3 15L2 15L2 16L1 16L1 17L0 17L0 21L2 21L2 20L1 20L1 18L2 18L2 16L3 16L3 17L4 17L4 18L3 18L3 19L4 19L4 20L3 20L3 21L4 21L4 20L6 20L6 21L7 21L7 22L6 22L6 23L7 23L7 24L3 24L3 23L2 23L2 24L1 24L1 25L0 25L0 27L1 27L1 26L2 26L2 27L4 27L4 28L0 28L0 33L1 33L1 31L2 31L2 32L4 32L4 33L8 33L8 36L10 36L10 37L9 37L9 38L10 38L10 39L8 39L8 41L9 41L9 40L10 40L10 39L11 39L11 37L12 37L12 38L13 38L13 37L14 37L14 35L16 35L16 36L15 36L15 37L16 37L16 36L17 36L17 37L18 37L18 38L14 38L14 40L13 40L13 39L12 39L12 40L13 40L13 41L14 41L14 40L15 40L15 41L16 41L16 40L17 40L17 39L18 39L18 38L19 38L19 37L21 37L21 38L22 38L22 41L23 41L23 40L24 40L24 41L30 41L30 40L32 40L32 39L31 39L31 38L29 38L29 35L30 35L30 32L29 32L29 30L31 30L31 32L32 32L32 34L31 34L31 35L32 35L32 36L31 36L31 37L35 37L35 38L34 38L34 39L35 39L35 41L36 41L36 39L37 39L37 38L38 38L38 40L37 40L37 41L39 41L39 38L38 38L38 36L37 36L37 35L39 35L39 34L38 34L38 33L37 33L37 32L38 32L38 31L37 31L37 29L36 29L36 28L37 28L37 25L36 25L36 26L35 26L35 24L37 24L37 23L38 23L38 22L40 22L40 21L39 21L39 20L41 20L41 17L39 17L39 18L37 18L37 17L36 17L36 16L39 16L39 15L38 15L38 14L41 14L41 13L40 13L40 12L39 12L39 13L38 13L38 14L37 14L37 13L36 13L36 14L35 14L35 12L38 12L38 11L36 11L36 10L39 10L39 11L40 11L40 9L38 9L38 8L36 8L36 10L35 10L35 12L34 12L34 11L33 11L33 14L34 14L34 15L36 15L36 16L35 16L35 17L34 17L34 16L32 16L32 17L31 17L31 14L32 14L32 13L31 13L31 12L32 12L32 11L31 11L31 10L33 10L33 8L32 8L32 9L31 9L31 5L32 5L32 7L33 7L33 5L32 5L32 3L29 3L29 1L28 1L28 3L27 3L27 4L26 4L26 3L25 3L25 2L27 2L27 0L26 0L26 1L24 1L24 2L23 2L23 0L21 0L21 1L20 1L20 3L19 3L19 2L18 2L18 1L19 1L19 0L18 0L18 1L17 1L17 0L16 0L16 2L17 2L17 3L19 3L19 4L18 4L18 5L16 5L16 4L15 4L15 5L13 5L13 3L14 3L14 2L15 2L15 1L13 1L13 0ZM32 0L32 1L33 1L33 0ZM21 1L21 2L22 2L22 3L23 3L23 4L22 4L22 5L21 5L21 3L20 3L20 4L19 4L19 8L18 8L18 6L17 6L17 7L16 7L16 5L15 5L15 7L14 7L14 6L13 6L13 7L12 7L12 6L11 6L11 7L10 7L10 10L11 10L11 11L13 11L13 12L14 12L14 11L15 11L15 8L18 8L18 9L17 9L17 10L16 10L16 11L17 11L17 12L20 12L20 10L21 10L21 9L22 9L22 6L23 6L23 7L24 7L24 5L23 5L23 4L25 4L25 8L23 8L23 9L24 9L24 10L23 10L23 12L24 12L24 13L25 13L25 16L24 16L24 14L22 14L22 11L21 11L21 14L20 14L20 16L21 16L21 18L23 18L23 17L24 17L24 21L25 21L25 24L24 24L24 25L25 25L25 26L23 26L23 24L22 24L22 23L24 23L24 22L23 22L23 19L21 19L21 21L22 21L22 22L21 22L21 23L20 23L20 21L19 21L19 20L17 20L17 22L18 22L18 21L19 21L19 24L21 24L21 26L22 26L22 27L20 27L20 26L19 26L19 25L18 25L18 23L15 23L15 24L17 24L17 25L16 25L16 27L17 27L17 28L16 28L16 29L15 29L15 26L14 26L14 20L15 20L15 22L16 22L16 19L15 19L15 18L13 18L13 19L12 19L12 20L10 20L10 19L11 19L11 18L10 18L10 16L9 16L9 14L7 14L7 15L5 15L5 18L4 18L4 19L5 19L5 18L7 18L7 19L6 19L6 20L7 20L7 21L8 21L8 22L7 22L7 23L9 23L9 21L8 21L8 20L7 20L7 19L8 19L8 17L9 17L9 18L10 18L10 19L9 19L9 20L10 20L10 23L11 23L11 24L12 24L12 25L13 25L13 29L12 29L12 26L11 26L11 25L10 25L10 26L11 26L11 28L10 28L10 27L8 27L8 26L9 26L9 24L8 24L8 25L3 25L3 24L2 24L2 26L4 26L4 27L6 27L6 28L7 28L7 29L6 29L6 30L5 30L5 28L4 28L4 29L3 29L3 31L4 31L4 32L5 32L5 31L6 31L6 32L8 32L8 33L9 33L9 34L10 34L10 35L11 35L11 36L12 36L12 37L13 37L13 36L12 36L12 35L13 35L13 34L11 34L11 33L9 33L9 32L10 32L10 31L12 31L12 33L13 33L13 32L14 32L14 34L16 34L16 35L17 35L17 33L19 33L19 34L18 34L18 35L20 35L20 34L21 34L21 37L22 37L22 35L23 35L23 37L27 37L27 36L28 36L28 35L27 35L27 36L26 36L26 33L25 33L25 32L26 32L26 31L25 31L25 30L27 30L27 29L25 29L25 28L26 28L26 27L27 27L27 24L28 24L28 23L26 23L26 21L25 21L25 20L26 20L26 19L27 19L27 21L28 21L28 22L29 22L29 26L28 26L28 27L29 27L29 28L28 28L28 29L29 29L29 28L30 28L30 29L31 29L31 28L30 28L30 27L32 27L32 28L34 28L34 29L35 29L35 30L33 30L33 29L32 29L32 30L33 30L33 32L34 32L34 31L35 31L35 32L36 32L36 31L35 31L35 30L36 30L36 29L35 29L35 28L36 28L36 27L34 27L34 25L33 25L33 24L35 24L35 23L36 23L36 21L37 21L37 20L39 20L39 19L37 19L37 18L36 18L36 17L35 17L35 18L36 18L36 19L34 19L34 21L33 21L33 22L34 22L34 23L32 23L32 22L31 22L31 24L32 24L32 26L30 26L30 21L28 21L28 20L30 20L30 19L31 19L31 21L32 21L32 20L33 20L33 17L32 17L32 19L31 19L31 17L29 17L29 18L28 18L28 19L27 19L27 18L26 18L26 19L25 19L25 16L27 16L27 15L26 15L26 14L28 14L28 15L29 15L29 16L30 16L30 14L31 14L31 13L30 13L30 12L31 12L31 11L30 11L30 10L31 10L31 9L30 9L30 10L29 10L29 9L28 9L28 8L27 8L27 7L28 7L28 4L27 4L27 7L26 7L26 4L25 4L25 3L23 3L23 2L22 2L22 1ZM30 1L30 2L31 2L31 1ZM9 3L9 4L11 4L11 5L12 5L12 4L11 4L11 3ZM29 4L29 8L30 8L30 5L31 5L31 4ZM20 5L20 7L21 7L21 5ZM11 7L11 10L12 10L12 7ZM0 8L0 9L1 9L1 10L2 10L2 13L1 13L1 11L0 11L0 15L1 15L1 14L2 14L2 13L3 13L3 11L4 11L4 9L2 9L2 8ZM13 8L13 9L14 9L14 8ZM25 8L25 9L26 9L26 12L27 12L27 11L28 11L28 10L27 10L27 8ZM18 9L18 11L19 11L19 10L20 10L20 9ZM24 10L24 11L25 11L25 10ZM28 13L28 14L29 14L29 13ZM36 14L36 15L37 15L37 14ZM3 15L3 16L4 16L4 15ZM40 15L40 16L41 16L41 15ZM6 16L6 17L7 17L7 16ZM14 16L14 17L16 17L16 16ZM22 16L22 17L23 17L23 16ZM29 18L29 19L30 19L30 18ZM13 19L13 20L14 20L14 19ZM36 19L36 20L35 20L35 21L36 21L36 20L37 20L37 19ZM12 21L12 22L13 22L13 21ZM12 23L12 24L13 24L13 23ZM39 24L39 25L38 25L38 29L39 29L39 28L41 28L41 27L40 27L40 26L41 26L41 25L40 25L40 24ZM6 26L6 27L7 27L7 28L8 28L8 30L6 30L6 31L8 31L8 32L9 32L9 31L8 31L8 30L10 30L10 29L9 29L9 28L8 28L8 27L7 27L7 26ZM18 26L18 27L19 27L19 28L18 28L18 29L16 29L16 31L15 31L15 29L13 29L13 30L12 30L12 31L15 31L15 32L16 32L16 33L17 33L17 31L18 31L18 29L20 29L20 31L19 31L19 33L21 33L21 31L22 31L22 34L24 34L24 35L25 35L25 34L24 34L24 32L23 32L23 31L24 31L24 30L25 30L25 29L20 29L20 27L19 27L19 26ZM25 26L25 27L22 27L22 28L25 28L25 27L26 27L26 26ZM29 26L29 27L30 27L30 26ZM1 29L1 30L2 30L2 29ZM40 29L40 31L39 31L39 32L40 32L40 34L41 34L41 29ZM4 30L4 31L5 31L5 30ZM27 31L27 32L28 32L28 34L29 34L29 32L28 32L28 31ZM33 33L33 36L36 36L36 33ZM34 34L34 35L35 35L35 34ZM40 35L40 38L41 38L41 35ZM18 36L18 37L19 37L19 36ZM36 37L36 38L35 38L35 39L36 39L36 38L37 38L37 37ZM23 38L23 39L24 39L24 38ZM25 38L25 40L27 40L27 38ZM28 38L28 39L29 39L29 40L30 40L30 39L29 39L29 38ZM15 39L15 40L16 40L16 39ZM19 39L19 40L20 40L20 39ZM40 39L40 40L41 40L41 39ZM0 0L0 7L7 7L7 0ZM1 1L1 6L6 6L6 1ZM2 2L2 5L5 5L5 2ZM34 0L34 7L41 7L41 0ZM35 1L35 6L40 6L40 1ZM36 2L36 5L39 5L39 2ZM0 34L0 41L7 41L7 34ZM1 35L1 40L6 40L6 35ZM2 36L2 39L5 39L5 36Z" fill="#000000"/></g></g></svg>
