<?xml version="1.0" encoding="UTF-8"?>
<svg xmlns="http://www.w3.org/2000/svg" version="1.1" width="300" height="300" viewBox="0 0 300 300"><rect x="0" y="0" width="300" height="300" fill="#ffffff"/><g transform="scale(8.108)"><g transform="translate(0,0)"><path fill-rule="evenodd" d="M8 0L8 1L11 1L11 3L10 3L10 2L9 2L9 3L10 3L10 5L9 5L9 6L8 6L8 8L9 8L9 10L6 10L6 9L7 9L7 8L6 8L6 9L5 9L5 8L3 8L3 9L2 9L2 8L0 8L0 9L2 9L2 10L0 10L0 11L1 11L1 12L0 12L0 13L1 13L1 12L2 12L2 10L3 10L3 9L5 9L5 11L4 11L4 12L3 12L3 14L0 14L0 15L3 15L3 14L5 14L5 15L4 15L4 17L2 17L2 16L0 16L0 17L2 17L2 18L1 18L1 19L0 19L0 23L1 23L1 24L0 24L0 29L1 29L1 27L2 27L2 29L4 29L4 28L6 28L6 29L8 29L8 30L9 30L9 31L10 31L10 30L11 30L11 31L12 31L12 33L14 33L14 36L13 36L13 37L15 37L15 35L17 35L17 36L18 36L18 37L20 37L20 36L21 36L21 35L20 35L20 36L19 36L19 34L21 34L21 31L22 31L22 33L23 33L23 34L22 34L22 37L23 37L23 36L24 36L24 37L25 37L25 35L26 35L26 36L27 36L27 35L28 35L28 34L27 34L27 33L29 33L29 34L32 34L32 36L33 36L33 37L34 37L34 36L36 36L36 37L37 37L37 32L36 32L36 31L37 31L37 30L36 30L36 28L37 28L37 26L36 26L36 25L37 25L37 22L36 22L36 21L37 21L37 18L36 18L36 20L35 20L35 21L34 21L34 22L33 22L33 18L32 18L32 19L31 19L31 18L29 18L29 19L28 19L28 16L27 16L27 17L26 17L26 16L25 16L25 17L26 17L26 18L22 18L22 19L23 19L23 20L22 20L22 21L21 21L21 20L19 20L19 21L18 21L18 20L17 20L17 19L18 19L18 17L15 17L15 18L12 18L12 17L13 17L13 16L15 16L15 15L16 15L16 12L18 12L18 11L16 11L16 10L18 10L18 9L16 9L16 8L15 8L15 3L14 3L14 2L13 2L13 1L14 1L14 0L13 0L13 1L12 1L12 0ZM16 0L16 1L19 1L19 3L20 3L20 4L19 4L19 5L18 5L18 3L17 3L17 2L16 2L16 3L17 3L17 5L16 5L16 7L17 7L17 5L18 5L18 8L19 8L19 10L20 10L20 9L22 9L22 11L23 11L23 12L24 12L24 13L23 13L23 14L24 14L24 13L25 13L25 12L24 12L24 9L25 9L25 8L26 8L26 9L27 9L27 10L25 10L25 11L26 11L26 13L27 13L27 14L26 14L26 15L29 15L29 14L30 14L30 16L29 16L29 17L32 17L32 16L31 16L31 15L33 15L33 14L36 14L36 16L35 16L35 15L34 15L34 19L35 19L35 17L37 17L37 14L36 14L36 11L37 11L37 10L34 10L34 9L32 9L32 12L33 12L33 13L31 13L31 10L30 10L30 9L31 9L31 8L30 8L30 9L29 9L29 10L28 10L28 8L29 8L29 1L28 1L28 2L27 2L27 0L26 0L26 1L25 1L25 3L24 3L24 4L25 4L25 5L23 5L23 2L22 2L22 0L21 0L21 1L19 1L19 0ZM12 2L12 4L14 4L14 3L13 3L13 2ZM26 3L26 4L27 4L27 8L28 8L28 3ZM20 4L20 5L19 5L19 8L20 8L20 6L21 6L21 8L22 8L22 9L24 9L24 8L22 8L22 6L23 6L23 7L24 7L24 6L23 6L23 5L22 5L22 4ZM10 5L10 6L9 6L9 7L10 7L10 9L11 9L11 11L10 11L10 10L9 10L9 12L11 12L11 16L9 16L9 14L10 14L10 13L8 13L8 12L7 12L7 11L6 11L6 12L7 12L7 13L5 13L5 12L4 12L4 13L5 13L5 14L7 14L7 13L8 13L8 17L9 17L9 19L10 19L10 17L11 17L11 16L12 16L12 15L14 15L14 14L15 14L15 13L13 13L13 12L14 12L14 9L12 9L12 6L13 6L13 8L14 8L14 6L13 6L13 5L12 5L12 6L11 6L11 5ZM25 5L25 7L26 7L26 5ZM10 6L10 7L11 7L11 6ZM36 8L36 9L37 9L37 8ZM12 10L12 11L13 11L13 10ZM33 10L33 12L34 12L34 13L35 13L35 12L34 12L34 10ZM15 11L15 12L16 12L16 11ZM19 11L19 12L20 12L20 13L22 13L22 12L21 12L21 11ZM27 11L27 12L29 12L29 11ZM12 13L12 14L13 14L13 13ZM17 13L17 15L18 15L18 16L20 16L20 17L19 17L19 19L21 19L21 18L20 18L20 17L24 17L24 16L23 16L23 15L22 15L22 14L21 14L21 15L22 15L22 16L20 16L20 14L19 14L19 13ZM30 13L30 14L31 14L31 13ZM18 14L18 15L19 15L19 14ZM5 15L5 17L4 17L4 20L5 20L5 21L2 21L2 20L1 20L1 22L4 22L4 23L3 23L3 25L2 25L2 24L1 24L1 25L2 25L2 27L4 27L4 26L5 26L5 27L6 27L6 28L7 28L7 27L10 27L10 26L13 26L13 25L10 25L10 24L11 24L11 23L10 23L10 22L12 22L12 23L13 23L13 22L12 22L12 21L13 21L13 19L12 19L12 18L11 18L11 19L12 19L12 21L10 21L10 20L9 20L9 21L8 21L8 18L7 18L7 17L6 17L6 16L7 16L7 15ZM5 17L5 18L6 18L6 19L5 19L5 20L6 20L6 21L5 21L5 22L6 22L6 23L5 23L5 24L4 24L4 25L5 25L5 26L6 26L6 27L7 27L7 26L6 26L6 25L7 25L7 24L8 24L8 23L7 23L7 22L8 22L8 21L7 21L7 20L6 20L6 19L7 19L7 18L6 18L6 17ZM26 18L26 19L27 19L27 18ZM14 19L14 25L15 25L15 20L16 20L16 21L17 21L17 20L16 20L16 19ZM24 19L24 20L25 20L25 21L24 21L24 23L21 23L21 24L20 24L20 25L19 25L19 23L20 23L20 22L18 22L18 24L16 24L16 26L18 26L18 25L19 25L19 26L20 26L20 25L21 25L21 28L20 28L20 27L19 27L19 28L18 28L18 27L17 27L17 29L20 29L20 31L21 31L21 30L25 30L25 31L24 31L24 32L25 32L25 33L24 33L24 35L25 35L25 33L26 33L26 32L27 32L27 31L28 31L28 27L29 27L29 28L32 28L32 27L33 27L33 28L34 28L34 27L35 27L35 28L36 28L36 27L35 27L35 25L36 25L36 24L34 24L34 23L33 23L33 22L32 22L32 20L31 20L31 21L30 21L30 19L29 19L29 20L27 20L27 21L26 21L26 20L25 20L25 19ZM6 21L6 22L7 22L7 21ZM16 22L16 23L17 23L17 22ZM25 22L25 23L28 23L28 24L29 24L29 23L28 23L28 22ZM35 22L35 23L36 23L36 22ZM6 23L6 24L5 24L5 25L6 25L6 24L7 24L7 23ZM9 23L9 24L10 24L10 23ZM31 23L31 24L30 24L30 25L25 25L25 27L26 27L26 26L27 26L27 27L28 27L28 26L30 26L30 27L32 27L32 26L34 26L34 25L32 25L32 24L33 24L33 23ZM22 24L22 27L23 27L23 29L26 29L26 28L24 28L24 27L23 27L23 24ZM30 25L30 26L31 26L31 25ZM14 26L14 27L12 27L12 28L11 28L11 29L14 29L14 28L16 28L16 27L15 27L15 26ZM8 28L8 29L9 29L9 30L10 30L10 29L9 29L9 28ZM29 29L29 32L32 32L32 29ZM34 29L34 31L33 31L33 33L32 33L32 34L34 34L34 35L33 35L33 36L34 36L34 35L36 35L36 34L34 34L34 33L35 33L35 31L36 31L36 30L35 30L35 29ZM12 30L12 31L13 31L13 32L14 32L14 31L15 31L15 30ZM18 30L18 31L16 31L16 33L17 33L17 35L18 35L18 34L19 34L19 33L20 33L20 32L19 32L19 30ZM26 30L26 31L25 31L25 32L26 32L26 31L27 31L27 30ZM30 30L30 31L31 31L31 30ZM8 32L8 34L10 34L10 35L8 35L8 37L11 37L11 34L10 34L10 33L9 33L9 32ZM17 32L17 33L18 33L18 32ZM12 34L12 35L13 35L13 34ZM30 35L30 37L31 37L31 35ZM28 36L28 37L29 37L29 36ZM0 0L0 7L7 7L7 0ZM1 1L1 6L6 6L6 1ZM2 2L2 5L5 5L5 2ZM30 0L30 7L37 7L37 0ZM31 1L31 6L36 6L36 1ZM32 2L32 5L35 5L35 2ZM0 30L0 37L7 37L7 30ZM1 31L1 36L6 36L6 31ZM2 32L2 35L5 35L5 32Z" fill="#000000"/></g></g></svg>
