<?xml version="1.0" encoding="UTF-8"?>
<svg xmlns="http://www.w3.org/2000/svg" version="1.1" width="300" height="300" viewBox="0 0 300 300"><rect x="0" y="0" width="300" height="300" fill="#ffffff"/><g transform="scale(8.108)"><g transform="translate(0,0)"><path fill-rule="evenodd" d="M9 0L9 1L8 1L8 2L9 2L9 3L8 3L8 4L10 4L10 7L11 7L11 4L12 4L12 5L13 5L13 6L12 6L12 9L13 9L13 8L14 8L14 9L17 9L17 11L18 11L18 9L17 9L17 8L16 8L16 7L17 7L17 6L18 6L18 8L20 8L20 9L19 9L19 10L20 10L20 11L19 11L19 13L18 13L18 12L16 12L16 10L15 10L15 11L14 11L14 12L15 12L15 13L12 13L12 11L13 11L13 10L10 10L10 9L11 9L11 8L6 8L6 9L8 9L8 10L5 10L5 8L0 8L0 10L1 10L1 11L0 11L0 15L1 15L1 13L2 13L2 16L0 16L0 18L2 18L2 17L3 17L3 18L4 18L4 19L0 19L0 20L3 20L3 21L4 21L4 23L3 23L3 22L2 22L2 21L0 21L0 22L1 22L1 23L0 23L0 24L1 24L1 25L0 25L0 29L1 29L1 26L2 26L2 27L3 27L3 26L2 26L2 24L4 24L4 28L2 28L2 29L4 29L4 28L5 28L5 29L8 29L8 31L9 31L9 32L8 32L8 37L9 37L9 36L11 36L11 37L12 37L12 35L13 35L13 34L11 34L11 32L10 32L10 30L11 30L11 29L12 29L12 30L13 30L13 31L12 31L12 33L13 33L13 32L14 32L14 33L18 33L18 32L14 32L14 31L16 31L16 30L15 30L15 29L18 29L18 30L20 30L20 29L21 29L21 28L22 28L22 27L23 27L23 28L24 28L24 29L22 29L22 30L21 30L21 31L19 31L19 32L20 32L20 33L19 33L19 34L15 34L15 35L14 35L14 36L16 36L16 37L19 37L19 36L20 36L20 37L21 37L21 36L22 36L22 35L23 35L23 34L24 34L24 33L25 33L25 35L24 35L24 36L23 36L23 37L27 37L27 36L29 36L29 37L37 37L37 32L36 32L36 31L37 31L37 30L35 30L35 28L34 28L34 27L36 27L36 28L37 28L37 26L36 26L36 25L37 25L37 22L36 22L36 21L37 21L37 18L36 18L36 17L37 17L37 14L36 14L36 13L35 13L35 12L34 12L34 11L35 11L35 9L36 9L36 8L35 8L35 9L34 9L34 8L33 8L33 9L34 9L34 11L32 11L32 12L31 12L31 10L30 10L30 8L29 8L29 6L28 6L28 5L29 5L29 4L28 4L28 2L29 2L29 0L28 0L28 1L27 1L27 2L26 2L26 3L24 3L24 4L22 4L22 5L21 5L21 4L19 4L19 5L17 5L17 6L16 6L16 5L14 5L14 4L12 4L12 2L14 2L14 1L15 1L15 2L17 2L17 1L15 1L15 0L14 0L14 1L11 1L11 2L10 2L10 0ZM18 0L18 1L24 1L24 0ZM25 0L25 1L26 1L26 0ZM20 2L20 3L22 3L22 2ZM10 3L10 4L11 4L11 3ZM15 3L15 4L18 4L18 3ZM24 4L24 5L23 5L23 7L24 7L24 5L25 5L25 8L27 8L27 7L28 7L28 6L27 6L27 7L26 7L26 5L28 5L28 4L26 4L26 5L25 5L25 4ZM8 5L8 7L9 7L9 5ZM19 5L19 7L20 7L20 8L21 8L21 7L22 7L22 6L21 6L21 5ZM13 6L13 7L14 7L14 8L15 8L15 7L16 7L16 6L15 6L15 7L14 7L14 6ZM20 6L20 7L21 7L21 6ZM23 8L23 9L22 9L22 10L21 10L21 11L22 11L22 10L23 10L23 12L26 12L26 13L27 13L27 14L28 14L28 15L29 15L29 16L28 16L28 17L27 17L27 18L28 18L28 17L30 17L30 18L29 18L29 22L28 22L28 24L27 24L27 22L26 22L26 21L24 21L24 22L23 22L23 19L24 19L24 20L27 20L27 21L28 21L28 19L26 19L26 17L25 17L25 16L26 16L26 15L25 15L25 13L24 13L24 14L23 14L23 13L22 13L22 14L23 14L23 15L22 15L22 16L23 16L23 17L24 17L24 18L21 18L21 16L18 16L18 15L21 15L21 14L18 14L18 15L17 15L17 16L15 16L15 15L14 15L14 16L13 16L13 17L12 17L12 15L13 15L13 14L12 14L12 13L10 13L10 12L11 12L11 11L10 11L10 10L8 10L8 12L7 12L7 11L6 11L6 12L5 12L5 10L4 10L4 12L3 12L3 14L8 14L8 15L6 15L6 16L5 16L5 17L6 17L6 18L5 18L5 19L4 19L4 20L5 20L5 21L6 21L6 22L5 22L5 25L6 25L6 26L5 26L5 28L8 28L8 29L9 29L9 30L10 30L10 29L11 29L11 27L10 27L10 26L13 26L13 27L12 27L12 29L15 29L15 28L14 28L14 27L15 27L15 26L16 26L16 28L18 28L18 29L20 29L20 28L21 28L21 27L20 27L20 26L21 26L21 25L23 25L23 27L24 27L24 28L26 28L26 27L27 27L27 26L28 26L28 24L29 24L29 22L30 22L30 24L31 24L31 25L30 25L30 26L29 26L29 27L28 27L28 28L27 28L27 29L24 29L24 30L22 30L22 32L21 32L21 33L20 33L20 34L19 34L19 35L21 35L21 33L23 33L23 31L24 31L24 32L26 32L26 31L27 31L27 32L28 32L28 30L27 30L27 29L28 29L28 28L33 28L33 27L34 27L34 26L35 26L35 25L34 25L34 24L36 24L36 23L34 23L34 24L33 24L33 25L32 25L32 24L31 24L31 23L32 23L32 22L33 22L33 21L34 21L34 22L35 22L35 21L34 21L34 20L36 20L36 19L35 19L35 17L36 17L36 14L35 14L35 15L34 15L34 13L30 13L30 10L29 10L29 12L28 12L28 13L27 13L27 12L26 12L26 11L27 11L27 10L28 10L28 9L27 9L27 10L26 10L26 9L24 9L24 8ZM31 8L31 9L32 9L32 8ZM2 9L2 10L3 10L3 9ZM23 9L23 10L24 10L24 9ZM25 10L25 11L26 11L26 10ZM36 10L36 11L37 11L37 10ZM1 11L1 12L2 12L2 11ZM6 12L6 13L7 13L7 12ZM20 12L20 13L21 13L21 12ZM15 13L15 14L17 14L17 13ZM28 13L28 14L30 14L30 17L33 17L33 18L34 18L34 17L35 17L35 16L34 16L34 15L33 15L33 14L32 14L32 16L31 16L31 14L30 14L30 13ZM10 14L10 15L9 15L9 16L11 16L11 14ZM3 15L3 17L4 17L4 15ZM6 16L6 17L7 17L7 16ZM14 16L14 17L15 17L15 16ZM17 16L17 17L18 17L18 16ZM33 16L33 17L34 17L34 16ZM8 17L8 18L6 18L6 19L7 19L7 20L6 20L6 21L7 21L7 22L6 22L6 23L8 23L8 24L6 24L6 25L7 25L7 26L6 26L6 27L9 27L9 29L10 29L10 27L9 27L9 26L10 26L10 24L9 24L9 23L10 23L10 22L9 22L9 21L7 21L7 20L8 20L8 18L9 18L9 19L10 19L10 20L11 20L11 21L12 21L12 22L13 22L13 23L12 23L12 25L13 25L13 24L14 24L14 25L18 25L18 26L17 26L17 27L18 27L18 28L19 28L19 26L20 26L20 25L21 25L21 24L23 24L23 25L24 25L24 23L23 23L23 22L21 22L21 24L20 24L20 23L19 23L19 24L20 24L20 25L18 25L18 24L14 24L14 23L16 23L16 22L15 22L15 21L17 21L17 22L20 22L20 21L21 21L21 20L22 20L22 19L21 19L21 18L20 18L20 17L19 17L19 18L20 18L20 19L19 19L19 20L20 20L20 21L18 21L18 20L17 20L17 19L16 19L16 18L15 18L15 19L14 19L14 20L15 20L15 21L12 21L12 19L13 19L13 18L11 18L11 17L10 17L10 18L9 18L9 17ZM24 18L24 19L25 19L25 18ZM30 18L30 21L33 21L33 20L34 20L34 19L33 19L33 20L31 20L31 19L32 19L32 18ZM20 19L20 20L21 20L21 19ZM8 22L8 23L9 23L9 22ZM25 22L25 23L26 23L26 22ZM8 24L8 26L9 26L9 24ZM25 24L25 25L27 25L27 24ZM30 26L30 27L31 27L31 26ZM29 29L29 32L32 32L32 29ZM33 29L33 30L34 30L34 29ZM24 30L24 31L26 31L26 30ZM30 30L30 31L31 31L31 30ZM34 31L34 32L33 32L33 33L34 33L34 36L36 36L36 35L35 35L35 33L34 33L34 32L35 32L35 31ZM9 32L9 33L10 33L10 32ZM26 33L26 35L25 35L25 36L26 36L26 35L27 35L27 33ZM9 34L9 35L10 35L10 34ZM28 34L28 35L29 35L29 34ZM30 34L30 35L31 35L31 36L32 36L32 35L33 35L33 34ZM17 35L17 36L18 36L18 35ZM0 0L0 7L7 7L7 0ZM1 1L1 6L6 6L6 1ZM2 2L2 5L5 5L5 2ZM30 0L30 7L37 7L37 0ZM31 1L31 6L36 6L36 1ZM32 2L32 5L35 5L35 2ZM0 30L0 37L7 37L7 30ZM1 31L1 36L6 36L6 31ZM2 32L2 35L5 35L5 32Z" fill="#000000"/></g></g></svg>
