<?xml version="1.0" encoding="UTF-8"?>
<svg xmlns="http://www.w3.org/2000/svg" version="1.1" width="300" height="300" viewBox="0 0 300 300"><rect x="0" y="0" width="300" height="300" fill="#ffffff"/><g transform="scale(7.317)"><g transform="translate(0,0)"><path fill-rule="evenodd" d="M12 0L12 1L8 1L8 2L11 2L11 4L9 4L9 3L8 3L8 4L9 4L9 5L8 5L8 7L9 7L9 8L6 8L6 9L7 9L7 10L6 10L6 11L5 11L5 8L0 8L0 10L1 10L1 12L0 12L0 14L2 14L2 13L3 13L3 12L4 12L4 11L5 11L5 12L6 12L6 13L4 13L4 14L3 14L3 16L1 16L1 17L0 17L0 18L1 18L1 17L2 17L2 18L5 18L5 19L4 19L4 20L5 20L5 19L10 19L10 18L9 18L9 17L8 17L8 15L10 15L10 16L11 16L11 15L10 15L10 14L11 14L11 13L12 13L12 14L13 14L13 13L12 13L12 12L11 12L11 13L8 13L8 12L9 12L9 11L11 11L11 5L12 5L12 7L13 7L13 3L12 3L12 2L13 2L13 0ZM14 0L14 1L15 1L15 2L14 2L14 3L16 3L16 2L17 2L17 1L15 1L15 0ZM18 0L18 2L19 2L19 1L20 1L20 3L18 3L18 4L20 4L20 5L17 5L17 4L14 4L14 5L17 5L17 6L16 6L16 9L17 9L17 10L15 10L15 9L14 9L14 8L15 8L15 6L14 6L14 8L12 8L12 10L13 10L13 12L14 12L14 13L15 13L15 15L14 15L14 16L13 16L13 15L12 15L12 17L14 17L14 18L15 18L15 19L14 19L14 20L17 20L17 18L15 18L15 17L18 17L18 16L16 16L16 15L17 15L17 14L16 14L16 13L17 13L17 12L19 12L19 11L18 11L18 10L20 10L20 13L21 13L21 14L20 14L20 15L21 15L21 16L20 16L20 17L19 17L19 18L18 18L18 19L19 19L19 20L18 20L18 21L20 21L20 22L17 22L17 21L14 21L14 22L11 22L11 23L10 23L10 21L11 21L11 20L12 20L12 21L13 21L13 20L12 20L12 19L13 19L13 18L12 18L12 19L11 19L11 20L10 20L10 21L9 21L9 20L8 20L8 21L9 21L9 24L11 24L11 25L9 25L9 27L8 27L8 26L4 26L4 25L5 25L5 22L4 22L4 21L1 21L1 20L2 20L2 19L1 19L1 20L0 20L0 21L1 21L1 22L0 22L0 23L1 23L1 22L2 22L2 23L3 23L3 24L0 24L0 26L4 26L4 27L2 27L2 28L3 28L3 29L5 29L5 30L4 30L4 33L5 33L5 32L6 32L6 33L8 33L8 35L9 35L9 36L8 36L8 41L9 41L9 38L10 38L10 40L11 40L11 41L12 41L12 39L14 39L14 40L13 40L13 41L14 41L14 40L15 40L15 38L17 38L17 39L16 39L16 40L17 40L17 39L18 39L18 38L17 38L17 37L16 37L16 36L17 36L17 35L16 35L16 34L17 34L17 32L16 32L16 31L17 31L17 30L19 30L19 29L21 29L21 28L25 28L25 29L22 29L22 30L20 30L20 31L21 31L21 32L20 32L20 35L19 35L19 33L18 33L18 35L19 35L19 36L18 36L18 37L19 37L19 36L21 36L21 37L20 37L20 38L19 38L19 41L20 41L20 40L22 40L22 41L30 41L30 40L33 40L33 39L31 39L31 37L30 37L30 36L31 36L31 35L32 35L32 37L33 37L33 38L34 38L34 39L35 39L35 40L34 40L34 41L36 41L36 39L37 39L37 38L36 38L36 37L37 37L37 35L40 35L40 34L41 34L41 31L39 31L39 30L41 30L41 29L40 29L40 28L41 28L41 27L40 27L40 26L41 26L41 24L40 24L40 23L39 23L39 24L37 24L37 21L40 21L40 22L41 22L41 20L37 20L37 19L36 19L36 21L34 21L34 20L35 20L35 17L36 17L36 18L37 18L37 17L39 17L39 16L40 16L40 15L39 15L39 14L38 14L38 15L39 15L39 16L37 16L37 13L40 13L40 14L41 14L41 13L40 13L40 12L38 12L38 11L36 11L36 10L38 10L38 8L37 8L37 9L36 9L36 8L35 8L35 9L34 9L34 8L32 8L32 7L33 7L33 6L32 6L32 7L31 7L31 5L32 5L32 4L33 4L33 3L31 3L31 1L32 1L32 0L31 0L31 1L30 1L30 3L29 3L29 0L28 0L28 1L26 1L26 3L25 3L25 1L24 1L24 0L23 0L23 1L21 1L21 0ZM23 1L23 2L24 2L24 1ZM27 2L27 4L25 4L25 7L24 7L24 5L22 5L22 6L21 6L21 5L20 5L20 6L19 6L19 7L20 7L20 6L21 6L21 7L22 7L22 6L23 6L23 9L22 9L22 8L20 8L20 9L22 9L22 12L21 12L21 13L25 13L25 16L23 16L23 17L22 17L22 16L21 16L21 17L22 17L22 20L20 20L20 21L21 21L21 22L20 22L20 23L23 23L23 25L22 25L22 24L20 24L20 25L22 25L22 26L23 26L23 27L25 27L25 28L26 28L26 26L28 26L28 27L27 27L27 28L30 28L30 31L29 31L29 32L28 32L28 33L25 33L25 32L26 32L26 31L27 31L27 30L28 30L28 29L27 29L27 30L26 30L26 29L25 29L25 32L23 32L23 33L22 33L22 32L21 32L21 33L22 33L22 34L23 34L23 35L22 35L22 37L21 37L21 38L20 38L20 39L22 39L22 40L26 40L26 39L27 39L27 38L28 38L28 39L29 39L29 40L30 40L30 39L29 39L29 38L30 38L30 37L29 37L29 36L30 36L30 35L29 35L29 36L28 36L28 37L27 37L27 34L28 34L28 33L29 33L29 34L32 34L32 32L31 32L31 31L34 31L34 29L35 29L35 30L36 30L36 29L38 29L38 30L39 30L39 29L38 29L38 28L40 28L40 27L38 27L38 25L37 25L37 24L36 24L36 25L35 25L35 22L34 22L34 21L32 21L32 20L33 20L33 19L34 19L34 17L35 17L35 16L34 16L34 17L32 17L32 16L33 16L33 15L34 15L34 14L33 14L33 13L32 13L32 14L31 14L31 17L29 17L29 18L30 18L30 19L28 19L28 20L27 20L27 18L28 18L28 15L27 15L27 18L26 18L26 17L25 17L25 16L26 16L26 14L28 14L28 13L29 13L29 16L30 16L30 13L29 13L29 12L30 12L30 11L32 11L32 12L33 12L33 11L34 11L34 13L35 13L35 14L36 14L36 13L37 13L37 12L36 12L36 13L35 13L35 10L36 10L36 9L35 9L35 10L33 10L33 9L32 9L32 8L31 8L31 9L29 9L29 10L28 10L28 12L27 12L27 13L25 13L25 12L26 12L26 10L27 10L27 9L28 9L28 6L29 6L29 8L30 8L30 5L31 5L31 4L29 4L29 5L28 5L28 2ZM20 3L20 4L24 4L24 3ZM26 5L26 7L27 7L27 6L28 6L28 5ZM9 6L9 7L10 7L10 6ZM17 6L17 8L18 8L18 9L19 9L19 8L18 8L18 6ZM9 8L9 9L8 9L8 10L7 10L7 11L6 11L6 12L7 12L7 11L8 11L8 10L10 10L10 8ZM25 8L25 10L24 10L24 9L23 9L23 10L24 10L24 11L25 11L25 10L26 10L26 9L27 9L27 8ZM39 8L39 9L40 9L40 10L39 10L39 11L40 11L40 10L41 10L41 9L40 9L40 8ZM1 9L1 10L2 10L2 12L3 12L3 10L2 10L2 9ZM31 9L31 10L32 10L32 9ZM29 10L29 11L30 11L30 10ZM14 11L14 12L15 12L15 13L16 13L16 12L17 12L17 11L16 11L16 12L15 12L15 11ZM6 13L6 14L5 14L5 16L7 16L7 15L8 15L8 13ZM18 13L18 14L19 14L19 13ZM6 14L6 15L7 15L7 14ZM21 14L21 15L24 15L24 14ZM3 16L3 17L4 17L4 16ZM14 16L14 17L15 17L15 16ZM36 16L36 17L37 17L37 16ZM5 17L5 18L7 18L7 17ZM23 17L23 18L24 18L24 17ZM31 17L31 18L32 18L32 19L33 19L33 18L32 18L32 17ZM40 17L40 18L39 18L39 19L40 19L40 18L41 18L41 17ZM19 18L19 19L21 19L21 18ZM25 18L25 19L26 19L26 18ZM23 19L23 21L22 21L22 22L24 22L24 24L25 24L25 25L23 25L23 26L25 26L25 25L28 25L28 26L29 26L29 27L30 27L30 26L32 26L32 25L33 25L33 27L31 27L31 30L32 30L32 29L34 29L34 27L36 27L36 28L35 28L35 29L36 29L36 28L37 28L37 25L36 25L36 26L35 26L35 25L34 25L34 22L32 22L32 21L30 21L30 20L31 20L31 19L30 19L30 20L28 20L28 21L27 21L27 20L25 20L25 21L24 21L24 19ZM6 20L6 21L7 21L7 20ZM25 21L25 24L28 24L28 25L29 25L29 24L30 24L30 21L29 21L29 22L28 22L28 23L26 23L26 22L27 22L27 21ZM3 22L3 23L4 23L4 22ZM6 22L6 23L7 23L7 22ZM14 22L14 23L12 23L12 25L13 25L13 24L14 24L14 25L15 25L15 26L16 26L16 27L14 27L14 28L13 28L13 27L12 27L12 26L10 26L10 27L12 27L12 28L11 28L11 29L10 29L10 28L8 28L8 27L4 27L4 28L8 28L8 29L6 29L6 30L5 30L5 31L6 31L6 32L7 32L7 31L6 31L6 30L9 30L9 31L8 31L8 32L9 32L9 33L13 33L13 37L11 37L11 36L12 36L12 34L11 34L11 36L9 36L9 37L10 37L10 38L14 38L14 37L15 37L15 36L14 36L14 35L15 35L15 34L14 34L14 33L15 33L15 32L14 32L14 30L15 30L15 29L14 29L14 28L17 28L17 29L16 29L16 30L17 30L17 29L19 29L19 28L17 28L17 24L18 24L18 23L17 23L17 22ZM31 22L31 24L33 24L33 23L32 23L32 22ZM14 23L14 24L15 24L15 23ZM16 23L16 24L17 24L17 23ZM6 24L6 25L8 25L8 24ZM18 25L18 27L20 27L20 26L19 26L19 25ZM39 25L39 26L40 26L40 25ZM0 29L0 33L1 33L1 30L2 30L2 31L3 31L3 30L2 30L2 29ZM12 29L12 30L13 30L13 29ZM10 30L10 31L9 31L9 32L11 32L11 30ZM22 30L22 31L24 31L24 30ZM12 31L12 32L13 32L13 33L14 33L14 32L13 32L13 31ZM37 31L37 32L39 32L39 34L40 34L40 32L39 32L39 31ZM2 32L2 33L3 33L3 32ZM29 32L29 33L30 33L30 32ZM23 33L23 34L24 34L24 35L26 35L26 34L24 34L24 33ZM33 33L33 36L36 36L36 33ZM9 34L9 35L10 35L10 34ZM34 34L34 35L35 35L35 34ZM23 36L23 38L22 38L22 39L23 39L23 38L27 38L27 37L26 37L26 36L25 36L25 37L24 37L24 36ZM38 36L38 38L41 38L41 37L39 37L39 36ZM28 37L28 38L29 38L29 37ZM34 37L34 38L35 38L35 39L36 39L36 38L35 38L35 37ZM39 39L39 40L37 40L37 41L39 41L39 40L40 40L40 39ZM0 0L0 7L7 7L7 0ZM1 1L1 6L6 6L6 1ZM2 2L2 5L5 5L5 2ZM34 0L34 7L41 7L41 0ZM35 1L35 6L40 6L40 1ZM36 2L36 5L39 5L39 2ZM0 34L0 41L7 41L7 34ZM1 35L1 40L6 40L6 35ZM2 36L2 39L5 39L5 36Z" fill="#000000"/></g></g></svg>
