<?xml version="1.0" encoding="UTF-8"?>
<svg xmlns="http://www.w3.org/2000/svg" version="1.1" width="300" height="300" viewBox="0 0 300 300"><rect x="0" y="0" width="300" height="300" fill="#ffffff"/><g transform="scale(7.317)"><g transform="translate(0,0)"><path fill-rule="evenodd" d="M9 0L9 1L8 1L8 2L10 2L10 3L8 3L8 4L9 4L9 5L8 5L8 7L9 7L9 5L10 5L10 7L11 7L11 8L6 8L6 9L10 9L10 11L11 11L11 9L12 9L12 7L13 7L13 6L14 6L14 8L13 8L13 9L14 9L14 10L15 10L15 11L14 11L14 12L15 12L15 13L13 13L13 10L12 10L12 13L13 13L13 14L11 14L11 15L10 15L10 13L9 13L9 12L8 12L8 11L7 11L7 10L5 10L5 8L0 8L0 9L2 9L2 11L4 11L4 10L5 10L5 12L4 12L4 13L2 13L2 12L1 12L1 14L0 14L0 17L1 17L1 18L0 18L0 20L1 20L1 21L0 21L0 22L2 22L2 23L3 23L3 24L5 24L5 26L4 26L4 28L5 28L5 29L7 29L7 30L6 30L6 31L4 31L4 29L3 29L3 28L2 28L2 27L3 27L3 26L2 26L2 24L1 24L1 27L0 27L0 28L1 28L1 29L0 29L0 33L1 33L1 29L3 29L3 31L2 31L2 32L4 32L4 33L8 33L8 35L9 35L9 34L13 34L13 35L12 35L12 36L14 36L14 37L15 37L15 39L14 39L14 40L13 40L13 39L12 39L12 40L13 40L13 41L14 41L14 40L15 40L15 41L16 41L16 39L18 39L18 38L19 38L19 37L18 37L18 38L16 38L16 37L17 37L17 36L23 36L23 37L22 37L22 39L21 39L21 38L20 38L20 39L21 39L21 40L22 40L22 41L23 41L23 40L24 40L24 41L30 41L30 40L34 40L34 41L36 41L36 39L39 39L39 40L37 40L37 41L39 41L39 40L40 40L40 39L39 39L39 38L41 38L41 37L39 37L39 36L41 36L41 35L39 35L39 34L40 34L40 33L41 33L41 31L40 31L40 33L39 33L39 32L37 32L37 31L38 31L38 30L37 30L37 29L36 29L36 28L37 28L37 25L36 25L36 24L38 24L38 23L39 23L39 25L38 25L38 27L40 27L40 26L41 26L41 24L40 24L40 23L39 23L39 22L37 22L37 21L39 21L39 20L40 20L40 18L41 18L41 17L40 17L40 18L39 18L39 20L37 20L37 19L36 19L36 21L34 21L34 18L35 18L35 17L36 17L36 18L37 18L37 17L36 17L36 16L38 16L38 14L39 14L39 13L40 13L40 14L41 14L41 13L40 13L40 10L41 10L41 9L40 9L40 8L39 8L39 9L40 9L40 10L39 10L39 12L38 12L38 11L36 11L36 10L38 10L38 8L37 8L37 9L36 9L36 8L35 8L35 9L34 9L34 8L33 8L33 5L32 5L32 4L33 4L33 3L31 3L31 1L32 1L32 0L31 0L31 1L29 1L29 0L28 0L28 1L26 1L26 0L25 0L25 1L24 1L24 0L23 0L23 1L22 1L22 0L17 0L17 1L15 1L15 0L12 0L12 1L11 1L11 0ZM10 1L10 2L11 2L11 7L12 7L12 6L13 6L13 5L14 5L14 6L15 6L15 7L16 7L16 8L18 8L18 9L15 9L15 8L14 8L14 9L15 9L15 10L17 10L17 12L16 12L16 11L15 11L15 12L16 12L16 13L17 13L17 14L13 14L13 15L12 15L12 17L13 17L13 16L14 16L14 17L15 17L15 18L17 18L17 17L16 17L16 15L17 15L17 16L18 16L18 19L21 19L21 18L19 18L19 14L20 14L20 15L23 15L23 17L22 17L22 16L21 16L21 17L22 17L22 20L21 20L21 21L19 21L19 20L17 20L17 21L16 21L16 20L15 20L15 19L14 19L14 20L13 20L13 19L12 19L12 18L11 18L11 17L10 17L10 16L9 16L9 15L8 15L8 14L9 14L9 13L8 13L8 14L7 14L7 13L6 13L6 12L7 12L7 11L6 11L6 12L5 12L5 14L4 14L4 15L5 15L5 14L7 14L7 15L6 15L6 16L4 16L4 17L6 17L6 18L5 18L5 19L4 19L4 18L1 18L1 19L3 19L3 20L2 20L2 22L3 22L3 23L4 23L4 22L5 22L5 19L6 19L6 20L7 20L7 21L6 21L6 22L7 22L7 23L6 23L6 24L7 24L7 25L6 25L6 26L7 26L7 27L5 27L5 28L9 28L9 27L10 27L10 26L11 26L11 27L12 27L12 28L11 28L11 29L10 29L10 30L13 30L13 31L12 31L12 33L13 33L13 32L14 32L14 33L16 33L16 31L17 31L17 33L19 33L19 34L18 34L18 35L20 35L20 33L19 33L19 30L20 30L20 31L21 31L21 30L22 30L22 31L23 31L23 32L24 32L24 34L23 34L23 33L22 33L22 32L21 32L21 33L22 33L22 34L21 34L21 35L23 35L23 36L24 36L24 37L25 37L25 36L26 36L26 34L28 34L28 33L29 33L29 32L30 32L30 35L29 35L29 36L28 36L28 37L27 37L27 38L25 38L25 40L26 40L26 39L27 39L27 40L30 40L30 39L29 39L29 38L31 38L31 39L34 39L34 40L35 40L35 39L36 39L36 38L39 38L39 37L38 37L38 36L39 36L39 35L37 35L37 37L36 37L36 38L35 38L35 37L34 37L34 38L33 38L33 37L32 37L32 35L31 35L31 34L32 34L32 32L33 32L33 31L34 31L34 29L35 29L35 31L36 31L36 29L35 29L35 28L36 28L36 27L35 27L35 28L34 28L34 29L32 29L32 30L30 30L30 31L29 31L29 30L28 30L28 29L29 29L29 28L30 28L30 29L31 29L31 28L30 28L30 27L34 27L34 26L33 26L33 25L32 25L32 24L33 24L33 23L32 23L32 22L33 22L33 21L32 21L32 20L33 20L33 19L32 19L32 18L34 18L34 17L35 17L35 16L36 16L36 15L37 15L37 14L38 14L38 13L37 13L37 12L36 12L36 13L35 13L35 10L36 10L36 9L35 9L35 10L34 10L34 11L33 11L33 9L32 9L32 5L31 5L31 4L29 4L29 3L30 3L30 2L29 2L29 3L28 3L28 2L25 2L25 3L23 3L23 2L24 2L24 1L23 1L23 2L22 2L22 3L21 3L21 4L19 4L19 3L20 3L20 1L18 1L18 2L19 2L19 3L17 3L17 4L16 4L16 5L18 5L18 4L19 4L19 8L18 8L18 6L17 6L17 7L16 7L16 6L15 6L15 4L14 4L14 3L16 3L16 2L14 2L14 3L13 3L13 2L11 2L11 1ZM12 3L12 5L13 5L13 3ZM25 3L25 4L23 4L23 5L24 5L24 7L23 7L23 6L22 6L22 4L21 4L21 5L20 5L20 7L21 7L21 8L22 8L22 9L23 9L23 10L21 10L21 9L18 9L18 11L19 11L19 10L20 10L20 12L23 12L23 10L24 10L24 11L25 11L25 10L24 10L24 9L23 9L23 8L25 8L25 9L27 9L27 10L26 10L26 12L25 12L25 13L20 13L20 14L24 14L24 16L25 16L25 18L26 18L26 20L25 20L25 21L24 21L24 19L23 19L23 21L22 21L22 22L24 22L24 23L21 23L21 22L20 22L20 23L21 23L21 24L22 24L22 25L19 25L19 21L18 21L18 22L16 22L16 21L15 21L15 20L14 20L14 21L15 21L15 22L13 22L13 21L12 21L12 22L13 22L13 23L12 23L12 24L13 24L13 25L11 25L11 26L12 26L12 27L13 27L13 25L14 25L14 26L15 26L15 27L14 27L14 28L15 28L15 29L14 29L14 32L15 32L15 30L18 30L18 29L20 29L20 30L21 30L21 29L20 29L20 28L22 28L22 25L23 25L23 26L25 26L25 27L23 27L23 28L25 28L25 29L22 29L22 30L25 30L25 29L28 29L28 28L25 28L25 27L26 27L26 26L25 26L25 25L28 25L28 26L27 26L27 27L28 27L28 26L29 26L29 27L30 27L30 26L32 26L32 25L31 25L31 24L32 24L32 23L31 23L31 22L32 22L32 21L31 21L31 20L28 20L28 19L29 19L29 17L31 17L31 18L30 18L30 19L31 19L31 18L32 18L32 17L34 17L34 16L35 16L35 15L36 15L36 14L37 14L37 13L36 13L36 14L35 14L35 13L34 13L34 12L32 12L32 11L31 11L31 12L28 12L28 10L29 10L29 11L30 11L30 10L29 10L29 9L31 9L31 10L32 10L32 9L31 9L31 5L30 5L30 8L29 8L29 4L28 4L28 5L27 5L27 3ZM25 4L25 8L27 8L27 9L28 9L28 6L27 6L27 7L26 7L26 4ZM21 6L21 7L22 7L22 6ZM0 10L0 11L1 11L1 10ZM18 12L18 13L19 13L19 12ZM27 12L27 13L25 13L25 16L26 16L26 14L27 14L27 13L28 13L28 12ZM29 13L29 14L28 14L28 15L27 15L27 16L30 16L30 14L31 14L31 15L32 15L32 14L33 14L33 15L34 15L34 13L32 13L32 14L31 14L31 13ZM1 14L1 15L2 15L2 14ZM39 15L39 16L40 16L40 15ZM2 16L2 17L3 17L3 16ZM6 16L6 17L8 17L8 18L6 18L6 19L7 19L7 20L10 20L10 17L9 17L9 16ZM31 16L31 17L32 17L32 16ZM23 17L23 18L24 18L24 17ZM27 17L27 18L28 18L28 17ZM11 19L11 20L12 20L12 19ZM27 20L27 21L25 21L25 24L23 24L23 25L25 25L25 24L27 24L27 23L26 23L26 22L28 22L28 20ZM3 21L3 22L4 22L4 21ZM7 21L7 22L11 22L11 21ZM29 21L29 24L28 24L28 25L29 25L29 26L30 26L30 25L29 25L29 24L30 24L30 21ZM40 21L40 22L41 22L41 21ZM34 22L34 25L35 25L35 26L36 26L36 25L35 25L35 23L36 23L36 22ZM8 23L8 24L11 24L11 23ZM13 23L13 24L14 24L14 25L15 25L15 26L16 26L16 27L15 27L15 28L16 28L16 29L18 29L18 28L19 28L19 27L20 27L20 26L19 26L19 25L17 25L17 24L18 24L18 23L16 23L16 25L15 25L15 23ZM39 25L39 26L40 26L40 25ZM8 26L8 27L9 27L9 26ZM18 26L18 27L19 27L19 26ZM12 28L12 29L13 29L13 28ZM38 28L38 29L39 29L39 30L41 30L41 29L39 29L39 28ZM27 30L27 31L26 31L26 32L25 32L25 33L28 33L28 32L29 32L29 31L28 31L28 30ZM6 31L6 32L7 32L7 31ZM8 31L8 32L9 32L9 31ZM31 31L31 32L32 32L32 31ZM33 33L33 36L36 36L36 33ZM16 34L16 35L17 35L17 34ZM24 34L24 35L25 35L25 34ZM34 34L34 35L35 35L35 34ZM14 35L14 36L15 36L15 35ZM8 36L8 41L9 41L9 39L11 39L11 36L10 36L10 38L9 38L9 36ZM29 36L29 37L28 37L28 38L27 38L27 39L28 39L28 38L29 38L29 37L30 37L30 36ZM12 37L12 38L13 38L13 37ZM23 38L23 39L22 39L22 40L23 40L23 39L24 39L24 38ZM34 38L34 39L35 39L35 38ZM0 0L0 7L7 7L7 0ZM1 1L1 6L6 6L6 1ZM2 2L2 5L5 5L5 2ZM34 0L34 7L41 7L41 0ZM35 1L35 6L40 6L40 1ZM36 2L36 5L39 5L39 2ZM0 34L0 41L7 41L7 34ZM1 35L1 40L6 40L6 35ZM2 36L2 39L5 39L5 36Z" fill="#000000"/></g></g></svg>
