<?xml version="1.0" encoding="UTF-8"?>
<svg xmlns="http://www.w3.org/2000/svg" version="1.1" width="300" height="300" viewBox="0 0 300 300"><rect x="0" y="0" width="300" height="300" fill="#ffffff"/><g transform="scale(8.108)"><g transform="translate(0,0)"><path fill-rule="evenodd" d="M9 0L9 1L8 1L8 2L9 2L9 3L8 3L8 4L10 4L10 7L11 7L11 4L12 4L12 5L13 5L13 6L12 6L12 9L13 9L13 8L14 8L14 9L17 9L17 11L18 11L18 9L17 9L17 8L16 8L16 7L17 7L17 6L18 6L18 8L20 8L20 9L19 9L19 10L20 10L20 11L19 11L19 13L18 13L18 12L16 12L16 10L15 10L15 11L14 11L14 12L15 12L15 13L12 13L12 11L13 11L13 10L10 10L10 9L11 9L11 8L6 8L6 9L9 9L9 10L10 10L10 11L11 11L11 13L12 13L12 14L13 14L13 15L12 15L12 17L13 17L13 16L14 16L14 17L15 17L15 16L17 16L17 17L18 17L18 16L21 16L21 18L20 18L20 17L19 17L19 18L20 18L20 21L18 21L18 20L17 20L17 19L16 19L16 18L15 18L15 19L14 19L14 20L15 20L15 21L12 21L12 19L13 19L13 18L11 18L11 14L10 14L10 17L9 17L9 16L8 16L8 17L7 17L7 16L6 16L6 17L7 17L7 18L5 18L5 16L3 16L3 15L4 15L4 14L5 14L5 13L7 13L7 14L6 14L6 15L9 15L9 13L10 13L10 12L8 12L8 11L7 11L7 10L5 10L5 8L0 8L0 11L1 11L1 13L2 13L2 15L1 15L1 14L0 14L0 15L1 15L1 17L2 17L2 18L0 18L0 19L2 19L2 24L1 24L1 22L0 22L0 29L1 29L1 25L2 25L2 28L3 28L3 27L4 27L4 28L5 28L5 29L7 29L7 28L5 28L5 27L4 27L4 26L3 26L3 25L2 25L2 24L4 24L4 22L5 22L5 19L7 19L7 18L8 18L8 19L9 19L9 18L11 18L11 20L10 20L10 22L11 22L11 21L12 21L12 22L13 22L13 23L12 23L12 25L13 25L13 24L14 24L14 25L18 25L18 26L17 26L17 27L18 27L18 28L16 28L16 26L15 26L15 27L14 27L14 28L15 28L15 29L12 29L12 27L13 27L13 26L8 26L8 25L9 25L9 24L10 24L10 25L11 25L11 24L10 24L10 23L8 23L8 25L7 25L7 24L6 24L6 23L7 23L7 22L6 22L6 23L5 23L5 24L6 24L6 25L5 25L5 26L6 26L6 27L10 27L10 28L8 28L8 31L9 31L9 29L10 29L10 32L11 32L11 29L12 29L12 30L13 30L13 31L12 31L12 33L13 33L13 32L14 32L14 33L18 33L18 32L14 32L14 31L16 31L16 30L15 30L15 29L18 29L18 30L20 30L20 31L19 31L19 32L20 32L20 33L19 33L19 34L15 34L15 35L14 35L14 36L16 36L16 37L21 37L21 36L23 36L23 37L27 37L27 36L29 36L29 37L37 37L37 32L36 32L36 31L37 31L37 30L35 30L35 28L34 28L34 27L36 27L36 28L37 28L37 26L36 26L36 25L37 25L37 22L36 22L36 21L37 21L37 18L36 18L36 17L37 17L37 14L36 14L36 13L35 13L35 12L34 12L34 11L35 11L35 9L36 9L36 8L35 8L35 9L34 9L34 8L33 8L33 9L34 9L34 11L32 11L32 12L31 12L31 10L30 10L30 8L29 8L29 6L28 6L28 5L29 5L29 4L28 4L28 2L29 2L29 0L28 0L28 1L27 1L27 2L26 2L26 3L24 3L24 4L22 4L22 5L21 5L21 4L19 4L19 5L17 5L17 6L16 6L16 5L14 5L14 4L12 4L12 2L14 2L14 3L15 3L15 4L18 4L18 3L15 3L15 2L17 2L17 1L15 1L15 0L14 0L14 1L11 1L11 2L10 2L10 0ZM18 0L18 1L24 1L24 0ZM25 0L25 1L26 1L26 0ZM20 2L20 3L22 3L22 2ZM10 3L10 4L11 4L11 3ZM24 4L24 5L23 5L23 7L24 7L24 5L25 5L25 8L27 8L27 7L28 7L28 6L27 6L27 7L26 7L26 5L28 5L28 4L26 4L26 5L25 5L25 4ZM8 5L8 7L9 7L9 5ZM19 5L19 7L20 7L20 8L21 8L21 7L22 7L22 6L21 6L21 5ZM13 6L13 7L14 7L14 8L15 8L15 7L16 7L16 6L15 6L15 7L14 7L14 6ZM20 6L20 7L21 7L21 6ZM23 8L23 9L22 9L22 10L21 10L21 11L22 11L22 10L23 10L23 12L26 12L26 13L27 13L27 14L28 14L28 15L29 15L29 16L28 16L28 17L27 17L27 18L28 18L28 17L30 17L30 18L29 18L29 22L28 22L28 24L27 24L27 22L26 22L26 21L24 21L24 22L23 22L23 19L24 19L24 20L27 20L27 21L28 21L28 19L26 19L26 17L25 17L25 16L26 16L26 15L25 15L25 13L24 13L24 14L23 14L23 13L22 13L22 14L23 14L23 15L22 15L22 16L23 16L23 17L24 17L24 18L21 18L21 19L22 19L22 20L21 20L21 21L20 21L20 22L17 22L17 21L15 21L15 22L16 22L16 23L14 23L14 24L18 24L18 25L20 25L20 26L19 26L19 28L18 28L18 29L20 29L20 30L21 30L21 29L24 29L24 30L23 30L23 31L22 31L22 32L21 32L21 33L20 33L20 34L19 34L19 36L21 36L21 34L22 34L22 35L23 35L23 36L24 36L24 35L25 35L25 36L26 36L26 35L27 35L27 33L26 33L26 35L25 35L25 33L24 33L24 34L22 34L22 33L23 33L23 31L24 31L24 32L26 32L26 31L27 31L27 32L28 32L28 30L27 30L27 29L28 29L28 28L33 28L33 27L34 27L34 26L35 26L35 25L34 25L34 24L36 24L36 23L34 23L34 24L33 24L33 25L32 25L32 24L31 24L31 23L32 23L32 22L33 22L33 21L34 21L34 22L35 22L35 21L34 21L34 20L36 20L36 19L35 19L35 17L36 17L36 14L35 14L35 15L34 15L34 13L30 13L30 10L29 10L29 12L28 12L28 13L27 13L27 12L26 12L26 11L27 11L27 10L28 10L28 9L27 9L27 10L26 10L26 9L24 9L24 8ZM31 8L31 9L32 9L32 8ZM1 9L1 11L2 11L2 12L3 12L3 14L4 14L4 12L3 12L3 10L4 10L4 11L5 11L5 10L4 10L4 9L3 9L3 10L2 10L2 9ZM23 9L23 10L24 10L24 9ZM25 10L25 11L26 11L26 10ZM36 10L36 11L37 11L37 10ZM6 11L6 12L7 12L7 13L8 13L8 12L7 12L7 11ZM20 12L20 13L21 13L21 12ZM15 13L15 14L17 14L17 13ZM28 13L28 14L30 14L30 17L33 17L33 18L34 18L34 17L35 17L35 16L34 16L34 15L33 15L33 14L32 14L32 16L31 16L31 14L30 14L30 13ZM18 14L18 15L17 15L17 16L18 16L18 15L21 15L21 14ZM14 15L14 16L15 16L15 15ZM2 16L2 17L3 17L3 18L2 18L2 19L3 19L3 18L4 18L4 19L5 19L5 18L4 18L4 17L3 17L3 16ZM33 16L33 17L34 17L34 16ZM8 17L8 18L9 18L9 17ZM24 18L24 19L25 19L25 18ZM30 18L30 21L33 21L33 20L34 20L34 19L33 19L33 20L31 20L31 19L32 19L32 18ZM3 20L3 22L4 22L4 20ZM6 20L6 21L8 21L8 20ZM20 22L20 23L21 23L21 24L20 24L20 25L21 25L21 27L20 27L20 29L21 29L21 28L24 28L24 29L27 29L27 28L28 28L28 27L29 27L29 26L30 26L30 27L31 27L31 26L30 26L30 25L31 25L31 24L30 24L30 22L29 22L29 24L28 24L28 26L27 26L27 27L26 27L26 28L24 28L24 27L22 27L22 26L23 26L23 25L24 25L24 23L23 23L23 22ZM25 22L25 23L26 23L26 22ZM21 24L21 25L23 25L23 24ZM25 24L25 25L27 25L27 24ZM6 25L6 26L7 26L7 25ZM29 29L29 32L32 32L32 29ZM33 29L33 30L34 30L34 29ZM24 30L24 31L26 31L26 30ZM30 30L30 31L31 31L31 30ZM34 31L34 32L33 32L33 33L34 33L34 36L36 36L36 35L35 35L35 33L34 33L34 32L35 32L35 31ZM8 32L8 37L9 37L9 36L10 36L10 37L12 37L12 35L13 35L13 34L11 34L11 33L9 33L9 32ZM28 34L28 35L29 35L29 34ZM30 34L30 35L31 35L31 36L32 36L32 35L33 35L33 34ZM17 35L17 36L18 36L18 35ZM0 0L0 7L7 7L7 0ZM1 1L1 6L6 6L6 1ZM2 2L2 5L5 5L5 2ZM30 0L30 7L37 7L37 0ZM31 1L31 6L36 6L36 1ZM32 2L32 5L35 5L35 2ZM0 30L0 37L7 37L7 30ZM1 31L1 36L6 36L6 31ZM2 32L2 35L5 35L5 32Z" fill="#000000"/></g></g></svg>
