<?xml version="1.0" encoding="UTF-8"?>
<svg xmlns="http://www.w3.org/2000/svg" version="1.1" width="300" height="300" viewBox="0 0 300 300"><rect x="0" y="0" width="300" height="300" fill="#ffffff"/><g transform="scale(7.317)"><g transform="translate(0,0)"><path fill-rule="evenodd" d="M9 0L9 1L8 1L8 2L10 2L10 5L11 5L11 2L12 2L12 1L11 1L11 2L10 2L10 0ZM13 0L13 3L12 3L12 4L13 4L13 3L14 3L14 4L15 4L15 5L12 5L12 7L11 7L11 6L10 6L10 7L9 7L9 5L8 5L8 7L9 7L9 8L6 8L6 9L5 9L5 8L0 8L0 9L1 9L1 11L2 11L2 12L4 12L4 14L3 14L3 13L1 13L1 15L0 15L0 16L1 16L1 15L3 15L3 17L2 17L2 18L1 18L1 17L0 17L0 18L1 18L1 21L2 21L2 22L0 22L0 25L2 25L2 24L3 24L3 23L4 23L4 25L3 25L3 27L4 27L4 28L3 28L3 30L4 30L4 29L8 29L8 30L9 30L9 29L8 29L8 27L10 27L10 29L11 29L11 27L10 27L10 26L12 26L12 29L13 29L13 25L14 25L14 26L15 26L15 27L14 27L14 28L15 28L15 29L14 29L14 30L11 30L11 33L10 33L10 31L8 31L8 32L6 32L6 31L7 31L7 30L5 30L5 31L4 31L4 32L3 32L3 31L2 31L2 32L3 32L3 33L4 33L4 32L6 32L6 33L8 33L8 35L11 35L11 34L12 34L12 35L13 35L13 36L14 36L14 37L15 37L15 39L14 39L14 38L13 38L13 37L12 37L12 38L13 38L13 39L12 39L12 40L13 40L13 41L14 41L14 40L15 40L15 41L16 41L16 39L18 39L18 38L19 38L19 37L18 37L18 38L16 38L16 37L17 37L17 36L23 36L23 37L22 37L22 39L21 39L21 38L20 38L20 40L22 40L22 41L23 41L23 40L24 40L24 41L30 41L30 40L35 40L35 41L36 41L36 39L37 39L37 38L36 38L36 37L37 37L37 35L39 35L39 36L38 36L38 37L39 37L39 38L38 38L38 39L39 39L39 40L37 40L37 41L39 41L39 40L40 40L40 39L39 39L39 38L41 38L41 37L39 37L39 36L41 36L41 35L39 35L39 34L40 34L40 33L41 33L41 31L40 31L40 33L37 33L37 32L38 32L38 31L39 31L39 30L41 30L41 29L39 29L39 28L38 28L38 29L39 29L39 30L38 30L38 31L36 31L36 32L35 32L35 29L36 29L36 30L37 30L37 29L36 29L36 28L37 28L37 25L36 25L36 24L38 24L38 23L37 23L37 22L38 22L38 21L39 21L39 20L37 20L37 19L36 19L36 21L34 21L34 20L35 20L35 19L34 19L34 18L35 18L35 17L36 17L36 18L37 18L37 17L36 17L36 16L38 16L38 14L39 14L39 13L40 13L40 14L41 14L41 12L40 12L40 10L41 10L41 9L40 9L40 8L39 8L39 9L40 9L40 10L39 10L39 12L38 12L38 11L36 11L36 10L38 10L38 8L37 8L37 9L36 9L36 8L35 8L35 9L34 9L34 8L32 8L32 7L33 7L33 6L32 6L32 7L31 7L31 5L32 5L32 4L33 4L33 3L29 3L29 1L30 1L30 2L31 2L31 1L32 1L32 0L31 0L31 1L30 1L30 0L28 0L28 1L26 1L26 0L25 0L25 1L24 1L24 0L23 0L23 1L22 1L22 0L17 0L17 1L15 1L15 0ZM18 1L18 2L19 2L19 3L17 3L17 4L16 4L16 5L18 5L18 4L19 4L19 8L18 8L18 6L17 6L17 7L16 7L16 6L15 6L15 7L16 7L16 8L18 8L18 9L15 9L15 8L14 8L14 6L13 6L13 8L11 8L11 7L10 7L10 8L9 8L9 11L10 11L10 10L11 10L11 12L9 12L9 13L10 13L10 14L14 14L14 13L15 13L15 12L16 12L16 13L17 13L17 14L15 14L15 15L12 15L12 17L13 17L13 16L14 16L14 17L15 17L15 18L17 18L17 17L16 17L16 15L17 15L17 16L18 16L18 19L21 19L21 18L19 18L19 14L20 14L20 15L23 15L23 17L22 17L22 16L21 16L21 17L22 17L22 20L21 20L21 21L19 21L19 20L17 20L17 21L16 21L16 20L15 20L15 19L14 19L14 20L13 20L13 19L12 19L12 18L11 18L11 15L10 15L10 17L9 17L9 15L6 15L6 14L8 14L8 13L6 13L6 14L5 14L5 15L4 15L4 16L5 16L5 17L3 17L3 18L2 18L2 19L3 19L3 20L4 20L4 21L3 21L3 22L4 22L4 23L5 23L5 22L4 22L4 21L5 21L5 20L7 20L7 19L6 19L6 18L11 18L11 19L10 19L10 20L9 20L9 19L8 19L8 20L9 20L9 22L8 22L8 25L6 25L6 24L7 24L7 23L6 23L6 24L5 24L5 25L6 25L6 26L10 26L10 25L13 25L13 24L14 24L14 25L15 25L15 26L16 26L16 27L15 27L15 28L16 28L16 29L18 29L18 30L15 30L15 31L12 31L12 33L13 33L13 32L14 32L14 33L16 33L16 31L17 31L17 33L19 33L19 34L18 34L18 35L20 35L20 33L19 33L19 30L20 30L20 31L21 31L21 30L22 30L22 31L23 31L23 32L24 32L24 34L23 34L23 33L22 33L22 32L21 32L21 33L22 33L22 34L21 34L21 35L23 35L23 36L24 36L24 37L25 37L25 36L26 36L26 34L28 34L28 33L29 33L29 32L30 32L30 35L29 35L29 36L28 36L28 37L27 37L27 38L25 38L25 40L26 40L26 39L27 39L27 40L30 40L30 39L29 39L29 38L31 38L31 39L34 39L34 38L35 38L35 39L36 39L36 38L35 38L35 37L34 37L34 38L33 38L33 37L32 37L32 35L31 35L31 34L32 34L32 32L33 32L33 31L34 31L34 29L35 29L35 28L36 28L36 27L35 27L35 28L34 28L34 29L32 29L32 30L30 30L30 31L29 31L29 30L28 30L28 29L29 29L29 28L30 28L30 29L31 29L31 28L30 28L30 27L34 27L34 26L33 26L33 25L32 25L32 24L33 24L33 21L32 21L32 20L33 20L33 19L32 19L32 18L34 18L34 17L35 17L35 16L36 16L36 15L37 15L37 14L38 14L38 13L37 13L37 14L35 14L35 16L34 16L34 17L32 17L32 18L31 18L31 17L29 17L29 19L28 19L28 20L27 20L27 21L25 21L25 20L26 20L26 18L25 18L25 16L26 16L26 14L27 14L27 13L28 13L28 12L31 12L31 11L32 11L32 12L33 12L33 11L35 11L35 10L36 10L36 9L35 9L35 10L33 10L33 9L32 9L32 8L31 8L31 9L30 9L30 10L28 10L28 12L27 12L27 13L25 13L25 12L26 12L26 10L27 10L27 9L28 9L28 6L27 6L27 7L26 7L26 4L25 4L25 3L27 3L27 5L28 5L28 4L29 4L29 8L30 8L30 5L31 5L31 4L29 4L29 3L28 3L28 2L25 2L25 3L23 3L23 2L24 2L24 1L23 1L23 2L22 2L22 3L21 3L21 4L19 4L19 3L20 3L20 1ZM14 2L14 3L16 3L16 2ZM8 3L8 4L9 4L9 3ZM21 4L21 5L20 5L20 7L21 7L21 8L22 8L22 9L23 9L23 10L21 10L21 9L18 9L18 11L19 11L19 10L20 10L20 12L23 12L23 10L24 10L24 11L25 11L25 10L24 10L24 9L23 9L23 8L25 8L25 9L27 9L27 8L25 8L25 4L23 4L23 5L24 5L24 7L23 7L23 6L22 6L22 4ZM21 6L21 7L22 7L22 6ZM13 8L13 9L12 9L12 10L13 10L13 9L14 9L14 10L15 10L15 11L14 11L14 12L15 12L15 11L16 11L16 10L15 10L15 9L14 9L14 8ZM4 9L4 10L5 10L5 9ZM6 9L6 10L8 10L8 9ZM31 9L31 10L30 10L30 11L31 11L31 10L32 10L32 9ZM4 11L4 12L8 12L8 11ZM12 11L12 13L13 13L13 11ZM18 12L18 13L19 13L19 12ZM34 12L34 13L32 13L32 14L31 14L31 13L29 13L29 14L28 14L28 15L27 15L27 16L30 16L30 14L31 14L31 16L33 16L33 15L34 15L34 13L36 13L36 12ZM20 13L20 14L24 14L24 16L25 16L25 13ZM39 15L39 16L40 16L40 15ZM6 16L6 17L5 17L5 18L3 18L3 19L5 19L5 18L6 18L6 17L8 17L8 16ZM23 17L23 18L24 18L24 17ZM27 17L27 18L28 18L28 17ZM40 17L40 18L39 18L39 19L40 19L40 20L41 20L41 19L40 19L40 18L41 18L41 17ZM30 18L30 20L28 20L28 22L26 22L26 23L27 23L27 24L25 24L25 21L24 21L24 19L23 19L23 21L22 21L22 22L24 22L24 23L21 23L21 22L20 22L20 23L21 23L21 24L22 24L22 25L19 25L19 21L18 21L18 22L16 22L16 21L15 21L15 20L14 20L14 21L15 21L15 25L16 25L16 23L18 23L18 24L17 24L17 25L19 25L19 26L18 26L18 27L19 27L19 28L18 28L18 29L20 29L20 30L21 30L21 29L20 29L20 28L22 28L22 25L23 25L23 26L25 26L25 27L23 27L23 28L25 28L25 29L22 29L22 30L25 30L25 29L28 29L28 28L25 28L25 27L26 27L26 26L25 26L25 25L28 25L28 26L27 26L27 27L28 27L28 26L29 26L29 27L30 27L30 26L32 26L32 25L31 25L31 24L32 24L32 23L31 23L31 22L32 22L32 21L31 21L31 18ZM11 19L11 20L10 20L10 21L11 21L11 20L12 20L12 19ZM6 21L6 22L7 22L7 21ZM12 21L12 22L13 22L13 21ZM29 21L29 24L28 24L28 25L29 25L29 26L30 26L30 25L29 25L29 24L30 24L30 21ZM40 21L40 22L41 22L41 21ZM9 22L9 24L11 24L11 22ZM34 22L34 25L35 25L35 26L36 26L36 25L35 25L35 24L36 24L36 23L35 23L35 22ZM12 23L12 24L13 24L13 23ZM39 23L39 25L38 25L38 27L40 27L40 26L41 26L41 24L40 24L40 23ZM23 24L23 25L25 25L25 24ZM39 25L39 26L40 26L40 25ZM0 26L0 33L1 33L1 30L2 30L2 26ZM4 26L4 27L5 27L5 28L7 28L7 27L5 27L5 26ZM19 26L19 27L20 27L20 26ZM27 30L27 31L26 31L26 32L25 32L25 33L28 33L28 32L29 32L29 31L28 31L28 30ZM32 30L32 31L31 31L31 32L32 32L32 31L33 31L33 30ZM8 32L8 33L9 33L9 32ZM33 33L33 36L36 36L36 33ZM16 34L16 35L17 35L17 34ZM24 34L24 35L25 35L25 34ZM34 34L34 35L35 35L35 34ZM14 35L14 36L15 36L15 35ZM8 36L8 41L10 41L10 40L11 40L11 39L10 39L10 38L11 38L11 37L10 37L10 36ZM29 36L29 37L28 37L28 38L27 38L27 39L28 39L28 38L29 38L29 37L30 37L30 36ZM23 38L23 39L22 39L22 40L23 40L23 39L24 39L24 38ZM9 39L9 40L10 40L10 39ZM13 39L13 40L14 40L14 39ZM0 0L0 7L7 7L7 0ZM1 1L1 6L6 6L6 1ZM2 2L2 5L5 5L5 2ZM34 0L34 7L41 7L41 0ZM35 1L35 6L40 6L40 1ZM36 2L36 5L39 5L39 2ZM0 34L0 41L7 41L7 34ZM1 35L1 40L6 40L6 35ZM2 36L2 39L5 39L5 36Z" fill="#000000"/></g></g></svg>
