<?xml version="1.0" encoding="UTF-8"?>
<svg xmlns="http://www.w3.org/2000/svg" version="1.1" width="300" height="300" viewBox="0 0 300 300"><rect x="0" y="0" width="300" height="300" fill="#ffffff"/><g transform="scale(7.317)"><g transform="translate(0,0)"><path fill-rule="evenodd" d="M9 0L9 1L8 1L8 3L9 3L9 4L8 4L8 8L6 8L6 9L4 9L4 8L3 8L3 9L2 9L2 8L0 8L0 9L1 9L1 11L0 11L0 13L1 13L1 11L3 11L3 9L4 9L4 10L6 10L6 11L4 11L4 12L5 12L5 14L3 14L3 15L5 15L5 17L7 17L7 16L6 16L6 15L8 15L8 18L9 18L9 20L8 20L8 19L7 19L7 18L6 18L6 19L7 19L7 20L6 20L6 21L7 21L7 22L6 22L6 23L5 23L5 24L4 24L4 26L6 26L6 27L3 27L3 25L2 25L2 24L3 24L3 22L2 22L2 20L1 20L1 19L0 19L0 22L2 22L2 24L0 24L0 25L1 25L1 26L0 26L0 29L1 29L1 30L0 30L0 31L1 31L1 30L2 30L2 31L3 31L3 32L5 32L5 31L7 31L7 32L6 32L6 33L7 33L7 32L8 32L8 31L7 31L7 30L9 30L9 31L10 31L10 32L9 32L9 33L8 33L8 35L10 35L10 38L9 38L9 37L8 37L8 38L9 38L9 39L8 39L8 41L10 41L10 40L12 40L12 37L11 37L11 35L10 35L10 32L11 32L11 31L12 31L12 32L13 32L13 33L14 33L14 34L17 34L17 35L14 35L14 36L18 36L18 34L17 34L17 33L18 33L18 32L19 32L19 35L20 35L20 34L21 34L21 36L20 36L20 37L24 37L24 36L25 36L25 38L23 38L23 39L25 39L25 40L24 40L24 41L25 41L25 40L27 40L27 39L25 39L25 38L27 38L27 37L26 37L26 33L27 33L27 32L28 32L28 35L27 35L27 36L28 36L28 37L29 37L29 38L28 38L28 39L29 39L29 40L28 40L28 41L30 41L30 39L31 39L31 37L30 37L30 36L32 36L32 37L33 37L33 39L32 39L32 40L31 40L31 41L33 41L33 39L34 39L34 38L35 38L35 39L36 39L36 40L35 40L35 41L36 41L36 40L38 40L38 37L37 37L37 36L39 36L39 41L40 41L40 39L41 39L41 38L40 38L40 37L41 37L41 35L40 35L40 32L39 32L39 33L38 33L38 34L39 34L39 35L37 35L37 32L38 32L38 31L37 31L37 30L35 30L35 29L36 29L36 27L37 27L37 29L38 29L38 30L39 30L39 31L41 31L41 29L40 29L40 28L39 28L39 29L38 29L38 27L39 27L39 25L38 25L38 24L40 24L40 22L41 22L41 20L40 20L40 22L39 22L39 23L37 23L37 22L38 22L38 21L39 21L39 20L36 20L36 19L34 19L34 21L33 21L33 20L32 20L32 21L33 21L33 22L35 22L35 21L37 21L37 22L36 22L36 23L37 23L37 25L38 25L38 27L37 27L37 26L36 26L36 24L34 24L34 23L32 23L32 22L30 22L30 21L31 21L31 17L32 17L32 18L33 18L33 17L32 17L32 16L35 16L35 17L34 17L34 18L35 18L35 17L36 17L36 16L35 16L35 15L38 15L38 14L39 14L39 16L37 16L37 18L38 18L38 19L39 19L39 17L40 17L40 19L41 19L41 17L40 17L40 15L41 15L41 14L39 14L39 13L38 13L38 12L39 12L39 10L37 10L37 11L38 11L38 12L36 12L36 9L37 9L37 8L34 8L34 9L33 9L33 6L32 6L32 5L33 5L33 3L32 3L32 5L31 5L31 6L30 6L30 7L29 7L29 4L27 4L27 3L28 3L28 0L25 0L25 2L24 2L24 0L22 0L22 1L20 1L20 0L15 0L15 1L14 1L14 0ZM31 0L31 1L29 1L29 3L31 3L31 1L33 1L33 0ZM11 1L11 2L13 2L13 1ZM17 1L17 2L16 2L16 3L18 3L18 1ZM19 1L19 4L20 4L20 1ZM22 1L22 2L21 2L21 5L20 5L20 6L19 6L19 5L18 5L18 4L15 4L15 5L18 5L18 6L17 6L17 7L18 7L18 8L14 8L14 5L13 5L13 3L12 3L12 5L11 5L11 3L10 3L10 5L9 5L9 7L10 7L10 6L11 6L11 7L12 7L12 8L14 8L14 9L15 9L15 11L14 11L14 12L13 12L13 13L14 13L14 12L15 12L15 13L16 13L16 14L17 14L17 13L18 13L18 10L20 10L20 12L19 12L19 14L18 14L18 15L19 15L19 16L18 16L18 17L19 17L19 18L18 18L18 19L17 19L17 17L14 17L14 16L16 16L16 15L15 15L15 14L13 14L13 15L14 15L14 16L12 16L12 14L10 14L10 15L11 15L11 16L10 16L10 20L9 20L9 21L10 21L10 23L11 23L11 26L9 26L9 30L12 30L12 28L13 28L13 27L15 27L15 29L14 29L14 30L15 30L15 29L18 29L18 28L17 28L17 27L16 27L16 24L19 24L19 25L20 25L20 24L19 24L19 23L16 23L16 22L17 22L17 20L18 20L18 22L19 22L19 19L20 19L20 18L21 18L21 19L22 19L22 18L23 18L23 22L22 22L22 21L20 21L20 23L21 23L21 22L22 22L22 23L24 23L24 24L22 24L22 25L23 25L23 26L24 26L24 27L22 27L22 26L21 26L21 27L22 27L22 29L20 29L20 26L19 26L19 29L20 29L20 30L21 30L21 31L22 31L22 36L24 36L24 33L25 33L25 32L26 32L26 30L25 30L25 29L27 29L27 31L28 31L28 32L29 32L29 34L30 34L30 35L29 35L29 36L30 36L30 35L32 35L32 34L30 34L30 33L32 33L32 32L33 32L33 31L32 31L32 29L33 29L33 30L34 30L34 32L37 32L37 31L35 31L35 30L34 30L34 29L35 29L35 28L32 28L32 27L33 27L33 25L34 25L34 27L36 27L36 26L35 26L35 25L34 25L34 24L32 24L32 26L31 26L31 25L30 25L30 26L29 26L29 25L28 25L28 24L26 24L26 25L25 25L25 23L24 23L24 22L25 22L25 20L26 20L26 19L30 19L30 18L28 18L28 16L29 16L29 15L28 15L28 14L29 14L29 12L32 12L32 14L31 14L31 15L30 15L30 16L31 16L31 15L33 15L33 14L34 14L34 15L35 15L35 14L38 14L38 13L36 13L36 12L35 12L35 10L34 10L34 11L33 11L33 12L32 12L32 11L31 11L31 10L33 10L33 9L32 9L32 8L31 8L31 7L32 7L32 6L31 6L31 7L30 7L30 8L29 8L29 7L28 7L28 6L27 6L27 4L26 4L26 3L27 3L27 2L25 2L25 4L26 4L26 6L25 6L25 5L23 5L23 3L24 3L24 2L23 2L23 1ZM14 2L14 3L15 3L15 2ZM22 2L22 3L23 3L23 2ZM21 5L21 6L20 6L20 7L21 7L21 9L20 9L20 10L21 10L21 9L22 9L22 7L23 7L23 6L22 6L22 5ZM12 6L12 7L13 7L13 6ZM15 6L15 7L16 7L16 6ZM18 6L18 7L19 7L19 6ZM21 6L21 7L22 7L22 6ZM24 6L24 7L25 7L25 6ZM26 6L26 7L27 7L27 6ZM8 8L8 11L6 11L6 12L8 12L8 13L12 13L12 11L13 11L13 9L10 9L10 8ZM23 8L23 9L24 9L24 12L25 12L25 13L26 13L26 9L27 9L27 10L31 10L31 8L30 8L30 9L28 9L28 8L25 8L25 9L24 9L24 8ZM38 8L38 9L40 9L40 10L41 10L41 9L40 9L40 8ZM6 9L6 10L7 10L7 9ZM17 9L17 10L18 10L18 9ZM10 10L10 11L12 11L12 10ZM22 10L22 11L21 11L21 12L20 12L20 14L19 14L19 15L20 15L20 16L21 16L21 18L22 18L22 17L23 17L23 18L25 18L25 17L23 17L23 16L24 16L24 15L25 15L25 16L27 16L27 14L28 14L28 11L27 11L27 14L26 14L26 15L25 15L25 14L22 14L22 13L23 13L23 10ZM2 12L2 13L3 13L3 12ZM16 12L16 13L17 13L17 12ZM34 12L34 13L35 13L35 12ZM6 13L6 14L5 14L5 15L6 15L6 14L7 14L7 13ZM1 14L1 15L0 15L0 17L1 17L1 18L2 18L2 16L1 16L1 15L2 15L2 14ZM8 14L8 15L9 15L9 14ZM20 14L20 15L21 15L21 14ZM11 16L11 18L12 18L12 20L10 20L10 21L11 21L11 22L12 22L12 20L14 20L14 21L13 21L13 22L14 22L14 21L15 21L15 22L16 22L16 19L15 19L15 20L14 20L14 18L12 18L12 16ZM3 17L3 18L4 18L4 20L3 20L3 21L4 21L4 22L5 22L5 21L4 21L4 20L5 20L5 18L4 18L4 17ZM24 19L24 20L25 20L25 19ZM28 20L28 21L26 21L26 23L28 23L28 21L30 21L30 20ZM8 22L8 23L9 23L9 22ZM29 22L29 24L31 24L31 23L30 23L30 22ZM6 23L6 24L7 24L7 25L6 25L6 26L7 26L7 25L10 25L10 24L7 24L7 23ZM13 23L13 25L14 25L14 26L15 26L15 24L16 24L16 23L15 23L15 24L14 24L14 23ZM11 26L11 27L12 27L12 26ZM25 26L25 28L26 28L26 26ZM28 26L28 27L29 27L29 29L28 29L28 31L29 31L29 32L31 32L31 31L30 31L30 27L29 27L29 26ZM40 26L40 27L41 27L41 26ZM1 27L1 29L2 29L2 30L3 30L3 29L2 29L2 27ZM6 27L6 28L7 28L7 27ZM4 29L4 31L5 31L5 29ZM6 29L6 30L7 30L7 29ZM22 29L22 31L23 31L23 32L25 32L25 31L23 31L23 30L24 30L24 29ZM17 30L17 31L13 31L13 32L14 32L14 33L15 33L15 32L16 32L16 33L17 33L17 31L19 31L19 30ZM0 32L0 33L1 33L1 32ZM33 33L33 36L36 36L36 33ZM34 34L34 35L35 35L35 34ZM15 37L15 38L18 38L18 37ZM35 37L35 38L36 38L36 37ZM10 38L10 39L9 39L9 40L10 40L10 39L11 39L11 38ZM20 38L20 39L17 39L17 40L19 40L19 41L23 41L23 40L22 40L22 38ZM29 38L29 39L30 39L30 38ZM13 39L13 40L14 40L14 41L15 41L15 40L16 40L16 39L15 39L15 40L14 40L14 39ZM0 0L0 7L7 7L7 0ZM1 1L1 6L6 6L6 1ZM2 2L2 5L5 5L5 2ZM34 0L34 7L41 7L41 0ZM35 1L35 6L40 6L40 1ZM36 2L36 5L39 5L39 2ZM0 34L0 41L7 41L7 34ZM1 35L1 40L6 40L6 35ZM2 36L2 39L5 39L5 36Z" fill="#000000"/></g></g></svg>
