<?xml version="1.0" encoding="UTF-8"?>
<svg xmlns="http://www.w3.org/2000/svg" version="1.1" width="300" height="300" viewBox="0 0 300 300"><rect x="0" y="0" width="300" height="300" fill="#ffffff"/><g transform="scale(7.317)"><g transform="translate(0,0)"><path fill-rule="evenodd" d="M8 0L8 1L9 1L9 2L8 2L8 5L9 5L9 6L8 6L8 7L9 7L9 8L8 8L8 9L9 9L9 10L11 10L11 11L10 11L10 12L12 12L12 13L11 13L11 15L10 15L10 14L9 14L9 12L8 12L8 17L7 17L7 16L6 16L6 15L7 15L7 14L5 14L5 13L7 13L7 12L6 12L6 11L7 11L7 10L6 10L6 9L7 9L7 8L6 8L6 9L4 9L4 8L0 8L0 11L1 11L1 12L2 12L2 11L3 11L3 14L2 14L2 15L1 15L1 14L0 14L0 15L1 15L1 16L0 16L0 17L1 17L1 16L2 16L2 18L3 18L3 17L4 17L4 16L5 16L5 17L7 17L7 18L5 18L5 20L3 20L3 19L2 19L2 20L1 20L1 22L2 22L2 24L1 24L1 23L0 23L0 25L2 25L2 26L1 26L1 28L4 28L4 29L1 29L1 30L0 30L0 31L1 31L1 30L4 30L4 31L2 31L2 32L1 32L1 33L4 33L4 31L7 31L7 32L6 32L6 33L8 33L8 34L10 34L10 35L9 35L9 37L8 37L8 41L9 41L9 39L11 39L11 38L12 38L12 40L10 40L10 41L15 41L15 40L16 40L16 39L15 39L15 37L17 37L17 39L19 39L19 40L17 40L17 41L19 41L19 40L20 40L20 41L24 41L24 40L25 40L25 41L26 41L26 40L27 40L27 39L26 39L26 37L27 37L27 38L28 38L28 39L30 39L30 41L31 41L31 40L32 40L32 41L33 41L33 40L36 40L36 41L38 41L38 40L36 40L36 39L34 39L34 38L33 38L33 37L36 37L36 38L37 38L37 39L39 39L39 41L40 41L40 39L41 39L41 37L40 37L40 38L39 38L39 36L38 36L38 34L39 34L39 35L40 35L40 32L41 32L41 31L39 31L39 30L38 30L38 29L37 29L37 27L39 27L39 26L40 26L40 27L41 27L41 23L40 23L40 22L41 22L41 19L40 19L40 15L41 15L41 11L39 11L39 10L38 10L38 9L39 9L39 8L36 8L36 11L34 11L34 10L35 10L35 9L34 9L34 8L33 8L33 3L32 3L32 2L33 2L33 1L32 1L32 0L31 0L31 1L32 1L32 2L30 2L30 1L29 1L29 0L28 0L28 2L27 2L27 3L26 3L26 0L25 0L25 4L27 4L27 5L25 5L25 6L24 6L24 7L25 7L25 6L26 6L26 9L27 9L27 10L29 10L29 9L30 9L30 7L31 7L31 10L30 10L30 12L29 12L29 11L28 11L28 15L29 15L29 14L31 14L31 15L30 15L30 16L35 16L35 15L34 15L34 14L36 14L36 17L37 17L37 18L38 18L38 17L39 17L39 19L38 19L38 21L35 21L35 20L36 20L36 19L35 19L35 20L34 20L34 21L33 21L33 18L34 18L34 17L33 17L33 18L32 18L32 20L31 20L31 19L29 19L29 18L28 18L28 17L29 17L29 16L28 16L28 17L26 17L26 16L27 16L27 11L24 11L24 9L25 9L25 8L24 8L24 9L23 9L23 10L22 10L22 11L24 11L24 12L25 12L25 13L26 13L26 14L25 14L25 15L24 15L24 16L23 16L23 13L22 13L22 14L21 14L21 15L19 15L19 12L21 12L21 11L18 11L18 10L21 10L21 9L22 9L22 8L23 8L23 5L22 5L22 8L21 8L21 2L19 2L19 1L22 1L22 3L24 3L24 0L23 0L23 1L22 1L22 0L17 0L17 1L18 1L18 2L15 2L15 3L14 3L14 5L13 5L13 3L12 3L12 4L11 4L11 5L12 5L12 7L13 7L13 6L14 6L14 8L15 8L15 4L17 4L17 6L16 6L16 7L17 7L17 9L18 9L18 10L17 10L17 11L18 11L18 13L16 13L16 12L15 12L15 9L14 9L14 11L13 11L13 12L12 12L12 10L13 10L13 9L12 9L12 10L11 10L11 9L9 9L9 8L11 8L11 6L10 6L10 4L9 4L9 2L10 2L10 3L11 3L11 1L12 1L12 2L14 2L14 1L15 1L15 0L13 0L13 1L12 1L12 0L11 0L11 1L10 1L10 0ZM18 2L18 3L17 3L17 4L18 4L18 6L17 6L17 7L18 7L18 8L20 8L20 9L21 9L21 8L20 8L20 6L19 6L19 5L20 5L20 4L19 4L19 2ZM28 2L28 3L27 3L27 4L29 4L29 3L30 3L30 2ZM27 5L27 7L28 7L28 6L29 6L29 7L30 7L30 6L31 6L31 7L32 7L32 6L31 6L31 5ZM9 6L9 7L10 7L10 6ZM18 6L18 7L19 7L19 6ZM28 8L28 9L29 9L29 8ZM40 8L40 10L41 10L41 8ZM32 9L32 10L31 10L31 12L33 12L33 11L32 11L32 10L33 10L33 9ZM1 10L1 11L2 11L2 10ZM4 10L4 12L5 12L5 10ZM37 10L37 11L36 11L36 14L38 14L38 16L37 16L37 17L38 17L38 16L39 16L39 14L38 14L38 13L37 13L37 12L39 12L39 11L38 11L38 10ZM13 12L13 14L12 14L12 16L11 16L11 17L12 17L12 18L11 18L11 22L10 22L10 21L8 21L8 19L9 19L9 18L7 18L7 19L6 19L6 20L7 20L7 21L5 21L5 23L3 23L3 24L2 24L2 25L3 25L3 27L6 27L6 28L8 28L8 29L9 29L9 30L12 30L12 29L14 29L14 27L15 27L15 31L14 31L14 30L13 30L13 33L15 33L15 31L19 31L19 30L17 30L17 28L18 28L18 29L19 29L19 26L17 26L17 24L19 24L19 25L20 25L20 26L21 26L21 27L22 27L22 31L21 31L21 30L20 30L20 32L19 32L19 35L18 35L18 34L14 34L14 35L11 35L11 36L10 36L10 38L11 38L11 37L12 37L12 38L14 38L14 36L17 36L17 37L18 37L18 38L20 38L20 40L21 40L21 38L20 38L20 37L23 37L23 38L22 38L22 40L23 40L23 39L25 39L25 40L26 40L26 39L25 39L25 36L24 36L24 35L27 35L27 36L28 36L28 37L29 37L29 36L30 36L30 37L31 37L31 38L30 38L30 39L31 39L31 38L32 38L32 39L33 39L33 38L32 38L32 36L30 36L30 34L32 34L32 33L30 33L30 34L29 34L29 35L28 35L28 31L29 31L29 29L30 29L30 31L31 31L31 32L32 32L32 30L33 30L33 32L34 32L34 30L35 30L35 31L36 31L36 32L37 32L37 31L38 31L38 30L37 30L37 29L36 29L36 27L37 27L37 26L39 26L39 25L37 25L37 23L36 23L36 22L33 22L33 21L32 21L32 22L30 22L30 21L31 21L31 20L30 20L30 21L29 21L29 19L26 19L26 17L25 17L25 18L22 18L22 17L21 17L21 16L20 16L20 17L19 17L19 18L18 18L18 19L17 19L17 20L16 20L16 19L15 19L15 20L16 20L16 22L15 22L15 21L14 21L14 22L13 22L13 23L11 23L11 22L12 22L12 18L14 18L14 17L12 17L12 16L14 16L14 14L16 14L16 13L15 13L15 12ZM34 12L34 13L35 13L35 12ZM3 14L3 15L5 15L5 14ZM17 14L17 17L18 17L18 16L19 16L19 15L18 15L18 14ZM32 14L32 15L33 15L33 14ZM9 15L9 17L10 17L10 15ZM15 15L15 16L16 16L16 15ZM25 15L25 16L26 16L26 15ZM20 17L20 18L21 18L21 19L22 19L22 18L21 18L21 17ZM30 17L30 18L31 18L31 17ZM0 18L0 19L1 19L1 18ZM19 19L19 20L18 20L18 22L19 22L19 20L20 20L20 21L22 21L22 22L21 22L21 23L22 23L22 22L23 22L23 24L22 24L22 25L23 25L23 24L24 24L24 22L25 22L25 19L24 19L24 20L20 20L20 19ZM26 20L26 21L28 21L28 23L30 23L30 22L29 22L29 21L28 21L28 20ZM39 20L39 21L38 21L38 22L40 22L40 20ZM3 21L3 22L4 22L4 21ZM7 21L7 22L6 22L6 23L7 23L7 24L6 24L6 25L5 25L5 24L3 24L3 25L4 25L4 26L6 26L6 27L7 27L7 26L8 26L8 27L10 27L10 28L9 28L9 29L12 29L12 28L13 28L13 27L14 27L14 26L12 26L12 27L10 27L10 26L11 26L11 24L10 24L10 22L9 22L9 23L7 23L7 22L8 22L8 21ZM14 22L14 23L13 23L13 25L14 25L14 24L15 24L15 26L16 26L16 27L17 27L17 26L16 26L16 24L17 24L17 22L16 22L16 24L15 24L15 22ZM32 22L32 23L31 23L31 24L29 24L29 25L28 25L28 24L26 24L26 23L25 23L25 25L26 25L26 26L28 26L28 27L30 27L30 29L32 29L32 28L35 28L35 27L36 27L36 24L35 24L35 23L34 23L34 24L32 24L32 23L33 23L33 22ZM19 23L19 24L20 24L20 23ZM38 23L38 24L40 24L40 23ZM9 24L9 25L8 25L8 26L10 26L10 24ZM34 24L34 25L33 25L33 26L32 26L32 27L33 27L33 26L34 26L34 27L35 27L35 26L34 26L34 25L35 25L35 24ZM6 25L6 26L7 26L7 25ZM30 25L30 26L31 26L31 25ZM22 26L22 27L23 27L23 30L24 30L24 29L25 29L25 30L26 30L26 28L25 28L25 26L24 26L24 27L23 27L23 26ZM39 28L39 29L40 29L40 28ZM6 29L6 30L7 30L7 31L8 31L8 33L9 33L9 31L8 31L8 30L7 30L7 29ZM27 29L27 31L28 31L28 29ZM33 29L33 30L34 30L34 29ZM11 31L11 32L12 32L12 31ZM22 31L22 32L20 32L20 34L22 34L22 35L24 35L24 33L25 33L25 31ZM16 32L16 33L18 33L18 32ZM22 32L22 34L23 34L23 32ZM26 32L26 33L27 33L27 32ZM38 32L38 33L39 33L39 32ZM10 33L10 34L11 34L11 33ZM33 33L33 36L36 36L36 33ZM34 34L34 35L35 35L35 34ZM17 35L17 36L18 36L18 35ZM20 35L20 36L21 36L21 35ZM23 36L23 37L24 37L24 36ZM37 36L37 37L38 37L38 36ZM13 39L13 40L14 40L14 39ZM28 40L28 41L29 41L29 40ZM0 0L0 7L7 7L7 0ZM1 1L1 6L6 6L6 1ZM2 2L2 5L5 5L5 2ZM34 0L34 7L41 7L41 0ZM35 1L35 6L40 6L40 1ZM36 2L36 5L39 5L39 2ZM0 34L0 41L7 41L7 34ZM1 35L1 40L6 40L6 35ZM2 36L2 39L5 39L5 36Z" fill="#000000"/></g></g></svg>
