<?xml version="1.0" encoding="UTF-8"?>
<svg xmlns="http://www.w3.org/2000/svg" version="1.1" width="300" height="300" viewBox="0 0 300 300"><rect x="0" y="0" width="300" height="300" fill="#ffffff"/><g transform="scale(8.108)"><g transform="translate(0,0)"><path fill-rule="evenodd" d="M10 0L10 1L8 1L8 3L9 3L9 4L8 4L8 8L6 8L6 9L7 9L7 10L6 10L6 11L5 11L5 10L4 10L4 8L3 8L3 9L2 9L2 8L0 8L0 10L1 10L1 11L0 11L0 14L1 14L1 13L2 13L2 12L3 12L3 14L5 14L5 13L8 13L8 15L9 15L9 16L8 16L8 17L9 17L9 19L10 19L10 20L8 20L8 18L6 18L6 17L7 17L7 16L6 16L6 17L5 17L5 15L4 15L4 16L3 16L3 15L1 15L1 16L0 16L0 17L2 17L2 16L3 16L3 20L4 20L4 19L5 19L5 18L6 18L6 19L7 19L7 20L5 20L5 21L3 21L3 22L2 22L2 21L1 21L1 20L2 20L2 19L1 19L1 18L0 18L0 23L4 23L4 22L6 22L6 23L7 23L7 24L6 24L6 25L5 25L5 24L3 24L3 25L5 25L5 27L4 27L4 26L3 26L3 28L2 28L2 27L1 27L1 26L0 26L0 27L1 27L1 28L0 28L0 29L4 29L4 28L6 28L6 29L8 29L8 31L9 31L9 33L8 33L8 34L9 34L9 35L8 35L8 37L12 37L12 36L14 36L14 37L16 37L16 36L17 36L17 37L19 37L19 36L17 36L17 35L20 35L20 34L19 34L19 33L17 33L17 34L16 34L16 35L15 35L15 34L14 34L14 33L15 33L15 32L14 32L14 30L13 30L13 32L12 32L12 31L11 31L11 32L10 32L10 31L9 31L9 30L10 30L10 28L9 28L9 27L10 27L10 25L8 25L8 24L9 24L9 23L10 23L10 21L11 21L11 22L12 22L12 21L11 21L11 19L12 19L12 20L13 20L13 18L14 18L14 20L16 20L16 19L17 19L17 20L20 20L20 21L23 21L23 18L24 18L24 22L26 22L26 23L23 23L23 22L22 22L22 23L21 23L21 22L19 22L19 23L18 23L18 24L17 24L17 25L16 25L16 27L13 27L13 24L12 24L12 25L11 25L11 26L12 26L12 28L11 28L11 29L12 29L12 28L13 28L13 29L15 29L15 28L16 28L16 29L18 29L18 27L19 27L19 29L20 29L20 30L24 30L24 34L25 34L25 33L27 33L27 34L26 34L26 35L25 35L25 36L23 36L23 32L22 32L22 31L21 31L21 32L20 32L20 33L21 33L21 34L22 34L22 35L21 35L21 37L26 37L26 35L27 35L27 37L32 37L32 35L33 35L33 36L34 36L34 35L33 35L33 34L34 34L34 32L35 32L35 31L36 31L36 33L37 33L37 29L36 29L36 30L35 30L35 28L36 28L36 27L37 27L37 24L35 24L35 25L34 25L34 23L37 23L37 20L36 20L36 19L37 19L37 16L36 16L36 15L37 15L37 13L36 13L36 14L35 14L35 16L34 16L34 14L32 14L32 15L31 15L31 13L32 13L32 11L33 11L33 12L34 12L34 11L35 11L35 10L36 10L36 12L37 12L37 9L36 9L36 8L34 8L34 10L32 10L32 9L33 9L33 8L30 8L30 11L31 11L31 12L30 12L30 14L28 14L28 15L27 15L27 12L28 12L28 13L29 13L29 9L28 9L28 11L27 11L27 8L28 8L28 7L29 7L29 6L28 6L28 5L29 5L29 4L28 4L28 3L29 3L29 2L28 2L28 0L25 0L25 1L24 1L24 0L23 0L23 1L22 1L22 3L23 3L23 4L21 4L21 5L19 5L19 6L18 6L18 5L17 5L17 6L16 6L16 4L17 4L17 3L18 3L18 4L20 4L20 3L21 3L21 2L20 2L20 3L18 3L18 2L19 2L19 1L20 1L20 0L18 0L18 1L17 1L17 0L15 0L15 2L14 2L14 3L12 3L12 7L11 7L11 4L10 4L10 3L9 3L9 2L11 2L11 0ZM16 1L16 2L17 2L17 1ZM25 1L25 2L24 2L24 5L23 5L23 7L22 7L22 6L21 6L21 7L20 7L20 6L19 6L19 7L18 7L18 6L17 6L17 7L18 7L18 9L17 9L17 8L15 8L15 7L16 7L16 6L15 6L15 5L14 5L14 4L15 4L15 3L14 3L14 4L13 4L13 7L12 7L12 8L13 8L13 9L14 9L14 10L15 10L15 11L14 11L14 12L12 12L12 16L11 16L11 17L10 17L10 19L11 19L11 18L12 18L12 16L14 16L14 17L15 17L15 19L16 19L16 18L17 18L17 19L20 19L20 20L21 20L21 19L20 19L20 17L19 17L19 16L20 16L20 15L22 15L22 16L21 16L21 17L22 17L22 16L23 16L23 17L26 17L26 18L25 18L25 20L28 20L28 21L29 21L29 19L30 19L30 20L33 20L33 19L30 19L30 18L28 18L28 17L30 17L30 16L31 16L31 17L33 17L33 16L31 16L31 15L30 15L30 16L23 16L23 14L24 14L24 15L25 15L25 14L24 14L24 13L23 13L23 12L24 12L24 11L26 11L26 12L27 12L27 11L26 11L26 10L24 10L24 9L23 9L23 8L27 8L27 7L28 7L28 6L27 6L27 5L26 5L26 2L27 2L27 3L28 3L28 2L27 2L27 1ZM9 5L9 8L8 8L8 9L9 9L9 11L8 11L8 10L7 10L7 11L6 11L6 12L8 12L8 13L9 13L9 12L11 12L11 8L10 8L10 5ZM25 5L25 6L24 6L24 7L25 7L25 6L26 6L26 7L27 7L27 6L26 6L26 5ZM14 6L14 7L13 7L13 8L14 8L14 9L15 9L15 8L14 8L14 7L15 7L15 6ZM19 7L19 8L20 8L20 10L19 10L19 9L18 9L18 10L17 10L17 11L18 11L18 12L17 12L17 13L16 13L16 14L17 14L17 13L18 13L18 12L19 12L19 14L23 14L23 13L21 13L21 12L23 12L23 10L22 10L22 9L21 9L21 8L22 8L22 7L21 7L21 8L20 8L20 7ZM2 10L2 11L3 11L3 12L4 12L4 13L5 13L5 11L3 11L3 10ZM18 10L18 11L19 11L19 12L21 12L21 10L20 10L20 11L19 11L19 10ZM15 11L15 12L14 12L14 13L13 13L13 15L15 15L15 17L16 17L16 16L17 16L17 17L18 17L18 18L19 18L19 17L18 17L18 15L15 15L15 12L16 12L16 11ZM10 13L10 15L11 15L11 13ZM6 14L6 15L7 15L7 14ZM35 16L35 17L34 17L34 18L35 18L35 17L36 17L36 16ZM4 17L4 18L5 18L5 17ZM34 20L34 22L33 22L33 21L32 21L32 23L31 23L31 22L30 22L30 23L31 23L31 27L32 27L32 28L33 28L33 31L35 31L35 30L34 30L34 28L35 28L35 27L36 27L36 25L35 25L35 26L34 26L34 25L33 25L33 23L34 23L34 22L36 22L36 20ZM6 21L6 22L7 22L7 23L9 23L9 21ZM14 21L14 22L15 22L15 21ZM27 22L27 23L28 23L28 25L27 25L27 24L26 24L26 25L25 25L25 24L24 24L24 25L25 25L25 26L24 26L24 27L23 27L23 28L22 28L22 29L24 29L24 27L28 27L28 28L29 28L29 26L30 26L30 25L29 25L29 22ZM14 23L14 24L15 24L15 23ZM20 23L20 24L18 24L18 26L17 26L17 27L16 27L16 28L17 28L17 27L18 27L18 26L19 26L19 27L22 27L22 26L23 26L23 25L22 25L22 26L21 26L21 23ZM0 24L0 25L2 25L2 24ZM6 25L6 26L7 26L7 27L6 27L6 28L8 28L8 25ZM19 25L19 26L20 26L20 25ZM33 26L33 28L34 28L34 26ZM20 28L20 29L21 29L21 28ZM25 28L25 29L27 29L27 28ZM29 29L29 32L32 32L32 29ZM16 30L16 32L19 32L19 31L17 31L17 30ZM30 30L30 31L31 31L31 30ZM25 31L25 32L26 32L26 31ZM27 31L27 33L28 33L28 31ZM13 32L13 33L14 33L14 32ZM9 33L9 34L11 34L11 33ZM29 33L29 34L27 34L27 35L29 35L29 34L30 34L30 36L31 36L31 34L32 34L32 33ZM35 34L35 35L37 35L37 34ZM10 35L10 36L11 36L11 35ZM14 35L14 36L15 36L15 35ZM35 36L35 37L37 37L37 36ZM0 0L0 7L7 7L7 0ZM1 1L1 6L6 6L6 1ZM2 2L2 5L5 5L5 2ZM30 0L30 7L37 7L37 0ZM31 1L31 6L36 6L36 1ZM32 2L32 5L35 5L35 2ZM0 30L0 37L7 37L7 30ZM1 31L1 36L6 36L6 31ZM2 32L2 35L5 35L5 32Z" fill="#000000"/></g></g></svg>
