<?xml version="1.0" encoding="UTF-8"?>
<svg xmlns="http://www.w3.org/2000/svg" version="1.1" width="300" height="300" viewBox="0 0 300 300"><rect x="0" y="0" width="300" height="300" fill="#ffffff"/><g transform="scale(7.317)"><g transform="translate(0,0)"><path fill-rule="evenodd" d="M9 0L9 1L8 1L8 2L9 2L9 3L8 3L8 4L9 4L9 3L11 3L11 2L9 2L9 1L10 1L10 0ZM14 0L14 1L15 1L15 2L14 2L14 3L15 3L15 4L14 4L14 5L13 5L13 6L12 6L12 11L10 11L10 10L11 10L11 8L10 8L10 10L9 10L9 8L6 8L6 9L8 9L8 10L6 10L6 11L5 11L5 8L0 8L0 9L3 9L3 10L0 10L0 13L1 13L1 14L0 14L0 15L1 15L1 16L2 16L2 17L1 17L1 18L0 18L0 19L1 19L1 20L0 20L0 21L1 21L1 24L0 24L0 27L1 27L1 28L0 28L0 33L1 33L1 30L2 30L2 31L4 31L4 30L5 30L5 32L4 32L4 33L8 33L8 35L9 35L9 36L8 36L8 41L9 41L9 40L10 40L10 39L11 39L11 41L12 41L12 39L13 39L13 38L11 38L11 37L13 37L13 33L14 33L14 34L15 34L15 35L14 35L14 36L15 36L15 37L14 37L14 38L17 38L17 39L16 39L16 40L17 40L17 39L18 39L18 38L17 38L17 37L16 37L16 36L17 36L17 35L16 35L16 34L17 34L17 32L16 32L16 31L17 31L17 30L19 30L19 29L20 29L20 28L22 28L22 25L23 25L23 26L26 26L26 28L25 28L25 27L23 27L23 28L25 28L25 29L22 29L22 30L20 30L20 31L21 31L21 32L19 32L19 33L18 33L18 35L19 35L19 36L18 36L18 37L19 37L19 38L20 38L20 37L21 37L21 36L22 36L22 33L23 33L23 34L24 34L24 35L26 35L26 34L24 34L24 33L23 33L23 32L25 32L25 33L28 33L28 34L27 34L27 36L25 36L25 38L26 38L26 37L28 37L28 38L27 38L27 39L26 39L26 40L24 40L24 41L27 41L27 39L28 39L28 41L30 41L30 40L33 40L33 41L36 41L36 39L38 39L38 38L39 38L39 36L41 36L41 35L40 35L40 34L41 34L41 33L40 33L40 31L39 31L39 30L41 30L41 29L39 29L39 28L41 28L41 27L39 27L39 26L40 26L40 25L41 25L41 24L40 24L40 23L39 23L39 24L37 24L37 23L38 23L38 22L37 22L37 21L39 21L39 20L37 20L37 19L36 19L36 21L34 21L34 20L32 20L32 21L31 21L31 18L32 18L32 19L34 19L34 18L35 18L35 17L36 17L36 18L37 18L37 17L36 17L36 16L38 16L38 14L37 14L37 13L40 13L40 14L41 14L41 13L40 13L40 12L41 12L41 11L40 11L40 12L38 12L38 11L36 11L36 10L38 10L38 8L37 8L37 9L36 9L36 8L35 8L35 9L34 9L34 8L31 8L31 5L32 5L32 7L33 7L33 5L32 5L32 4L33 4L33 3L31 3L31 2L30 2L30 3L29 3L29 0L28 0L28 1L26 1L26 0L25 0L25 1L24 1L24 0L23 0L23 1L24 1L24 2L23 2L23 3L25 3L25 4L20 4L20 3L22 3L22 2L21 2L21 1L22 1L22 0L18 0L18 2L19 2L19 1L20 1L20 3L18 3L18 4L20 4L20 5L17 5L17 4L16 4L16 3L17 3L17 2L16 2L16 1L15 1L15 0ZM31 0L31 1L32 1L32 0ZM12 1L12 4L13 4L13 1ZM15 2L15 3L16 3L16 2ZM25 2L25 3L26 3L26 2ZM27 2L27 4L25 4L25 8L24 8L24 5L22 5L22 6L21 6L21 5L20 5L20 6L19 6L19 7L20 7L20 6L21 6L21 7L22 7L22 6L23 6L23 9L22 9L22 8L20 8L20 9L22 9L22 10L23 10L23 11L22 11L22 12L21 12L21 13L20 13L20 10L18 10L18 11L19 11L19 12L17 12L17 11L16 11L16 12L17 12L17 13L16 13L16 14L17 14L17 15L16 15L16 16L18 16L18 17L15 17L15 16L14 16L14 14L15 14L15 13L14 13L14 12L15 12L15 11L14 11L14 12L11 12L11 14L10 14L10 11L6 11L6 12L7 12L7 13L6 13L6 14L4 14L4 13L3 13L3 12L5 12L5 11L3 11L3 12L1 12L1 13L3 13L3 14L4 14L4 17L5 17L5 18L1 18L1 19L4 19L4 20L3 20L3 21L2 21L2 22L3 22L3 21L6 21L6 22L8 22L8 20L7 20L7 19L6 19L6 18L7 18L7 17L6 17L6 16L8 16L8 17L9 17L9 18L8 18L8 19L10 19L10 20L9 20L9 23L10 23L10 24L9 24L9 25L6 25L6 24L7 24L7 23L4 23L4 24L3 24L3 25L5 25L5 26L4 26L4 27L2 27L2 26L1 26L1 27L2 27L2 28L3 28L3 30L4 30L4 29L5 29L5 28L7 28L7 29L6 29L6 30L7 30L7 31L6 31L6 32L7 32L7 31L8 31L8 30L9 30L9 35L11 35L11 36L10 36L10 37L11 37L11 36L12 36L12 34L11 34L11 33L13 33L13 32L14 32L14 33L15 33L15 32L14 32L14 31L15 31L15 29L14 29L14 28L17 28L17 29L16 29L16 30L17 30L17 29L19 29L19 28L17 28L17 24L18 24L18 23L17 23L17 22L20 22L20 23L23 23L23 24L24 24L24 25L25 25L25 24L27 24L27 23L26 23L26 22L28 22L28 23L29 23L29 24L28 24L28 25L26 25L26 26L28 26L28 27L27 27L27 28L28 28L28 29L25 29L25 32L26 32L26 31L27 31L27 32L28 32L28 33L29 33L29 34L30 34L30 35L29 35L29 36L30 36L30 37L29 37L29 38L30 38L30 37L31 37L31 39L33 39L33 40L34 40L34 38L35 38L35 39L36 39L36 38L38 38L38 36L39 36L39 35L37 35L37 37L36 37L36 38L35 38L35 37L34 37L34 38L33 38L33 37L32 37L32 35L31 35L31 34L32 34L32 31L34 31L34 30L33 30L33 29L32 29L32 30L30 30L30 31L29 31L29 30L28 30L28 29L29 29L29 28L30 28L30 25L29 25L29 24L30 24L30 22L31 22L31 25L32 25L32 26L31 26L31 27L33 27L33 25L32 25L32 24L33 24L33 22L34 22L34 25L35 25L35 26L34 26L34 27L35 27L35 28L34 28L34 29L36 29L36 27L35 27L35 26L36 26L36 25L37 25L37 29L38 29L38 30L39 30L39 29L38 29L38 28L39 28L39 27L38 27L38 25L37 25L37 24L36 24L36 25L35 25L35 23L37 23L37 22L34 22L34 21L32 21L32 22L31 22L31 21L29 21L29 20L30 20L30 19L28 19L28 20L27 20L27 21L25 21L25 20L26 20L26 17L25 17L25 16L26 16L26 13L25 13L25 12L27 12L27 14L28 14L28 12L30 12L30 11L32 11L32 12L33 12L33 11L34 11L34 13L32 13L32 14L31 14L31 13L29 13L29 16L30 16L30 14L31 14L31 16L33 16L33 15L34 15L34 13L36 13L36 12L35 12L35 10L36 10L36 9L35 9L35 10L33 10L33 9L32 9L32 10L31 10L31 9L29 9L29 10L28 10L28 12L27 12L27 11L24 11L24 10L25 10L25 8L30 8L30 5L31 5L31 4L29 4L29 5L28 5L28 6L27 6L27 7L26 7L26 5L27 5L27 4L28 4L28 2ZM10 4L10 5L11 5L11 4ZM8 5L8 7L9 7L9 5ZM15 5L15 8L14 8L14 6L13 6L13 8L14 8L14 9L15 9L15 10L17 10L17 9L16 9L16 6L17 6L17 8L18 8L18 9L19 9L19 8L18 8L18 6L17 6L17 5ZM10 6L10 7L11 7L11 6ZM28 6L28 7L29 7L29 6ZM39 8L39 10L40 10L40 8ZM23 9L23 10L24 10L24 9ZM26 9L26 10L27 10L27 9ZM8 12L8 13L7 13L7 14L6 14L6 15L7 15L7 14L8 14L8 15L9 15L9 14L8 14L8 13L9 13L9 12ZM12 13L12 14L13 14L13 13ZM18 13L18 14L19 14L19 13ZM21 13L21 14L20 14L20 15L21 15L21 16L20 16L20 17L19 17L19 18L18 18L18 19L19 19L19 20L18 20L18 21L20 21L20 22L21 22L21 21L20 21L20 20L23 20L23 21L22 21L22 22L25 22L25 21L24 21L24 19L23 19L23 18L24 18L24 17L23 17L23 16L25 16L25 13L23 13L23 14L24 14L24 15L21 15L21 14L22 14L22 13ZM2 15L2 16L3 16L3 15ZM10 15L10 16L9 16L9 17L10 17L10 16L11 16L11 15ZM12 15L12 16L13 16L13 17L11 17L11 18L12 18L12 19L11 19L11 20L12 20L12 21L13 21L13 20L12 20L12 19L13 19L13 17L14 17L14 18L15 18L15 19L14 19L14 20L17 20L17 18L15 18L15 17L14 17L14 16L13 16L13 15ZM35 15L35 16L34 16L34 17L32 17L32 18L34 18L34 17L35 17L35 16L36 16L36 15ZM39 15L39 16L40 16L40 15ZM21 16L21 18L19 18L19 19L21 19L21 18L23 18L23 17L22 17L22 16ZM27 17L27 18L28 18L28 17ZM29 17L29 18L31 18L31 17ZM40 17L40 18L39 18L39 19L40 19L40 18L41 18L41 17ZM5 19L5 20L6 20L6 21L7 21L7 20L6 20L6 19ZM10 21L10 22L11 22L11 26L12 26L12 27L11 27L11 28L14 28L14 27L16 27L16 26L15 26L15 25L14 25L14 24L15 24L15 22L17 22L17 21L14 21L14 22L11 22L11 21ZM28 21L28 22L29 22L29 21ZM40 21L40 22L41 22L41 21ZM12 23L12 25L13 25L13 24L14 24L14 23ZM16 23L16 24L17 24L17 23ZM20 24L20 25L22 25L22 24ZM18 25L18 27L20 27L20 26L19 26L19 25ZM28 25L28 26L29 26L29 25ZM6 26L6 27L7 27L7 28L8 28L8 27L10 27L10 26ZM4 27L4 28L5 28L5 27ZM9 28L9 29L10 29L10 28ZM7 29L7 30L8 30L8 29ZM12 29L12 30L13 30L13 31L12 31L12 32L13 32L13 31L14 31L14 30L13 30L13 29ZM22 30L22 31L24 31L24 30ZM27 30L27 31L28 31L28 30ZM36 30L36 31L37 31L37 32L39 32L39 31L37 31L37 30ZM10 31L10 32L11 32L11 31ZM21 32L21 33L22 33L22 32ZM29 32L29 33L30 33L30 32ZM19 33L19 35L20 35L20 33ZM33 33L33 36L36 36L36 33ZM39 33L39 34L40 34L40 33ZM34 34L34 35L35 35L35 34ZM30 35L30 36L31 36L31 35ZM19 36L19 37L20 37L20 36ZM23 36L23 37L22 37L22 39L21 39L21 40L22 40L22 41L23 41L23 40L22 40L22 39L23 39L23 38L24 38L24 36ZM40 37L40 38L41 38L41 37ZM9 38L9 39L10 39L10 38ZM14 39L14 40L13 40L13 41L14 41L14 40L15 40L15 39ZM19 39L19 40L20 40L20 39ZM29 39L29 40L30 40L30 39ZM39 39L39 40L37 40L37 41L39 41L39 40L40 40L40 39ZM0 0L0 7L7 7L7 0ZM1 1L1 6L6 6L6 1ZM2 2L2 5L5 5L5 2ZM34 0L34 7L41 7L41 0ZM35 1L35 6L40 6L40 1ZM36 2L36 5L39 5L39 2ZM0 34L0 41L7 41L7 34ZM1 35L1 40L6 40L6 35ZM2 36L2 39L5 39L5 36Z" fill="#000000"/></g></g></svg>
