<?xml version="1.0" encoding="UTF-8"?>
<svg xmlns="http://www.w3.org/2000/svg" version="1.1" width="300" height="300" viewBox="0 0 300 300"><rect x="0" y="0" width="300" height="300" fill="#ffffff"/><g transform="scale(7.317)"><g transform="translate(0,0)"><path fill-rule="evenodd" d="M12 0L12 1L10 1L10 4L8 4L8 8L6 8L6 9L8 9L8 10L6 10L6 11L7 11L7 12L5 12L5 13L7 13L7 14L6 14L6 15L7 15L7 14L8 14L8 17L7 17L7 16L6 16L6 17L5 17L5 18L6 18L6 19L5 19L5 21L4 21L4 19L2 19L2 18L1 18L1 19L2 19L2 20L3 20L3 21L4 21L4 22L3 22L3 23L4 23L4 22L5 22L5 26L4 26L4 27L3 27L3 25L4 25L4 24L2 24L2 22L0 22L0 23L1 23L1 24L0 24L0 25L1 25L1 27L0 27L0 29L1 29L1 27L2 27L2 28L3 28L3 29L2 29L2 30L3 30L3 33L4 33L4 32L5 32L5 31L7 31L7 30L3 30L3 29L8 29L8 35L9 35L9 37L8 37L8 38L9 38L9 37L10 37L10 39L11 39L11 40L10 40L10 41L11 41L11 40L12 40L12 37L11 37L11 36L10 36L10 35L11 35L11 34L10 34L10 31L9 31L9 29L10 29L10 28L11 28L11 27L12 27L12 30L11 30L11 31L12 31L12 32L13 32L13 33L14 33L14 34L17 34L17 35L14 35L14 36L18 36L18 34L17 34L17 33L18 33L18 32L19 32L19 35L20 35L20 34L21 34L21 36L20 36L20 37L24 37L24 36L25 36L25 38L23 38L23 39L25 39L25 40L24 40L24 41L25 41L25 40L27 40L27 39L25 39L25 38L27 38L27 37L26 37L26 33L27 33L27 32L28 32L28 35L27 35L27 36L28 36L28 37L29 37L29 38L28 38L28 39L29 39L29 40L28 40L28 41L30 41L30 39L31 39L31 37L30 37L30 36L32 36L32 37L33 37L33 39L32 39L32 40L31 40L31 41L34 41L34 40L33 40L33 39L34 39L34 38L35 38L35 39L36 39L36 40L35 40L35 41L36 41L36 40L38 40L38 39L37 39L37 38L38 38L38 37L37 37L37 36L39 36L39 41L40 41L40 39L41 39L41 38L40 38L40 37L41 37L41 35L40 35L40 32L36 32L36 31L35 31L35 32L34 32L34 30L35 30L35 29L36 29L36 27L37 27L37 29L38 29L38 30L37 30L37 31L41 31L41 29L40 29L40 28L39 28L39 29L38 29L38 27L39 27L39 24L40 24L40 22L41 22L41 20L40 20L40 22L39 22L39 23L38 23L38 27L37 27L37 26L36 26L36 24L34 24L34 23L33 23L33 24L34 24L34 25L33 25L33 27L32 27L32 28L35 28L35 29L34 29L34 30L33 30L33 29L32 29L32 31L30 31L30 27L29 27L29 26L30 26L30 25L31 25L31 26L32 26L32 25L31 25L31 24L29 24L29 22L30 22L30 23L32 23L32 22L30 22L30 21L31 21L31 17L32 17L32 18L33 18L33 17L32 17L32 16L35 16L35 17L34 17L34 18L35 18L35 17L36 17L36 15L38 15L38 14L39 14L39 16L37 16L37 18L38 18L38 19L39 19L39 17L40 17L40 19L41 19L41 17L40 17L40 15L41 15L41 14L39 14L39 13L38 13L38 12L39 12L39 10L37 10L37 11L38 11L38 12L37 12L37 13L38 13L38 14L36 14L36 9L37 9L37 8L34 8L34 9L33 9L33 8L30 8L30 7L31 7L31 6L32 6L32 7L33 7L33 3L32 3L32 5L31 5L31 6L30 6L30 7L29 7L29 4L27 4L27 3L28 3L28 0L25 0L25 2L24 2L24 0L22 0L22 1L20 1L20 0L15 0L15 1L14 1L14 0ZM31 0L31 1L29 1L29 3L30 3L30 2L31 2L31 1L33 1L33 0ZM8 1L8 3L9 3L9 1ZM16 1L16 2L17 2L17 3L18 3L18 1ZM19 1L19 4L20 4L20 1ZM22 1L22 2L21 2L21 5L20 5L20 6L19 6L19 5L18 5L18 4L15 4L15 5L12 5L12 4L13 4L13 3L12 3L12 4L11 4L11 5L9 5L9 7L10 7L10 8L8 8L8 9L9 9L9 10L8 10L8 11L9 11L9 10L10 10L10 12L9 12L9 13L10 13L10 12L11 12L11 13L12 13L12 12L13 12L13 13L14 13L14 12L15 12L15 13L16 13L16 14L17 14L17 13L18 13L18 10L20 10L20 12L19 12L19 14L18 14L18 15L19 15L19 16L18 16L18 17L19 17L19 18L18 18L18 19L17 19L17 17L14 17L14 16L16 16L16 15L15 15L15 14L13 14L13 15L14 15L14 16L12 16L12 14L11 14L11 16L12 16L12 18L11 18L11 20L10 20L10 17L8 17L8 18L9 18L9 20L8 20L8 19L6 19L6 20L8 20L8 21L6 21L6 22L7 22L7 23L6 23L6 24L7 24L7 23L8 23L8 24L10 24L10 25L6 25L6 26L5 26L5 27L4 27L4 28L7 28L7 27L8 27L8 28L10 28L10 27L11 27L11 26L13 26L13 27L15 27L15 29L14 29L14 30L13 30L13 32L14 32L14 33L15 33L15 32L16 32L16 33L17 33L17 31L19 31L19 30L17 30L17 31L15 31L15 32L14 32L14 30L15 30L15 29L18 29L18 28L17 28L17 27L16 27L16 24L19 24L19 25L20 25L20 24L19 24L19 23L16 23L16 22L17 22L17 20L18 20L18 22L19 22L19 19L20 19L20 18L21 18L21 19L22 19L22 18L23 18L23 22L22 22L22 21L20 21L20 23L21 23L21 22L22 22L22 23L24 23L24 24L22 24L22 25L23 25L23 26L24 26L24 27L22 27L22 26L21 26L21 27L22 27L22 29L20 29L20 26L19 26L19 29L20 29L20 30L21 30L21 31L22 31L22 36L24 36L24 33L25 33L25 32L26 32L26 30L25 30L25 29L27 29L27 31L28 31L28 32L29 32L29 34L30 34L30 35L29 35L29 36L30 36L30 35L32 35L32 34L30 34L30 33L32 33L32 32L29 32L29 31L28 31L28 29L29 29L29 27L28 27L28 26L29 26L29 25L28 25L28 24L26 24L26 25L25 25L25 23L24 23L24 22L25 22L25 20L26 20L26 19L29 19L29 18L30 18L30 17L29 17L29 18L28 18L28 16L29 16L29 15L28 15L28 14L29 14L29 12L30 12L30 11L31 11L31 12L32 12L32 14L31 14L31 15L30 15L30 16L32 16L32 14L34 14L34 15L36 15L36 14L35 14L35 13L34 13L34 12L35 12L35 10L34 10L34 11L33 11L33 12L32 12L32 11L31 11L31 10L33 10L33 9L31 9L31 10L30 10L30 11L29 11L29 10L27 10L27 9L26 9L26 13L25 13L25 12L24 12L24 9L25 9L25 8L28 8L28 9L30 9L30 8L29 8L29 7L28 7L28 6L27 6L27 4L26 4L26 3L27 3L27 2L25 2L25 4L26 4L26 6L25 6L25 5L23 5L23 3L24 3L24 2L23 2L23 1ZM14 2L14 3L15 3L15 2ZM22 2L22 3L23 3L23 2ZM11 5L11 6L10 6L10 7L11 7L11 6L12 6L12 7L13 7L13 6L12 6L12 5ZM15 5L15 6L14 6L14 7L15 7L15 8L18 8L18 7L19 7L19 6L18 6L18 5ZM21 5L21 6L20 6L20 7L21 7L21 9L20 9L20 10L21 10L21 9L22 9L22 7L23 7L23 6L22 6L22 5ZM15 6L15 7L16 7L16 6ZM17 6L17 7L18 7L18 6ZM21 6L21 7L22 7L22 6ZM24 6L24 7L25 7L25 6ZM26 6L26 7L27 7L27 6ZM0 8L0 9L2 9L2 10L3 10L3 12L2 12L2 11L1 11L1 10L0 10L0 15L1 15L1 17L2 17L2 16L3 16L3 18L4 18L4 16L3 16L3 14L4 14L4 11L5 11L5 9L4 9L4 8L3 8L3 9L2 9L2 8ZM10 8L10 10L11 10L11 11L12 11L12 10L13 10L13 12L14 12L14 11L15 11L15 9L14 9L14 8L12 8L12 10L11 10L11 8ZM23 8L23 9L24 9L24 8ZM38 8L38 9L40 9L40 10L41 10L41 9L40 9L40 8ZM3 9L3 10L4 10L4 9ZM17 9L17 10L18 10L18 9ZM22 10L22 11L21 11L21 12L20 12L20 14L19 14L19 15L20 15L20 16L21 16L21 18L22 18L22 17L23 17L23 18L25 18L25 17L23 17L23 16L24 16L24 15L25 15L25 16L27 16L27 14L28 14L28 11L27 11L27 14L26 14L26 15L25 15L25 14L22 14L22 13L23 13L23 10ZM16 11L16 13L17 13L17 11ZM7 12L7 13L8 13L8 12ZM1 14L1 15L2 15L2 14ZM9 14L9 16L10 16L10 14ZM20 14L20 15L21 15L21 14ZM6 17L6 18L7 18L7 17ZM12 18L12 20L11 20L11 21L10 21L10 20L9 20L9 21L8 21L8 22L10 22L10 24L11 24L11 22L12 22L12 20L14 20L14 21L13 21L13 22L14 22L14 23L13 23L13 25L14 25L14 26L15 26L15 24L16 24L16 23L15 23L15 22L16 22L16 19L15 19L15 20L14 20L14 18ZM24 19L24 20L25 20L25 19ZM33 19L33 20L32 20L32 21L33 21L33 22L35 22L35 21L37 21L37 22L36 22L36 23L37 23L37 22L38 22L38 21L39 21L39 20L36 20L36 19ZM0 20L0 21L1 21L1 20ZM28 20L28 21L26 21L26 23L28 23L28 21L30 21L30 20ZM33 20L33 21L34 21L34 20ZM14 21L14 22L15 22L15 21ZM10 25L10 26L8 26L8 27L10 27L10 26L11 26L11 25ZM34 25L34 27L36 27L36 26L35 26L35 25ZM6 26L6 27L7 27L7 26ZM25 26L25 28L26 28L26 26ZM40 26L40 27L41 27L41 26ZM22 29L22 31L23 31L23 32L25 32L25 31L23 31L23 30L24 30L24 29ZM0 30L0 31L1 31L1 30ZM0 32L0 33L1 33L1 32ZM6 32L6 33L7 33L7 32ZM33 33L33 36L36 36L36 33ZM37 33L37 35L39 35L39 34L38 34L38 33ZM34 34L34 35L35 35L35 34ZM15 37L15 38L18 38L18 37ZM35 37L35 38L36 38L36 37ZM21 38L21 39L20 39L20 40L19 40L19 39L17 39L17 40L19 40L19 41L23 41L23 40L22 40L22 38ZM29 38L29 39L30 39L30 38ZM8 39L8 41L9 41L9 39ZM13 39L13 40L14 40L14 41L15 41L15 40L16 40L16 39L15 39L15 40L14 40L14 39ZM0 0L0 7L7 7L7 0ZM1 1L1 6L6 6L6 1ZM2 2L2 5L5 5L5 2ZM34 0L34 7L41 7L41 0ZM35 1L35 6L40 6L40 1ZM36 2L36 5L39 5L39 2ZM0 34L0 41L7 41L7 34ZM1 35L1 40L6 40L6 35ZM2 36L2 39L5 39L5 36Z" fill="#000000"/></g></g></svg>
