<?xml version="1.0" encoding="UTF-8"?>
<svg xmlns="http://www.w3.org/2000/svg" version="1.1" width="300" height="300" viewBox="0 0 300 300"><rect x="0" y="0" width="300" height="300" fill="#ffffff"/><g transform="scale(8.108)"><g transform="translate(0,0)"><path fill-rule="evenodd" d="M9 0L9 1L8 1L8 2L9 2L9 3L8 3L8 4L10 4L10 7L11 7L11 4L12 4L12 5L13 5L13 6L12 6L12 9L13 9L13 8L14 8L14 9L15 9L15 10L17 10L17 11L16 11L16 12L17 12L17 13L18 13L18 14L20 14L20 16L23 16L23 15L22 15L22 14L24 14L24 13L25 13L25 15L26 15L26 16L25 16L25 17L26 17L26 19L28 19L28 21L27 21L27 20L24 20L24 19L25 19L25 18L24 18L24 17L19 17L19 18L15 18L15 19L14 19L14 20L15 20L15 21L12 21L12 19L13 19L13 18L11 18L11 20L10 20L10 19L9 19L9 17L11 17L11 15L9 15L9 17L8 17L8 15L7 15L7 14L10 14L10 12L11 12L11 13L12 13L12 14L13 14L13 15L12 15L12 17L13 17L13 16L14 16L14 17L18 17L18 16L17 16L17 15L16 15L16 13L12 13L12 11L13 11L13 10L11 10L11 11L10 11L10 10L9 10L9 9L11 9L11 8L6 8L6 9L5 9L5 8L0 8L0 9L1 9L1 10L2 10L2 12L1 12L1 11L0 11L0 19L2 19L2 20L0 20L0 22L1 22L1 21L2 21L2 20L3 20L3 14L4 14L4 9L5 9L5 11L7 11L7 12L5 12L5 15L7 15L7 16L5 16L5 17L4 17L4 18L6 18L6 19L5 19L5 20L4 20L4 21L3 21L3 22L2 22L2 23L3 23L3 24L0 24L0 29L1 29L1 26L3 26L3 27L2 27L2 29L3 29L3 27L4 27L4 29L5 29L5 27L7 27L7 28L6 28L6 29L7 29L7 28L8 28L8 27L9 27L9 25L10 25L10 24L11 24L11 22L10 22L10 21L12 21L12 22L13 22L13 23L12 23L12 25L13 25L13 24L14 24L14 25L19 25L19 26L17 26L17 27L18 27L18 28L16 28L16 26L15 26L15 27L14 27L14 28L15 28L15 29L12 29L12 27L13 27L13 26L10 26L10 28L11 28L11 29L10 29L10 30L11 30L11 29L12 29L12 30L13 30L13 31L12 31L12 33L13 33L13 32L14 32L14 33L15 33L15 32L17 32L17 33L19 33L19 34L17 34L17 35L16 35L16 34L15 34L15 35L14 35L14 36L15 36L15 37L19 37L19 34L20 34L20 33L19 33L19 32L23 32L23 33L22 33L22 34L21 34L21 35L20 35L20 37L21 37L21 36L22 36L22 34L24 34L24 33L25 33L25 35L24 35L24 36L23 36L23 37L27 37L27 36L29 36L29 37L37 37L37 32L36 32L36 31L37 31L37 30L35 30L35 28L34 28L34 27L36 27L36 28L37 28L37 26L36 26L36 25L37 25L37 22L36 22L36 21L37 21L37 18L36 18L36 17L37 17L37 14L36 14L36 13L35 13L35 12L34 12L34 11L35 11L35 9L36 9L36 8L35 8L35 9L34 9L34 8L33 8L33 9L34 9L34 11L32 11L32 12L31 12L31 10L30 10L30 8L29 8L29 6L28 6L28 5L29 5L29 4L28 4L28 2L29 2L29 0L28 0L28 1L27 1L27 2L26 2L26 3L24 3L24 4L22 4L22 5L21 5L21 4L20 4L20 3L22 3L22 2L19 2L19 4L18 4L18 3L17 3L17 2L16 2L16 4L12 4L12 2L13 2L13 1L11 1L11 2L10 2L10 0ZM15 0L15 1L17 1L17 0ZM19 0L19 1L24 1L24 0ZM25 0L25 1L26 1L26 0ZM14 2L14 3L15 3L15 2ZM10 3L10 4L11 4L11 3ZM16 4L16 5L17 5L17 7L16 7L16 6L15 6L15 7L14 7L14 6L13 6L13 7L14 7L14 8L15 8L15 7L16 7L16 9L17 9L17 10L18 10L18 9L19 9L19 11L20 11L20 12L18 12L18 11L17 11L17 12L18 12L18 13L20 13L20 12L21 12L21 14L22 14L22 13L23 13L23 12L26 12L26 13L27 13L27 14L28 14L28 15L29 15L29 16L28 16L28 17L27 17L27 18L28 18L28 17L30 17L30 18L29 18L29 22L28 22L28 24L27 24L27 22L26 22L26 21L24 21L24 22L22 22L22 21L23 21L23 19L24 19L24 18L23 18L23 19L22 19L22 20L20 20L20 19L21 19L21 18L19 18L19 21L18 21L18 22L17 22L17 21L15 21L15 22L16 22L16 24L19 24L19 25L20 25L20 24L21 24L21 25L23 25L23 27L24 27L24 28L20 28L20 29L24 29L24 30L23 30L23 31L24 31L24 32L26 32L26 31L27 31L27 32L28 32L28 30L27 30L27 29L28 29L28 28L33 28L33 27L34 27L34 26L35 26L35 25L34 25L34 24L36 24L36 23L34 23L34 24L33 24L33 25L32 25L32 24L31 24L31 23L32 23L32 22L33 22L33 21L34 21L34 22L35 22L35 21L34 21L34 20L36 20L36 19L35 19L35 17L36 17L36 14L35 14L35 15L34 15L34 13L30 13L30 10L29 10L29 12L28 12L28 13L27 13L27 12L26 12L26 11L27 11L27 10L28 10L28 9L27 9L27 10L26 10L26 9L24 9L24 8L21 8L21 10L20 10L20 9L19 9L19 7L20 7L20 5L17 5L17 4ZM24 4L24 5L23 5L23 7L24 7L24 5L25 5L25 8L27 8L27 7L28 7L28 6L27 6L27 7L26 7L26 5L28 5L28 4L26 4L26 5L25 5L25 4ZM8 5L8 7L9 7L9 5ZM18 6L18 7L19 7L19 6ZM21 6L21 7L22 7L22 6ZM17 8L17 9L18 9L18 8ZM31 8L31 9L32 9L32 8ZM6 9L6 10L7 10L7 11L8 11L8 13L9 13L9 10L8 10L8 9ZM22 9L22 10L21 10L21 12L22 12L22 10L24 10L24 9ZM25 10L25 11L26 11L26 10ZM36 10L36 11L37 11L37 10ZM14 11L14 12L15 12L15 11ZM2 12L2 13L3 13L3 12ZM6 13L6 14L7 14L7 13ZM28 13L28 14L30 14L30 17L33 17L33 18L34 18L34 17L35 17L35 16L34 16L34 15L33 15L33 14L32 14L32 16L31 16L31 14L30 14L30 13ZM14 15L14 16L16 16L16 15ZM1 16L1 18L2 18L2 16ZM33 16L33 17L34 17L34 16ZM6 17L6 18L7 18L7 19L6 19L6 20L5 20L5 21L6 21L6 22L5 22L5 24L7 24L7 25L4 25L4 27L5 27L5 26L7 26L7 25L8 25L8 24L9 24L9 22L8 22L8 17ZM30 18L30 21L33 21L33 20L34 20L34 19L33 19L33 20L31 20L31 19L32 19L32 18ZM15 19L15 20L18 20L18 19ZM6 20L6 21L7 21L7 20ZM19 21L19 22L21 22L21 24L22 24L22 22L21 22L21 21ZM6 22L6 23L7 23L7 22ZM25 22L25 23L26 23L26 22ZM29 22L29 24L28 24L28 26L27 26L27 27L26 27L26 28L24 28L24 29L27 29L27 28L28 28L28 27L29 27L29 26L30 26L30 27L31 27L31 26L30 26L30 25L31 25L31 24L30 24L30 22ZM14 23L14 24L15 24L15 23ZM19 23L19 24L20 24L20 23ZM23 23L23 25L24 25L24 23ZM25 24L25 25L27 25L27 24ZM19 26L19 27L20 27L20 26ZM8 29L8 31L9 31L9 32L8 32L8 37L12 37L12 35L13 35L13 34L11 34L11 33L10 33L10 32L11 32L11 31L9 31L9 29ZM15 29L15 30L17 30L17 32L18 32L18 30L19 30L19 31L21 31L21 30L19 30L19 29ZM29 29L29 32L32 32L32 29ZM33 29L33 30L34 30L34 29ZM24 30L24 31L26 31L26 30ZM30 30L30 31L31 31L31 30ZM14 31L14 32L15 32L15 31ZM34 31L34 32L33 32L33 33L34 33L34 36L36 36L36 35L35 35L35 33L36 33L36 32L35 32L35 31ZM34 32L34 33L35 33L35 32ZM9 33L9 35L11 35L11 34L10 34L10 33ZM26 33L26 35L25 35L25 36L26 36L26 35L27 35L27 33ZM28 34L28 35L29 35L29 34ZM30 34L30 35L31 35L31 36L32 36L32 35L33 35L33 34ZM17 35L17 36L18 36L18 35ZM0 0L0 7L7 7L7 0ZM1 1L1 6L6 6L6 1ZM2 2L2 5L5 5L5 2ZM30 0L30 7L37 7L37 0ZM31 1L31 6L36 6L36 1ZM32 2L32 5L35 5L35 2ZM0 30L0 37L7 37L7 30ZM1 31L1 36L6 36L6 31ZM2 32L2 35L5 35L5 32Z" fill="#000000"/></g></g></svg>
