<?xml version="1.0" encoding="UTF-8"?>
<svg xmlns="http://www.w3.org/2000/svg" version="1.1" width="300" height="300" viewBox="0 0 300 300"><rect x="0" y="0" width="300" height="300" fill="#ffffff"/><g transform="scale(7.317)"><g transform="translate(0,0)"><path fill-rule="evenodd" d="M9 0L9 1L10 1L10 4L11 4L11 5L10 5L10 7L9 7L9 6L8 6L8 7L9 7L9 9L8 9L8 8L5 8L5 9L4 9L4 10L3 10L3 9L2 9L2 8L0 8L0 11L1 11L1 12L0 12L0 13L1 13L1 12L3 12L3 11L4 11L4 10L5 10L5 11L9 11L9 12L10 12L10 13L9 13L9 15L8 15L8 14L6 14L6 15L7 15L7 16L6 16L6 17L7 17L7 16L8 16L8 17L9 17L9 15L10 15L10 14L11 14L11 18L6 18L6 19L10 19L10 20L6 20L6 21L9 21L9 22L8 22L8 23L9 23L9 25L8 25L8 24L6 24L6 23L7 23L7 22L6 22L6 23L4 23L4 22L3 22L3 23L4 23L4 24L3 24L3 25L2 25L2 24L1 24L1 23L0 23L0 24L1 24L1 25L0 25L0 28L1 28L1 29L0 29L0 33L1 33L1 31L2 31L2 33L5 33L5 32L4 32L4 28L3 28L3 27L4 27L4 26L5 26L5 24L6 24L6 25L8 25L8 26L12 26L12 29L13 29L13 25L12 25L12 24L13 24L13 23L18 23L18 25L19 25L19 26L18 26L18 27L19 27L19 28L18 28L18 29L16 29L16 28L17 28L17 27L16 27L16 25L17 25L17 24L14 24L14 26L15 26L15 29L14 29L14 30L12 30L12 31L11 31L11 27L9 27L9 28L10 28L10 29L9 29L9 30L8 30L8 28L6 28L6 29L7 29L7 30L5 30L5 31L7 31L7 32L6 32L6 33L8 33L8 36L9 36L9 35L11 35L11 36L10 36L10 37L12 37L12 38L13 38L13 37L14 37L14 35L16 35L16 36L15 36L15 37L16 37L16 36L17 36L17 37L18 37L18 38L14 38L14 40L13 40L13 39L12 39L12 40L13 40L13 41L14 41L14 40L15 40L15 41L16 41L16 40L17 40L17 39L18 39L18 38L19 38L19 37L21 37L21 38L22 38L22 41L23 41L23 40L24 40L24 41L30 41L30 40L32 40L32 39L31 39L31 38L29 38L29 35L30 35L30 32L29 32L29 30L31 30L31 31L32 31L32 34L31 34L31 35L32 35L32 36L31 36L31 37L35 37L35 38L34 38L34 40L35 40L35 41L36 41L36 39L37 39L37 40L39 40L39 38L38 38L38 39L37 39L37 38L36 38L36 37L38 37L38 36L37 36L37 35L39 35L39 34L38 34L38 33L37 33L37 32L38 32L38 31L37 31L37 29L36 29L36 28L37 28L37 25L36 25L36 26L35 26L35 24L33 24L33 23L34 23L34 22L33 22L33 21L34 21L34 20L35 20L35 21L36 21L36 22L35 22L35 23L37 23L37 22L38 22L38 23L39 23L39 22L40 22L40 20L41 20L41 17L39 17L39 18L37 18L37 17L36 17L36 16L39 16L39 14L41 14L41 13L40 13L40 12L39 12L39 14L38 14L38 13L37 13L37 12L38 12L38 11L36 11L36 10L39 10L39 9L38 9L38 8L36 8L36 10L35 10L35 11L34 11L34 10L33 10L33 8L32 8L32 7L33 7L33 6L32 6L32 7L31 7L31 5L32 5L32 3L29 3L29 1L30 1L30 2L31 2L31 1L30 1L30 0L29 0L29 1L28 1L28 3L27 3L27 4L26 4L26 3L25 3L25 2L27 2L27 0L26 0L26 1L24 1L24 2L23 2L23 0L21 0L21 1L20 1L20 3L19 3L19 2L18 2L18 1L19 1L19 0L18 0L18 1L17 1L17 0L16 0L16 2L17 2L17 3L19 3L19 4L18 4L18 5L16 5L16 4L15 4L15 5L14 5L14 8L13 8L13 9L14 9L14 8L15 8L15 11L14 11L14 12L12 12L12 11L11 11L11 12L10 12L10 9L11 9L11 10L12 10L12 9L11 9L11 8L10 8L10 7L11 7L11 5L12 5L12 4L13 4L13 3L14 3L14 2L15 2L15 1L11 1L11 0ZM32 0L32 1L33 1L33 0ZM21 1L21 2L22 2L22 3L23 3L23 4L22 4L22 5L21 5L21 3L20 3L20 4L19 4L19 8L18 8L18 6L17 6L17 7L16 7L16 5L15 5L15 8L18 8L18 9L17 9L17 11L16 11L16 12L20 12L20 10L21 10L21 9L22 9L22 6L23 6L23 7L24 7L24 5L23 5L23 4L25 4L25 8L23 8L23 9L24 9L24 10L23 10L23 12L24 12L24 13L25 13L25 16L24 16L24 14L22 14L22 11L21 11L21 14L20 14L20 13L17 13L17 14L16 14L16 13L15 13L15 15L14 15L14 13L12 13L12 12L11 12L11 14L13 14L13 15L12 15L12 17L13 17L13 16L14 16L14 17L16 17L16 19L15 19L15 18L13 18L13 19L12 19L12 20L11 20L11 23L10 23L10 24L12 24L12 23L13 23L13 22L14 22L14 20L15 20L15 22L16 22L16 19L19 19L19 14L20 14L20 16L21 16L21 18L23 18L23 17L24 17L24 21L25 21L25 24L24 24L24 25L25 25L25 26L23 26L23 24L22 24L22 23L24 23L24 22L23 22L23 19L21 19L21 21L22 21L22 22L21 22L21 23L20 23L20 21L19 21L19 20L17 20L17 22L18 22L18 21L19 21L19 24L21 24L21 26L22 26L22 27L20 27L20 26L19 26L19 27L20 27L20 29L18 29L18 31L17 31L17 33L16 33L16 32L15 32L15 31L16 31L16 29L15 29L15 31L12 31L12 33L13 33L13 32L14 32L14 34L16 34L16 35L17 35L17 33L19 33L19 34L18 34L18 35L20 35L20 34L22 34L22 31L21 31L21 33L19 33L19 31L20 31L20 29L25 29L25 30L24 30L24 31L23 31L23 32L24 32L24 34L23 34L23 35L21 35L21 37L22 37L22 36L23 36L23 37L27 37L27 36L28 36L28 35L27 35L27 36L26 36L26 33L25 33L25 32L26 32L26 31L25 31L25 30L27 30L27 29L25 29L25 28L26 28L26 27L27 27L27 24L28 24L28 23L26 23L26 21L25 21L25 20L26 20L26 19L27 19L27 21L28 21L28 22L29 22L29 26L28 26L28 27L29 27L29 28L28 28L28 29L29 29L29 28L30 28L30 29L31 29L31 28L30 28L30 27L32 27L32 28L34 28L34 29L35 29L35 30L33 30L33 29L32 29L32 30L33 30L33 32L34 32L34 31L35 31L35 32L36 32L36 29L35 29L35 28L36 28L36 27L34 27L34 25L33 25L33 24L32 24L32 26L30 26L30 21L28 21L28 20L30 20L30 19L31 19L31 21L32 21L32 20L34 20L34 18L33 18L33 17L32 17L32 16L34 16L34 17L35 17L35 18L36 18L36 19L35 19L35 20L36 20L36 21L37 21L37 20L39 20L39 19L37 19L37 18L36 18L36 17L35 17L35 15L36 15L36 14L35 14L35 15L34 15L34 14L33 14L33 12L34 12L34 11L33 11L33 10L31 10L31 9L32 9L32 8L31 8L31 9L28 9L28 8L27 8L27 7L28 7L28 4L27 4L27 7L26 7L26 4L25 4L25 3L23 3L23 2L22 2L22 1ZM12 2L12 3L13 3L13 2ZM8 3L8 5L9 5L9 3ZM29 4L29 8L30 8L30 5L31 5L31 4ZM20 5L20 7L21 7L21 5ZM12 6L12 7L13 7L13 6ZM25 8L25 9L26 9L26 12L27 12L27 11L28 11L28 10L27 10L27 8ZM6 9L6 10L7 10L7 9ZM18 9L18 11L19 11L19 10L20 10L20 9ZM40 9L40 10L41 10L41 9ZM1 10L1 11L2 11L2 10ZM24 10L24 11L25 11L25 10ZM29 10L29 11L30 11L30 13L31 13L31 14L30 14L30 16L29 16L29 15L28 15L28 14L29 14L29 13L28 13L28 14L26 14L26 15L27 15L27 16L25 16L25 19L26 19L26 18L27 18L27 19L28 19L28 18L29 18L29 17L31 17L31 19L32 19L32 17L31 17L31 16L32 16L32 15L31 15L31 14L32 14L32 13L31 13L31 12L32 12L32 11L30 11L30 10ZM4 12L4 13L3 13L3 14L1 14L1 15L0 15L0 16L1 16L1 15L5 15L5 14L4 14L4 13L5 13L5 12ZM6 12L6 13L7 13L7 12ZM37 14L37 15L38 15L38 14ZM15 15L15 16L16 16L16 17L17 17L17 18L18 18L18 16L16 16L16 15ZM40 15L40 16L41 16L41 15ZM3 16L3 17L2 17L2 18L1 18L1 19L0 19L0 20L1 20L1 22L2 22L2 20L1 20L1 19L2 19L2 18L4 18L4 19L3 19L3 21L5 21L5 18L4 18L4 16ZM22 16L22 17L23 17L23 16ZM13 19L13 20L14 20L14 19ZM36 19L36 20L37 20L37 19ZM12 21L12 22L13 22L13 21ZM31 22L31 23L33 23L33 22ZM39 24L39 25L38 25L38 29L39 29L39 28L41 28L41 27L40 27L40 26L41 26L41 25L40 25L40 24ZM1 25L1 26L2 26L2 27L3 27L3 26L4 26L4 25L3 25L3 26L2 26L2 25ZM6 26L6 27L7 27L7 26ZM25 26L25 27L22 27L22 28L25 28L25 27L26 27L26 26ZM29 26L29 27L30 27L30 26ZM2 28L2 30L3 30L3 28ZM40 29L40 31L39 31L39 32L40 32L40 34L41 34L41 29ZM8 31L8 33L9 33L9 32L10 32L10 34L11 34L11 35L12 35L12 37L13 37L13 34L11 34L11 32L10 32L10 31ZM27 31L27 32L28 32L28 34L29 34L29 32L28 32L28 31ZM33 33L33 36L36 36L36 33ZM24 34L24 35L25 35L25 34ZM34 34L34 35L35 35L35 34ZM40 35L40 38L41 38L41 35ZM18 36L18 37L19 37L19 36ZM10 38L10 40L9 40L9 39L8 39L8 41L10 41L10 40L11 40L11 38ZM23 38L23 39L24 39L24 38ZM25 38L25 40L27 40L27 38ZM28 38L28 39L29 39L29 40L30 40L30 39L29 39L29 38ZM35 38L35 39L36 39L36 38ZM15 39L15 40L16 40L16 39ZM20 39L20 40L19 40L19 41L20 41L20 40L21 40L21 39ZM40 39L40 40L41 40L41 39ZM0 0L0 7L7 7L7 0ZM1 1L1 6L6 6L6 1ZM2 2L2 5L5 5L5 2ZM34 0L34 7L41 7L41 0ZM35 1L35 6L40 6L40 1ZM36 2L36 5L39 5L39 2ZM0 34L0 41L7 41L7 34ZM1 35L1 40L6 40L6 35ZM2 36L2 39L5 39L5 36Z" fill="#000000"/></g></g></svg>
