<?xml version="1.0" encoding="UTF-8"?>
<svg xmlns="http://www.w3.org/2000/svg" version="1.1" width="300" height="300" viewBox="0 0 300 300"><rect x="0" y="0" width="300" height="300" fill="#ffffff"/><g transform="scale(7.317)"><g transform="translate(0,0)"><path fill-rule="evenodd" d="M8 0L8 4L11 4L11 6L10 6L10 5L8 5L8 7L9 7L9 10L8 10L8 11L7 11L7 10L5 10L5 11L4 11L4 9L7 9L7 8L4 8L4 9L2 9L2 8L0 8L0 12L1 12L1 14L2 14L2 15L0 15L0 19L1 19L1 16L2 16L2 15L3 15L3 16L5 16L5 17L7 17L7 16L8 16L8 17L9 17L9 18L10 18L10 17L9 17L9 16L12 16L12 15L13 15L13 14L14 14L14 17L11 17L11 19L12 19L12 21L16 21L16 23L17 23L17 26L16 26L16 24L15 24L15 23L14 23L14 25L15 25L15 26L13 26L13 25L12 25L12 24L13 24L13 23L12 23L12 24L11 24L11 23L10 23L10 22L9 22L9 21L7 21L7 20L6 20L6 19L7 19L7 18L5 18L5 19L4 19L4 18L3 18L3 17L2 17L2 19L3 19L3 20L4 20L4 22L3 22L3 21L2 21L2 23L1 23L1 24L2 24L2 26L3 26L3 28L2 28L2 27L0 27L0 28L2 28L2 29L0 29L0 30L2 30L2 32L0 32L0 33L2 33L2 32L3 32L3 33L5 33L5 32L6 32L6 33L8 33L8 34L10 34L10 35L8 35L8 37L9 37L9 39L8 39L8 41L9 41L9 39L11 39L11 38L10 38L10 37L9 37L9 36L11 36L11 35L12 35L12 37L13 37L13 38L14 38L14 39L15 39L15 38L14 38L14 37L15 37L15 36L16 36L16 35L17 35L17 36L18 36L18 37L20 37L20 38L23 38L23 39L20 39L20 40L19 40L19 38L18 38L18 39L17 39L17 37L16 37L16 39L17 39L17 40L19 40L19 41L23 41L23 40L24 40L24 41L25 41L25 38L24 38L24 36L25 36L25 35L26 35L26 34L27 34L27 36L28 36L28 37L26 37L26 38L27 38L27 39L26 39L26 40L27 40L27 41L30 41L30 39L29 39L29 40L27 40L27 39L28 39L28 38L29 38L29 37L30 37L30 38L33 38L33 37L35 37L35 39L36 39L36 40L34 40L34 41L36 41L36 40L37 40L37 39L38 39L38 38L40 38L40 39L39 39L39 41L40 41L40 40L41 40L41 37L40 37L40 35L41 35L41 33L39 33L39 34L37 34L37 31L39 31L39 32L41 32L41 29L40 29L40 27L41 27L41 26L40 26L40 27L39 27L39 26L38 26L38 25L39 25L39 24L40 24L40 25L41 25L41 21L40 21L40 20L41 20L41 17L40 17L40 16L41 16L41 13L39 13L39 14L40 14L40 15L39 15L39 16L38 16L38 15L35 15L35 17L32 17L32 15L33 15L33 16L34 16L34 15L33 15L33 14L35 14L35 13L36 13L36 14L38 14L38 13L36 13L36 12L35 12L35 11L34 11L34 10L35 10L35 9L36 9L36 11L37 11L37 12L38 12L38 11L37 11L37 9L38 9L38 10L39 10L39 11L41 11L41 8L37 8L37 9L36 9L36 8L35 8L35 9L34 9L34 10L33 10L33 9L32 9L32 8L33 8L33 3L31 3L31 2L33 2L33 0L32 0L32 1L31 1L31 2L29 2L29 0L26 0L26 1L28 1L28 2L29 2L29 3L31 3L31 4L32 4L32 5L30 5L30 7L29 7L29 6L28 6L28 10L27 10L27 9L26 9L26 10L25 10L25 11L24 11L24 9L23 9L23 8L24 8L24 7L25 7L25 6L26 6L26 7L27 7L27 6L26 6L26 5L27 5L27 2L26 2L26 3L23 3L23 2L22 2L22 1L21 1L21 2L20 2L20 1L19 1L19 0L18 0L18 2L17 2L17 1L16 1L16 0L15 0L15 1L14 1L14 0L13 0L13 1L12 1L12 0L11 0L11 1L10 1L10 2L9 2L9 0ZM23 0L23 1L24 1L24 2L25 2L25 1L24 1L24 0ZM11 1L11 2L10 2L10 3L12 3L12 1ZM15 1L15 2L16 2L16 1ZM13 2L13 4L14 4L14 6L13 6L13 7L12 7L12 6L11 6L11 7L12 7L12 8L10 8L10 9L11 9L11 10L9 10L9 11L8 11L8 13L9 13L9 11L10 11L10 13L11 13L11 14L9 14L9 15L11 15L11 14L12 14L12 13L13 13L13 12L12 12L12 11L13 11L13 10L15 10L15 9L14 9L14 6L15 6L15 8L17 8L17 7L18 7L18 9L19 9L19 11L18 11L18 10L17 10L17 9L16 9L16 11L17 11L17 13L16 13L16 12L15 12L15 11L14 11L14 13L15 13L15 14L16 14L16 15L17 15L17 14L18 14L18 13L19 13L19 12L20 12L20 13L21 13L21 15L20 15L20 14L19 14L19 16L18 16L18 17L16 17L16 16L15 16L15 17L14 17L14 18L12 18L12 19L13 19L13 20L14 20L14 19L15 19L15 17L16 17L16 21L17 21L17 23L18 23L18 24L19 24L19 25L18 25L18 26L17 26L17 29L16 29L16 27L14 27L14 29L15 29L15 30L16 30L16 31L17 31L17 29L20 29L20 28L19 28L19 27L20 27L20 26L23 26L23 25L20 25L20 24L19 24L19 21L20 21L20 23L22 23L22 24L23 24L23 23L22 23L22 22L21 22L21 21L20 21L20 20L19 20L19 21L18 21L18 20L17 20L17 18L18 18L18 19L21 19L21 15L22 15L22 16L23 16L23 17L22 17L22 21L23 21L23 20L24 20L24 21L27 21L27 20L26 20L26 18L27 18L27 17L28 17L28 16L29 16L29 14L30 14L30 16L31 16L31 15L32 15L32 13L35 13L35 12L33 12L33 10L32 10L32 9L29 9L29 10L31 10L31 11L32 11L32 12L31 12L31 13L29 13L29 14L28 14L28 16L26 16L26 14L27 14L27 11L25 11L25 12L22 12L22 13L21 13L21 12L20 12L20 10L22 10L22 11L23 11L23 9L20 9L20 8L19 8L19 7L20 7L20 5L21 5L21 7L22 7L22 8L23 8L23 7L24 7L24 5L22 5L22 3L20 3L20 2L19 2L19 3L18 3L18 4L17 4L17 5L16 5L16 4L15 4L15 3L14 3L14 2ZM19 3L19 5L17 5L17 6L16 6L16 5L15 5L15 6L16 6L16 7L17 7L17 6L18 6L18 7L19 7L19 5L20 5L20 3ZM28 4L28 5L29 5L29 4ZM9 6L9 7L10 7L10 6ZM22 6L22 7L23 7L23 6ZM31 6L31 7L30 7L30 8L31 8L31 7L32 7L32 6ZM12 8L12 9L13 9L13 8ZM1 9L1 10L2 10L2 11L1 11L1 12L2 12L2 13L3 13L3 12L4 12L4 13L6 13L6 14L7 14L7 15L5 15L5 14L3 14L3 15L5 15L5 16L7 16L7 15L8 15L8 14L7 14L7 13L6 13L6 12L7 12L7 11L6 11L6 12L4 12L4 11L3 11L3 10L2 10L2 9ZM11 10L11 11L12 11L12 10ZM2 11L2 12L3 12L3 11ZM23 13L23 14L22 14L22 15L24 15L24 14L26 14L26 13ZM19 16L19 17L20 17L20 16ZM36 16L36 17L35 17L35 18L34 18L34 19L35 19L35 18L36 18L36 17L37 17L37 16ZM23 17L23 19L24 19L24 20L25 20L25 18L26 18L26 17L25 17L25 18L24 18L24 17ZM30 17L30 19L31 19L31 20L32 20L32 21L29 21L29 20L28 20L28 21L29 21L29 22L30 22L30 24L31 24L31 23L32 23L32 25L31 25L31 26L30 26L30 28L31 28L31 32L30 32L30 33L29 33L29 32L28 32L28 31L27 31L27 30L24 30L24 31L22 31L22 32L23 32L23 33L21 33L21 32L20 32L20 34L18 34L18 33L19 33L19 32L17 32L17 34L18 34L18 35L20 35L20 34L23 34L23 33L24 33L24 35L25 35L25 33L29 33L29 34L28 34L28 36L29 36L29 35L30 35L30 37L31 37L31 36L32 36L32 35L30 35L30 34L31 34L31 32L33 32L33 31L34 31L34 32L35 32L35 30L36 30L36 31L37 31L37 30L36 30L36 29L37 29L37 28L38 28L38 29L39 29L39 31L40 31L40 29L39 29L39 27L38 27L38 26L36 26L36 25L37 25L37 23L35 23L35 24L33 24L33 22L32 22L32 21L35 21L35 22L36 22L36 21L37 21L37 22L38 22L38 24L39 24L39 23L40 23L40 22L38 22L38 21L39 21L39 20L40 20L40 19L39 19L39 18L37 18L37 19L36 19L36 21L35 21L35 20L33 20L33 19L32 19L32 17ZM28 18L28 19L29 19L29 18ZM8 19L8 20L9 20L9 19ZM0 20L0 22L1 22L1 20ZM5 20L5 22L4 22L4 23L6 23L6 24L7 24L7 25L5 25L5 24L3 24L3 23L2 23L2 24L3 24L3 25L5 25L5 27L4 27L4 28L3 28L3 29L2 29L2 30L3 30L3 31L4 31L4 32L5 32L5 30L7 30L7 31L6 31L6 32L7 32L7 31L8 31L8 33L9 33L9 32L10 32L10 30L12 30L12 29L13 29L13 28L12 28L12 27L13 27L13 26L12 26L12 27L11 27L11 25L10 25L10 23L8 23L8 22L7 22L7 21L6 21L6 20ZM10 20L10 21L11 21L11 20ZM6 22L6 23L7 23L7 22ZM25 22L25 24L24 24L24 25L25 25L25 27L23 27L23 28L22 28L22 29L29 29L29 28L28 28L28 27L27 27L27 28L26 28L26 25L29 25L29 23L28 23L28 24L27 24L27 23L26 23L26 22ZM8 24L8 25L7 25L7 26L6 26L6 27L5 27L5 29L7 29L7 30L8 30L8 31L9 31L9 30L8 30L8 29L10 29L10 28L9 28L9 27L10 27L10 26L8 26L8 25L9 25L9 24ZM35 24L35 25L34 25L34 26L33 26L33 25L32 25L32 26L33 26L33 27L31 27L31 28L34 28L34 27L35 27L35 29L34 29L34 30L35 30L35 29L36 29L36 27L35 27L35 25L36 25L36 24ZM7 26L7 27L6 27L6 28L7 28L7 29L8 29L8 26ZM18 26L18 27L19 27L19 26ZM32 29L32 31L33 31L33 29ZM19 30L19 31L21 31L21 30ZM29 30L29 31L30 31L30 30ZM12 31L12 32L11 32L11 33L14 33L14 34L12 34L12 35L13 35L13 36L14 36L14 35L15 35L15 34L16 34L16 32L15 32L15 33L14 33L14 31ZM26 31L26 32L27 32L27 31ZM33 33L33 36L36 36L36 33ZM34 34L34 35L35 35L35 34ZM37 35L37 36L38 36L38 37L36 37L36 39L37 39L37 38L38 38L38 37L39 37L39 35ZM20 36L20 37L21 37L21 36ZM22 36L22 37L23 37L23 36ZM12 39L12 40L10 40L10 41L12 41L12 40L13 40L13 39ZM31 39L31 41L33 41L33 39ZM14 40L14 41L16 41L16 40ZM0 0L0 7L7 7L7 0ZM1 1L1 6L6 6L6 1ZM2 2L2 5L5 5L5 2ZM34 0L34 7L41 7L41 0ZM35 1L35 6L40 6L40 1ZM36 2L36 5L39 5L39 2ZM0 34L0 41L7 41L7 34ZM1 35L1 40L6 40L6 35ZM2 36L2 39L5 39L5 36Z" fill="#000000"/></g></g></svg>
