<?xml version="1.0" encoding="UTF-8"?>
<svg xmlns="http://www.w3.org/2000/svg" version="1.1" width="300" height="300" viewBox="0 0 300 300"><rect x="0" y="0" width="300" height="300" fill="#ffffff"/><g transform="scale(7.317)"><g transform="translate(0,0)"><path fill-rule="evenodd" d="M8 0L8 4L9 4L9 5L8 5L8 7L9 7L9 5L11 5L11 4L12 4L12 5L13 5L13 6L12 6L12 8L13 8L13 6L14 6L14 9L15 9L15 10L13 10L13 13L12 13L12 14L11 14L11 13L10 13L10 12L12 12L12 11L11 11L11 10L12 10L12 9L10 9L10 8L9 8L9 9L10 9L10 10L9 10L9 11L8 11L8 9L7 9L7 8L4 8L4 10L3 10L3 11L1 11L1 10L2 10L2 8L0 8L0 14L1 14L1 17L2 17L2 16L3 16L3 15L4 15L4 16L6 16L6 17L8 17L8 16L9 16L9 19L8 19L8 18L6 18L6 19L5 19L5 18L4 18L4 17L3 17L3 18L4 18L4 20L2 20L2 21L3 21L3 22L1 22L1 21L0 21L0 24L1 24L1 23L2 23L2 24L4 24L4 21L5 21L5 22L6 22L6 23L5 23L5 24L6 24L6 25L1 25L1 26L2 26L2 27L0 27L0 30L1 30L1 29L2 29L2 31L3 31L3 33L4 33L4 32L5 32L5 31L7 31L7 32L6 32L6 33L8 33L8 34L9 34L9 35L8 35L8 37L10 37L10 39L11 39L11 36L10 36L10 34L11 34L11 35L12 35L12 37L13 37L13 38L14 38L14 37L15 37L15 36L16 36L16 35L17 35L17 36L18 36L18 37L20 37L20 38L23 38L23 39L20 39L20 40L19 40L19 38L18 38L18 39L17 39L17 37L16 37L16 39L17 39L17 40L19 40L19 41L23 41L23 40L24 40L24 41L25 41L25 38L24 38L24 36L25 36L25 35L26 35L26 34L27 34L27 36L28 36L28 37L26 37L26 38L27 38L27 39L26 39L26 40L27 40L27 41L30 41L30 39L29 39L29 40L27 40L27 39L28 39L28 38L29 38L29 37L30 37L30 38L33 38L33 37L35 37L35 39L36 39L36 40L34 40L34 41L36 41L36 40L37 40L37 41L40 41L40 40L41 40L41 37L40 37L40 35L41 35L41 33L39 33L39 34L37 34L37 32L34 32L34 31L31 31L31 28L36 28L36 29L34 29L34 30L37 30L37 31L38 31L38 30L39 30L39 29L40 29L40 31L39 31L39 32L41 32L41 29L40 29L40 27L41 27L41 26L40 26L40 27L39 27L39 26L38 26L38 25L39 25L39 24L40 24L40 25L41 25L41 21L40 21L40 20L41 20L41 17L40 17L40 16L41 16L41 13L39 13L39 14L40 14L40 15L39 15L39 16L38 16L38 15L37 15L37 17L36 17L36 15L35 15L35 17L32 17L32 19L33 19L33 20L35 20L35 21L32 21L32 20L30 20L30 19L31 19L31 18L30 18L30 19L28 19L28 18L29 18L29 17L31 17L31 16L30 16L30 14L29 14L29 13L31 13L31 12L32 12L32 11L31 11L31 10L30 10L30 11L29 11L29 9L32 9L32 10L33 10L33 13L32 13L32 14L33 14L33 13L34 13L34 11L35 11L35 9L36 9L36 11L37 11L37 12L36 12L36 13L35 13L35 14L38 14L38 13L37 13L37 12L38 12L38 11L37 11L37 9L38 9L38 10L39 10L39 11L41 11L41 8L37 8L37 9L36 9L36 8L35 8L35 9L34 9L34 10L33 10L33 9L32 9L32 8L33 8L33 3L31 3L31 2L33 2L33 0L32 0L32 1L31 1L31 2L29 2L29 0L26 0L26 1L28 1L28 2L29 2L29 3L31 3L31 4L32 4L32 5L30 5L30 7L29 7L29 6L28 6L28 10L27 10L27 9L26 9L26 10L25 10L25 11L24 11L24 9L23 9L23 8L24 8L24 7L25 7L25 6L26 6L26 7L27 7L27 6L26 6L26 5L27 5L27 2L26 2L26 3L23 3L23 2L22 2L22 1L21 1L21 2L20 2L20 1L19 1L19 0L18 0L18 2L17 2L17 1L16 1L16 0L15 0L15 1L14 1L14 0L13 0L13 1L12 1L12 0L11 0L11 1L10 1L10 0ZM23 0L23 1L24 1L24 2L25 2L25 1L24 1L24 0ZM15 1L15 3L14 3L14 2L13 2L13 3L12 3L12 4L14 4L14 6L15 6L15 8L17 8L17 7L18 7L18 9L19 9L19 11L18 11L18 10L17 10L17 9L16 9L16 11L17 11L17 13L16 13L16 12L15 12L15 11L14 11L14 13L13 13L13 15L12 15L12 16L11 16L11 15L10 15L10 13L9 13L9 15L10 15L10 17L14 17L14 18L13 18L13 19L10 19L10 20L11 20L11 21L10 21L10 23L11 23L11 24L12 24L12 25L13 25L13 26L12 26L12 27L11 27L11 29L10 29L10 28L9 28L9 29L5 29L5 28L8 28L8 27L9 27L9 26L11 26L11 25L10 25L10 24L9 24L9 23L8 23L8 22L9 22L9 21L6 21L6 20L7 20L7 19L6 19L6 20L5 20L5 21L6 21L6 22L7 22L7 23L6 23L6 24L7 24L7 25L6 25L6 26L4 26L4 27L3 27L3 28L2 28L2 29L3 29L3 30L7 30L7 31L9 31L9 32L8 32L8 33L10 33L10 32L11 32L11 33L14 33L14 34L12 34L12 35L13 35L13 36L14 36L14 35L15 35L15 34L16 34L16 32L15 32L15 31L14 31L14 30L13 30L13 31L12 31L12 32L11 32L11 31L9 31L9 29L10 29L10 30L12 30L12 29L13 29L13 26L15 26L15 25L14 25L14 23L15 23L15 24L16 24L16 26L17 26L17 29L16 29L16 27L14 27L14 29L15 29L15 30L16 30L16 31L17 31L17 29L20 29L20 28L19 28L19 27L20 27L20 26L23 26L23 25L20 25L20 24L19 24L19 21L20 21L20 23L22 23L22 24L23 24L23 23L22 23L22 22L21 22L21 21L20 21L20 20L19 20L19 21L18 21L18 20L17 20L17 18L18 18L18 19L21 19L21 15L22 15L22 16L23 16L23 17L22 17L22 21L23 21L23 20L24 20L24 21L27 21L27 20L26 20L26 18L27 18L27 17L28 17L28 16L29 16L29 14L28 14L28 16L26 16L26 14L27 14L27 11L25 11L25 12L22 12L22 13L21 13L21 12L20 12L20 10L22 10L22 11L23 11L23 9L20 9L20 8L19 8L19 7L20 7L20 5L21 5L21 7L22 7L22 8L23 8L23 7L24 7L24 5L22 5L22 3L20 3L20 2L19 2L19 3L18 3L18 4L17 4L17 5L16 5L16 4L15 4L15 3L16 3L16 1ZM9 2L9 3L10 3L10 4L11 4L11 2ZM19 3L19 5L17 5L17 6L16 6L16 5L15 5L15 6L16 6L16 7L17 7L17 6L18 6L18 7L19 7L19 5L20 5L20 3ZM28 4L28 5L29 5L29 4ZM10 6L10 7L11 7L11 6ZM22 6L22 7L23 7L23 6ZM31 6L31 7L30 7L30 8L32 8L32 6ZM6 9L6 10L5 10L5 11L4 11L4 12L1 12L1 14L2 14L2 15L3 15L3 14L2 14L2 13L4 13L4 15L5 15L5 14L7 14L7 15L6 15L6 16L7 16L7 15L8 15L8 14L7 14L7 13L4 13L4 12L8 12L8 11L6 11L6 10L7 10L7 9ZM9 11L9 12L10 12L10 11ZM30 11L30 12L31 12L31 11ZM19 12L19 13L18 13L18 14L17 14L17 15L16 15L16 14L15 14L15 13L14 13L14 14L15 14L15 16L14 16L14 17L15 17L15 19L14 19L14 20L12 20L12 21L13 21L13 22L14 22L14 21L16 21L16 23L17 23L17 26L18 26L18 27L19 27L19 26L18 26L18 25L19 25L19 24L18 24L18 23L17 23L17 21L16 21L16 17L18 17L18 16L19 16L19 17L20 17L20 16L19 16L19 14L20 14L20 15L21 15L21 13L20 13L20 12ZM23 13L23 14L22 14L22 15L24 15L24 14L26 14L26 13ZM33 15L33 16L34 16L34 15ZM15 16L15 17L16 17L16 16ZM23 17L23 19L24 19L24 20L25 20L25 18L26 18L26 17L25 17L25 18L24 18L24 17ZM35 17L35 18L36 18L36 17ZM1 18L1 19L0 19L0 20L1 20L1 19L2 19L2 18ZM33 18L33 19L34 19L34 18ZM37 18L37 19L36 19L36 21L35 21L35 23L36 23L36 25L35 25L35 24L32 24L32 25L31 25L31 26L30 26L30 25L29 25L29 23L28 23L28 24L27 24L27 23L26 23L26 22L25 22L25 24L24 24L24 25L25 25L25 27L23 27L23 28L22 28L22 29L29 29L29 28L28 28L28 27L27 27L27 28L26 28L26 25L29 25L29 26L30 26L30 28L31 28L31 27L34 27L34 25L35 25L35 27L36 27L36 28L38 28L38 29L37 29L37 30L38 30L38 29L39 29L39 27L38 27L38 26L36 26L36 25L37 25L37 23L36 23L36 21L37 21L37 22L38 22L38 24L39 24L39 23L40 23L40 22L38 22L38 21L39 21L39 20L40 20L40 19L39 19L39 18ZM28 20L28 21L29 21L29 22L30 22L30 24L31 24L31 23L32 23L32 21L29 21L29 20ZM12 23L12 24L13 24L13 23ZM7 25L7 26L6 26L6 27L7 27L7 26L8 26L8 25ZM32 25L32 26L33 26L33 25ZM3 28L3 29L4 29L4 28ZM32 29L32 30L33 30L33 29ZM19 30L19 31L20 31L20 30ZM24 30L24 31L22 31L22 32L23 32L23 33L21 33L21 32L20 32L20 34L18 34L18 33L19 33L19 32L17 32L17 34L18 34L18 35L20 35L20 34L23 34L23 33L24 33L24 35L25 35L25 33L29 33L29 34L28 34L28 36L29 36L29 35L30 35L30 37L31 37L31 36L32 36L32 35L30 35L30 34L31 34L31 32L30 32L30 33L29 33L29 32L28 32L28 31L27 31L27 30ZM29 30L29 31L30 31L30 30ZM26 31L26 32L27 32L27 31ZM0 32L0 33L2 33L2 32ZM14 32L14 33L15 33L15 32ZM33 33L33 36L36 36L36 33ZM34 34L34 35L35 35L35 34ZM37 35L37 36L38 36L38 40L39 40L39 39L40 39L40 38L39 38L39 35ZM20 36L20 37L21 37L21 36ZM22 36L22 37L23 37L23 36ZM36 37L36 39L37 39L37 37ZM8 39L8 41L9 41L9 39ZM12 39L12 40L11 40L11 41L12 41L12 40L13 40L13 39ZM31 39L31 41L33 41L33 39ZM14 40L14 41L16 41L16 40ZM0 0L0 7L7 7L7 0ZM1 1L1 6L6 6L6 1ZM2 2L2 5L5 5L5 2ZM34 0L34 7L41 7L41 0ZM35 1L35 6L40 6L40 1ZM36 2L36 5L39 5L39 2ZM0 34L0 41L7 41L7 34ZM1 35L1 40L6 40L6 35ZM2 36L2 39L5 39L5 36Z" fill="#000000"/></g></g></svg>
