<?xml version="1.0" encoding="UTF-8"?>
<svg xmlns="http://www.w3.org/2000/svg" version="1.1" width="300" height="300" viewBox="0 0 300 300"><rect x="0" y="0" width="300" height="300" fill="#ffffff"/><g transform="scale(7.317)"><g transform="translate(0,0)"><path fill-rule="evenodd" d="M10 0L10 1L9 1L9 3L8 3L8 5L9 5L9 3L10 3L10 4L11 4L11 5L10 5L10 8L9 8L9 9L8 9L8 8L5 8L5 9L2 9L2 8L0 8L0 9L2 9L2 10L0 10L0 11L1 11L1 12L0 12L0 13L2 13L2 14L1 14L1 15L0 15L0 16L2 16L2 17L0 17L0 18L3 18L3 19L4 19L4 22L3 22L3 20L2 20L2 21L1 21L1 20L0 20L0 21L1 21L1 22L3 22L3 23L2 23L2 25L1 25L1 26L0 26L0 33L1 33L1 31L3 31L3 32L2 32L2 33L7 33L7 32L8 32L8 36L9 36L9 37L10 37L10 39L11 39L11 37L12 37L12 38L13 38L13 39L12 39L12 40L13 40L13 41L14 41L14 40L15 40L15 41L16 41L16 40L17 40L17 39L18 39L18 38L19 38L19 37L21 37L21 38L20 38L20 39L19 39L19 40L20 40L20 39L21 39L21 38L22 38L22 41L23 41L23 40L24 40L24 41L30 41L30 40L32 40L32 39L31 39L31 38L29 38L29 35L30 35L30 32L29 32L29 30L31 30L31 32L32 32L32 34L31 34L31 35L32 35L32 36L31 36L31 37L35 37L35 38L34 38L34 40L33 40L33 41L36 41L36 39L37 39L37 40L39 40L39 39L37 39L37 38L38 38L38 36L37 36L37 35L39 35L39 34L38 34L38 33L37 33L37 32L38 32L38 30L37 30L37 29L36 29L36 28L37 28L37 25L38 25L38 29L39 29L39 28L41 28L41 27L40 27L40 26L41 26L41 25L40 25L40 24L38 24L38 23L37 23L37 22L40 22L40 20L41 20L41 17L39 17L39 18L37 18L37 17L36 17L36 16L39 16L39 14L41 14L41 13L40 13L40 9L38 9L38 8L36 8L36 10L33 10L33 8L32 8L32 7L33 7L33 5L32 5L32 3L31 3L31 2L30 2L30 3L29 3L29 1L30 1L30 0L29 0L29 1L28 1L28 3L27 3L27 4L26 4L26 3L25 3L25 2L27 2L27 0L26 0L26 1L24 1L24 2L23 2L23 0L21 0L21 1L20 1L20 3L19 3L19 2L18 2L18 1L19 1L19 0L18 0L18 1L17 1L17 0L16 0L16 2L15 2L15 1L13 1L13 3L14 3L14 2L15 2L15 3L16 3L16 2L17 2L17 3L19 3L19 4L18 4L18 5L16 5L16 4L15 4L15 5L14 5L14 7L15 7L15 5L16 5L16 7L17 7L17 6L18 6L18 8L15 8L15 11L14 11L14 12L12 12L12 10L11 10L11 13L13 13L13 14L11 14L11 16L10 16L10 15L9 15L9 14L10 14L10 13L9 13L9 12L8 12L8 13L7 13L7 12L6 12L6 11L7 11L7 10L9 10L9 9L12 9L12 7L13 7L13 4L11 4L11 3L12 3L12 2L10 2L10 1L12 1L12 0ZM32 0L32 1L33 1L33 0ZM21 1L21 2L22 2L22 3L23 3L23 4L22 4L22 5L21 5L21 3L20 3L20 4L19 4L19 8L18 8L18 9L17 9L17 10L16 10L16 12L20 12L20 10L21 10L21 9L22 9L22 6L23 6L23 7L24 7L24 5L23 5L23 4L25 4L25 8L23 8L23 9L24 9L24 10L23 10L23 12L24 12L24 13L25 13L25 16L24 16L24 14L22 14L22 11L21 11L21 14L20 14L20 13L17 13L17 14L16 14L16 13L15 13L15 14L13 14L13 15L12 15L12 17L13 17L13 16L14 16L14 17L16 17L16 19L15 19L15 18L13 18L13 19L12 19L12 20L11 20L11 21L10 21L10 23L6 23L6 22L7 22L7 21L6 21L6 20L7 20L7 19L6 19L6 18L8 18L8 19L9 19L9 20L8 20L8 22L9 22L9 20L10 20L10 18L11 18L11 17L10 17L10 16L9 16L9 15L8 15L8 14L7 14L7 13L6 13L6 12L5 12L5 10L3 10L3 11L2 11L2 12L3 12L3 13L4 13L4 14L7 14L7 15L5 15L5 16L7 16L7 17L6 17L6 18L5 18L5 17L4 17L4 15L2 15L2 16L3 16L3 18L5 18L5 19L6 19L6 20L5 20L5 22L4 22L4 23L3 23L3 24L4 24L4 25L3 25L3 27L4 27L4 28L2 28L2 27L1 27L1 28L2 28L2 29L1 29L1 30L2 30L2 29L4 29L4 30L3 30L3 31L5 31L5 32L7 32L7 31L8 31L8 30L9 30L9 29L4 29L4 28L8 28L8 27L5 27L5 26L7 26L7 25L9 25L9 28L11 28L11 31L9 31L9 32L10 32L10 33L9 33L9 36L10 36L10 35L13 35L13 34L11 34L11 31L12 31L12 33L13 33L13 32L14 32L14 34L16 34L16 35L14 35L14 37L13 37L13 36L12 36L12 37L13 37L13 38L18 38L18 37L19 37L19 36L18 36L18 37L17 37L17 36L16 36L16 35L17 35L17 33L19 33L19 34L18 34L18 35L20 35L20 34L22 34L22 31L21 31L21 33L19 33L19 31L20 31L20 29L25 29L25 30L24 30L24 31L23 31L23 32L24 32L24 34L23 34L23 37L27 37L27 36L28 36L28 35L27 35L27 36L26 36L26 33L25 33L25 32L26 32L26 31L25 31L25 30L27 30L27 29L25 29L25 28L26 28L26 27L27 27L27 24L28 24L28 23L26 23L26 21L25 21L25 20L26 20L26 19L27 19L27 21L28 21L28 22L29 22L29 26L28 26L28 27L29 27L29 28L28 28L28 29L29 29L29 28L30 28L30 29L31 29L31 28L30 28L30 27L32 27L32 28L34 28L34 29L35 29L35 30L33 30L33 29L32 29L32 32L34 32L34 31L35 31L35 30L36 30L36 31L37 31L37 30L36 30L36 29L35 29L35 28L36 28L36 27L34 27L34 25L33 25L33 24L35 24L35 26L36 26L36 25L37 25L37 23L36 23L36 22L35 22L35 21L36 21L36 19L37 19L37 20L39 20L39 19L37 19L37 18L36 18L36 17L35 17L35 16L36 16L36 15L37 15L37 14L36 14L36 13L38 13L38 14L39 14L39 10L36 10L36 11L38 11L38 12L35 12L35 11L34 11L34 12L35 12L35 14L36 14L36 15L34 15L34 14L33 14L33 10L31 10L31 9L32 9L32 8L31 8L31 9L28 9L28 8L27 8L27 7L28 7L28 4L27 4L27 7L26 7L26 4L25 4L25 3L23 3L23 2L22 2L22 1ZM29 4L29 8L30 8L30 5L31 5L31 7L32 7L32 5L31 5L31 4ZM20 5L20 7L21 7L21 5ZM8 6L8 7L9 7L9 6ZM11 6L11 7L12 7L12 6ZM13 8L13 9L14 9L14 8ZM25 8L25 9L26 9L26 12L27 12L27 11L28 11L28 10L27 10L27 8ZM6 9L6 10L7 10L7 9ZM18 9L18 11L19 11L19 10L20 10L20 9ZM24 10L24 11L25 11L25 10ZM30 10L30 11L31 11L31 12L30 12L30 13L31 13L31 14L30 14L30 16L29 16L29 15L28 15L28 14L29 14L29 13L28 13L28 14L26 14L26 15L27 15L27 16L25 16L25 19L26 19L26 18L27 18L27 19L28 19L28 18L29 18L29 19L30 19L30 18L29 18L29 17L31 17L31 19L32 19L32 17L33 17L33 19L34 19L34 18L35 18L35 19L36 19L36 18L35 18L35 17L34 17L34 16L33 16L33 15L32 15L32 17L31 17L31 14L32 14L32 13L31 13L31 12L32 12L32 11L31 11L31 10ZM3 11L3 12L4 12L4 11ZM19 14L19 19L16 19L16 22L15 22L15 20L14 20L14 19L13 19L13 20L14 20L14 21L12 21L12 22L15 22L15 23L14 23L14 26L15 26L15 29L13 29L13 28L12 28L12 29L13 29L13 30L12 30L12 31L15 31L15 32L16 32L16 33L17 33L17 31L18 31L18 29L20 29L20 27L22 27L22 28L25 28L25 27L26 27L26 26L25 26L25 25L24 25L24 24L25 24L25 21L24 21L24 17L23 17L23 16L22 16L22 17L23 17L23 18L21 18L21 16L20 16L20 14ZM15 15L15 16L16 16L16 17L17 17L17 18L18 18L18 16L16 16L16 15ZM40 15L40 16L41 16L41 15ZM21 19L21 21L22 21L22 22L21 22L21 23L20 23L20 21L19 21L19 20L17 20L17 22L18 22L18 21L19 21L19 24L21 24L21 26L22 26L22 27L25 27L25 26L23 26L23 24L22 24L22 23L24 23L24 22L23 22L23 19ZM28 20L28 21L30 21L30 26L29 26L29 27L30 27L30 26L32 26L32 23L34 23L34 22L33 22L33 21L34 21L34 20L32 20L32 21L31 21L31 20ZM31 22L31 23L32 23L32 22ZM0 23L0 24L1 24L1 23ZM4 23L4 24L5 24L5 25L7 25L7 24L5 24L5 23ZM10 23L10 24L11 24L11 26L10 26L10 27L11 27L11 26L12 26L12 27L13 27L13 25L12 25L12 24L13 24L13 23L12 23L12 24L11 24L11 23ZM15 23L15 24L17 24L17 25L16 25L16 27L17 27L17 28L16 28L16 29L15 29L15 31L16 31L16 29L18 29L18 28L19 28L19 27L20 27L20 26L19 26L19 25L18 25L18 23ZM18 26L18 27L19 27L19 26ZM40 29L40 31L39 31L39 32L40 32L40 34L41 34L41 29ZM6 30L6 31L7 31L7 30ZM27 31L27 32L28 32L28 34L29 34L29 32L28 32L28 31ZM33 33L33 36L36 36L36 33ZM24 34L24 35L25 35L25 34ZM34 34L34 35L35 35L35 34ZM21 35L21 37L22 37L22 35ZM40 35L40 38L41 38L41 35ZM15 36L15 37L16 37L16 36ZM36 37L36 38L35 38L35 39L36 39L36 38L37 38L37 37ZM23 38L23 39L24 39L24 38ZM25 38L25 40L27 40L27 38ZM28 38L28 39L29 39L29 40L30 40L30 39L29 39L29 38ZM8 39L8 41L10 41L10 40L9 40L9 39ZM13 39L13 40L14 40L14 39ZM15 39L15 40L16 40L16 39ZM40 39L40 40L41 40L41 39ZM0 0L0 7L7 7L7 0ZM1 1L1 6L6 6L6 1ZM2 2L2 5L5 5L5 2ZM34 0L34 7L41 7L41 0ZM35 1L35 6L40 6L40 1ZM36 2L36 5L39 5L39 2ZM0 34L0 41L7 41L7 34ZM1 35L1 40L6 40L6 35ZM2 36L2 39L5 39L5 36Z" fill="#000000"/></g></g></svg>
