<svg xmlns="http://www.w3.org/2000/svg" xmlns:xlink="http://www.w3.org/1999/xlink" version="1.1" width="256" height="256" viewBox="0 0 256 256" xml:space="preserve">

<defs>
</defs>
<g style="stroke: none; stroke-width: 0; stroke-dasharray: none; stroke-linecap: butt; stroke-linejoin: miter; stroke-miterlimit: 10; fill: none; fill-rule: nonzero; opacity: 1;" transform="translate(1.4065934065934016 1.4065934065934016) scale(2.81 2.81)" >
	<path d="M 74.046 85.127 c 1.647 -1.047 3.107 -2.225 4.546 -3.583 l 0 0 c 5.792 -5.464 6.87 -9.994 2.564 -16.692 l -4.105 -6.387 c -1.927 -2.998 -4.459 -5.502 -7.391 -7.381 c -3.869 -2.479 -8.441 -3.63 -13.036 -3.63 h -0.376 v 0 v 0 l -22.498 0 l -0.376 0 c -4.595 0 -9.167 1.151 -13.036 3.63 c -2.933 1.879 -5.465 4.383 -7.391 7.381 l -4.105 6.387 c -4.305 6.699 -3.227 11.228 2.565 16.692 l 0 0 c 1.439 1.358 2.994 2.565 4.642 3.613 l 28.864 2.685 L 74.046 85.127 z" style="stroke: none; stroke-width: 1; stroke-dasharray: none; stroke-linecap: butt; stroke-linejoin: miter; stroke-miterlimit: 10; fill: rgb(99,147,228); fill-rule: nonzero; opacity: 1;" transform=" matrix(1 0 0 1 0 0) " stroke-linecap="round" />
	<path d="M 57.778 68.221 L 68.05 50.128 c -1.823 -0.95 -3.768 -1.63 -5.775 -2.069 L 51.9 66.378 C 53.948 66.81 55.912 67.433 57.778 68.221 z" style="stroke: none; stroke-width: 1; stroke-dasharray: none; stroke-linecap: butt; stroke-linejoin: miter; stroke-miterlimit: 10; fill: rgb(64,61,68); fill-rule: nonzero; opacity: 1;" transform=" matrix(1 0 0 1 0 0) " stroke-linecap="round" />
	<path d="M 45 58.961 l 11.249 -11.508 l 0 0 c -2.659 -0.448 -3.481 -3.688 -3.481 -6.178 l -0.043 -1.779 h 0.006 H 37.304 l -0.043 1.779 c 0 2.491 -0.851 5.73 -3.51 6.178 L 45 58.961" style="stroke: none; stroke-width: 1; stroke-dasharray: none; stroke-linecap: butt; stroke-linejoin: miter; stroke-miterlimit: 10; fill: rgb(229,168,118); fill-rule: nonzero; opacity: 1;" transform=" matrix(1 0 0 1 0 0) " stroke-linecap="round" />
	<path d="M 58.658 23.258 l -0.541 8.421 c -0.535 6.395 -4.747 11.893 -10.782 14.074 l 0 0 C 46.58 46.026 45.79 46.162 45 46.162 c -0.79 0 -1.58 -0.136 -2.334 -0.409 l 0 0 c -6.036 -2.181 -10.247 -7.678 -10.782 -14.074 l -0.509 -8.421 V 13.191 h 27.283 V 23.258 z" style="stroke: none; stroke-width: 1; stroke-dasharray: none; stroke-linecap: butt; stroke-linejoin: miter; stroke-miterlimit: 10; fill: rgb(249,189,145); fill-rule: nonzero; opacity: 1;" transform=" matrix(1 0 0 1 0 0) " stroke-linecap="round" />
	<path d="M 58.658 23.258 c 6.026 -8.967 3.291 -15.079 -6.41 -18.918 c 0.212 -0.886 1.433 -1.772 3.362 -2.658 C 47.631 -1.315 38.142 -0.63 33.802 6.38 c -5.947 2.005 -7.767 8.66 -2.427 16.879 c 0.596 -10.059 7.125 -9.241 15.01 -5.941 c 3.986 1.525 7.447 1.369 10.71 0.86 C 58.877 17.843 58.79 21.016 58.658 23.258 z" style="stroke: none; stroke-width: 1; stroke-dasharray: none; stroke-linecap: butt; stroke-linejoin: miter; stroke-miterlimit: 10; fill: rgb(73,73,112); fill-rule: nonzero; opacity: 1;" transform=" matrix(1 0 0 1 0 0) " stroke-linecap="round" />
	<path d="M 44.913 40.118 c -2.561 0 -4.81 -1.351 -5.468 -3.286 c -0.178 -0.523 0.102 -1.091 0.625 -1.269 c 0.524 -0.178 1.091 0.102 1.269 0.625 c 0.38 1.119 1.884 1.93 3.574 1.93 s 3.193 -0.812 3.574 -1.93 c 0.178 -0.522 0.741 -0.802 1.269 -0.625 c 0.522 0.178 0.803 0.746 0.624 1.269 C 49.722 38.767 47.474 40.118 44.913 40.118 z" style="stroke: none; stroke-width: 1; stroke-dasharray: none; stroke-linecap: butt; stroke-linejoin: miter; stroke-miterlimit: 10; fill: rgb(204,150,106); fill-rule: nonzero; opacity: 1;" transform=" matrix(1 0 0 1 0 0) " stroke-linecap="round" />
	<path d="M 41.998 28.722 h -3.595 c -0.552 0 -1 -0.448 -1 -1 s 0.448 -1 1 -1 h 3.595 c 0.552 0 1 0.448 1 1 S 42.55 28.722 41.998 28.722 z" style="stroke: none; stroke-width: 1; stroke-dasharray: none; stroke-linecap: butt; stroke-linejoin: miter; stroke-miterlimit: 10; fill: rgb(204,150,106); fill-rule: nonzero; opacity: 1;" transform=" matrix(1 0 0 1 0 0) " stroke-linecap="round" />
	<path d="M 51.423 28.722 h -3.595 c -0.553 0 -1 -0.448 -1 -1 s 0.447 -1 1 -1 h 3.595 c 0.553 0 1 0.448 1 1 S 51.976 28.722 51.423 28.722 z" style="stroke: none; stroke-width: 1; stroke-dasharray: none; stroke-linecap: butt; stroke-linejoin: miter; stroke-miterlimit: 10; fill: rgb(204,150,106); fill-rule: nonzero; opacity: 1;" transform=" matrix(1 0 0 1 0 0) " stroke-linecap="round" />
	<path d="M 22.268 76.019 c -0.256 0 -0.512 -0.098 -0.707 -0.293 c -1.79 -1.788 -2.893 -3.195 -2.864 -4.682 c 0.03 -1.554 1.23 -2.663 3.046 -4.342 c 0.567 -0.524 1.209 -1.118 1.913 -1.813 c 0.393 -0.388 1.027 -0.384 1.414 0.01 c 0.388 0.393 0.384 1.025 -0.009 1.414 c -0.721 0.711 -1.379 1.319 -1.96 1.857 c -1.439 1.331 -2.391 2.21 -2.404 2.911 c -0.013 0.646 0.69 1.642 2.279 3.229 c 0.391 0.39 0.391 1.023 0 1.414 C 22.78 75.921 22.523 76.019 22.268 76.019 z" style="stroke: none; stroke-width: 1; stroke-dasharray: none; stroke-linecap: butt; stroke-linejoin: miter; stroke-miterlimit: 10; fill: rgb(77,105,170); fill-rule: nonzero; opacity: 1;" transform=" matrix(1 0 0 1 0 0) " stroke-linecap="round" />
	<path d="M 67.732 76.019 c -0.256 0 -0.512 -0.098 -0.707 -0.293 c -0.391 -0.391 -0.391 -1.024 0 -1.414 c 1.589 -1.588 2.292 -2.583 2.279 -3.229 c -0.014 -0.702 -0.965 -1.581 -2.405 -2.912 c -0.581 -0.537 -1.239 -1.146 -1.96 -1.857 c -0.394 -0.389 -0.397 -1.021 -0.01 -1.414 c 0.39 -0.394 1.022 -0.397 1.414 -0.01 c 0.703 0.694 1.346 1.288 1.914 1.813 c 1.816 1.679 3.016 2.788 3.046 4.342 c 0.029 1.486 -1.074 2.894 -2.864 4.682 C 68.244 75.921 67.988 76.019 67.732 76.019 z" style="stroke: none; stroke-width: 1; stroke-dasharray: none; stroke-linecap: butt; stroke-linejoin: miter; stroke-miterlimit: 10; fill: rgb(77,105,170); fill-rule: nonzero; opacity: 1;" transform=" matrix(1 0 0 1 0 0) " stroke-linecap="round" />
	<path d="M 74.046 85.127 c -3.807 -11.264 -15.376 -19.478 -29.021 -19.478 c -13.646 0 -25.214 8.214 -29.021 19.478 c 0.235 0.15 0.477 0.287 0.716 0.43 l -0.002 0.003 c 0.036 0.022 0.073 0.039 0.109 0.061 c 0.514 0.306 1.037 0.597 1.567 0.872 c 0.075 0.039 0.148 0.08 0.223 0.118 c 0.587 0.298 1.182 0.582 1.786 0.842 c 0.091 0.039 0.185 0.072 0.276 0.111 c 0.401 0.168 0.803 0.334 1.211 0.486 c 0.001 -0.003 0.003 -0.007 0.004 -0.01 C 25.322 89.315 28.971 90 32.693 90 h 4.33 h 8.004 h 8.004 h 4.327 c 3.725 0 7.38 -0.68 10.809 -1.957 c 0 0.001 0.001 0.002 0.001 0.003 c 0.546 -0.203 1.085 -0.423 1.619 -0.656 c 0.172 -0.075 0.341 -0.159 0.512 -0.237 c 0.449 -0.205 0.892 -0.42 1.331 -0.646 c 0.15 -0.078 0.298 -0.157 0.447 -0.237 c 0.508 -0.273 1.008 -0.56 1.501 -0.862 c 0.047 -0.029 0.096 -0.053 0.143 -0.082 l -0.002 -0.003 C 73.827 85.256 73.939 85.195 74.046 85.127 z M 49.509 84.105 c -1.226 -0.842 -2.78 -1.357 -4.482 -1.357 c -1.702 0 -3.255 0.515 -4.48 1.356 L 29.75 80.431 c 3.565 -3.802 9.084 -6.249 15.276 -6.249 c 6.193 0 11.716 2.446 15.283 6.249 L 49.509 84.105 z" style="stroke: none; stroke-width: 1; stroke-dasharray: none; stroke-linecap: butt; stroke-linejoin: miter; stroke-miterlimit: 10; fill: rgb(73,73,112); fill-rule: nonzero; opacity: 1;" transform=" matrix(1 0 0 1 0 0) " stroke-linecap="round" />
	<path d="M 16.049 85.156 l 4.639 0.162 c 1.664 0.058 3.185 -0.933 3.805 -2.478 l 0.814 -2.029 c 0.697 -1.739 0.077 -3.729 -1.485 -4.764 l -1.553 -1.029 C 15.966 75.391 13.917 78.787 16.049 85.156 z" style="stroke: none; stroke-width: 1; stroke-dasharray: none; stroke-linecap: butt; stroke-linejoin: miter; stroke-miterlimit: 10; fill: rgb(249,189,145); fill-rule: nonzero; opacity: 1;" transform=" matrix(1 0 0 1 0 0) " stroke-linecap="round" />
	<path d="M 74.046 85.127 l -4.588 0.192 c -1.664 0.058 -3.185 -0.933 -3.805 -2.478 l -0.814 -2.029 c -0.697 -1.739 -0.077 -3.729 1.485 -4.764 l 1.553 -1.029 C 74.18 75.391 76.178 78.758 74.046 85.127 z" style="stroke: none; stroke-width: 1; stroke-dasharray: none; stroke-linecap: butt; stroke-linejoin: miter; stroke-miterlimit: 10; fill: rgb(249,189,145); fill-rule: nonzero; opacity: 1;" transform=" matrix(1 0 0 1 0 0) " stroke-linecap="round" />
</g>
</svg>